<svg width="29" height="32" fill="none" xmlns="http://www.w3.org/2000/svg"><path d="M0 6.2v7.5c0 7.9 5.106 15.2 12.662 18 1.225.5 2.553.5 3.778 0l1.123-.4C24.507 28.6 29 22 29 14.4V6.2c0-.6-.51-1.1-1.123-1.1C23.69 4.9 19.4 3.3 15.215.2c-.409-.3-.92-.3-1.328 0C9.6 3.3 5.31 4.9 1.123 5 .511 5.1 0 5.6 0 6.2zm2.349 1c4.084-.4 8.169-2 12.151-4.7 3.982 2.7 8.169 4.3 12.151 4.7v7.1c0 6.7-3.88 12.4-10.007 14.7l-1.123.4c-.715.3-1.43.3-2.144 0C6.842 27 2.349 20.6 2.349 13.6V7.2z" fill="#F88E0F"/><path d="M12.15 20.7c.41.4 1.226.4 1.634 0l7.25-7.1c.511-.4.511-1.2 0-1.6-.408-.5-1.225-.5-1.633 0l-6.434 6.3L9.7 15.1c-.409-.4-1.225-.4-1.634 0-.408.4-.408 1.2 0 1.6l4.085 4z" fill="#F88E0F"/></svg>