<svg width="32" height="32" fill="none" xmlns="http://www.w3.org/2000/svg"><path d="M15.963 15.966v15.408H.625V15.966h7.669" stroke="#00BBAE" stroke-width="1.667" stroke-miterlimit="10" stroke-linejoin="round"/><path d="M8.312 19.87l1.36 2.09 2.405.628-1.568 1.935.156 2.51-2.3-.942-2.3.942.156-2.51-1.569-1.935 2.406-.627 1.254-2.092z" stroke="#00BBAE" stroke-width="1.25" stroke-miterlimit="10" stroke-linejoin="round"/><path d="M23.701 15.966h7.67v15.408H15.962" stroke="#00BBAE" stroke-width="1.667" stroke-miterlimit="10" stroke-linejoin="round"/><path d="M27.469 23.705a3.749 3.749 0 01-3.765 3.764 3.749 3.749 0 01-3.765-3.764 3.749 3.749 0 013.765-3.765 3.749 3.749 0 013.765 3.765z" stroke="#00BBAE" stroke-width="1.667" stroke-miterlimit="10" stroke-linejoin="round"/><path d="M18.822.629h4.88v15.407H8.295V.629h4.88" stroke="#00BBAE" stroke-width="1.667" stroke-miterlimit="10" stroke-linecap="round" stroke-linejoin="round"/><path d="M16.59.629a.625.625 0 01-.627.627.625.625 0 01-.627-.627c0-.349.279-.628.627-.628.349 0 .628.279.628.628z" fill="#00BBAE"/><path d="M15.964 4.393l-3.765 6.484h7.53l-3.765-6.484z" stroke="#00BBAE" stroke-width="1.667" stroke-miterlimit="10" stroke-linejoin="round"/></svg>