<svg width="36" height="36" fill="none" xmlns="http://www.w3.org/2000/svg"><g clip-path="url(#clip0_2793_7108)"><path d="M18 36C9.8 36 3.1 30.1.1 24.2c-.1-.3-.1-.6 0-.8 3-5.9 9.7-11.8 17.9-11.8s14.9 5.9 17.9 11.8c.1.3.1.6 0 .8C33.8 28.3 27.4 36 18 36zm0-22.6c-6.1 0-12 3.8-15.9 10.1l-.2.3.2.3C6 30.4 11.9 34.2 18 34.2s12-3.8 15.9-10.1l.2-.3-.2-.3C30 17.2 24.1 13.4 18 13.4zm0 17c-3.6 0-6.6-2.9-6.6-6.6 0-3.7 2.9-6.6 6.6-6.6 3.7 0 6.6 2.9 6.6 6.6 0 3.7-3 6.6-6.6 6.6zM18 19c-2.6 0-4.8 2.1-4.8 4.8 0 2.7 2.1 4.8 4.8 4.8 2.7 0 4.8-2.1 4.8-4.8 0-2.7-2.2-4.8-4.8-4.8zM4.2 12.3c-.2 0-.4-.1-.6-.2l-3.2-3C0 8.8 0 8.2.3 7.9c.2-.2.4-.3.7-.3.2 0 .4.1.6.2l3.2 2.9c.4.3.4.9.1 1.3-.2.2-.4.3-.7.3zm27.6 0c-.3 0-.5-.1-.7-.3-.3-.4-.3-.9.1-1.3l3.2-2.9c.2-.1.4-.2.6-.2.3 0 .5.1.7.3.2.2.2.4.2.7 0 .2-.1.5-.3.6l-3.2 2.9c-.2.1-.4.2-.6.2zM10.9 8.8c-.4 0-.7-.2-.8-.5l-2.2-5c-.1-.3-.1-.5-.1-.7.1-.2.3-.4.5-.5.1-.1.3-.1.4-.1.3 0 .7.2.8.5l2.2 5c.2.5 0 1-.5 1.2 0 0-.2.1-.3.1zm14.2 0c-.1 0-.2 0-.4-.1s-.4-.3-.5-.5c-.1-.2-.1-.5 0-.7l2.2-5c.2-.3.6-.5.9-.5.1 0 .2 0 .4.1.5.2.7.7.5 1.2l-2.2 5c-.2.3-.5.5-.9.5zM18 7.6c-.5 0-.9-.4-.9-.9V.9c0-.5.4-.9.9-.9s.9.4.9.9v5.8c0 .5-.4.9-.9.9z" fill="#fff"/></g><defs><clipPath id="clip0_2793_7108"><path fill="#fff" d="M0 0h36v36H0z"/></clipPath></defs></svg>