<svg width="42" height="36" fill="none" xmlns="http://www.w3.org/2000/svg"><path fill-rule="evenodd" clip-rule="evenodd" d="M30.34 20.38a.926.926 0 00.928-.932c0-.517-.413-.827-.929-.827H17.956a.926.926 0 00-.929.93c0 .518.413.932.93.932h12.382v-.104zm-12.384-6.208H30.34a.926.926 0 00.93-.93c0-.518-.414-.828-.93-.828H17.956a.926.926 0 00-.929.93c0 .518.413.828.93.828z" fill="#fff"/><path fill-rule="evenodd" clip-rule="evenodd" d="M40.658 26.69c-.207-.207-.413-.31-.723-.31h-2.58V5.482c0-3-2.476-5.483-5.572-5.483H5.365v.103L5.262 0a5.667 5.667 0 00-3.405 1.448C.722 2.38.103 3.724-.001 5.276-.104 6.724.412 8.172 1.341 9.31l.103.104c.206.103.413.207.62.207.206 0 .412-.104.618-.207.413-.414.413-.931.104-1.345a3.79 3.79 0 01-.93-2.897c.207-1.965 1.755-3.31 3.716-3.31h.413a3.578 3.578 0 012.373 1.241c.62.621.929 1.552.929 2.483v24.828c0 3 2.476 5.483 5.47 5.586H36.53a5.591 5.591 0 003.715-1.448c2.27-2.07 2.477-5.587.413-7.862zm-25.799 7.448a3.704 3.704 0 01-3.715-3.724V5.586c0-.93-.31-1.965-.722-2.793l-.62-.93h22.084a3.704 3.704 0 013.715 3.723V26.38H18.265c-.31 0-.516.207-.62.207-.206.207-.309.414-.309.62 0 .208.103.518.206.622.62.724.93 1.551.93 2.482.102 2.173-1.549 3.828-3.613 3.828zm21.671 0H19.09l.516-.931c.723-1.242.929-2.69.62-4.138l-.207-.828h19.607l.206.31c.31.621.516 1.242.516 1.863-.103 2.069-1.754 3.724-3.818 3.724z" fill="#fff"/></svg>