<svg width="36" height="36" fill="none" xmlns="http://www.w3.org/2000/svg"><g clip-path="url(#clip0_2793_7096)" stroke="#fff" stroke-width="1.75" stroke-miterlimit="10"><path d="M25.734 18.002a7.739 7.739 0 01-7.733 7.733 7.739 7.739 0 01-7.733-7.733A7.739 7.739 0 0118 10.27a7.739 7.739 0 017.733 7.733z"/><path d="M33.067 18.002c0 8.267-6.667 15.067-15.067 15.067S2.934 26.402 2.934 18.002 9.6 2.935 18 2.935s15.067 6.8 15.067 15.067zM18 15.469v4.933m2.533-2.4H15.6m2.4-18v13.2m0 9.6v13.2m18-18H22.8m-9.6 0H0"/></g><defs><clipPath id="clip0_2793_7096"><path fill="#fff" d="M0 0h36v36H0z"/></clipPath></defs></svg>