<svg width="24" height="24" fill="none" xmlns="http://www.w3.org/2000/svg"><path d="M2.438 15.212a.75.75 0 01-1.422.477A11.62 11.62 0 01.699 9.44a11.55 11.55 0 013.109-5.633A11.51 11.51 0 0112 .415c2.67 0 5.202.897 7.252 2.55l-.298-2.11a.75.75 0 111.485-.21l.555 3.931a.751.751 0 01-.637.848l-3.931.555a.75.75 0 01-.21-1.485l2.164-.306A10.01 10.01 0 0012 1.915a10.02 10.02 0 00-7.132 2.954 10.036 10.036 0 00-2.43 10.343zm20.546-6.9a.75.75 0 00-1.422.476 10.035 10.035 0 01-2.43 10.344c-3.691 3.69-9.554 3.917-13.511.68l2.163-.306a.75.75 0 10-.21-1.485l-3.93.556a.75.75 0 00-.639.847l.556 3.931a.75.75 0 001.485-.21l-.298-2.109A11.497 11.497 0 0012 23.586a11.51 11.51 0 008.192-3.394A11.55 11.55 0 0023.3 14.56a11.62 11.62 0 00-.316-6.248zm-7.428 6.24c0-1.795-1.595-3.256-3.556-3.256-1.134 0-2.057-.788-2.057-1.756S10.866 7.784 12 7.784c.582 0 1.626.46 1.863.82a.75.75 0 001.254-.824c-.464-.706-1.512-1.204-2.379-1.402l-.022-.907a.75.75 0 00-1.5.036l.021.852c-1.596.32-2.794 1.625-2.794 3.181 0 1.796 1.596 3.256 3.557 3.256 1.134 0 2.056.788 2.056 1.756 0 .969-.922 1.757-2.056 1.757-.782 0-1.181-.258-1.834-.873a.75.75 0 00-1.029 1.091c.578.546 1.184 1.046 2.127 1.218l.02.785a.75.75 0 00.749.732h.018a.75.75 0 00.732-.768l-.018-.761c1.594-.321 2.791-1.625 2.791-3.18z" fill="#fff"/></svg>