<svg width="54" height="54" fill="none" xmlns="http://www.w3.org/2000/svg"><path d="M54 26.957c0 1.374-2.657 2.49-2.829 3.863-.171 1.374 1.972 3.263 1.543 4.55-.428 1.288-3.343 1.546-3.943 2.748-.6 1.202.858 3.691.086 4.807-.771 1.116-3.6.43-4.543 1.374-.943.944-.343 3.777-1.371 4.55-1.114.773-3.6-.687-4.8-.086-1.2.601-1.457 3.52-2.743 3.95-1.286.428-3.171-1.804-4.543-1.546C29.571 51.339 28.371 54 27 54s-2.486-2.661-3.857-2.833c-1.372-.172-3.257 1.974-4.543 1.545-1.286-.429-1.543-3.348-2.743-3.949-1.2-.6-3.686.859-4.8.086-1.114-.773-.428-3.606-1.371-4.55-.943-.944-3.772-.343-4.543-1.374-.772-1.116.686-3.605.086-4.807-.6-1.202-3.515-1.46-3.943-2.748-.429-1.287 1.8-3.176 1.543-4.55C2.657 29.533 0 28.33 0 26.957c0-1.373 2.657-2.49 2.829-3.863.257-1.288-1.886-3.263-1.543-4.464.428-1.288 3.343-1.546 3.943-2.748.6-1.202-.858-3.691-.086-4.807.771-1.116 3.6-.43 4.543-1.374.943-.944.343-3.777 1.371-4.55 1.114-.773 3.6.687 4.8.086 1.2-.601 1.457-3.52 2.743-3.95 1.286-.428 3.171 1.804 4.543 1.546C24.429 2.661 25.629 0 27 0s2.486 2.661 3.857 2.833c1.286.172 3.257-1.974 4.457-1.631 1.286.43 1.543 3.348 2.743 3.949s3.686-.858 4.8-.086c1.114.773.429 3.606 1.372 4.55.942.945 3.771.344 4.542 1.374.772 1.116-.685 3.606-.085 4.807.6 1.202 3.514 1.46 3.943 2.748.428 1.287-1.8 3.176-1.543 4.55.257 1.373 2.914 2.49 2.914 3.863z" fill="#F88E0F"/></svg>