<svg width="28" height="36" fill="none" xmlns="http://www.w3.org/2000/svg"><path d="M10.084 20.784A.288.288 0 019.8 20.5v-1.605a.285.285 0 01.57 0V20.5a.288.288 0 01-.285.284zm6.966 3.188a.288.288 0 00-.285.285v1.604a.285.285 0 00.57 0v-1.605a.288.288 0 00-.285-.284zm10.408-1.106a13.495 13.495 0 01-14.382 12.54A13.5 13.5 0 012.103 15.564c.647-1.17 1.126-3.559.753-4.77a1.055 1.055 0 011.353-1.307 5.614 5.614 0 012.342 1.603c.586-1.151 1.234-2.072 1.83-2.919 1.43-2.032 2.294-3.258 1.376-6.245a1.055 1.055 0 011.346-1.31c4.764 1.61 7.812 4.934 9.301 10.153a9.941 9.941 0 00.09-2.248 1.055 1.055 0 011.904-.687c1.69 2.313 2.988 4.712 3.858 7.132.971 2.705 1.375 5.362 1.202 7.899zm-17.374.028a2.396 2.396 0 002.394-2.394v-1.605a2.394 2.394 0 10-4.788 0V20.5a2.397 2.397 0 002.394 2.394zm7.81-4.64a1.055 1.055 0 00-1.703-1.245L9.24 26.5a1.055 1.055 0 001.702 1.246l6.95-9.492zm1.55 6.003a2.394 2.394 0 10-4.788 0v1.604a2.394 2.394 0 004.788 0v-1.604z" fill="url(#paint0_linear_1106_5380)"/><defs><linearGradient id="paint0_linear_1106_5380" x1="14.001" y1=".562" x2="14.001" y2="35.438" gradientUnits="userSpaceOnUse"><stop stop-color="#FFC886"/><stop offset="1" stop-color="#F88E0F"/></linearGradient></defs></svg>