<svg width="19" height="20" fill="none" xmlns="http://www.w3.org/2000/svg"><path d="M4.981 8.3a4.11 4.11 0 003.056-.896 4.158 4.158 0 001.531-2.8 4.113 4.113 0 00-.897-3.056A4.169 4.169 0 001.285 3.72a4.113 4.113 0 00.897 3.056 4.153 4.153 0 002.8 1.525zm-1.78-4.375a2.248 2.248 0 01.82-1.505c.403-.327.89-.494 1.402-.494.083 0 .16.007.244.013a2.23 2.23 0 011.505.827 2.21 2.21 0 01.48 1.646 2.248 2.248 0 01-.82 1.506 2.209 2.209 0 01-1.646.48A2.245 2.245 0 013.2 3.925zm14.715 9.104a4.17 4.17 0 00-7.387 2.172 4.113 4.113 0 00.897 3.056 4.158 4.158 0 002.8 1.53 4.11 4.11 0 003.056-.896c1.787-1.448 2.075-4.075.634-5.862zm-1.839 4.356a2.217 2.217 0 01-1.646.48 2.23 2.23 0 01-1.506-.826 2.218 2.218 0 01-.48-1.646 2.233 2.233 0 012.223-1.999c.653 0 1.307.288 1.749.833a2.253 2.253 0 01-.34 3.158zm2.505-14.767a.959.959 0 00-1.352-.147L1.265 15.335a.959.959 0 00-.147 1.352.959.959 0 001.352.147L18.435 3.976a.967.967 0 00.147-1.358z" fill="#fff"/></svg>