<svg width="20" height="21" fill="none" xmlns="http://www.w3.org/2000/svg"><path fill-rule="evenodd" clip-rule="evenodd" d="M18.24 8.24h-.375v-.25C17.99 3.496 14.37 0 10 0a7.965 7.965 0 00-7.99 7.99v.25h-.25c-.999 0-1.748.749-1.748 1.623v3.37c0 1.499 1.124 2.622 2.622 2.622h1.373c.874 0 1.623-.749 1.623-1.748V9.864c0-.874-.749-1.748-1.747-1.748h-.25V7.99c0-3.496 2.871-6.367 6.367-6.367s6.367 2.871 6.367 6.367v.25h-.375c-.873 0-1.622.749-1.747 1.748v4.244c0 .874.749 1.623 1.623 1.748-.75 1.498-2.248 2.622-3.995 2.622h-.874c-.375 0-.75.374-.75.749s.375.749.75.749h.998c2.622 0 4.87-1.748 5.619-4.12 1.248-.125 2.372-1.248 2.372-2.622V9.863c0-.874-.75-1.623-1.748-1.623zM4.132 9.863v4.245c0 .124-.125.124-.125.124H2.634c-.624 0-1.123-.5-1.123-1.123V9.738h2.372c.124 0 .25 0 .25.125zm14.357 3.37c0 .625-.499 1.124-1.123 1.124h-1.249c-.125 0-.125-.125-.125-.125V9.738h2.373c.124 0 .124.125.124.125v3.37z" fill="#fff"/></svg>