<svg width="25" height="18" fill="none" xmlns="http://www.w3.org/2000/svg"><path d="M8.333 7.425c0-.45-.324-.788-.757-.788H.758C.325 6.525 0 6.975 0 7.425s.325.787.758.787h6.71c.432 0 .865-.337.865-.787zm-1.839 3.15c0-.45-.325-.788-.758-.788h-3.68c-.433 0-.757.338-.757.788s.324.788.757.788h3.572c.54.112.866-.338.866-.788z" fill="#fff"/><path d="M24.784 8.887l-1.516-1.912-2.38-4.837c-.109-.225-.433-.45-.65-.45h-3.355v-.9c0-.45-.325-.788-.758-.788H3.03c-.433 0-.757.338-.757.787 0 .45.324.788.757.788h12.338v5.737c0 .45.325.788.757.788h6.17l1.19 1.575v4.275H21.97c-.325-1.462-1.624-2.475-3.03-2.475-1.516 0-2.706 1.013-3.03 2.475h-4.655c-.324-1.462-1.623-2.475-3.03-2.475-1.407 0-2.814 1.013-3.138 2.475H3.03c-.433 0-.757.338-.757.788s.324.787.757.787h2.057C5.41 16.988 6.602 18 8.117 18c1.407 0 2.705-1.012 3.03-2.475h4.654c.324 1.35 1.623 2.475 3.03 2.475 1.407 0 2.706-1.012 3.03-2.475h2.273c.433 0 .758-.338.758-.787V9.45c.108-.225 0-.337-.108-.563zm-7.9-5.625h2.921l1.624 3.263H16.99V3.262h-.108zm-8.767 13.05c-.866 0-1.623-.787-1.623-1.687s.757-1.688 1.623-1.688 1.623.788 1.623 1.688c-.108 1.012-.757 1.688-1.623 1.688zm10.714 0c-.866 0-1.623-.787-1.623-1.687s.757-1.688 1.623-1.688 1.624.788 1.624 1.688c0 1.012-.758 1.688-1.624 1.688z" fill="#fff"/><path d="M2.056 4.95h6.71c.433 0 .758-.338.758-.788s-.325-.787-.758-.787h-6.71c-.433 0-.757.337-.757.787s.324.788.757.788z" fill="#fff"/></svg>