<svg width="40" height="24" fill="none" xmlns="http://www.w3.org/2000/svg"><path d="M10.5 4.625c0-.678-.55-1.23-1.23-1.23H1.897a1.23 1.23 0 000 2.46H9.27a1.23 1.23 0 001.229-1.23zM9.27 8.313H4.355a1.23 1.23 0 000 2.458h4.917a1.23 1.23 0 000-2.458zm0 4.916H6.813a1.23 1.23 0 000 2.459h2.459a1.23 1.23 0 000-2.459z" fill="#F88E0F"/><path d="M39.825 12.597l-3.687-6.145a1.226 1.226 0 00-1.055-.598H26.48a1.23 1.23 0 00-1.229 1.23v12.291c0 .678.55 1.23 1.23 1.23h12.29c.68 0 1.23-.552 1.23-1.23v-6.146c0-.223-.06-.442-.175-.632z" fill="#00BBAE"/><path d="M30.166 8.313h4.221l2.95 4.916h-7.17V8.313z" fill="#FAFAFA"/><path d="M26.479.938H9.27c-.679 0-1.23.55-1.23 1.229v17.208c0 .678.551 1.23 1.23 1.23h18.437V2.166c0-.679-.55-1.23-1.23-1.23z" fill="#F88E0F"/><path d="M33.854 21.833a2.458 2.458 0 100-4.916 2.458 2.458 0 000 4.916z" fill="#FAFAFA"/><path d="M33.854 23.062a3.692 3.692 0 01-3.688-3.687 3.692 3.692 0 013.688-3.688 3.692 3.692 0 013.687 3.688 3.692 3.692 0 01-3.687 3.687zm0-4.916c-.676 0-1.23.553-1.23 1.229s.554 1.23 1.23 1.23c.676 0 1.229-.554 1.229-1.23 0-.676-.553-1.23-1.23-1.23z" fill="#001430"/><path d="M27.708 20.604H9.271a1.23 1.23 0 01-1.23-1.23v-3.687h19.667v4.917z" fill="#00BBAE"/><path d="M16.646 21.833a2.458 2.458 0 100-4.916 2.458 2.458 0 000 4.916z" fill="#FAFAFA"/><path d="M16.646 23.062a3.692 3.692 0 01-3.688-3.687 3.692 3.692 0 013.688-3.688 3.692 3.692 0 013.687 3.688 3.692 3.692 0 01-3.687 3.687zm0-4.916c-.679 0-1.23.553-1.23 1.229s.551 1.23 1.23 1.23c.678 0 1.229-.554 1.229-1.23 0-.676-.55-1.23-1.23-1.23z" fill="#001430"/></svg>