<svg width="42" height="36" viewBox="0 0 42 36" fill="none" xmlns="http://www.w3.org/2000/svg">
<path fill-rule="evenodd" clip-rule="evenodd" d="M30.3394 20.3793C30.8554 20.3793 31.2681 19.9656 31.2681 19.4483C31.2681 18.9311 30.8554 18.6207 30.3394 18.6207H17.9561C17.4401 18.6207 17.0273 19.0345 17.0273 19.5518C17.0273 20.069 17.4401 20.4828 17.9561 20.4828H30.3394V20.3793Z" fill="white"/>
<path fill-rule="evenodd" clip-rule="evenodd" d="M17.9561 14.1724H30.3394C30.8554 14.1724 31.2681 13.7586 31.2681 13.2414C31.2681 12.7242 30.8554 12.4138 30.3394 12.4138H17.9561C17.4401 12.4138 17.0273 12.8276 17.0273 13.3449C17.0273 13.8621 17.4401 14.1724 17.9561 14.1724Z" fill="white"/>
<path fill-rule="evenodd" clip-rule="evenodd" d="M40.6578 26.6897C40.4514 26.4828 40.2451 26.3793 39.9355 26.3793H37.3556V5.48276C37.3556 2.48276 34.879 0 31.7831 0H5.57183C5.46864 0 5.46864 0 5.36544 0V0.103448L5.26225 0C3.92073 0.103448 2.78559 0.62069 1.85684 1.44828C0.721708 2.37931 0.102543 3.72414 -0.000650614 5.27586C-0.103845 6.72414 0.412126 8.17241 1.34087 9.31035L1.44407 9.41379C1.65045 9.51724 1.85684 9.62069 2.06323 9.62069C2.26962 9.62069 2.47601 9.51724 2.6824 9.41379C3.09517 9 3.09517 8.48276 2.78559 8.06897C2.06323 7.24138 1.75365 6.2069 1.85684 5.17241C2.06323 3.2069 3.61114 1.86207 5.57183 1.86207C5.67502 1.86207 5.88141 1.86207 5.98461 1.86207C6.91335 1.96552 7.73891 2.37931 8.35807 3.10345C8.97724 3.72414 9.28682 4.65517 9.28682 5.58621V30.4138C9.28682 33.4138 11.7635 35.8966 14.7561 36H36.5301C37.8716 36 39.2131 35.4828 40.2451 34.5517C42.5153 32.4828 42.7217 28.9655 40.6578 26.6897ZM14.8593 34.1379C12.7954 34.1379 11.1443 32.4828 11.1443 30.4138V5.58621C11.1443 4.65517 10.8347 3.62069 10.422 2.7931L9.80279 1.86207H31.8863C33.9502 1.86207 35.6013 3.51724 35.6013 5.58621V26.3793H18.2647C17.9551 26.3793 17.7487 26.5862 17.6455 26.5862C17.4392 26.7931 17.336 27 17.336 27.2069C17.336 27.4138 17.4392 27.7241 17.5423 27.8276C18.1615 28.5517 18.4711 29.3793 18.4711 30.3103C18.5743 32.4828 16.9232 34.1379 14.8593 34.1379ZM36.5301 34.1379H19.0903L19.6062 33.2069C20.3286 31.9655 20.535 30.5172 20.2254 29.069L20.019 28.2414H39.6259L39.8323 28.5517C40.1419 29.1724 40.3482 29.7931 40.3482 30.4138C40.245 32.4828 38.5939 34.1379 36.5301 34.1379Z" fill="white"/>
</svg>
