<svg width="36" height="36" viewBox="0 0 36 36" fill="none" xmlns="http://www.w3.org/2000/svg">
<g clip-path="url(#clip0_2793_7096)">
<path d="M25.7342 18.0021C25.7342 22.2687 22.2675 25.7354 18.0009 25.7354C13.7342 25.7354 10.2676 22.2687 10.2676 18.0021C10.2676 13.7354 13.7342 10.2688 18.0009 10.2688C22.2675 10.2688 25.7342 13.7354 25.7342 18.0021Z" stroke="white" stroke-width="1.75" stroke-miterlimit="10"/>
<path d="M33.0669 18.002C33.0669 26.2686 26.4002 33.0686 18.0002 33.0686C9.60024 33.0686 2.93359 26.402 2.93359 18.002C2.93359 9.60201 9.60024 2.93538 18.0002 2.93538C26.4002 2.93538 33.0669 9.73534 33.0669 18.002Z" stroke="white" stroke-width="1.75" stroke-miterlimit="10"/>
<path d="M18 15.4687V20.402" stroke="white" stroke-width="1.75" stroke-miterlimit="10"/>
<path d="M20.5329 18.002H15.5996" stroke="white" stroke-width="1.75" stroke-miterlimit="10"/>
<path d="M18 0.00206716V13.202" stroke="white" stroke-width="1.75" stroke-miterlimit="10"/>
<path d="M18 22.802V36.002" stroke="white" stroke-width="1.75" stroke-miterlimit="10"/>
<path d="M36.0007 18.002H22.8008" stroke="white" stroke-width="1.75" stroke-miterlimit="10"/>
<path d="M13.2 18.002H0" stroke="white" stroke-width="1.75" stroke-miterlimit="10"/>
</g>
<defs>
<clipPath id="clip0_2793_7096">
<rect width="36" height="36" fill="white"/>
</clipPath>
</defs>
</svg>
