<svg width="29" height="32" viewBox="0 0 29 32" fill="none" xmlns="http://www.w3.org/2000/svg">
<path d="M0 6.19998V13.7C0 21.6 5.10563 28.9 12.662 31.7C13.8873 32.2 15.2148 32.2 16.4401 31.7L17.5634 31.3C24.507 28.6 29 22 29 14.4V6.19998C29 5.59998 28.4894 5.09998 27.8768 5.09998C23.6901 4.89998 19.4014 3.29998 15.2148 0.199976C14.8063 -0.100024 14.2958 -0.100024 13.8873 0.199976C9.59859 3.29998 5.30986 4.89998 1.12324 4.99998C0.510563 5.09998 0 5.59998 0 6.19998ZM2.34859 7.19998C6.4331 6.79998 10.5176 5.19998 14.5 2.49998C18.4824 5.19998 22.669 6.79998 26.6514 7.19998V14.3C26.6514 21 22.7711 26.7 16.6444 29L15.5211 29.4C14.8063 29.7 14.0915 29.7 13.3768 29.4C6.84155 27 2.34859 20.6 2.34859 13.6V7.19998Z" fill="#F88E0F"/>
<path d="M12.1506 20.7C12.5591 21.1 13.376 21.1 13.7844 20.7L21.0344 13.6C21.545 13.2 21.545 12.4 21.0344 12C20.626 11.5 19.8091 11.5 19.4006 12L12.9675 18.3L9.69991 15.1C9.29146 14.7 8.47455 14.7 8.0661 15.1C7.65765 15.5 7.65765 16.3 8.0661 16.7L12.1506 20.7Z" fill="#F88E0F"/>
</svg>
