<svg width="36" height="36" viewBox="0 0 36 36" fill="none" xmlns="http://www.w3.org/2000/svg">
<g clip-path="url(#clip0_2793_7108)">
<path d="M18.0004 36C9.80039 36 3.10039 30.1 0.100391 24.2C0.000390626 23.9 0.000390626 23.6 0.100391 23.4C3.10039 17.5 9.80039 11.6 18.0004 11.6C26.2004 11.6 32.9004 17.5 35.9004 23.4C36.0004 23.7 36.0004 24 35.9004 24.2C33.8004 28.3 27.4004 36 18.0004 36ZM18.0004 13.4C11.9004 13.4 6.00039 17.2 2.10039 23.5L1.90039 23.8L2.10039 24.1C6.00039 30.4 11.9004 34.2 18.0004 34.2C24.1004 34.2 30.0004 30.4 33.9004 24.1L34.1004 23.8L33.9004 23.5C30.0004 17.2 24.1004 13.4 18.0004 13.4ZM18.0004 30.4C14.4004 30.4 11.4004 27.5 11.4004 23.8C11.4004 20.1 14.3004 17.2 18.0004 17.2C21.7004 17.2 24.6004 20.1 24.6004 23.8C24.6004 27.5 21.6004 30.4 18.0004 30.4ZM18.0004 19C15.4004 19 13.2004 21.1 13.2004 23.8C13.2004 26.5 15.3004 28.6 18.0004 28.6C20.7004 28.6 22.8004 26.5 22.8004 23.8C22.8004 21.1 20.6004 19 18.0004 19ZM4.20039 12.3C4.00039 12.3 3.80039 12.2 3.60039 12.1L0.400391 9.1C0.000390619 8.8 0.000390619 8.2 0.300391 7.9C0.500391 7.7 0.700391 7.6 1.00039 7.6C1.20039 7.6 1.40039 7.7 1.60039 7.8L4.80039 10.7C5.20039 11 5.20039 11.6 4.90039 12C4.70039 12.2 4.50039 12.3 4.20039 12.3ZM31.8004 12.3C31.5004 12.3 31.3004 12.2 31.1004 12C30.8004 11.6 30.8004 11.1 31.2004 10.7L34.4004 7.8C34.6004 7.7 34.8004 7.6 35.0004 7.6C35.3004 7.6 35.5004 7.7 35.7004 7.9C35.9004 8.1 35.9004 8.3 35.9004 8.6C35.9004 8.8 35.8004 9.1 35.6004 9.2L32.4004 12.1C32.2004 12.2 32.0004 12.3 31.8004 12.3ZM10.9004 8.8C10.5004 8.8 10.2004 8.6 10.1004 8.3L7.90039 3.3C7.80039 3 7.80039 2.8 7.80039 2.6C7.90039 2.4 8.10039 2.2 8.30039 2.1C8.40039 2 8.60039 2 8.70039 2C9.00039 2 9.40039 2.2 9.50039 2.5L11.7004 7.5C11.9004 8 11.7004 8.5 11.2004 8.7C11.2004 8.7 11.0004 8.8 10.9004 8.8ZM25.1004 8.8C25.0004 8.8 24.9004 8.8 24.7004 8.7C24.5004 8.6 24.3004 8.4 24.2004 8.2C24.1004 8 24.1004 7.7 24.2004 7.5L26.4004 2.5C26.6004 2.2 27.0004 2 27.3004 2C27.4004 2 27.5004 2 27.7004 2.1C28.2004 2.3 28.4004 2.8 28.2004 3.3L26.0004 8.3C25.8004 8.6 25.5004 8.8 25.1004 8.8ZM18.0004 7.6C17.5004 7.6 17.1004 7.2 17.1004 6.7V0.9C17.1004 0.4 17.5004 0 18.0004 0C18.5004 0 18.9004 0.4 18.9004 0.9V6.7C18.9004 7.2 18.5004 7.6 18.0004 7.6Z" fill="white"/>
</g>
<defs>
<clipPath id="clip0_2793_7108">
<rect width="36" height="36" fill="white"/>
</clipPath>
</defs>
</svg>
