<svg width="32" height="32" viewBox="0 0 32 32" fill="none" xmlns="http://www.w3.org/2000/svg">
<path d="M15.9627 15.9662V31.3735H0.625V15.9662H8.29383" stroke="#00BBAE" stroke-width="1.66651" stroke-miterlimit="10" stroke-linejoin="round"/>
<path d="M8.31247 19.8693L9.67195 21.9608L12.0772 22.5883L10.5086 24.5229L10.6654 27.0327L8.36476 26.0915L6.06411 27.0327L6.22097 24.5229L4.65234 22.5883L7.05757 21.9608L8.31247 19.8693Z" stroke="#00BBAE" stroke-width="1.24988" stroke-miterlimit="10" stroke-linejoin="round"/>
<path d="M23.7014 15.9662H31.3703V31.3735H15.9629" stroke="#00BBAE" stroke-width="1.66651" stroke-miterlimit="10" stroke-linejoin="round"/>
<path d="M27.4688 23.7047C27.4688 25.7962 25.7956 27.4694 23.7041 27.4694C21.6127 27.4694 19.9395 25.7962 19.9395 23.7047C19.9395 21.6132 21.6127 19.94 23.7041 19.94C25.7956 19.94 27.4688 21.6132 27.4688 23.7047Z" stroke="#00BBAE" stroke-width="1.66651" stroke-miterlimit="10" stroke-linejoin="round"/>
<path d="M18.8221 0.628515H23.7023V16.0359H8.29492V0.628515H13.1751" stroke="#00BBAE" stroke-width="1.66651" stroke-miterlimit="10" stroke-linecap="round" stroke-linejoin="round"/>
<path d="M16.5908 0.628536C16.5908 0.977119 16.312 1.25598 15.9634 1.25598C15.6148 1.25598 15.3359 0.977119 15.3359 0.628536C15.3359 0.279953 15.6148 0.00109124 15.9634 0.00109124C16.312 0.00109124 16.5908 0.279953 16.5908 0.628536Z" fill="#00BBAE"/>
<path d="M15.9639 4.39317L12.1992 10.8768H19.7286L15.9639 4.39317Z" stroke="#00BBAE" stroke-width="1.66651" stroke-miterlimit="10" stroke-linejoin="round"/>
</svg>
