<svg width="24" height="24" viewBox="0 0 24 24" fill="none" xmlns="http://www.w3.org/2000/svg">
<path d="M2.43787 15.2122C2.56945 15.605 2.35771 16.0301 1.96495 16.1617C1.88592 16.1881 1.80557 16.2007 1.72664 16.2007C1.41304 16.2007 1.12068 16.0025 1.01559 15.6887C0.341198 13.6758 0.231886 11.5154 0.699417 9.44123C1.18007 7.3086 2.25492 5.36062 3.8077 3.80788C5.99587 1.61967 8.90522 0.414556 11.9999 0.414556C14.67 0.414556 17.2018 1.31245 19.2518 2.96418L18.9539 0.854994C18.8959 0.444837 19.1814 0.0653843 19.5915 0.00744674C20.0018 -0.050397 20.3812 0.235025 20.4391 0.645134L20.9945 4.57603C21.0082 4.67355 21.0027 4.77283 20.9781 4.86821C20.9535 4.96358 20.9104 5.05318 20.8511 5.13188C20.7919 5.21058 20.7178 5.27685 20.6329 5.3269C20.5481 5.37695 20.4543 5.4098 20.3567 5.42357L16.4258 5.9789C16.3908 5.98385 16.3554 5.98634 16.32 5.98635C15.9523 5.98635 15.6312 5.71574 15.5783 5.34117C15.5204 4.93101 15.8059 4.55156 16.216 4.49362L18.3801 4.1879C16.5838 2.71532 14.3534 1.91451 11.9998 1.91451C9.30586 1.91451 6.7732 2.96357 4.86825 4.86853C2.14429 7.59257 1.21298 11.556 2.43787 15.2122ZM22.9842 8.3114C22.8525 7.91868 22.4275 7.70699 22.0348 7.83857C21.642 7.9702 21.4303 8.39521 21.5619 8.78798C22.787 12.444 21.8557 16.4074 19.1315 19.1317C15.4409 22.8223 9.57825 23.049 5.62054 19.8121L7.78378 19.5065C8.19393 19.4486 8.4794 19.0691 8.42147 18.659C8.36353 18.2488 7.98384 17.9634 7.57392 18.0213L3.64307 18.5766C3.23292 18.6345 2.94745 19.014 3.00539 19.4242L3.56071 23.355C3.61364 23.7296 3.93468 24.0002 4.30242 24.0002C4.33734 24.0002 4.37273 23.9978 4.40826 23.9928C4.81842 23.9348 5.10389 23.5553 5.04595 23.1452L4.74796 21.036C6.798 22.6878 9.32976 23.5857 11.9999 23.5857C15.0945 23.5857 18.0039 22.3806 20.1921 20.1923C21.7449 18.6396 22.8197 16.6916 23.3005 14.5589C23.768 12.4846 23.6586 10.3243 22.9842 8.3114ZM15.5564 14.5524C15.5564 12.7569 13.961 11.2962 11.9999 11.2962C10.8659 11.2962 9.94326 10.5083 9.94326 9.53995C9.94326 8.57156 10.8659 7.78373 11.9998 7.78368C12.5815 7.78368 13.6263 8.24353 13.8629 8.60367C14.0904 8.94979 14.5554 9.04607 14.9016 8.81854C15.2478 8.59106 15.344 8.12601 15.1165 7.77989C14.6527 7.07418 13.6049 6.57581 12.738 6.37809L12.7163 5.47078C12.7064 5.05668 12.3628 4.7302 11.9486 4.73892C11.5345 4.74881 11.2069 5.09254 11.2168 5.50664L11.2372 6.35915C9.64143 6.67973 8.44331 7.98421 8.44326 9.54C8.44326 11.3355 10.0387 12.7962 11.9999 12.7962C13.1339 12.7962 14.0564 13.584 14.0564 14.5524C14.0564 15.5208 13.1339 16.3087 11.9999 16.3087C11.2176 16.3087 10.8187 16.0514 10.1663 15.4359C9.86508 15.1517 9.39037 15.1655 9.10612 15.4668C8.82187 15.7681 8.8357 16.2428 9.13701 16.527C9.71526 17.0726 10.3208 17.573 11.2644 17.7453L11.2834 18.5296C11.2932 18.9376 11.627 19.2615 12.0328 19.2615C12.0389 19.2615 12.0451 19.2615 12.0513 19.2613C12.4654 19.2513 12.7929 18.9075 12.7829 18.4935L12.7646 17.7329C14.3593 17.4116 15.5564 16.1076 15.5564 14.5524Z" fill="white"/>
</svg>
