<svg width="54" height="54" viewBox="0 0 54 54" fill="none" xmlns="http://www.w3.org/2000/svg">
<path d="M54 26.9571C54 28.3307 51.3429 29.4467 51.1714 30.8204C51 32.194 53.1429 34.0827 52.7143 35.3704C52.2857 36.6582 49.3714 36.9157 48.7714 38.1176C48.1714 39.3196 49.6286 41.8092 48.8571 42.9253C48.0857 44.0413 45.2571 43.3545 44.3143 44.2989C43.3714 45.2432 43.9714 48.0763 42.9429 48.849C41.8286 49.6216 39.3429 48.1622 38.1429 48.7631C36.9429 49.3641 36.6857 52.283 35.4 52.7122C34.1143 53.1415 32.2286 50.9094 30.8571 51.1669C29.5714 51.3386 28.3714 54 27 54C25.6286 54 24.5143 51.3386 23.1429 51.1669C21.7714 50.9952 19.8857 53.1415 18.6 52.7122C17.3143 52.283 17.0571 49.3641 15.8571 48.7631C14.6571 48.1622 12.1714 49.6216 11.0571 48.849C9.94286 48.0763 10.6286 45.2432 9.68571 44.2989C8.74286 43.3545 5.91429 43.9555 5.14286 42.9253C4.37143 41.8092 5.82857 39.3196 5.22857 38.1176C4.62857 36.9157 1.71429 36.6582 1.28571 35.3704C0.857143 34.0827 3.08571 32.194 2.82857 30.8204C2.65714 29.5326 0 28.3307 0 26.9571C0 25.5835 2.65714 24.4674 2.82857 23.0938C3.08571 21.806 0.942857 19.8315 1.28571 18.6296C1.71429 17.3418 4.62857 17.0843 5.22857 15.8824C5.82857 14.6804 4.37143 12.1908 5.14286 11.0747C5.91429 9.95866 8.74286 10.6455 9.68571 9.70111C10.6286 8.75676 10.0286 5.92369 11.0571 5.15103C12.1714 4.37838 14.6571 5.83784 15.8571 5.23688C17.0571 4.63593 17.3143 1.71701 18.6 1.28776C19.8857 0.858505 21.7714 3.09062 23.1429 2.83307C24.4286 2.66137 25.6286 0 27 0C28.3714 0 29.4857 2.66137 30.8571 2.83307C32.1429 3.00477 34.1143 0.858506 35.3143 1.20191C36.6 1.63116 36.8571 4.55008 38.0571 5.15103C39.2571 5.75199 41.7429 4.29253 42.8571 5.06518C43.9714 5.83784 43.2857 8.67091 44.2286 9.61526C45.1714 10.5596 48 9.95866 48.7714 10.9889C49.5429 12.1049 48.0857 14.5946 48.6857 15.7965C49.2857 16.9984 52.2 17.256 52.6286 18.5437C53.0571 19.8315 50.8286 21.7202 51.0857 23.0938C51.3429 24.4674 54 25.5835 54 26.9571Z" fill="#F0344F"/>
</svg>
