<svg width="28" height="36" viewBox="0 0 28 36" fill="none" xmlns="http://www.w3.org/2000/svg">
<path d="M10.0841 20.7844C10.0089 20.7834 9.93706 20.7531 9.88389 20.6999C9.83071 20.6468 9.80042 20.5749 9.79947 20.4997V18.895C9.79947 18.8195 9.82948 18.747 9.88288 18.6936C9.93628 18.6402 10.0087 18.6102 10.0842 18.6102C10.1598 18.6102 10.2322 18.6402 10.2856 18.6936C10.339 18.747 10.369 18.8195 10.369 18.895V20.4995C10.3681 20.5747 10.3378 20.6467 10.2846 20.6999C10.2313 20.7532 10.1594 20.7835 10.0841 20.7844ZM17.0499 23.972C16.9747 23.9729 16.9028 24.0032 16.8496 24.0564C16.7964 24.1096 16.7661 24.1815 16.7652 24.2567V25.8609C16.7652 25.9364 16.7952 26.0089 16.8486 26.0623C16.902 26.1157 16.9744 26.1457 17.05 26.1457C17.1255 26.1457 17.1979 26.1157 17.2513 26.0623C17.3047 26.0089 17.3347 25.9364 17.3347 25.8609V24.2564C17.3338 24.1811 17.3035 24.1093 17.2503 24.0561C17.197 24.0029 17.1251 23.9729 17.0499 23.972ZM27.4578 22.8656C27.2243 26.2733 25.7073 29.4657 23.2126 31.7989C20.718 34.132 17.4313 35.4323 14.0156 35.4375C13.7034 35.4375 13.3901 35.4267 13.0756 35.4053C10.8276 35.2503 8.65414 34.5351 6.7534 33.3249C4.85265 32.1146 3.28509 30.4478 2.19365 28.4765C1.10221 26.5051 0.5216 24.2919 0.504771 22.0386C0.487942 19.7853 1.03543 17.5637 2.0973 15.5762C2.09927 15.5724 2.10131 15.5687 2.10342 15.565C2.74973 14.3946 3.22947 12.0061 2.85576 10.7952C2.79829 10.6089 2.79358 10.4103 2.84216 10.2215C2.89074 10.0327 2.9907 9.86104 3.13095 9.72561C3.27119 9.59018 3.44623 9.49628 3.63662 9.45432C3.82702 9.41237 4.02531 9.42401 4.20949 9.48795C5.11456 9.81293 5.92098 10.3649 6.55146 11.0911C7.13681 9.9395 7.78474 9.01925 8.38113 8.17219C9.81171 6.14016 10.6751 4.91398 9.75736 1.92717C9.70027 1.74161 9.69551 1.54388 9.74361 1.35579C9.79171 1.16769 9.89079 0.996517 10.0299 0.861129C10.1691 0.725741 10.3429 0.63139 10.5323 0.588471C10.7216 0.545552 10.9191 0.555731 11.1031 0.617885C15.8671 2.22685 18.9148 5.55073 20.404 10.7697C20.5188 10.0263 20.5489 9.27213 20.4936 8.52185C20.4796 8.2943 20.5398 8.06834 20.665 7.87785C20.7903 7.68735 20.9739 7.54257 21.1883 7.46519C21.4028 7.38782 21.6365 7.38201 21.8546 7.44865C22.0726 7.51529 22.2632 7.65078 22.3977 7.83483C24.0884 10.1477 25.3863 12.5472 26.2555 14.9668C27.2271 17.6718 27.6315 20.3294 27.4578 22.8656ZM10.0842 22.8937C10.719 22.893 11.3275 22.6406 11.7763 22.1917C12.2251 21.7429 12.4776 21.1344 12.4783 20.4997V18.895C12.4783 18.26 12.2261 17.6511 11.7771 17.2021C11.3281 16.7531 10.7191 16.5008 10.0842 16.5008C9.4492 16.5008 8.84024 16.7531 8.39126 17.2021C7.94227 17.6511 7.69003 18.26 7.69003 18.895V20.4995C7.69066 21.1342 7.94309 21.7428 8.39192 22.1917C8.84075 22.6406 9.44947 22.893 10.0842 22.8937ZM17.8931 18.2547C18.0583 18.029 18.1271 17.7469 18.0844 17.4704C18.0416 17.194 17.8908 16.9458 17.6651 16.7806C17.4393 16.6153 17.1572 16.5465 16.8807 16.5893C16.6043 16.632 16.3561 16.7828 16.1909 17.0086L9.24105 26.5014C9.15924 26.6132 9.10024 26.7399 9.06742 26.8745C9.0346 27.0091 9.02861 27.1488 9.04978 27.2856C9.07096 27.4225 9.11888 27.5539 9.19082 27.6722C9.26277 27.7906 9.35732 27.8936 9.46908 27.9754C9.58083 28.0572 9.70761 28.1162 9.84217 28.1491C9.97673 28.1819 10.1164 28.1879 10.2533 28.1667C10.3902 28.1455 10.5216 28.0976 10.6399 28.0257C10.7583 27.9537 10.8613 27.8592 10.9431 27.7474L17.8931 18.2547ZM19.4441 24.2567C19.4441 23.6217 19.1919 23.0127 18.7429 22.5638C18.2939 22.1148 17.6849 21.8625 17.05 21.8625C16.415 21.8625 15.806 22.1148 15.357 22.5638C14.9081 23.0127 14.6558 23.6217 14.6558 24.2567V25.8609C14.6558 26.4959 14.9081 27.1048 15.357 27.5538C15.806 28.0028 16.415 28.2551 17.05 28.2551C17.6849 28.2551 18.2939 28.0028 18.7429 27.5538C19.1919 27.1048 19.4441 26.4959 19.4441 25.8609V24.2567Z" fill="url(#paint0_linear_1106_5380)"/>
<defs>
<linearGradient id="paint0_linear_1106_5380" x1="14.0007" y1="0.562378" x2="14.0007" y2="35.4375" gradientUnits="userSpaceOnUse">
<stop stop-color="#FFC886"/>
<stop offset="1" stop-color="#F88E0F"/>
</linearGradient>
</defs>
</svg>
