<svg width="19" height="20" viewBox="0 0 19 20" fill="none" xmlns="http://www.w3.org/2000/svg">
<path d="M4.98115 8.30082C5.52457 8.36212 6.07477 8.31437 6.5995 8.16036C7.12424 8.00635 7.61297 7.74918 8.03706 7.40391C8.90194 6.70559 9.4465 5.71258 9.56822 4.60425C9.68994 3.49593 9.36962 2.41322 8.67131 1.54834C8.15352 0.907688 7.45754 0.434792 6.67122 0.189351C5.8849 -0.0560893 5.04349 -0.0630727 4.25321 0.169283C3.46292 0.40164 2.75919 0.862919 2.23084 1.49489C1.7025 2.12687 1.37322 2.9012 1.28459 3.72015C1.22343 4.26357 1.27125 4.81373 1.42525 5.33845C1.57926 5.86316 1.83635 6.3519 2.1815 6.77607C2.88622 7.64095 3.87923 8.1855 4.98115 8.30082ZM3.20014 3.92516C3.2642 3.32936 3.5589 2.79761 4.02017 2.41963C4.42378 2.0929 4.91068 1.92633 5.4232 1.92633C5.50648 1.92633 5.58336 1.93273 5.66665 1.93914C6.26245 2.00321 6.7942 2.29791 7.17218 2.76558C7.55017 3.23326 7.71673 3.81625 7.65267 4.41206C7.5886 5.00787 7.2939 5.53961 6.83263 5.91759C6.37136 6.29558 5.78196 6.46215 5.18616 6.39808C4.59035 6.33402 4.05861 6.03932 3.68062 5.57164C3.30905 5.10396 3.13607 4.52097 3.20014 3.92516ZM17.9159 13.0288C17.3981 12.3882 16.7022 11.9153 15.9158 11.6698C15.1295 11.4244 14.2881 11.4174 13.4978 11.6498C12.7075 11.8821 12.0038 12.3434 11.4755 12.9754C10.9471 13.6074 10.6178 14.3817 10.5292 15.2006C10.4075 16.309 10.7278 17.3917 11.4261 18.2566C12.1244 19.1214 13.1174 19.666 14.2258 19.7877C14.7692 19.849 15.3194 19.8013 15.8441 19.6473C16.3689 19.4932 16.8576 19.2361 17.2817 18.8908C19.0691 17.4429 19.3574 14.8163 17.9159 13.0288ZM16.0772 17.3853C15.6096 17.7633 15.0266 17.9298 14.4308 17.8658C13.835 17.8017 13.3032 17.507 12.9252 17.0393C12.5473 16.5716 12.3807 15.9886 12.4447 15.3928C12.5088 14.797 12.8035 14.2653 13.2648 13.8873C13.6812 13.5542 14.1745 13.394 14.6678 13.394C15.3213 13.394 15.9747 13.6823 16.4168 14.2269C17.192 15.1942 17.0382 16.6101 16.0772 17.3853ZM18.5822 2.61823C18.2491 2.20181 17.6468 2.13774 17.2304 2.47088L1.26537 15.3352C0.848941 15.6683 0.784876 16.2705 1.11802 16.687C1.31021 16.924 1.58569 17.0457 1.86758 17.0457C2.07899 17.0457 2.29041 16.9753 2.46979 16.8343L18.4348 3.97642C18.8513 3.63687 18.9153 3.03466 18.5822 2.61823Z" fill="white"/>
</svg>
