<svg width="20" height="21" viewBox="0 0 20 21" fill="none" xmlns="http://www.w3.org/2000/svg">
<path fill-rule="evenodd" clip-rule="evenodd" d="M18.2397 8.23975H17.8652V7.99006C17.9901 3.49565 14.3696 0 10 0C5.63043 0 2.00994 3.49565 2.00994 7.99006V8.23975H1.76025C0.761489 8.23975 0.0124207 8.98882 0.0124207 9.86273V13.2335C0.0124207 14.7317 1.13602 15.8553 2.63416 15.8553H4.00745C4.88136 15.8553 5.63043 15.1062 5.63043 14.1075V9.86273C5.63043 8.98882 4.88136 8.11491 3.88261 8.11491H3.63292V7.99006C3.63292 4.49441 6.50435 1.62298 10 1.62298C13.4957 1.62298 16.3671 4.49441 16.3671 7.99006V8.23975H15.9925C15.1186 8.23975 14.3696 8.98882 14.2447 9.98758V14.2323C14.2447 15.1062 14.9938 15.8553 15.8677 15.9801C15.1186 17.4783 13.6205 18.6019 11.8727 18.6019H10.9988C10.6242 18.6019 10.2497 18.9764 10.2497 19.3509C10.2497 19.7255 10.6242 20.1 10.9988 20.1H11.9975C14.6193 20.1 16.8665 18.3522 17.6155 15.9801C18.864 15.8553 19.9876 14.7317 19.9876 13.3584V9.86273C19.9876 8.98882 19.2385 8.23975 18.2397 8.23975ZM4.1323 9.86273V14.1075C4.1323 14.2323 4.00745 14.2323 4.00745 14.2323H2.63416C2.00994 14.2323 1.51056 13.7329 1.51056 13.1087V9.86273V9.73789H1.6354H2.63416H2.759H2.88385H3.88261C4.00745 9.73789 4.1323 9.73789 4.1323 9.86273ZM18.4894 13.2335C18.4894 13.8578 17.9901 14.3571 17.3658 14.3571H17.1161H16.1174C15.9925 14.3571 15.9925 14.2323 15.9925 14.2323V9.86273V9.73789H16.1174H18.3646C18.4894 9.73789 18.4894 9.86273 18.4894 9.86273V13.2335Z" fill="white"/>
</svg>
