<svg width="25" height="18" viewBox="0 0 25 18" fill="none" xmlns="http://www.w3.org/2000/svg">
<path d="M8.33333 7.42498C8.33333 6.97498 8.00866 6.63748 7.57576 6.63748H0.757576C0.324675 6.52498 0 6.97498 0 7.42498C0 7.87498 0.324675 8.21248 0.757576 8.21248H7.46753C7.90043 8.21248 8.33333 7.87498 8.33333 7.42498Z" fill="white"/>
<path d="M6.49351 10.575C6.49351 10.125 6.16884 9.78748 5.73594 9.78748H2.05628C1.62338 9.78748 1.29871 10.125 1.29871 10.575C1.29871 11.025 1.62338 11.3625 2.05628 11.3625H5.62771C6.16884 11.475 6.49351 11.025 6.49351 10.575Z" fill="white"/>
<path d="M24.7836 8.8875L23.2684 6.975L20.8875 2.1375C20.7792 1.9125 20.4546 1.6875 20.2381 1.6875H16.8831V0.7875C16.8831 0.3375 16.5584 0 16.1255 0H3.03031C2.59741 0 2.27274 0.3375 2.27274 0.7875C2.27274 1.2375 2.59741 1.575 3.03031 1.575H15.368V7.3125C15.368 7.7625 15.6926 8.1 16.1255 8.1H22.2944L23.4849 9.675V13.95H21.9697C21.645 12.4875 20.3463 11.475 18.9394 11.475C17.4243 11.475 16.2338 12.4875 15.9091 13.95H11.2554C10.9307 12.4875 9.63204 11.475 8.22512 11.475C6.81819 11.475 5.41126 12.4875 5.08659 13.95H3.03031C2.59741 13.95 2.27274 14.2875 2.27274 14.7375C2.27274 15.1875 2.59741 15.525 3.03031 15.525H5.08659C5.41126 16.9875 6.60174 18 8.11689 18C9.52382 18 10.8225 16.9875 11.1472 15.525H15.8009C16.1255 16.875 17.4242 18 18.8312 18C20.2381 18 21.5368 16.9875 21.8615 15.525H24.1342C24.5671 15.525 24.8918 15.1875 24.8918 14.7375V9.45C25 9.225 24.8918 9.1125 24.7836 8.8875ZM16.8831 3.2625H19.8052L21.4286 6.525H16.9914V3.2625H16.8831ZM8.11689 16.3125C7.25109 16.3125 6.49352 15.525 6.49352 14.625C6.49352 13.725 7.25109 12.9375 8.11689 12.9375C8.98269 12.9375 9.74027 13.725 9.74027 14.625C9.63204 15.6375 8.98269 16.3125 8.11689 16.3125ZM18.8312 16.3125C17.9654 16.3125 17.2078 15.525 17.2078 14.625C17.2078 13.725 17.9654 12.9375 18.8312 12.9375C19.697 12.9375 20.4546 13.725 20.4546 14.625C20.4546 15.6375 19.697 16.3125 18.8312 16.3125Z" fill="white"/>
<path d="M2.05628 4.95H8.76624C9.19914 4.95 9.52382 4.6125 9.52382 4.1625C9.52382 3.7125 9.19914 3.375 8.76624 3.375H2.05628C1.62338 3.375 1.29871 3.7125 1.29871 4.1625C1.29871 4.6125 1.62338 4.95 2.05628 4.95Z" fill="white"/>
</svg>
