<svg width="31" height="30" viewBox="0 0 31 30" fill="none" xmlns="http://www.w3.org/2000/svg">
<path d="M21.6668 3.89386C21.655 3.91023 21.123 4.82353 21.123 4.82353C21.0859 4.88774 21.0619 4.95863 21.0522 5.03213C21.0425 5.10564 21.0474 5.18033 21.0666 5.25195C21.0858 5.32356 21.1189 5.39069 21.1641 5.4495C21.2092 5.50832 21.2655 5.55767 21.3297 5.59473C21.4594 5.66958 21.6135 5.68985 21.7581 5.65108C21.9027 5.61231 22.0261 5.51768 22.1009 5.38799C22.1009 5.38799 22.6256 4.47159 22.6338 4.45353C22.322 4.24929 21.9992 4.06245 21.6668 3.89386Z" fill="#F88E0F"/>
<path d="M25.1908 16.9219C25.1266 16.8849 25.0557 16.8608 24.9822 16.8511C24.9087 16.8415 24.834 16.8464 24.7624 16.8656C24.6908 16.8848 24.6236 16.9179 24.5648 16.963C24.506 17.0082 24.4567 17.0644 24.4196 17.1287C24.3825 17.1929 24.3585 17.2638 24.3488 17.3373C24.3391 17.4108 24.3441 17.4855 24.3632 17.5571C24.3824 17.6287 24.4156 17.6958 24.4607 17.7546C24.5058 17.8134 24.5621 17.8628 24.6263 17.8999C24.6263 17.8999 25.5444 18.4231 25.5631 18.4313C25.7667 18.1201 25.9531 17.798 26.1213 17.4663C26.1049 17.4528 25.1908 16.9219 25.1908 16.9219Z" fill="#F88E0F"/>
<path d="M27.1958 12.3486C27.1746 12.3463 26.1154 12.3421 26.1154 12.3421C25.9657 12.3421 25.8221 12.4016 25.7162 12.5074C25.6104 12.6133 25.5509 12.7569 25.5509 12.9066C25.5509 13.0563 25.6104 13.1998 25.7162 13.3057C25.8221 13.4116 25.9657 13.471 26.1154 13.471C26.1154 13.471 27.1746 13.4671 27.1955 13.4645C27.2059 13.2791 27.2118 13.0931 27.2118 12.9066C27.2118 12.72 27.2059 12.5335 27.1958 12.3486Z" fill="#F88E0F"/>
<path d="M24.9093 8.96755C25.0084 8.96765 25.1058 8.94156 25.1915 8.89191C25.1915 8.89191 26.1051 8.35991 26.1212 8.34805C25.9526 8.01577 25.7658 7.69306 25.5615 7.38141C25.5435 7.38931 24.6271 7.91426 24.6271 7.91426C24.5195 7.97639 24.4354 8.07229 24.3878 8.18709C24.3403 8.30189 24.3319 8.42916 24.3641 8.54918C24.3962 8.6692 24.4671 8.77526 24.5657 8.8509C24.6643 8.92654 24.785 8.96755 24.9093 8.96755Z" fill="#F88E0F"/>
<path d="M17.1074 2.80243C16.9209 2.80243 16.7349 2.80836 16.5495 2.8188C16.5472 2.83997 16.543 3.8989 16.543 3.8989C16.543 4.0486 16.6024 4.19218 16.7083 4.29804C16.8142 4.40389 16.9577 4.46336 17.1074 4.46336C17.2571 4.46336 17.4007 4.40389 17.5066 4.29804C17.6124 4.19218 17.6719 4.0486 17.6719 3.8989C17.6719 3.8989 17.6679 2.83968 17.6654 2.81852C17.4796 2.80804 17.2935 2.80268 17.1074 2.80243Z" fill="#F88E0F"/>
<path d="M12.5475 3.89331C12.2154 4.0619 11.8928 4.24864 11.5812 4.45269C11.5894 4.47104 12.1143 5.38829 12.1143 5.38829C12.1511 5.453 12.2003 5.5098 12.2592 5.55541C12.318 5.60102 12.3853 5.63454 12.4571 5.65405C12.529 5.67355 12.6039 5.67865 12.6778 5.66906C12.7516 5.65946 12.8228 5.63536 12.8872 5.59814C12.9517 5.56092 13.0082 5.51131 13.0534 5.45218C13.0986 5.39304 13.1317 5.32555 13.1507 5.25358C13.1698 5.18161 13.1744 5.10659 13.1643 5.03284C13.1542 4.95908 13.1296 4.88805 13.092 4.82383C13.092 4.82383 12.5597 3.90968 12.5475 3.89331Z" fill="#F88E0F"/>
<path d="M18.9336 30.0001C18.0758 29.9948 17.2334 29.7722 16.4849 29.3532C13.1369 27.4485 10.069 25.0889 7.36886 22.3417C4.71186 19.7407 2.44001 16.7734 0.622113 13.5299C-0.414242 11.6251 -0.136808 9.37179 1.31273 7.92196L3.14018 6.09451C3.32248 5.92671 3.53711 5.79789 3.77094 5.71594C4.00477 5.634 4.25286 5.60066 4.50002 5.61797C4.74719 5.63528 4.98822 5.70287 5.20834 5.8166C5.42847 5.93033 5.62305 6.0878 5.78018 6.27937L9.50197 10.6709C9.8017 11.004 9.96412 11.4382 9.95653 11.8862C9.94894 12.3342 9.77189 12.7627 9.46105 13.0854L7.50829 15.0382C7.43487 15.1162 7.39088 15.2173 7.38388 15.3242C7.37688 15.4311 7.40729 15.5371 7.4699 15.6241C9.63998 18.822 12.5535 21.0624 14.6138 22.3784C14.6997 22.4357 14.8025 22.4624 14.9055 22.4542C15.0085 22.4461 15.1058 22.4034 15.1816 22.3333L16.9458 20.569C17.271 20.2629 17.6987 20.089 18.1452 20.0815C18.5918 20.074 19.0251 20.2334 19.3603 20.5284L23.7519 24.2502C23.9436 24.4072 24.1012 24.6017 24.2151 24.8219C24.3289 25.042 24.3966 25.2831 24.4139 25.5303C24.4312 25.7775 24.3978 26.0257 24.3158 26.2595C24.2337 26.4934 24.1047 26.708 23.9367 26.8902C22.4812 28.3457 21.1737 30.0001 18.9336 30.0001Z" fill="#00BBAE"/>
<path d="M21.9962 14.503C21.8675 14.4795 21.7522 14.4091 21.6725 14.3054C21.6363 14.2323 21.6152 14.1527 21.6104 14.0713C21.6055 13.9899 21.6171 13.9084 21.6442 13.8315L21.9016 12.6157H20.6381L20.3335 14.0717C20.2683 14.3822 20.0857 14.4731 19.7747 14.4784C19.6611 14.4854 19.547 14.4759 19.436 14.4502C19.1538 14.3715 19.1199 14.133 19.1727 13.8804L19.9065 10.3807C19.9187 10.2864 19.9532 10.1964 20.0073 10.1182C20.1992 9.88425 20.8751 9.89526 21.0397 10.1608C21.1023 10.3013 21.1095 10.4602 21.0597 10.6056L20.8543 11.5824H22.117L22.3602 10.4171C22.3635 10.3544 22.3794 10.2929 22.4069 10.2365C22.4344 10.18 22.473 10.1296 22.5205 10.0884C22.5679 10.0472 22.6231 10.016 22.6829 9.99665C22.7426 9.97727 22.8057 9.97015 22.8683 9.9757C23.065 9.94012 23.2679 9.97874 23.4378 10.0841C23.4962 10.1574 23.5345 10.2446 23.549 10.3372C23.5634 10.4298 23.5535 10.5245 23.5202 10.6121L22.8073 14.0243C22.7936 14.1449 22.7457 14.2591 22.6693 14.3534C22.5768 14.4295 22.4676 14.4827 22.3506 14.5087C22.2337 14.5347 22.1122 14.5327 21.9962 14.503ZM13.6207 12.9293C13.8769 12.691 14.0652 12.5031 14.1809 12.3696C14.4691 12.0639 14.6382 11.6651 14.6576 11.2455C14.6623 11.0736 14.6306 10.9026 14.5647 10.7438C14.4987 10.585 14.4 10.4419 14.2749 10.324C13.9926 10.0734 13.6231 9.94378 13.2461 9.96299C12.9262 9.95663 12.6124 10.0517 12.3498 10.2345C12.1159 10.4356 11.9471 10.7016 11.8646 10.9988C11.8427 11.0542 11.8336 11.1139 11.838 11.1733C11.8425 11.2328 11.8603 11.2904 11.8901 11.342C11.92 11.3936 11.9611 11.4377 12.0105 11.4712C12.0598 11.5046 12.1161 11.5264 12.1751 11.535C12.3006 11.5618 12.428 11.5793 12.5561 11.5875C12.6401 11.5876 12.7219 11.5609 12.7897 11.5113C12.8575 11.4618 12.9078 11.3919 12.9331 11.3118C12.9896 11.1424 13.0506 10.9384 13.2662 10.9384C13.3017 10.9368 13.3371 10.9429 13.37 10.9563C13.4029 10.9697 13.4324 10.99 13.4567 11.016C13.5029 11.0804 13.5293 11.1569 13.5327 11.236C13.536 11.3152 13.516 11.3936 13.4753 11.4616C13.274 11.7907 13.0145 12.0803 12.7093 12.3162C12.3348 12.6716 12.0729 12.9338 11.9307 13.0952C11.762 13.2859 11.6219 13.4999 11.5147 13.7308C11.4598 13.8183 11.4299 13.9192 11.4283 14.0224C11.4267 14.1257 11.4533 14.2275 11.5053 14.3167C11.5425 14.3652 11.5904 14.4045 11.6453 14.4315C11.7002 14.4585 11.7606 14.4724 11.8217 14.4722H13.8648C13.9565 14.4719 14.0454 14.4401 14.1166 14.3822C14.1877 14.3242 14.2368 14.2436 14.2557 14.1539L14.3138 13.8716C14.3258 13.8136 14.3247 13.7536 14.3106 13.696C14.2966 13.6385 14.2698 13.5848 14.2324 13.5388C14.195 13.4929 14.1478 13.4559 14.0942 13.4304C14.0407 13.405 13.9822 13.3918 13.9229 13.3918H13.1364C13.221 13.3041 13.3836 13.1491 13.6207 12.9293ZM17.9882 10.1273C18.0257 10.1732 18.0525 10.2271 18.0665 10.2847C18.0805 10.3424 18.0814 10.4025 18.0692 10.4606L17.6224 12.5957H17.6357C17.6947 12.5965 17.7527 12.6103 17.8058 12.636C17.8588 12.6617 17.9056 12.6988 17.9428 12.7445C17.9801 12.7902 18.0068 12.8435 18.0212 12.9007C18.0357 12.9579 18.0374 13.0175 18.0263 13.0754L17.978 13.3063C17.9591 13.3959 17.9099 13.4763 17.8389 13.5341C17.7678 13.5919 17.679 13.6236 17.5874 13.6238H17.4076L17.2948 14.1547C17.2755 14.2441 17.2262 14.3243 17.1551 14.3819C17.084 14.4395 16.9954 14.471 16.9039 14.4714H16.6101C16.5511 14.4705 16.4931 14.4567 16.44 14.431C16.3869 14.4053 16.3401 14.3682 16.3029 14.3225C16.2657 14.2768 16.2389 14.2235 16.2245 14.1663C16.2101 14.1091 16.2084 14.0495 16.2195 13.9916L16.2965 13.6247H15.1571C15.0974 13.6247 15.0385 13.6113 14.9847 13.5855C14.9308 13.5597 14.8835 13.5221 14.8461 13.4756C14.8087 13.4291 14.7822 13.3748 14.7686 13.3167C14.7549 13.2585 14.7545 13.1981 14.7674 13.1398C14.7792 12.9518 14.8359 12.7694 14.9328 12.6078L17.0616 10.1196C17.0991 10.0758 17.1457 10.0405 17.1981 10.0164C17.2506 9.99231 17.3076 9.97985 17.3653 9.97993H17.6786C17.7379 9.97984 17.7964 9.99302 17.85 10.0185C17.9035 10.044 17.9509 10.0812 17.9882 10.1273ZM16.7548 11.8054L16.021 12.6724H16.5748L16.7548 11.8054Z" fill="#001430"/>
<path d="M25.6959 22.4356C25.6215 22.4364 25.5498 22.4078 25.4963 22.356L23.8145 20.6737C23.7879 20.6465 23.767 20.6143 23.753 20.579C23.7391 20.5436 23.7323 20.5058 23.7331 20.4678C23.734 20.4298 23.7424 20.3924 23.7579 20.3577C23.7735 20.323 23.7958 20.2918 23.8236 20.2658C24.819 19.3583 25.6201 18.2583 26.1783 17.0323C26.7366 15.8064 27.0404 14.48 27.0715 13.1333C27.1026 11.7866 26.8602 10.4476 26.3591 9.1972C25.8579 7.94682 25.1084 6.81106 24.1559 5.85857C23.2034 4.90609 22.0675 4.15666 20.8171 3.65561C19.5667 3.15455 18.2277 2.91227 16.881 2.94342C15.5343 2.97456 14.2079 3.27849 12.982 3.83682C11.7561 4.39514 10.6562 5.19628 9.74866 6.19178C9.72276 6.21957 9.69156 6.24189 9.65691 6.25744C9.62225 6.27299 9.58483 6.28145 9.54685 6.28231C9.50888 6.28318 9.47111 6.27644 9.43578 6.2625C9.40045 6.24855 9.36826 6.22767 9.34112 6.20109L7.65845 4.51843C7.60676 4.46679 7.5771 4.3971 7.57573 4.32404C7.57436 4.25098 7.60139 4.18024 7.65112 4.12669C8.83142 2.85476 10.2561 1.83394 11.84 1.12527C13.4239 0.416604 15.1344 0.034649 16.8693 0.00224983C18.6042 -0.0301493 20.3279 0.287673 21.9371 0.936709C23.5463 1.58575 25.0082 2.55266 26.2351 3.77964C27.4621 5.00661 28.429 6.46843 29.0781 8.07767C29.7271 9.68692 30.0449 11.4105 30.0125 13.1454C29.9801 14.8803 29.5982 16.5909 28.8895 18.1748C28.1808 19.7587 27.16 21.1834 25.8881 22.3637C25.8353 22.4109 25.7667 22.4366 25.6959 22.4356Z" fill="#F88E0F"/>
</svg>
