<svg width="140" height="46" fill="none" xmlns="http://www.w3.org/2000/svg"><g clip-path="url(#clip0_1573_6217)"><path d="M25.574 1.107C24.918.341 24.016 0 22.95 0H3.607C2.623 0 1.72.34 1.066 1.107.328 1.874 0 2.726 0 3.833c0 1.108.328 1.96 1.066 2.641.737.682 1.557 1.022 2.54 1.022h6.066V31.86c0 1.108.328 1.96.984 2.726a3.577 3.577 0 002.623 1.108c1.065 0 1.885-.341 2.623-1.108.655-.767.983-1.618.983-2.726V7.581h6.066c1.065 0 1.885-.34 2.623-1.022a3.811 3.811 0 001.065-2.64c0-1.193-.328-2.045-1.065-2.812zm-.738 1.704c0 .085-.082.17-.164.34-.082.086-.164.171-.246.171h-.082c-.328-.766-.901-1.107-1.557-1.107h-.656c-.246 0-.328-.085-.41-.256v-.085c0-.17.082-.255.164-.426h1.066c.246 0 .492 0 .738.17.573.17.901.597 1.229 1.108-.082 0-.082 0-.082.085z" fill="#F88E0F"/><path d="M45.492 16.867c-.738-1.619-1.64-3.067-2.87-4.26-1.229-1.192-2.54-2.214-4.18-2.896a12.525 12.525 0 00-5-1.022c-1.803.085-3.524.511-5.163 1.192-1.64.682-2.951 1.704-4.18 2.897-1.148 1.192-2.05 2.64-2.706 4.259-.655 1.619-.983 3.407-.983 5.196 0 1.96.328 3.748.983 5.367a13.516 13.516 0 002.787 4.26c1.148 1.192 2.541 2.129 4.18 2.81 1.558.682 3.28 1.023 5.083 1.023 1.803 0 3.524-.341 5.082-1.023 1.557-.681 2.95-1.703 4.098-2.896a13.512 13.512 0 002.787-4.26c.656-1.618.983-3.407.983-5.195.164-2.045-.245-3.834-.901-5.452zm-6.476 7.752c-.328.766-.737 1.448-1.311 2.044-.574.596-1.148 1.022-1.885 1.363a5.425 5.425 0 01-2.377.511c-.902 0-1.64-.17-2.295-.511-.738-.34-1.394-.767-1.886-1.363-.573-.596-.983-1.278-1.311-2.044a6.316 6.316 0 01-.492-2.47c0-.853.164-1.705.492-2.471.328-.767.738-1.448 1.311-1.96a5.325 5.325 0 011.886-1.277 5.325 5.325 0 012.295-.511c1.72.085 3.114.681 4.262 1.874 1.147 1.192 1.721 2.64 1.803 4.344a6.31 6.31 0 01-.492 2.47zm1.312-10.393l-.082.085c-.082 0-.164-.085-.328-.17-1.885-1.534-4.098-2.47-6.721-2.726-.246 0-.41-.17-.41-.256 0-.17.164-.255.41-.255.41-.085.82-.085 1.23-.085.9 0 1.803.17 2.704.51 1.475.512 2.541 1.364 3.197 2.556.082.17.164.256.164.34-.082-.084-.082-.084-.164 0zM74.344 9.54c-.737-.68-1.557-1.021-2.459-1.021-.983 0-1.803.34-2.54 1.022-.656.681-.984 1.533-.984 2.555V22.32c0 .851-.164 1.618-.492 2.385a7.56 7.56 0 01-1.312 1.874c-.573.51-1.23.937-1.967 1.192-.738.341-1.475.426-2.213.426-.902 0-1.64-.17-2.377-.51-.738-.341-1.393-.767-1.885-1.364-.574-.596-.984-1.192-1.23-1.959a5.907 5.907 0 01-.491-2.385V12.01c0-1.022-.41-1.789-1.148-2.47-.738-.597-1.558-.937-2.46-.937-.983 0-1.802.34-2.54 1.022-.656.681-.984 1.533-.984 2.556v9.54c0 2.045.328 3.834 1.066 5.537.738 1.704 1.64 3.152 2.869 4.345a12.862 12.862 0 004.18 2.896 12.524 12.524 0 005 1.022c1.066 0 2.131-.085 3.197-.34 1.065-.256 2.049-.597 2.869-1.108v8.093c0 1.107.328 1.959 1.065 2.64.738.682 1.558 1.023 2.46 1.023.9 0 1.72-.341 2.458-1.023.738-.681 1.066-1.533 1.066-2.47V12.011c-.082-.937-.41-1.789-1.148-2.47zm-19.59 1.79c0 .085-.082.17-.164.34-.082.086-.164.17-.246.17 0 0-.082 0-.082-.084-.328-.767-.901-1.108-1.557-1.108-.246 0-.492 0-.738.085h-.082c-.164 0-.246 0-.246-.085s0-.17.082-.255c.164-.17.328-.341.492-.426.164-.086.41-.086.574-.086.246 0 .492 0 .738.17.573.171.901.597 1.23 1.108v.17zm19.017 0c0 .085-.082.17-.164.34-.082.086-.164.17-.246.17 0 0-.082 0-.082-.084-.328-.767-.902-1.108-1.558-1.108-.246 0-.492 0-.737.085h-.082c-.164 0-.246 0-.246-.085s0-.17.082-.255c.164-.17.328-.341.492-.426.163-.086.41-.086.573-.086.246 0 .492 0 .738.17.492.171.902.597 1.23 1.108v.17zm65.163 5.622c-.737-1.619-1.639-3.067-2.868-4.26-1.23-1.192-2.541-2.214-4.181-2.896a12.52 12.52 0 00-5-1.022c-1.803 0-3.442.34-5.082 1.107-1.557.682-2.951 1.704-4.18 2.982-1.23 1.193-2.131 2.64-2.869 4.26-.738 1.618-1.065 3.407-1.065 5.195v20.445a3.22 3.22 0 001.065 2.385c.738.682 1.475 1.022 2.377 1.022.984 0 1.803-.34 2.541-1.022.656-.681.984-1.533.984-2.555V34.5c1.803.937 3.852 1.363 6.065 1.363 1.804 0 3.525-.34 5.164-1.022 1.558-.682 2.951-1.704 4.181-2.897 1.147-1.192 2.049-2.64 2.786-4.259.656-1.618.984-3.407.984-5.281.164-2.13-.164-3.834-.902-5.452zm-6.475 7.666a8.35 8.35 0 01-1.23 2.045c-.573.596-1.147 1.022-1.885 1.363a5.421 5.421 0 01-2.377.511c-.819 0-1.557-.17-2.295-.511a7.936 7.936 0 01-1.967-1.278c-.574-.511-.984-1.192-1.312-1.96-.327-.766-.491-1.618-.491-2.555 0-.852.164-1.618.491-2.385.328-.767.738-1.363 1.23-1.96.574-.51 1.147-1.021 1.885-1.362a5.694 5.694 0 012.377-.511c.82 0 1.64.17 2.295.51a9.346 9.346 0 011.886 1.279 6.264 6.264 0 011.311 1.959c.328.767.492 1.533.492 2.47 0 .937-.082 1.619-.41 2.386zm1.721-9.114l-.082.085c-.082 0-.164-.085-.328-.17-1.885-1.534-4.098-2.47-6.721-2.726-.246 0-.41-.17-.41-.256 0-.17.164-.255.41-.255.41-.086.82-.086 1.23-.086.901 0 1.721.17 2.705.511 1.475.511 2.541 1.363 3.196 2.556.082.17.164.255.164.34-.082-.17-.082-.085-.164 0z" fill="#F88E0F"/><path d="M109.18 23.256v2.13c0 2.044-.41 4.003-1.147 5.792-.738 1.789-1.804 3.407-3.115 4.685-1.311 1.363-2.869 2.385-4.59 3.152a13.766 13.766 0 01-5.656 1.192 12.154 12.154 0 01-5.492-1.022c-1.721-.767-3.278-1.789-4.59-3.152a16.712 16.712 0 01-3.197-4.685c-.737-1.704-1.147-3.492-1.147-5.366v-2.556c0-1.022.328-1.96 1.066-2.811.737-.767 1.639-1.193 2.786-1.278h.41c3.36-.17 4.672 3.322 6.803 4.26 2.377.936 6.066.766 8.935-2.216 1.229-1.192 2.623-1.874 3.934-1.874.328-.085.656-.17.984-.17 1.065 0 1.967.426 2.787 1.193.738.851 1.147 1.788 1.229 2.726z" fill="#00BBAE"/><path d="M87.295 8.604c-2.213 0-4.016 1.874-4.016 4.089 0 2.3 1.803 4.089 4.016 4.089s4.016-1.875 4.016-4.09c-.082-2.3-1.803-4.088-4.016-4.088zm-1.64 3.237c-.491 0-.9-.426-.9-.937 0-.511.409-.852.9-.852.492 0 .902.426.902.852s-.41.937-.901.937zm16.394-3.237c-2.213 0-4.016 1.874-4.016 4.089 0 2.3 1.803 4.089 4.016 4.089s4.017-1.875 4.017-4.09c0-2.3-1.804-4.088-4.017-4.088zm-1.639 3.237c-.492 0-.902-.426-.902-.937 0-.511.41-.852.902-.852.492 0 .901.426.901.852s-.409.937-.901.937z" fill="#F88E0F"/><path d="M83.934 27.344c1.558 1.023 3.115 1.874 4.672 2.47 1.558.597 3.115.853 4.673.767 1.557-.085 3.032-.681 4.426-1.448 1.475-.851 2.869-1.959 4.344-3.066-.656 1.789-1.803 3.407-3.197 4.685-1.475 1.278-3.36 2.215-5.41 2.385-2.049.17-4.016-.426-5.655-1.533-1.64-1.108-3.033-2.556-3.853-4.26z" fill="#fff"/></g><defs><clipPath id="clip0_1573_6217"><path fill="#fff" d="M0 0h140v46H0z"/></clipPath></defs></svg>