<svg width="146" height="48" fill="none" xmlns="http://www.w3.org/2000/svg"><g clip-path="url(#clip0_1106_6399)"><path d="M26.67 1.156C25.986.356 25.046 0 23.934 0H3.761c-1.026 0-1.966.356-2.65 1.156C.341 1.956 0 2.844 0 4s.342 2.044 1.111 2.756c.77.71 1.624 1.066 2.65 1.066h6.326v25.422c0 1.156.342 2.045 1.025 2.845a3.73 3.73 0 002.736 1.155c1.111 0 1.966-.355 2.735-1.155.684-.8 1.026-1.689 1.026-2.845V7.911h6.325c1.112 0 1.966-.355 2.736-1.067a3.978 3.978 0 001.11-2.754c0-1.245-.342-2.133-1.111-2.933zm-.77 1.777c0 .09-.085.178-.17.356-.086.089-.172.178-.257.178h-.085c-.342-.8-.94-1.156-1.625-1.156h-.683c-.257 0-.342-.089-.428-.267v-.088c0-.178.086-.267.171-.445h1.111c.257 0 .513 0 .77.178.598.178.94.622 1.282 1.155-.085 0-.085 0-.085.09z" fill="#fff"/><path d="M47.441 17.6c-.769-1.689-1.71-3.2-2.992-4.444-1.282-1.245-2.65-2.312-4.359-3.023-1.624-.71-3.42-1.066-5.214-1.066-1.88.089-3.676.533-5.385 1.244-1.71.711-3.078 1.778-4.36 3.022-1.197 1.245-2.137 2.756-2.82 4.445-.685 1.689-1.027 3.555-1.027 5.422 0 2.044.342 3.911 1.026 5.6a14.1 14.1 0 002.907 4.444c1.196 1.245 2.65 2.223 4.359 2.934 1.624.71 3.42 1.066 5.3 1.066s3.675-.355 5.3-1.066c1.624-.711 3.077-1.778 4.273-3.022a14.102 14.102 0 002.907-4.445c.684-1.689 1.026-3.555 1.026-5.422.17-2.133-.257-4-.94-5.689zm-6.753 8.089c-.342.8-.769 1.511-1.367 2.133-.599.622-1.197 1.067-1.966 1.422a5.655 5.655 0 01-2.48.534c-.94 0-1.709-.178-2.393-.534-.769-.355-1.453-.8-1.966-1.422-.598-.622-1.025-1.333-1.367-2.133a6.595 6.595 0 01-.513-2.578c0-.889.17-1.778.513-2.578.341-.8.769-1.51 1.367-2.044a5.55 5.55 0 011.966-1.333 5.55 5.55 0 012.394-.534c1.795.09 3.248.711 4.445 1.956 1.196 1.244 1.795 2.755 1.88 4.533 0 .889-.17 1.778-.513 2.578zm1.368-10.845l-.085.09c-.086 0-.171-.09-.342-.178-1.966-1.6-4.274-2.578-7.01-2.845-.256 0-.427-.178-.427-.267 0-.177.17-.266.427-.266.428-.09.855-.09 1.282-.09.94 0 1.881.179 2.821.534 1.539.534 2.65 1.422 3.334 2.667.086.178.171.267.171.355-.085-.088-.085-.088-.17 0zM77.53 9.956c-.769-.712-1.624-1.067-2.564-1.067-1.026 0-1.88.355-2.65 1.067-.684.71-1.026 1.6-1.026 2.666V23.29a6.15 6.15 0 01-.513 2.489 7.886 7.886 0 01-1.367 1.955c-.599.534-1.282.978-2.052 1.245-.769.355-1.538.444-2.308.444-.94 0-1.71-.178-2.479-.533-.769-.356-1.453-.8-1.966-1.422-.598-.623-1.025-1.245-1.282-2.045-.342-.8-.513-1.6-.513-2.489v-10.4c0-1.066-.427-1.866-1.196-2.577-.77-.623-1.624-.978-2.565-.978-1.026 0-1.88.355-2.65 1.066-.684.712-1.026 1.6-1.026 2.667v9.956c0 2.133.343 4 1.112 5.777.77 1.778 1.71 3.29 2.992 4.534A13.413 13.413 0 0059.837 36c1.623.711 3.418 1.067 5.213 1.067 1.112 0 2.223-.09 3.334-.356 1.111-.267 2.137-.622 2.992-1.155V44c0 1.156.342 2.044 1.111 2.756.77.71 1.624 1.066 2.565 1.066.94 0 1.795-.355 2.564-1.066.77-.712 1.111-1.6 1.111-2.578V12.533c-.085-.977-.427-1.866-1.197-2.577zM57.1 11.822c0 .09-.085.178-.17.356-.086.089-.171.178-.257.178 0 0-.085 0-.085-.09-.342-.8-.94-1.155-1.624-1.155-.257 0-.513 0-.77.089h-.085c-.171 0-.257 0-.257-.089s0-.178.086-.267c.17-.177.342-.355.513-.444.17-.089.427-.089.598-.089.257 0 .513 0 .77.178.598.178.94.622 1.282 1.155v.178zm19.832 0c0 .09-.085.178-.17.356-.086.089-.172.178-.257.178 0 0-.086 0-.086-.09-.342-.8-.94-1.155-1.624-1.155-.256 0-.513 0-.77.089h-.085c-.17 0-.256 0-.256-.089s0-.178.085-.267c.171-.177.342-.355.513-.444.171-.089.428-.089.599-.089.256 0 .512 0 .769.178.513.178.94.622 1.282 1.155v.178zm67.957 5.867c-.77-1.689-1.71-3.2-2.992-4.445-1.282-1.244-2.65-2.31-4.36-3.022-1.624-.71-3.419-1.066-5.214-1.066-1.88 0-3.59.355-5.3 1.155-1.624.711-3.077 1.778-4.359 3.111-1.282 1.245-2.223 2.756-2.992 4.445-.769 1.689-1.111 3.555-1.111 5.422v21.333c0 .978.427 1.867 1.111 2.49.769.71 1.539 1.066 2.479 1.066 1.026 0 1.881-.356 2.65-1.067.684-.711 1.026-1.6 1.026-2.667V36c1.88.978 4.017 1.422 6.325 1.422a13.88 13.88 0 005.385-1.066c1.624-.712 3.078-1.778 4.36-3.023 1.197-1.244 2.137-2.755 2.906-4.444.684-1.689 1.026-3.556 1.026-5.511.171-2.222-.171-4-.94-5.69zm-6.753 8c-.342.8-.77 1.511-1.282 2.133-.599.622-1.197 1.067-1.967 1.422a5.65 5.65 0 01-2.478.534 5.55 5.55 0 01-2.394-.534 8.277 8.277 0 01-2.051-1.333c-.599-.533-1.026-1.244-1.368-2.044-.342-.8-.513-1.69-.513-2.667 0-.889.171-1.689.513-2.489.342-.8.769-1.422 1.282-2.044.598-.534 1.197-1.067 1.966-1.423a5.93 5.93 0 012.479-.533c.855 0 1.71.178 2.394.533.683.356 1.367.8 1.966 1.334a6.528 6.528 0 011.367 2.044c.342.8.513 1.6.513 2.578 0 .978-.085 1.689-.427 2.489zm1.795-9.511l-.086.089c-.085 0-.171-.09-.342-.178-1.966-1.6-4.274-2.578-7.009-2.845-.256 0-.427-.177-.427-.266 0-.178.171-.267.427-.267.427-.089.855-.089 1.282-.089.941 0 1.795.178 2.821.534 1.539.533 2.65 1.422 3.334 2.666.085.178.171.267.171.356-.086-.178-.086-.09-.171 0z" fill="#fff"/><path d="M113.86 24.267v2.222c0 2.133-.428 4.178-1.197 6.044-.77 1.867-1.881 3.556-3.248 4.89-1.368 1.421-2.992 2.488-4.787 3.288a14.347 14.347 0 01-5.898 1.245 12.669 12.669 0 01-5.728-1.067c-1.795-.8-3.419-1.867-4.786-3.289a17.437 17.437 0 01-3.334-4.889c-.77-1.778-1.197-3.644-1.197-5.6v-2.667c0-1.066.342-2.044 1.111-2.933.77-.8 1.71-1.244 2.907-1.333h.427c3.505-.178 4.872 3.466 7.095 4.444 2.479.978 6.325.8 9.317-2.31 1.282-1.245 2.736-1.956 4.103-1.956.342-.09.684-.178 1.026-.178 1.111 0 2.052.444 2.906 1.244.77.89 1.197 1.867 1.283 2.845z" fill="#F88E0F"/><path d="M91.036 8.978c-2.308 0-4.188 1.955-4.188 4.266 0 2.4 1.88 4.267 4.188 4.267s4.189-1.955 4.189-4.267c-.086-2.4-1.88-4.266-4.189-4.266zm-1.71 3.378c-.512 0-.94-.445-.94-.978 0-.534.428-.89.94-.89.514 0 .94.445.94.89 0 .444-.427.978-.94.978zm17.097-3.378c-2.308 0-4.189 1.955-4.189 4.266 0 2.4 1.881 4.267 4.189 4.267s4.188-1.955 4.188-4.267c0-2.4-1.88-4.266-4.188-4.266zm-1.71 3.378c-.513 0-.94-.445-.94-.978 0-.534.427-.89.94-.89.513 0 .94.445.94.89 0 .444-.427.978-.94.978zM87.531 28.533c1.625 1.067 3.249 1.956 4.873 2.578 1.624.622 3.248.889 4.872.8 1.624-.089 3.163-.711 4.616-1.511 1.539-.889 2.992-2.044 4.531-3.2-.684 1.867-1.881 3.556-3.334 4.889-1.539 1.333-3.505 2.311-5.642 2.489-2.137.178-4.188-.445-5.898-1.6-1.71-1.156-3.163-2.667-4.018-4.445z" fill="#fff"/></g><defs><clipPath id="clip0_1106_6399"><path fill="#fff" d="M0 0h146v48H0z"/></clipPath></defs></svg>