<svg width="398" height="163" viewBox="0 0 398 163" fill="none" xmlns="http://www.w3.org/2000/svg">
<path d="M17.1457 161.107L11.0495 159.965C4.57219 156.917 0 150.059 0 142.059V106.628L4.9532 109.295C7.62031 111.199 10.2874 113.485 12.5735 115.771L14.0976 117.295L14.4786 114.628C15.6216 107.771 19.0508 101.294 24.004 96.3412C32.3863 87.5788 44.1978 84.5309 55.2473 86.4358L59.4385 87.5788V85.2929C60.5815 75.0065 64.7727 65.1011 72.393 57.4815C85.3475 44.1473 104.779 40.7185 120.782 47.5761L121.925 47.9571V47.1951C121.925 35.3848 126.497 23.5745 135.261 14.431C153.168 -3.85591 181.745 -3.85591 199.652 14.431C210.702 25.8604 214.893 41.4804 212.226 56.3386L211.845 58.6244L217.941 56.7196C228.99 54.4337 240.802 57.8625 249.184 66.625C252.613 70.0538 255.281 74.2445 256.805 78.4353L257.567 80.3402L259.472 78.8163C280.047 61.6723 310.528 62.8152 329.96 82.626C341.39 94.4364 346.724 110.437 345.2 125.677L344.438 130.629L347.486 129.867C358.536 127.581 370.347 131.01 378.73 139.773C380.254 141.678 381.778 143.202 383.302 145.487L383.683 146.63L386.35 141.297C387.874 138.63 389.779 136.344 392.065 134.058L397.399 129.486V162.25H17.1457V161.107Z" fill="white"/>
</svg>
