<svg width="567" height="186" viewBox="0 0 567 186" fill="none" xmlns="http://www.w3.org/2000/svg">
<path d="M0.429688 184.108V152.867L1.95373 151.343C27.8628 125.056 69.7746 125.056 95.6836 151.343L97.2077 153.248L97.5887 149.82C99.1128 141.057 103.304 132.676 110.162 125.818C121.212 114.389 136.833 110.198 151.312 112.865L156.646 114.389V111.341C157.789 98.0065 163.504 85.0533 173.411 74.7669C190.557 57.2419 215.704 52.6702 237.04 61.4327L238.565 62.1946V61.0517C238.565 45.4316 244.28 29.8115 256.091 18.0012C279.333 -6.0004 317.054 -6.0004 340.677 18.0012C355.155 32.8593 360.871 53.4321 357.06 72.862L356.298 75.9098L364.3 73.624C378.778 70.5761 394.019 75.1479 405.449 86.5772C410.022 91.1489 413.07 96.4826 415.356 102.197L416.118 104.864L418.404 102.578C445.456 80.1006 485.463 81.6245 510.61 107.531C525.85 123.151 532.328 144.105 530.423 164.297L529.661 170.773L533.471 169.63C544.139 167.344 555.57 169.249 565.476 175.345L567 176.488V176.869C563.571 181.822 558.237 185.25 551.759 185.25H0.429688V184.108Z" fill="white"/>
</svg>
