<svg width="568" height="186" viewBox="0 0 568 186" fill="none" xmlns="http://www.w3.org/2000/svg">
<path d="M0.494385 184.108V152.867L2.01842 151.343C27.9275 125.056 69.8392 125.056 95.7483 151.343L97.2724 153.248L97.6534 149.82C99.1775 141.057 103.369 132.676 110.227 125.818C121.276 114.389 136.898 110.198 151.377 112.865L156.711 114.389V111.341C157.854 98.0065 163.569 85.0533 173.476 74.7669C190.621 57.2419 215.768 52.6702 237.105 61.4327L238.629 62.1946V61.0517C238.629 45.4316 244.344 29.8115 256.156 18.0012C279.398 -6.0004 317.118 -6.0004 340.741 18.0012C355.22 32.8593 360.935 53.4321 357.125 72.862L356.363 75.9098L364.364 73.624C378.843 70.5761 394.084 75.1479 405.514 86.5772C410.086 91.1489 413.134 96.4826 415.421 102.197L416.183 104.864L418.469 102.578C445.521 80.1006 485.527 81.6245 510.674 107.531C525.915 123.151 532.392 144.105 530.487 164.297L529.725 170.773L533.535 169.63C544.204 167.344 555.634 169.249 565.541 175.345L567.065 176.488V176.869C563.636 181.822 558.301 185.25 551.824 185.25H0.494385V184.108Z" fill="white"/>
</svg>
