<svg width="677" height="131" viewBox="0 0 677 131" fill="none" xmlns="http://www.w3.org/2000/svg">
<path d="M278.074 129.447V107.482L279.145 106.41C297.362 87.9274 326.83 87.9274 345.047 106.41L346.119 107.75L346.387 105.339C347.458 99.1778 350.405 93.2848 355.227 88.4632C362.996 80.4271 373.98 77.4806 384.16 79.3557L387.91 80.4271V78.2842C388.714 68.9088 392.732 59.8014 399.698 52.5689C411.753 40.2471 429.434 37.0326 444.436 43.1936L445.507 43.7293V42.9257C445.507 31.9432 449.526 20.9606 457.831 12.6567C474.172 -4.21891 500.694 -4.21891 517.303 12.6567C527.483 23.1035 531.501 37.5684 528.822 51.2296L528.287 53.3725L533.912 51.7653C544.092 49.6224 554.808 52.8368 562.845 60.8728C566.06 64.0872 568.203 67.8374 569.81 71.8554L570.346 73.7305L571.953 72.1233C590.974 56.3191 619.103 57.3906 636.784 75.6055C647.499 86.5881 652.054 101.321 650.714 115.518L650.178 120.071L652.857 119.268C660.358 117.661 668.395 119 675.36 123.286L676.432 124.09V124.357C674.021 127.84 670.27 130.25 665.716 130.25H278.074V129.447Z" fill="url(#paint0_linear_2883_491)"/>
<path d="M12.0552 129.447L7.76892 128.643C3.21473 126.5 0 121.678 0 116.053V91.1416L3.48262 93.0167C5.35788 94.356 7.23314 95.9632 8.8405 97.5704L9.91208 98.6419L10.18 96.7668C10.9837 91.9452 13.3947 87.3915 16.8773 83.9092C22.771 77.7483 31.0757 75.6053 38.8446 76.9447L41.7915 77.7483V76.1411C42.5951 68.9086 45.542 61.9441 50.8998 56.5867C60.0082 47.2114 73.6708 44.8006 84.9224 49.6222L85.7261 49.8901V49.3543C85.7261 41.0505 88.9408 32.7466 95.1023 26.3178C107.693 13.4601 127.785 13.4601 140.376 26.3178C148.145 34.3538 151.092 45.3363 149.217 55.7831L148.949 57.3904L153.235 56.051C161.004 54.4438 169.309 56.8546 175.203 63.0156C177.614 65.4264 179.489 68.3729 180.561 71.3194L181.096 72.6588L182.436 71.5873C196.902 59.5333 218.334 60.3369 231.996 74.266C240.033 82.5699 243.783 93.8203 242.712 104.535L242.176 108.017L244.319 107.482C252.088 105.874 260.393 108.285 266.287 114.446C267.358 115.785 268.43 116.857 269.501 118.464L269.769 119.268L271.644 115.518C272.716 113.642 274.055 112.035 275.663 110.428L279.413 107.214V130.25H12.0552V129.447Z" fill="url(#paint1_linear_2883_491)"/>
<defs>
<linearGradient id="paint0_linear_2883_491" x1="477.253" y1="0" x2="477.253" y2="130.25" gradientUnits="userSpaceOnUse">
<stop stop-color="white"/>
<stop offset="1" stop-color="white" stop-opacity="0"/>
</linearGradient>
<linearGradient id="paint1_linear_2883_491" x1="139.707" y1="16.6745" x2="139.707" y2="130.25" gradientUnits="userSpaceOnUse">
<stop stop-color="white"/>
<stop offset="1" stop-color="white" stop-opacity="0"/>
</linearGradient>
</defs>
</svg>
