<svg width="304" height="431" viewBox="0 0 304 431" fill="none" xmlns="http://www.w3.org/2000/svg">
<path d="M17.8602 348.721V430.303H333.114L316.618 135.436L316.381 130.993C320.06 130.163 323.561 128.978 326.943 127.379C347.948 117.603 362.782 93.8455 362.782 66.0592C362.782 29.5637 337.149 0 305.582 0C274.015 0 248.382 29.5637 248.382 66.0592C248.382 77.1974 250.755 87.6246 254.968 96.8078C246.602 98.8814 239.54 102.081 234.616 105.872C225.596 98.4074 214.441 94.0232 202.455 94.0232C172.016 94.0232 147.332 122.284 147.332 157.12C147.332 183.248 161.217 205.642 180.976 215.24C185.307 216.247 189.461 217.61 193.436 219.328C196.344 219.861 199.37 220.158 202.455 220.158H202.633L202.515 224.127C199.667 222.291 196.64 220.691 193.436 219.328C189.105 218.499 184.951 217.136 180.976 215.24C175.813 214.055 170.414 213.404 164.836 213.404C147.213 213.404 131.192 219.743 119.147 230.111C108.823 220.987 95.4127 215.477 80.638 215.477C48.2997 215.477 22.0138 242.138 22.0138 274.96C22.0138 279.285 22.4884 283.492 23.3192 287.52C9.96849 291.134 0 303.991 0 319.217C0 332.251 7.29836 343.508 17.8602 348.721Z" fill="white"/>
</svg>
