<svg width="115" height="77" viewBox="0 0 115 77" fill="none" xmlns="http://www.w3.org/2000/svg">
<g clip-path="url(#clip0_2611_7474)">
<path d="M56.6977 77C50.2791 77 44.9302 73.5 41.7209 68.6538L41.186 67.5769L40.6512 67.8462C38.5116 68.6538 36.1047 69.1923 33.4302 69.1923C27.0116 69.1923 21.6628 65.6923 18.4535 60.8462L17.6512 59.5L14.4419 59.2308C6.15116 57.3462 0 49.8077 0 40.9231C0.267442 30.6923 8.55814 22.6154 18.4535 22.8846H18.7209L19.5233 20.1923C22.4651 13.7308 28.8837 9.15385 36.6395 9.15385C37.9767 9.15385 39.0465 9.42308 40.3837 9.69231L43.0581 10.5L43.3256 9.96154C46.5349 3.76923 52.686 0 59.6395 0C66.0581 0 71.407 3.5 74.6163 8.34615L76.2209 11.3077L77.2907 11.0385C78.093 11.0385 79.1628 10.7692 79.9651 10.7692C87.7209 10.7692 94.1395 15.8846 96.814 22.6154L97.3488 23.9615L100.826 24.2308C109.116 26.1154 115.267 33.6538 115.267 42.5385C115.267 51.4231 108.849 58.6923 100.291 60.3077L97.6163 60.5769V60.8462C94.407 66.7692 88.2558 70.8077 81.0349 70.8077C78.6279 70.8077 76.2209 70.2692 73.814 69.1923L72.4767 68.3846L72.2093 69.1923C68.7326 74.0385 63.1163 77.2692 56.6977 77Z" fill="white" fill-opacity="0.6745"/>
</g>
<defs>
<clipPath id="clip0_2611_7474">
<rect width="115" height="77" fill="white"/>
</clipPath>
</defs>
</svg>
