<svg width="350" height="436" viewBox="0 0 350 436" fill="none" xmlns="http://www.w3.org/2000/svg">
<path d="M350 300.39C350 318.688 337.521 334.421 319.619 341.472L316.296 441H-11.1278L-18.2419 62.4672C-18.7668 59.3206 -19 56.1156 -19 52.7941C-19 23.6583 1.81748 0 27.5332 0C53.2489 0 74.0664 23.6583 74.0664 52.7941C74.0664 61.7097 72.0838 70.1591 68.6433 77.5596C72.6669 81.5803 75.8157 86.8831 77.6817 93.0016C84.5043 87.5823 92.668 84.3774 101.473 84.3774C125.498 84.3774 144.916 107.977 144.916 137.055C144.916 164.151 128.005 186.469 106.255 189.383L106.43 195.21C114.943 192.471 124.448 190.956 134.478 190.956C156.345 190.956 175.763 198.24 187.6 209.37C196.639 191.714 215.823 179.477 237.982 179.477C268.829 179.477 293.904 203.077 293.904 232.154C293.904 240.837 291.688 249.053 287.723 256.279C291.221 255.638 294.837 255.288 298.51 255.288C326.967 255.346 350 275.508 350 300.39Z" fill="white"/>
</svg>
