<svg width="91" height="61" viewBox="0 0 91 61" fill="none" xmlns="http://www.w3.org/2000/svg">
<path d="M44.8651 61C39.786 61 35.5535 58.2273 33.014 54.3881L32.5907 53.535L32.1674 53.7483C30.4744 54.3881 28.5698 54.8147 26.4535 54.8147C21.3744 54.8147 17.1419 52.042 14.6023 48.2028L13.9674 47.1364L11.4279 46.9231C4.86744 45.4301 0 39.458 0 32.4196C0.211628 24.3147 6.77209 17.9161 14.6023 18.1294H14.814L15.4488 15.9965C17.7767 10.8776 22.8558 7.25175 28.993 7.25175C30.0512 7.25175 30.8977 7.46503 31.9558 7.67832L34.0721 8.31818L34.2837 7.89161C36.8233 2.98601 41.6907 0 47.193 0C52.2721 0 56.5047 2.77273 59.0442 6.61189L60.314 8.95804L61.1605 8.74475C61.7953 8.74475 62.6419 8.53147 63.2767 8.53147C69.414 8.53147 74.493 12.5839 76.6093 17.9161L77.0326 18.9825L79.7837 19.1958C86.3442 20.6888 91.2116 26.6608 91.2116 33.6993C91.2116 40.7378 86.1326 46.4965 79.3605 47.7762L77.2442 47.9895V48.2028C74.7047 52.8951 69.8372 56.0944 64.1233 56.0944C62.2186 56.0944 60.314 55.6678 58.4093 54.8147L57.3512 54.1748L57.1395 54.8147C54.3884 58.6538 49.9442 61.2133 44.8651 61Z" fill="white" fill-opacity="0.6745"/>
</svg>
