<svg width="399" height="163" viewBox="0 0 399 163" fill="none" xmlns="http://www.w3.org/2000/svg">
<path d="M18.0813 161.107L11.985 159.965C5.50774 156.917 0.935547 150.059 0.935547 142.059V106.628L5.88875 109.295C8.55586 111.199 11.223 113.485 13.5091 115.771L15.0331 117.295L15.4141 114.628C16.5572 107.771 19.9863 101.294 24.9395 96.3412C33.3219 87.5788 45.1334 84.5309 56.1828 86.4358L60.374 87.5788V85.2929C61.517 75.0065 65.7082 65.1011 73.3285 57.4815C86.2831 44.1473 105.715 40.7185 121.718 47.5761L122.861 47.9571V47.1951C122.861 35.3848 127.433 23.5745 136.196 14.431C154.104 -3.85591 182.68 -3.85591 200.588 14.431C211.637 25.8604 215.828 41.4804 213.161 56.3386L212.78 58.6244L218.877 56.7196C229.926 54.4337 241.737 57.8625 250.12 66.625C253.549 70.0538 256.216 74.2445 257.74 78.4353L258.502 80.3402L260.407 78.8163C280.982 61.6723 311.463 62.8152 330.895 82.626C342.326 94.4364 347.66 110.437 346.136 125.677L345.374 130.629L348.422 129.867C359.471 127.581 371.283 131.01 379.665 139.773C381.189 141.678 382.713 143.202 384.237 145.487L384.618 146.63L387.285 141.297C388.81 138.63 390.715 136.344 393.001 134.058L398.335 129.486V162.25H18.0813V161.107Z" fill="white"/>
</svg>
