<svg width="57" height="38" viewBox="0 0 57 38" fill="none" xmlns="http://www.w3.org/2000/svg">
<path d="M27.9044 37.9622C24.8931 37.9622 22.0826 36.3704 20.4766 33.9828L20.2759 33.5848L20.0751 33.7838C19.0713 34.1817 17.8668 34.3807 16.6623 34.3807C13.6511 34.3807 10.8406 32.7889 9.23458 30.4013L8.83308 29.6054L7.22707 29.4064C3.21206 28.4116 0.200806 24.8301 0.200806 20.6517C0.200806 15.6774 4.41657 11.698 9.23458 11.897H9.43533L9.83683 10.7032C11.0413 7.1217 14.2533 4.93302 18.0676 5.13199C18.6698 5.13199 19.2721 5.13199 19.8743 5.33096L21.0789 5.72891L21.2796 5.33096C22.8856 2.54537 25.8969 0.555664 29.3096 0.555664C32.3209 0.555664 35.1314 2.14743 36.7374 4.53508L37.5404 5.92788H37.9419C38.3434 5.92788 38.9456 5.92788 39.3471 5.92788C43.1614 5.92788 46.3734 8.31553 47.5779 11.698L47.7787 12.2949L49.5854 12.4939C53.6004 13.2898 56.6117 17.0702 56.6117 21.2486C56.6117 25.626 53.3997 29.2075 49.3847 29.8044L48.1802 30.0033V30.2023C46.5742 33.1869 43.5629 35.1766 39.9494 34.9776C38.7449 34.9776 37.5404 34.7787 36.5366 34.1817L35.5329 33.7838L35.3321 33.9828C33.7261 36.3704 31.1164 37.9622 27.9044 37.9622Z" fill="white"/>
</svg>
