<svg width="420" height="359" viewBox="0 0 420 359" fill="none" xmlns="http://www.w3.org/2000/svg">
<path d="M-36.1475 325.677C-27.1106 294.538 -4.99177 267.441 23.7541 252.387C52.5 237.333 87.3566 234.581 118.168 244.817C134.004 250.151 149.41 259.355 157.758 273.893C165.418 287.14 166.365 303.226 164.816 318.452C161.373 351.828 146.225 383.828 122.557 407.57C116.791 413.333 110.078 421.591 114.381 428.559C116.963 432.774 122.385 433.979 127.291 434.581C155.176 438.108 183.922 435.097 210.43 425.893C219.811 422.624 230.139 417.29 232.291 407.656C233.668 401.634 231.43 395.355 229.279 389.591C223.168 372.731 217.918 355.355 217.143 337.462C216.369 319.57 220.414 300.989 231.43 286.882C242.447 272.774 261.123 264.086 278.68 267.699C288.75 269.764 297.873 275.613 308.115 276.559C315.861 277.247 323.607 275.011 331.094 272.602C334.537 271.484 338.324 270.022 339.701 266.753C340.648 264.516 340.131 261.936 339.615 259.613C335.742 242.409 328.426 225.893 318.184 211.527C316.463 209.118 314.57 206.624 311.988 205.161C305.275 201.29 296.926 205.075 290.385 209.118C274.033 219.183 258.885 231.398 241.672 240C224.459 248.602 204.148 253.333 185.902 247.226C169.721 241.893 157.328 228.903 143.041 219.527C126.947 208.86 87.959 184.172 46.2172 188.559C4.47544 192.946 -37.1803 216.43 -51.4672 234.581C-60.6762 246.108 -63.4303 261.85 -61.2787 276.559C-59.127 291.183 -52.4139 304.86 -44.1516 317.161" fill="url(#paint0_linear_2902_445)"/>
<path d="M-10.2418 140.301C-7.65979 124.473 1.80743 109.936 15.2337 101.161C28.5738 92.3871 45.7009 89.4624 61.2787 93.3334C71.3484 95.828 80.5574 100.989 89.7664 105.893C112.316 117.849 138.48 128.516 162.664 120.344C185.041 112.774 199.5 90.1506 204.32 67.0968C206.988 54.0215 207.16 40.1721 202.34 27.699C197.607 15.1398 187.537 4.38713 174.713 0.860252C170.668 -0.258028 166.021 -0.602114 162.406 1.72047C157.5 4.81724 156.467 11.5269 156.812 17.3764C157.5 28.9033 161.717 40.6882 158.275 51.785C156.639 57.0323 153.455 61.5914 149.754 65.6344C136.672 79.828 116.447 87.5699 97.4263 84.2151C78.2337 80.7742 62.6558 67.3549 47.4222 55.1398C32.1886 42.9248 14.7173 31.0538 -4.81962 31.828C-10.3278 32 -15.9221 33.2904 -20.3114 36.5592C-24.1844 39.3979 -27.0245 43.5269 -29.1762 47.742C-39.2459 67.3549 -38.127 92.3011 -26.2499 110.968" fill="url(#paint1_linear_2902_445)"/>
<path d="M271.193 158.624C255.098 194.151 226.266 198.882 212.754 192.258C199.844 185.893 192.443 170.753 193.389 156.387C194.336 142.022 202.684 128.774 214.045 119.914C224.717 111.57 238.402 106.581 251.914 108.129C258.799 108.903 265.857 111.312 270.762 116.301C280.316 125.936 276.873 143.14 272.828 154.065" fill="url(#paint2_linear_2902_445)"/>
<path d="M365.779 438.28C346.156 438.71 324.553 436.301 310.697 422.366C297.357 408.947 294.775 387.097 302.09 369.721C309.406 352.344 325.5 339.527 343.316 333.334C360.098 327.484 379.205 327.226 395.213 334.968C403.389 338.925 414.492 346.753 418.537 362.237C422.582 377.721 416.213 397.248 406.488 408.086" fill="url(#paint3_linear_2902_445)"/>
<path d="M7.31563 421.592C-5.68027 412.645 -17.8155 400.86 -17.0409 384.774C-16.2663 369.376 -2.66797 353.032 14.1148 344.602C30.9837 336.086 50.2624 334.882 66.0124 339.011C80.9017 342.882 93.3812 351.656 98.2869 364.473C100.783 371.011 101.299 378.753 98.4591 386.237C95.6189 393.807 89.2501 401.118 81.0738 405.075" fill="url(#paint4_linear_2902_445)"/>
<defs>
<linearGradient id="paint0_linear_2902_445" x1="-74.3392" y1="466.658" x2="254.335" y2="178.936" gradientUnits="userSpaceOnUse">
<stop stop-color="white"/>
<stop offset="1" stop-color="white" stop-opacity="0"/>
</linearGradient>
<linearGradient id="paint1_linear_2902_445" x1="116.605" y1="-16.1695" x2="65.5899" y2="115.413" gradientUnits="userSpaceOnUse">
<stop stop-color="white"/>
<stop offset="1" stop-color="white" stop-opacity="0"/>
</linearGradient>
<linearGradient id="paint2_linear_2902_445" x1="299.791" y1="116.294" x2="194.636" y2="172.923" gradientUnits="userSpaceOnUse">
<stop stop-color="white"/>
<stop offset="1" stop-color="white" stop-opacity="0"/>
</linearGradient>
<linearGradient id="paint3_linear_2902_445" x1="453.087" y1="369.242" x2="297.218" y2="394.511" gradientUnits="userSpaceOnUse">
<stop stop-color="white"/>
<stop offset="1" stop-color="white" stop-opacity="0"/>
</linearGradient>
<linearGradient id="paint4_linear_2902_445" x1="-13.9273" y1="472.94" x2="85.4305" y2="307.884" gradientUnits="userSpaceOnUse">
<stop stop-color="white"/>
<stop offset="1" stop-color="white" stop-opacity="0"/>
</linearGradient>
</defs>
</svg>
