<svg width="369" height="351" viewBox="0 0 369 351" fill="none" xmlns="http://www.w3.org/2000/svg">
<path d="M400.759 65.2184C392.819 92.5436 373.386 116.321 348.131 129.531C322.875 142.74 292.251 145.156 265.181 136.173C251.268 131.493 237.733 123.417 230.399 110.66C223.669 99.0352 222.837 84.9197 224.198 71.5591C227.223 42.2713 240.531 14.1913 261.325 -6.64221C266.391 -11.6996 272.289 -18.9461 268.508 -25.0603C266.24 -28.759 261.476 -29.8158 257.166 -30.3442C232.667 -33.439 207.412 -30.7971 184.122 -22.7203C175.88 -19.8519 166.807 -15.1719 164.916 -6.7177C163.706 -1.43382 165.672 4.07651 167.563 9.13393C172.931 23.9288 177.544 39.1765 178.224 54.8772C178.905 70.5778 175.351 86.8823 165.672 99.2617C155.994 111.641 139.585 119.265 124.16 116.095C115.313 114.283 107.298 109.15 98.2996 108.32C91.4943 107.716 84.6889 109.678 78.1104 111.792C75.0858 112.773 71.7588 114.057 70.549 116.925C69.7172 118.887 70.1709 121.152 70.6246 123.19C74.0273 138.287 80.4545 152.78 89.4526 165.386C90.9649 167.499 92.6285 169.688 94.8969 170.971C100.795 174.368 108.13 171.047 113.876 167.499C128.243 158.667 141.551 147.949 156.674 140.4C171.797 132.852 189.642 128.7 205.673 134.06C219.888 138.74 230.777 150.138 243.329 158.366C257.469 167.726 291.722 189.389 328.395 185.54C365.068 181.69 401.666 161.083 414.218 145.156C422.309 135.041 424.728 121.227 422.838 108.32C420.948 95.4875 415.05 83.4855 407.791 72.6913" fill="url(#paint0_linear_2905_446)"/>
<path d="M377.999 227.886C375.73 241.775 367.412 254.532 355.617 262.231C343.896 269.931 328.849 272.497 315.163 269.1C306.316 266.911 298.225 262.382 290.134 258.08C270.323 247.587 247.336 238.227 226.089 245.398C206.429 252.041 193.725 271.893 189.491 292.123C187.147 303.597 186.996 315.749 191.23 326.695C195.389 337.715 204.236 347.151 215.502 350.246C219.056 351.227 223.14 351.529 226.315 349.491C230.625 346.773 231.533 340.886 231.23 335.753C230.625 325.638 226.92 315.297 229.945 305.559C231.382 300.955 234.179 296.954 237.431 293.406C248.924 280.951 266.694 274.158 283.404 277.102C300.267 280.121 313.953 291.897 327.337 302.615C340.72 313.334 356.07 323.751 373.235 323.071C378.074 322.92 382.989 321.788 386.845 318.92C390.248 316.429 392.743 312.806 394.634 309.107C403.481 291.897 402.498 270.006 392.063 253.626" fill="url(#paint1_linear_2905_446)"/>
<path d="M130.738 211.808C144.878 180.633 170.209 176.482 182.081 182.294C193.423 187.88 199.926 201.165 199.094 213.771C198.262 226.376 190.928 238.001 180.947 245.776C171.57 253.098 159.548 257.476 147.676 256.117C141.627 255.438 135.426 253.324 131.116 248.946C122.723 240.492 125.748 225.395 129.302 215.809" fill="url(#paint2_linear_2905_446)"/>
<path d="M47.6376 -33.5901C64.8778 -33.9675 83.8571 -31.8539 96.031 -19.6255C107.751 -7.85006 110.02 11.3229 103.593 26.5706C97.1653 41.8183 83.0253 53.0654 67.373 58.5003C52.6282 63.6332 35.8417 63.8596 21.7773 57.0661C14.5939 53.5938 4.83965 46.7248 1.28576 33.1377C-2.26814 19.5506 3.32735 2.41575 11.8718 -7.09521" fill="url(#paint3_linear_2905_446)"/>
<path d="M362.573 -18.9459C373.991 -11.0956 384.653 -0.754257 383.972 13.3612C383.291 26.8728 371.344 41.2148 356.599 48.6122C341.779 56.0851 324.841 57.1419 311.004 53.5186C297.922 50.1219 286.958 42.4225 282.648 31.1754C280.455 25.4386 280.002 18.6451 282.497 12.078C284.992 5.43541 290.588 -0.980709 297.771 -4.45296" fill="url(#paint4_linear_2905_446)"/>
<defs>
<linearGradient id="paint0_linear_2905_446" x1="434.313" y1="-58.492" x2="145.855" y2="194.333" gradientUnits="userSpaceOnUse">
<stop stop-color="white"/>
<stop offset="1" stop-color="white" stop-opacity="0"/>
</linearGradient>
<linearGradient id="paint1_linear_2905_446" x1="266.555" y1="365.189" x2="311.28" y2="249.689" gradientUnits="userSpaceOnUse">
<stop stop-color="white"/>
<stop offset="1" stop-color="white" stop-opacity="0"/>
</linearGradient>
<linearGradient id="paint2_linear_2905_446" x1="105.612" y1="248.952" x2="197.948" y2="199.167" gradientUnits="userSpaceOnUse">
<stop stop-color="white"/>
<stop offset="1" stop-color="white" stop-opacity="0"/>
</linearGradient>
<linearGradient id="paint3_linear_2905_446" x1="-29.0692" y1="26.9908" x2="107.864" y2="4.76456" gradientUnits="userSpaceOnUse">
<stop stop-color="white"/>
<stop offset="1" stop-color="white" stop-opacity="0"/>
</linearGradient>
<linearGradient id="paint4_linear_2905_446" x1="381.236" y1="-64.0046" x2="294.1" y2="80.926" gradientUnits="userSpaceOnUse">
<stop stop-color="white"/>
<stop offset="1" stop-color="white" stop-opacity="0"/>
</linearGradient>
</defs>
</svg>
