<svg width="1915" height="550" viewBox="0 0 1915 550" fill="none" xmlns="http://www.w3.org/2000/svg">
<g opacity="0.2">
<path d="M1747.2 311.4C1745.6 311.2 1744.2 310.1 1744.1 308.7C1744 307.5 1743.1 302.5 1743.1 302.5C1743.1 302.5 1742.3 307.6 1742.1 308.7C1741.7 310.4 1740.6 311.2 1739 311.4C1737.7 311.6 1731.9 312.3 1731.9 312.3C1731.9 312.3 1737.7 313 1739 313.2C1741.1 313.4 1741.9 314.6 1742.1 316C1742.3 317.1 1743.1 322.2 1743.1 322.2C1743.1 322.2 1744 317.1 1744.1 316C1744.3 314.5 1745.6 313.4 1747.2 313.2C1748.5 313.1 1754.3 312.3 1754.3 312.3C1754.3 312.3 1748.5 311.5 1747.2 311.4Z" fill="#00BBAE"/>
<path d="M1861.3 270.4C1860.2 270.3 1859.2 269.5 1859.1 268.4C1859 267.6 1858.4 264 1858.4 264C1858.4 264 1857.9 267.6 1857.7 268.4C1857.5 269.6 1856.6 270.2 1855.5 270.4C1854.6 270.5 1850.4 271 1850.4 271C1850.4 271 1854.5 271.5 1855.5 271.6C1857 271.8 1857.6 272.6 1857.7 273.6C1857.8 274.4 1858.4 278 1858.4 278C1858.4 278 1859 274.4 1859.1 273.6C1859.2 272.5 1860.1 271.8 1861.3 271.6C1862.2 271.5 1866.4 271 1866.4 271C1866.4 271.1 1862.3 270.5 1861.3 270.4Z" fill="#00BBAE"/>
<path d="M1845.3 41.2999C1844.2 41.1999 1843.2 40.3999 1843.1 39.2999C1843 38.4999 1842.4 34.8999 1842.4 34.8999C1842.4 34.8999 1841.9 38.4999 1841.7 39.2999C1841.5 40.4999 1840.6 41.0999 1839.5 41.2999C1838.6 41.3999 1834.4 41.8999 1834.4 41.8999C1834.4 41.8999 1838.5 42.3999 1839.5 42.4999C1841 42.6999 1841.6 43.4999 1841.7 44.4999C1841.8 45.2999 1842.4 48.8999 1842.4 48.8999C1842.4 48.8999 1843 45.2999 1843.1 44.4999C1843.2 43.3999 1844.1 42.6999 1845.3 42.4999C1846.2 42.3999 1850.4 41.8999 1850.4 41.8999C1850.4 41.9999 1846.3 41.3999 1845.3 41.2999Z" fill="#00BBAE"/>
<path d="M1619 70.5001C1617.9 70.4001 1616.9 69.6001 1616.8 68.5001C1616.7 67.7001 1616.1 64.1001 1616.1 64.1001C1616.1 64.1001 1615.6 67.7001 1615.4 68.5001C1615.2 69.7001 1614.3 70.3001 1613.2 70.5001C1612.3 70.6001 1608.1 71.1001 1608.1 71.1001C1608.1 71.1001 1612.2 71.6001 1613.2 71.7001C1614.7 71.9001 1615.3 72.7001 1615.4 73.7001C1615.5 74.5001 1616.1 78.1001 1616.1 78.1001C1616.1 78.1001 1616.7 74.5001 1616.8 73.7001C1616.9 72.6001 1617.8 71.9001 1619 71.7001C1619.9 71.6001 1624.1 71.1001 1624.1 71.1001C1624.1 71.1001 1620 70.6001 1619 70.5001Z" fill="#00BBAE"/>
<path d="M74.3 33.7C72 33.4 70 31.9 69.8 29.8C69.7 28.2 68.4 21 68.4 21C68.4 21 67.3 28.2 67 29.8C66.5 32.2 64.9 33.4 62.6 33.7C60.8 33.9 52.6 34.9 52.6 34.9C52.6 34.9 60.8 35.9 62.6 36.1C65.5 36.4 66.7 38.1 67 40C67.2 41.6 68.4 48.8 68.4 48.8C68.4 48.8 69.6 41.6 69.8 40C70.1 37.8 71.9 36.4 74.2 36.1C76.1 35.9 84.2 34.9 84.2 34.9C84.3 34.9 76.1 33.8 74.3 33.7Z" fill="#00BBAE"/>
<path d="M235.7 451.4C234.8 451.3 234 450.7 233.9 449.9C233.8 449.3 233.4 446.4 233.4 446.4C233.4 446.4 233 449.2 232.8 449.9C232.6 450.8 232 451.3 231 451.4C230.3 451.5 227 451.9 227 451.9C227 451.9 230.2 452.3 231 452.4C232.2 452.5 232.6 453.2 232.7 453.9C232.8 454.5 233.3 457.4 233.3 457.4C233.3 457.4 233.8 454.6 233.9 453.9C234 453 234.7 452.5 235.6 452.4C236.3 452.3 239.6 451.9 239.6 451.9C239.7 451.8 236.5 451.4 235.7 451.4Z" fill="#00BBAE"/>
<path d="M86.7 139.4C85.8 139.3 85 138.7 84.9 137.9C84.8 137.3 84.4 134.4 84.4 134.4C84.4 134.4 84 137.2 83.8 137.9C83.6 138.8 83 139.3 82 139.4C81.3 139.5 78 139.9 78 139.9C78 139.9 81.2 140.3 82 140.4C83.2 140.5 83.6 141.2 83.7 141.9C83.8 142.5 84.3 145.4 84.3 145.4C84.3 145.4 84.8 142.6 84.9 141.9C85 141 85.7 140.5 86.6 140.4C87.3 140.3 90.6 139.9 90.6 139.9C90.7 139.8 87.5 139.4 86.7 139.4Z" fill="#00BBAE"/>
<path d="M54.6 241.4C53.7 241.3 52.9 240.7 52.8 239.9C52.7 239.3 52.3 236.4 52.3 236.4C52.3 236.4 51.9 239.2 51.8 239.9C51.6 240.8 51 241.3 50 241.4C49.3 241.5 46 241.9 46 241.9C46 241.9 49.2 242.3 50 242.4C51.2 242.5 51.6 243.2 51.7 243.9C51.8 244.5 52.3 247.4 52.3 247.4C52.3 247.4 52.8 244.6 52.9 243.9C53 243 53.7 242.5 54.6 242.4C55.3 242.3 58.6 241.9 58.6 241.9C58.6 241.9 55.4 241.4 54.6 241.4Z" fill="#00BBAE"/>
<path d="M924.9 20.7998C924 20.6998 923.2 20.0998 923.1 19.2998C923 18.6998 922.6 15.7998 922.6 15.7998C922.6 15.7998 922.2 18.5998 922.1 19.2998C921.9 20.1998 921.3 20.6998 920.3 20.7998C919.6 20.8998 916.3 21.2998 916.3 21.2998C916.3 21.2998 919.5 21.6998 920.3 21.7998C921.5 21.8998 921.9 22.5998 922 23.2998C922.1 23.8998 922.6 26.7998 922.6 26.7998C922.6 26.7998 923.1 23.9998 923.2 23.2998C923.3 22.3998 924 21.8998 924.9 21.7998C925.6 21.6998 928.9 21.2998 928.9 21.2998C928.9 21.2998 925.7 20.8998 924.9 20.7998Z" fill="#00BBAE"/>
<path d="M1672 407.5C1670.1 407.3 1668.3 405.9 1668.1 404.1C1668 402.7 1666.9 396.4 1666.9 396.4C1666.9 396.4 1666 402.7 1665.7 404.1C1665.3 406.2 1663.9 407.2 1661.8 407.5C1660.2 407.7 1653 408.6 1653 408.6C1653 408.6 1660.2 409.5 1661.8 409.7C1664.4 410 1665.4 411.4 1665.7 413.1C1665.9 414.5 1666.9 420.8 1666.9 420.8C1666.9 420.8 1668 414.5 1668.1 413.1C1668.3 411.2 1669.9 409.9 1672 409.7C1673.6 409.5 1680.8 408.6 1680.8 408.6C1680.8 408.5 1673.6 407.6 1672 407.5Z" fill="#00BBAE"/>
<path d="M1789.7 158C1788.8 157.9 1788 157.3 1787.9 156.4C1787.8 155.7 1787.3 152.9 1787.3 152.9C1787.3 152.9 1786.9 155.8 1786.7 156.4C1786.5 157.4 1785.9 157.8 1784.9 158C1784.2 158.1 1780.9 158.5 1780.9 158.5C1780.9 158.5 1784.2 158.9 1784.9 159C1786.1 159.1 1786.6 159.8 1786.7 160.6C1786.8 161.2 1787.3 164.1 1787.3 164.1C1787.3 164.1 1787.8 161.2 1787.9 160.6C1788 159.7 1788.7 159.1 1789.7 159C1790.4 158.9 1793.7 158.5 1793.7 158.5C1793.7 158.5 1790.5 158 1789.7 158Z" fill="#00BBAE"/>
<path d="M1281.5 48.5001C1280.6 48.4001 1279.8 47.8001 1279.8 47.0001C1279.7 46.4001 1279.3 43.6001 1279.3 43.6001C1279.3 43.6001 1278.9 46.4001 1278.8 47.0001C1278.6 47.9001 1278 48.4001 1277.1 48.5001C1276.4 48.6001 1273.2 49.0001 1273.2 49.0001C1273.2 49.0001 1276.4 49.4001 1277.1 49.5001C1278.3 49.6001 1278.7 50.3001 1278.8 51.0001C1278.9 51.6001 1279.3 54.4001 1279.3 54.4001C1279.3 54.4001 1279.8 51.6001 1279.8 51.0001C1279.9 50.1001 1280.6 49.6001 1281.5 49.5001C1282.2 49.4001 1285.4 49.0001 1285.4 49.0001C1285.4 49.0001 1282.2 48.6001 1281.5 48.5001Z" fill="#00BBAE"/>
<path d="M363.9 31.2999C362.7 31.1999 361.6 30.2999 361.5 29.1999C361.4 28.2999 360.7 24.3999 360.7 24.3999C360.7 24.3999 360.1 28.2999 359.9 29.1999C359.6 30.4999 358.7 31.1999 357.5 31.2999C356.5 31.3999 352 31.9999 352 31.9999C352 31.9999 356.5 32.5999 357.5 32.6999C359.1 32.8999 359.8 33.7999 359.9 34.7999C360 35.6999 360.7 39.5999 360.7 39.5999C360.7 39.5999 361.4 35.6999 361.5 34.7999C361.6 33.5999 362.6 32.7999 363.9 32.6999C364.9 32.5999 369.4 31.9999 369.4 31.9999C369.4 31.9999 365 31.3999 363.9 31.2999Z" fill="#00BBAE"/>
<path d="M1879.8 439.1C1878.6 439 1877.5 438.1 1877.4 437C1877.3 436.1 1876.6 432.2 1876.6 432.2C1876.6 432.2 1876 436.1 1875.8 437C1875.5 438.3 1874.6 439 1873.4 439.1C1872.4 439.2 1867.9 439.8 1867.9 439.8C1867.9 439.8 1872.4 440.4 1873.4 440.5C1875 440.7 1875.7 441.6 1875.8 442.6C1875.9 443.5 1876.6 447.4 1876.6 447.4C1876.6 447.4 1877.3 443.5 1877.4 442.6C1877.5 441.4 1878.5 440.6 1879.8 440.5C1880.8 440.4 1885.3 439.8 1885.3 439.8C1885.3 439.8 1880.8 439.2 1879.8 439.1Z" fill="#00BBAE"/>
<path d="M567.3 72.5999C566 72.4999 564.9 71.5999 564.8 70.3999C564.7 69.4999 564 65.3999 564 65.3999C564 65.3999 563.4 69.4999 563.2 70.3999C562.9 71.7999 562 72.3999 560.7 72.5999C559.7 72.6999 555 73.2999 555 73.2999C555 73.2999 559.6 73.8999 560.7 73.9999C562.4 74.1999 563 75.0999 563.2 76.1999C563.3 77.0999 564 81.1999 564 81.1999C564 81.1999 564.7 77.0999 564.8 76.1999C564.9 74.9999 566 74.0999 567.3 73.9999C568.4 73.8999 573 73.2999 573 73.2999C573 73.2999 568.3 72.6999 567.3 72.5999Z" fill="#00BBAE"/>
<path d="M202.8 149.9C201.5 149.8 200.4 148.9 200.3 147.7C200.2 146.8 199.5 142.7 199.5 142.7C199.5 142.7 198.9 146.8 198.7 147.7C198.4 149.1 197.5 149.7 196.2 149.9C195.2 150 190.5 150.6 190.5 150.6C190.5 150.6 195.1 151.2 196.2 151.3C197.9 151.5 198.5 152.4 198.7 153.5C198.8 154.4 199.5 158.5 199.5 158.5C199.5 158.5 200.2 154.4 200.3 153.5C200.4 152.3 201.5 151.4 202.8 151.3C203.8 151.2 208.5 150.6 208.5 150.6C208.5 150.6 203.8 150 202.8 149.9Z" fill="#00BBAE"/>
<path d="M142.3 345C140.5 344.8 138.8 343.5 138.6 341.8C138.5 340.5 137.4 334.5 137.4 334.5C137.4 334.5 136.5 340.4 136.2 341.8C135.8 343.8 134.5 344.8 132.5 345C131 345.2 124.2 346 124.2 346C124.2 346 131 346.8 132.5 347C134.9 347.3 135.9 348.6 136.2 350.2C136.4 351.5 137.4 357.5 137.4 357.5C137.4 357.5 138.4 351.6 138.6 350.2C138.8 348.4 140.3 347.2 142.3 347C143.8 346.9 150.6 346 150.6 346C150.6 346 143.8 345.1 142.3 345Z" fill="#00BBAE"/>
<path d="M39.3 389.6C38 389.5 36.9 388.6 36.8 387.4C36.7 386.5 36 382.4 36 382.4C36 382.4 35.4 386.5 35.2 387.4C34.9 388.8 34 389.4 32.7 389.6C31.7 389.7 27 390.3 27 390.3C27 390.3 31.6 390.9 32.7 391C34.4 391.2 35 392.1 35.2 393.2C35.3 394.1 36 398.2 36 398.2C36 398.2 36.7 394.1 36.8 393.2C36.9 392 38 391.1 39.3 391C40.3 390.9 45 390.3 45 390.3C45 390.3 40.4 389.7 39.3 389.6Z" fill="#00BBAE"/>
<path d="M1795.6 418.7C1794.9 418.6 1794.3 418.1 1794.2 417.5C1794.2 417 1793.8 414.7 1793.8 414.7C1793.8 414.7 1793.5 417 1793.4 417.5C1793.2 418.2 1792.7 418.6 1792 418.7C1791.4 418.8 1788.9 419.1 1788.9 419.1C1788.9 419.1 1791.5 419.4 1792 419.5C1792.9 419.6 1793.3 420.1 1793.4 420.7C1793.5 421.2 1793.8 423.5 1793.8 423.5C1793.8 423.5 1794.2 421.3 1794.2 420.7C1794.3 420 1794.8 419.6 1795.6 419.5C1796.2 419.4 1798.8 419.1 1798.8 419.1C1798.7 419.1 1796.1 418.8 1795.6 418.7Z" fill="#00BBAE"/>
<path d="M105.7 450.4C105.7 451.2 104.4 449.8 104.3 449.2C104.3 448.7 103.9 446.4 103.9 446.4C103.9 446.4 103.6 448.7 103.5 449.2C103.3 449.9 102.8 450.3 102.1 450.4C101.5 450.5 99 450.8 99 450.8C99 450.8 101.6 451.1 102.1 451.2C103 451.3 103.4 451.8 103.5 452.4C103.6 452.9 103.9 455.2 103.9 455.2C103.9 455.2 104.3 453 104.3 452.4C104.4 451.7 104.9 451.3 105.7 451.2C106.3 451.1 108.9 450.8 108.9 450.8C108.8 450.8 105.7 449.9 105.7 450.4Z" fill="#00BBAE"/>
<path d="M191.7 274.4C191 274.3 190.4 273.8 190.3 273.2C190.3 272.7 189.9 270.4 189.9 270.4C189.9 270.4 189.6 272.7 189.5 273.2C189.3 273.9 188.8 274.3 188.1 274.4C187.5 274.5 185 274.8 185 274.8C185 274.8 187.6 275.1 188.1 275.2C189 275.3 189.4 275.8 189.5 276.4C189.6 276.9 189.9 279.2 189.9 279.2C189.9 279.2 190.3 277 190.3 276.4C190.4 275.7 190.9 275.3 191.7 275.2C192.3 275.1 194.9 274.8 194.9 274.8C194.9 274.8 192.3 274.5 191.7 274.4Z" fill="#00BBAE"/>
</g>
<path d="M1897.01 55.3051C1892.59 50.1526 1886.7 46.325 1879.78 44.8529C1865.13 41.6878 1850.34 47.5763 1840.33 58.4702C1839 59.8687 1837.83 61.4144 1836.65 62.9602C1836.65 62.9602 1823.4 47.3555 1812.58 65.0212C1812.58 65.0212 1799.77 48.018 1783.58 67.0822C1767.38 86.0728 1774.23 86.0728 1774.23 86.0728L1905.91 84.0118C1906.13 80.8467 1906.06 76.6511 1905.1 71.9403C1903.85 65.6837 1901.05 59.9423 1897.01 55.3051Z" fill="white"/>
<path d="M146.604 168.026C150.94 163.016 156.682 159.29 163.428 157.847C177.763 154.721 192.178 160.492 201.935 171.111C203.22 172.474 204.384 173.956 205.509 175.479C205.509 175.479 218.438 160.251 228.999 177.483C228.999 177.483 241.446 160.933 257.267 179.486C273.087 198 266.382 198 266.382 198L137.89 195.996C137.689 192.911 137.73 188.863 138.693 184.215C139.938 178.204 142.709 172.594 146.604 168.026Z" fill="white"/>
<path d="M929.684 456H929.647C929.495 456 929.344 456.037 929.231 456.11C928.966 456.221 928.739 456.441 928.55 456.736C928.361 457.03 928.172 457.361 928.021 457.766C927.87 458.133 927.756 458.538 927.643 459.016C927.567 459.347 927.454 459.752 927.34 460.303V460.377C927.303 460.524 927.265 460.708 927.227 460.855C926.924 460.929 926.584 461.002 926.244 461.113C925.79 461.223 925.374 461.37 924.921 461.517C924.429 461.701 924.051 461.848 923.673 462.032C923.257 462.216 922.955 462.4 922.69 462.621C922.388 462.841 922.198 463.062 922.085 463.32C921.972 463.577 921.972 463.871 922.085 464.129C922.161 464.239 922.236 464.386 922.35 464.497C922.463 464.607 922.614 464.717 922.766 464.828C923.068 465.048 923.446 465.232 923.9 465.416C924.278 465.563 924.694 465.71 925.223 465.894C925.639 466.041 926.055 466.152 926.584 466.262V466.336V466.446C926.546 466.814 926.509 467.182 926.471 467.549C926.433 468.028 926.433 468.432 926.433 468.8C926.433 469.278 926.471 469.646 926.509 470.014C926.546 470.234 926.584 470.418 926.622 470.602C926.66 470.749 926.735 470.933 926.811 471.117C927 471.448 927.227 471.706 927.492 471.853C927.681 471.926 927.907 472 928.134 472C928.286 472 928.437 471.963 928.55 471.926C928.739 471.89 928.928 471.816 929.08 471.706C929.269 471.595 929.458 471.485 929.609 471.375C929.949 471.117 930.252 470.786 930.592 470.418C930.856 470.087 931.159 469.683 931.424 469.278C931.613 468.984 931.764 468.726 931.915 468.506C932.331 468.91 932.785 469.278 933.276 469.609C933.73 469.903 934.108 470.124 934.448 470.308C934.675 470.418 934.864 470.492 935.015 470.529C935.242 470.602 935.393 470.639 935.582 470.639C935.658 470.639 935.734 470.639 935.809 470.639C935.923 470.639 936.036 470.639 936.112 470.602C936.301 470.566 936.452 470.492 936.603 470.418C936.906 470.198 937.095 469.867 937.208 469.462C937.246 469.278 937.284 469.057 937.284 468.8C937.284 468.579 937.246 468.359 937.208 468.101C937.133 467.66 936.981 467.145 936.755 466.593C936.603 466.189 936.414 465.747 936.15 465.159C936.074 465.011 935.998 464.864 935.923 464.717C936.15 464.57 936.339 464.423 936.565 464.276C937.322 463.724 937.851 463.246 938.267 462.768C938.418 462.584 938.532 462.437 938.645 462.253C938.758 462.069 938.834 461.885 938.91 461.738C938.985 461.554 939.023 461.37 938.985 461.223C938.985 461.039 938.947 460.855 938.872 460.708C938.758 460.451 938.531 460.267 938.191 460.12C938.04 460.046 937.851 460.009 937.7 459.972C937.473 459.936 937.284 459.899 937.095 459.862C936.792 459.825 936.452 459.825 936.112 459.825C935.998 459.825 935.847 459.825 935.734 459.825C935.318 459.825 934.864 459.862 934.335 459.936C934.07 459.972 933.843 459.972 933.579 460.009C933.39 459.715 933.163 459.347 932.936 459.016C932.596 458.538 932.331 458.133 932.066 457.802C931.726 457.398 931.424 457.067 931.121 456.809C930.97 456.662 930.819 456.552 930.667 456.441C930.478 456.331 930.327 456.257 930.176 456.221C929.987 456 929.836 456 929.684 456Z" fill="#F88E0F"/>
<path d="M1160.33 90.8561C1160.33 91.4449 1160.85 91.9602 1161.44 91.9602C1162.03 91.9602 1162.54 91.4449 1162.54 90.8561C1162.54 90.2672 1162.03 89.752 1161.44 89.752C1160.85 89.752 1160.33 90.2672 1160.33 90.8561Z" fill="#00BBAE"/>
<path d="M1163.28 93.8004C1163.28 93.9476 1163.42 94.0948 1163.57 94.0948C1163.72 94.0948 1163.87 93.9476 1163.87 93.8004C1163.87 93.6532 1163.72 93.506 1163.57 93.506C1163.42 93.4324 1163.28 93.5796 1163.28 93.8004Z" fill="#00BBAE"/>
<path d="M1510.19 152.465C1509.67 153.201 1509.89 154.305 1510.63 154.82C1511.37 155.335 1512.47 155.114 1512.98 154.378C1513.5 153.642 1513.28 152.538 1512.54 152.023C1511.81 151.508 1510.7 151.729 1510.19 152.465Z" fill="#FFC500"/>
<path d="M1511.44 158.721C1511.29 158.942 1511.37 159.237 1511.59 159.384C1511.81 159.531 1512.1 159.457 1512.25 159.237C1512.4 159.016 1512.32 158.721 1512.1 158.574C1511.88 158.427 1511.59 158.501 1511.44 158.721Z" fill="#FFC500"/>
<path d="M146.425 50H146.357C146.153 50 145.949 50.0677 145.813 50.1354C145.474 50.3046 145.168 50.6092 144.896 51.0154C144.624 51.4215 144.42 51.8615 144.216 52.4369C144.012 52.9446 143.876 53.4862 143.672 54.1631C143.536 54.6369 143.434 55.1785 143.264 55.9231V55.9908C143.231 56.2277 143.163 56.4308 143.129 56.6677C142.687 56.7692 142.245 56.8708 141.769 57.0062C141.157 57.1754 140.58 57.3446 140.002 57.5477C139.356 57.7846 138.812 57.9877 138.303 58.2246C137.725 58.4954 137.317 58.7662 136.943 59.0369C136.535 59.3415 136.263 59.6462 136.127 59.9846C135.958 60.3569 135.958 60.7631 136.127 61.1015C136.229 61.2708 136.331 61.44 136.501 61.6092C136.671 61.7785 136.841 61.9138 137.079 62.0831C137.487 62.3538 137.997 62.6246 138.608 62.8954C139.118 63.1323 139.696 63.3354 140.376 63.5385C140.953 63.7077 141.531 63.8769 142.211 64.08L142.177 64.2154V64.3508C142.109 64.8246 142.075 65.3662 142.041 65.8738C142.007 66.5508 141.973 67.0923 141.973 67.6C141.973 68.2431 142.007 68.7846 142.075 69.2585C142.109 69.5631 142.177 69.8338 142.245 70.0708C142.313 70.2738 142.381 70.5446 142.517 70.8154C142.755 71.2892 143.061 71.6277 143.434 71.7969C143.706 71.9323 143.978 72 144.318 72C144.522 72 144.692 71.9662 144.896 71.9323C145.168 71.8646 145.406 71.7631 145.644 71.6277C145.915 71.4923 146.153 71.3231 146.357 71.1538C146.799 70.8154 147.241 70.3754 147.683 69.8C148.057 69.3262 148.43 68.8185 148.804 68.2092C149.076 67.8031 149.28 67.4308 149.45 67.1262C150.028 67.6677 150.639 68.1754 151.285 68.6492C151.897 69.0892 152.407 69.3938 152.883 69.6308C153.188 69.7662 153.426 69.8677 153.664 69.9692C153.97 70.0708 154.208 70.1385 154.446 70.1385C154.548 70.1385 154.65 70.1385 154.752 70.1385C154.922 70.1385 155.058 70.1385 155.16 70.1046C155.431 70.0369 155.635 69.9692 155.805 69.8338C156.213 69.5631 156.485 69.0892 156.621 68.48C156.689 68.2092 156.723 67.9046 156.689 67.5662C156.689 67.2615 156.655 66.9231 156.587 66.5846C156.485 65.9415 156.281 65.2646 155.975 64.4862C155.771 63.9108 155.499 63.3015 155.126 62.5231C155.024 62.32 154.922 62.1169 154.82 61.9138C155.092 61.7446 155.397 61.5077 155.703 61.3046C156.723 60.56 157.437 59.8831 158.014 59.2062C158.218 58.9354 158.388 58.7323 158.524 58.4954C158.694 58.2246 158.796 57.9877 158.864 57.7846C158.966 57.5138 159 57.2769 159 57.0738C159 56.8031 158.932 56.5662 158.83 56.3631C158.66 56.0246 158.354 55.7538 157.878 55.5508C157.675 55.4492 157.437 55.3815 157.199 55.3477C156.927 55.28 156.621 55.2462 156.349 55.2123C155.907 55.1785 155.499 55.1446 155.024 55.1446C154.854 55.1446 154.684 55.1446 154.514 55.1446C153.936 55.1446 153.324 55.2123 152.577 55.28C152.237 55.3138 151.897 55.3477 151.557 55.4154C151.319 55.0092 151.013 54.5015 150.707 54.0277C150.266 53.3508 149.892 52.8092 149.552 52.3692C149.11 51.7938 148.702 51.3538 148.294 50.9815C148.057 50.7785 147.853 50.6092 147.683 50.5077C147.445 50.3385 147.241 50.2369 147.037 50.1692C146.833 50.0338 146.629 50 146.425 50Z" fill="#00BBAE"/>
<path d="M146.731 53.7911C146.731 54.3511 147.205 54.7818 147.722 54.7818C148.282 54.7818 148.712 54.308 148.712 53.7911C148.712 53.2311 148.239 52.8003 147.722 52.8003C147.205 52.8003 146.731 53.2311 146.731 53.7911Z" fill="#00BBAE"/>
<path d="M149.401 56.3753C149.401 56.5476 149.531 56.6768 149.703 56.6768C149.875 56.6768 150.004 56.5476 150.004 56.3753C150.004 56.203 149.875 56.0737 149.703 56.0737C149.531 56.1168 149.401 56.246 149.401 56.3753Z" fill="#00BBAE"/>
<path d="M748.723 189.71C748.354 190.225 748.502 190.961 749.017 191.329C749.532 191.697 750.268 191.55 750.636 191.035C751.004 190.519 750.857 189.783 750.342 189.415C749.753 189.047 749.091 189.195 748.723 189.71Z" fill="#FFC500"/>
<path d="M749.532 193.832C749.459 193.979 749.459 194.2 749.606 194.274C749.753 194.347 749.974 194.347 750.047 194.2C750.121 194.053 750.121 193.832 749.974 193.758C749.827 193.611 749.606 193.685 749.532 193.832Z" fill="#FFC500"/>
</svg>
