<svg width="1920" height="219" viewBox="0 0 1920 219" fill="none" xmlns="http://www.w3.org/2000/svg">
<path d="M878 122.223C878 106.115 887.227 90.3382 901.193 82.284C915.158 74.2297 933.446 74.3127 947.412 82.367C947.495 62.5219 958.717 43.009 975.842 32.8789C983.24 28.5611 992.052 25.821 1000.45 27.6477C1010.59 29.8896 1018.32 38.5252 1022.31 48.074C1026.3 57.6229 1027.13 68.1682 1027.88 78.5474C1028.38 68.3343 1033.62 57.706 1043.09 53.8864C1052.57 50.0669 1065.62 56.3774 1066.04 66.5906C1064.21 47.1607 1072.02 26.7344 1087.4 14.6945C1102.78 2.65457 1125.56 0.246584 1142.35 10.2106C1164.13 23.0809 1171.19 51.1463 1172.02 76.3886C1173.19 109.27 1167.2 142.4 1154.73 172.791C1154.07 174.534 1152.82 176.527 1150.99 176.278C1149.16 176.112 1150.16 172.293 1151.41 173.538" fill="#009F94"/>
<path d="M1090.81 61.3593L1090.64 53.4711C1090.64 51.6444 1087.9 51.6444 1087.82 53.4711C1087.73 56.1282 1087.73 58.7023 1087.65 61.3593C1087.65 63.4352 1087.23 65.2619 1088.56 66.9226C1088.81 67.2547 1089.56 67.2547 1089.89 66.9226C1091.22 65.2619 1090.89 63.4352 1090.81 61.3593Z" fill="#001430" fill-opacity="0.3"/>
<path d="M1125.06 39.6877C1124.89 37.7779 1122.15 37.7779 1122.06 39.6877C1121.98 42.76 1121.81 45.7492 1121.65 48.8214C1121.57 51.5615 1120.9 54.3017 1121.81 56.9587C1122.15 57.8721 1123.48 58.2042 1123.98 57.2078C1125.31 54.7999 1125.14 52.1428 1125.22 49.4857C1125.47 46.1643 1125.31 42.926 1125.06 39.6877Z" fill="#001430" fill-opacity="0.3"/>
<path d="M1001.11 64.5977C1001.03 62.5218 1000.86 60.446 1000.78 58.2871C1000.61 56.2943 997.788 56.2943 997.704 58.2871C997.538 60.3629 997.372 62.4388 997.372 64.5977C997.372 66.4244 997.039 68.3342 997.954 69.9949C998.536 70.9913 1000.12 70.9913 1000.61 69.9949C1001.45 68.2511 1001.11 66.4244 1001.11 64.5977Z" fill="#001430" fill-opacity="0.3"/>
<path d="M1043.76 90.5046C1043.42 88.9269 1041.43 89.3421 1040.93 90.5046C1040.1 92.5804 1040.02 94.9884 1039.77 97.2303C1039.52 99.3061 1038.77 101.548 1039.93 103.458C1040.43 104.288 1041.68 104.537 1042.34 103.79C1043.84 102.129 1043.59 99.8874 1043.67 97.7285C1043.84 95.3205 1044.17 92.9125 1043.76 90.5046Z" fill="#001430" fill-opacity="0.3"/>
<path d="M1084.24 119.898C1084.32 116.992 1084.32 114.169 1084.41 111.263C1084.41 109.187 1081.33 109.187 1081.17 111.263C1081 114.169 1080.83 116.992 1080.67 119.898C1080.5 122.306 1080 124.631 1081.17 126.79C1081.58 127.621 1082.74 127.538 1083.24 126.79C1084.57 124.797 1084.16 122.306 1084.24 119.898Z" fill="#001430" fill-opacity="0.3"/>
<path d="M1117.74 114.501C1117.58 111.927 1113.67 111.927 1113.75 114.501C1113.83 116.826 1113.75 119.234 1113.67 121.559C1113.5 123.718 1112.92 126.043 1113.59 128.119C1114 129.613 1116.16 129.946 1116.91 128.534C1117.99 126.541 1117.82 124.299 1117.91 122.057C1117.99 119.483 1117.91 116.992 1117.74 114.501Z" fill="#001430" fill-opacity="0.3"/>
<path d="M1002.61 108.606C1002.44 106.364 1002.36 104.039 1002.36 101.797C1002.36 99.555 999.035 99.638 998.868 101.797C998.619 104.205 998.536 106.613 998.536 109.021C998.536 111.097 998.369 113.09 999.866 114.667C1000.61 115.414 1001.78 115.165 1002.28 114.335C1003.44 112.591 1002.78 110.599 1002.61 108.606Z" fill="#001430" fill-opacity="0.3"/>
<path d="M920.977 98.3925C920.728 95.9015 920.312 93.4935 919.98 91.0855C919.813 89.757 917.652 90.0891 917.652 91.4176C917.652 94.1577 917.652 96.8148 917.735 99.5549C917.818 101.88 917.735 104.122 918.65 106.198C919.148 107.36 920.977 106.945 921.227 105.866C921.809 103.375 921.227 100.8 920.977 98.3925Z" fill="#001430" fill-opacity="0.3"/>
<path d="M897.951 106.613C897.535 104.122 897.036 101.548 896.621 99.0569C896.288 96.981 893.046 97.8114 893.379 99.9702C893.794 102.295 894.21 104.703 894.626 107.028C894.958 109.187 895.207 111.346 896.205 113.256C896.704 114.086 898.283 114.003 898.449 112.924C898.782 110.765 898.283 108.772 897.951 106.613Z" fill="#001430" fill-opacity="0.3"/>
<path d="M136.97 181C127.743 171.119 123.337 156.754 125.582 143.386C126.829 135.581 130.736 127.609 137.802 124.039C149.107 118.393 162.241 125.949 172.549 133.173C164.07 115.487 167.562 92.8183 180.862 78.5365C188.51 70.3162 199.317 64.8359 210.539 64.8359C221.761 64.8359 233.067 70.8974 238.137 80.8615C242.793 89.9121 242.044 101.039 247.032 109.923C252.685 99.295 266.9 95.6415 278.621 98.3816C290.342 101.122 300.234 108.844 309.711 116.234C317.525 103.779 327.5 89.9121 342.214 88.9157C354.6 88.0854 365.905 97.4682 371.142 108.678C376.463 119.887 377.044 132.675 377.626 145.047" fill="#009F94"/>
<path d="M147.278 164.144C145.699 161.902 144.119 159.743 142.207 157.834C141.542 157.169 140.462 157.834 140.794 158.747C141.792 161.321 143.039 163.646 144.452 165.971C145.616 167.964 146.53 170.289 148.525 171.534C149.606 172.199 150.936 171.285 150.77 170.123C150.354 167.881 148.608 166.054 147.278 164.144Z" fill="#001430" fill-opacity="0.3"/>
<path d="M186.93 92.7353C186.016 90.9916 183.688 92.2371 184.27 93.9808C185.683 97.9665 186.764 103.53 189.757 106.602C190.837 107.764 192.417 106.768 192.334 105.356C192.084 101.039 188.842 96.4719 186.93 92.7353Z" fill="#001430" fill-opacity="0.3"/>
<path d="M187.429 151.274C186.265 148.866 185.268 146.292 183.938 143.967C183.106 142.472 180.862 143.137 181.111 144.88C181.527 147.621 182.524 150.112 183.605 152.603C184.52 154.678 185.185 157.335 187.512 158.166C188.177 158.415 189.092 158.083 189.341 157.335C189.84 155.094 188.427 153.35 187.429 151.274Z" fill="#001430" fill-opacity="0.3"/>
<path d="M286.269 124.537C285.604 121.88 285.022 119.306 284.523 116.566C284.107 114.075 280.533 114.822 280.699 117.23C280.948 119.97 281.281 122.627 281.697 125.285C282.112 127.609 282.278 130.184 284.024 131.844C284.939 132.675 286.767 132.758 287.183 131.263C287.848 128.938 286.934 126.862 286.269 124.537Z" fill="#001430" fill-opacity="0.3"/>
<path d="M328.996 121.797C328.414 119.223 324.757 119.97 325.006 122.545C325.255 125.202 325.339 127.942 325.422 130.599C325.505 132.924 325.255 135.332 325.754 137.657C326.253 139.733 329.744 140.48 330.326 138.072C331.573 132.924 330.16 126.779 328.996 121.797Z" fill="#001430" fill-opacity="0.3"/>
<path d="M352.106 114.739C351.524 111.501 350.776 108.346 350.111 105.107C349.695 103.115 346.869 103.696 347.035 105.689C347.368 108.927 347.534 112.248 347.95 115.487C348.282 117.978 348.116 120.552 350.194 122.212C350.693 122.628 351.524 122.378 351.94 121.88C353.436 119.721 352.522 117.23 352.106 114.739Z" fill="#001430" fill-opacity="0.3"/>
<path d="M777.24 145.862C778.083 124.374 774.568 68.1258 765.148 48.8849C760.226 38.9133 753.618 29.2226 743.846 24.1666C734.074 19.1106 720.576 20.2342 713.827 29.0822C708.273 36.3853 708.695 46.4973 709.328 55.6965C705.953 46.9889 701.524 38.5622 694.846 32.172C688.097 25.852 678.676 21.9195 669.677 23.5346C660.608 25.1497 652.524 33.2253 652.453 42.5649C646.478 29.4333 637.268 17.2146 624.403 10.8946C611.538 4.64482 594.665 5.62793 584.541 15.9506C573.856 26.8351 573.434 44.0395 573.715 59.4182C566.966 53.0982 555.788 52.2556 548.195 57.5222C540.532 62.7889 537.158 73.6031 540.462 82.3809C530.62 76.6227 519.231 73.7436 507.842 74.2351C503.202 74.4458 498.351 75.2183 494.555 77.9569C490.477 80.9063 488.017 85.6814 486.048 90.3863C477.542 110.681 474.659 133.362 477.823 155.201" fill="#009F94"/>
<path d="M736.605 49.6573C735.761 46.5676 735.41 43.4076 734.847 40.3178C734.566 38.492 731.613 38.5622 731.543 40.4582C731.403 44.0396 731.824 47.4805 732.598 50.9916C733.23 53.8707 733.863 57.1711 736.253 59.0671C737.097 59.6991 738.222 59.0671 738.362 58.084C738.925 55.2049 737.308 52.396 736.605 49.6573Z" fill="#001430" fill-opacity="0.3"/>
<path d="M723.107 91.8611C722.615 89.4735 722.052 87.0157 721.56 84.6282C721.139 82.5917 717.975 83.1535 718.397 85.19C718.889 87.5775 719.381 90.0353 719.873 92.4228C720.295 94.3891 720.295 96.8469 721.701 98.3215C722.334 98.9535 723.458 98.8833 723.81 97.9704C724.513 96.0042 723.529 93.8273 723.107 91.8611Z" fill="#001430" fill-opacity="0.3"/>
<path d="M752.704 107.24L750.595 98.6025C749.963 96.0745 746.026 96.7065 746.588 99.3047C747.15 102.043 747.783 104.852 748.346 107.591C748.697 109.136 749.119 112.226 751.509 111.875C753.618 111.453 753.056 108.644 752.704 107.24Z" fill="#001430" fill-opacity="0.3"/>
<path d="M697.447 115.315C697.166 111.874 695.689 108.433 694.846 105.063C694.002 101.622 693.299 98.1808 692.737 94.7399C692.455 92.8439 689.784 93.4057 689.854 95.2315C690.065 101.832 690.276 110.61 693.791 116.439C694.916 118.335 697.658 117.562 697.447 115.315Z" fill="#001430" fill-opacity="0.3"/>
<path d="M608.233 45.0926C607.038 41.722 605.843 38.2811 604.648 34.9104C603.875 32.7335 600.641 34.2784 601.414 36.3851C602.468 39.6153 603.523 42.8455 604.578 46.0757C605.421 48.674 605.843 51.6935 608.093 53.3789C608.585 53.73 609.499 53.5895 609.71 52.8873C610.553 50.2891 609.147 47.6206 608.233 45.0926Z" fill="#001430" fill-opacity="0.3"/>
<path d="M596.845 93.5466C595.649 90.1057 594.525 86.6648 593.329 83.2239C592.626 81.047 589.463 82.5919 590.096 84.6985C591.15 87.9288 592.134 91.159 593.189 94.4594C594.103 97.2683 594.595 100.709 596.563 102.956C597.337 103.869 598.954 103.448 599.024 102.184C599.305 99.2346 597.829 96.3554 596.845 93.5466Z" fill="#001430" fill-opacity="0.3"/>
<path d="M564.506 132.098C563.943 129.149 562.115 126.34 560.92 123.601C559.584 120.582 558.249 117.562 557.053 114.543C556.28 112.576 552.765 113.559 553.398 115.666C554.312 118.826 555.296 121.916 556.491 125.006C557.686 127.955 558.741 131.466 560.85 133.784C562.115 135.328 564.927 134.275 564.506 132.098Z" fill="#001430" fill-opacity="0.3"/>
<path d="M560.498 85.4004C559.233 82.1702 558.108 78.94 557.124 75.6395C556.561 73.7435 553.468 74.1648 553.96 76.2013C554.733 79.4315 555.647 82.732 556.632 85.892C557.545 88.7711 558.178 92.0013 560.498 94.108C561.271 94.8102 562.678 94.108 562.748 93.1249C562.888 90.316 561.482 87.8582 560.498 85.4004Z" fill="#001430" fill-opacity="0.3"/>
<path d="M505.381 123.11C504.467 120.301 503.413 117.492 502.358 114.753C501.374 112.295 497.648 113.981 498.562 116.509C499.546 118.967 500.39 121.424 501.233 123.952C501.936 126.129 502.288 128.938 504.046 130.623C504.749 131.255 506.225 131.396 506.506 130.202C507.209 127.744 506.155 125.427 505.381 123.11Z" fill="#001430" fill-opacity="0.3"/>
<path d="M522.465 101.551C522.113 99.234 520.285 97.0571 519.231 95.0207C518.106 92.7034 517.122 90.2456 516.278 87.7878C515.786 86.3131 513.185 87.0856 513.607 88.6305C514.38 91.2989 515.224 93.8971 516.348 96.3549C517.333 98.5318 518.317 101.481 520.356 102.886C521.41 103.447 522.676 102.675 522.465 101.551Z" fill="#001430" fill-opacity="0.3"/>
<path d="M1258.21 107.787C1251.23 96.1622 1250.07 81.2161 1255.06 68.5949C1257.97 61.2049 1263.45 54.2301 1271.1 52.3203C1283.32 49.165 1294.54 59.2952 1303.1 68.5949C1298.53 49.5802 1306.76 28.1575 1322.8 16.9479C1332.03 10.5543 1343.75 7.39904 1354.64 9.80702C1365.62 12.215 1375.34 20.5184 1378.25 31.3128C1380.83 41.1108 1377.75 51.9052 1380.75 61.6201C1388.56 52.4034 1403.19 51.8221 1414.08 57.0532C1424.97 62.2013 1433.03 71.8333 1440.68 81.133C1450.99 70.5878 1463.62 59.1291 1478.25 61.288C1490.56 63.1147 1499.54 74.6564 1502.36 86.6963C1505.19 98.8192 1503.11 111.44 1500.95 123.646" fill="#009F94"/>
<path d="M1271.93 93.5052C1270.85 90.9312 1269.77 88.6062 1268.27 86.2813C1267.77 85.4509 1266.53 85.9492 1266.69 86.8625C1267.11 89.6026 1267.86 92.0937 1268.69 94.7507C1269.44 96.9096 1269.85 99.4006 1271.43 101.061C1272.35 101.975 1273.84 101.393 1273.93 100.148C1274.09 97.7399 1272.76 95.5811 1271.93 93.5052Z" fill="#001430" fill-opacity="0.3"/>
<path d="M1325.71 31.9773C1325.22 30.1505 1322.64 30.8148 1322.89 32.6415C1323.47 36.8763 1323.3 42.4395 1325.63 46.1761C1326.46 47.5046 1328.13 46.9234 1328.37 45.5118C1329.04 41.2771 1326.8 36.129 1325.71 31.9773Z" fill="#001430" fill-opacity="0.3"/>
<path d="M1313.83 89.3535C1313.16 86.6965 1312.75 84.0394 1312 81.4653C1311.5 79.8877 1309.17 80.0538 1309.01 81.7975C1308.84 84.5376 1309.26 87.1947 1309.75 89.8518C1310.17 92.0937 1310.25 94.8338 1312.33 96.1623C1312.91 96.5775 1313.91 96.4114 1314.24 95.7472C1315.41 93.5883 1314.41 91.5955 1313.83 89.3535Z" fill="#001430" fill-opacity="0.3"/>
<path d="M1416.16 84.1223C1416.07 81.3822 1416.07 78.7251 1416.16 75.985C1416.24 73.494 1412.58 73.411 1412.33 75.902C1412 78.559 1411.75 81.2992 1411.59 84.0393C1411.5 86.3642 1411.09 88.9383 1412.42 90.9311C1413.08 92.0105 1414.91 92.3427 1415.58 91.0141C1416.74 88.7722 1416.24 86.5303 1416.16 84.1223Z" fill="#001430" fill-opacity="0.3"/>
<path d="M1458.47 90.433C1458.47 87.7759 1454.73 87.7759 1454.4 90.267C1454.06 92.924 1453.57 95.5811 1453.15 98.2382C1452.73 100.48 1451.99 102.888 1451.99 105.213C1451.99 107.372 1455.23 108.783 1456.31 106.542C1458.64 101.892 1458.55 95.5811 1458.47 90.433Z" fill="#001430" fill-opacity="0.3"/>
<path d="M1482.58 88.4401C1482.74 85.2018 1482.66 81.8804 1482.74 78.6421C1482.74 76.5663 1479.83 76.5663 1479.58 78.5591C1479.17 81.7974 1478.67 85.1188 1478.42 88.3571C1478.17 90.8481 1477.59 93.3391 1479.17 95.415C1479.58 95.9132 1480.42 95.9132 1480.91 95.498C1482.83 93.5882 1482.49 90.9311 1482.58 88.4401Z" fill="#001430" fill-opacity="0.3"/>
<path d="M1602 118.223C1602 102.115 1611.23 86.3382 1625.19 78.284C1639.16 70.2297 1657.45 70.3127 1671.41 78.367C1671.5 58.5219 1682.72 39.009 1699.84 28.8789C1707.24 24.5611 1716.05 21.821 1724.45 23.6477C1734.59 25.8896 1742.32 34.5252 1746.31 44.074C1750.3 53.6229 1751.13 64.1682 1751.88 74.5474C1752.38 64.3343 1757.62 53.706 1767.09 49.8864C1776.57 46.0669 1789.62 52.3774 1790.04 62.5906C1788.21 43.1607 1796.02 22.7344 1811.4 10.6945C1826.78 -1.34543 1849.56 -3.75342 1866.35 6.21064C1888.13 19.0809 1895.19 47.1463 1896.02 72.3886C1897.19 105.27 1891.2 138.4 1878.73 168.791C1878.07 170.534 1876.82 172.527 1874.99 172.278C1873.16 172.029 1874.16 168.293 1875.41 169.538" fill="#009F94"/>
<path d="M1814.89 57.3593L1814.72 49.4711C1814.72 47.6444 1811.98 47.6444 1811.9 49.4711C1811.82 52.1282 1811.82 54.7023 1811.73 57.3593C1811.73 59.4352 1811.32 61.2619 1812.65 62.9226C1812.9 63.2547 1813.64 63.2547 1813.98 62.9226C1815.31 61.2619 1814.89 59.3522 1814.89 57.3593Z" fill="#001430" fill-opacity="0.3"/>
<path d="M1849.14 35.6047C1848.97 33.6949 1846.23 33.6949 1846.15 35.6047C1846.06 38.6769 1845.9 41.6662 1845.73 44.7384C1845.65 47.4785 1844.98 50.2186 1845.9 52.8757C1846.23 53.7891 1847.56 54.1212 1848.06 53.1248C1849.39 50.7168 1849.22 48.0598 1849.31 45.4027C1849.56 42.0813 1849.39 38.926 1849.14 35.6047Z" fill="#001430" fill-opacity="0.3"/>
<path d="M1725.11 60.5146C1725.03 58.4388 1724.86 56.363 1724.78 54.2041C1724.61 52.2113 1721.79 52.2113 1721.7 54.2041C1721.54 56.2799 1721.37 58.3558 1721.37 60.5146C1721.37 62.3414 1721.04 64.2512 1721.95 65.9118C1722.54 66.9082 1724.12 66.9082 1724.61 65.9118C1725.53 64.2512 1725.2 62.4244 1725.11 60.5146Z" fill="#001430" fill-opacity="0.3"/>
<path d="M1767.76 86.5046C1767.42 84.9269 1765.43 85.3421 1764.93 86.5046C1764.1 88.5804 1764.02 90.9884 1763.77 93.2303C1763.52 95.3061 1762.77 97.5481 1763.93 99.4578C1764.43 100.288 1765.68 100.537 1766.34 99.79C1767.84 98.1293 1767.59 95.8874 1767.67 93.7285C1767.92 91.2375 1768.26 88.9125 1767.76 86.5046Z" fill="#001430" fill-opacity="0.3"/>
<path d="M1808.24 115.898C1808.32 112.992 1808.32 110.169 1808.41 107.263C1808.41 105.187 1805.33 105.187 1805.17 107.263C1805 110.169 1804.83 112.992 1804.67 115.898C1804.5 118.306 1804 120.631 1805.17 122.79C1805.58 123.621 1806.74 123.538 1807.24 122.79C1808.57 120.797 1808.24 118.223 1808.24 115.898Z" fill="#001430" fill-opacity="0.3"/>
<path d="M1841.82 110.418C1841.66 107.844 1837.75 107.844 1837.83 110.418C1837.92 112.743 1837.83 115.151 1837.75 117.476C1837.59 119.635 1837 121.96 1837.67 124.036C1838.08 125.53 1840.25 125.863 1840.99 124.451C1842.07 122.458 1841.91 120.216 1841.99 117.974C1841.99 115.483 1841.91 112.992 1841.82 110.418Z" fill="#001430" fill-opacity="0.3"/>
<path d="M1726.61 104.523C1726.44 102.281 1726.36 99.9558 1726.36 97.7139C1726.36 95.472 1723.03 95.555 1722.87 97.7139C1722.62 100.122 1722.54 102.53 1722.54 104.938C1722.54 107.014 1722.37 109.007 1723.87 110.584C1724.61 111.331 1725.78 111.082 1726.28 110.252C1727.44 108.508 1726.78 106.515 1726.61 104.523Z" fill="#001430" fill-opacity="0.3"/>
<path d="M1644.98 94.3925C1644.73 91.9015 1644.31 89.4935 1643.98 87.0855C1643.81 85.757 1641.65 86.0891 1641.65 87.4176C1641.65 90.1577 1641.65 92.8148 1641.74 95.5549C1641.82 97.8799 1641.74 100.122 1642.65 102.198C1643.15 103.36 1644.98 102.945 1645.23 101.866C1645.89 99.3745 1645.23 96.8005 1644.98 94.3925Z" fill="#001430" fill-opacity="0.3"/>
<path d="M1621.95 102.613C1621.54 100.122 1621.04 97.5479 1620.62 95.0569C1620.29 92.981 1617.05 93.8114 1617.38 95.9702C1617.79 98.2952 1618.21 100.703 1618.63 103.028C1618.96 105.187 1619.21 107.346 1620.21 109.256C1620.7 110.086 1622.28 110.003 1622.45 108.924C1622.87 106.765 1622.37 104.772 1621.95 102.613Z" fill="#001430" fill-opacity="0.3"/>
<g clip-path="url(#clip0_1805_228)">
<path d="M1921 377.8H-1V164.6C634.6 75.8001 1275.4 58.1001 1921 113.8V377.8Z" fill="#00BBAE"/>
<g opacity="0.4">
<path d="M623.445 143.595C622.045 139.695 619.345 136.095 617.145 132.495C616.045 130.695 613.145 132.295 614.245 134.195C616.345 137.795 618.145 141.995 620.945 144.995C621.945 146.095 623.945 144.995 623.445 143.595Z" fill="#001430" fill-opacity="0.4"/>
<path d="M630.745 131.195C630.045 133.195 629.245 135.195 628.545 137.295C627.945 139.095 626.945 141.095 627.745 142.995C628.345 144.395 629.645 144.695 630.845 143.795C632.445 142.595 632.645 140.395 632.945 138.495C633.345 136.395 633.645 134.195 634.045 132.095C634.345 129.995 631.445 129.095 630.745 131.195Z" fill="#001430" fill-opacity="0.4"/>
<path d="M641.745 134.495C639.245 136.995 634.745 140.395 636.045 144.395C636.245 145.095 636.845 145.395 637.445 145.495C641.545 145.795 643.945 140.595 645.845 137.695C647.445 135.195 643.745 132.395 641.745 134.495Z" fill="#001430" fill-opacity="0.4"/>
<path d="M301.7 156.9C299.4 153.8 297.1 150.7 294.6 147.7C293.1 145.9 290.2 148.2 291.4 150.1C293.5 153.4 295.7 156.6 297.9 159.9C299.7 162.5 301.4 166.3 304.4 167.7C305.5 168.2 307.3 167.6 307.2 166.1C306.8 162.5 303.8 159.7 301.7 156.9Z" fill="#001430" fill-opacity="0.4"/>
<path d="M311.6 155C310.8 152.1 310.4 149.2 310.3 146.3C310.2 143.6 306.6 143.8 306.3 146.3C305.9 149.7 305.9 153 306.8 156.4C307.5 159 308.3 162.2 311.1 163.1C311.9 163.4 312.7 162.8 313 162C313.7 159.6 312.2 157.3 311.6 155Z" fill="#001430" fill-opacity="0.4"/>
<path d="M331.8 148.9C330.8 147.9 328.8 147.8 327.8 148.9C325 152 321.8 155 319.9 158.8C318.8 160.9 321.2 164 323.4 162.3C325.2 160.9 326.5 159.6 327.8 157.9C329.1 156.2 330.4 154.6 331.8 152.9C332.8 151.6 333 150 331.8 148.9Z" fill="#001430" fill-opacity="0.4"/>
<path d="M55.8999 181.1C55.3999 179.5 54.0999 178.1 52.8999 176.9C51.6999 175.7 50.2999 174.6 48.8999 173.7C46.7999 172.3 44.8999 175.7 46.8999 177.1C47.9999 177.9 49.0999 178.8 49.9999 179.8C50.9999 180.8 51.5999 182.1 52.6999 183C53.9999 184.1 56.4999 183 55.8999 181.1Z" fill="#001430" fill-opacity="0.4"/>
<path d="M64.1 173.8C63.8 172.3 63.9 170.6 64 169.1C64.1 166.8 60.8 166.6 60.2 168.6C59.1 171.8 58.5 177.4 61.6 179.6C62.7 180.4 64.2 179.5 64.6 178.4C65.1 176.8 64.4 175.3 64.1 173.8Z" fill="#001430" fill-opacity="0.4"/>
<path d="M74.6998 167.4C74.1998 165.1 70.3998 165.6 70.4998 168C70.5998 169.8 70.4998 171.5 69.9998 173.3C69.4998 175.1 68.7998 176.5 69.0998 178.4C69.3998 180.4 72.0998 180.6 73.2998 179.5C76.2998 176.8 75.4998 170.8 74.6998 167.4Z" fill="#001430" fill-opacity="0.4"/>
<path d="M889.4 124.2C886.5 121.1 883.4 118.2 880.4 115.2C878.4 113.2 875.3 116.3 877.3 118.3C880.3 121.3 883.1 124.5 886.2 127.4C888.3 129.5 891.5 126.3 889.4 124.2Z" fill="#001430" fill-opacity="0.4"/>
<path d="M898 120.7C898 119.4 897.8 118.1 897.7 116.8C897.4 113.7 893.1 113.7 892.8 116.8C892.7 118.1 892.5 119.4 892.5 120.7C892.5 122.3 892.4 123.5 893.5 124.8C894.4 125.8 896.2 125.8 897 124.8C898.1 123.5 898 122.3 898 120.7Z" fill="#001430" fill-opacity="0.4"/>
<path d="M906.5 119.4C905.4 121.7 904.3 123.9 903.4 126.3C902.3 129.6 907.6 131.9 909.1 128.7C910.2 126.4 911 124 911.8 121.6C912.8 118.6 907.9 116.5 906.5 119.4Z" fill="#001430" fill-opacity="0.4"/>
<path d="M1181.83 108.477C1180.43 105.477 1178.23 103.177 1175.43 101.377C1172.83 99.7774 1170.63 103.677 1173.03 105.377C1174.83 106.677 1176.33 108.577 1177.03 110.777C1177.73 112.777 1177.33 115.177 1178.53 116.877C1179.33 117.977 1181.03 118.477 1182.03 117.377C1184.33 114.877 1183.03 111.177 1181.83 108.477Z" fill="#001430" fill-opacity="0.4"/>
<path d="M1192.23 103.377C1192.03 100.477 1187.93 100.477 1187.63 103.377C1187.33 106.877 1187.03 110.377 1186.83 113.977C1186.73 114.977 1187.43 116.177 1188.33 116.677C1189.53 117.277 1190.33 117.277 1191.43 116.677C1192.33 116.277 1193.03 114.977 1192.93 113.977L1192.23 103.377Z" fill="#001430" fill-opacity="0.4"/>
<path d="M1198.73 108.078C1197.13 110.178 1195.63 112.278 1194.23 114.478C1191.73 118.478 1198.23 122.278 1200.53 118.178C1201.83 115.878 1202.93 113.578 1203.93 111.078C1205.43 107.478 1201.03 104.978 1198.73 108.078Z" fill="#001430" fill-opacity="0.4"/>
<path d="M1080.9 207.8C1080.2 203.8 1077.8 200 1075.1 197C1072.5 194 1068.3 198.3 1070.8 201.3C1072.9 203.8 1073.8 206.5 1074.8 209.5C1076.1 213.3 1081.5 211.7 1080.9 207.8Z" fill="#001430" fill-opacity="0.4"/>
<path d="M1093.5 199.3C1092.8 197.3 1090.1 196.8 1088.9 198.7C1088.1 200.1 1087.8 201.6 1087.1 203C1086.3 204.4 1085.5 205.8 1084.5 207.1C1082.2 210.2 1087.4 214.2 1089.8 211.2C1092.4 208.2 1094.8 203.4 1093.5 199.3Z" fill="#001430" fill-opacity="0.4"/>
<path d="M1101.1 204.4C1098.6 207 1095.7 209.5 1094.3 213C1093.3 215.6 1096.7 217.9 1098.9 216.5C1102 214.6 1103.9 211.1 1106.1 208.2C1108.1 205.3 1103.5 201.9 1101.1 204.4Z" fill="#001430" fill-opacity="0.4"/>
<path d="M1656.9 133.9C1654.6 130.8 1652.3 127.7 1649.8 124.7C1648.3 122.9 1645.4 125.2 1646.6 127.1C1648.7 130.4 1650.9 133.6 1653.1 136.9C1654.9 139.5 1656.6 143.3 1659.6 144.7C1660.7 145.2 1662.5 144.6 1662.4 143.1C1662 139.6 1658.9 136.7 1656.9 133.9Z" fill="#001430" fill-opacity="0.4"/>
<path d="M1666.7 132C1665.9 129.1 1665.5 126.2 1665.4 123.3C1665.3 120.6 1661.7 120.8 1661.4 123.3C1661 126.7 1661 130 1661.9 133.4C1662.6 136 1663.4 139.2 1666.2 140.1C1667 140.4 1667.8 139.8 1668.1 139C1668.9 136.6 1667.3 134.3 1666.7 132Z" fill="#001430" fill-opacity="0.4"/>
<path d="M1687 125.9C1686 124.9 1684 124.8 1683 125.9C1680.2 129 1677 132 1675.1 135.8C1674 137.9 1676.4 141 1678.6 139.3C1680.4 137.9 1681.7 136.6 1683 134.9C1684.3 133.2 1685.6 131.6 1687 129.9C1688 128.6 1688.2 127 1687 125.9Z" fill="#001430" fill-opacity="0.4"/>
<path d="M1411.85 138.187C1411.35 136.587 1410.05 135.187 1408.85 133.987C1407.65 132.787 1406.25 131.687 1404.85 130.787C1402.75 129.387 1400.85 132.787 1402.85 134.187C1403.95 134.987 1405.05 135.887 1405.95 136.887C1406.95 137.887 1407.55 139.187 1408.65 140.087C1409.95 141.187 1412.45 140.087 1411.85 138.187Z" fill="#001430" fill-opacity="0.4"/>
<path d="M1420.05 130.887C1419.75 129.387 1419.85 127.687 1419.95 126.187C1420.05 123.887 1416.75 123.687 1416.15 125.687C1415.05 128.887 1414.45 134.487 1417.55 136.687C1418.65 137.487 1420.15 136.587 1420.55 135.487C1421.05 133.887 1420.25 132.387 1420.05 130.887Z" fill="#001430" fill-opacity="0.4"/>
<path d="M1430.65 124.486C1430.15 122.186 1426.35 122.686 1426.45 125.086C1426.55 126.886 1426.45 128.586 1425.95 130.386C1425.45 132.186 1424.75 133.586 1425.05 135.486C1425.35 137.486 1428.05 137.686 1429.25 136.586C1432.25 133.886 1431.35 127.886 1430.65 124.486Z" fill="#001430" fill-opacity="0.4"/>
</g>
</g>
<defs>
<clipPath id="clip0_1805_228">
<rect width="1922" height="295.8" fill="white" transform="translate(-1 82)"/>
</clipPath>
</defs>
</svg>
