<svg width="187" height="124" viewBox="0 0 187 124" fill="none" xmlns="http://www.w3.org/2000/svg">
<path opacity="0.04" d="M135.503 115.581C116.392 113.297 98.849 100.998 84.9776 88.2999C76.3513 80.3795 69.515 71.1828 62.9212 61.566C53.7168 48.202 44.3448 35.3714 32.3675 24.2564C22.1184 14.7691 10.2977 6.54452 -3.08774 2.24632C-5.62474 1.41156 -8.25267 0.734298 -10.8359 0.222837L-25.4454 25.5271C-16.273 37.1226 -6.1705 47.7152 5.30723 57.1417C19.0476 68.3647 34.1265 78.1204 49.1081 87.68C73.7688 103.458 101.008 118.904 130.408 123.069C143.447 124.927 156.955 123.906 168.266 116.717C178.755 110.103 186.033 98.8353 186.336 86.2709C186.853 68.2297 168.429 51.0129 150.302 51.887C139.818 52.4137 131.416 61.4928 131.21 71.9434C130.992 81.1975 136.989 88.9297 144.738 93.2632C143.038 89.762 142.138 86.0923 142.965 81.7403C143.863 76.6588 146.811 71.431 151.499 69.0275C162.247 63.5435 171.886 75.5481 172.239 85.2719C173.02 105.322 153.779 117.733 135.503 115.581Z" fill="white"/>
</svg>
