<svg width="85" height="116" viewBox="0 0 85 116" fill="none" xmlns="http://www.w3.org/2000/svg">
<path d="M43.2439 105.455H43.4446C42.4409 100.48 42.8424 95.506 43.6454 90.5317H43.4446C42.6416 95.506 42.2401 100.48 43.2439 105.455Z" fill="#E5E5E5"/>
<path d="M39.0281 105.455H38.8273C40.0318 100.48 39.4296 95.506 38.6266 90.5317H38.8273C39.8311 95.506 40.2326 100.48 39.0281 105.455Z" fill="#E5E5E5"/>
<path d="M46.6566 105.455H46.8574C45.6529 100.48 46.2551 95.506 47.0581 90.5317H46.8574C45.8536 95.506 45.4521 100.48 46.6566 105.455Z" fill="#E5E5E5"/>
<path d="M37.0206 84.3637L35.2138 85.1596C9.317 46.9572 1.28698 17.7085 24.1725 3.78056C26.7823 1.79085 28.7898 1.79085 30.7973 2.38777C12.529 16.1168 20.7598 47.5541 37.0206 84.3637Z" fill="url(#paint0_linear_2611_7253)"/>
<path d="M35.2138 85.1593C9.317 46.9569 1.28698 17.7082 24.1725 3.78024C25.377 2.78539 26.5815 2.38745 27.786 2.18848C7.10874 13.7288 11.3245 46.161 35.2138 84.9604V85.1593Z" fill="url(#paint1_linear_2611_7253)" fill-opacity="0.2627"/>
<path d="M24.574 3.78027C1.08624 21.2897 14.135 51.7322 35.4146 84.9604L33.6078 85.5573C11.9268 63.2725 -11.561 27.8557 17.7485 5.96895C20.559 4.37719 22.165 3.78027 24.574 3.78027Z" fill="url(#paint2_linear_2611_7253)"/>
<path d="M33.6078 85.5575C11.9268 63.2728 -11.561 27.856 17.7485 5.96921C18.5515 5.57127 19.1538 5.17332 19.756 4.97435L21.1613 4.37744L20.9605 4.57641C-6.54228 26.2642 12.529 60.6862 32.8048 84.3637L33.6078 85.5575Z" fill="#FFA300" fill-opacity="0.1804"/>
<path d="M17.1464 6.56592C-3.12943 22.8815 1.68858 50.9364 33.8087 85.3584L31.8011 86.1543C-1.92493 55.9107 -11.1595 21.8867 17.1464 6.56592Z" fill="url(#paint3_linear_2611_7253)"/>
<path d="M36.0169 1.59173C25.9794 18.3053 31.8011 50.5386 39.2289 84.1646H43.2439L42.6416 0.994821C40.4334 0.198938 38.2251 -3.30806e-05 36.0169 1.59173Z" fill="url(#paint4_linear_2611_7253)"/>
<path d="M39.2288 84.3634C31.6003 50.5384 25.9793 18.5041 36.0168 1.79051C36.2176 1.59154 36.6191 1.39257 36.8198 1.1936L37.4221 0.994629L37.2213 1.39257C30.5966 18.1061 33.4071 47.5538 38.6266 79.1902L39.4296 84.5624L39.2288 84.3634Z" fill="#FFA300" fill-opacity="0.2"/>
<path d="M39.4296 84.3635H36.8199C18.9531 44.9673 12.9306 14.1268 30.7973 2.18854C32.4033 1.19368 34.2101 0.99471 36.0169 1.59162C28.1876 17.5093 30.3958 46.559 39.4296 84.3635Z" fill="url(#paint5_linear_2611_7253)"/>
<path d="M49.2663 1.59185C59.3039 18.3054 53.4821 50.5387 46.0543 84.1647H42.0393C41.6378 66.4563 41.2363 48.7479 41.4371 30.8406C41.6378 20.892 41.8386 10.9435 42.6416 0.79597C44.8498 0.199057 47.0581 8.64863e-05 49.2663 1.59185Z" fill="url(#paint6_linear_2611_7253)"/>
<path d="M45.8536 84.3635H48.4634C66.3302 45.1662 72.3527 14.3258 54.4859 2.18854C52.8799 1.19368 51.0732 0.99471 49.2664 1.59162C57.0957 17.5093 54.6867 46.559 45.8536 84.3635Z" fill="url(#paint7_linear_2611_7253)"/>
<path d="M48.0619 84.3637L49.8686 85.1596C75.9662 46.9572 83.7955 17.7085 60.9099 3.78056C58.3002 1.79085 56.2927 1.79085 54.2852 2.38777C72.5534 16.1168 64.5234 47.5541 48.0619 84.3637Z" fill="url(#paint8_linear_2611_7253)"/>
<path d="M60.5084 3.58154C83.9962 21.091 71.1482 51.5335 49.8687 84.9606L51.4747 85.5575C73.3565 63.2728 96.242 27.856 67.1332 5.96919C64.9249 4.37743 62.7167 3.78051 60.5084 3.58154Z" fill="url(#paint9_linear_2611_7253)"/>
<path d="M67.7354 6.56592C88.0112 22.8815 83.1932 50.9364 51.0731 85.3584L53.0806 86.1543C86.8067 55.9107 96.0412 21.8867 67.7354 6.56592Z" fill="url(#paint10_linear_2611_7253)"/>
<path d="M34.6116 92.5215C34.0093 90.1339 33.0056 88.1442 31.6003 85.9555C34.8123 83.5679 38.2251 82.772 41.6379 82.772H42.4409H43.2439C46.6566 82.772 49.8686 83.5679 53.2814 85.9555C52.0769 88.1442 50.8724 90.3329 50.2701 92.5215C48.0619 91.5267 46.0544 91.1288 43.8461 90.9298H43.2439H42.4409H41.6379H41.0356C38.8274 90.9298 36.8199 91.5267 34.6116 92.5215Z" fill="url(#paint11_linear_2611_7253)"/>
<path d="M39.4296 82.772C36.8199 83.1699 34.2101 83.9658 31.6003 85.9555C32.8048 88.1442 34.0093 90.3329 34.6116 92.5215C36.8199 91.5267 38.8274 91.1288 41.0356 90.9298L39.4296 82.772Z" fill="url(#paint12_linear_2611_7253)"/>
<path d="M42.4408 90.5317C46.6566 90.5317 50.2701 91.3276 50.2701 92.3225C50.2701 93.3173 46.8573 94.1132 42.4408 94.1132C38.2251 94.1132 34.6116 93.3173 34.6116 92.3225C34.6116 91.3276 38.0243 90.5317 42.4408 90.5317Z" fill="url(#paint13_linear_2611_7253)"/>
<path d="M53.2814 85.9553C53.0807 85.7563 53.0807 85.7563 52.8799 85.5573L53.0807 85.3583C53.2814 85.5573 53.4822 85.5573 53.4822 85.7563L53.2814 85.9553ZM31.3996 85.7563L31.1989 85.5573C31.3996 85.5573 31.6004 85.3583 31.6004 85.3583L31.8011 85.5573C31.8011 85.5573 31.6004 85.5573 31.3996 85.7563ZM52.2777 85.3583C52.0769 85.3583 51.8762 85.1594 51.8762 85.1594L52.0769 84.9604C52.2777 84.9604 52.4784 85.1594 52.4784 85.1594L52.2777 85.3583ZM32.4034 85.1594L32.2026 84.9604C32.4034 84.9604 32.6041 84.7614 32.8049 84.7614L33.0056 84.9604C32.8049 84.9604 32.6041 85.1594 32.4034 85.1594ZM51.2739 84.7614C51.0731 84.7614 50.8724 84.5625 50.6716 84.5625L50.8724 84.3635C51.0731 84.3635 51.2739 84.5625 51.4746 84.5625L51.2739 84.7614ZM33.4071 84.7614L33.2064 84.5625C33.4071 84.5625 33.6079 84.3635 33.8086 84.3635V84.5625C33.8086 84.5625 33.6079 84.5625 33.4071 84.7614ZM50.2701 84.3635C50.0694 84.3635 49.8686 84.1645 49.6679 84.1645V83.9656C49.8686 83.9656 50.0694 84.1645 50.2701 84.1645V84.3635ZM34.4109 84.3635V84.1645C34.6116 84.1645 34.8124 83.9656 35.0131 83.9656V84.1645C34.8124 84.1645 34.6116 84.1645 34.4109 84.3635ZM49.2664 83.9656C49.0656 83.9656 48.8649 83.7666 48.6641 83.7666V83.5676C48.8649 83.5676 49.0656 83.7666 49.2664 83.7666V83.9656ZM35.6154 83.9656V83.7666C35.8161 83.7666 36.0169 83.5676 36.2176 83.5676V83.7666C35.8161 83.7666 35.6154 83.7666 35.6154 83.9656ZM48.2626 83.5676C48.0619 83.5676 47.8611 83.5676 47.6604 83.3686V83.1697C47.8611 83.1697 48.0619 83.1697 48.2626 83.3686V83.5676ZM36.6191 83.5676V83.3686C36.8199 83.3686 37.0206 83.3686 37.2214 83.1697V83.3686C37.0206 83.5676 36.8199 83.5676 36.6191 83.5676ZM47.0581 83.3686C46.8574 83.3686 46.6566 83.3686 46.4559 83.1697V82.9707C46.6566 82.9707 46.8574 82.9707 47.0581 83.1697V83.3686ZM37.6229 83.3686V83.1697C37.8236 83.1697 38.0244 83.1697 38.2251 82.9707V83.1697C38.0244 83.1697 37.8236 83.3686 37.6229 83.3686ZM46.0544 83.1697C45.8536 83.1697 45.6529 83.1697 45.4521 83.1697V82.9707C45.6529 82.9707 45.8536 82.9707 46.0544 82.9707V83.1697ZM38.8274 83.1697V82.9707C39.0281 82.9707 39.2289 82.9707 39.4296 82.9707V83.1697C39.2289 83.1697 39.0281 83.1697 38.8274 83.1697ZM44.8499 82.9707C44.6491 82.9707 44.4484 82.9707 44.2476 82.9707V82.7717C44.4484 82.7717 44.6491 82.7717 44.8499 82.7717V82.9707ZM39.8311 82.9707V82.7717C40.0319 82.7717 40.2326 82.7717 40.4334 82.7717V82.9707C40.2326 82.9707 40.0319 82.9707 39.8311 82.9707ZM43.8461 82.9707C43.6454 82.9707 43.4446 82.9707 43.2439 82.9707V82.7717C43.4446 82.7717 43.6454 82.7717 43.8461 82.7717V82.9707ZM41.0356 82.9707V82.7717C41.2364 82.7717 41.4371 82.7717 41.6379 82.7717V83.1697C41.4371 82.9707 41.2364 82.9707 41.0356 82.9707ZM42.6416 82.7717C42.4409 82.7717 42.2401 82.7717 42.0394 82.7717V82.5728C42.2401 82.5728 42.4409 82.5728 42.6416 82.5728V82.7717Z" fill="white"/>
<path d="M32.0018 86.1543C-1.92499 55.9107 -11.1595 21.8867 17.1463 6.56592C16.5441 7.16283 15.9418 7.56077 15.3396 8.15768L14.938 8.55563L14.3358 8.95357C-7.1445 25.2692 1.48777 56.5076 30.9981 84.9604L32.0018 86.1543Z" fill="#FFA300" fill-opacity="0.2353"/>
<path d="M36.6191 84.3637C18.7523 44.9674 12.7297 14.127 30.5965 2.18871C30.998 1.98974 31.3995 1.79077 31.801 1.5918H32.2025C17.1463 12.9331 20.7598 43.5746 36.2176 82.7719L36.6191 84.3637Z" fill="url(#paint14_linear_2611_7253)" fill-opacity="0.2627"/>
<path d="M41.2364 23.0808C23.9718 22.8818 7.51029 26.0653 1.08627 32.4324L0.0825195 31.4376C7.10879 24.6726 24.1726 21.688 41.2364 21.688C58.5009 21.887 76.1669 25.0705 85 31.2386L84.197 32.2334C75.7654 26.4633 58.3002 23.0808 41.2364 23.0808Z" fill="white" fill-opacity="0.5451"/>
<path d="M49.0657 3.58148C55.4897 27.458 51.0732 53.1252 45.4521 78.7924C46.8574 62.6758 48.0619 12.1372 46.4559 2.98457C47.4597 2.18868 48.2627 1.98971 49.0657 3.58148Z" fill="url(#paint15_linear_2611_7253)" fill-opacity="0.2353"/>
<path d="M57.6979 6.96397C67.7354 22.2847 59.5046 51.3345 49.2664 77.0017C60.9099 45.7633 59.1031 18.3053 55.8911 6.56603C56.6941 5.77014 56.8949 5.3722 57.6979 6.96397Z" fill="url(#paint16_linear_2611_7253)" fill-opacity="0.2353"/>
<path d="M67.1332 11.3413C76.5685 26.2641 69.743 50.5385 55.6904 73.4202C72.7542 42.9776 67.9362 21.0908 64.7242 10.7444C62.9174 7.36185 65.1257 8.75464 67.1332 11.3413Z" fill="url(#paint17_linear_2611_7253)" fill-opacity="0.2353"/>
<path d="M74.7617 14.7236C84.197 27.2588 77.3715 47.9518 63.319 67.4509C80.3828 41.5847 75.5647 23.0804 72.3527 14.3257C69.9437 10.1473 71.349 10.5453 74.7617 14.7236Z" fill="url(#paint18_linear_2611_7253)" fill-opacity="0.2353"/>
<path d="M35.4146 3.38226C28.9906 27.2588 33.4071 52.926 39.0281 78.5932C37.6229 62.4766 36.4184 11.938 38.0244 2.78535C37.2214 1.98946 36.4184 1.79049 35.4146 3.38226Z" fill="url(#paint19_linear_2611_7253)" fill-opacity="0.2353"/>
<path d="M25.3771 7.7597C15.9418 24.6722 24.1726 51.9312 34.4108 77.5985C22.7673 46.3601 24.7748 18.9021 27.9868 7.16279C26.9831 6.36691 26.1801 6.16794 25.3771 7.7597Z" fill="url(#paint20_linear_2611_7253)" fill-opacity="0.2353"/>
<path d="M17.5478 11.1425C8.1125 26.0654 14.938 50.3398 28.9905 73.2215C12.1275 42.7789 16.9455 20.8921 20.1575 10.5456C19.1538 9.94872 18.3508 9.74975 17.5478 11.1425Z" fill="url(#paint21_linear_2611_7253)" fill-opacity="0.2353"/>
<path d="M10.3208 14.9228C0.885574 28.6518 7.71109 51.1355 21.7636 72.4254C4.90058 44.1715 9.71859 23.8765 12.9306 14.3259C12.1276 13.729 11.1238 13.53 10.3208 14.9228Z" fill="url(#paint22_linear_2611_7253)" fill-opacity="0.2353"/>
<path d="M53.4822 83.3688C57.0957 79.1905 60.5084 74.8131 63.7205 70.2368C67.334 65.0635 70.9475 59.8903 74.1595 54.5181C72.955 56.7067 71.7505 58.8954 70.546 61.0841C68.5385 64.6656 66.3302 68.0481 63.7205 71.4306C62.3152 74.0172 60.3077 76.2059 58.3002 78.5935C56.6942 80.1853 55.0882 81.7771 53.4822 83.3688Z" fill="url(#paint23_linear_2611_7253)" fill-opacity="0.2824"/>
<path d="M50.4709 83.5675C53.683 78.9912 56.4935 74.2159 59.1032 69.4406C62.1145 63.8694 64.925 58.2982 67.5347 52.7271C66.7317 55.1147 65.728 57.3034 64.7242 59.691C63.1182 63.4715 61.3115 67.053 59.304 70.6344C57.8987 73.221 56.2927 75.8077 54.486 78.1953C53.2815 79.9861 51.8762 81.7768 50.4709 83.5675Z" fill="url(#paint24_linear_2611_7253)" fill-opacity="0.2824"/>
<path d="M42.0394 84.5624L41.8386 82.1748L42.0394 79.7871L42.2401 82.1748L42.0394 84.5624Z" fill="white"/>
<path d="M39.6304 84.9606L38.8274 82.7719L38.4259 80.3843L39.2289 82.573L39.6304 84.9606Z" fill="white"/>
<path d="M37.4221 85.5573L36.2176 83.5676L35.4146 81.3789L36.6191 83.3686L37.4221 85.5573Z" fill="white"/>
<path d="M35.8161 86.1545L34.4109 84.1648L33.4071 81.9761L34.8124 83.9658L35.8161 86.1545Z" fill="white"/>
<path d="M34.2101 86.7511L32.6041 84.9604L31.1989 82.9707L32.8049 84.7614L34.2101 86.7511Z" fill="white"/>
<path d="M45.4521 84.7614L45.8537 82.3737L46.6567 80.1851L46.2552 82.5727L45.4521 84.7614Z" fill="white"/>
<path d="M47.6604 85.1593L48.4634 82.9707L49.6679 80.981L48.8649 83.1696L47.6604 85.1593Z" fill="white"/>
<path d="M49.2664 85.7565L50.2701 83.5678L51.6754 81.5781L50.6716 83.7668L49.2664 85.7565Z" fill="white"/>
<path d="M50.4709 86.3532L51.8762 84.3635L53.4822 82.5728L52.077 84.5625L50.4709 86.3532Z" fill="white"/>
<path d="M62.3152 42.9778C62.7167 40.5902 63.1182 38.4015 63.5197 35.8149C63.7205 35.019 63.7205 34.0241 63.7205 33.2283C63.7205 32.8303 63.7205 32.6313 63.7205 32.2334C63.7205 32.0344 63.7205 32.0344 63.7205 31.8355C63.7205 31.8355 63.7205 31.8355 63.7205 31.6365C63.7205 31.4375 63.7205 31.0396 63.7205 30.8406C63.7205 30.4427 63.7205 30.0447 63.7205 29.8458C63.7205 28.8509 63.9212 27.856 63.9212 27.0602C63.9212 24.2746 63.7205 21.688 63.319 19.1013C62.9175 15.9178 61.9137 12.7343 60.5085 9.94867C59.9062 8.75485 59.304 7.75999 58.501 6.76514C58.9025 7.36205 59.5047 7.95896 59.9062 8.55587C60.5085 9.55073 61.1107 10.5456 61.713 11.7394C63.1182 14.525 63.9212 17.7085 64.3227 20.8921C64.7242 23.2797 64.7242 26.0653 64.5235 28.453C64.5235 29.2488 64.5235 30.0447 64.3227 30.8406C64.3227 31.0396 64.3227 31.0396 64.3227 31.2386C64.3227 31.4375 64.3227 31.4375 64.3227 31.6365V31.8355C64.122 33.6262 63.9212 35.4169 63.7205 37.0087C63.319 38.9984 62.9175 40.9881 62.3152 42.9778Z" fill="#FFA300" fill-opacity="0.5255"/>
<path d="M70.9474 42.9776C71.3489 40.789 71.7504 38.6003 72.1519 36.4116C72.3526 35.6157 72.3526 34.8198 72.3526 34.0239C72.3526 33.825 72.3526 33.427 72.3526 33.0291C72.3526 32.8301 72.3526 32.8301 72.3526 32.6312C72.3526 32.6312 72.3526 32.6311 72.3526 32.4322C72.3526 32.2332 72.3526 32.0342 72.3526 31.6363C72.3526 31.2384 72.3526 31.0394 72.3526 30.6414C72.3526 29.8456 72.3526 28.8507 72.5534 28.0548C72.5534 25.4682 72.3526 23.0806 71.9511 20.6929C71.3489 17.7083 70.3451 14.9227 68.9399 12.3361C68.3376 11.3413 67.7354 10.3464 66.9324 9.35156C67.3339 9.94848 67.9361 10.5454 68.3376 10.9433C68.9399 11.9382 69.5421 12.7341 70.1444 13.7289C71.5496 16.3155 72.3526 19.1011 72.7541 22.0857C73.1556 24.2744 73.1556 26.662 72.9549 29.0497C72.9549 29.8456 72.7541 30.4425 72.7541 31.2384C72.7541 31.4373 72.7541 31.4373 72.7541 31.6363C72.7541 31.6363 72.7541 31.8353 72.7541 32.0342V32.2332C72.5534 33.825 72.3526 35.4167 72.1519 37.0085C71.7504 39.3962 71.3489 41.1869 70.9474 42.9776Z" fill="#FFA300" fill-opacity="0.5255"/>
<path d="M50.6716 90.7307L50.4709 90.5317C48.4634 89.3379 45.2514 88.9399 42.0394 88.9399C38.8273 88.9399 35.8161 89.5368 34.2101 90.3327V90.1338C36.0168 89.1389 39.0281 88.542 42.2401 88.542C45.4521 88.542 48.8649 89.1389 50.8724 90.3327H51.0731L50.6716 90.7307Z" fill="url(#paint25_linear_2611_7253)"/>
<path d="M42.4408 94.3119C40.2326 94.3119 38.4258 94.113 37.0206 93.715C35.6153 93.3171 34.6116 92.9191 34.6116 92.3222C34.6116 91.7253 35.6153 91.3274 37.0206 90.9294C38.4258 90.5315 40.4333 90.3325 42.4408 90.3325C44.6491 90.3325 46.4558 90.5315 47.8611 90.9294C49.2664 91.3274 50.2701 91.7253 50.2701 92.3222C50.2701 92.9191 49.2664 93.3171 47.8611 93.715C46.4558 94.113 44.4483 94.3119 42.4408 94.3119ZM42.4408 93.914C44.6491 93.914 46.4558 93.715 47.8611 93.3171C48.4634 93.1181 49.0656 92.9191 49.4671 92.7202C49.8686 92.5212 50.0694 92.3222 50.0694 92.1233C50.0694 91.9243 49.8686 91.7253 49.4671 91.5263C49.0656 91.3274 48.4634 91.1284 47.8611 90.9294C46.4558 90.5315 44.4483 90.3325 42.4408 90.3325C40.2326 90.3325 38.4258 90.5315 37.0206 90.9294C36.4183 91.1284 35.8161 91.3274 35.4146 91.5263C35.0131 91.7253 34.8123 91.9243 34.8123 92.1233C34.8123 92.3222 35.0131 92.5212 35.4146 92.7202C35.8161 92.9191 36.4183 93.1181 37.0206 93.3171C38.4258 93.715 40.2326 93.914 42.4408 93.914Z" fill="url(#paint26_linear_2611_7253)"/>
<path d="M1.88933 32.6314C1.28708 32.6314 0.684826 32.4324 0.283325 31.8355L0.484075 31.6365C1.28708 32.4324 2.09008 32.4324 2.69233 32.0345C3.49533 31.4376 4.29833 30.2437 5.10134 28.453H5.30209C7.51034 30.8407 9.51784 29.6468 11.7261 25.8664H11.9269C15.3396 28.652 17.7486 27.2592 19.9569 24.0757H20.1576C23.3696 27.4582 27.1839 26.0654 31.1989 22.6829H31.3996C34.8124 24.8715 38.0244 25.2695 41.4372 22.4839H41.6379C45.8537 24.8715 49.8687 25.4684 53.683 23.0808H53.8837C57.4972 25.6674 60.91 26.0654 64.3227 24.4736H64.5235C67.334 26.8612 69.9437 28.0551 72.7542 26.2643H72.955C75.364 29.4479 77.5723 30.8407 79.9813 28.851H80.182C81.3865 31.8355 82.7918 33.0293 84.7993 31.4376L85 31.6365C82.9925 33.2283 81.3865 32.0345 80.182 29.4479L79.9813 29.0499L79.5798 29.2489C77.3715 30.6417 75.1633 29.2489 73.1558 26.8612L72.7542 26.4633L72.3527 26.6623C69.9437 27.8561 67.7355 27.0602 65.3265 25.2695L64.3227 24.4736L63.7205 24.6726C60.5085 25.8664 57.4972 25.4684 54.2852 23.4787L53.683 23.0808L53.0807 23.4787C49.4672 25.2695 45.8537 24.6726 42.2402 22.8818L41.4372 22.4839L40.8349 22.8818C37.8237 25.0705 34.8124 24.8715 31.8011 23.0808L31.1989 22.6829L30.5966 23.2798C26.9831 26.0654 23.5704 27.2592 20.5591 24.6726L19.9569 24.2746L19.5554 24.6726C17.5479 27.2592 15.3396 28.652 12.1276 26.4633V26.2643L11.7261 26.8612C9.71859 29.8458 7.71109 31.0396 5.70359 29.2489L5.50284 29.0499L5.30209 29.4479C4.49908 30.8407 3.89683 32.0345 3.09383 32.4324C2.49158 32.6314 2.29083 32.6314 1.88933 32.6314Z" fill="white" fill-opacity="0.5451"/>
<path d="M34.6116 105.852C18.5515 91.1285 6.5065 65.4612 5.302 28.4526H5.50275C6.70725 65.4612 18.7523 90.9295 34.6116 105.653V105.852Z" fill="url(#paint27_linear_2611_7253)"/>
<path d="M50.0694 105.056C66.1294 90.5316 78.3752 65.4612 79.9812 29.2485H79.7805C78.1745 65.4612 65.9287 90.3326 49.8687 104.857L50.0694 105.056Z" fill="url(#paint28_linear_2611_7253)"/>
<path d="M48.4634 107.643L48.2627 107.444C58.7017 86.3533 63.1182 57.7015 63.9212 24.6724H64.122C63.319 57.7015 58.9025 86.3533 48.4634 107.643Z" fill="url(#paint29_linear_2611_7253)"/>
<path d="M50.0694 104.858L34.6116 104.659L34.2101 111.822C34.0093 113.015 34.8123 114.806 36.2176 115.204C40.4334 116.398 44.6491 116.199 49.2664 115.204C50.4709 115.005 51.4746 113.214 51.2739 112.021L50.0694 104.858Z" fill="url(#paint30_linear_2611_7253)"/>
<path d="M43.4446 116V104.857H50.2701L51.2739 112.02C51.4746 113.214 50.4708 115.005 49.2663 115.204C47.6603 115.602 45.8536 115.801 44.2476 116H43.4446Z" fill="url(#paint31_linear_2611_7253)"/>
<path d="M42.4409 116L42.2401 115.602L42.0394 116H41.6379H41.2364L41.4371 115.602L41.0356 115.005L40.6341 115.403L41.0356 116H40.8349H40.6341L40.4334 115.801L40.2326 116H39.6304L39.4296 115.801L39.2289 116H39.0281H38.6266V115.403V115.602L38.8274 115.801H38.2251V115.602L38.0244 115.204L37.8236 115.602H37.4221L37.0206 115.204L36.8199 115.403L37.0206 115.602L36.6191 115.403L36.2176 114.806L36.0168 115.204L35.6154 115.005L35.4146 114.806L35.2138 114.607V114.806L35.0131 114.607V114.408L34.8123 114.209L34.6116 114.408L34.4108 114.209L34.6116 114.01L34.2101 113.413V112.816C34.2101 112.617 34.2101 112.418 34.2101 112.219V112.02L34.4108 111.821L34.2101 111.622V111.224L34.4108 111.622L34.6116 111.423L34.2101 110.827V110.23L34.4108 109.832V109.633L34.2101 110.031V109.235V109.036L34.0093 108.837V108.439L34.2101 108.837L34.4108 108.439L34.0093 107.842L33.8086 108.041V107.444L34.2101 107.046L34.0093 106.648V106.25L34.4108 106.847L34.6116 106.449V105.454L34.8123 105.255L35.2138 106.051L35.4146 105.653L35.0131 105.255L35.2138 105.056L35.4146 105.454L35.8161 104.857H36.2176L35.6154 105.653L36.0168 106.25L36.2176 105.852V105.454L36.4184 105.255L36.6191 105.653L36.8199 105.255L36.6191 105.056L36.8199 104.857H37.2214L37.0206 105.255V105.454L37.4221 105.056H37.8236L37.6229 105.454L38.0244 106.051L38.2251 105.653L37.8236 105.056L38.0244 104.857L38.4259 105.255L38.8274 104.658H39.2289L39.4296 104.857L39.6304 104.658H40.0319L39.6304 105.255L40.0319 105.852L40.2326 105.454L39.8311 104.857L40.0319 104.658L40.2326 105.056L40.4334 104.658H40.8349L41.0356 104.857L41.2364 104.658H41.8386L42.0394 105.056L42.2401 104.658H42.8424L43.0431 104.857L43.2439 104.658H43.8461L44.0469 105.056L44.2476 104.658H44.6491L44.8499 104.857L45.0506 104.658H45.6529L45.8536 105.056L46.0544 104.658H46.4559L46.6566 105.056L46.8574 104.658H47.2589L47.6604 105.255L47.8611 104.857L47.6604 104.658H48.0619H48.4634L48.2626 104.857L48.4634 105.056L48.6641 104.658V104.459H49.0656V104.658L49.4671 105.255L49.8686 104.459V104.857L49.4671 105.454L49.6679 105.653L50.0694 105.255V105.653L49.8686 106.051L50.0694 106.449V107.046L50.2701 107.842L50.4709 108.041L50.6716 107.842V108.24V108.439V109.036L50.2701 108.439L50.0694 108.837L50.4709 109.434L50.6716 109.235L50.8724 110.429L50.6716 110.031L50.4709 110.429L50.8724 111.026L51.0731 110.827V111.224V111.821L50.8724 111.622L50.6716 112.02L51.0731 112.617V112.816C50.8724 113.413 50.4709 114.209 50.0694 114.607L49.8686 114.806L50.0694 114.408L49.6679 113.811L49.4671 114.209L49.8686 114.806L49.6679 115.005L49.2664 114.607L48.8649 115.204L48.2626 115.403H47.6604L47.2589 115.005L46.8574 115.602L46.0544 115.801L46.2551 115.403V114.806L46.0544 115.204L46.4559 115.801H46.0544L45.8536 115.403L45.6529 115.801H45.0506H44.6491L44.8499 115.403L44.4484 114.806L44.0469 115.403L44.4484 116H44.0469L43.8461 115.801L43.6454 116.199H43.2439H42.8424L43.0431 115.801L42.6416 115.204L42.4409 115.403L42.8424 116H42.4409ZM41.8386 115.801L42.0394 115.403L41.8386 115.204L41.6379 115.602L41.8386 115.801ZM43.4446 115.801L43.6454 115.403L43.4446 115.204L43.2439 115.602L43.4446 115.801ZM40.0319 115.801L40.2326 115.403L40.0319 115.005L39.8311 115.403L40.0319 115.801ZM45.2514 115.801L45.6529 115.204L45.4521 115.005L45.2514 115.801ZM39.2289 115.801L39.4296 115.403L39.0281 114.806L38.8274 115.204L39.2289 115.801ZM43.2439 115.403L43.4446 115.005L43.0431 114.408L42.8424 114.806L43.2439 115.403ZM41.4371 115.403L41.6379 115.005L41.2364 114.408L41.0356 114.806L41.4371 115.403ZM45.0506 115.403L45.4521 114.806L45.0506 114.209L44.6491 114.806L45.0506 115.403ZM37.6229 115.403L37.8236 115.005L37.4221 114.408L37.2214 114.806L37.6229 115.403ZM48.0619 115.403L48.2626 115.005L47.8611 114.408L47.6604 114.806L48.0619 115.403ZM38.4259 115.204L38.2251 114.806V115.005L38.4259 115.204ZM42.2401 115.204L42.4409 114.806L42.2401 114.607L42.0394 115.005L42.2401 115.204ZM40.4334 115.204L40.6341 114.806L40.4334 114.408L40.2326 114.806L40.4334 115.204ZM44.0469 115.204L44.2476 114.806L44.0469 114.607L43.8461 115.005L44.0469 115.204ZM39.6304 115.005L39.8311 114.607L39.4296 114.01L39.2289 114.408L39.6304 115.005ZM46.8574 115.005L47.2589 114.408L46.8574 113.811L46.4559 114.408L46.8574 115.005ZM36.6191 115.005L36.8199 114.806L36.6191 114.408L36.4184 114.607L36.6191 115.005ZM35.8161 115.005L36.0168 114.607L35.6154 114.01L35.4146 114.408L35.8161 115.005ZM38.6266 114.806L38.8274 114.408L38.6266 114.01L38.4259 114.408L38.6266 114.806ZM45.8536 114.806L46.0544 114.408L45.8536 114.209V114.806ZM38.0244 114.607L37.6229 113.811V114.01L38.0244 114.607ZM48.4634 114.607L48.8649 114.01L48.4634 113.413L48.0619 114.01L48.4634 114.607ZM43.6454 114.607L43.8461 114.209L43.4446 113.612L43.2439 114.01L43.6454 114.607ZM41.8386 114.607L42.0394 114.209L41.6379 113.612L41.4371 114.01L41.8386 114.607ZM42.6416 114.408L42.8424 114.01L42.6416 113.811L42.4409 114.209L42.6416 114.408ZM40.8349 114.408L41.0356 114.01L40.8349 113.612L40.6341 114.01L40.8349 114.408ZM44.4484 114.408L44.8499 113.811L44.6491 113.612L44.2476 114.209L44.4484 114.408ZM37.0206 114.408L37.2214 114.01L37.0206 113.612L36.8199 114.01L37.0206 114.408ZM40.0319 114.408L40.2326 114.01L39.8311 113.413L39.6304 113.811L40.0319 114.408ZM45.4521 114.408L45.6529 114.01L45.4521 113.413L45.2514 113.811L45.4521 114.408ZM47.2589 114.209L47.4596 113.811L47.2589 113.413L47.0581 113.811L47.2589 114.209ZM38.2251 114.209L38.4259 113.811L38.0244 113.413L37.8236 113.811L38.2251 114.209ZM36.2176 114.209L36.4184 114.01L36.0168 113.413L35.8161 113.612L36.2176 114.209ZM50.0694 114.209L50.4709 113.811L50.0694 113.214L49.6679 113.612L50.0694 114.209ZM39.0281 114.209L39.2289 113.811L39.0281 113.413L38.8274 113.811L39.0281 114.209ZM46.2551 114.209L46.6566 113.612L46.4559 113.413L46.2551 114.209ZM35.2138 114.01L35.4146 113.612V113.413L35.2138 113.811V114.01ZM42.2401 114.01L42.4409 113.612L42.2401 113.015L41.8386 113.413L42.2401 114.01ZM44.0469 114.01L44.4484 113.413L44.0469 112.816L43.6454 113.413L44.0469 114.01ZM37.4221 113.811L37.2214 113.214V113.413L37.4221 113.811ZM40.4334 113.811L40.6341 113.413L40.2326 112.816L40.0319 113.214L40.4334 113.811ZM45.8536 113.811L46.2551 113.214L45.8536 112.617L45.4521 113.214L45.8536 113.811ZM41.2364 113.811L41.4371 113.413L41.2364 113.015L41.0356 113.413L41.2364 113.811ZM43.0431 113.811L43.2439 113.413L43.0431 113.214L42.8424 113.612L43.0431 113.811ZM49.0656 113.811L49.2664 113.413L48.8649 112.816L48.6641 113.214L49.0656 113.811ZM36.6191 113.811L36.8199 113.413L36.4184 112.816L36.2176 113.214L36.6191 113.811ZM38.6266 113.612L38.8274 113.214L38.4259 112.617L38.2251 113.015L38.6266 113.612ZM47.6604 113.612L48.0619 113.015L47.6604 112.418L47.2589 113.015L47.6604 113.612ZM39.4296 113.612L39.6304 113.214L39.4296 112.816L39.2289 113.214L39.4296 113.612ZM45.0506 113.612L45.2514 113.214L45.0506 113.015L44.8499 113.413L45.0506 113.612ZM34.8123 113.612L35.0131 113.214L34.6116 112.617L34.4108 113.015L34.8123 113.612ZM50.6716 113.612L50.8724 113.214L50.4709 112.617L50.2701 113.015L50.6716 113.612ZM37.6229 113.413L37.8236 113.015L37.6229 112.617L37.4221 113.015L37.6229 113.413ZM46.6566 113.413L46.8574 113.015L46.6566 112.816V113.413ZM35.6154 113.413L35.8161 113.214L35.6154 113.015L35.4146 113.214L35.6154 113.413ZM42.8424 113.413L43.0431 113.015L42.6416 112.418L42.4409 112.816L42.8424 113.413ZM41.8386 113.214L42.0394 112.816L41.8386 112.418L41.6379 112.816L41.8386 113.214ZM43.4446 113.214L43.8461 112.617L43.6454 112.418L43.2439 113.015L43.4446 113.214ZM40.8349 113.214L41.0356 112.816L40.6341 112.219L40.4334 112.617L40.8349 113.214ZM44.6491 113.214L44.8499 112.816L44.4484 112.219L44.2476 112.617L44.6491 113.214ZM37.0206 113.214L36.6191 112.418V112.617L37.0206 113.214ZM49.4671 113.214L49.8686 112.816L49.4671 112.219L49.0656 112.617L49.4671 113.214ZM39.0281 113.015L39.2289 112.617L38.8274 112.02L38.6266 112.418L39.0281 113.015ZM46.4559 113.015L46.6566 112.617L46.2551 112.02L46.0544 112.418L46.4559 113.015ZM39.8311 113.015L40.0319 112.617L39.8311 112.219L39.6304 112.617L39.8311 113.015ZM45.4521 113.015L45.8536 112.418L45.6529 112.219L45.2514 112.816L45.4521 113.015ZM36.0168 113.015L36.2176 112.617L36.0168 112.418L35.8161 112.816L36.0168 113.015ZM35.4146 112.816L35.6154 112.617L35.2138 112.02L35.0131 112.219L35.4146 112.816ZM38.0244 112.816L38.2251 112.418L38.0244 112.02L37.8236 112.418L38.0244 112.816ZM47.2589 112.816L47.6604 112.219L47.4596 112.02L47.2589 112.816ZM37.2214 112.816L37.4221 112.418L37.0206 111.821L36.8199 112.219L37.2214 112.816ZM48.2626 112.816L48.4634 112.418L48.2626 111.821L48.0619 112.219L48.2626 112.816ZM43.2439 112.617L43.6454 112.02L43.2439 111.423L42.8424 112.02L43.2439 112.617ZM34.4108 112.617L34.6116 112.219L34.4108 112.02L34.2101 112.418L34.4108 112.617ZM41.2364 112.418L41.4371 112.02L41.2364 111.423L41.0356 111.821L41.2364 112.418ZM45.0506 112.418L45.4521 111.821L45.0506 111.423L44.6491 112.02L45.0506 112.418ZM42.2401 112.418L42.4409 112.02L42.2401 111.622L42.0394 112.02L42.2401 112.418ZM49.8686 112.418L50.0694 112.02L49.8686 111.423L49.6679 111.821L49.8686 112.418ZM35.6154 112.418L35.8161 112.02L35.4146 111.423L35.2138 111.821L35.6154 112.418ZM39.4296 112.418L39.6304 112.02L39.4296 111.423L39.2289 111.821L39.4296 112.418ZM46.8574 112.418L47.2589 111.821L46.8574 111.224L46.4559 111.821L46.8574 112.418ZM40.4334 112.219L40.6341 111.821L40.4334 111.423L40.2326 111.821L40.4334 112.219ZM44.0469 112.219L44.2476 111.821V111.622L44.0469 112.02V112.219ZM36.4184 112.219L36.2176 111.821V112.02L36.4184 112.219ZM38.4259 112.219L38.6266 111.821L38.4259 111.423L38.2251 111.821L38.4259 112.219ZM45.8536 112.219L46.0544 111.821L45.8536 111.622L45.6529 112.02L45.8536 112.219ZM37.6229 112.219L37.8236 111.821L37.4221 111.224L37.2214 111.423L37.6229 112.219ZM48.6641 112.219L49.0656 111.821L48.6641 111.224L48.2626 111.423L48.6641 112.219ZM34.8123 112.02L35.0131 111.821L34.8123 111.622L34.6116 111.821L34.8123 112.02ZM36.6191 111.821L36.8199 111.423L36.6191 111.224L36.4184 111.622L36.6191 111.821ZM42.6416 111.821L43.0431 111.224L42.8424 110.827L42.4409 111.423L42.6416 111.821ZM41.8386 111.821L42.0394 111.423L41.6379 110.827L41.4371 111.224L41.8386 111.821ZM43.8461 111.821L44.0469 111.423L43.6454 110.827L43.4446 111.224L43.8461 111.821ZM36.0168 111.821L35.6154 111.026V111.224L36.0168 111.821ZM50.2701 111.821L50.4709 111.423L50.2701 110.827L50.0694 111.224L50.2701 111.821ZM40.0319 111.622L40.2326 111.224L39.8311 110.628L39.6304 111.026L40.0319 111.622ZM45.6529 111.622L45.8536 111.224L45.4521 110.628L45.2514 111.026L45.6529 111.622ZM40.8349 111.622L41.0356 111.224L40.8349 110.827L40.6341 111.224L40.8349 111.622ZM44.4484 111.622L44.8499 111.026L44.6491 110.827L44.4484 111.423V111.622ZM35.0131 111.622L35.2138 111.224L35.0131 111.026V111.423V111.622ZM39.0281 111.622L39.2289 111.224L39.0281 110.827L38.8274 111.224L39.0281 111.622ZM46.2551 111.622L46.6566 111.026L46.4559 110.827L46.2551 111.224V111.622ZM38.0244 111.423L38.2251 111.026L37.8236 110.429L37.6229 110.827L38.0244 111.423ZM47.4596 111.423L47.6604 111.026L47.2589 110.429L47.0581 110.827L47.4596 111.423ZM36.2176 111.423L36.4184 111.026L36.2176 110.429L36.0168 110.827L36.2176 111.423ZM49.2664 111.423L49.4671 111.026L49.0656 110.429L48.8649 110.827L49.2664 111.423ZM37.0206 111.224L37.2214 110.827L37.0206 110.628L36.8199 111.026L37.0206 111.224ZM48.2626 111.224L48.6641 110.827L48.4634 110.628L48.2626 111.224ZM42.2401 111.224L42.6416 110.628L42.2401 110.031L41.8386 110.628L42.2401 111.224ZM44.2476 111.224L44.6491 110.628L44.2476 110.031L43.8461 110.628L44.2476 111.224ZM34.8123 111.026L35.0131 110.628L34.6116 110.031L34.4108 110.429L34.8123 111.026ZM40.4334 111.026L40.6341 110.628L40.2326 110.031L40.0319 110.429L40.4334 111.026ZM46.0544 111.026L46.4559 110.429L46.0544 109.832L45.6529 110.429L46.0544 111.026ZM41.2364 111.026L41.4371 110.628L41.2364 110.23L41.0356 110.628L41.2364 111.026ZM43.2439 111.026L43.4446 110.628L43.2439 110.23L43.0431 110.628L43.2439 111.026ZM35.4146 110.827V110.429V110.628V110.827ZM39.4296 110.827L39.6304 110.429L39.4296 110.031L39.2289 110.429L39.4296 110.827ZM45.0506 110.827L45.2514 110.429L45.0506 110.23L44.8499 110.628L45.0506 110.827ZM38.4259 110.827L38.6266 110.429L38.2251 109.832L38.0244 110.23L38.4259 110.827ZM47.8611 110.827L48.2626 110.429L47.8611 109.832L47.4596 110.23L47.8611 110.827ZM36.8199 110.827L37.0206 110.429L36.6191 109.832L36.4184 110.23L36.8199 110.827ZM49.6679 110.827L49.8686 110.429L49.4671 109.832L49.2664 110.23L49.6679 110.827ZM37.4221 110.628L37.6229 110.23L37.4221 110.031L37.2214 110.429L37.4221 110.628ZM46.8574 110.628L47.0581 110.23L46.8574 110.031L46.6566 110.429L46.8574 110.628ZM35.8161 110.429L36.0168 110.031L35.8161 109.832L35.6154 110.23L35.8161 110.429ZM48.6641 110.429L48.8649 110.031L48.6641 109.832V110.429ZM35.2138 110.429L34.8123 109.633V109.832L35.2138 110.429ZM40.8349 110.429L41.0356 110.031L40.6341 109.434L40.4334 109.832L40.8349 110.429ZM44.6491 110.429L44.8499 110.031L44.6491 109.434L44.2476 109.832L44.6491 110.429ZM41.6379 110.23L42.0394 109.633L41.8386 109.434L41.4371 110.031L41.6379 110.23ZM43.6454 110.23L44.0469 109.633L43.6454 109.434L43.2439 110.031L43.6454 110.23ZM42.8424 110.23L43.0431 109.832L42.6416 109.235L42.4409 109.633L42.8424 110.23ZM39.8311 110.23L40.0319 109.832L39.8311 109.434L39.6304 109.832L39.8311 110.23ZM45.4521 110.23L45.8536 109.633L45.6529 109.434L45.2514 110.031L45.4521 110.23ZM46.6566 110.23L46.8574 109.832L46.4559 109.235L46.2551 109.633L46.6566 110.23ZM39.0281 110.23L39.2289 109.832L38.8274 109.235L38.6266 109.633L39.0281 110.23ZM37.2214 110.031L37.4221 109.633L37.0206 109.036L36.8199 109.434L37.2214 110.031ZM48.4634 110.031L48.6641 109.633L48.2626 109.036L48.0619 109.434L48.4634 110.031ZM35.4146 110.031L35.6154 109.633L35.2138 109.036L35.0131 109.434L35.4146 110.031ZM50.0694 110.031L50.2701 109.633L49.8686 109.036L49.6679 109.434L50.0694 110.031ZM38.0244 110.031L38.2251 109.633L38.0244 109.434L37.8236 109.832L38.0244 110.031ZM47.2589 110.031L47.6604 109.633L47.4596 109.434L47.0581 109.832L47.2589 110.031ZM36.2176 109.832L36.4184 109.434L36.2176 109.235L36.0168 109.633L36.2176 109.832ZM49.0656 109.832L49.2664 109.434L49.0656 109.235V109.832ZM41.2364 109.633L41.6379 109.036L41.2364 108.439L40.8349 109.036L41.2364 109.633ZM45.0506 109.633L45.4521 109.036L45.0506 108.439L44.6491 109.036L45.0506 109.633ZM43.2439 109.633L43.6454 109.036L43.2439 108.439L42.8424 109.036L43.2439 109.633ZM39.4296 109.434L39.6304 109.036L39.2289 108.439L39.0281 108.837L39.4296 109.434ZM47.0581 109.434L47.4596 109.036L47.0581 108.439L46.6566 108.837L47.0581 109.434ZM40.2326 109.434L40.4334 109.036L40.2326 108.638L40.0319 109.036L40.2326 109.434ZM44.2476 109.434L44.4484 109.036L44.2476 108.638L44.0469 109.036L44.2476 109.434ZM37.6229 109.434L37.8236 109.036L37.4221 108.439L37.2214 108.837L37.6229 109.434ZM48.8649 109.434L49.0656 109.036L48.6641 108.439L48.4634 108.837L48.8649 109.434ZM42.2401 109.434L42.4409 109.036L42.2401 108.638L42.0394 109.036L42.2401 109.434ZM35.8161 109.434L36.0168 109.036L35.6154 108.439L35.4146 108.837L35.8161 109.434ZM38.4259 109.235L38.6266 108.837L38.4259 108.638L38.2251 109.036L38.4259 109.235ZM46.0544 109.235L46.2551 108.837V108.638L46.0544 109.036V109.235ZM36.6191 109.235L36.8199 108.837L36.6191 108.638L36.4184 109.036L36.6191 109.235ZM47.8611 109.235L48.0619 108.837L47.8611 108.638L47.6604 109.036L47.8611 109.235ZM34.8123 109.235L35.0131 108.837V108.638L34.8123 109.235ZM49.4671 109.235L49.6679 108.837L49.4671 108.638V109.235ZM40.6341 108.837L41.0356 108.24L40.8349 107.842L40.4334 108.439L40.6341 108.837ZM44.6491 108.837L45.0506 108.24L44.8499 107.842L44.2476 108.439L44.6491 108.837ZM43.6454 108.837L43.8461 108.439L43.4446 107.842L43.2439 108.24L43.6454 108.837ZM41.8386 108.837L42.0394 108.439L41.6379 107.842L41.4371 108.24L41.8386 108.837ZM39.8311 108.837L40.0319 108.439L39.6304 107.842L39.4296 108.24L39.8311 108.837ZM45.6529 108.837L45.8536 108.439L45.4521 107.842L45.2514 108.24L45.6529 108.837ZM42.6416 108.837L43.0431 108.24L42.8424 107.842L42.4409 108.439L42.6416 108.837ZM36.2176 108.837L36.4184 108.439L36.2176 107.842L36.0168 108.24L36.2176 108.837ZM49.2664 108.837L49.4671 108.439L49.0656 107.842L48.8649 108.24L49.2664 108.837ZM38.0244 108.837L38.2251 108.439L37.8236 107.842L37.6229 108.24L38.0244 108.837ZM47.4596 108.837L47.6604 108.439L47.2589 107.842L47.0581 108.24L47.4596 108.837ZM38.8274 108.638L39.0281 108.24L38.8274 108.041L38.6266 108.439L38.8274 108.638ZM46.4559 108.638L46.8574 108.24L46.6566 108.041L46.2551 108.439L46.4559 108.638ZM37.0206 108.638L37.2214 108.24L37.0206 108.041L36.8199 108.439L37.0206 108.638ZM48.2626 108.638L48.4634 108.24L48.2626 108.041L48.0619 108.439L48.2626 108.638ZM35.4146 108.638L35.6154 108.24V108.041L35.4146 108.638ZM50.0694 108.638L50.2701 108.24L50.0694 108.041V108.638ZM42.2401 108.24L42.6416 107.643L42.2401 107.046L41.8386 107.643L42.2401 108.24ZM44.0469 108.24L44.4484 107.643L44.2476 107.046L43.8461 107.643L44.0469 108.24ZM40.2326 108.24L40.6341 107.643L40.2326 107.046L39.8311 107.643L40.2326 108.24ZM46.2551 108.24L46.6566 107.842L46.2551 107.245L45.8536 107.643L46.2551 108.24ZM35.0131 108.24L35.2138 107.842L34.8123 107.245L34.6116 107.643L35.0131 108.24ZM36.6191 108.041L36.8199 107.643L36.4184 107.046V107.444L36.6191 108.041ZM49.6679 108.041L49.8686 107.643L49.4671 107.046L49.2664 107.444L49.6679 108.041ZM38.4259 108.041L38.6266 107.643L38.2251 107.046L38.0244 107.444L38.4259 108.041ZM47.8611 108.041L48.0619 107.643L47.6604 107.046V107.444L47.8611 108.041ZM41.2364 108.041L41.4371 107.643L41.2364 107.245L41.0356 107.643L41.2364 108.041ZM43.2439 108.041L43.4446 107.643L43.2439 107.245L43.0431 107.643L43.2439 108.041ZM39.2289 108.041L39.4296 107.643L39.2289 107.444L39.0281 107.842L39.2289 108.041ZM45.2514 108.041L45.4521 107.643L45.2514 107.245L45.0506 107.643L45.2514 108.041ZM35.8161 107.842L36.0168 107.444V107.245L35.8161 107.842ZM48.6641 107.842L48.8649 107.444L48.6641 107.245L48.4634 107.643L48.6641 107.842ZM37.4221 107.842L37.6229 107.444L37.4221 107.245L37.2214 107.643L37.4221 107.842ZM47.0581 107.842L47.2589 107.444L47.0581 107.245L46.8574 107.643L47.0581 107.842ZM35.4146 107.643L35.6154 107.245L35.2138 106.648L35.0131 107.046L35.4146 107.643ZM50.0694 107.643L50.2701 107.245L49.8686 106.648L49.6679 107.046L50.0694 107.643ZM37.2214 107.444L37.4221 107.046L37.0206 106.449L36.8199 106.847L37.2214 107.444ZM48.4634 107.444L48.6641 107.046L48.2626 106.449L48.0619 106.847L48.4634 107.444ZM38.8274 107.444L39.0281 107.046L38.6266 106.449L38.4259 106.847L38.8274 107.444ZM46.6566 107.444L46.8574 107.046L46.4559 106.449L46.2551 106.847L46.6566 107.444ZM42.8424 107.444L43.0431 107.046L42.6416 106.449L42.4409 106.847L42.8424 107.444ZM41.6379 107.444L42.0394 106.847L41.8386 106.449L41.4371 107.046L41.6379 107.444ZM43.6454 107.444L44.0469 106.847L43.8461 106.449L43.4446 107.046L43.6454 107.444ZM39.6304 107.245L40.0319 106.648L39.8311 106.449L39.4296 107.046L39.6304 107.245ZM45.6529 107.245L46.0544 106.847L45.8536 106.449L45.4521 106.847L45.6529 107.245ZM40.8349 107.245L41.0356 106.847L40.6341 106.25L40.4334 106.648L40.8349 107.245ZM44.6491 107.245L44.8499 106.847L44.4484 106.25L44.2476 106.648L44.6491 107.245ZM36.2176 107.245L36.4184 106.847V106.648L36.2176 107.245ZM49.0656 107.245L49.2664 106.847L49.0656 106.648L48.8649 107.046L49.0656 107.245ZM37.8236 107.245L38.0244 106.847L37.8236 106.648L37.6229 107.046L37.8236 107.245ZM47.4596 107.245L47.6604 106.847L47.4596 106.648L47.2589 107.046L47.4596 107.245ZM35.8161 106.847L36.0168 106.449L35.6154 105.852L35.4146 106.25L35.8161 106.847ZM37.6229 106.847L37.8236 106.449L37.4221 105.852L37.2214 106.25L37.6229 106.847ZM48.8649 106.847L49.0656 106.449L48.6641 105.852L48.4634 106.25L48.8649 106.847ZM39.2289 106.847L39.6304 106.25L39.2289 105.653L38.8274 106.25L39.2289 106.847ZM47.0581 106.847L47.2589 106.449L46.8574 105.852L46.6566 106.25L47.0581 106.847ZM43.2439 106.847L43.6454 106.25L43.2439 105.454L42.8424 106.051L43.2439 106.847ZM49.4671 106.648L49.6679 106.25L49.4671 106.051L49.2664 106.449L49.4671 106.648ZM41.2364 106.648L41.6379 106.051L41.2364 105.454L40.8349 106.051L41.2364 106.648ZM45.2514 106.648L45.6529 106.25L45.2514 105.653L44.8499 106.051L45.2514 106.648ZM36.6191 106.648L36.8199 106.25V106.051L36.6191 106.648ZM47.8611 106.648L48.0619 106.25L47.8611 106.051L47.6604 106.449L47.8611 106.648ZM38.4259 106.648L38.6266 106.25L38.4259 106.051L38.2251 106.449L38.4259 106.648ZM46.0544 106.648L46.2551 106.25L46.0544 105.852L45.8536 106.25L46.0544 106.648ZM42.2401 106.648L42.4409 106.25L42.2401 105.653L42.0394 106.051L42.2401 106.648ZM40.2326 106.449L40.4334 106.051L40.2326 105.852L40.0319 106.25L40.2326 106.449ZM44.2476 106.449L44.4484 106.051L44.2476 105.653L44.0469 106.051L44.2476 106.449ZM49.2664 106.25L49.4671 105.852L49.0656 105.255L48.8649 105.653L49.2664 106.25ZM47.4596 106.051L47.6604 105.653L47.2589 105.056L47.0581 105.454L47.4596 106.051ZM37.0206 106.051L37.2214 105.653V105.454L37.0206 106.051ZM48.2626 106.051L48.4634 105.653L48.2626 105.454L48.0619 105.852L48.2626 106.051ZM38.8274 105.852L39.2289 105.255L39.0281 105.056L38.6266 105.653L38.8274 105.852ZM46.4559 105.852L46.6566 105.454L46.4559 105.056L46.2551 105.454L46.4559 105.852ZM45.6529 105.852L45.8536 105.454L45.4521 104.857L45.2514 105.255L45.6529 105.852ZM42.6416 105.852L43.0431 105.255L42.8424 104.857L42.4409 105.454L42.6416 105.852ZM41.8386 105.852L42.0394 105.454L41.6379 104.857L41.4371 105.255L41.8386 105.852ZM43.8461 105.852L44.0469 105.454L43.6454 104.857L43.4446 105.255L43.8461 105.852ZM40.6341 105.852L41.0356 105.255L40.8349 105.056L40.4334 105.454L40.6341 105.852ZM44.6491 105.852L45.0506 105.454L44.8499 105.056L44.4484 105.454L44.6491 105.852Z" fill="white" fill-opacity="0.2627"/>
<path d="M42.4408 106.648C46.6566 106.648 50.2701 105.852 50.2701 104.858C50.2701 103.863 46.8573 103.067 42.4408 103.067C38.2251 103.067 34.6116 103.863 34.6116 104.858C34.6116 105.852 38.0243 106.648 42.4408 106.648Z" fill="url(#paint32_linear_2611_7253)"/>
<path d="M42.4408 102.868C40.2326 102.868 38.4258 103.067 37.0206 103.465C35.6153 103.863 34.6116 104.26 34.6116 104.857C34.6116 105.454 35.6153 105.852 37.0206 106.25C38.4258 106.648 40.4333 106.847 42.4408 106.847C44.6491 106.847 46.4558 106.648 47.8611 106.25C49.2664 105.852 50.2701 105.454 50.2701 104.857C50.2701 104.26 49.2664 103.863 47.8611 103.465C46.4558 103.067 44.4483 102.868 42.4408 102.868ZM42.4408 103.266C44.6491 103.266 46.4558 103.465 47.8611 103.863C48.4634 104.062 49.0656 104.26 49.4671 104.459C49.8686 104.658 50.0694 104.857 50.0694 105.056C50.0694 105.255 49.8686 105.454 49.4671 105.653C49.0656 105.852 48.4634 106.051 47.8611 106.25C46.4558 106.648 44.4483 106.847 42.4408 106.847C40.2326 106.847 38.4258 106.648 37.0206 106.25C36.4183 106.051 35.8161 105.852 35.4146 105.653C35.0131 105.454 34.8123 105.255 34.8123 105.056C34.8123 104.857 35.0131 104.658 35.4146 104.459C35.8161 104.26 36.4183 104.062 37.0206 103.863C38.4258 103.465 40.2326 103.266 42.4408 103.266Z" fill="url(#paint33_linear_2611_7253)"/>
<path d="M35.2139 105.057H35.0131C36.0169 100.878 35.6154 96.6999 34.8124 92.5215H35.0131C35.8161 96.5009 36.2176 100.679 35.2139 105.057Z" fill="#B2B2B2"/>
<path d="M49.6679 105.255H49.8687C48.8649 101.077 49.2664 96.6996 50.0694 92.3223H49.8687C49.0657 96.5007 48.6642 100.878 49.6679 105.255Z" fill="#B2B2B2"/>
<path d="M37.4221 106.051H37.2214C38.4259 101.077 37.8236 96.1027 37.0206 91.1284H37.2214C38.0244 96.1027 38.4259 101.077 37.4221 106.051Z" fill="#B2B2B2"/>
<path d="M47.4596 106.051H47.6604C46.6566 101.077 47.0581 96.3019 47.8611 91.3276H47.6604C46.6566 96.1029 46.2551 101.077 47.4596 106.051Z" fill="#B2B2B2"/>
<path d="M44.6491 106.449H44.8499C43.8461 101.276 44.2476 96.1029 45.0506 90.9297H44.8499C44.0469 96.1029 43.6454 101.276 44.6491 106.449Z" fill="#B2B2B2"/>
<path d="M40.4334 106.449H40.2326C41.2364 101.276 40.8349 96.1029 40.0319 90.9297H40.2326C41.0356 95.904 41.4371 101.276 40.4334 106.449Z" fill="#B2B2B2"/>
<path d="M35.0131 105.653C33.4071 108.24 33.2063 109.633 35.0131 110.031C36.4183 109.832 36.0168 107.046 35.0131 105.653Z" fill="url(#paint34_linear_2611_7253)"/>
<path d="M35.0131 105.852L34.2101 105.255L34.8123 104.857H35.2138L35.0131 105.852Z" fill="url(#paint35_linear_2611_7253)"/>
<path d="M36.2177 106.051C34.6117 108.638 34.4109 110.031 36.2177 110.429C37.6229 110.031 37.2214 107.444 36.2177 106.051Z" fill="url(#paint36_linear_2611_7253)"/>
<path d="M36.2176 106.051L35.4146 105.653L36.0168 105.255H36.4183L36.2176 106.051Z" fill="url(#paint37_linear_2611_7253)"/>
<path d="M50.0695 105.455C51.6755 108.041 51.8762 109.434 50.0695 109.832C48.6642 109.434 48.865 106.648 50.0695 105.455Z" fill="url(#paint38_linear_2611_7253)"/>
<path d="M50.0694 105.455L50.8724 105.057L50.2702 104.659H49.8687L50.0694 105.455Z" fill="url(#paint39_linear_2611_7253)"/>
<path d="M48.8649 105.653C50.4709 108.24 50.6716 109.633 48.8649 110.031C47.4596 109.832 47.8611 107.046 48.8649 105.653Z" fill="url(#paint40_linear_2611_7253)"/>
<path d="M48.8649 105.853L49.6679 105.455L49.0657 105.057H48.6642L48.8649 105.853Z" fill="url(#paint41_linear_2611_7253)"/>
<path d="M20.1576 25.4683V24.6724C20.3583 17.5094 22.1651 11.5403 25.5778 6.96397H25.9793C20.9606 6.96397 16.3433 13.729 12.9306 22.8816L12.3283 24.8713L12.5291 23.0806C13.1313 17.9074 15.3396 13.1321 18.5516 9.35162L19.1538 8.55573L17.1463 9.15265C13.1313 10.3465 9.51781 15.5197 6.50655 22.4837L5.9043 24.2744C7.5103 17.5094 10.9231 10.9434 18.3508 5.57117C20.9606 4.17837 22.3658 3.38249 24.3733 3.18352H24.9756C27.1838 1.39278 29.1914 1.19381 30.9981 1.59175L31.3996 1.79072C33.0056 0.795871 34.8124 0.5969 36.6191 1.19381L37.2214 0.795871C38.6266 -1.25542e-05 40.2326 -0.198983 41.6379 -1.2584e-05L42.6416 0.198958L42.0394 0.397929C37.8236 2.18867 34.0094 8.55573 32.0019 16.9125L31.6004 19.1012V18.7032C32.0019 14.5249 32.6041 10.5454 33.8086 6.96397L34.6116 4.97426L33.6079 5.17323C28.3884 7.16294 22.7673 14.5249 20.1576 24.8713V25.4683Z" fill="#F5C748" fill-opacity="0.3176"/>
<path d="M42.4408 98.0927C40.4333 98.0927 38.8273 98.0927 37.6228 97.8938C36.4183 97.6948 35.4146 97.4958 35.4146 97.2969C35.4146 97.0979 36.4183 96.8989 37.6228 96.6999C38.8273 96.501 40.6341 96.501 42.4408 96.501C44.4483 96.501 46.0543 96.501 47.2588 96.6999C48.4633 96.8989 49.4671 97.0979 49.4671 97.2969C49.4671 97.4958 48.4633 97.6948 47.2588 97.8938C46.0543 98.0927 44.2476 98.0927 42.4408 98.0927ZM42.4408 98.0927C44.2476 98.0927 46.0543 98.0927 47.2588 97.8938C47.8611 97.8938 48.4633 97.6948 48.6641 97.6948C49.0656 97.6948 49.0656 97.4958 49.0656 97.4958C49.0656 97.4958 48.8648 97.2969 48.6641 97.2969C48.2626 97.2969 47.8611 97.0979 47.2588 97.0979C46.0543 96.8989 44.2476 96.8989 42.4408 96.8989C40.6341 96.8989 38.8273 96.8989 37.6228 97.0979C37.0206 97.0979 36.4183 97.2969 36.2176 97.2969C35.8161 97.2969 35.816 97.4958 35.816 97.4958C35.816 97.4958 36.0168 97.6948 36.2176 97.6948C36.6191 97.6948 37.0206 97.8938 37.6228 97.8938C38.8273 97.8938 40.4333 98.0927 42.4408 98.0927Z" fill="#999999"/>
<defs>
<linearGradient id="paint0_linear_2611_7253" x1="37.2685" y1="43.0457" x2="16.7069" y2="45.008" gradientUnits="userSpaceOnUse">
<stop stop-color="#8C1400"/>
<stop offset="1" stop-color="#FF5300"/>
</linearGradient>
<linearGradient id="paint1_linear_2611_7253" x1="10.935" y1="45.4047" x2="16.6657" y2="44.8906" gradientUnits="userSpaceOnUse">
<stop stop-color="#FF7F00"/>
<stop offset="1" stop-color="#FFA300"/>
</linearGradient>
<linearGradient id="paint2_linear_2611_7253" x1="30.8541" y1="44.313" x2="11.4538" y2="46.9554" gradientUnits="userSpaceOnUse">
<stop stop-color="#8C1400"/>
<stop offset="1" stop-color="#FF5300"/>
</linearGradient>
<linearGradient id="paint3_linear_2611_7253" x1="36.6067" y1="45.9958" x2="7.09858" y2="46.9801" gradientUnits="userSpaceOnUse">
<stop stop-color="#8C1400"/>
<stop offset="1" stop-color="#FF5300"/>
</linearGradient>
<linearGradient id="paint4_linear_2611_7253" x1="53.4936" y1="42.3372" x2="32.9605" y2="42.3372" gradientUnits="userSpaceOnUse">
<stop stop-color="#8C1400"/>
<stop offset="1" stop-color="#FF5300"/>
</linearGradient>
<linearGradient id="paint5_linear_2611_7253" x1="47.2107" y1="42.158" x2="24.2891" y2="43.6264" gradientUnits="userSpaceOnUse">
<stop stop-color="#8C1400"/>
<stop offset="1" stop-color="#FF5300"/>
</linearGradient>
<linearGradient id="paint6_linear_2611_7253" x1="59.0585" y1="43.4891" x2="40.5681" y2="42.0049" gradientUnits="userSpaceOnUse">
<stop stop-color="#8C1400"/>
<stop offset="1" stop-color="#FF5300"/>
</linearGradient>
<linearGradient id="paint7_linear_2611_7253" x1="64.6467" y1="45.6183" x2="48.0012" y2="42.6344" gradientUnits="userSpaceOnUse">
<stop stop-color="#8C1400"/>
<stop offset="1" stop-color="#FF5300"/>
</linearGradient>
<linearGradient id="paint8_linear_2611_7253" x1="74.3433" y1="48.3793" x2="51.2308" y2="42.9257" gradientUnits="userSpaceOnUse">
<stop stop-color="#8C1400"/>
<stop offset="1" stop-color="#FF5300"/>
</linearGradient>
<linearGradient id="paint9_linear_2611_7253" x1="87.827" y1="51.7999" x2="53.9864" y2="43.849" gradientUnits="userSpaceOnUse">
<stop stop-color="#8C1400"/>
<stop offset="1" stop-color="#FF5300"/>
</linearGradient>
<linearGradient id="paint10_linear_2611_7253" x1="99.2247" y1="54.847" x2="55.8292" y2="45.2403" gradientUnits="userSpaceOnUse">
<stop stop-color="#8C1400"/>
<stop offset="1" stop-color="#FF5300"/>
</linearGradient>
<linearGradient id="paint11_linear_2611_7253" x1="57.6889" y1="89.5184" x2="41.1414" y2="88.4034" gradientUnits="userSpaceOnUse">
<stop stop-color="#996600"/>
<stop offset="1" stop-color="#F5C748"/>
</linearGradient>
<linearGradient id="paint12_linear_2611_7253" x1="27.3407" y1="90.9213" x2="37.6459" y2="88.8015" gradientUnits="userSpaceOnUse">
<stop stop-color="#996600"/>
<stop offset="1" stop-color="#F5C748"/>
</linearGradient>
<linearGradient id="paint13_linear_2611_7253" x1="42.3981" y1="95.7627" x2="42.3981" y2="89.3461" gradientUnits="userSpaceOnUse">
<stop stop-color="#F5C748"/>
<stop offset="1" stop-color="#996600"/>
</linearGradient>
<linearGradient id="paint14_linear_2611_7253" x1="19.6918" y1="42.5579" x2="22.8013" y2="42.6513" gradientUnits="userSpaceOnUse">
<stop stop-color="#FF7F00"/>
<stop offset="1" stop-color="#FFA300"/>
</linearGradient>
<linearGradient id="paint15_linear_2611_7253" x1="41.1015" y1="40.5662" x2="50.4139" y2="40.6755" gradientUnits="userSpaceOnUse">
<stop stop-color="#FFA300"/>
<stop offset="1" stop-color="#8C1400"/>
</linearGradient>
<linearGradient id="paint16_linear_2611_7253" x1="48.0233" y1="41.097" x2="59.9976" y2="41.9456" gradientUnits="userSpaceOnUse">
<stop stop-color="#FFA300"/>
<stop offset="1" stop-color="#8C1400"/>
</linearGradient>
<linearGradient id="paint17_linear_2611_7253" x1="54.0315" y1="40.8263" x2="68.6344" y2="42.2132" gradientUnits="userSpaceOnUse">
<stop stop-color="#FFA300"/>
<stop offset="1" stop-color="#8C1400"/>
</linearGradient>
<linearGradient id="paint18_linear_2611_7253" x1="61.5918" y1="39.1252" x2="76.1542" y2="40.7256" gradientUnits="userSpaceOnUse">
<stop stop-color="#FFA300"/>
<stop offset="1" stop-color="#8C1400"/>
</linearGradient>
<linearGradient id="paint19_linear_2611_7253" x1="36.6352" y1="40.364" x2="33.0138" y2="40.1981" gradientUnits="userSpaceOnUse">
<stop stop-color="#FF5300"/>
<stop offset="1" stop-color="#FFA300"/>
</linearGradient>
<linearGradient id="paint20_linear_2611_7253" x1="26.4637" y1="42.4025" x2="24.1091" y2="42.5708" gradientUnits="userSpaceOnUse">
<stop stop-color="#FF5300"/>
<stop offset="1" stop-color="#FFA300"/>
</linearGradient>
<linearGradient id="paint21_linear_2611_7253" x1="18.6654" y1="42.0332" x2="16.4211" y2="42.1749" gradientUnits="userSpaceOnUse">
<stop stop-color="#FF5300"/>
<stop offset="1" stop-color="#FFA300"/>
</linearGradient>
<linearGradient id="paint22_linear_2611_7253" x1="11.5175" y1="43.4547" x2="9.2727" y2="43.6143" gradientUnits="userSpaceOnUse">
<stop stop-color="#FF5300"/>
<stop offset="1" stop-color="#FFA300"/>
</linearGradient>
<linearGradient id="paint23_linear_2611_7253" x1="66.7128" y1="63.3776" x2="62.32" y2="72.5748" gradientUnits="userSpaceOnUse">
<stop stop-color="#FF7F00"/>
<stop offset="1" stop-color="#FFA300"/>
</linearGradient>
<linearGradient id="paint24_linear_2611_7253" x1="64.7949" y1="57.406" x2="58.498" y2="70.1986" gradientUnits="userSpaceOnUse">
<stop stop-color="#FF7F00"/>
<stop offset="1" stop-color="#FFA300"/>
</linearGradient>
<linearGradient id="paint25_linear_2611_7253" x1="23.257" y1="89.8331" x2="49.3035" y2="89.5782" gradientUnits="userSpaceOnUse">
<stop stop-color="white"/>
<stop offset="1" stop-color="#F5C748"/>
</linearGradient>
<linearGradient id="paint26_linear_2611_7253" x1="30.0264" y1="92.2466" x2="46.3338" y2="92.3783" gradientUnits="userSpaceOnUse">
<stop stop-color="white"/>
<stop offset="1" stop-color="#F5C748"/>
</linearGradient>
<linearGradient id="paint27_linear_2611_7253" x1="20.1858" y1="22.7534" x2="19.8839" y2="71.1105" gradientUnits="userSpaceOnUse">
<stop stop-color="white"/>
<stop offset="1" stop-color="#CCCCCC"/>
</linearGradient>
<linearGradient id="paint28_linear_2611_7253" x1="65.2546" y1="23.7071" x2="65.5453" y2="71.0207" gradientUnits="userSpaceOnUse">
<stop stop-color="white"/>
<stop offset="1" stop-color="#CCCCCC"/>
</linearGradient>
<linearGradient id="paint29_linear_2611_7253" x1="56.3038" y1="18.6075" x2="56.9447" y2="70.3364" gradientUnits="userSpaceOnUse">
<stop stop-color="white"/>
<stop offset="1" stop-color="#CCCCCC"/>
</linearGradient>
<linearGradient id="paint30_linear_2611_7253" x1="34.1416" y1="110.186" x2="38.0886" y2="110.273" gradientUnits="userSpaceOnUse">
<stop stop-color="#F5C748"/>
<stop offset="1" stop-color="#996600"/>
</linearGradient>
<linearGradient id="paint31_linear_2611_7253" x1="52.4603" y1="109.229" x2="46.7447" y2="110.034" gradientUnits="userSpaceOnUse">
<stop stop-color="#F5C748"/>
<stop offset="1" stop-color="#996600"/>
</linearGradient>
<linearGradient id="paint32_linear_2611_7253" x1="42.3983" y1="101.455" x2="42.3983" y2="107.872" gradientUnits="userSpaceOnUse">
<stop stop-color="#F5C748"/>
<stop offset="1" stop-color="#996600"/>
</linearGradient>
<linearGradient id="paint33_linear_2611_7253" x1="30.0252" y1="104.965" x2="46.3321" y2="104.837" gradientUnits="userSpaceOnUse">
<stop stop-color="white"/>
<stop offset="1" stop-color="#F5C748"/>
</linearGradient>
<linearGradient id="paint34_linear_2611_7253" x1="33.2599" y1="107.671" x2="35.6556" y2="108.056" gradientUnits="userSpaceOnUse">
<stop stop-color="white"/>
<stop offset="1" stop-color="#7F7F7F"/>
</linearGradient>
<linearGradient id="paint35_linear_2611_7253" x1="34.4375" y1="105.275" x2="35.2967" y2="105.461" gradientUnits="userSpaceOnUse">
<stop stop-color="white"/>
<stop offset="1" stop-color="#999999"/>
</linearGradient>
<linearGradient id="paint36_linear_2611_7253" x1="34.4145" y1="107.962" x2="36.813" y2="108.347" gradientUnits="userSpaceOnUse">
<stop stop-color="white"/>
<stop offset="1" stop-color="#7F7F7F"/>
</linearGradient>
<linearGradient id="paint37_linear_2611_7253" x1="35.5922" y1="105.563" x2="36.457" y2="105.751" gradientUnits="userSpaceOnUse">
<stop stop-color="white"/>
<stop offset="1" stop-color="#999999"/>
</linearGradient>
<linearGradient id="paint38_linear_2611_7253" x1="47.9489" y1="105.095" x2="51.0677" y2="109.163" gradientUnits="userSpaceOnUse">
<stop stop-color="white"/>
<stop offset="1" stop-color="#7F7F7F"/>
</linearGradient>
<linearGradient id="paint39_linear_2611_7253" x1="50.5828" y1="104.939" x2="49.7215" y2="105.128" gradientUnits="userSpaceOnUse">
<stop stop-color="white"/>
<stop offset="1" stop-color="#999999"/>
</linearGradient>
<linearGradient id="paint40_linear_2611_7253" x1="45.156" y1="106.083" x2="50.1873" y2="108.577" gradientUnits="userSpaceOnUse">
<stop stop-color="white"/>
<stop offset="1" stop-color="#7F7F7F"/>
</linearGradient>
<linearGradient id="paint41_linear_2611_7253" x1="49.4306" y1="105.228" x2="48.5678" y2="105.421" gradientUnits="userSpaceOnUse">
<stop stop-color="white"/>
<stop offset="1" stop-color="#999999"/>
</linearGradient>
</defs>
</svg>
