<svg width="68" height="94" viewBox="0 0 68 94" fill="none" xmlns="http://www.w3.org/2000/svg">
<path d="M34.8394 85.5694C33.9999 81.3542 34.4197 77.5605 35.2592 73.3452H34.8394C34.4197 77.1389 33.9999 81.3542 34.8394 85.5694Z" fill="#E5E5E5"/>
<path d="M31.4815 85.5694C32.321 81.3542 31.9013 77.5605 31.0618 73.3452H31.4815C31.9013 77.1389 32.321 81.3542 31.4815 85.5694Z" fill="#E5E5E5"/>
<path d="M37.358 85.5694C36.5185 81.3542 36.9382 77.5605 37.7777 73.3452H37.358C36.9382 77.1389 36.5185 81.3542 37.358 85.5694Z" fill="#E5E5E5"/>
<path d="M29.8024 68.2872L28.5431 68.7087C7.55549 37.9374 1.25919 14.3321 19.7283 2.9509C21.8271 1.2648 23.5061 1.2648 25.1851 1.68633C10.074 13.0675 16.7901 38.359 29.8024 68.2872Z" fill="url(#paint0_linear_2611_7327)"/>
<path d="M28.1234 68.7085C7.55554 37.9372 1.25924 14.3318 19.7284 2.95061C20.5679 2.10756 21.8271 1.68604 22.6667 1.68604C5.87653 10.9596 9.23455 37.5156 28.1234 68.7085Z" fill="url(#paint1_linear_2611_7327)" fill-opacity="0.2627"/>
<path d="M19.7285 2.95068C0.839618 17.2825 11.3334 41.7309 28.5433 68.7085L27.2841 69.1301C10.0742 51.0045 -8.8147 22.3408 14.6915 5.05831C16.7902 3.79373 18.0495 2.95068 19.7285 2.95068Z" fill="url(#paint2_linear_2611_7327)"/>
<path d="M26.8641 69.1299C9.65427 51.0044 -9.23462 22.3407 14.2715 5.05817C14.6913 4.63664 15.5308 4.21512 15.9506 4.21512L16.7901 3.37207C-5.03709 21.0761 10.074 48.8967 26.4444 68.2869L26.8641 69.1299Z" fill="#A4F6FF" fill-opacity="0.1804"/>
<path d="M13.8519 5.47998C-2.51847 18.5472 1.67906 41.3096 27.284 69.1302L25.605 69.5517C-1.25921 45.1033 -8.81476 17.7042 13.8519 5.47998Z" fill="url(#paint3_linear_2611_7327)"/>
<path d="M28.9629 1.26445C20.9876 14.7532 25.6049 40.8878 31.4814 68.2869H34.8394L34.4197 0.842925C32.3209 -0.000124723 30.6419 -0.000124723 28.9629 1.26445Z" fill="url(#paint4_linear_2611_7327)"/>
<path d="M31.4814 68.2872C25.6049 40.8881 20.9876 14.7536 28.9629 1.26479L29.3826 0.843262H29.8024V1.26479C24.3456 14.7536 26.8641 38.359 31.0616 64.072L31.4814 68.2872Z" fill="#A4F6FF" fill-opacity="0.2"/>
<path d="M31.4815 68.2871H29.3827C15.1111 36.6728 10.4938 11.3813 24.7654 1.6862C26.0247 0.843149 27.2839 0.843149 28.963 1.26467C22.6667 14.3319 24.3457 37.9373 31.4815 68.2871Z" fill="url(#paint5_linear_2611_7327)"/>
<path d="M39.4567 1.26445C47.432 14.7532 42.8147 40.8878 36.9382 68.2869H33.5802C33.5802 53.955 33.1604 39.6232 33.1604 24.8698C33.1604 16.8609 33.5802 8.85189 33.9999 0.842925C36.0987 -0.000124723 37.7777 -0.000124723 39.4567 1.26445Z" fill="url(#paint6_linear_2611_7327)"/>
<path d="M36.9382 68.2871H39.037C53.3086 36.6728 57.9259 11.3813 44.074 1.6862C42.8148 0.843149 41.5555 0.843149 39.8765 1.26467C45.753 14.3319 44.074 37.9373 36.9382 68.2871Z" fill="url(#paint7_linear_2611_7327)"/>
<path d="M38.6172 68.2872L40.2962 68.7087C60.8641 37.9374 67.1604 14.3321 48.6913 2.9509C46.5925 1.2648 44.9135 1.2648 43.2345 1.68633C58.3456 13.0675 51.6295 38.359 38.6172 68.2872Z" fill="url(#paint8_linear_2611_7327)"/>
<path d="M48.6914 2.95068C67.5803 17.2825 57.0865 41.7309 40.2964 68.7085L41.5556 69.1301C58.7655 51.0045 77.2347 22.3408 54.1482 5.05831C52.0495 3.37221 50.3705 2.95068 48.6914 2.95068Z" fill="url(#paint9_linear_2611_7327)"/>
<path d="M54.1482 5.47998C70.5185 18.5472 66.321 41.3096 40.7161 69.1302L42.3951 69.5517C69.679 45.1033 76.8148 17.7042 54.1482 5.47998Z" fill="url(#paint10_linear_2611_7327)"/>
<path d="M27.7038 74.61C27.2841 72.9239 26.4446 70.8163 25.1853 69.1302C28.1236 67.4441 30.6421 67.0226 33.5804 66.6011H34.0001H34.4199C36.9384 66.6011 39.8767 67.4441 42.3952 69.1302C41.5557 70.8163 40.2964 72.5024 39.8767 74.61C38.1976 73.767 36.5186 73.3455 34.8396 73.3455H34.4199H34.0001H33.5804H33.1606C31.0618 73.767 29.3828 74.1885 27.7038 74.61Z" fill="url(#paint11_linear_2611_7327)"/>
<path d="M31.9013 67.0225C29.8025 67.444 27.7037 67.8655 25.605 69.5516C26.4445 71.2377 27.7037 72.9238 28.1235 75.0314C29.8025 74.1884 31.4815 73.7669 33.1605 73.7669L31.9013 67.0225Z" fill="url(#paint12_linear_2611_7327)"/>
<path d="M33.9999 73.3452C37.3579 73.3452 40.2962 74.1883 40.2962 74.6098C40.2962 75.4528 37.3579 75.8744 33.9999 75.8744C30.6419 75.8744 27.7036 75.0313 27.7036 74.6098C27.7036 73.7667 30.6419 73.3452 33.9999 73.3452Z" fill="url(#paint13_linear_2611_7327)"/>
<path d="M42.8149 69.5517C42.3952 69.1302 42.3952 69.5517 42.8149 69.5517L42.3952 69.1302C42.3952 69.1302 42.8149 69.1302 42.8149 69.5517ZM25.1853 69.5517C25.1853 69.1302 25.1853 69.1302 25.6051 69.1302L25.1853 69.5517C25.6051 69.1302 25.1853 69.1302 25.1853 69.5517ZM41.9754 69.1302L41.5557 68.7087C41.9754 68.7087 41.9754 68.7087 41.9754 69.1302ZM26.0248 69.1302C26.0248 68.7087 26.0248 68.7087 26.4446 68.7087L26.0248 69.1302C26.4446 68.7087 26.0248 68.7087 26.0248 69.1302ZM41.1359 68.7087C41.1359 68.2872 41.1359 68.2872 41.1359 68.7087V68.7087ZM26.8643 68.7087C26.8643 68.2872 26.8643 68.2872 26.8643 68.7087C26.8643 68.2872 27.2841 68.2872 26.8643 68.7087ZM40.2964 68.2872C40.2964 67.8657 40.2964 67.8657 40.2964 68.2872V68.2872ZM27.7038 68.2872C27.7038 67.8657 27.7038 67.8657 27.7038 68.2872V68.2872ZM39.4569 67.8656C39.4569 67.4441 39.4569 67.4441 39.4569 67.8656V67.8656ZM28.5433 67.8656C28.5433 67.4441 28.9631 67.4441 28.5433 67.8656V67.8656ZM37.7779 67.4441C37.3581 67.0226 37.7779 67.0226 37.7779 67.4441V67.4441ZM30.2223 67.4441C30.2223 67.0226 30.6421 67.0226 30.2223 67.4441V67.4441ZM36.9384 67.4441C36.5186 67.0226 36.9384 67.0226 36.9384 67.4441V67.4441ZM31.0618 67.4441C31.0618 67.0226 31.4816 67.0226 31.0618 67.4441H31.4816C31.4816 67.4441 31.4816 67.4441 31.0618 67.4441ZM36.0989 67.0226C35.6791 67.0226 35.6791 67.0226 36.0989 67.0226V67.0226ZM31.9014 67.0226C31.9014 66.6011 32.3211 66.6011 32.3211 66.6011V67.0226C32.3211 67.0226 32.3211 67.0226 31.9014 67.0226ZM35.2594 67.0226H34.8396V66.6011C34.8396 67.0226 34.8396 67.0226 35.2594 67.0226ZM32.7409 67.0226C32.7409 66.6011 33.1606 66.6011 33.1606 66.6011V67.0226C33.1606 67.0226 33.1606 67.0226 32.7409 67.0226ZM34.4199 67.0226H34.0001V66.6011C34.0001 66.6011 34.0001 66.6011 34.4199 67.0226Z" fill="white"/>
<path d="M25.605 69.5517C-1.25921 45.1033 -8.81476 17.7042 13.8519 5.47998C13.4321 5.90151 13.0124 6.32303 12.5926 6.74455H12.1729L11.7531 7.16608C-5.45674 20.2333 1.67906 45.5248 24.7655 68.7087L25.605 69.5517Z" fill="#A4F6FF" fill-opacity="0.2353"/>
<path d="M29.3827 68.2871C15.1111 36.6727 10.4938 11.3812 24.7654 1.68617C24.7654 1.68617 25.1852 1.26465 25.6049 1.26465H26.0247C13.8518 10.5382 16.7901 35.4081 28.963 67.0225L29.3827 68.2871Z" fill="url(#paint14_linear_2611_7327)" fill-opacity="0.2627"/>
<path d="M33.1605 18.9688C19.3086 18.5473 6.2963 21.0764 0.839506 26.1347L0 25.2917C5.87654 19.8119 19.3086 17.2827 33.1605 17.2827C47.0123 17.2827 61.284 20.2334 68 24.8702L67.1605 26.1347C60.4444 21.498 46.5926 18.9688 33.1605 18.9688Z" fill="white" fill-opacity="0.5451"/>
<path d="M39.4568 2.95048C44.4939 22.3406 41.1358 42.9953 36.5186 63.65C37.7778 50.5828 38.6173 9.69488 37.3581 2.52896C38.1976 1.68591 38.6173 1.68591 39.4568 2.95048Z" fill="url(#paint15_linear_2611_7327)" fill-opacity="0.2353"/>
<path d="M46.1731 5.47977C54.1484 17.704 47.8521 41.3094 39.457 61.9641C48.6916 36.6726 47.0126 14.3318 44.4941 5.05824C45.3336 4.63672 45.7533 4.21519 46.1731 5.47977Z" fill="url(#paint16_linear_2611_7327)" fill-opacity="0.2353"/>
<path d="M53.7285 9.27374C61.284 21.0764 55.8272 40.8881 44.4939 59.4352C57.926 34.9867 54.1482 16.8612 51.6297 8.85222C50.3704 5.90155 52.0495 7.16612 53.7285 9.27374Z" fill="url(#paint17_linear_2611_7327)" fill-opacity="0.2353"/>
<path d="M60.0246 11.8025C67.5802 21.9191 62.1234 38.7801 50.79 54.3765C64.2221 33.3003 60.4444 18.5469 57.9258 11.381C56.2468 8.00878 57.0863 8.4303 60.0246 11.8025Z" fill="url(#paint18_linear_2611_7327)" fill-opacity="0.2353"/>
<path d="M28.5433 2.95062C23.5062 22.3408 26.8642 42.9955 31.4815 63.6502C30.2223 50.5829 29.3828 9.69502 30.642 2.10757C29.8025 1.68605 29.3828 1.68605 28.5433 2.95062Z" fill="url(#paint19_linear_2611_7327)" fill-opacity="0.2353"/>
<path d="M20.5678 6.32304C13.0123 19.8118 19.3086 42.1526 27.7036 62.8073C18.4691 37.5159 19.7283 15.1751 22.2469 5.90152C21.8271 5.05847 20.9876 5.05847 20.5678 6.32304Z" fill="url(#paint20_linear_2611_7327)" fill-opacity="0.2353"/>
<path d="M14.2716 8.85221C6.71607 21.0764 12.1729 40.8881 23.5062 59.4352C9.65434 34.5652 13.8519 16.8612 16.3704 8.43069C15.5309 8.00916 14.6914 8.00916 14.2716 8.85221Z" fill="url(#paint21_linear_2611_7327)" fill-opacity="0.2353"/>
<path d="M8.39516 11.8027C0.839606 22.7623 6.29639 41.3094 17.6297 58.1704C4.19763 35.8296 7.97541 19.3901 10.4939 11.8027C9.65442 10.9596 9.23467 10.9596 8.39516 11.8027Z" fill="url(#paint22_linear_2611_7327)" fill-opacity="0.2353"/>
<path d="M42.8147 67.4441C45.753 64.0719 48.6912 60.2782 51.2098 56.906C54.148 52.6907 57.0863 48.4755 59.6048 44.2603C58.7653 45.9464 57.9258 47.6325 56.6665 49.7401C54.9875 52.6907 53.3085 55.2199 51.2098 58.1706C49.9505 60.2782 48.2715 61.9643 46.5925 63.6504C45.3332 64.915 44.074 66.1795 42.8147 67.4441Z" fill="url(#paint23_linear_2611_7327)" fill-opacity="0.2824"/>
<path d="M40.2964 67.4442C42.8149 63.6504 44.9137 59.8567 47.4322 56.063C49.9507 51.4262 52.0495 47.211 54.1482 42.5742C53.3087 44.2603 52.889 46.3679 52.0495 48.054C50.7902 51.0047 49.1112 53.9554 47.8519 56.9061C46.5927 59.0137 45.3334 61.1213 44.0742 63.2289C42.8149 64.4935 41.5556 66.1796 40.2964 67.4442Z" fill="url(#paint24_linear_2611_7327)" fill-opacity="0.2824"/>
<path d="M31.9013 68.7088L31.0618 67.0227L30.6421 64.915L31.4816 66.6011L31.9013 68.7088Z" fill="white"/>
<path d="M29.8025 69.13L28.963 67.4439L28.1235 65.7578L29.3828 67.4439L29.8025 69.13Z" fill="white"/>
<path d="M28.5431 69.5514L27.2838 67.8653L26.4443 66.1792L27.7036 67.8653L28.5431 69.5514Z" fill="white"/>
<path d="M27.2841 70.3945L26.0248 69.1299L25.1853 67.4438L26.4446 68.7084L27.2841 70.3945Z" fill="white"/>
<path d="M36.5186 68.7088L36.9383 66.6011L37.7778 64.915L37.3581 67.0227L36.5186 68.7088Z" fill="white"/>
<path d="M39.457 69.5514L40.2965 67.8653L41.5558 66.1792L40.7163 67.8653L39.457 69.5514Z" fill="white"/>
<path d="M40.2964 69.9731L41.5556 68.287L42.8149 67.0225L41.9754 68.7086L40.2964 69.9731Z" fill="white"/>
<path d="M49.9506 34.9867C50.3703 33.3006 50.7901 31.193 50.7901 29.0854C50.7901 28.2423 50.7901 27.8208 50.7901 26.9777C50.7901 26.5562 50.7901 26.5562 50.7901 26.1347V25.7132V25.2916C50.7901 24.8701 50.7901 24.8701 50.7901 24.4486C50.7901 23.6055 50.7901 22.7625 50.7901 22.341C50.7901 20.2333 50.7901 18.1257 50.3703 16.0181C50.3703 12.6459 49.5308 10.1168 48.2715 8.00913C47.8518 7.16608 47.432 6.32303 46.5925 5.47998C47.0123 5.90151 47.432 6.32303 47.8518 7.16608C48.2715 8.00913 48.6913 8.85218 49.111 9.69523C50.3703 11.8029 51.2098 14.332 51.6296 16.8611C52.0493 18.9688 52.0493 21.0764 51.6296 23.184C51.6296 23.6055 51.6296 24.4486 51.6296 24.8701V25.2916C51.6296 25.2916 51.6296 25.2916 51.6296 25.7132C51.6296 26.9777 51.2098 28.6638 51.2098 29.9284C50.7901 31.6145 50.3703 33.3006 49.9506 34.9867Z" fill="#A4F6FF" fill-opacity="0.5255"/>
<path d="M56.6667 34.9864C57.0864 33.3003 57.5062 31.6142 57.5062 29.9281C57.5062 29.085 57.5062 28.6635 57.5062 27.8204C57.5062 27.3989 57.5062 27.3989 57.5062 26.9774C57.5062 26.9774 57.5062 26.9774 57.5062 26.5559V26.1343C57.5062 25.7128 57.5062 25.7128 57.5062 25.2913C57.5062 24.4482 57.5062 24.0267 57.5062 23.1837C57.5062 21.0761 57.5062 18.9684 57.0864 17.2823C56.6667 14.7532 55.8272 12.6456 54.5679 10.5379C54.1482 9.69489 53.7284 8.85184 52.8889 8.00879C54.1482 8.43031 54.1482 8.85184 54.5679 9.27336C54.9877 10.1164 55.4074 10.9595 55.8272 11.381C57.0864 13.4886 57.5062 15.5962 57.926 18.1254C58.3457 19.8115 58.3457 21.9191 57.926 23.6052C57.926 24.0267 57.926 24.8698 57.926 25.2913V25.7128C57.926 25.7128 57.926 25.7128 57.926 26.1343C57.926 27.3989 57.5062 28.6635 57.5062 29.9281C57.5062 32.0357 57.0864 33.3003 56.6667 34.9864Z" fill="#A4F6FF" fill-opacity="0.5255"/>
<path d="M40.716 73.3453C39.037 72.5022 36.5185 72.0807 33.5802 72.0807C31.0617 72.0807 28.5432 72.5022 27.2839 73.3453C28.5432 72.0807 31.0617 71.6592 33.5802 71.6592C36.0988 71.6592 39.037 72.0807 40.716 73.3453Z" fill="url(#paint25_linear_2611_7327)"/>
<path d="M33.9999 76.296C32.3209 76.296 30.6419 76.296 29.8024 75.8745C28.5431 75.453 27.7036 75.453 27.7036 74.6099C27.7036 74.1884 28.5431 73.7669 29.8024 73.3454C31.0616 72.9238 32.3209 72.9238 33.9999 72.9238C35.6789 72.9238 37.3579 72.9238 38.1974 73.3454C39.4567 73.7669 40.2962 73.7669 40.2962 74.6099C40.2962 75.0315 39.4567 75.453 38.1974 75.8745C37.3579 76.296 35.6789 76.296 33.9999 76.296ZM33.9999 75.8745C35.6789 75.8745 37.3579 75.8745 38.1974 75.453C38.6172 75.453 39.0369 75.0315 39.4567 75.0315C39.8765 75.0315 39.8765 74.6099 39.8765 74.6099C39.8765 74.6099 39.8765 74.1884 39.4567 74.1884C39.0369 74.1884 38.6172 73.7669 38.1974 73.7669C36.9382 73.3454 35.6789 73.3454 33.9999 73.3454C32.3209 73.3454 30.6419 73.3454 29.8024 73.7669C29.3826 73.7669 28.9629 74.1884 28.5431 74.1884C28.1234 74.1884 28.1234 74.6099 28.1234 74.6099C28.1234 74.6099 28.1234 75.0315 28.5431 75.0315C28.9629 75.0315 29.3826 75.453 29.8024 75.453C30.6419 75.8745 32.3209 75.8745 33.9999 75.8745Z" fill="url(#paint26_linear_2611_7327)"/>
<path d="M1.67894 26.5558C1.25918 26.5558 0.839431 26.5558 0.419678 26.1343C1.25918 26.5558 1.67894 26.9774 2.09869 26.5558C2.9382 25.7128 3.7777 24.4482 4.19746 23.1836C6.29622 24.8697 7.97523 24.0267 9.65425 21.076C12.5925 23.1836 14.6913 21.9191 16.3703 19.3899C18.8888 22.3406 21.8271 21.076 25.1851 18.5469C27.7036 20.233 30.6419 20.6545 33.1604 18.5469C36.5184 20.6545 39.8765 21.076 42.8147 18.9684C46.1728 21.076 48.6913 21.076 51.6296 19.8114C53.7283 21.9191 56.2468 22.7621 58.3456 21.4975C60.4444 24.0267 62.1234 25.2913 63.8024 23.6052C64.6419 26.1343 65.9012 26.9774 67.5802 25.7128C65.9012 26.9774 64.6419 26.1343 63.8024 24.0267V23.6052H63.3826C61.7036 24.8697 60.0246 23.6052 58.3456 21.4975L57.9258 21.076H57.5061C55.8271 21.9191 53.7283 21.4975 52.0493 19.8114L51.2098 18.9684H50.79C48.6913 21.4975 46.1728 21.076 43.6542 19.3899L43.2345 18.9684L42.8147 19.3899C39.8765 20.6545 36.9382 20.233 33.9999 18.5469H33.5802H33.1604C30.6419 20.233 28.1234 20.233 26.0246 18.5469H25.1851L24.7654 18.9684C21.8271 21.4975 19.3086 22.3406 16.79 20.233L16.3703 19.8114L15.9505 20.233C14.6913 22.3406 12.5925 23.1836 10.074 21.4975L9.65425 21.076V21.4975C7.97523 24.0267 6.29622 25.2913 4.61721 23.6052C3.7777 24.8697 2.9382 25.7128 2.51844 26.1343C2.09869 26.5558 2.09869 26.5558 1.67894 26.5558Z" fill="white" fill-opacity="0.5451"/>
<path d="M27.7037 85.5694C15.1111 73.7667 5.45677 52.6905 4.19751 22.7622H4.61726C5.45677 53.112 15.1111 73.7667 27.7037 85.5694Z" fill="url(#paint27_linear_2611_7327)"/>
<path d="M40.2964 85.1479C53.3087 73.3452 62.9631 53.1121 64.2223 24.0269H63.8026C62.5433 53.1121 52.889 73.3452 40.2964 85.1479Z" fill="url(#paint28_linear_2611_7327)"/>
<path d="M38.6172 87.2558C46.5925 69.9733 50.3703 46.7895 51.2098 20.2334H51.6295C50.79 46.7895 47.0122 69.9733 38.6172 87.2558Z" fill="url(#paint29_linear_2611_7327)"/>
<path d="M40.2963 84.7266H27.7037L27.2839 90.2064C27.2839 91.0494 27.7037 92.7355 28.9629 93.1571C32.321 94.0001 35.679 94.0001 39.4568 93.1571C40.2963 92.7355 41.1358 91.471 41.1358 90.6279L40.2963 84.7266Z" fill="url(#paint30_linear_2611_7327)"/>
<path d="M34.8396 94V85.1479H40.2964L41.1359 91.0493C41.1359 91.8923 40.7161 93.5784 39.4569 93.5784C38.1976 94 36.9384 94 35.6791 94H34.8396Z" fill="url(#paint31_linear_2611_7327)"/>
<path d="M33.9999 94.0002H33.1604H32.7407V93.5787L32.3209 93.1572V93.5787L32.7407 94.0002H32.3209H31.9011V93.5787H31.4814H31.0616L30.6419 93.1572H30.2221L28.9629 92.7357V93.1572H28.5431V92.7357V92.3141L28.1234 91.8926V91.4711V91.0496V90.628V90.2065V89.785V89.3635V88.9419V88.5204L28.5431 88.9419V88.5204L28.1234 88.0989V87.6774L28.5431 87.2559L28.1234 86.8343V86.4128L28.5431 86.8343V86.4128L28.1234 85.5697L28.5431 85.9913L28.9629 85.5697L28.5431 85.1482V85.5697L28.9629 85.1482H29.3826L28.9629 85.9913H29.3826V85.5697L28.9629 85.1482V85.5697L29.3826 85.1482H29.8024V85.5697L30.2221 85.1482H30.6419L30.2221 85.5697L30.6419 85.9913V85.5697L31.0616 85.1482H31.4814H31.9011L31.4814 85.5697L31.9011 85.9913V85.5697L32.3209 85.1482H32.7407H33.5802H33.9999H34.4197H34.8394H35.2592L35.6789 85.5697L36.0987 85.1482H36.5184H37.7777V84.7267H38.1974L38.6172 85.1482V84.7267V84.3052H39.0369H39.4567V84.7267L39.8765 84.3052H40.2962L40.716 84.7267L41.1357 84.3052V84.7267V85.1482V85.5697L41.5555 85.9913V86.4128V86.8343V87.2559V87.6774L41.1357 87.2559V87.6774L40.716 88.5204V88.0989V88.9419L41.1357 89.3635V89.785V90.2065L40.716 90.628L41.1357 91.0496C41.1357 91.4711 40.716 92.3141 40.2962 92.3141V91.8926L39.8765 91.4711V91.8926L40.2962 92.3141L39.4567 92.7357L39.0369 93.1572H38.6172H38.1974L37.7777 92.7357V93.5787H37.3579V93.1572L36.9382 92.7357V93.1572L37.3579 93.5787H36.9382V93.1572L36.5184 93.5787H36.0987H35.6789V93.1572L35.2592 92.7357V93.1572L35.6789 93.5787H35.2592H34.8394L33.9999 94.0002V93.1572V93.5787V94.0002ZM31.4814 93.5787V92.7357V93.1572V93.5787ZM34.8394 93.1572V92.3141L34.4197 92.7357L34.8394 93.1572ZM33.1604 93.1572V92.3141V92.7357V93.1572ZM36.0987 93.1572L36.5184 92.7357L36.0987 92.3141L35.6789 92.7357L36.0987 93.1572ZM30.2221 93.1572V92.3141V92.7357V93.1572ZM38.6172 93.1572V92.3141V92.7357V93.1572ZM31.9011 93.1572V92.3141V92.7357V93.1572ZM37.3579 93.1572L37.7777 92.7357L37.3579 92.3141V92.7357V93.1572ZM28.9629 93.1572V92.3141V92.7357V93.1572ZM39.0369 92.7357L39.4567 92.3141L39.0369 91.8926L38.6172 92.3141L39.0369 92.7357ZM34.8394 92.7357V91.8926V92.3141V92.7357ZM33.5802 92.7357V91.8926V92.3141V92.7357ZM32.3209 92.7357V91.8926V92.3141V92.7357ZM36.5184 92.7357V91.8926V92.3141V92.7357ZM37.7777 92.3141V91.4711V91.8926V92.3141ZM30.6419 92.3141V91.4711V91.8926V92.3141ZM40.2962 92.3141V91.4711L39.8765 91.8926L40.2962 92.3141ZM33.9999 92.3141V91.4711L33.5802 91.8926L33.9999 92.3141ZM35.2592 92.3141L35.6789 91.8926L35.2592 91.4711L34.8394 91.8926L35.2592 92.3141ZM32.3209 92.3141V91.4711L31.9011 91.8926L32.3209 92.3141ZM36.9382 92.3141L37.3579 91.8926L36.9382 91.4711L36.5184 91.8926L36.9382 92.3141ZM39.4567 91.8926V91.0496V91.4711V91.8926ZM29.3826 91.8926V91.0496V91.4711V91.8926ZM31.0616 91.8926V91.0496V91.4711V91.8926ZM38.1974 91.8926L38.6172 91.4711L38.1974 91.0496L37.7777 91.4711L38.1974 91.8926ZM28.1234 91.8926V91.0496V91.4711V91.8926ZM40.716 91.8926V91.0496V91.4711V91.8926ZM34.4197 91.8926V91.0496V91.4711V91.8926ZM32.7407 91.4711V90.628V91.0496V91.4711ZM35.6789 91.4711V90.628V91.0496V91.4711ZM39.4567 91.4711V90.628L39.0369 91.0496L39.4567 91.4711ZM31.4814 91.4711V90.628V91.0496V91.4711ZM37.3579 91.4711V90.628V91.0496V91.4711ZM29.8024 91.0496V90.2065V90.628V91.0496ZM38.6172 91.0496V90.2065V90.628V91.0496ZM34.8394 91.0496L35.2592 90.628L34.8394 90.2065L34.4197 90.628L34.8394 91.0496ZM33.1604 91.0496V90.2065L32.7407 90.628L33.1604 91.0496ZM36.0987 91.0496L36.5184 90.628L36.0987 90.2065L35.6789 90.628L36.0987 91.0496ZM39.8765 91.0496V90.2065V90.628V91.0496ZM28.5431 91.0496V90.2065V90.628V91.0496ZM31.9011 91.0496V90.2065L31.4814 90.628L31.9011 91.0496ZM37.7777 91.0496V90.628V89.785L37.3579 90.2065L37.7777 91.0496ZM30.2221 90.628V89.785V90.2065V90.628ZM39.0369 90.628V89.785L38.6172 90.2065L39.0369 90.628ZM34.4197 90.628L34.8394 90.2065L34.4197 89.785V90.628ZM33.5802 90.628V89.785V90.2065V90.628ZM35.2592 90.628V89.785V90.2065V90.628ZM40.2962 90.628V89.785L39.8765 90.2065L40.2962 90.628ZM31.9011 90.2065V89.3635V89.785V90.2065ZM36.5184 90.2065V89.3635V89.785V90.2065ZM30.6419 90.2065V89.3635V89.785V90.2065ZM38.1974 90.2065V89.3635V89.785V90.2065ZM28.9629 90.2065V89.3635V89.785V90.2065ZM39.4567 90.2065V89.3635V89.785V90.2065ZM33.9999 89.785L34.4197 89.3635L33.9999 88.9419L33.5802 89.3635L33.9999 89.785ZM35.6789 89.785L36.0987 89.3635L35.6789 88.9419L35.2592 89.3635L35.6789 89.785ZM28.1234 89.785V88.9419V89.3635V89.785ZM32.3209 89.785V88.9419L31.9011 89.3635L32.3209 89.785ZM36.9382 89.785L37.3579 89.3635L36.9382 88.9419L36.5184 89.3635L36.9382 89.785ZM31.0616 89.785V88.9419L30.6419 89.3635L31.0616 89.785ZM38.6172 89.785V88.9419L38.1974 89.3635L38.6172 89.785ZM29.3826 89.785V88.9419V89.3635V89.785ZM39.8765 89.785V88.9419L39.4567 89.3635L39.8765 89.785ZM32.7407 89.3635V88.5204V88.9419V89.3635ZM35.6789 89.3635V88.5204L35.2592 88.9419L35.6789 89.3635ZM33.5802 89.3635V88.9419V88.5204V89.3635ZM34.8394 89.3635L35.2592 88.9419V88.5204L34.8394 89.3635ZM34.4197 89.3635V88.5204V88.9419V89.3635ZM37.3579 89.3635V88.5204V88.9419V89.3635ZM31.0616 89.3635V88.5204V88.9419V89.3635ZM29.8024 88.9419V88.0989L29.3826 88.5204L29.8024 88.9419ZM38.6172 88.9419V88.0989V88.5204V88.9419ZM28.5431 88.9419V88.0989V88.5204V88.9419ZM40.2962 88.9419V88.0989V88.5204V88.9419ZM33.1604 88.9419L33.5802 88.0989L33.1604 87.6774L32.7407 88.5204L33.1604 88.9419ZM36.0987 88.9419L36.5184 88.5204L36.0987 88.0989V88.5204V88.9419ZM34.8394 88.5204L35.2592 88.0989L34.8394 87.6774L34.4197 88.0989L34.8394 88.5204ZM31.4814 88.5204V87.6774L31.0616 88.0989L31.4814 88.5204ZM37.7777 88.5204V87.6774L37.3579 88.0989L37.7777 88.5204ZM30.2221 88.5204V87.6774L29.8024 88.0989L30.2221 88.5204ZM39.0369 88.5204V87.6774L38.6172 88.0989L39.0369 88.5204ZM28.9629 88.5204V87.6774V88.0989V88.5204ZM32.7407 88.0989L33.1604 87.6774L32.7407 87.2559V88.0989ZM35.6789 88.0989L36.0987 87.6774L35.6789 87.2559V88.0989ZM35.2592 88.0989V87.2559V87.6774V88.0989ZM33.5802 88.0989V87.2559V87.6774V88.0989ZM31.9011 88.0989V87.2559V87.6774V88.0989ZM36.5184 88.0989V87.2559V87.6774V88.0989ZM34.4197 88.0989L34.8394 87.6774V87.2559L34.4197 88.0989ZM28.9629 88.0989V87.2559V87.6774V88.0989ZM39.4567 88.0989V87.2559V87.6774V88.0989ZM30.6419 88.0989V87.2559V87.6774V88.0989ZM38.1974 88.0989V87.2559V87.6774V88.0989ZM33.9999 87.6774L34.4197 87.2559L33.9999 86.8343L33.5802 87.2559L33.9999 87.6774ZM35.2592 87.6774L35.6789 87.2559L35.2592 86.8343L34.8394 87.2559L35.2592 87.6774ZM32.3209 87.6774L32.7407 87.2559L32.3209 86.8343L31.9011 87.2559L32.3209 87.6774ZM36.9382 87.6774V86.8343L36.5184 87.2559L36.9382 87.6774ZM28.1234 87.6774V86.8343L27.7036 87.2559L28.1234 87.6774ZM29.3826 87.6774V86.8343L28.9629 87.2559L29.3826 87.6774ZM39.8765 87.6774V86.8343V87.2559V87.6774ZM31.0616 87.6774V86.8343L30.6419 87.2559L31.0616 87.6774ZM38.6172 87.6774V86.8343L38.1974 87.2559L38.6172 87.6774ZM28.5431 87.2559V86.4128V86.8343V87.2559ZM40.2962 87.2559V86.4128V86.8343V87.2559ZM29.8024 86.8343V85.9913V86.4128V86.8343ZM38.6172 86.8343V85.9913V86.4128V86.8343ZM31.0616 86.8343V85.9913V86.4128V86.8343ZM37.3579 86.8343V85.9913V86.4128V86.8343ZM34.4197 86.8343V85.9913V86.4128V86.8343ZM33.5802 86.8343V86.4128V85.9913V86.8343ZM34.8394 86.8343L35.2592 86.4128V85.9913L34.8394 86.8343ZM31.9011 86.8343L32.3209 86.4128V85.9913L31.9011 86.8343ZM32.7407 86.8343V85.9913V86.4128V86.8343ZM36.0987 86.8343V85.9913V86.4128V86.8343ZM28.9629 86.4128V85.5697L28.5431 85.9913L28.9629 86.4128ZM30.2221 86.4128V85.5697L29.8024 85.9913L30.2221 86.4128ZM39.0369 86.4128V85.5697V85.9913V86.4128ZM31.4814 86.4128L31.9011 85.9913L31.4814 85.5697L31.0616 85.9913L31.4814 86.4128ZM37.7777 86.4128V85.5697L37.3579 85.9913L37.7777 86.4128ZM34.8394 86.4128L35.2592 85.9913L34.8394 85.5697L34.4197 85.9913L34.8394 86.4128ZM33.1604 86.4128L33.5802 85.9913L33.1604 85.5697L32.7407 85.9913L33.1604 86.4128ZM36.0987 86.4128V85.5697L35.6789 85.9913L36.0987 86.4128ZM39.4567 85.9913V85.1482V85.5697V85.9913ZM38.1974 85.9913V85.1482V85.5697V85.9913ZM36.5184 85.5697V84.7267V85.1482V85.5697ZM34.4197 85.5697L34.8394 85.1482L34.4197 84.7267V85.5697ZM33.5802 85.5697V84.7267V85.1482V85.5697ZM35.2592 85.5697V84.7267V85.1482V85.5697ZM32.7407 85.5697L33.1604 85.1482V84.7267L32.7407 85.5697Z" fill="white" fill-opacity="0.2627"/>
<path d="M33.9999 86.4125C37.3579 86.4125 40.2962 85.5694 40.2962 85.1479C40.2962 84.7264 37.3579 83.8833 33.9999 83.8833C30.6419 83.8833 27.7036 84.7264 27.7036 85.1479C27.7036 85.5694 30.6419 86.4125 33.9999 86.4125Z" fill="url(#paint32_linear_2611_7327)"/>
<path d="M33.9999 83.4619C32.3209 83.4619 30.6419 83.4619 29.8024 83.8834C28.5431 84.305 27.7036 84.305 27.7036 85.148C27.7036 85.5695 28.5431 85.9911 29.8024 86.4126C31.0616 86.8341 32.3209 86.8341 33.9999 86.8341C35.6789 86.8341 37.3579 86.8341 38.1974 86.4126C39.4567 85.9911 40.2962 85.9911 40.2962 85.148C40.2962 84.7265 39.4567 84.305 38.1974 83.8834C37.3579 83.4619 35.6789 83.4619 33.9999 83.4619ZM33.9999 83.4619C35.6789 83.4619 37.3579 83.4619 38.1974 83.8834C38.6172 83.8834 39.0369 84.305 39.4567 84.305C39.8765 84.305 39.8765 84.7265 39.8765 84.7265C39.8765 84.7265 39.8765 85.148 39.4567 85.148C39.0369 85.148 38.6172 85.5695 38.1974 85.5695C36.9382 85.9911 35.6789 85.9911 33.9999 85.9911C32.3209 85.9911 30.6419 85.9911 29.8024 85.5695C29.3826 85.5695 28.9629 85.148 28.5431 85.148C28.1234 85.148 28.1234 84.7265 28.1234 84.7265C28.1234 84.7265 28.1234 84.305 28.5431 84.305C28.9629 84.305 29.3826 83.8834 29.8024 83.8834C30.6419 83.8834 32.3209 83.4619 33.9999 83.4619Z" fill="url(#paint33_linear_2611_7327)"/>
<path d="M28.1234 85.1479C28.9629 81.7757 28.5431 78.4034 27.7036 75.0312H28.1234C28.9629 77.9819 28.9629 81.3541 28.1234 85.1479Z" fill="#B2B2B2"/>
<path d="M39.8765 85.148C39.037 81.7758 39.4568 77.9821 40.2963 74.6099H39.8765C39.4568 77.9821 39.037 81.7758 39.8765 85.148Z" fill="#B2B2B2"/>
<path d="M30.2222 85.9908C31.0617 81.7756 30.642 77.9818 29.8025 73.7666H30.2222C30.642 77.9818 31.0617 81.7756 30.2222 85.9908Z" fill="#B2B2B2"/>
<path d="M38.1976 85.9908C37.3581 81.7756 37.7778 77.9818 38.6173 73.7666H38.1976C37.3581 77.9818 36.9383 81.7756 38.1976 85.9908Z" fill="#B2B2B2"/>
<path d="M32.3209 85.991C33.1604 81.7757 32.7406 77.5605 31.9011 73.3452H32.3209C32.7406 77.5605 33.1604 81.7757 32.3209 85.991Z" fill="#B2B2B2"/>
<path d="M28.1234 85.5693C26.8641 87.677 26.8641 88.9415 28.1234 89.3631C29.3827 88.9415 28.9629 86.8339 28.1234 85.5693Z" fill="url(#paint34_linear_2611_7327)"/>
<path d="M28.1234 85.5696L27.7036 85.1481L28.1234 84.7266H28.5431L28.1234 85.5696Z" fill="url(#paint35_linear_2611_7327)"/>
<path d="M28.963 85.9912C27.7037 88.0988 27.7037 89.3634 28.963 89.7849C30.2223 88.9419 29.8025 86.8343 28.963 85.9912Z" fill="url(#paint36_linear_2611_7327)"/>
<path d="M28.963 85.991L28.5432 85.5695L28.963 85.1479H29.3827L28.963 85.991Z" fill="url(#paint37_linear_2611_7327)"/>
<path d="M40.2962 85.1479C41.5555 87.2556 41.5555 88.5201 40.2962 88.9417C39.037 88.5201 39.4567 86.4125 40.2962 85.1479Z" fill="url(#paint38_linear_2611_7327)"/>
<path d="M40.2962 85.1482L40.716 84.7267L40.2962 84.3052H39.8765L40.2962 85.1482Z" fill="url(#paint39_linear_2611_7327)"/>
<path d="M39.0371 85.5693C40.2964 87.677 40.2964 88.9415 39.0371 89.3631C38.1976 88.9415 38.1976 86.8339 39.0371 85.5693Z" fill="url(#paint40_linear_2611_7327)"/>
<path d="M39.0369 85.5696L39.4567 85.1481L39.0369 84.7266H38.6172L39.0369 85.5696Z" fill="url(#paint41_linear_2611_7327)"/>
<path d="M16.3704 20.6547V19.8117C16.3704 13.9103 18.0495 9.27354 20.568 5.47982H20.9877C16.7902 5.47982 13.4322 10.9596 10.4939 18.5471L9.65439 20.2332V18.9686C10.0741 14.7534 11.7532 10.9596 14.6914 8.00897L15.1112 7.58744H13.8519C10.4939 8.43049 7.55563 12.6457 5.45686 18.5471L5.03711 19.8117C6.29637 14.3318 9.23464 9.27354 15.1112 4.63677C16.7902 3.3722 18.0495 2.95067 19.7285 2.95067H20.1482C21.8272 1.6861 23.5062 1.26457 24.7655 1.6861H25.1853C26.4445 0.843049 27.7038 0.843049 29.3828 1.26457L29.8025 0.843049C31.0618 0 32.3211 0 33.1606 0L34.0001 0.421525H33.5803C30.2223 2.10762 27.284 7.16592 25.605 13.9103L25.1853 15.5964V15.1749C25.605 11.8027 26.0248 8.43049 27.284 5.90135L27.7038 4.21525H26.8643C23.0865 5.90135 18.4692 11.8027 16.3704 20.6547Z" fill="white" fill-opacity="0.3176"/>
<path d="M34 79.2469C32.321 79.2469 31.0617 79.2469 30.2222 79.2469C29.3827 79.2469 28.5432 78.8253 28.5432 78.8253C28.5432 78.8253 29.3827 78.4038 30.2222 78.4038C31.0617 78.4038 32.7407 78.4038 34 78.4038C35.679 78.4038 36.9383 78.4038 37.7778 78.4038C38.6173 78.4038 39.4568 78.8253 39.4568 78.8253C39.4568 78.8253 38.6173 79.2469 37.7778 79.2469C36.9383 79.2469 35.679 79.2469 34 79.2469ZM37.7778 79.2469C36.9383 79.2469 35.679 79.2469 34 79.2469C35.2593 79.2469 36.9383 79.2469 37.7778 79.2469Z" fill="#999999"/>
<defs>
<linearGradient id="paint0_linear_2611_7327" x1="29.9321" y1="34.8367" x2="13.5102" y2="36.3792" gradientUnits="userSpaceOnUse">
<stop stop-color="#008DBC"/>
<stop offset="1" stop-color="#5AF0FF"/>
</linearGradient>
<linearGradient id="paint1_linear_2611_7327" x1="8.89497" y1="36.7329" x2="13.4664" y2="36.3316" gradientUnits="userSpaceOnUse">
<stop stop-color="#0041FF"/>
<stop offset="1" stop-color="#A4F6FF"/>
</linearGradient>
<linearGradient id="paint2_linear_2611_7327" x1="24.8121" y1="35.8595" x2="9.31294" y2="37.9456" gradientUnits="userSpaceOnUse">
<stop stop-color="#008DBC"/>
<stop offset="1" stop-color="#5AF0FF"/>
</linearGradient>
<linearGradient id="paint3_linear_2611_7327" x1="29.4038" y1="37.2204" x2="5.83482" y2="37.9978" gradientUnits="userSpaceOnUse">
<stop stop-color="#008DBC"/>
<stop offset="1" stop-color="#5AF0FF"/>
</linearGradient>
<linearGradient id="paint4_linear_2611_7327" x1="42.8848" y1="34.2597" x2="26.4859" y2="34.2597" gradientUnits="userSpaceOnUse">
<stop stop-color="#008DBC"/>
<stop offset="1" stop-color="#5AF0FF"/>
</linearGradient>
<linearGradient id="paint5_linear_2611_7327" x1="37.8689" y1="34.1166" x2="19.5641" y2="35.2741" gradientUnits="userSpaceOnUse">
<stop stop-color="#008DBC"/>
<stop offset="1" stop-color="#5AF0FF"/>
</linearGradient>
<linearGradient id="paint6_linear_2611_7327" x1="47.335" y1="35.1883" x2="32.5636" y2="34.0221" gradientUnits="userSpaceOnUse">
<stop stop-color="#008DBC"/>
<stop offset="1" stop-color="#5AF0FF"/>
</linearGradient>
<linearGradient id="paint7_linear_2611_7327" x1="51.7946" y1="36.9134" x2="38.4971" y2="34.5637" gradientUnits="userSpaceOnUse">
<stop stop-color="#008DBC"/>
<stop offset="1" stop-color="#5AF0FF"/>
</linearGradient>
<linearGradient id="paint8_linear_2611_7327" x1="59.5444" y1="39.1531" x2="41.058" y2="34.846" gradientUnits="userSpaceOnUse">
<stop stop-color="#008DBC"/>
<stop offset="1" stop-color="#5AF0FF"/>
</linearGradient>
<linearGradient id="paint9_linear_2611_7327" x1="70.3154" y1="41.924" x2="43.2532" y2="35.6469" gradientUnits="userSpaceOnUse">
<stop stop-color="#008DBC"/>
<stop offset="1" stop-color="#5AF0FF"/>
</linearGradient>
<linearGradient id="paint10_linear_2611_7327" x1="79.4169" y1="44.3867" x2="44.7151" y2="36.8015" gradientUnits="userSpaceOnUse">
<stop stop-color="#008DBC"/>
<stop offset="1" stop-color="#5AF0FF"/>
</linearGradient>
<linearGradient id="paint11_linear_2611_7327" x1="46.2427" y1="72.4431" x2="33.0255" y2="71.5627" gradientUnits="userSpaceOnUse">
<stop stop-color="#996600"/>
<stop offset="1" stop-color="#F5C748"/>
</linearGradient>
<linearGradient id="paint12_linear_2611_7327" x1="22.0042" y1="73.5827" x2="30.2437" y2="71.9099" gradientUnits="userSpaceOnUse">
<stop stop-color="#996600"/>
<stop offset="1" stop-color="#F5C748"/>
</linearGradient>
<linearGradient id="paint13_linear_2611_7327" x1="34.0293" y1="77.5031" x2="34.0293" y2="72.3095" gradientUnits="userSpaceOnUse">
<stop stop-color="#F5C748"/>
<stop offset="1" stop-color="#996600"/>
</linearGradient>
<linearGradient id="paint14_linear_2611_7327" x1="15.9137" y1="34.4724" x2="18.3986" y2="34.5392" gradientUnits="userSpaceOnUse">
<stop stop-color="#0041FF"/>
<stop offset="1" stop-color="#A4F6FF"/>
</linearGradient>
<linearGradient id="paint15_linear_2611_7327" x1="32.9964" y1="32.8307" x2="40.4361" y2="32.9143" gradientUnits="userSpaceOnUse">
<stop stop-color="#A4F6FF"/>
<stop offset="1" stop-color="#008DBC"/>
</linearGradient>
<linearGradient id="paint16_linear_2611_7327" x1="38.5143" y1="33.2587" x2="48.0792" y2="33.9317" gradientUnits="userSpaceOnUse">
<stop stop-color="#A4F6FF"/>
<stop offset="1" stop-color="#008DBC"/>
</linearGradient>
<linearGradient id="paint17_linear_2611_7327" x1="43.3128" y1="33.0397" x2="54.9855" y2="34.1386" gradientUnits="userSpaceOnUse">
<stop stop-color="#A4F6FF"/>
<stop offset="1" stop-color="#008DBC"/>
</linearGradient>
<linearGradient id="paint18_linear_2611_7327" x1="49.3502" y1="31.6652" x2="60.9844" y2="32.9329" gradientUnits="userSpaceOnUse">
<stop stop-color="#A4F6FF"/>
<stop offset="1" stop-color="#008DBC"/>
</linearGradient>
<linearGradient id="paint19_linear_2611_7327" x1="29.4105" y1="32.6639" x2="26.5225" y2="32.5301" gradientUnits="userSpaceOnUse">
<stop stop-color="#5AF0FF"/>
<stop offset="1" stop-color="#A4F6FF"/>
</linearGradient>
<linearGradient id="paint20_linear_2611_7327" x1="21.3255" y1="34.3253" x2="19.4445" y2="34.4637" gradientUnits="userSpaceOnUse">
<stop stop-color="#5AF0FF"/>
<stop offset="1" stop-color="#A4F6FF"/>
</linearGradient>
<linearGradient id="paint21_linear_2611_7327" x1="15.0964" y1="34.0227" x2="13.3036" y2="34.1398" gradientUnits="userSpaceOnUse">
<stop stop-color="#5AF0FF"/>
<stop offset="1" stop-color="#A4F6FF"/>
</linearGradient>
<linearGradient id="paint22_linear_2611_7327" x1="9.36266" y1="35.1629" x2="7.57473" y2="35.2891" gradientUnits="userSpaceOnUse">
<stop stop-color="#5AF0FF"/>
<stop offset="1" stop-color="#A4F6FF"/>
</linearGradient>
<linearGradient id="paint23_linear_2611_7327" x1="53.4504" y1="51.2913" x2="49.8623" y2="58.6941" gradientUnits="userSpaceOnUse">
<stop stop-color="#0041FF"/>
<stop offset="1" stop-color="#A4F6FF"/>
</linearGradient>
<linearGradient id="paint24_linear_2611_7327" x1="51.9135" y1="46.4577" x2="46.7831" y2="56.7556" gradientUnits="userSpaceOnUse">
<stop stop-color="#0041FF"/>
<stop offset="1" stop-color="#A4F6FF"/>
</linearGradient>
<linearGradient id="paint25_linear_2611_7327" x1="18.7356" y1="72.6989" x2="39.5445" y2="72.4938" gradientUnits="userSpaceOnUse">
<stop stop-color="white"/>
<stop offset="1" stop-color="#F5C748"/>
</linearGradient>
<linearGradient id="paint26_linear_2611_7327" x1="24.1445" y1="74.6601" x2="37.1737" y2="74.752" gradientUnits="userSpaceOnUse">
<stop stop-color="white"/>
<stop offset="1" stop-color="#F5C748"/>
</linearGradient>
<linearGradient id="paint27_linear_2611_7327" x1="16.2865" y1="18.413" x2="16.0389" y2="57.5455" gradientUnits="userSpaceOnUse">
<stop stop-color="white"/>
<stop offset="1" stop-color="#CCCCCC"/>
</linearGradient>
<linearGradient id="paint28_linear_2611_7327" x1="52.2899" y1="19.1911" x2="52.5321" y2="57.4783" gradientUnits="userSpaceOnUse">
<stop stop-color="white"/>
<stop offset="1" stop-color="#CCCCCC"/>
</linearGradient>
<linearGradient id="paint29_linear_2611_7327" x1="45.1351" y1="15.0539" x2="45.669" y2="56.9191" gradientUnits="userSpaceOnUse">
<stop stop-color="white"/>
<stop offset="1" stop-color="#CCCCCC"/>
</linearGradient>
<linearGradient id="paint30_linear_2611_7327" x1="27.4455" y1="89.188" x2="30.5983" y2="89.2507" gradientUnits="userSpaceOnUse">
<stop stop-color="#F5C748"/>
<stop offset="1" stop-color="#996600"/>
</linearGradient>
<linearGradient id="paint31_linear_2611_7327" x1="42.0594" y1="88.3941" x2="37.493" y2="89.0296" gradientUnits="userSpaceOnUse">
<stop stop-color="#F5C748"/>
<stop offset="1" stop-color="#996600"/>
</linearGradient>
<linearGradient id="paint32_linear_2611_7327" x1="34.0293" y1="82.0998" x2="34.0293" y2="87.2964" gradientUnits="userSpaceOnUse">
<stop stop-color="#F5C748"/>
<stop offset="1" stop-color="#996600"/>
</linearGradient>
<linearGradient id="paint33_linear_2611_7327" x1="24.1418" y1="84.9452" x2="37.1726" y2="84.8453" gradientUnits="userSpaceOnUse">
<stop stop-color="white"/>
<stop offset="1" stop-color="#F5C748"/>
</linearGradient>
<linearGradient id="paint34_linear_2611_7327" x1="26.7353" y1="87.1349" x2="28.6413" y2="87.4355" gradientUnits="userSpaceOnUse">
<stop stop-color="white"/>
<stop offset="1" stop-color="#7F7F7F"/>
</linearGradient>
<linearGradient id="paint35_linear_2611_7327" x1="27.6667" y1="85.1886" x2="28.3549" y2="85.3391" gradientUnits="userSpaceOnUse">
<stop stop-color="white"/>
<stop offset="1" stop-color="#999999"/>
</linearGradient>
<linearGradient id="paint36_linear_2611_7327" x1="27.6567" y1="87.3742" x2="29.5683" y2="87.6748" gradientUnits="userSpaceOnUse">
<stop stop-color="white"/>
<stop offset="1" stop-color="#7F7F7F"/>
</linearGradient>
<linearGradient id="paint37_linear_2611_7327" x1="28.5885" y1="85.4316" x2="29.2785" y2="85.5822" gradientUnits="userSpaceOnUse">
<stop stop-color="white"/>
<stop offset="1" stop-color="#999999"/>
</linearGradient>
<linearGradient id="paint38_linear_2611_7327" x1="38.4585" y1="85.0468" x2="40.9882" y2="88.3054" gradientUnits="userSpaceOnUse">
<stop stop-color="white"/>
<stop offset="1" stop-color="#7F7F7F"/>
</linearGradient>
<linearGradient id="paint39_linear_2611_7327" x1="40.5685" y1="84.9206" x2="39.8765" y2="85.0792" gradientUnits="userSpaceOnUse">
<stop stop-color="white"/>
<stop offset="1" stop-color="#999999"/>
</linearGradient>
<linearGradient id="paint40_linear_2611_7327" x1="36.2424" y1="85.8543" x2="40.2748" y2="87.8241" gradientUnits="userSpaceOnUse">
<stop stop-color="white"/>
<stop offset="1" stop-color="#7F7F7F"/>
</linearGradient>
<linearGradient id="paint41_linear_2611_7327" x1="39.6405" y1="85.157" x2="38.9577" y2="85.3029" gradientUnits="userSpaceOnUse">
<stop stop-color="white"/>
<stop offset="1" stop-color="#999999"/>
</linearGradient>
</defs>
</svg>
