<svg width="55" height="78" viewBox="0 0 55 78" fill="none" xmlns="http://www.w3.org/2000/svg">
<path d="M27.8986 70.9093C27.3672 67.6365 27.6329 64.0911 28.1643 60.8184H27.8986C27.6329 64.0911 27.3672 67.6365 27.8986 70.9093Z" fill="#E5E5E5"/>
<path d="M25.2415 70.9093C25.7729 67.6365 25.5072 64.0911 24.9758 60.8184H25.2415C25.7729 64.0911 26.0386 67.6365 25.2415 70.9093Z" fill="#E5E5E5"/>
<path d="M30.0241 70.9093C29.4927 67.6365 29.7584 64.0911 30.2898 60.8184H30.0241C29.7584 64.0911 29.4927 67.6365 30.0241 70.9093Z" fill="#E5E5E5"/>
<path d="M23.913 56.7272L22.8502 57.2726C5.84538 31.6363 0.797067 11.9999 15.6763 2.72719C17.2705 1.09083 18.599 1.09083 19.9275 1.63628C7.97098 10.909 13.285 31.909 23.913 56.7272Z" fill="url(#paint0_linear_2611_7400)"/>
<path d="M22.8502 57.2726C5.84538 31.6362 0.797067 11.9999 15.6763 2.72714C16.4734 2.18168 17.2705 1.63623 18.0676 1.63623C4.51687 9.27259 7.17388 31.0908 22.8502 57.2726Z" fill="url(#paint1_linear_2611_7400)" fill-opacity="0.2627"/>
<path d="M15.6762 2.45459C0.265617 14.1819 8.76803 34.6364 22.5845 57L21.5217 57.2728C7.70523 42.5455 -7.7054 18.8182 11.425 4.09095C13.2849 3.00004 14.3477 2.45459 15.6762 2.45459Z" fill="url(#paint2_linear_2611_7400)"/>
<path d="M21.7873 57.5454C7.70519 42.5455 -7.70543 18.8182 11.425 4.09091C11.9564 3.81818 12.2221 3.54545 12.7535 3.27273L13.5506 3C-4.51703 17.7273 7.9709 40.6364 20.9902 56.7273L21.7873 57.5454Z" fill="white" fill-opacity="0.1804"/>
<path d="M10.8937 4.36377C-2.12563 15.2729 0.797074 34.091 21.7874 57.2729L20.4589 57.8183C-1.32853 37.6365 -7.43964 14.7274 10.8937 4.36377Z" fill="url(#paint3_linear_2611_7400)"/>
<path d="M23.116 1.09075C16.4735 12.2726 20.459 33.818 25.2416 56.7271H27.8986L27.6329 0.545296C26.0387 -0.000158668 24.7102 -0.000158668 23.116 1.09075Z" fill="url(#paint4_linear_2611_7400)"/>
<path d="M25.2416 56.7272C20.459 33.8181 16.7392 12.2727 23.116 1.09086C23.3817 0.818137 23.3817 0.818137 23.6474 0.818137L23.9131 0.54541V0.818137C19.6619 12 21.5218 31.909 24.9759 53.1818L25.2416 56.7272Z" fill="#DDFF00" fill-opacity="0.2"/>
<path d="M25.5072 56.7275H23.913C12.2222 30.2729 8.23667 9.54566 19.9275 1.36384C20.9903 0.545658 22.0531 0.545658 23.3816 0.818385C18.0676 11.7275 19.6618 31.3638 25.5072 56.7275Z" fill="url(#paint5_linear_2611_7400)"/>
<path d="M31.884 1.09075C38.5265 12.2726 34.541 33.818 29.7583 56.7271H27.1013C26.8356 44.7271 26.5699 32.7271 26.8356 20.7271C26.8356 14.1817 27.1013 7.36348 27.6327 0.545296C28.9612 -0.000158668 30.2897 -0.000158668 31.884 1.09075Z" fill="url(#paint6_linear_2611_7400)"/>
<path d="M29.4927 56.7275H31.0869C42.7777 30.2729 46.4975 9.54566 35.0724 1.36384C34.0096 0.545658 32.9468 0.545658 31.6183 0.818385C36.9323 11.7275 35.3381 31.3638 29.4927 56.7275Z" fill="url(#paint7_linear_2611_7400)"/>
<path d="M31.0869 56.7273L32.1497 57.2728C49.1545 31.6364 54.2029 12 39.3236 2.72732C37.7294 1.36368 36.4009 1.36368 35.0724 1.90913C47.0289 10.9091 41.7149 31.9091 31.0869 56.7273Z" fill="url(#paint8_linear_2611_7400)"/>
<path d="M39.0579 2.45459C54.4685 14.1819 45.9661 34.6364 32.1497 57.2728L33.2125 57.5455C47.2946 42.5455 62.1738 18.8182 43.3091 4.09095C41.9806 3.00004 40.6521 2.45459 39.0579 2.45459Z" fill="url(#paint9_linear_2611_7400)"/>
<path d="M43.8405 4.36377C56.8598 15.2729 53.9371 34.091 32.9468 57.2729L34.2753 57.8183C56.3284 37.6365 62.1738 14.7274 43.8405 4.36377Z" fill="url(#paint10_linear_2611_7400)"/>
<path d="M22.3189 62.1817C22.0532 60.5453 21.2561 59.1817 20.459 57.8181C22.5846 56.1817 24.7102 55.6362 26.8358 55.6362H27.3672H27.8986C30.0242 55.6362 32.1498 56.1817 34.2754 57.8181C33.4783 59.1817 32.6812 60.818 32.4155 62.1817C31.087 61.6362 29.7585 61.0908 28.43 61.0908H27.8986H27.3672H26.8358H26.3044C24.9759 61.0908 23.6474 61.3635 22.3189 62.1817Z" fill="url(#paint11_linear_2611_7400)"/>
<path d="M25.5073 55.6362C23.9131 55.909 22.0532 56.4544 20.459 57.8181C21.2561 59.1817 22.0532 60.818 22.3189 62.1817C23.6474 61.6362 24.9759 61.0908 26.3044 61.0908L25.5073 55.6362Z" fill="url(#paint12_linear_2611_7400)"/>
<path d="M27.3672 60.8184C30.0242 60.8184 32.4155 61.3638 32.4155 61.9093C32.4155 62.4547 30.2899 63.0002 27.3672 63.0002C24.7102 63.0002 22.3188 62.4547 22.3188 61.9093C22.3188 61.3638 24.7102 60.8184 27.3672 60.8184Z" fill="url(#paint13_linear_2611_7400)"/>
<path d="M34.2752 57.8183L34.0095 57.5456V57.2729C34.2752 57.2729 34.2752 57.5456 34.2752 57.8183ZM20.1931 57.5456C20.1931 57.2729 20.1931 57.2729 20.4588 57.2729V57.5456C20.4588 57.5456 20.4588 57.5456 20.1931 57.5456ZM33.7438 57.2729C33.7438 57.2729 33.4781 57.2729 33.4781 57.0001V56.7274C33.7438 57.0001 33.7438 57.0001 33.7438 57.2729ZM20.9902 57.2729C20.9902 57.0001 21.2559 57.0001 21.2559 57.0001V57.2729C20.9902 57.0001 20.9902 57.2729 20.9902 57.2729ZM33.2124 57.0001C33.2124 57.0001 32.9467 57.0001 32.9467 56.7274V56.4547C32.9467 56.7274 33.2124 56.7274 33.2124 57.0001ZM21.5216 57.0001C21.5216 56.7274 21.7873 56.7274 21.7873 56.7274V57.0001C21.7873 56.7274 21.7873 56.7274 21.5216 57.0001ZM32.4153 56.7274C32.4153 56.7274 32.1496 56.7274 32.1496 56.4547V56.182C32.4153 56.4547 32.4153 56.4547 32.4153 56.7274ZM22.3187 56.7274C22.3187 56.4547 22.5844 56.4547 22.5844 56.4547V56.7274C22.5844 56.4547 22.3187 56.4547 22.3187 56.7274ZM31.8839 56.4547H31.6182V56.182C31.6182 56.182 31.8839 56.182 31.8839 56.4547ZM22.8501 56.4547C22.8501 56.182 23.1158 56.182 23.1158 56.182V56.4547C23.1158 56.182 23.1158 56.4547 22.8501 56.4547ZM31.0868 56.182H30.8211V55.9092C30.8211 55.9092 31.0868 55.9092 31.0868 56.182ZM23.6472 56.182C23.6472 55.9092 23.9129 55.9092 23.9129 55.9092V56.182H23.6472ZM30.5554 55.9092H30.2897V55.6365C30.2897 55.6365 30.2897 55.6365 30.5554 55.9092ZM24.4443 55.9092C24.4443 55.6365 24.71 55.6365 24.71 55.6365V55.9092C24.4443 55.9092 24.4443 55.9092 24.4443 55.9092ZM29.7583 55.9092H29.4926V55.6365C29.4926 55.6365 29.4926 55.6365 29.7583 55.9092ZM24.9757 55.9092C24.9757 55.6365 25.2414 55.6365 25.2414 55.6365V55.9092C25.2414 55.9092 25.2414 55.9092 24.9757 55.9092ZM28.9612 55.6365H28.6955V55.3638C28.6955 55.6365 28.9612 55.6365 28.9612 55.6365ZM25.7728 55.6365C25.7728 55.3638 26.0385 55.3638 26.0385 55.3638V55.6365H25.7728ZM28.1641 55.6365H27.8984V55.3638C28.1641 55.3638 28.1641 55.3638 28.1641 55.6365ZM26.5699 55.6365C26.5699 55.3638 26.8356 55.3638 26.8356 55.3638V55.6365H26.5699ZM27.6327 55.6365H27.367V55.3638C27.367 55.3638 27.367 55.3638 27.6327 55.6365Z" fill="white"/>
<path d="M20.7247 57.8183C-1.32844 37.6365 -7.43956 14.7274 10.8938 4.36377C10.6281 4.90922 10.0967 5.18195 9.83098 5.45468L9.56527 5.72741L9.29957 6.00013C-4.51685 16.9092 1.06286 37.9092 19.9276 57.0001L20.7247 57.8183Z" fill="#DDFF00" fill-opacity="0.2353"/>
<path d="M23.6473 56.7274C12.2222 30.2729 8.23667 9.54563 19.6618 1.36381C19.9275 1.09109 20.1932 1.09109 20.4589 0.818359H20.7246C10.8937 8.45472 13.285 29.182 23.3816 55.3638L23.6473 56.7274Z" fill="url(#paint14_linear_2611_7400)" fill-opacity="0.2627"/>
<path d="M54.4686 21.5452C43.5749 13.3634 9.03382 12.818 0.2657 21.5452L0 21.2725C9.03382 12.2725 43.5749 13.0907 54.7343 21.2725L54.4686 21.5452Z" fill="white" fill-opacity="0.5451"/>
<path d="M31.6184 2.45443C35.8696 18.5453 32.9469 35.7272 29.2271 52.909C30.2899 41.9999 30.8213 8.1817 29.7585 1.90897C30.5556 1.63625 31.087 1.36352 31.6184 2.45443Z" fill="url(#paint15_linear_2611_7400)" fill-opacity="0.2353"/>
<path d="M37.4637 4.63623C43.8406 14.9999 38.5265 34.6362 31.884 51.8181C39.3236 30.8181 38.2608 12.2726 36.1352 4.3635C36.6666 3.81805 36.9323 3.54532 37.4637 4.63623Z" fill="url(#paint16_linear_2611_7400)" fill-opacity="0.2353"/>
<path d="M43.5749 7.63628C49.686 17.7272 45.1691 33.8181 36.1353 49.3636C47.2947 28.909 44.1063 14.1817 41.9807 7.36355C40.6522 4.90901 42.2464 5.99991 43.5749 7.63628Z" fill="url(#paint17_linear_2611_7400)" fill-opacity="0.2353"/>
<path d="M48.3576 9.81827C54.4687 18.2728 49.9518 32.1819 40.918 45.2728C52.0774 27.8183 48.889 15.5455 46.7634 9.54554C45.1692 6.81827 46.232 7.091 48.3576 9.81827Z" fill="url(#paint18_linear_2611_7400)" fill-opacity="0.2353"/>
<path d="M22.8501 2.18168C18.8646 18.2726 21.5216 35.4544 25.2414 52.909C24.1786 41.9999 23.6472 8.18168 24.71 1.90896C23.9129 1.3635 23.3815 1.3635 22.8501 2.18168Z" fill="url(#paint19_linear_2611_7400)" fill-opacity="0.2353"/>
<path d="M16.2078 5.18164C10.0967 16.6362 15.4107 34.9089 22.0532 52.0907C14.6136 31.0907 15.9421 12.5453 18.0677 4.90891C17.5363 4.36346 16.7392 4.09073 16.2078 5.18164Z" fill="url(#paint20_linear_2611_7400)" fill-opacity="0.2353"/>
<path d="M11.1595 7.36381C5.04838 17.4547 9.56529 33.8184 18.8648 49.0911C7.70538 28.6365 10.8938 13.9093 13.0194 7.09109C12.2223 6.81836 11.6909 6.54563 11.1595 7.36381Z" fill="url(#paint21_linear_2611_7400)" fill-opacity="0.2353"/>
<path d="M6.64244 10.0911C0.53133 19.0911 5.04824 34.3639 14.0821 48.5457C2.92264 29.7275 6.11104 15.8184 8.23664 9.54569C7.70524 9.27297 7.17384 9.00024 6.64244 10.0911Z" fill="url(#paint22_linear_2611_7400)" fill-opacity="0.2353"/>
<path d="M34.541 56.182C36.9323 53.4547 39.0579 50.4547 41.1835 47.4547C43.5748 43.9093 45.9661 40.6365 48.0917 36.8184C47.2946 38.182 46.4975 39.8184 45.7004 41.182C44.3719 43.6365 43.0434 45.8184 41.1835 48.0002C40.1207 49.6365 38.7922 51.2729 37.4637 52.6365C36.6666 54.0002 35.6038 55.0911 34.541 56.182Z" fill="url(#paint23_linear_2611_7400)" fill-opacity="0.2824"/>
<path d="M32.6812 56.1819C34.8068 53.1819 36.6667 49.9091 38.2609 46.6364C40.1208 42.8182 41.9807 39.2728 43.8406 35.4546C43.3092 37.091 42.7778 38.4546 41.9807 40.091C40.9179 42.5455 39.8551 45 38.5266 47.4546C37.4638 49.091 36.401 51 35.3382 52.6364C34.2754 53.7273 33.4783 54.8182 32.6812 56.1819Z" fill="url(#paint24_linear_2611_7400)" fill-opacity="0.2824"/>
<path d="M27.1014 56.7273L26.8357 55.091V53.4546L27.1014 55.091V56.7273Z" fill="white"/>
<path d="M25.5073 56.9998L24.9759 55.3634L24.7102 53.7271L25.2416 55.3634L25.5073 56.9998Z" fill="white"/>
<path d="M24.1788 57.5454L23.3817 56.1818L22.8503 54.5454L23.6474 55.909L24.1788 57.5454Z" fill="white"/>
<path d="M23.1159 57.8181L22.3188 56.4545L21.7874 55.0908L22.5845 56.4545L23.1159 57.8181Z" fill="white"/>
<path d="M22.053 58.3637L20.9902 57.2728L20.1931 55.9092L21.2559 57.0001L22.053 58.3637Z" fill="white"/>
<path d="M29.2271 56.9998L29.4928 55.3634L30.0242 53.7271L29.7585 55.3634L29.2271 56.9998Z" fill="white"/>
<path d="M30.8213 57.273L31.3527 55.6366L32.1498 54.2729L31.6184 55.9093L30.8213 57.273Z" fill="white"/>
<path d="M31.884 57.5456L32.4154 56.182L33.2125 54.8184L32.6811 56.182L31.884 57.5456Z" fill="white"/>
<path d="M32.6812 58.0908L33.4783 56.7271L34.5411 55.6362L33.744 56.9999L32.6812 58.0908Z" fill="white"/>
<path d="M40.3865 28.9092C40.6522 27.2729 40.9179 25.9092 41.1836 24.2729C41.1836 23.7274 41.1836 23.182 41.4493 22.3638C41.4493 22.091 41.4493 21.8183 41.4493 21.8183V21.5456C41.4493 21.2729 41.4493 21.2729 41.4493 21.0001C41.4493 20.7274 41.4493 20.4547 41.4493 20.182C41.4493 19.6365 41.4493 18.8183 41.4493 18.2729C41.4493 16.3638 41.4493 14.7274 41.1836 12.8183C40.9179 10.6365 40.1208 8.45468 39.058 6.54559C38.7923 5.72741 38.2609 5.18195 37.7295 4.36377C37.9952 4.6365 38.2609 5.18195 38.5266 5.72741C39.058 6.27286 39.3237 7.09104 39.5894 7.90922C40.3865 9.81832 40.9179 12.0001 41.4493 14.182C41.715 15.8183 41.715 17.7274 41.715 19.3638C41.715 19.9092 41.715 20.4547 41.715 21.0001V21.2729V21.5456C41.715 22.6365 41.4493 24.0001 41.1836 25.091C40.9179 26.182 40.6522 27.5456 40.3865 28.9092Z" fill="#DDFF00" fill-opacity="0.5255"/>
<path d="M45.9661 28.9093C46.2318 27.5456 46.4975 25.9093 46.7632 24.5456C46.7632 24.0002 46.7632 23.4547 47.0289 22.9093C47.0289 22.6365 47.0289 22.6365 47.0289 22.3638V22.0911C47.0289 21.8184 47.0289 21.8184 47.0289 21.5456C47.0289 21.2729 47.0289 21.0002 47.0289 21.0002C47.0289 20.4547 47.0289 19.9093 47.0289 19.3638C47.0289 17.7275 47.0289 16.0911 46.7632 14.4547C46.4975 12.5456 45.7004 10.6365 44.6376 8.72745C44.3719 8.182 43.8405 7.36381 43.3091 6.81836C43.5748 7.09109 43.8405 7.63654 44.1062 7.90927C44.6376 8.45472 44.9033 9.2729 45.169 9.81836C45.9661 11.4547 46.4975 13.3638 47.0289 15.5456C47.2946 17.182 47.2946 18.5456 47.2946 20.182C47.2946 20.7275 47.2946 21.2729 47.2946 21.5456V21.8184C47.2946 21.8184 47.2946 21.8184 47.2946 22.0911C47.2946 23.182 47.0289 24.2729 46.7632 25.3638C46.4975 26.4547 46.2318 27.8184 45.9661 28.9093Z" fill="#DDFF00" fill-opacity="0.5255"/>
<path d="M32.6812 60.8182C31.3527 60 29.2271 59.7273 27.1015 59.7273C24.9759 59.7273 23.116 60 22.0532 60.8182V60.5455C23.116 60 25.2416 59.4546 27.3672 59.4546C29.2271 59.4546 31.3527 59.7273 32.6812 60.8182Z" fill="url(#paint25_linear_2611_7400)"/>
<path d="M27.3672 63.2726C26.0387 63.2726 24.7102 63.2726 23.9131 62.9999C23.116 62.7272 22.3188 62.4545 22.3188 62.1817C22.3188 61.6363 23.116 61.3635 23.9131 61.3635C24.7102 61.0908 26.0387 61.0908 27.3672 61.0908C28.6957 61.0908 30.0242 61.3635 30.8213 61.3635C31.6184 61.6363 32.4155 61.909 32.4155 62.1817C32.4155 62.7272 31.6184 62.9999 30.8213 62.9999C30.0242 63.2726 28.6957 63.2726 27.3672 63.2726ZM27.3672 63.2726C28.6957 63.2726 30.0242 63.2726 30.8213 62.9999C31.3527 62.9999 31.6184 62.7272 31.8841 62.7272C32.1498 62.4545 32.1498 62.4545 32.1498 62.4545C32.1498 62.4545 32.1498 62.1817 31.8841 62.1817C31.6184 62.1817 31.3527 61.909 30.8213 61.909C30.0242 61.6363 28.6957 61.6363 27.3672 61.6363C26.0387 61.6363 24.7102 61.6363 23.9131 61.909C23.3817 61.909 23.116 62.1817 22.8503 62.1817C22.5846 62.4545 22.5845 62.4545 22.5845 62.4545C22.5845 62.4545 22.5846 62.7272 22.8503 62.7272C23.116 62.4545 23.3817 62.7272 23.9131 62.7272C24.7102 62.9999 26.0387 63.2726 27.3672 63.2726Z" fill="url(#paint26_linear_2611_7400)"/>
<path d="M1.0628 22.0909C0.797101 22.0909 0.2657 21.8182 0 21.5455C0.797101 21.8182 1.0628 21.8182 1.5942 21.5455C2.1256 21.2727 2.657 20.4545 3.18841 19.0909H3.45411C4.78261 20.7273 6.11111 19.9091 7.70531 17.4545H7.97101C10.0966 19.3636 11.6908 18.2727 13.285 16.3636H13.5507C15.6763 18.5455 18.0676 17.7273 20.7246 15.2727C22.8502 16.9091 24.9758 16.9091 27.1014 15C29.7585 16.6364 32.4155 17.1818 34.8068 15.5455C37.1981 17.4545 39.5894 17.4545 41.715 16.3636C43.5749 18 45.1691 18.8182 47.029 17.7273C48.6232 19.9091 49.9517 20.7273 51.5459 19.6364H51.8116C52.6087 21.5455 53.4058 22.3636 54.7343 21.2727V21.5455C53.4058 22.6364 52.343 21.8182 51.5459 20.1818V19.9091L51.2802 20.1818C49.9517 21.2727 48.3575 20.1818 47.029 18.5455L46.7633 18.2727L46.4976 18.5455C44.9034 19.3636 43.5749 18.8182 41.9807 17.7273L41.4493 17.1818L41.1836 17.4545C39.058 18.2727 37.1981 18 35.0725 16.6364L34.8068 16.3636L34.5411 16.0909C32.1498 17.1818 30.0242 16.9091 27.6328 15.5455L27.1014 15.2727L26.57 15.5455C24.7101 16.9091 22.5845 16.9091 20.7246 15.5455H20.4589L19.9275 15.8182C17.5362 17.7273 15.4106 18.5455 13.285 16.6364L13.0193 16.3636L12.7536 16.6364C11.4251 18.2727 10.0966 19.3636 7.97101 17.7273H7.70531L7.43961 18C6.11111 19.9091 4.78261 20.7273 3.45411 19.6364V19.3636L3.18841 19.6364C2.657 20.7273 2.1256 21.2727 1.8599 21.8182C1.5942 21.8182 1.3285 22.0909 1.0628 22.0909Z" fill="white" fill-opacity="0.5451"/>
<path d="M22.3189 71.1817C11.9566 61.0908 4.25128 43.909 3.18848 19.0908H3.45418C4.25128 43.909 11.9566 61.0908 22.3189 71.1817Z" fill="url(#paint27_linear_2611_7400)"/>
<path d="M32.4155 70.6362C42.7778 60.818 50.7489 44.1817 51.8117 19.6362H51.546C50.7489 43.909 42.7778 60.818 32.4155 70.6362Z" fill="url(#paint28_linear_2611_7400)"/>
<path d="M31.3525 72.2726C37.9951 57.818 40.9178 38.7271 41.4492 16.6362H41.7149C40.9178 38.7271 37.9951 58.0908 31.3525 72.2726Z" fill="url(#paint29_linear_2611_7400)"/>
<path d="M32.4154 70.3638H22.3188L22.0531 75.0001C21.7874 75.8183 22.3188 77.182 23.3816 77.182C26.0386 78.0001 28.9613 77.7274 31.884 77.182C32.6811 76.9092 33.2125 75.8183 33.2125 75.0001L32.4154 70.3638Z" fill="url(#paint30_linear_2611_7400)"/>
<path d="M27.8984 77.9999V70.6362H32.4153L32.9467 75.2726C33.2124 76.0908 32.4153 77.1817 31.6182 77.4544C30.5554 77.7271 29.4926 77.7271 28.4298 77.9999H27.8984Z" fill="url(#paint31_linear_2611_7400)"/>
<path d="M27.3672 78.0001H27.1015H26.8358H26.5701L26.8358 77.7274L26.5701 77.4547L26.3044 77.7274L26.5701 78.0001H26.3044H26.0387H25.773L25.5073 77.7274H25.2416L24.9759 77.4547L24.7102 77.7274H24.4445L23.9131 77.182V77.4547H23.6474L23.3817 77.182L23.116 77.4547H22.8503V77.182V76.9092V76.6365V76.3638L22.5846 76.091V75.8183V75.5456V75.2729V75.0001V74.7274L22.8503 75.0001V74.7274L22.5846 74.4547V74.182L22.8503 73.9092V74.182V73.6365V73.3638V73.091L23.116 73.3638L23.3817 73.091L23.116 72.8183V72.5456L23.3817 72.2729L23.116 72.0001V71.7274L23.3817 72.0001L23.6474 71.7274L22.3189 70.9092H22.5846L22.8503 71.4547L23.116 70.9092L22.8503 70.6365H23.116V70.9092L23.3817 70.6365H23.6474L23.116 70.9092L23.3817 71.182L23.6474 70.9092L23.9131 70.6365V70.3638H24.1788H24.4445L24.1788 70.9092L24.4445 71.182L24.7102 70.9092L24.4445 70.6365H24.7102V70.9092L24.9759 70.3638H25.2416H25.5073L25.2416 70.6365L25.5073 70.9092H26.0387L25.773 70.6365H26.0387L26.3044 70.9092L26.5701 70.6365H26.8358L27.1015 70.9092L27.3672 70.6365H27.8986H28.43L28.6957 70.9092L28.9614 70.6365H29.2271H29.4928L29.7585 70.9092L30.0242 70.6365H30.2899L30.5556 70.9092L30.8213 70.6365H31.087L31.3527 70.9092L31.6184 70.6365V70.3638H31.8841H32.1498V70.6365V70.9092L32.4155 70.6365H32.6812L32.9469 70.9092L33.2126 70.3638V70.6365L32.9469 71.182V71.4547L33.2126 71.182V71.4547V71.7274L33.4783 72.0001V72.5456L33.2126 72.8183V73.3638L32.9469 73.091L32.6812 73.3638L32.9469 73.6365V73.3638V74.182L32.6812 73.9092L32.4155 74.182L32.6812 74.4547V75.0001L32.4155 75.2729L32.6812 75.5456C32.6812 76.091 32.4155 76.3638 31.8841 76.6365H31.6184L31.8841 76.3638L31.6184 76.091L31.8841 76.9092L31.6184 77.4547H31.3527H31.087L30.8213 77.182L30.5556 77.4547H30.0242L30.2899 77.182L30.0242 76.9092L29.7585 77.182L30.0242 77.4547H29.7585L29.4928 77.182L29.2271 77.4547H28.9614H28.6957V77.182L28.43 76.9092L28.1643 77.182L28.43 77.4547H28.1643H27.8986L27.3672 78.0001L27.6329 77.7274L27.3672 77.4547L27.1015 77.7274L27.3672 78.0001ZM27.1015 77.7274L27.3672 77.4547V77.182L27.1015 77.7274ZM28.1643 77.7274L28.43 77.4547V77.182L28.1643 77.7274ZM25.773 77.7274V77.182L25.5073 77.4547L25.773 77.7274ZM25.2416 77.7274V77.182L24.9759 77.4547L25.2416 77.7274ZM27.8986 77.4547L28.1643 77.182L27.8986 76.9092L27.6329 77.182L27.8986 77.4547ZM26.8358 77.4547L27.1015 77.182L26.5701 76.9092V77.182L26.8358 77.4547ZM28.9614 77.4547L29.2271 76.9092L28.9614 76.6365L28.6957 77.182L28.9614 77.4547ZM24.1788 77.4547V76.9092L23.9131 77.182L24.1788 77.4547ZM31.087 77.4547V76.9092L30.8213 77.182L31.087 77.4547ZM26.0387 77.4547V76.9092L25.773 77.182L26.0387 77.4547ZM25.5073 77.4547V76.9092L25.2416 77.182L25.5073 77.4547ZM30.2899 77.4547L30.5556 77.182L30.2899 76.9092L30.0242 77.182L30.2899 77.4547ZM23.6474 77.182V76.6365V76.9092V77.182ZM23.116 77.182V76.6365L22.8503 76.9092L23.116 77.182ZM31.3527 77.182L31.6184 76.6365L31.3527 76.3638L31.087 76.9092L31.3527 77.182ZM28.1643 76.9092V76.3638L27.8986 76.6365L28.1643 76.9092ZM27.1015 76.9092V76.3638L26.8358 76.6365L27.1015 76.9092ZM27.6329 76.9092L27.8986 76.6365V76.3638L27.6329 76.9092ZM26.3044 76.9092L26.5701 76.6365L26.3044 76.3638L26.0387 76.6365L26.3044 76.9092ZM28.6957 76.9092L28.9614 76.3638V76.091L28.6957 76.9092ZM23.9131 76.9092V76.3638L23.6474 76.6365L23.9131 76.9092ZM25.773 76.9092V76.3638L25.5073 76.6365L25.773 76.9092ZM29.4928 76.9092V76.3638L29.2271 76.6365L29.4928 76.9092ZM30.5556 76.9092V76.3638H30.2899L30.5556 76.9092ZM24.7102 76.9092V76.3638H24.4445L24.7102 76.9092ZM23.3817 76.9092L23.116 76.3638V76.6365L23.3817 76.9092ZM32.4155 76.9092L32.6812 76.6365L32.4155 76.3638H32.1498L32.4155 76.9092ZM27.3672 76.6365L27.6329 76.3638L27.3672 76.091L27.1015 76.3638L27.3672 76.6365ZM28.43 76.6365L28.6957 76.091L28.43 75.8183L28.1643 76.3638L28.43 76.6365ZM26.0387 76.3638L26.3044 76.091L26.0387 75.8183L25.773 76.091L26.0387 76.3638ZM29.7585 76.3638L30.0242 76.091L29.7585 75.8183L29.4928 76.091L29.7585 76.3638ZM26.5701 76.3638V75.8183V76.091V76.3638ZM31.6184 76.3638V75.8183L31.3527 76.091L31.6184 76.3638ZM23.6474 76.3638V75.8183L23.3817 76.091L23.6474 76.3638ZM24.9759 76.3638V75.8183L24.7102 76.091L24.9759 76.3638ZM30.8213 76.3638L31.087 75.8183L30.8213 75.5456L30.5556 76.091L30.8213 76.3638ZM22.5846 76.3638V75.8183L22.3189 76.091L22.5846 76.3638ZM32.6812 76.3638V75.8183L32.4155 76.091L32.6812 76.3638ZM24.4445 76.091V75.5456L24.1788 75.8183L24.4445 76.091ZM27.6329 76.091V75.5456L27.3672 75.8183L27.6329 76.091ZM27.1015 76.091L27.3672 75.8183L27.1015 75.5456L26.8358 75.8183L27.1015 76.091ZM28.1643 76.091L28.43 75.5456V75.2729L28.1643 76.091ZM26.3044 76.091V75.5456L26.0387 75.8183L26.3044 76.091ZM28.9614 76.091V75.5456L28.6957 75.8183L28.9614 76.091ZM31.8841 76.091L32.1498 75.8183L31.8841 75.2729L31.6184 75.5456L31.8841 76.091ZM25.2416 75.8183V75.2729L24.9759 75.5456L25.2416 75.8183ZM30.0242 75.8183V75.2729L29.7585 75.5456L30.0242 75.8183ZM25.773 75.8183L26.0387 75.5456L25.773 75.2729V75.8183ZM29.2271 75.8183L29.4928 75.5456V75.2729L29.2271 75.8183ZM22.8503 75.8183L22.5846 75.2729V75.5456L22.8503 75.8183ZM24.7102 75.8183V75.2729L24.4445 75.5456L24.7102 75.8183ZM23.9131 75.8183V75.2729L23.6474 75.5456L23.9131 75.8183ZM31.3527 75.8183V75.2729L31.087 75.5456L31.3527 75.8183ZM27.8986 75.8183L28.1643 75.2729L27.8986 75.0001L27.6329 75.5456L27.8986 75.8183ZM26.5701 75.5456L26.8358 75.2729L26.5701 75.0001L26.3044 75.2729L26.5701 75.5456ZM29.2271 75.5456L29.4928 75.2729L29.2271 74.7274L28.9614 75.0001L29.2271 75.5456ZM27.3672 75.5456V75.0001L27.1015 75.2729L27.3672 75.5456ZM32.1498 75.5456V75.0001H31.8841L32.1498 75.5456ZM23.116 75.5456V75.0001L22.8503 75.2729L23.116 75.5456ZM25.5073 75.5456L25.773 75.2729L25.5073 75.0001L25.2416 75.2729L25.5073 75.5456ZM30.2899 75.5456L30.5556 75.0001L30.2899 74.7274L30.0242 75.2729L30.2899 75.5456ZM24.9759 75.2729V74.7274L24.7102 75.0001L24.9759 75.2729ZM24.1788 75.2729V74.7274L23.9131 75.0001L24.1788 75.2729ZM31.6184 75.2729L31.8841 75.0001L31.6184 74.7274L31.3527 75.0001L31.6184 75.2729ZM27.6329 75.0001L27.8986 74.4547L27.6329 74.182L27.3672 74.7274L27.6329 75.0001ZM27.1015 75.0001V74.4547L26.8358 74.7274L27.1015 75.0001ZM28.1643 75.0001V74.4547L27.8986 74.7274L28.1643 75.0001ZM32.4155 75.0001L32.6812 74.7274L32.4155 74.4547L32.1498 74.7274L32.4155 75.0001ZM25.773 75.0001V74.4547L25.5073 74.7274L25.773 75.0001ZM29.4928 75.0001V74.4547L29.2271 74.7274L29.4928 75.0001ZM26.3044 75.0001L26.5701 74.7274L26.3044 74.4547V75.0001ZM28.6957 75.0001L28.9614 74.7274V74.4547L28.6957 75.0001ZM25.2416 75.0001L25.5073 74.7274L25.2416 74.4547L24.9759 74.7274L25.2416 75.0001ZM30.0242 75.0001L30.2899 74.4547V74.182L30.0242 75.0001ZM24.4445 75.0001V74.4547L24.1788 74.7274L24.4445 75.0001ZM30.5556 75.0001V74.4547L30.2899 74.7274L30.5556 75.0001ZM23.3817 74.7274V74.182L23.116 74.4547L23.3817 74.7274ZM31.8841 74.7274V74.182L31.6184 74.4547L31.8841 74.7274ZM27.3672 74.7274L27.6329 74.182L27.3672 73.9092L27.1015 74.4547L27.3672 74.7274ZM28.43 74.7274L28.6957 74.4547L28.43 74.182L28.1643 74.4547L28.43 74.7274ZM22.3189 74.7274V74.182L22.0532 74.4547L22.3189 74.7274ZM26.0387 74.7274L26.3044 74.4547L26.0387 74.182L25.773 74.4547L26.0387 74.7274ZM29.7585 74.7274L30.0242 74.182L29.7585 73.9092L29.4928 74.4547L29.7585 74.7274ZM27.8986 74.4547V73.9092L27.6329 74.182L27.8986 74.4547ZM25.5073 74.4547V73.9092L25.2416 74.182L25.5073 74.4547ZM24.9759 74.4547L25.2416 74.182L24.9759 73.9092L24.7102 74.182L24.9759 74.4547ZM31.087 74.4547L31.3527 74.182L30.8213 73.6365L30.5556 73.9092L31.087 74.4547ZM23.6474 74.4547V73.9092L23.3817 74.182L23.6474 74.4547ZM32.1498 74.4547L32.4155 74.182L32.1498 73.6365L31.8841 73.9092L32.1498 74.4547ZM26.3044 74.182V73.6365H26.0387L26.3044 74.182ZM28.9614 74.182V73.6365H28.6957L28.9614 74.182ZM26.8358 74.182L27.1015 73.6365L26.8358 73.3638V74.182ZM28.1643 74.182L28.43 73.9092L28.1643 73.6365L27.8986 73.9092L28.1643 74.182ZM27.6329 74.182V73.6365H27.3672L27.6329 74.182ZM25.773 74.182V73.6365L25.5073 73.3638V73.6365L25.773 74.182ZM29.4928 74.182L29.7585 73.6365V73.3638L29.4928 74.182ZM30.0242 73.9092V73.3638L29.7585 73.6365L30.0242 73.9092ZM25.2416 73.9092V73.3638L24.9759 73.6365L25.2416 73.9092ZM23.9131 73.9092V73.3638L23.6474 73.6365L23.9131 73.9092ZM31.3527 73.9092V73.3638L31.087 73.6365L31.3527 73.9092ZM22.8503 73.9092V73.3638L22.5846 73.6365L22.8503 73.9092ZM32.4155 73.9092V73.3638L32.1498 73.6365L32.4155 73.9092ZM24.4445 73.9092L24.7102 73.6365V73.3638L24.4445 73.9092ZM30.5556 73.9092L30.8213 73.6365V73.3638L30.5556 73.9092ZM26.5701 73.6365L26.8358 73.091L26.5701 72.8183L26.3044 73.3638L26.5701 73.6365ZM29.2271 73.6365L29.4928 73.091L29.2271 72.8183L28.9614 73.3638L29.2271 73.6365ZM27.8986 73.6365L28.1643 73.3638L27.8986 73.091L27.6329 73.3638L27.8986 73.6365ZM25.5073 73.6365L25.773 73.3638L25.5073 73.091L25.2416 73.3638L25.5073 73.6365ZM30.2899 73.6365L30.5556 73.3638L30.2899 73.091L30.0242 73.3638L30.2899 73.6365ZM26.0387 73.6365V73.091L25.773 73.3638L26.0387 73.6365ZM28.43 73.6365V73.091L28.1643 73.3638L28.43 73.6365ZM24.1788 73.6365L24.4445 73.3638L24.1788 73.091H23.9131L24.1788 73.6365ZM31.6184 73.6365L31.8841 73.3638L31.6184 73.091L31.3527 73.3638L31.6184 73.6365ZM23.116 73.6365V73.091L22.8503 73.3638L23.116 73.6365ZM26.3044 73.091L26.5701 72.5456L26.3044 72.2729L26.0387 72.8183L26.3044 73.091ZM28.6957 73.091L28.9614 72.5456L28.6957 72.2729L28.43 72.8183L28.6957 73.091ZM28.1643 73.091V72.5456L27.8986 72.8183L28.1643 73.091ZM27.1015 73.091V72.5456L26.8358 72.8183L27.1015 73.091ZM25.773 73.091V72.5456L25.5073 72.8183L25.773 73.091ZM29.4928 73.091V72.5456L29.2271 72.8183L29.4928 73.091ZM27.6329 73.091L27.8986 72.8183L27.6329 72.5456V73.091ZM23.3817 73.091V72.5456L23.116 72.8183L23.3817 73.091ZM31.8841 73.091V72.5456L31.6184 72.8183L31.8841 73.091ZM24.4445 73.091V72.5456L24.1788 72.8183L24.4445 73.091ZM30.8213 73.091V72.5456L30.5556 72.8183L30.8213 73.091ZM24.9759 73.091L25.2416 72.8183V72.5456L24.9759 73.091ZM30.0242 73.091L30.2899 72.8183V72.5456L30.0242 73.091ZM23.9131 73.091L24.1788 72.8183V72.5456L23.9131 73.091ZM31.087 73.091L31.3527 72.8183V72.5456L31.087 73.091ZM27.3672 72.8183L27.6329 72.5456L27.3672 72.2729L27.1015 72.5456L27.3672 72.8183ZM28.43 72.8183L28.6957 72.2729L28.43 72.0001L28.1643 72.5456L28.43 72.8183ZM26.0387 72.8183L26.3044 72.2729L26.0387 72.0001L25.773 72.5456L26.0387 72.8183ZM29.7585 72.8183L30.0242 72.5456L29.7585 72.2729L29.4928 72.5456L29.7585 72.8183ZM22.5846 72.8183V72.2729L22.3189 72.5456L22.5846 72.8183ZM23.6474 72.5456L23.9131 72.2729L23.6474 72.0001L23.3817 72.2729L23.6474 72.5456ZM32.1498 72.5456V72.0001L31.8841 72.2729L32.1498 72.5456ZM24.7102 72.5456L24.9759 72.2729L24.7102 72.0001L24.4445 72.2729L24.7102 72.5456ZM31.087 72.5456L31.3527 72.2729L31.087 72.0001L30.8213 72.2729L31.087 72.5456ZM26.5701 72.5456V72.0001V72.2729V72.5456ZM29.2271 72.5456V72.0001L28.9614 72.2729L29.2271 72.5456ZM22.8503 72.2729V71.7274L22.5846 72.0001L22.8503 72.2729ZM32.4155 72.2729V71.7274L32.1498 72.0001L32.4155 72.2729ZM23.9131 72.2729V71.7274L23.6474 72.0001L23.9131 72.2729ZM31.3527 72.2729V71.7274L31.087 72.0001L31.3527 72.2729ZM25.2416 72.2729V71.7274L24.9759 72.0001L25.2416 72.2729ZM30.0242 72.2729V71.7274L29.7585 72.0001L30.0242 72.2729ZM27.6329 72.2729V71.7274L27.3672 72.0001L27.6329 72.2729ZM26.8358 72.0001L27.1015 71.7274L26.8358 71.4547L26.5701 71.7274L26.8358 72.0001ZM28.1643 72.0001L28.43 71.4547L28.1643 71.182V72.0001ZM25.5073 72.0001L25.773 71.4547V71.182L25.5073 72.0001ZM29.4928 72.0001L29.7585 71.7274L29.4928 71.4547L29.2271 71.7274L29.4928 72.0001ZM26.3044 72.0001V71.4547L26.0387 71.7274L26.3044 72.0001ZM28.9614 72.0001V71.4547L28.6957 71.7274L28.9614 72.0001ZM24.4445 72.0001L24.7102 71.7274V71.4547L24.4445 72.0001ZM30.5556 72.0001L30.8213 71.7274V71.4547L30.5556 72.0001ZM23.116 71.7274L23.3817 71.4547L23.116 71.182L22.8503 71.4547L23.116 71.7274ZM24.1788 71.7274L24.4445 71.4547L24.1788 71.182L23.9131 71.4547L24.1788 71.7274ZM31.6184 71.7274V71.182L31.3527 71.4547L31.6184 71.7274ZM25.5073 71.7274L25.773 71.182L25.5073 70.9092L25.2416 71.4547L25.5073 71.7274ZM30.2899 71.7274L30.5556 71.4547L30.2899 71.182L30.0242 71.4547L30.2899 71.7274ZM27.8986 71.7274L28.1643 71.182L27.8986 70.9092L27.6329 71.4547L27.8986 71.7274ZM26.5701 71.7274L26.8358 71.4547L26.5701 70.9092L26.3044 71.182L26.5701 71.7274ZM29.2271 71.7274L29.4928 71.4547L29.2271 70.9092L28.9614 71.182L29.2271 71.7274ZM29.7585 71.7274V71.182L29.4928 71.4547L29.7585 71.7274ZM27.3672 71.7274V71.182L27.1015 71.4547L27.3672 71.7274ZM31.8841 71.4547V70.9092H31.6184L31.8841 71.4547ZM30.8213 71.182V70.6365L30.5556 70.9092L30.8213 71.182ZM30.0242 71.182L30.2899 70.9092L30.0242 70.6365L29.7585 70.9092L30.0242 71.182ZM29.4928 71.182V70.6365H29.2271L29.4928 71.182ZM27.6329 71.182L27.8986 70.6365L27.6329 70.3638L27.3672 70.9092L27.6329 71.182ZM27.1015 71.182V70.6365L26.8358 70.9092L27.1015 71.182ZM28.1643 71.182V70.6365L27.8986 70.9092L28.1643 71.182ZM26.3044 71.182L26.5701 70.9092V70.6365L26.3044 71.182ZM28.6957 71.182L28.9614 70.9092L28.6957 70.6365V71.182Z" fill="white" fill-opacity="0.2627"/>
<path d="M27.3672 71.7272C30.0242 71.7272 32.4155 71.1818 32.4155 70.6363C32.4155 70.0909 30.2899 69.5454 27.3672 69.5454C24.7102 69.5454 22.3188 70.0909 22.3188 70.6363C22.3188 71.1818 24.7102 71.7272 27.3672 71.7272Z" fill="url(#paint32_linear_2611_7400)"/>
<path d="M27.3672 69.2729C26.0387 69.2729 24.7102 69.273 23.9131 69.5457C23.116 69.8184 22.3188 70.0911 22.3188 70.3639C22.3188 70.9093 23.116 71.182 23.9131 71.182C24.7102 71.4548 26.0387 71.4548 27.3672 71.4548C28.6957 71.4548 30.0242 71.4548 30.8213 71.182C31.6184 70.9093 32.4155 70.6366 32.4155 70.3639C32.4155 69.8184 31.6184 69.5457 30.8213 69.5457C30.0242 69.273 28.6957 69.2729 27.3672 69.2729ZM27.3672 69.2729C28.6957 69.2729 30.0242 69.273 30.8213 69.5457C31.3527 69.5457 31.6184 69.8184 31.8841 69.8184C32.1498 70.0911 32.1498 70.0911 32.1498 70.0911C32.1498 70.0911 32.1498 70.3639 31.8841 70.3639C31.6184 70.3639 31.3527 70.6366 30.8213 70.6366C30.0242 70.9093 28.6957 70.9093 27.3672 70.9093C26.0387 70.9093 24.7102 70.9093 23.9131 70.6366C23.3817 70.6366 23.116 70.3639 22.8503 70.3639C22.5846 70.0911 22.5845 70.0911 22.5845 70.0911C22.5845 70.0911 22.5846 69.8184 22.8503 69.8184C23.116 69.8184 23.3817 69.5457 23.9131 69.5457C24.7102 69.5457 26.0387 69.2729 27.3672 69.2729Z" fill="url(#paint33_linear_2611_7400)"/>
<path d="M22.5845 70.6362C23.116 67.6362 22.8502 64.9089 22.3188 62.1816H22.5845C23.116 64.9089 23.3817 67.6362 22.5845 70.6362Z" fill="#B2B2B2"/>
<path d="M32.1498 70.6364C31.6184 67.6364 31.8841 64.9092 32.4155 61.9092H32.1498C31.6184 64.9092 31.3527 67.9092 32.1498 70.6364Z" fill="#B2B2B2"/>
<path d="M24.1788 71.1817C24.7102 67.909 24.4445 64.6363 23.9131 61.0908H24.1788C24.7102 64.6363 24.9759 67.909 24.1788 71.1817Z" fill="#B2B2B2"/>
<path d="M30.5556 71.1817C30.0242 67.909 30.2899 64.6363 30.8213 61.0908H30.5556C30.2899 64.6363 30.0242 67.909 30.5556 71.1817Z" fill="#B2B2B2"/>
<path d="M28.9613 71.4545C28.4299 67.909 28.6956 64.6363 29.227 61.0908H28.9613C28.4299 64.6363 28.1642 67.909 28.9613 71.4545Z" fill="#B2B2B2"/>
<path d="M26.0387 71.4547C26.5701 67.9093 26.3044 64.3638 25.7729 60.8184H26.0387C26.5701 64.3638 26.8358 67.9093 26.0387 71.4547Z" fill="#B2B2B2"/>
<path d="M22.5845 70.9092C21.5217 72.8183 21.5217 73.6365 22.5845 73.9092C23.6473 73.6365 23.3816 72.0001 22.5845 70.9092Z" fill="url(#paint34_linear_2611_7400)"/>
<path d="M22.5846 71.1817L22.0532 70.909L22.5846 70.6362H22.8503L22.5846 71.1817Z" fill="url(#paint35_linear_2611_7400)"/>
<path d="M23.3816 71.1816C22.3188 73.0907 22.3188 73.9089 23.3816 74.1816C24.1787 73.9089 23.913 72.2725 23.3816 71.1816Z" fill="url(#paint36_linear_2611_7400)"/>
<path d="M23.3817 71.1817L22.8503 70.909L23.3817 70.6362H23.6474L23.3817 71.1817Z" fill="url(#paint37_linear_2611_7400)"/>
<path d="M32.4153 70.9092C33.4781 72.8183 33.4781 73.6365 32.4153 73.9092C31.3525 73.6365 31.6182 71.7274 32.4153 70.9092Z" fill="url(#paint38_linear_2611_7400)"/>
<path d="M32.4154 70.9092L32.9468 70.6365L32.4154 70.3638H32.1497L32.4154 70.9092Z" fill="url(#paint39_linear_2611_7400)"/>
<path d="M31.6185 70.9092C32.6813 72.8183 32.6813 73.6365 31.6185 73.9092C30.5557 73.6365 30.8214 72.0001 31.6185 70.9092Z" fill="url(#paint40_linear_2611_7400)"/>
<path d="M31.6182 71.1817L32.1496 70.909L31.6182 70.6362H31.3525L31.6182 71.1817Z" fill="url(#paint41_linear_2611_7400)"/>
<path d="M13.0192 17.1818V16.6364C13.0192 11.7273 14.3477 7.90909 16.4733 4.63636H16.739C13.2849 4.63636 10.3622 9.27273 8.23663 15.5455L7.70523 16.9091V15.8182C8.23663 12.2727 9.56514 9 11.6907 6.54545L12.2221 6L10.8936 6.27273C8.23663 7.09091 5.84533 10.6364 3.98543 15.2727L3.71973 16.3636C4.78253 11.7273 6.90813 7.36364 11.6907 3.81818C13.2849 3 14.3477 2.45455 15.6762 2.18182H15.9419C17.2704 1.09091 18.599 0.818182 19.9275 1.09091H20.1932C21.256 0.545455 22.3188 0.545455 23.6473 0.818182L23.913 0.545455C24.9758 0 25.7729 0 26.8357 0L27.3671 0.272727H27.1014C24.4444 1.63636 22.0531 5.72727 20.7246 11.4545L20.4589 12.8182V12.5455C20.7246 9.54545 21.256 7.09091 22.0531 4.63636L22.5845 3.27273L21.7874 3.54545C18.3333 4.90909 14.6134 9.81818 13.0192 16.9091V17.1818Z" fill="white" fill-opacity="0.3176"/>
<path d="M27.3672 65.9999C26.0387 65.9999 24.9759 65.9999 24.1788 65.7271C23.3817 65.7271 22.8503 65.4544 22.8503 65.4544C22.8503 65.1817 23.3817 65.1817 24.1788 65.1817C24.9759 65.1817 26.0387 64.909 27.3672 64.909C28.6958 64.909 29.7586 64.909 30.5557 65.1817C31.3528 65.1817 31.8842 65.4544 31.8842 65.4544C31.8842 65.7271 31.3528 65.7271 30.5557 65.7271C29.7586 65.9999 28.6958 65.9999 27.3672 65.9999ZM27.3672 65.9999C28.6958 65.9999 29.7586 65.9999 30.5557 65.7271C31.0871 65.7271 31.3528 65.7271 31.6185 65.4544C31.8842 65.4544 31.8842 65.4544 31.8842 65.1817C31.8842 65.1817 31.8842 65.1817 31.6185 64.909C31.3528 64.909 31.0871 64.909 30.5557 64.6362C29.7586 64.6362 28.6958 64.6362 27.3672 64.6362C26.0387 64.6362 24.9759 64.6362 24.1788 64.6362C23.6474 64.6362 23.3817 64.6362 23.116 64.909C22.8503 64.909 22.8503 64.909 22.8503 65.1817C22.8503 65.1817 22.8503 65.1817 23.116 65.4544C23.3817 65.4544 23.6474 65.4544 24.1788 65.7271C24.9759 65.7271 26.0387 65.9999 27.3672 65.9999Z" fill="#999999"/>
<defs>
<linearGradient id="paint0_linear_2611_7400" x1="24.0557" y1="28.9224" x2="10.7118" y2="30.1525" gradientUnits="userSpaceOnUse">
<stop stop-color="#118C00"/>
<stop offset="1" stop-color="#70D410"/>
</linearGradient>
<linearGradient id="paint1_linear_2611_7400" x1="6.97035" y1="30.5052" x2="10.6861" y2="30.1839" gradientUnits="userSpaceOnUse">
<stop stop-color="#007301"/>
<stop offset="1" stop-color="#DDFF00"/>
</linearGradient>
<linearGradient id="paint2_linear_2611_7400" x1="19.7872" y1="29.8127" x2="5.17628" y2="31.5068" gradientUnits="userSpaceOnUse">
<stop stop-color="#BABABA"/>
<stop offset="1" stop-color="#F7F7F7"/>
</linearGradient>
<linearGradient id="paint3_linear_2611_7400" x1="23.6269" y1="30.9004" x2="4.48259" y2="31.5217" gradientUnits="userSpaceOnUse">
<stop stop-color="#118C00"/>
<stop offset="1" stop-color="#70D410"/>
</linearGradient>
<linearGradient id="paint4_linear_2611_7400" x1="34.5799" y1="28.4437" x2="21.2606" y2="28.4437" gradientUnits="userSpaceOnUse">
<stop stop-color="#118C00"/>
<stop offset="1" stop-color="#70D410"/>
</linearGradient>
<linearGradient id="paint5_linear_2611_7400" x1="30.5064" y1="28.3232" x2="15.6352" y2="29.2475" gradientUnits="userSpaceOnUse">
<stop stop-color="#BABABA"/>
<stop offset="1" stop-color="#F7F7F7"/>
</linearGradient>
<linearGradient id="paint6_linear_2611_7400" x1="41.4933" y1="29.1187" x2="26.3675" y2="28.3521" gradientUnits="userSpaceOnUse">
<stop stop-color="#BABABA"/>
<stop offset="1" stop-color="#F7F7F7"/>
</linearGradient>
<linearGradient id="paint7_linear_2611_7400" x1="41.8217" y1="30.6449" x2="30.9976" y2="28.778" gradientUnits="userSpaceOnUse">
<stop stop-color="#118C00"/>
<stop offset="1" stop-color="#70D410"/>
</linearGradient>
<linearGradient id="paint8_linear_2611_7400" x1="48.1048" y1="32.5064" x2="33.0607" y2="29.0779" gradientUnits="userSpaceOnUse">
<stop stop-color="#BABABA"/>
<stop offset="1" stop-color="#F7F7F7"/>
</linearGradient>
<linearGradient id="paint9_linear_2611_7400" x1="56.8484" y1="34.8036" x2="34.8234" y2="29.8055" gradientUnits="userSpaceOnUse">
<stop stop-color="#118C00"/>
<stop offset="1" stop-color="#70D410"/>
</linearGradient>
<linearGradient id="paint10_linear_2611_7400" x1="64.2529" y1="36.8478" x2="36.0095" y2="30.8127" gradientUnits="userSpaceOnUse">
<stop stop-color="#BABABA"/>
<stop offset="1" stop-color="#F7F7F7"/>
</linearGradient>
<linearGradient id="paint11_linear_2611_7400" x1="37.3048" y1="60.1502" x2="26.5647" y2="59.4504" gradientUnits="userSpaceOnUse">
<stop stop-color="#996600"/>
<stop offset="1" stop-color="#F5C748"/>
</linearGradient>
<linearGradient id="paint12_linear_2611_7400" x1="17.6156" y1="61.0877" x2="24.3209" y2="59.7551" gradientUnits="userSpaceOnUse">
<stop stop-color="#996600"/>
<stop offset="1" stop-color="#F5C748"/>
</linearGradient>
<linearGradient id="paint13_linear_2611_7400" x1="27.386" y1="64.342" x2="27.386" y2="60.0277" gradientUnits="userSpaceOnUse">
<stop stop-color="#F5C748"/>
<stop offset="1" stop-color="#996600"/>
</linearGradient>
<linearGradient id="paint14_linear_2611_7400" x1="12.6664" y1="28.6153" x2="14.6858" y2="28.6696" gradientUnits="userSpaceOnUse">
<stop stop-color="#C7C7C7"/>
<stop offset="1" stop-color="white"/>
</linearGradient>
<linearGradient id="paint15_linear_2611_7400" x1="26.5416" y1="27.2549" x2="32.5845" y2="27.3274" gradientUnits="userSpaceOnUse">
<stop stop-color="white"/>
<stop offset="1" stop-color="#BABABA"/>
</linearGradient>
<linearGradient id="paint16_linear_2611_7400" x1="31.0274" y1="27.6132" x2="38.8021" y2="28.144" gradientUnits="userSpaceOnUse">
<stop stop-color="#DDFF00"/>
<stop offset="1" stop-color="#118C00"/>
</linearGradient>
<linearGradient id="paint17_linear_2611_7400" x1="34.9258" y1="27.4296" x2="44.4075" y2="28.301" gradientUnits="userSpaceOnUse">
<stop stop-color="white"/>
<stop offset="1" stop-color="#BABABA"/>
</linearGradient>
<linearGradient id="paint18_linear_2611_7400" x1="39.8401" y1="26.2876" x2="49.2914" y2="27.285" gradientUnits="userSpaceOnUse">
<stop stop-color="#DDFF00"/>
<stop offset="1" stop-color="#118C00"/>
</linearGradient>
<linearGradient id="paint19_linear_2611_7400" x1="23.6363" y1="27.119" x2="21.2876" y2="27.0129" gradientUnits="userSpaceOnUse">
<stop stop-color="#70D410"/>
<stop offset="1" stop-color="#DDFF00"/>
</linearGradient>
<linearGradient id="paint20_linear_2611_7400" x1="17.0384" y1="28.4867" x2="15.5076" y2="28.59" gradientUnits="userSpaceOnUse">
<stop stop-color="#F7F7F7"/>
<stop offset="1" stop-color="white"/>
</linearGradient>
<linearGradient id="paint21_linear_2611_7400" x1="11.9948" y1="28.2433" x2="10.5388" y2="28.3339" gradientUnits="userSpaceOnUse">
<stop stop-color="#70D410"/>
<stop offset="1" stop-color="#DDFF00"/>
</linearGradient>
<linearGradient id="paint22_linear_2611_7400" x1="7.36146" y1="29.1913" x2="5.90927" y2="29.2946" gradientUnits="userSpaceOnUse">
<stop stop-color="#F7F7F7"/>
<stop offset="1" stop-color="white"/>
</linearGradient>
<linearGradient id="paint23_linear_2611_7400" x1="43.1553" y1="42.5824" x2="40.143" y2="48.6816" gradientUnits="userSpaceOnUse">
<stop stop-color="#007301"/>
<stop offset="1" stop-color="#DDFF00"/>
</linearGradient>
<linearGradient id="paint24_linear_2611_7400" x1="41.9174" y1="38.5697" x2="37.5934" y2="47.0488" gradientUnits="userSpaceOnUse">
<stop stop-color="#007301"/>
<stop offset="1" stop-color="#DDFF00"/>
</linearGradient>
<linearGradient id="paint25_linear_2611_7400" x1="14.9644" y1="60.355" x2="31.8628" y2="60.1969" gradientUnits="userSpaceOnUse">
<stop stop-color="white"/>
<stop offset="1" stop-color="#F5C748"/>
</linearGradient>
<linearGradient id="paint26_linear_2611_7400" x1="19.3571" y1="61.9788" x2="29.937" y2="62.0588" gradientUnits="userSpaceOnUse">
<stop stop-color="white"/>
<stop offset="1" stop-color="#F5C748"/>
</linearGradient>
<linearGradient id="paint27_linear_2611_7400" x1="12.9791" y1="15.286" x2="12.7724" y2="47.7758" gradientUnits="userSpaceOnUse">
<stop stop-color="white"/>
<stop offset="1" stop-color="#CCCCCC"/>
</linearGradient>
<linearGradient id="paint28_linear_2611_7400" x1="42.2132" y1="15.9295" x2="42.4122" y2="47.718" gradientUnits="userSpaceOnUse">
<stop stop-color="white"/>
<stop offset="1" stop-color="#CCCCCC"/>
</linearGradient>
<linearGradient id="paint29_linear_2611_7400" x1="36.4049" y1="12.5035" x2="36.8616" y2="47.2609" gradientUnits="userSpaceOnUse">
<stop stop-color="white"/>
<stop offset="1" stop-color="#CCCCCC"/>
</linearGradient>
<linearGradient id="paint30_linear_2611_7400" x1="22.0289" y1="74.0314" x2="24.593" y2="74.086" gradientUnits="userSpaceOnUse">
<stop stop-color="#F5C748"/>
<stop offset="1" stop-color="#996600"/>
</linearGradient>
<linearGradient id="paint31_linear_2611_7400" x1="33.908" y1="73.3905" x2="30.1958" y2="73.8929" gradientUnits="userSpaceOnUse">
<stop stop-color="#F5C748"/>
<stop offset="1" stop-color="#996600"/>
</linearGradient>
<linearGradient id="paint32_linear_2611_7400" x1="27.386" y1="68.1635" x2="27.386" y2="72.4759" gradientUnits="userSpaceOnUse">
<stop stop-color="#F5C748"/>
<stop offset="1" stop-color="#996600"/>
</linearGradient>
<linearGradient id="paint33_linear_2611_7400" x1="19.3558" y1="70.5234" x2="29.9353" y2="70.443" gradientUnits="userSpaceOnUse">
<stop stop-color="white"/>
<stop offset="1" stop-color="#F5C748"/>
</linearGradient>
<linearGradient id="paint34_linear_2611_7400" x1="21.4542" y1="72.3418" x2="23.0144" y2="72.5831" gradientUnits="userSpaceOnUse">
<stop stop-color="white"/>
<stop offset="1" stop-color="#7F7F7F"/>
</linearGradient>
<linearGradient id="paint35_linear_2611_7400" x1="22.2166" y1="70.7281" x2="22.7767" y2="70.8472" gradientUnits="userSpaceOnUse">
<stop stop-color="white"/>
<stop offset="1" stop-color="#999999"/>
</linearGradient>
<linearGradient id="paint36_linear_2611_7400" x1="22.2019" y1="72.5382" x2="23.756" y2="72.7766" gradientUnits="userSpaceOnUse">
<stop stop-color="white"/>
<stop offset="1" stop-color="#7F7F7F"/>
</linearGradient>
<linearGradient id="paint37_linear_2611_7400" x1="22.9683" y1="70.921" x2="23.5255" y2="71.0432" gradientUnits="userSpaceOnUse">
<stop stop-color="white"/>
<stop offset="1" stop-color="#999999"/>
</linearGradient>
<linearGradient id="paint38_linear_2611_7400" x1="30.984" y1="70.6095" x2="33.0972" y2="73.2724" gradientUnits="userSpaceOnUse">
<stop stop-color="white"/>
<stop offset="1" stop-color="#7F7F7F"/>
</linearGradient>
<linearGradient id="paint39_linear_2611_7400" x1="32.6952" y1="70.5004" x2="32.1324" y2="70.6199" gradientUnits="userSpaceOnUse">
<stop stop-color="white"/>
<stop offset="1" stop-color="#999999"/>
</linearGradient>
<linearGradient id="paint40_linear_2611_7400" x1="29.1759" y1="71.2727" x2="32.4789" y2="72.8555" gradientUnits="userSpaceOnUse">
<stop stop-color="white"/>
<stop offset="1" stop-color="#7F7F7F"/>
</linearGradient>
<linearGradient id="paint41_linear_2611_7400" x1="31.9434" y1="70.7012" x2="31.3837" y2="70.82" gradientUnits="userSpaceOnUse">
<stop stop-color="white"/>
<stop offset="1" stop-color="#999999"/>
</linearGradient>
</defs>
</svg>
