<svg width="82" height="87" viewBox="0 0 82 87" fill="none" xmlns="http://www.w3.org/2000/svg">
<path d="M51.0427 43.613C50.7202 42.4028 50.2596 41.1926 49.5225 40.1686C48.7854 39.1446 47.8641 38.2137 46.8045 37.562C45.745 36.9104 44.5472 36.538 43.4416 36.3519C43.1652 36.3053 42.8888 36.2588 42.6124 36.2122C42.336 36.2122 42.1056 36.1657 41.8292 36.1191C41.3225 36.0726 40.8157 36.026 40.309 35.9795C39.3416 35.933 38.4202 35.933 37.591 36.0726C36.7618 36.2122 36.1169 36.445 35.5641 36.7242C35.518 36.7242 35.518 36.7708 35.4719 36.7708C35.3337 36.8173 35.1955 36.9104 35.0573 36.957C34.4584 37.2828 33.6292 37.8413 32.8 38.7722C31.9708 39.6566 31.2337 40.9133 30.7731 42.3097C30.2663 43.7526 29.9899 45.3817 30.1281 47.0573L30.1742 47.6624C30.1742 47.8951 30.2202 48.0813 30.2663 48.2675C30.3124 48.6864 30.4506 49.1053 30.5427 49.5242C30.8191 50.3155 31.0955 51.1068 31.5562 51.8515C32.3854 53.2944 33.7214 54.4115 35.1034 55.0631C36.4393 55.7148 37.7753 55.9475 38.8348 56.0871C39.8944 56.2268 40.6775 56.2733 41.1843 56.2733C41.3686 56.2733 41.5989 56.2733 41.8292 56.2733C42.382 56.2733 43.073 56.2733 43.8562 56.1802C44.6393 56.0871 45.5146 55.9475 46.436 55.5751C47.3573 55.2493 48.2787 54.6442 49.0157 53.8064C49.7989 52.9686 50.3517 51.9446 50.7663 50.8275C51.5495 48.6399 51.6877 46.0333 51.0427 43.613ZM49.9832 50.362C49.6607 51.386 49.2 52.3169 48.6011 53.1082C48.0023 53.8995 47.2652 54.458 46.482 54.877C45.6989 55.2959 44.8697 55.5286 44.1326 55.6682C43.3955 55.8079 42.7045 55.9009 42.1517 55.9475C41.7371 55.994 41.3686 56.0406 41.0461 56.0406C40.5393 55.9475 39.8023 55.8079 38.927 55.6217C37.9135 55.389 36.7157 55.1097 35.518 54.458C34.9191 54.1788 34.3663 53.7599 33.8135 53.2944C33.2607 52.829 32.8461 52.2704 32.4315 51.6188C32.0629 50.9671 31.7405 50.269 31.5101 49.5708C31.3719 49.1984 31.3259 48.826 31.2337 48.4537C31.1877 48.0813 31.0955 47.709 31.0495 47.3366C30.9113 45.8006 31.0495 44.3111 31.418 42.9613C31.7865 41.6115 32.3854 40.4013 33.0304 39.517C33.1225 39.4239 33.2146 39.2842 33.2607 39.1911C33.3528 39.098 33.445 39.005 33.5371 38.8653C33.7214 38.6791 33.8596 38.4464 34.0438 38.3068C34.2281 38.1206 34.3663 37.981 34.5045 37.8413C34.6427 37.7017 34.827 37.562 34.9652 37.469L35.0113 37.4224C35.2877 37.2828 35.5641 37.1431 35.8865 37.05C36.4393 36.8639 37.0843 36.7242 37.8674 36.6777C38.6506 36.6311 39.4798 36.6777 40.4011 36.7708C41.3225 36.8639 42.382 37.0035 43.3495 37.1897C44.3629 37.4224 45.3304 37.7948 46.2517 38.3999C47.127 39.005 47.9101 39.7962 48.5551 40.7271C49.2 41.658 49.6146 42.7286 49.891 43.7991C50.6742 45.9402 50.6281 48.314 49.9832 50.362Z" fill="#251A85"/>
<path d="M78.1303 85.8295V84.759C78.1303 84.3866 78.0843 84.0143 78.0382 83.6884C77.9461 82.9437 77.9461 82.2455 77.8079 81.5473C77.6697 80.8492 77.5315 80.1044 77.3933 79.4063C77.2551 78.7081 77.0247 78.0564 76.8865 77.3583C76.7944 77.0324 76.7023 76.7066 76.6101 76.3343C76.518 76.0084 76.4259 75.6361 76.2877 75.3103C75.7809 74.007 75.0899 72.8433 74.3528 71.7728C73.6157 70.7023 72.7865 69.7714 71.9112 69.0266C71.4966 68.6543 71.036 68.3284 70.6674 67.9561C70.2528 67.6303 69.8843 67.3044 69.4697 67.0252C69.1011 66.7459 68.7326 66.5132 68.3641 66.2804C68.2719 66.2339 68.1798 66.1873 68.1337 66.0943L68.0877 66.0477L67.9955 66.0012L67.8573 65.9546C67.673 65.8615 67.5348 65.7684 67.3966 65.6754C66.7978 65.303 66.245 65.1168 65.8764 64.9306C65.7382 64.8841 65.6461 64.8375 65.5539 64.791C65.5539 64.7444 65.5079 64.7444 65.5079 64.6979C65.2775 64.3721 65.0011 64.0928 64.7247 63.9066C64.1719 63.5343 63.6191 63.3481 63.1584 63.2084C62.5596 63.0223 62.0989 62.9292 61.7764 62.8361C61.8225 62.2775 61.8685 61.6724 61.9146 61.1139C62.3753 55.2492 62.3753 49.0586 62.0528 42.8681C61.9607 41.3321 61.8685 39.7961 61.7303 38.2135C61.5921 36.6775 61.4539 35.1415 61.2697 33.6055C60.8551 30.5801 60.2562 27.6012 59.427 24.7619C59.1966 24.0637 58.9663 23.319 58.736 22.6673C58.5056 22.0157 58.2292 21.3175 57.9989 20.6659C57.4921 19.3626 56.9854 18.0593 56.4326 16.8026C55.8798 15.5459 55.2348 14.3823 54.5438 13.2652C53.8528 12.1481 53.1618 11.1241 52.4708 10.1466C49.7068 6.2368 47.0809 2.97862 44.5011 1.25644C43.7641 0.93062 43.1191 0.604802 42.5202 0.41862C41.9214 0.232438 41.3225 0.185892 40.8618 0.232438C41.0461 0.139347 41.1843 0.0462561 41.2303 -0.000289362C41.2303 -0.0468348 40.8157 0.0462561 40.0787 0.325529C39.3876 0.604802 38.3281 1.07026 37.1303 1.81498C36.5315 2.18735 35.8865 2.60626 35.1955 3.11826C34.827 3.35098 34.5045 3.6768 34.136 3.95607C33.8135 4.28189 33.445 4.60771 33.0764 4.93353C31.6944 6.28335 30.1281 7.86589 28.6079 9.72771C28.2393 10.1932 27.8708 10.7052 27.5023 11.2172C27.1798 11.7292 26.7652 12.2412 26.4427 12.8463C26.2584 13.1255 26.1202 13.4048 25.936 13.6841C25.7978 13.9633 25.6135 14.2892 25.4753 14.5684C25.1528 15.1735 24.8764 15.7786 24.6 16.3837C23.4023 18.8506 22.2966 21.5037 21.3292 24.2964C21.3292 24.343 21.3292 24.343 21.2832 24.3895L21.191 24.7153C20.2697 27.415 19.5326 30.2543 18.9798 33.1866C18.8416 33.9779 18.6573 34.7226 18.5652 35.5139C18.473 36.3052 18.3348 37.0964 18.2427 37.8412C18.1045 39.4237 17.9663 41.0063 17.8742 42.5423C17.5056 48.8724 17.6899 55.2026 18.2888 61.1604C18.3348 61.7655 18.427 62.3706 18.5191 62.9292C18.2888 62.9757 17.9202 63.0223 17.4596 63.1619C16.9989 63.255 16.4461 63.4412 15.8933 63.8601C15.6169 64.0928 15.3865 64.3721 15.2483 64.7444C15.0641 65.1168 15.018 65.4892 14.9259 65.8615C14.8798 66.0477 14.8798 66.1874 14.8337 66.3735C14.5573 66.4666 13.9584 66.6993 13.2214 67.2579C12.6686 67.6303 12.0697 68.1423 11.4247 68.7473C10.7798 69.3524 10.0888 70.0506 9.30563 70.8884C7.78541 72.5175 6.35732 74.7052 5.2517 77.2652C5.1135 77.591 4.97529 77.9168 4.83709 78.2426C4.74496 78.5684 4.60675 78.8943 4.51462 79.2666C4.28428 79.9648 4.14608 80.663 3.96181 81.3612C3.86968 81.7335 3.82361 82.0594 3.77754 82.4317C3.73147 82.8041 3.63934 83.1299 3.59327 83.5023C3.50114 84.247 3.409 84.9452 3.36293 85.6899C3.2708 87.1328 3.22473 88.5757 3.22473 90.0186C3.22473 91.4615 3.36293 92.8579 3.5472 94.2543C3.86968 96.9539 4.42248 99.5139 5.20563 101.608C5.62024 102.679 6.08091 103.61 6.63372 104.401C7.18653 105.192 7.87754 105.751 8.56855 106.077C9.25956 106.356 9.90451 106.356 10.273 106.263C10.273 106.263 10.273 106.263 10.3191 106.263C10.4112 106.263 10.4573 106.31 10.5955 106.263C10.7337 106.216 10.8719 106.123 11.0101 106.03C11.1483 105.891 11.2405 105.751 11.3326 105.565C11.7011 104.867 11.7933 103.889 11.9315 102.772C11.9775 102.26 12.1157 101.702 12.2079 101.05C12.3 100.445 12.3921 99.7932 12.4843 99.1415C12.6225 98.4899 12.7146 97.7917 12.8528 97.1401C12.991 96.4419 13.0832 95.7437 13.2674 95.0921C13.5899 93.7423 14.0506 92.439 14.6494 91.3219C14.7877 91.0426 14.9259 90.7634 15.1101 90.4841C15.2944 90.2048 15.4326 89.9721 15.6169 89.6928C15.8011 89.4601 15.9393 89.1808 16.1236 88.9481C16.3079 88.7154 16.4461 88.4826 16.6303 88.2964C17.2753 87.4586 17.9202 86.807 18.427 86.3881C18.8416 86.0623 19.2101 85.8761 19.4405 85.7364C19.7169 86.3881 20.0854 86.9466 20.5 87.4121C21.0528 88.0172 21.7899 88.4361 22.4809 88.6223C23.1719 88.7619 23.7708 88.7619 24.2775 88.6223C24.6 88.5292 24.8764 88.4826 25.1068 88.3895C25.1068 88.4361 25.1528 88.4826 25.1528 88.5292C25.8899 90.0652 26.627 91.1357 27.0877 91.7874C27.0877 91.8339 27.1337 91.8804 27.1337 91.9735C27.2259 92.1597 27.3641 92.439 27.6865 92.7183C28.1933 93.1837 29.0225 93.463 30.036 93.6492C30.036 93.7888 30.036 93.975 30.082 94.2543C30.1281 94.5335 30.2202 94.9059 30.4506 95.3248C30.6809 95.7437 31.0494 96.1626 31.6023 96.4419C31.9708 96.6281 32.3854 96.7677 32.8461 96.8608C32.4775 97.047 31.9708 97.3728 31.3719 97.8383C30.3124 98.6761 29.1146 100.072 28.3315 101.702C28.2393 101.888 28.1472 102.12 28.0551 102.353C27.9629 102.586 27.8708 102.772 27.8247 103.005C27.7787 103.238 27.7326 103.47 27.7326 103.75C27.7326 103.889 27.7787 104.029 27.8247 104.215C27.9169 104.401 28.0551 104.541 28.2393 104.634C28.3315 104.68 28.4236 104.727 28.5157 104.727C28.6079 104.727 28.7 104.727 28.7921 104.727C28.9303 104.727 29.0686 104.68 29.2068 104.634C29.4371 104.587 29.6674 104.494 29.8517 104.401C30.2202 104.215 30.5427 104.029 30.8191 103.796C31.0955 103.61 31.3719 103.377 31.6023 103.238C31.5101 103.656 31.3719 104.168 31.2337 104.774C31.1416 105.192 31.0494 105.611 30.9573 106.123C30.9112 106.589 30.8191 107.101 30.773 107.613C30.6809 108.125 30.6809 108.683 30.6348 109.242C30.5888 109.8 30.5888 110.359 30.5427 110.918C30.4966 112.035 30.4506 113.198 30.727 114.315C30.8191 114.595 30.9112 114.874 31.1416 115.2C31.2337 115.339 31.5101 115.526 31.7405 115.526C31.8787 115.526 31.9708 115.526 32.109 115.479C32.2011 115.432 32.3393 115.386 32.3854 115.339C32.6618 115.153 32.8461 114.92 32.9843 114.734C33.1225 114.548 33.2607 114.315 33.3528 114.129C33.6292 113.617 33.8596 113.152 34.0438 112.779C34.182 113.571 34.5045 114.548 35.1495 115.386C35.3798 115.619 35.5641 115.851 35.8405 116.084C36.1169 116.27 36.4393 116.503 36.9 116.503C37.1303 116.503 37.3607 116.456 37.545 116.317C37.7292 116.224 37.8214 116.084 37.9596 115.944C38.0056 115.898 38.0056 115.851 38.0517 115.805C38.0517 117.155 38.1438 118.784 38.3281 120.366C38.5124 122.414 38.8809 124.509 39.3876 125.998C39.6641 126.743 39.9865 127.395 40.3551 127.767C40.5393 127.953 40.7697 128.046 40.9079 128.093C41.0921 128.093 41.1382 128.046 41.1843 128C41.1843 128 41.2303 128 41.2303 127.953C41.3225 127.86 41.4607 127.72 41.5528 127.534C41.7832 127.162 42.0135 126.603 42.2438 125.905C42.7506 124.555 43.2112 122.694 43.6719 120.832C43.9944 119.389 44.3169 117.992 44.5472 116.736C44.5472 116.782 44.5933 116.829 44.5933 116.829C44.6854 117.015 44.7775 117.201 45.0079 117.387C45.1461 117.48 45.2843 117.574 45.4685 117.574C45.6528 117.574 45.791 117.574 45.9292 117.527C46.2056 117.434 46.3438 117.294 46.5281 117.108C46.8045 116.829 47.0348 116.503 47.2652 116.177C47.6798 115.479 47.8641 114.734 47.9562 113.99C48.0023 113.291 47.9562 112.64 47.8641 112.081C47.7719 111.616 47.6798 111.197 47.5877 110.918C47.818 111.243 48.1405 111.662 48.6472 111.988C48.9697 112.174 49.3843 112.36 49.891 112.314C50.1214 112.314 50.3978 112.221 50.6281 112.035C50.7202 111.942 50.8584 111.895 50.9045 111.755C50.9966 111.662 51.0888 111.569 51.1348 111.43C51.4112 111.011 51.4573 110.545 51.5034 110.126C51.5034 109.707 51.5494 109.288 51.5494 108.87C51.5034 107.147 51.1809 105.518 50.9045 104.308C50.8124 103.843 50.7202 103.47 50.582 103.144C50.7663 103.331 50.9966 103.563 51.227 103.75C51.5034 103.936 51.7337 104.168 52.1483 104.308C52.1944 104.355 52.2405 104.355 52.3326 104.355C52.3787 104.355 52.4708 104.401 52.5169 104.401C52.7011 104.401 52.8393 104.355 52.9775 104.308C53.3 104.168 53.4382 103.843 53.5303 103.61C53.6685 103.098 53.5764 102.726 53.5303 102.307C53.4382 101.888 53.3461 101.515 53.2539 101.143C52.7933 99.5604 51.9641 98.2106 51.273 97.2332C50.8584 96.6281 50.4899 96.2092 50.2135 95.9299C50.582 95.6972 50.9045 95.3714 51.0427 95.0455C51.273 94.6266 51.3191 94.2543 51.4112 93.975C51.4573 93.6957 51.5034 93.463 51.5034 93.2768V93.2303C51.5034 93.2303 51.5034 93.1837 51.5034 93.1372C51.5955 93.1372 51.6416 93.0906 51.7337 93.0906C51.9641 93.0441 52.1483 92.951 52.3326 92.8579C52.2865 92.9044 52.2865 92.951 52.2865 92.9975C52.3326 92.951 52.4247 92.8579 52.5169 92.7648C52.7011 92.6717 52.8854 92.5321 53.0697 92.439C53.3921 92.1597 53.6225 91.927 53.7146 91.7408C53.8528 91.5546 53.8989 91.415 53.8528 91.3684C54.4517 90.6703 55.0966 89.6928 55.7877 88.5292C55.9719 88.2033 56.1562 87.831 56.3405 87.4586C56.6629 87.5052 57.0775 87.5517 57.6303 87.5983C58.1371 87.6448 58.6899 87.6914 59.3809 87.6448C59.7034 87.6448 60.0719 87.5517 60.4405 87.4121C60.809 87.2724 61.1775 87.0397 61.4539 86.7139C61.6382 86.807 61.8225 86.9001 62.0989 87.0397C62.7438 87.319 63.6191 87.831 64.4944 88.6688C65.3236 89.5066 66.1528 90.6237 66.7517 91.9735C67.3966 93.3234 67.8573 94.8128 68.318 96.3954C68.5023 97.1401 68.6405 97.9314 68.7787 98.7226C68.9169 99.5139 69.0551 100.305 69.2393 101.05C69.5618 102.586 70.0225 104.029 70.7135 105.146C71.082 105.704 71.5427 106.216 72.0494 106.496C72.6023 106.775 73.2011 106.822 73.5697 106.775C73.6618 106.775 73.7539 106.822 73.8461 106.775C73.9382 106.775 73.9843 106.728 74.0764 106.682C74.2607 106.635 74.3989 106.542 74.491 106.449C74.6753 106.263 74.7214 106.17 74.6753 106.077C74.6753 106.077 74.6753 106.077 74.6292 106.077C74.8596 105.751 75.0899 105.379 75.2742 104.867C75.873 103.563 76.3798 101.702 76.8405 99.5139C77.3011 97.3263 77.6697 94.8128 77.9921 92.1132C78.1303 90.7634 78.2685 89.367 78.2685 87.9241C78.1764 87.2259 78.1303 86.5277 78.1303 85.8295ZM59.9337 33.3728C60.3023 36.4913 60.5787 39.6564 60.7629 42.8215C61.1315 49.1983 61.1315 55.575 60.6708 61.5328C60.6247 62.2775 60.5787 63.0223 60.4865 63.767C60.4405 64.5117 60.3483 65.2099 60.2562 65.9546C60.1641 66.6528 60.0719 67.3975 59.9798 68.0957C59.9337 68.4681 59.8876 68.7939 59.8416 69.1197C59.7955 69.4455 59.7494 69.8179 59.6573 70.1437C59.427 71.4935 59.1966 72.8433 59.0124 74.1001C58.782 75.4034 58.5517 76.6135 58.2753 77.8237C57.8146 80.1975 57.2618 82.3852 56.6629 84.247C56.5708 84.5263 56.4787 84.8055 56.3865 85.0848C56.1101 85.1779 55.7416 85.271 55.2809 85.3175C54.3596 85.4572 53.0697 85.5503 51.5494 85.5968C50.0753 85.6433 48.4629 85.7364 46.7124 85.8295C47.2191 84.5263 47.4494 82.9437 47.5416 81.3612C47.6337 79.5459 47.6798 77.6375 47.5877 75.7292C47.5416 73.8208 47.3573 71.9124 46.9888 70.0972C46.6202 68.3284 46.0674 66.6528 45.1 65.3961C44.6393 64.7444 44.0405 64.279 43.4416 63.9997C42.8427 63.7204 42.1978 63.6273 41.7371 63.6739C41.5068 63.6739 41.3225 63.7204 41.1382 63.7204C41.2764 62.8361 41.2303 60.6484 41.0461 59.6244C41.1382 59.6244 41.2764 59.6244 41.3686 59.6244C41.691 59.6244 42.0596 59.5779 42.382 59.5314C43.073 59.4383 43.6719 59.2986 44.2708 59.1124C46.6202 58.4143 48.4169 57.3437 49.5225 56.4594C49.5686 56.4128 49.6607 56.3663 49.7068 56.2732C49.9371 56.1801 50.2135 56.0404 50.4438 55.9008C51.5034 55.2957 52.6551 53.9924 53.3461 52.2237C54.0371 50.455 54.4056 48.3604 54.3596 46.0797C54.3596 45.5212 54.3135 44.9161 54.2214 44.3575C54.1292 43.7524 53.991 43.1939 53.8528 42.6353C53.5764 41.4717 53.1618 40.3081 52.5629 39.2375C51.9641 38.167 51.1809 37.143 50.2135 36.3517C49.2461 35.5604 48.1865 34.9553 47.127 34.4899C44.9618 33.6055 42.7966 33.1866 40.9079 33.1401C40.5854 33.1401 40.309 33.1401 39.9865 33.1401C40.1708 32.4419 40.309 29.975 40.3551 27.4615C40.4011 25.4135 40.4011 23.3655 40.309 22.3415C40.7697 22.3415 41.1843 22.3415 41.645 22.3415C45.5607 22.3415 49.2921 22.7139 52.2405 23.2259C53.991 23.5052 55.4191 23.8775 56.4326 24.2033C56.6629 24.2964 56.8933 24.343 57.1236 24.4361C57.3079 24.5292 57.4921 24.5757 57.6303 24.6223C57.8146 24.6688 57.9528 24.7153 58.045 24.7153C58.9663 27.4615 59.5191 30.4404 59.9337 33.3728ZM45.1921 76.1946C45.1461 75.031 45.1 73.9604 45.0539 72.9364C44.9618 71.959 44.9157 71.0281 44.7315 70.1903C44.5933 69.3524 44.3169 68.6077 43.9483 68.0026C43.5798 67.4441 43.073 67.0717 42.6584 66.9786C42.5663 66.9321 42.4742 66.9321 42.382 66.8855C42.2899 66.8855 42.2438 66.8855 42.1517 66.839C42.1056 66.839 42.0135 66.839 41.9674 66.839C41.9674 66.7924 41.7832 66.7924 41.4607 66.8855C41.2764 66.9321 41.0921 66.9786 40.8618 67.0717C40.7236 67.1183 40.6315 67.2113 40.4933 67.3044C40.4011 67.3975 40.2629 67.5372 40.1708 67.6768C39.8023 68.2353 39.5719 68.9335 39.3876 69.7713C39.1573 70.6092 39.0652 71.5401 38.927 72.5641C38.8809 73.0761 38.8809 73.6346 38.8348 74.1932C38.8348 74.7517 38.7888 75.3103 38.7888 75.9154C38.7427 77.079 38.7427 78.3357 38.6966 79.5924C38.6506 81.687 38.6045 83.9212 38.5584 86.2019C38.5584 86.6208 38.5584 86.9932 38.5584 87.4121C38.5584 87.4586 38.5584 87.5517 38.5584 87.6448C38.5584 87.8775 38.5584 88.1103 38.5584 88.343C38.282 88.1103 38.0517 87.7844 37.8214 87.4121C37.591 87.0397 37.4528 86.6674 37.3146 86.2019C37.2686 86.0623 37.2225 85.9226 37.2225 85.783C37.0843 85.1314 36.9921 84.4332 36.9461 83.6884C36.9 82.8972 36.9 82.1059 36.8539 81.2681C36.8079 80.4303 36.8079 79.5924 36.8079 78.7081C36.8079 78.2892 36.8079 77.8237 36.8079 77.4048C36.8079 76.9859 36.8079 76.5204 36.8539 76.1015C36.8539 74.3328 36.9921 72.5641 37.0843 70.935C37.2686 69.3524 37.7292 67.863 38.3281 66.6993C38.6506 66.1408 38.973 65.6288 39.3416 65.2564C39.7101 64.8841 40.1247 64.6048 40.4933 64.4186C41 64.1859 41.4607 64.0928 41.7371 64.0928C42.1517 64.1394 42.6124 64.1394 43.073 64.3721C43.5798 64.6048 44.0865 65.0237 44.5011 65.5823C45.3764 66.6993 45.8832 68.3284 46.2056 70.0972C46.5281 71.8659 46.7124 73.8208 46.7584 75.7757C46.8045 77.7306 46.8045 79.6855 46.7584 81.5473C46.7124 83.1764 46.482 84.7124 46.0214 85.9692C45.9753 86.1088 45.9292 86.2484 45.8832 86.3415C45.745 86.6674 45.6068 86.9466 45.4225 87.1794C45.2382 87.4586 45.0539 87.6913 44.8236 87.9241C44.8236 87.7844 44.8236 87.6448 44.8697 87.5517C44.8697 87.4586 44.8697 87.3655 44.9157 87.2724C44.9618 86.8535 44.9618 86.4812 45.0079 86.0623C45.1921 83.9677 45.2843 81.8732 45.2843 79.8717C45.2382 78.4754 45.1921 77.3117 45.1921 76.1946ZM42.2438 107.147C42.1517 107.659 42.0135 108.032 41.8292 108.264C41.7371 108.264 41.5989 108.264 41.5068 108.264C41.3225 108.218 41.1382 108.171 41.0461 107.985C40.9079 107.799 40.8157 107.566 40.7697 107.24C40.6775 106.961 40.6315 106.589 40.5854 106.216C40.5393 106.03 40.5393 105.844 40.4933 105.611C40.4933 105.425 40.4472 105.192 40.4472 105.006C40.3551 104.168 40.2169 103.238 40.1708 102.214C40.1247 101.702 40.0787 101.19 40.0326 100.631C39.9865 100.072 39.9865 99.5139 39.9405 98.9554C39.9405 98.3968 39.8944 97.7917 39.8944 97.1866C39.8944 97.0935 39.8944 97.047 39.8944 96.9539C39.8944 96.535 39.8944 96.1626 39.8944 95.7437C39.8944 95.6041 39.8944 95.511 39.8944 95.3713C39.8944 94.7663 39.8944 94.1146 39.8944 93.5095C39.8944 93.0906 39.8944 92.7183 39.8944 92.2994C39.8944 91.2754 39.8944 90.2514 39.8944 89.2273C39.8944 89.1343 39.8944 89.0877 39.8944 88.9946C39.8944 88.5292 39.8944 88.0637 39.8944 87.5517C39.8944 87.4586 39.8944 87.3655 39.8944 87.2724C39.8944 86.8535 39.8944 86.4812 39.8944 86.0623C39.9405 81.3146 39.9405 76.6135 39.9405 72.983C39.9405 72.7503 39.9405 72.471 39.9405 72.2383C39.9405 72.0055 39.9865 71.7728 39.9865 71.5401C40.0326 71.0746 40.0326 70.6557 40.1247 70.2368C40.1708 69.8179 40.2169 69.4455 40.309 69.0732C40.3551 68.7008 40.4472 68.375 40.5393 68.0957C40.6315 67.8164 40.7697 67.5837 40.9079 67.4441C41.0461 67.3044 41.2303 67.1648 41.4146 67.1183C41.645 66.9786 41.8753 66.8855 41.9674 66.839C42.0135 66.8855 42.1517 66.9321 42.382 67.0717C42.6584 67.2113 43.027 67.4906 43.3494 67.9561C43.6719 68.4215 43.9023 69.0732 43.9944 69.8179C44.1326 70.6092 44.1326 71.4935 44.1787 72.5175C44.1787 73.495 44.1787 74.6121 44.2247 75.7292C44.2247 76.8928 44.1787 78.103 44.1326 79.3597C44.0865 79.9648 44.0865 80.6164 44.0405 81.2681C43.9944 81.9197 43.9944 82.5714 43.9483 83.223C43.8562 84.1074 43.8101 85.0383 43.718 85.9226C43.6719 86.3415 43.6719 86.7139 43.6259 87.1328C43.6259 87.1794 43.6259 87.1794 43.6259 87.2259C43.5798 87.6913 43.5337 88.2034 43.4877 88.6688C43.4877 88.8084 43.4877 88.9481 43.4416 89.0877C43.3494 90.1583 43.2573 91.2288 43.1652 92.2528C43.1191 92.6717 43.1191 93.0441 43.073 93.463C43.027 94.0215 42.9809 94.6266 42.9348 95.1852C42.9348 95.3714 42.9348 95.511 42.8888 95.6506C42.8427 96.0695 42.8427 96.4419 42.7966 96.8608C42.6584 98.7692 42.5663 100.538 42.4742 102.167C42.5202 104.262 42.4742 105.984 42.2438 107.147ZM40.0787 58.5539C39.4337 58.5539 38.7888 58.4143 38.1438 58.3212C37.4989 58.1815 36.8079 58.0419 36.1629 57.8092C34.873 57.3903 33.5832 56.7852 32.3854 55.9939C31.2337 55.2026 30.2202 54.1786 29.4832 53.015C28.7461 51.8514 28.2393 50.5015 28.009 49.1517C27.7787 47.8019 27.8247 46.4521 28.0551 45.1488C28.5618 42.5423 29.391 40.0288 30.5888 38.2601C30.727 38.0274 30.9112 37.8412 31.0494 37.6084C31.1877 37.4223 31.3719 37.1895 31.5562 37.0499C31.9247 36.6775 32.2933 36.3517 32.6157 36.0724C33.3528 35.4674 34.0438 35.0484 34.6427 34.6761C34.7809 34.6295 34.873 34.5364 34.9652 34.4899C35.1034 34.4434 35.2416 34.4434 35.4259 34.3968C35.6101 34.3503 35.8405 34.2572 36.1169 34.2572C37.1764 34.071 38.6966 33.9314 40.4933 34.0244C42.2899 34.1641 44.409 34.583 46.482 35.4674C48.5551 36.3052 50.4438 37.7946 51.5494 39.8426C52.1023 40.8201 52.5169 41.9372 52.7933 43.0543C52.8854 43.3335 52.9315 43.6128 52.9775 43.8921C53.0236 44.1714 53.1157 44.4506 53.1157 44.7299C53.2079 45.2884 53.2539 45.847 53.2539 46.359C53.3461 48.5466 53.0236 50.5946 52.4247 52.2703C52.0101 53.4339 51.3652 54.3648 50.7663 55.0164C50.3978 55.2957 49.845 55.8077 48.9697 56.2732C48.9236 56.3197 48.8775 56.3197 48.8315 56.3663C48.6472 56.4594 48.5551 56.5059 48.4629 56.5524C47.2652 57.2041 45.6528 57.9023 43.718 58.3677C43.1652 58.4608 42.5663 58.5539 41.9674 58.6004C41.3685 58.6004 40.7236 58.647 40.0787 58.5539ZM28.7921 11.1241C30.1281 9.26226 31.6023 7.63317 32.9382 6.19026C33.2607 5.81789 33.5832 5.49207 33.9056 5.16626C34.2281 4.84044 34.5045 4.51462 34.827 4.23535C35.1494 3.95607 35.4719 3.6768 35.7483 3.44407C36.0708 3.21135 36.3472 2.97862 36.6697 2.74589C37.6371 2.00117 38.5124 1.48917 39.2494 1.07026C39.2955 1.07026 39.3876 1.02371 39.4798 0.977165C39.5719 0.93062 39.6641 0.884074 39.8023 0.837529C39.9405 0.790983 40.0787 0.697892 40.2629 0.697892C40.9539 0.465165 42.1056 0.651347 43.3034 1.39607C44.5011 2.09426 45.745 3.30444 47.0348 4.74735C48.3247 6.19026 49.6146 7.95898 50.9966 9.96044C51.6416 10.9379 52.3326 11.9619 53.0236 13.0324C52.4247 12.7066 50.9045 12.1015 48.8315 11.7292C46.2978 11.2637 42.9348 11.0775 39.618 11.1706C38.7888 11.2172 37.9596 11.2172 37.1303 11.2637C36.3011 11.3568 35.518 11.4033 34.7348 11.4964C34.3663 11.543 33.9978 11.543 33.5832 11.6361C33.2146 11.6826 32.8 11.7757 32.4775 11.8688C31.7405 12.055 31.0955 12.2412 30.4966 12.4273C29.2989 12.8463 28.3315 13.2186 27.5944 13.4513C27.5023 13.4979 27.4101 13.5444 27.2719 13.5444C27.7787 12.6601 28.2393 11.8688 28.7921 11.1241ZM23.6787 21.3641C23.909 20.7124 24.1854 20.1073 24.4618 19.4557C24.7382 18.8506 24.9685 18.199 25.245 17.6404C25.7978 16.4303 26.3506 15.2666 26.9034 14.1495C26.9494 14.0564 26.9955 14.0099 27.0416 13.9168C27.1798 13.9168 27.318 13.8703 27.5023 13.8703C28.2393 13.7772 29.2989 13.5444 30.4966 13.2186C31.0955 13.079 31.7865 12.8928 32.4775 12.7532C32.6618 12.7066 32.8461 12.7066 32.9843 12.6601C33.1686 12.6135 33.3528 12.6135 33.5371 12.567C33.9056 12.5204 34.2742 12.4739 34.6888 12.4739C35.4719 12.4273 36.3011 12.3808 37.1303 12.3343C37.9596 12.2877 38.7888 12.2877 39.6641 12.2412C43.027 12.1481 46.436 12.2412 48.9697 12.5204C51.1809 12.7532 52.7472 13.1255 53.2079 13.079C53.8528 14.103 54.4517 15.2201 55.0045 16.3837C55.2809 16.9888 55.5573 17.6404 55.8337 18.2921C56.1101 18.9437 56.3405 19.5953 56.6169 20.247C56.8472 20.9452 57.1236 21.5968 57.3539 22.295C57.4921 22.6208 57.6303 22.9932 57.7225 23.319C57.8146 23.6913 57.9528 24.0172 58.045 24.343C58.045 24.3895 58.045 24.3895 58.091 24.4361C57.8146 24.2033 57.3079 23.831 56.5247 23.4586C55.4652 22.9932 54.0371 22.5277 52.2865 22.1088C48.8315 21.271 44.1326 20.8521 39.5259 20.9917H38.6506C38.3742 20.9917 38.0978 21.0383 37.7753 21.0383C37.2225 21.0848 36.6236 21.1313 36.0708 21.1779C34.9191 21.271 33.8596 21.3641 32.7539 21.5037C32.2011 21.5503 31.6944 21.5968 31.1877 21.6899C30.6809 21.783 30.1742 21.8761 29.6674 21.9226C29.1607 22.0157 28.7 22.0623 28.2393 22.1553C27.7787 22.2484 27.3641 22.3415 26.9034 22.4346C25.291 22.7604 23.909 23.0863 22.8955 23.4586C23.1259 22.9001 23.4023 22.1088 23.6787 21.3641ZM19.2101 42.775C19.3483 41.2855 19.4405 39.7495 19.5787 38.2601C19.7629 36.7706 19.9472 35.2812 20.2236 33.8383C20.4539 32.3954 20.8225 30.9524 21.145 29.5095C21.5596 28.1132 21.882 26.7168 22.3427 25.367C22.4348 24.9946 22.573 24.6688 22.6652 24.2964C23.6326 24.0172 25.0146 23.7844 26.673 23.5517C27.1337 23.5052 27.5483 23.4121 28.0551 23.3655C28.5157 23.319 29.0225 23.2724 29.4832 23.1793C30.4966 23.0863 31.5101 22.9001 32.6157 22.8535C33.7214 22.7604 34.827 22.6673 36.0247 22.6208C36.5775 22.5743 37.1764 22.5277 37.7753 22.5277L38.6506 22.4812H39.5259C39.7562 22.4812 39.9405 22.4812 40.1708 22.4812C40.0326 23.5052 39.9405 25.5066 39.8944 27.5546C39.8023 30.0681 39.8483 32.5815 39.9865 33.2332C38.6045 33.2797 37.4067 33.4193 36.4854 33.7452C36.1169 33.7452 35.5641 33.8383 34.873 34.1175C34.2281 34.3503 33.445 34.7692 32.6618 35.2812C32.2472 35.5604 31.8326 35.8397 31.418 36.2121C31.1877 36.3983 31.0034 36.5844 30.773 36.7706C30.5888 37.0034 30.3584 37.1895 30.1742 37.4223C28.6539 39.2841 27.6865 41.8906 27.0416 44.6834C26.8573 45.3815 26.7652 46.1263 26.7191 46.9175C26.7191 47.6623 26.7191 48.4535 26.8112 49.2448C26.9955 50.7808 27.5483 52.3168 28.3775 53.7132C29.2528 55.063 30.4045 56.2732 31.7405 57.1575C33.0764 58.0419 34.5506 58.6935 36.0247 59.1124C37.4989 59.5314 38.973 59.7641 40.4011 59.7641C40.5393 59.7641 40.6315 59.7641 40.7236 59.7641C40.5854 60.7881 40.6315 63.0688 40.8618 63.9066C40.6775 63.9532 40.5393 63.9997 40.4011 64.0463C39.5719 64.279 38.5124 64.9772 37.7753 66.1873C36.9921 67.3975 36.3933 68.9335 36.1169 70.7023C36.0247 71.1677 36.0247 71.5866 35.9787 72.0055C35.9326 72.471 35.9326 72.8899 35.8865 73.3554C35.7944 74.2397 35.7944 75.1706 35.7944 76.1015C35.7944 76.567 35.7944 77.0324 35.7483 77.4979C35.7483 77.9633 35.7483 78.4288 35.7944 78.8477C35.8405 79.7786 35.7944 80.663 35.8865 81.5008C35.9326 82.3852 36.0247 83.223 36.0708 84.0143C36.1629 84.8055 36.3011 85.5968 36.5315 86.2484C35.9787 86.2484 35.4259 86.2484 34.873 86.2484C33.0303 86.2484 31.3259 86.2019 29.8056 86.0623C29.0685 86.0157 28.3775 85.9226 27.7787 85.8295C27.1798 85.7364 26.627 85.6434 26.1663 85.5503C25.4292 85.3641 24.7382 85.271 24.4157 85.271C23.5865 82.8041 22.8034 79.7321 22.0202 76.2412C21.7438 75.0775 21.5135 73.9139 21.2371 72.6572C21.0068 71.4004 20.7764 70.1437 20.5461 68.8404C20.5 68.5146 20.4079 68.1888 20.3618 67.863C20.3157 67.5372 20.2697 67.2113 20.2236 66.8855C20.1315 66.1873 20.0393 65.5357 19.9472 64.8375C19.8551 64.1394 19.7629 63.4412 19.6708 62.743C19.6247 62.0448 19.5326 61.3466 19.4865 60.6019C19.0259 54.8768 18.8877 48.8259 19.2101 42.775ZM18.2427 85.7364C17.5978 86.0157 16.8146 86.6208 16.0315 87.4586C15.6169 87.8775 15.2483 88.343 14.8337 88.855C14.6495 89.0877 14.4191 89.367 14.2348 89.6463C14.0506 89.9255 13.8202 90.2048 13.682 90.5306C12.945 91.7874 12.3921 93.2303 12.0236 94.6732C11.8393 95.4179 11.7472 96.1626 11.609 96.8608C11.5169 97.6055 11.3787 98.3037 11.2865 99.0019C11.1944 99.7001 11.1483 100.352 11.0562 101.003C11.0101 101.329 11.0101 101.655 10.9641 101.934C10.9641 102.074 10.918 102.26 10.918 102.4V102.819C10.918 103.936 10.8719 104.82 10.7337 105.379C10.6416 105.658 10.5495 105.798 10.4573 105.844C10.4112 105.844 10.4112 105.844 10.3652 105.844C10.273 105.844 10.1809 105.844 10.0888 105.844C9.67417 105.798 9.12136 105.704 8.61462 105.286C7.55507 104.541 6.72585 102.865 6.12698 100.817C5.5281 98.7692 5.1135 96.3488 4.83709 93.7888C4.69889 92.4855 4.60675 91.1357 4.60675 89.8324C4.60675 88.4826 4.65282 87.0863 4.74496 85.7364C4.83709 84.3401 5.02136 83.0368 5.2517 81.687C5.5281 80.3837 5.85057 79.0804 6.35732 77.9168C7.32473 75.543 8.52248 73.4019 9.85844 71.7728C10.1809 71.3539 10.5495 70.9815 10.8719 70.6092C11.1944 70.2368 11.5169 69.8644 11.8393 69.5386C12.4382 68.887 12.991 68.2819 13.4517 67.8164C13.682 67.5837 13.9124 67.3975 14.0966 67.2113C14.327 67.0252 14.5112 66.8855 14.6494 66.7459C14.7877 66.6528 14.9259 66.5597 15.018 66.4666C14.8798 67.863 15.018 69.399 15.3405 70.9815C15.7551 72.8434 16.2618 74.7517 16.7225 76.7066C16.9528 77.6841 17.2292 78.6615 17.5517 79.5924C17.8281 80.5234 18.1045 81.4543 18.3809 82.3852C18.6573 83.2695 18.8877 84.1539 19.2101 84.9917C19.2562 85.1314 19.3483 85.271 19.3944 85.4106C19.0719 85.5037 18.7034 85.5503 18.2427 85.7364ZM23.8629 88.1568C23.4023 88.1568 22.8495 88.1103 22.2966 87.9241C21.7438 87.6913 21.2371 87.2724 20.8225 86.7139C20.4079 86.1553 20.0854 85.4106 19.809 84.6659C19.5326 83.8746 19.3483 82.9903 19.0719 82.1524C18.7955 81.2681 18.5652 80.3837 18.2888 79.4528C18.0124 78.5219 17.736 77.591 17.5056 76.6601C17.045 74.7983 16.5382 72.9364 16.0775 71.1677C15.6629 69.399 15.4787 67.7699 15.6169 66.327C15.6169 65.9546 15.709 65.6288 15.7551 65.303C15.8011 65.0237 15.9393 64.7444 16.1236 64.5583C16.4461 64.1394 16.9528 63.9066 17.3674 63.7204C17.9202 63.5343 18.3348 63.3481 18.6112 63.255C19.2562 68.4215 20.2236 73.2157 21.2832 77.3583C21.882 79.6855 22.4809 81.8266 23.1259 83.6884C23.4483 84.6194 23.7708 85.5037 24.0933 86.295C24.2775 86.7139 24.4157 87.0863 24.5539 87.4586C24.6461 87.6913 24.7843 87.9241 24.8764 88.1103C24.6461 88.0637 24.2775 88.1103 23.8629 88.1568ZM28.1011 92.2994C27.7326 92.1597 27.5023 91.9735 27.3641 91.7874C27.2259 91.5081 27.0416 91.1823 26.8112 90.8099C26.3966 89.9721 25.8438 88.855 25.291 87.4586C25.0146 86.807 24.7843 86.1088 24.5079 85.3641C24.7843 85.5037 25.245 85.6899 25.7978 85.8761C26.627 86.2019 27.8708 86.5277 29.391 86.807C30.9112 87.0397 32.7079 87.2259 34.6427 87.2724C35.4259 87.319 36.2551 87.319 37.0843 87.319C37.2225 87.5517 37.3607 87.7379 37.4989 87.9241C37.8214 88.2964 38.1899 88.5757 38.5124 88.8084C38.5124 89.9721 38.5124 91.1357 38.5124 92.2994H37.6832C36.8079 92.2994 36.0247 92.3924 35.2416 92.4855C33.6753 92.6252 32.2472 92.7648 31.0034 92.7183C29.8056 92.7183 28.7461 92.5786 28.1011 92.2994ZM32.2011 95.6041C31.2798 95.3713 30.8652 94.7197 30.5888 94.1612C30.4966 93.9284 30.4045 93.7423 30.3124 93.5561C30.4506 93.5561 30.5427 93.6026 30.6809 93.6026C32.0169 93.7423 33.5371 93.6957 35.1495 93.6026C35.9326 93.5561 36.8079 93.5095 37.591 93.463C37.9135 93.463 38.236 93.463 38.5124 93.463C38.5124 94.1612 38.5124 94.8594 38.5584 95.5575C38.5584 95.6041 38.5584 95.6972 38.5584 95.7437C38.236 95.7437 37.9135 95.7437 37.591 95.7903C36.9 95.7903 36.209 95.7903 35.5641 95.7903C34.9191 95.7903 34.2742 95.7903 33.6753 95.7903C33.1686 95.7903 32.6618 95.7437 32.2011 95.6041ZM50.536 97.5124C51.0888 98.583 51.8259 99.9793 52.2865 101.422C52.4247 101.795 52.5169 102.167 52.5629 102.539C52.6551 102.865 52.6551 103.238 52.609 103.47C52.5629 103.563 52.5629 103.563 52.5169 103.61C52.5169 103.61 52.5169 103.61 52.4708 103.61C52.4247 103.61 52.4247 103.61 52.3787 103.61L52.2865 103.563C52.0101 103.47 51.7337 103.284 51.5034 103.144C50.9966 102.819 50.582 102.493 50.2596 102.307C49.9371 102.12 49.7067 102.027 49.6146 102.074C49.6146 102.167 49.7528 102.353 49.9832 102.632C49.9832 102.726 49.9832 102.819 49.9832 102.912C49.9832 103.284 50.0292 103.75 50.0753 104.308C50.2135 105.565 50.4899 107.24 50.4899 108.916C50.4899 109.335 50.4899 109.754 50.4438 110.126C50.3978 110.499 50.3517 110.871 50.2135 111.15C50.0753 111.383 49.891 111.523 49.6146 111.569C49.3382 111.616 49.0618 111.476 48.8315 111.336C48.3247 111.057 47.9101 110.685 47.6798 110.406C47.4034 110.126 47.2652 109.94 47.173 109.987C47.173 110.033 47.173 110.173 47.2191 110.312L47.173 110.266C47.0348 110.406 47.0348 111.197 47.0809 112.221C47.0809 112.733 47.0809 113.338 46.9888 113.943C46.8966 114.548 46.7124 115.153 46.3899 115.665C46.2517 115.944 46.0214 116.224 45.8371 116.41C45.745 116.503 45.6528 116.596 45.5607 116.643C45.4686 116.689 45.5146 116.643 45.5146 116.689C45.5146 116.689 45.4225 116.596 45.3764 116.503C45.3303 116.41 45.2382 116.27 45.2382 116.177C45.1461 115.944 45.1 115.665 45.0079 115.432C44.9618 115.2 44.9157 114.967 44.8697 114.781C45.0079 113.803 45.0539 113.152 44.9157 113.105C44.8236 113.152 44.7315 113.384 44.5933 113.71C44.5933 113.664 44.5472 113.617 44.5011 113.617C44.409 113.617 44.3169 113.99 44.2708 114.595C43.8101 116.038 43.2573 118.318 42.7506 120.599C41.9674 123.95 41.2764 127.302 41.0461 127.86C40.9079 127.767 40.7697 127.627 40.5854 127.348C40.3551 126.929 40.1708 126.324 39.9865 125.626C39.6641 124.136 39.3876 122.182 39.2034 120.227C38.7888 116.317 38.5584 112.36 38.282 112.081C38.1438 112.081 38.0517 112.779 38.0517 113.896C37.9135 114.176 37.8214 114.548 37.591 114.967C37.4989 115.153 37.4068 115.293 37.2686 115.432C37.1303 115.572 37.0382 115.572 36.9461 115.572C36.8079 115.572 36.6236 115.432 36.4854 115.293C36.3011 115.153 36.1629 114.967 35.9787 114.781C35.3337 113.99 34.9652 113.012 34.7809 112.221C34.7348 111.988 34.6427 111.755 34.6427 111.569C34.6888 111.476 34.6888 111.43 34.6427 111.383H34.5966C34.5045 111.057 34.4584 110.824 34.3663 110.731C34.2281 110.731 34.0899 111.15 34.0899 111.895C34.0438 111.942 33.9978 112.035 33.9517 112.081C33.6292 112.5 33.2607 113.152 32.7539 113.803C32.6157 113.99 32.5236 114.129 32.3854 114.269C32.3393 114.362 32.2472 114.408 32.1551 114.455C32.109 114.502 32.0629 114.502 32.0629 114.548C32.0169 114.548 32.0169 114.595 32.0169 114.595H31.9708C31.9708 114.595 31.9708 114.595 31.9708 114.548C31.9708 114.548 31.9247 114.502 31.9247 114.455C31.8326 114.315 31.7865 114.129 31.7405 113.896C31.5562 112.966 31.6023 111.895 31.6483 110.824C31.6483 110.266 31.6944 109.754 31.6944 109.195C31.6944 108.683 31.6944 108.171 31.7865 107.659C31.8326 107.147 31.8787 106.682 31.9247 106.216C31.9708 105.751 32.0169 105.332 32.0629 104.913C32.1551 103.982 32.2472 103.191 32.2472 102.679C32.5697 102.4 32.7079 102.214 32.7079 102.167C32.6157 102.167 32.4775 102.167 32.2472 102.26C32.1551 102.307 32.0629 102.353 31.9708 102.4C31.5562 102.586 31.0494 102.865 30.4966 103.191C30.2202 103.331 29.8978 103.517 29.5753 103.61C29.4371 103.656 29.2528 103.703 29.1146 103.75C29.0225 103.75 28.9764 103.75 28.9303 103.75C28.8843 103.75 28.8843 103.75 28.8843 103.75C28.8843 103.75 28.8843 103.75 28.8843 103.703C28.8843 103.656 28.8843 103.61 28.8843 103.517C28.8843 103.377 28.9303 103.191 28.9764 103.005C29.0225 102.819 29.0686 102.632 29.1607 102.493C29.2528 102.307 29.2989 102.12 29.391 101.934C30.082 100.491 31.0955 99.1881 31.9708 98.2572C32.6618 97.5124 33.2146 97.047 33.445 96.7677C33.491 96.7677 33.5371 96.7677 33.6292 96.8143C34.2742 96.9073 34.9191 96.9074 35.5641 96.9539C36.2551 97.0004 36.9461 97.0004 37.6371 97.047C38.0517 97.047 38.5124 97.047 38.927 97.047C38.927 97.2332 38.927 97.3728 38.927 97.559C38.973 98.1641 39.0191 98.8157 39.0652 99.3743C39.1112 100.584 39.2955 101.702 39.4337 102.726C39.5719 103.75 39.7562 104.727 39.9405 105.565C40.1247 106.403 40.2629 107.147 40.5393 107.752C40.6775 108.078 40.9079 108.358 41.2303 108.497C41.3225 108.544 41.4607 108.59 41.5528 108.59C41.5989 108.637 41.691 108.637 41.8292 108.683C41.9674 108.683 42.1978 108.637 42.382 108.451C42.7506 108.125 42.9809 107.613 43.1652 106.961C43.3494 106.31 43.4877 105.565 43.5798 104.727C43.6259 104.308 43.6719 103.843 43.6719 103.377C43.718 102.912 43.718 102.4 43.7641 101.934C43.9023 100.398 44.0865 98.7226 44.2708 96.9073C44.9618 96.9073 45.6068 96.8608 46.2517 96.8143C46.9427 96.7677 47.5877 96.6746 48.1865 96.5815C48.7854 96.4884 49.3843 96.3953 49.9371 96.2092C49.9832 96.2092 50.0292 96.1626 50.0753 96.1626C49.9371 96.4884 50.2135 96.9539 50.536 97.5124ZM51.1348 93.3233C51.1348 93.2768 51.1348 93.2768 51.1348 93.3233C50.9506 93.5561 50.7202 94.1612 50.3056 94.7663C50.0753 95.0455 49.7989 95.2783 49.3843 95.3713C48.9697 95.511 48.4169 95.511 47.818 95.5575C47.2191 95.6041 46.6202 95.6506 45.9753 95.6506C45.3303 95.6506 44.6854 95.6972 44.0405 95.6972C44.0865 94.999 44.1787 94.2543 44.2247 93.5095C46.2056 93.5095 48.0944 93.463 49.7068 93.3699C50.2135 93.3699 50.6742 93.3234 51.1348 93.2303C51.1348 93.2768 51.1348 93.2768 51.1348 93.3233ZM54.7742 88.9946C54.0832 90.2514 53.4382 91.2288 52.9775 91.8804C52.8393 91.9735 52.6551 92.0666 52.4708 92.1132C51.7798 92.439 50.7663 92.4855 49.4764 92.439C47.9562 92.3924 46.2056 92.3459 44.3629 92.2994C44.4551 91.0892 44.5933 89.8324 44.6854 88.5757C44.9157 88.4361 45.1 88.2499 45.3303 88.0637C45.6068 87.7844 45.8832 87.4121 46.1596 86.9932C46.3438 86.9932 46.5281 86.9466 46.7124 86.9466C48.6472 86.7604 50.3978 86.6208 51.9641 86.4812C53.5303 86.3415 54.8663 86.1088 55.7416 85.783C55.9259 85.6899 56.1101 85.6434 56.2944 85.5503C55.7876 86.9001 55.2809 88.0172 54.7742 88.9946ZM60.6247 86.4812C60.2101 86.9466 59.5191 87.0863 58.9202 87.1328C58.5978 87.1794 58.3214 87.1794 58.045 87.1794C57.7686 87.1794 57.5382 87.1794 57.2618 87.1794C56.8933 87.1794 56.5708 87.1794 56.2944 87.2259C56.8011 86.1553 57.3079 84.9452 57.7686 83.5954C58.4135 81.687 58.9663 79.4994 59.473 77.1255C59.7034 75.9619 59.9798 74.7517 60.2101 73.4484C60.4405 72.1917 60.6708 70.8884 60.9011 69.5386C61.0854 68.1888 61.2697 66.7924 61.4539 65.3961C61.5 65.0237 61.5461 64.6979 61.5921 64.3255C61.6382 63.9532 61.6382 63.6273 61.6843 63.255C61.6843 63.1619 61.6843 63.0688 61.6843 62.9757C61.9146 63.0688 62.2371 63.255 62.6517 63.4412C63.0663 63.6273 63.573 63.8135 64.0337 64.1394C64.5405 64.4652 64.9551 64.8841 65.0472 65.5823C65.1854 66.2339 65.1854 67.0252 65.0933 67.863C65.0011 68.7008 64.8629 69.5386 64.6787 70.4695C64.2641 72.2848 63.8955 74.2397 63.527 76.1946C63.1584 78.1495 62.7438 80.0579 62.2832 81.8732C62.191 82.3386 62.0528 82.7575 61.9146 83.1764C61.7764 83.5954 61.6382 84.0143 61.5 84.4332C61.2697 85.271 61.0854 86.0157 60.6247 86.4812ZM76.7023 92.2528C76.4258 94.999 76.1034 97.559 75.7348 99.7932C75.3663 101.981 74.9978 103.843 74.5371 105.053C74.3528 105.565 74.1685 105.984 73.9843 106.263C73.8 106.263 73.5236 106.263 73.2472 106.216C72.8787 106.17 72.5101 106.03 72.1876 105.751C71.8652 105.472 71.5427 105.006 71.3124 104.494C70.8056 103.47 70.4832 102.12 70.2528 100.678C70.1146 99.9794 70.0225 99.1881 69.8843 98.4434C69.7461 97.6521 69.6539 96.9073 69.4236 96.0695C69.009 94.5335 68.5023 92.9975 67.8112 91.6477C67.1202 90.2514 66.245 89.0877 65.2315 88.2034C64.2641 87.3655 63.2045 86.9001 62.4214 86.6674C62.2371 86.6208 62.0528 86.5743 61.9146 86.5277C61.7764 86.5277 61.6843 86.4812 61.5921 86.4812C62.0067 85.8761 62.191 85.1313 62.4674 84.4797C62.6056 84.1074 62.7438 83.6884 62.882 83.2695C63.0202 82.8506 63.1584 82.4317 63.2966 81.9663C63.8034 80.1975 64.218 78.2892 64.5865 76.4274C64.9551 74.5655 65.3236 72.6572 65.6461 70.8884C65.9685 69.1197 66.245 67.3975 65.9685 65.815C65.9225 65.6288 65.8764 65.4426 65.8303 65.2099C66.1067 65.3961 66.4292 65.6288 66.8438 65.9081C67.1202 66.0943 67.3966 66.327 67.7191 66.5597C68.0416 66.7924 68.3641 67.0717 68.6865 67.351C69.4236 67.9095 70.1607 68.6077 70.9438 69.3524C71.773 70.0972 72.5562 70.9815 73.2472 72.0055C73.9843 73.0295 74.5832 74.1932 75.0899 75.4034C75.2281 75.7292 75.3202 76.0084 75.4124 76.3343C75.5045 76.6601 75.5966 76.9859 75.6888 77.3117C75.873 78.0099 76.0112 78.7081 76.1955 79.4063C76.3337 80.1044 76.4719 80.8026 76.5641 81.5008C76.6562 81.8732 76.6562 82.199 76.7023 82.5714L76.7944 83.6419C76.8405 84.0143 76.8865 84.3401 76.8865 84.7124V85.783C76.8865 86.5277 76.9326 87.2259 76.9326 87.9706C76.9326 89.4601 76.7944 90.903 76.7023 92.2528Z" fill="#251A85"/>
<path d="M50.9966 9.86755C49.6606 7.8661 48.3247 6.09737 47.0348 4.65446C45.7449 3.21155 44.5011 2.00137 43.3033 1.30319C42.1056 0.558462 41 0.418826 40.2629 0.605008C40.0786 0.651553 39.9404 0.698099 39.8022 0.744644C39.7101 0.837735 39.6179 0.88428 39.5258 0.930826C39.4337 0.977371 39.3415 1.02392 39.2955 1.02392C38.5584 1.44283 37.6831 1.95483 36.7157 2.69955C36.4393 2.93228 36.1168 3.16501 35.7943 3.39774C35.4719 3.63046 35.1494 3.90973 34.873 4.18901C34.5505 4.46828 34.2741 4.7941 33.9517 5.11992C33.6292 5.44573 33.3067 5.8181 32.9842 6.14392C31.6483 7.58683 30.1741 9.16937 28.8382 11.0777C28.2854 11.8225 27.8247 12.6137 27.364 13.405C27.4561 13.3585 27.5483 13.3585 27.6865 13.3119C28.4236 13.0792 29.391 12.7068 30.5887 12.2879C31.1876 12.1017 31.8326 11.869 32.5696 11.7294C32.9382 11.6363 33.3067 11.5897 33.6752 11.4966C34.0438 11.4036 34.4123 11.4036 34.8269 11.357C35.6101 11.3105 36.3932 11.2174 37.2224 11.1243C38.0517 11.0777 38.8809 11.0777 39.7101 11.0312C43.0269 10.9381 46.3438 11.1243 48.9236 11.5897C50.9966 11.9621 52.4708 12.5206 53.1157 12.893C52.3326 11.869 51.6876 10.845 50.9966 9.86755ZM37.1764 8.93664C37.0382 9.26246 36.6696 9.44864 36.3011 9.35555C35.8404 9.16937 35.8404 8.70392 36.0708 8.3781C36.3472 8.00573 36.7618 7.81955 37.0842 8.05228C37.3606 8.28501 37.3606 8.65737 37.1764 8.93664ZM41.1842 3.35119C41.0921 3.49083 41 3.58392 40.8618 3.7701C40.5854 4.09592 40.309 4.51483 39.9865 4.93373C39.664 5.39919 39.2955 5.8181 38.973 6.14392C38.6505 6.46973 38.3281 6.65592 38.1438 6.60937C37.9595 6.46973 38.0056 6.14392 38.1438 5.67846C38.282 5.25955 38.6045 4.70101 38.973 4.18901C39.3876 3.67701 39.8944 3.21155 40.355 3.02537C40.8157 2.79264 41.1842 2.79264 41.2764 2.97883C41.2764 3.11846 41.2303 3.21155 41.1842 3.35119Z" fill="#02D8C8"/>
<path d="M58.0449 24.4829C57.9527 24.1571 57.8145 23.7847 57.7224 23.4589C57.5842 23.1331 57.446 22.7607 57.3539 22.4349C57.0775 21.7367 56.8471 21.0386 56.6168 20.3869C56.3864 19.6887 56.11 19.0371 55.8336 18.432C55.5572 17.7804 55.2808 17.1753 55.0044 16.5236C54.4516 15.36 53.8527 14.2429 53.2078 13.2189C52.7471 13.2655 51.1808 12.8931 48.9696 12.6604C46.4359 12.3811 43.073 12.288 39.664 12.3811C38.8348 12.4276 37.9595 12.3811 37.1303 12.4742C36.3011 12.5207 35.4718 12.5673 34.6887 12.6138C34.2741 12.6138 33.9055 12.6604 33.537 12.7069C33.3527 12.7535 33.1685 12.7535 32.9842 12.8C32.7999 12.8466 32.6157 12.8466 32.4775 12.8931C31.7864 13.0327 31.1415 13.1724 30.4966 13.3586C29.2527 13.6844 28.2393 13.9171 27.5022 14.0102C27.3179 14.0102 27.1797 14.0567 27.0415 14.0567C26.9954 14.1498 26.9494 14.1964 26.9033 14.2895C26.3505 15.4066 25.7977 16.5702 25.2449 17.7804C24.9685 18.3855 24.6921 18.9906 24.4617 19.5956C24.1853 20.2007 23.9089 20.8524 23.6786 21.504C23.4022 22.2487 23.1258 22.9935 22.8494 23.7847C23.8628 23.4124 25.2449 23.04 26.8572 22.7607C27.2718 22.6676 27.7325 22.5746 28.1932 22.4815C28.6539 22.3884 29.1606 22.3418 29.6213 22.2487C30.128 22.1556 30.6348 22.1091 31.1415 22.016C31.6482 21.9229 32.2011 21.9229 32.7078 21.8298C33.7673 21.7367 34.873 21.5971 36.0246 21.504C36.5775 21.4575 37.1763 21.4109 37.7291 21.3644C38.0055 21.3644 38.282 21.3178 38.6044 21.3178H39.4797C44.0864 21.1316 48.7393 21.5971 52.2404 22.4349C53.9909 22.8073 55.4651 23.3193 56.4786 23.7847C57.2617 24.1571 57.7685 24.5295 58.0449 24.7622C58.0449 24.5295 58.0449 24.5295 58.0449 24.4829ZM50.4437 19.968C50.2134 19.968 49.9831 19.7353 49.7988 19.4095C49.6145 19.0371 49.4303 18.5716 49.2921 18.0596C49.1539 17.5476 49.1078 16.9891 49.1539 16.5236C49.1999 16.1047 49.3842 15.8255 49.5685 15.8255C49.7988 15.872 49.937 16.1047 50.0752 16.4771C50.2134 16.8029 50.3516 17.2684 50.4898 17.7338C50.628 18.1993 50.7202 18.7578 50.7202 19.1767C50.7202 19.5491 50.628 19.8749 50.4437 19.968Z" fill="#251A85"/>
<path d="M53.3 46.3125C53.3 45.754 53.2079 45.1954 53.1618 44.6834C53.1157 44.4041 53.0696 44.1249 53.0236 43.8456C52.9775 43.5663 52.8854 43.287 52.8393 43.0078C52.5629 41.8907 52.1483 40.8201 51.5955 39.7961C50.4899 37.7481 48.6011 36.3052 46.5281 35.4209C44.455 34.5365 42.382 34.1176 40.5393 33.978C38.7427 33.8383 37.2225 34.0245 36.1629 34.2107C35.8865 34.2572 35.6562 34.3038 35.4719 34.3503C35.2876 34.3969 35.1494 34.4434 35.0112 34.4434C34.9191 34.49 34.7809 34.5365 34.6888 34.6296C34.0899 34.9554 33.3989 35.4209 32.6618 36.026C32.2932 36.3052 31.9247 36.631 31.6022 37.0034C31.418 37.1896 31.2798 37.3758 31.0955 37.562C30.9573 37.7481 30.773 37.9809 30.6348 38.2136C29.4371 40.0289 28.6079 42.5423 28.1011 45.1489C27.8708 46.4521 27.8708 47.802 28.055 49.1518C28.2854 50.5016 28.7461 51.8514 29.5292 53.015C30.2663 54.1787 31.2798 55.2492 32.4314 55.994C33.5831 56.7852 34.9191 57.3903 36.209 57.8092C36.8539 58.042 37.5449 58.1816 38.1899 58.3212C38.8348 58.4143 39.4798 58.5074 40.1247 58.554C40.7696 58.6005 41.3685 58.554 42.0135 58.554C42.6123 58.5074 43.1652 58.4143 43.764 58.3212C45.6989 57.9023 47.3112 57.1576 48.509 56.506C48.555 56.4594 48.6932 56.4129 48.8775 56.3198C48.9236 56.2732 48.9697 56.2732 49.0157 56.2267C49.891 55.7147 50.4438 55.2492 50.8123 54.97C51.4573 54.3183 52.0562 53.3874 52.4708 52.2238C53.0697 50.5947 53.3921 48.5001 53.3 46.3125ZM50.7663 50.874C50.3517 51.991 49.7989 53.015 49.0157 53.8529C48.2786 54.6907 47.3573 55.2958 46.4359 55.6216C45.5146 55.994 44.6393 56.1336 43.8562 56.2267C43.073 56.3198 42.382 56.3198 41.8292 56.3198C41.5989 56.3198 41.3685 56.3198 41.1843 56.3198C40.6775 56.3198 39.8483 56.3198 38.8348 56.1336C37.7753 55.9939 36.4854 55.7147 35.1034 55.1096C33.7674 54.5045 32.3854 53.3874 31.5562 51.898C31.0955 51.1998 30.8191 50.4085 30.5427 49.5707C30.4506 49.1518 30.3123 48.7329 30.2663 48.314C30.2202 48.1278 30.1741 47.895 30.1741 47.7089L30.1281 47.1038C29.9899 45.4281 30.2663 43.799 30.773 42.3561C31.2798 40.9132 32.0168 39.703 32.8 38.8187C33.5831 37.9343 34.4584 37.3758 35.0573 37.0034C35.1955 36.9103 35.3337 36.8638 35.4719 36.8172C35.518 36.8172 35.518 36.7707 35.564 36.7707C36.0708 36.4914 36.7618 36.2587 37.591 36.119C38.4202 35.9794 39.3416 35.9794 40.309 36.026C40.8157 36.0725 41.2764 36.119 41.8292 36.1656C42.1056 36.2121 42.3359 36.2121 42.6123 36.2587C42.8888 36.3052 43.1652 36.3518 43.4416 36.3983C44.5472 36.5845 45.7449 36.9103 46.8045 37.6085C47.864 38.2601 48.7854 39.1445 49.5225 40.215C50.2595 41.239 50.7202 42.4492 51.0427 43.6594C51.6876 46.0332 51.5494 48.6398 50.7663 50.874Z" fill="white"/>
<path d="M50.1213 43.7523C49.7988 42.6818 49.3842 41.5647 48.7854 40.6803C48.1404 39.7494 47.3573 38.9581 46.482 38.353C45.5606 37.7479 44.5472 37.4221 43.5797 37.1428C42.5663 36.9567 41.5528 36.817 40.6314 36.7239C39.7101 36.6308 38.8348 36.5378 38.0977 36.6308C37.3146 36.6774 36.6696 36.817 36.1168 37.0032C35.7483 37.1428 35.4719 37.2825 35.2415 37.3756L35.1955 37.4221C35.0573 37.5152 34.9191 37.6548 34.7348 37.7945C34.5966 37.9341 34.4123 38.0738 34.2741 38.2599C34.0899 38.3996 33.9517 38.6323 33.7674 38.8185C33.6752 38.9116 33.5831 39.0047 33.491 39.1443C33.3988 39.2374 33.3528 39.377 33.2606 39.4701C32.6157 40.401 32.0168 41.5647 31.6483 42.9145C31.2797 44.2643 31.1415 45.8003 31.2797 47.2898C31.2797 47.6621 31.3719 48.0345 31.464 48.4068C31.5561 48.7792 31.6022 49.1516 31.7404 49.5239C31.9708 50.2221 32.2932 50.9203 32.6618 51.5719C33.0764 52.177 33.491 52.7821 34.0438 53.2476C34.5966 53.713 35.1494 54.0854 35.7483 54.4112C36.946 55.0163 38.1438 55.3421 39.1573 55.5748C40.0326 55.761 40.7696 55.9007 41.2764 55.9938C41.5988 55.9472 41.9674 55.9472 42.382 55.9007C42.9348 55.8541 43.6258 55.761 44.3629 55.6214C45.1 55.4818 45.9292 55.249 46.7123 54.8301C47.4955 54.4112 48.2325 53.8527 48.8314 53.0614C49.4303 52.3167 49.891 51.3392 50.2134 50.3152C50.6281 48.3138 50.6741 45.9399 50.1213 43.7523ZM38.7427 44.4505C38.282 45.521 37.6831 46.545 37.3606 46.4985C37.0382 46.3123 37.3606 45.1952 37.8674 44.0781C38.3741 42.961 39.2033 41.9836 39.4337 42.1232C39.664 42.3559 39.2033 43.3799 38.7427 44.4505ZM44.5011 43.1938C44.1786 43.7988 43.6258 44.497 43.1191 45.1952C42.8887 45.5676 42.5663 45.8934 42.382 46.2192C42.2438 46.4054 42.1517 46.545 42.0134 46.6847C41.9213 46.8243 41.8292 46.9639 41.737 47.1036C41.5528 47.3828 41.4146 47.6156 41.2764 47.8018C41.1382 47.9879 41.046 48.081 40.9539 48.1276C40.8618 48.081 40.8618 47.9414 40.8618 47.7552C40.8618 47.5225 40.9078 47.2432 41.046 46.9174C41.2764 46.2192 41.7831 45.4279 42.382 44.6832C42.9348 43.9385 43.5337 43.2868 44.0404 42.7748C44.5011 42.2628 44.8236 41.9836 44.9618 42.0301C45.0078 42.1698 44.8696 42.6352 44.5011 43.1938Z" fill="#02D8C8"/>
<path d="M40.7696 59.6247C40.6775 59.6247 40.5393 59.6247 40.4471 59.6247C39.019 59.6247 37.5449 59.392 36.0707 58.9731C34.5966 58.5542 33.1224 57.9025 31.7865 57.0182C30.4044 56.1338 29.2988 54.9236 28.4235 53.5738C27.5943 52.1774 27.0415 50.6414 26.8572 49.1054C26.719 48.3142 26.719 47.5694 26.7651 46.7782C26.8112 46.0334 26.9033 45.2887 27.0876 44.544C27.7325 41.7512 28.746 39.1447 30.2202 37.2829C30.4044 37.0502 30.6348 36.8174 30.819 36.6312C31.0494 36.4451 31.2336 36.2589 31.464 36.0727C31.8786 35.7469 32.2932 35.4211 32.7078 35.1418C33.4909 34.6298 34.2741 34.2109 34.919 33.9782C35.61 33.6989 36.1629 33.6058 36.5314 33.6058C37.4067 33.3265 38.6044 33.1403 40.0325 33.0938C39.8482 32.4422 39.8482 29.8822 39.9404 27.4153C39.9865 25.3673 40.1247 23.3658 40.2168 22.3418C39.9865 22.3418 39.8022 22.3418 39.5718 22.3418H38.6966L37.8213 22.3883C37.2224 22.4349 36.6696 22.4814 36.0707 22.4814C34.919 22.528 33.7674 22.6676 32.6617 22.7142C31.5561 22.7607 30.5426 22.9469 29.5291 23.04C29.0224 23.0865 28.5617 23.1331 28.1011 23.2262C27.6404 23.3193 27.1797 23.3658 26.719 23.4123C25.0145 23.6451 23.6786 23.8778 22.7112 24.1571C22.573 24.5294 22.4808 24.8553 22.3887 25.2276C21.928 26.5774 21.6056 27.9738 21.1909 29.3702C20.8685 30.8131 20.4999 32.2094 20.2696 33.6989C19.9932 35.1418 19.8089 36.6313 19.6247 38.1207C19.4864 39.6102 19.3943 41.1462 19.2561 42.6356C18.9336 48.6865 19.0718 54.7374 19.5786 60.4625C19.6247 61.1607 19.7168 61.9054 19.7629 62.6036C19.855 63.3018 19.9471 64 20.0393 64.6982C20.1314 65.3963 20.2235 66.048 20.3157 66.7462C20.3617 67.072 20.4078 67.3978 20.4539 67.7236C20.4999 68.0494 20.5921 68.3753 20.6381 68.7011C20.8685 70.0043 21.0988 71.2611 21.3291 72.5178C21.6056 73.728 21.882 74.9382 22.1123 76.1018C22.8954 79.5927 23.6786 82.6182 24.5078 85.1316C24.8303 85.1316 25.5213 85.2247 26.2584 85.4109C26.719 85.4574 27.2718 85.5505 27.8707 85.6902C28.4696 85.7367 29.1606 85.8298 29.8977 85.9229C31.3718 86.0625 33.1224 86.1091 34.9651 86.1091C35.5179 86.1091 36.0707 86.1091 36.6235 86.1091C36.3932 85.4109 36.255 84.6662 36.1629 83.8749C36.1168 83.0836 36.0247 82.2458 35.9786 81.3614C35.8864 80.4771 35.8865 79.5927 35.8865 78.7083C35.8865 78.2429 35.8865 77.7774 35.8404 77.3585C35.8404 76.8931 35.8404 76.4276 35.8865 75.9622C35.8865 75.0312 35.9325 74.1003 35.9786 73.216C36.0247 72.7505 36.0247 72.3316 36.0707 71.8662C36.1168 71.4007 36.1168 70.9818 36.2089 70.5629C36.4853 68.7942 37.0842 67.2582 37.8673 66.048C38.6044 64.8843 39.664 64.1396 40.4932 63.9069C40.6314 63.8603 40.7696 63.8138 40.9539 63.7673C40.6775 62.976 40.6314 60.6953 40.7696 59.6247ZM38.0516 23.9243C38.0516 24.6225 36.8078 24.4829 36.8078 23.9243C36.8078 23.3193 37.9595 23.3658 38.0516 23.9243ZM34.4584 23.7382C34.6426 23.7382 34.8269 23.7847 34.9651 23.9243C35.1033 24.0174 35.1494 24.2036 35.0572 24.2967C34.8269 24.576 34.6887 24.6691 34.4123 24.6225C34.182 24.6225 33.8134 24.4829 33.7674 24.2036C33.7674 23.9709 34.0898 23.7382 34.4584 23.7382ZM31.9247 24.4363C31.9247 25.1345 30.819 24.9949 30.819 24.4363C30.819 23.8313 31.8325 23.8778 31.9247 24.4363ZM27.8707 24.3433C28.1471 24.2967 28.4696 24.4363 28.5157 24.6691C28.5617 25.0414 28.2853 25.1811 27.9629 25.2276C27.6404 25.2276 27.3179 25.088 27.3179 24.8087C27.364 24.5294 27.6404 24.3898 27.8707 24.3433ZM23.8629 25.2742C23.9089 24.6691 25.2449 24.7156 25.337 25.2742C25.2909 25.9723 23.8629 25.8327 23.8629 25.2742ZM26.4426 58.1353C26.2584 58.2749 25.9359 58.2283 25.6134 57.9956C25.2909 57.7629 24.9224 57.344 24.6921 56.8785C24.4617 56.4131 24.3696 55.8545 24.4617 55.4356C24.5539 55.0167 24.7381 54.784 24.9224 54.8305C25.1527 54.8771 25.2449 55.1098 25.4291 55.3891C25.5673 55.6683 25.7056 56.0407 25.8898 56.3665C26.2123 57.0647 26.673 57.8094 26.4426 58.1353Z" fill="#F7C003"/>
<path d="M19.118 85.0847C18.7955 84.2468 18.5652 83.3625 18.2888 82.4781C18.0124 81.5472 17.736 80.6163 17.4596 79.6854C17.1832 78.7545 16.8607 77.777 16.6304 76.7996C16.1697 74.8447 15.6169 72.8898 15.2484 71.0745C14.9259 69.4919 14.7877 67.9559 14.9259 66.5596C14.8338 66.6527 14.6955 66.7458 14.5573 66.8388C14.4191 66.9785 14.2349 67.1181 14.0045 67.3043C13.8203 67.4905 13.5899 67.6767 13.3596 67.9094C12.8989 68.3748 12.3461 68.9334 11.7472 69.6316C11.4248 69.9574 11.1484 70.3297 10.7798 70.7021C10.4573 71.0745 10.1349 71.4468 9.76633 71.8657C8.43038 73.4948 7.23263 75.6359 6.26521 78.0098C5.80454 79.1734 5.48206 80.4767 5.15959 81.7799C4.92926 83.0832 4.74499 84.433 4.65285 85.8294C4.56072 87.1792 4.56072 88.5756 4.51465 89.9254C4.51465 91.2752 4.60678 92.625 4.74499 93.8818C5.02139 96.4883 5.436 98.9087 6.03487 100.91C6.63375 102.912 7.46296 104.587 8.52251 105.378C9.02926 105.751 9.58206 105.89 9.99667 105.937C10.0888 105.937 10.1809 105.937 10.2731 105.937C10.3191 105.937 10.3191 105.937 10.3652 105.937C10.5034 105.844 10.5955 105.704 10.6416 105.472C10.8259 104.913 10.872 103.982 10.8259 102.912V102.4C10.8259 102.26 10.8259 102.074 10.872 101.934C10.918 101.655 10.918 101.329 10.9641 101.003C11.0102 100.352 11.1023 99.6999 11.1944 99.0018C11.2866 98.3036 11.4248 97.6054 11.5169 96.8607C11.6551 96.1625 11.7472 95.4177 11.9315 94.673C12.3 93.1836 12.8529 91.7872 13.5899 90.5305C13.7742 90.2047 13.9585 89.9254 14.1427 89.6461C14.327 89.3668 14.5573 89.0876 14.7416 88.8548C15.1562 88.3428 15.5248 87.8774 15.9394 87.4585C16.7225 86.6207 17.5057 86.0156 18.1506 85.7363C18.5652 85.5501 18.9798 85.457 19.1641 85.457C19.2562 85.3639 19.1641 85.2243 19.118 85.0847ZM10.0427 85.9225C9.07532 85.8759 9.25959 83.3159 10.0427 83.3159C10.918 83.409 10.8259 85.8294 10.0427 85.9225ZM11.5169 77.6374C11.1023 79.2665 10.6877 80.9421 10.2731 81.0352C9.8124 80.9421 9.85847 79.0803 10.2731 77.3581C10.7337 75.5894 11.5169 73.9603 11.8854 74.0999C12.254 74.3327 11.9315 76.0083 11.5169 77.6374Z" fill="#02D8C8"/>
<path d="M24.9225 88.0171C24.6461 88.0636 24.3236 88.1102 23.909 88.1567C23.4483 88.1567 22.8955 88.1102 22.3427 87.924C21.7899 87.6912 21.2832 87.2723 20.8685 86.7138C20.4539 86.1552 20.1315 85.4105 19.8551 84.6658C19.5787 83.8745 19.3944 82.9902 19.118 82.1523C18.8416 81.268 18.6112 80.3836 18.3348 79.4527C18.0584 78.5218 17.782 77.5909 17.5517 76.66C17.091 74.7982 16.5843 72.9363 16.1236 71.1676C15.709 69.3989 15.5247 67.7698 15.6629 66.3269C15.6629 65.9545 15.7551 65.6287 15.8011 65.3029C15.8472 65.0236 15.9854 64.7443 16.1697 64.5582C16.4921 64.1392 16.9989 63.9065 17.4135 63.7203C17.9663 63.5342 18.3809 63.348 18.6573 63.2549C19.3023 68.4214 20.2697 73.2156 21.3292 77.3582C21.9281 79.6854 22.527 81.8265 23.1719 83.6883C23.4944 84.6192 23.8169 85.5036 24.1393 86.2949C24.3236 86.7138 24.4618 87.0862 24.6 87.4585C24.6921 87.5982 24.7843 87.8309 24.9225 88.0171Z" fill="#251A85"/>
<path d="M38.5584 88.8083C38.5584 89.9719 38.5584 91.1356 38.5584 92.2992H37.7292C36.854 92.2992 36.0708 92.3923 35.2877 92.4854C33.7214 92.625 32.2933 92.7647 31.0495 92.7181C29.8056 92.7181 28.7922 92.5319 28.1472 92.2527C27.7787 92.113 27.5483 91.9268 27.4101 91.7407C27.2719 91.4614 27.0877 91.1356 26.8573 90.7632C26.4427 89.9254 25.8899 88.8083 25.3371 87.4119C25.0607 86.7603 24.8304 86.0621 24.554 85.3174C24.8304 85.457 25.291 85.6432 25.8438 85.8294C26.6731 86.1552 27.9169 86.481 29.4371 86.7603C30.9573 86.993 32.754 87.1792 34.6888 87.2257C35.4719 87.2723 36.3011 87.2723 37.1304 87.2723C37.2686 87.505 37.4068 87.6912 37.545 87.8774C37.8674 88.3428 38.236 88.6221 38.5584 88.8083Z" fill="#251A85"/>
<path d="M46.7123 81.4546C46.6662 83.0836 46.4359 84.6196 45.9752 85.8764C45.9292 86.016 45.8831 86.1556 45.837 86.2487C45.6988 86.5746 45.5606 86.8538 45.3764 87.0866C45.1921 87.3658 45.0078 87.5986 44.7775 87.8313C44.7775 87.6916 44.7775 87.552 44.8235 87.4589C44.8235 87.3658 44.8235 87.2727 44.8696 87.1796C44.9157 86.7607 44.9157 86.3884 44.9617 85.9695C45.146 83.8749 45.2382 81.7804 45.2382 79.7789C45.2382 78.5222 45.2382 77.3586 45.2382 76.2415C45.1921 75.0778 45.146 74.0073 45.0999 72.9833C45.0078 72.0058 44.9617 71.0749 44.7775 70.2371C44.6393 69.3993 44.3629 68.6546 43.9943 68.0495C43.6258 67.4909 43.119 67.1186 42.7044 67.0255C42.6123 66.9789 42.5202 66.9789 42.428 66.9324C42.3359 66.9324 42.2898 66.9324 42.1977 66.8858C42.1516 66.8858 42.0595 66.8858 42.0134 66.8858C42.0134 66.8393 41.8292 66.8393 41.5067 66.9324C41.3224 66.9789 41.1382 67.0255 40.9078 67.1186C40.7696 67.1651 40.6775 67.2582 40.5393 67.3513C40.4471 67.4444 40.3089 67.584 40.2168 67.7236C39.8483 68.2822 39.6179 68.9804 39.4337 69.8182C39.2033 70.656 39.1112 71.5869 38.973 72.6109C38.9269 73.1229 38.9269 73.6815 38.8808 74.24C38.8808 74.7986 38.8348 75.3571 38.8348 75.9622C38.7887 77.1258 38.7887 78.3826 38.7426 79.6393C38.6966 81.7338 38.6505 83.968 38.6044 86.2487C38.6044 86.6676 38.6044 87.04 38.6044 87.4589C38.6044 87.5055 38.6044 87.5986 38.6044 87.6916C38.6044 87.9244 38.6044 88.1571 38.6044 88.3898C38.328 88.1571 38.0977 87.8313 37.8674 87.4589C37.637 87.0866 37.4988 86.7142 37.3606 86.2487C37.3146 86.1091 37.2685 85.9695 37.2685 85.8298C37.1303 85.1782 37.0382 84.48 36.9921 83.7353C36.946 82.944 36.946 82.1527 36.8999 81.3149C36.8539 80.4771 36.8539 79.6393 36.8539 78.7549C36.8539 78.336 36.8539 77.8706 36.8539 77.4516C36.8539 77.0327 36.8539 76.5673 36.8999 76.1484C36.8999 74.3797 37.0382 72.6109 37.1303 70.9818C37.3146 69.3993 37.7752 67.9098 38.3741 66.7462C38.6966 66.1876 39.0191 65.6756 39.3876 65.3033C39.7561 64.9309 40.1707 64.6516 40.5393 64.4655C41.046 64.2327 41.5067 64.1396 41.7831 64.1396C42.1977 64.1862 42.6584 64.1862 43.1191 64.4189C43.6258 64.6516 44.1325 65.0706 44.5471 65.6291C45.4224 66.7462 45.9292 68.3753 46.2516 70.144C46.5741 71.9127 46.7584 73.8676 46.8044 75.8226C46.8044 77.6378 46.7584 79.5927 46.7123 81.4546Z" fill="#251A85"/>
<path d="M44.1326 75.7756C44.1326 76.9392 44.0865 78.1494 44.0404 79.4061C43.9944 80.0112 43.9944 80.6629 43.9483 81.3145C43.9022 81.9661 43.9022 82.6178 43.8562 83.2694C43.764 84.1538 43.718 85.0847 43.6258 85.969C43.5798 86.388 43.5798 86.7603 43.5337 87.1792C43.5337 87.2258 43.5337 87.2258 43.5337 87.2723C43.4876 87.7378 43.4416 88.2498 43.3955 88.7152C43.3955 88.8549 43.3955 88.9945 43.3494 89.1341C43.2573 90.2047 43.1652 91.2752 43.073 92.2992C43.027 92.7181 43.027 93.0905 42.9809 93.5094C42.9348 94.068 42.8888 94.6731 42.8427 95.2316C42.8427 95.4178 42.8427 95.5574 42.7966 95.6971C42.7506 96.116 42.7506 96.4883 42.7045 96.9072C42.5663 98.8156 42.4742 100.584 42.382 102.213C42.382 104.261 42.382 105.984 42.1517 107.147C42.0595 107.659 41.9213 108.032 41.7371 108.264C41.6449 108.264 41.5067 108.264 41.4146 108.264C41.2303 108.218 41.0461 108.171 40.9539 107.985C40.8157 107.799 40.7236 107.566 40.6775 107.24C40.5854 106.961 40.5393 106.589 40.4933 106.216C40.4472 106.03 40.4472 105.844 40.4011 105.611C40.4011 105.425 40.3551 105.192 40.3551 105.006C40.2629 104.168 40.1247 103.237 40.0786 102.213C40.0326 101.701 39.9865 101.189 39.9404 100.631C39.8944 100.072 39.8944 99.5138 39.8483 98.9552C39.8483 98.3967 39.8022 97.7916 39.8022 97.1865C39.8022 97.0934 39.8022 97.0469 39.8022 96.9538C39.8022 96.5349 39.8022 96.1625 39.8022 95.7436C39.8022 95.604 39.8022 95.5109 39.8022 95.3712C39.8022 94.7661 39.8022 94.1145 39.8022 93.5094C39.8022 93.0905 39.8022 92.7181 39.8022 92.2992C39.8022 91.2752 39.8022 90.2512 39.8022 89.2272C39.8022 89.1341 39.8022 89.0876 39.8022 88.9945C39.8022 88.529 39.8022 88.0636 39.8022 87.5516C39.8022 87.4585 39.8022 87.3654 39.8022 87.2723C39.8022 86.8534 39.8022 86.481 39.8022 86.0621C39.8483 81.3145 39.8483 76.6134 39.8483 72.9829C39.8483 72.7501 39.8483 72.4709 39.8483 72.2381C39.8483 72.0054 39.8944 71.7727 39.8944 71.54C39.9404 71.0745 39.9404 70.6556 40.0326 70.2367C40.0787 69.8178 40.1247 69.4454 40.2169 69.073C40.2629 68.7007 40.3551 68.3749 40.4472 68.0956C40.5393 67.8163 40.6775 67.5836 40.8157 67.444C40.9539 67.3043 41.1382 67.1647 41.3225 67.1181C41.5528 66.9785 41.7831 66.8854 41.8753 66.8389C41.9213 66.8854 42.0596 66.932 42.2899 67.0716C42.5663 67.2112 42.9348 67.4905 43.2573 67.956C43.5798 68.4214 43.8101 69.073 43.9022 69.8178C44.0404 70.609 44.0404 71.4934 44.0865 72.5174C44.0865 73.5414 44.0865 74.612 44.1326 75.7756Z" fill="#02D8C8"/>
<path d="M56.2944 85.5967C55.8337 86.9 55.2809 88.0636 54.7741 89.041C54.0831 90.2978 53.4382 91.2752 52.9775 91.9269C52.8393 92.02 52.655 92.113 52.4708 92.1596C51.7798 92.4854 50.7663 92.532 49.4764 92.4854C47.9562 92.4389 46.2056 92.3923 44.3629 92.3458C44.455 91.1356 44.5933 89.8789 44.6854 88.6221C44.9157 88.4825 45.1 88.2963 45.3303 88.1101C45.6067 87.8309 45.8831 87.4585 46.1595 87.0396C46.3438 87.0396 46.5281 86.993 46.7124 86.993C48.6472 86.8069 50.3977 86.6672 51.964 86.5276C53.5303 86.388 54.8663 86.1552 55.7416 85.8294C55.9719 85.7363 56.1562 85.6432 56.2944 85.5967Z" fill="#251A85"/>
<path d="M60.7629 42.8218C60.5787 39.6567 60.3023 36.4916 59.9337 33.3731C59.5191 30.3942 58.9663 27.4618 58.091 24.7156C57.9989 24.7156 57.8607 24.6691 57.6764 24.6225C57.5382 24.576 57.3539 24.5294 57.1697 24.4363C56.9854 24.3898 56.7551 24.2967 56.4787 24.2036C55.4652 23.8778 54.0371 23.5054 52.2865 23.2262C49.3382 22.6676 45.6067 22.3418 41.691 22.3418C41.2303 22.3418 40.8157 22.3418 40.3551 22.3418C40.4472 23.3658 40.4472 25.4138 40.4011 27.4618C40.3551 29.9287 40.1708 32.4422 40.0326 33.1403C40.3551 33.1403 40.6315 33.1403 40.9539 33.1403C42.8427 33.2334 45.0079 33.6058 47.173 34.4902C48.2326 34.9556 49.3382 35.5607 50.2596 36.352C51.227 37.1433 52.0101 38.1207 52.609 39.2378C53.2079 40.3083 53.6225 41.472 53.8989 42.6356C54.0371 43.1942 54.1753 43.7993 54.2674 44.3578C54.3596 44.9629 54.4056 45.5214 54.4056 46.08C54.4517 48.3607 54.0832 50.4553 53.3921 52.224C52.7011 53.9927 51.5494 55.296 50.4899 55.9011C50.2135 56.0407 49.9832 56.1803 49.7528 56.2734C49.7067 56.32 49.6146 56.3665 49.5685 56.4596C48.4169 57.344 46.6663 58.4145 44.3169 59.1127C43.718 59.2989 43.1191 59.4385 42.4281 59.5316C42.1056 59.5782 41.7371 59.5782 41.4146 59.6247C41.3225 59.6247 41.1843 59.6247 41.0921 59.6247C41.2764 60.6487 41.3225 62.8363 41.1843 63.7207C41.3685 63.6742 41.5528 63.6742 41.7832 63.6742C42.2899 63.6276 42.8888 63.7207 43.4876 64C44.0865 64.2793 44.6854 64.7913 45.1461 65.3963C46.0674 66.6531 46.6663 68.3287 47.0348 70.0974C47.4034 71.8662 47.5876 73.7745 47.6337 75.7294C47.6798 77.6378 47.6337 79.5462 47.5876 81.3614C47.4955 82.9905 47.2652 84.5265 46.7584 85.8298C48.509 85.7367 50.1214 85.6436 51.5955 85.5971C53.1157 85.5505 54.4056 85.504 55.327 85.3178C55.7876 85.2713 56.1562 85.1782 56.4326 85.0851C56.5247 84.8058 56.6169 84.5265 56.709 84.2473C57.3079 82.3854 57.8146 80.1978 58.3214 77.824C58.5517 76.6138 58.782 75.4036 59.0584 74.1003C59.2888 72.7971 59.473 71.4938 59.7034 70.144C59.7494 69.8182 59.8416 69.4458 59.8876 69.12C59.9337 68.7942 59.9798 68.4218 60.0259 68.096C60.118 67.3978 60.2101 66.6996 60.3023 65.9549C60.3944 65.2567 60.4865 64.512 60.5326 63.7673C60.5787 63.0225 60.6247 62.2778 60.7169 61.5331C61.1315 55.5753 61.1315 49.1985 60.7629 42.8218ZM41.7832 23.7382C41.8292 23.1331 43.1191 23.1796 43.1652 23.7382C43.1652 24.4363 41.7832 24.2967 41.7832 23.7382ZM45.6989 24.3898C45.3303 24.3433 45.0079 24.064 45.1 23.7847C45.2382 23.5054 45.5146 23.4123 45.791 23.4589C46.1135 23.5054 46.436 23.6916 46.3899 23.9709C46.3438 24.3433 46.0214 24.4363 45.6989 24.3898ZM49.2461 24.2502C49.1539 24.576 48.9236 24.7156 48.7393 24.6691C48.509 24.6691 48.2787 24.4829 48.2787 24.2036C48.2787 23.8778 48.5551 23.7382 48.7854 23.7847C49.0618 23.7847 49.2921 23.9709 49.2461 24.2502ZM51.9641 24.6691C51.8259 24.9949 51.5494 25.088 51.3652 24.9949C51.1348 24.9483 50.9045 24.7622 50.9045 24.4829C50.9045 24.1571 51.227 24.064 51.5034 24.1105C51.8259 24.1571 52.0562 24.3898 51.9641 24.6691ZM53.8989 24.7622C54.0371 24.1571 55.0506 24.3898 55.0045 24.9483C54.8663 25.6465 53.7607 25.3207 53.8989 24.7622ZM56.9854 70.5629C56.8933 71.1214 56.6629 71.5869 56.2483 71.68C55.7876 71.68 55.6034 70.9818 55.7416 70.3767C55.8798 69.7716 56.2023 69.2596 56.5708 69.3062C57.0315 69.3527 57.1236 70.0043 56.9854 70.5629ZM57.8146 62.2313C57.6303 63.8603 57.2157 65.4429 56.8011 65.536C56.3405 65.4429 56.3405 63.7673 56.5247 62.1382C56.6169 60.5091 56.9393 58.88 57.3079 58.88C57.7685 58.9731 57.9067 60.6022 57.8146 62.2313Z" fill="#F7C003"/>
<path d="M65.1854 67.9097C65.0933 68.7476 64.9551 69.5854 64.7708 70.5163C64.3562 72.3316 63.9876 74.2865 63.6191 76.2414C63.2506 78.1963 62.836 80.1046 62.3753 81.9199C62.2831 82.3854 62.1449 82.8043 62.0067 83.2232C61.8685 83.6421 61.7303 84.061 61.5921 84.4799C61.3157 85.3177 61.1315 86.0625 60.6708 86.5279C60.2562 86.9934 59.5652 87.133 58.9663 87.1796C58.6438 87.2261 58.3674 87.2261 58.091 87.2261C57.8146 87.2261 57.5843 87.2261 57.3079 87.2261C56.9393 87.2261 56.6169 87.2261 56.3405 87.2726C56.8472 86.2021 57.3539 84.9919 57.8146 83.6421C58.4596 81.7337 59.0124 79.5461 59.5191 77.1723C59.7494 76.0086 60.0258 74.7985 60.2562 73.4952C60.4865 72.2385 60.7169 70.9352 60.9472 69.5854C61.1315 68.2356 61.3157 66.8392 61.5 65.4428C61.5461 65.0705 61.5921 64.7446 61.6382 64.3723C61.6843 63.9999 61.6843 63.6741 61.7303 63.3017C61.7303 63.2086 61.7303 63.1156 61.7303 63.0225C61.9607 63.1156 62.2832 63.3017 62.6978 63.4879C63.1124 63.6741 63.6191 63.8603 64.0798 64.1861C64.5865 64.5119 65.0011 64.9308 65.0933 65.629C65.2775 66.3272 65.2775 67.1185 65.1854 67.9097Z" fill="#251A85"/>
<path d="M76.8865 85.8763V84.8058C76.8865 84.4334 76.8405 84.061 76.7944 83.7352L76.7023 82.6647C76.6562 82.2923 76.6562 81.92 76.5641 81.5941C76.4259 80.896 76.2877 80.1978 76.1955 79.4996C76.0113 78.8014 75.827 78.1032 75.6888 77.405C75.5967 77.0792 75.5045 76.7069 75.4124 76.4276C75.3203 76.1018 75.2281 75.7759 75.0899 75.4967C74.6292 74.2399 73.9843 73.1229 73.2472 72.0989C72.5101 71.0749 71.7731 70.1905 70.9438 69.4458C70.1146 68.701 69.3776 68.0029 68.6865 67.4443C68.318 67.165 67.9955 66.8858 67.7191 66.653C67.3967 66.4203 67.1203 66.1876 66.8439 66.0014C66.4292 65.7221 66.1068 65.4894 65.8304 65.3032C65.8764 65.4894 65.9686 65.6756 65.9686 65.9083C66.245 67.4443 66.0146 69.1665 65.6461 70.9818C65.3236 72.7505 64.9551 74.6123 64.5865 76.5207C64.218 78.3825 63.8034 80.2909 63.2967 82.0596C63.1585 82.4785 63.0203 82.944 62.8821 83.3629C62.7438 83.7818 62.6057 84.2007 62.4674 84.573C62.2371 85.2247 62.0068 85.9694 61.5922 86.5745C61.6843 86.5745 61.8225 86.621 61.9146 86.621C62.0528 86.6676 62.2371 86.7141 62.4214 86.7607C63.2045 86.9934 64.218 87.4589 65.2315 88.2967C66.1989 89.1345 67.1203 90.3447 67.8113 91.741C68.5023 93.1374 69.009 94.6269 69.4236 96.1629C69.654 97.0007 69.7461 97.7454 69.8843 98.5367C70.0225 99.2814 70.1146 100.073 70.2528 100.771C70.5292 102.214 70.8517 103.564 71.3124 104.588C71.5427 105.1 71.8652 105.565 72.1877 105.844C72.5101 106.124 72.8787 106.31 73.2472 106.31C73.5697 106.356 73.8 106.356 73.9843 106.356C74.1686 106.077 74.3528 105.658 74.5371 105.146C74.9517 103.889 75.3663 102.074 75.7349 99.8865C76.1034 97.6989 76.4259 95.1389 76.7023 92.3461C76.8405 90.9498 76.9787 89.5534 76.9326 88.157C76.9326 87.3192 76.8865 86.621 76.8865 85.8763ZM70.4371 75.9621C70.2068 75.357 69.9304 74.7985 69.7461 74.3796C69.7 74.2865 69.654 74.1934 69.6079 74.1003C69.5618 74.0072 69.5158 73.9607 69.5158 73.8676C69.4697 73.7279 69.4236 73.6349 69.4697 73.5418C69.5158 73.4487 69.7 73.4487 69.8843 73.4952C70.0686 73.5418 70.2989 73.6814 70.5292 73.8676C70.9899 74.2399 71.3585 74.8916 71.6349 75.4967C72.1877 76.7534 72.3259 78.1498 71.9573 78.3359C71.4506 78.429 70.9438 77.1723 70.4371 75.9621ZM72.7865 84.6661C72.3259 84.7592 72.0034 84.1076 71.9113 83.4094C71.8191 82.8043 71.9573 82.1527 72.3259 82.0596C72.7405 82.013 73.063 82.6181 73.1551 83.2698C73.2933 83.9214 73.1551 84.5265 72.7865 84.6661Z" fill="#02D8C8"/>
<path d="M41.1842 3.35091C41.0921 3.49054 40.9999 3.58363 40.8617 3.76982C40.5853 4.09563 40.3089 4.51454 39.9865 4.93345C39.664 5.39891 39.2954 5.81781 38.973 6.14363C38.6505 6.46945 38.328 6.65563 38.1438 6.60909C37.9595 6.46945 38.0056 6.14363 38.1438 5.67818C38.282 5.25927 38.6044 4.70072 38.973 4.18872C39.3876 3.67672 39.8943 3.21127 40.355 3.02509C40.8157 2.79236 41.1842 2.79236 41.2763 2.97854C41.2763 3.11818 41.2303 3.21127 41.1842 3.35091Z" fill="white"/>
<path d="M37.1763 8.93672C37.0381 9.26253 36.6696 9.44872 36.3011 9.35562C35.8404 9.16944 35.8404 8.70399 36.0707 8.37817C36.3471 8.00581 36.7617 7.81962 37.0842 8.05235C37.3606 8.28508 37.3606 8.65744 37.1763 8.93672Z" fill="white"/>
<path d="M50.7202 19.1301C50.7202 19.549 50.582 19.8748 50.3977 19.9214C50.1674 19.9214 49.9371 19.6886 49.7528 19.3628C49.5685 18.9904 49.3843 18.525 49.2461 18.013C49.1079 17.501 49.0618 16.9424 49.1079 16.477C49.1539 16.0581 49.3382 15.7788 49.5225 15.7788C49.7528 15.8254 49.891 16.0581 50.0292 16.4304C50.1674 16.7563 50.3056 17.2217 50.4438 17.6872C50.6741 18.1992 50.7663 18.7112 50.7202 19.1301Z" fill="white"/>
<path d="M57.8146 62.2312C57.6303 63.8602 57.2157 65.4428 56.8011 65.5359C56.3404 65.4428 56.3404 63.7672 56.5247 62.1381C56.6168 60.509 56.9393 58.8799 57.3078 58.8799C57.7685 58.973 57.9067 60.6021 57.8146 62.2312Z" fill="white"/>
<path d="M56.9854 70.5629C56.8932 71.1214 56.6629 71.5869 56.2483 71.68C55.7876 71.68 55.6033 70.9818 55.7415 70.3767C55.8797 69.7716 56.2022 69.2596 56.5708 69.3062C57.0314 69.3527 57.1236 70.0044 56.9854 70.5629Z" fill="white"/>
<path d="M26.4427 58.1353C26.2585 58.2749 25.936 58.2284 25.6135 57.9957C25.291 57.7629 24.9225 57.344 24.6922 56.8786C24.4618 56.4131 24.3697 55.8546 24.4618 55.4357C24.554 55.0168 24.7382 54.784 24.9225 54.8306C25.1528 54.8771 25.245 55.1099 25.4292 55.3891C25.5674 55.6684 25.7056 56.0408 25.8899 56.3666C26.2124 57.0648 26.6731 57.8095 26.4427 58.1353Z" fill="white"/>
<path d="M38.7427 44.4505C38.282 45.521 37.6831 46.545 37.3606 46.4985C37.0382 46.3123 37.3606 45.1952 37.8674 44.0781C38.3741 42.961 39.2033 41.9836 39.4337 42.1232C39.664 42.3559 39.2033 43.3799 38.7427 44.4505Z" fill="white"/>
<path d="M44.5011 43.194C44.1787 43.7991 43.6259 44.4973 43.1191 45.1955C42.8888 45.5679 42.5663 45.8937 42.382 46.2195C42.2438 46.4057 42.1517 46.5453 42.0135 46.685C41.9214 46.8246 41.8292 46.9642 41.7371 47.1039C41.5528 47.3831 41.4146 47.6159 41.2764 47.802C41.1382 47.9882 41.0461 48.0813 40.954 48.1279C40.8618 48.0813 40.8618 47.9417 40.8618 47.7555C40.8618 47.5228 40.9079 47.2435 41.0461 46.9177C41.2764 46.2195 41.7832 45.4282 42.382 44.6835C42.9349 43.9388 43.5337 43.2871 44.0405 42.7751C44.5011 42.2631 44.8236 41.9839 44.9618 42.0304C45.0079 42.17 44.8697 42.6355 44.5011 43.194Z" fill="white"/>
<path d="M11.5169 77.6376C11.1023 79.2667 10.6876 80.9424 10.273 81.0354C9.81236 80.9424 9.85843 79.0805 10.273 77.3583C10.7337 75.5896 11.5169 73.9605 11.8854 74.1002C12.2539 74.3329 11.9315 76.0085 11.5169 77.6376Z" fill="white"/>
<path d="M10.0429 85.923C9.0755 85.8764 9.25977 83.3164 10.0429 83.3164C10.9182 83.4095 10.8261 85.8299 10.0429 85.923Z" fill="white"/>
<path d="M71.9573 78.3357C71.4966 78.4288 70.9438 77.172 70.4371 75.9618C70.2067 75.3567 69.9303 74.7982 69.746 74.3793C69.7 74.2862 69.6539 74.1931 69.6078 74.1C69.5618 74.0069 69.5157 73.9604 69.5157 73.8673C69.4696 73.7277 69.4236 73.6346 69.4696 73.5415C69.5157 73.4484 69.7 73.4484 69.8842 73.4949C70.0685 73.5415 70.2989 73.6811 70.5292 73.8673C70.9899 74.2397 71.3584 74.8913 71.6348 75.4964C72.1416 76.7531 72.2798 78.1495 71.9573 78.3357Z" fill="white"/>
<path d="M72.7865 84.6662C72.3258 84.7593 72.0033 84.1076 71.9112 83.4095C71.8191 82.8044 71.9573 82.1527 72.3258 82.0597C72.7404 82.0131 73.0629 82.6182 73.155 83.2698C73.2932 83.9215 73.155 84.5266 72.7865 84.6662Z" fill="white"/>
<path d="M15.4326 39.3771C15.6169 39.284 15.8472 38.6324 16.0315 37.748C16.2158 36.8171 16.4 35.6534 16.5382 34.4898C16.7225 33.3262 16.8607 32.1625 16.9989 31.2782C17.1371 30.3938 17.1832 29.7422 16.9989 29.6025C16.8146 29.556 16.4461 30.068 16.1236 30.9524C15.7551 31.8367 15.4787 33.0469 15.2944 34.3036C15.1102 35.5603 15.0641 36.7705 15.0641 37.7014C15.1102 38.6324 15.2023 39.284 15.4326 39.3771Z" fill="white"/>
<path d="M15.4326 45.335C16.2157 45.1954 16.2618 42.3096 15.4326 42.1699C14.6494 42.1699 14.4651 45.2885 15.4326 45.335Z" fill="white"/>
<path d="M63.8494 48.5935C64.0337 49.1055 64.2641 49.4313 64.4944 49.4313C64.6787 49.3382 64.7708 48.9193 64.7708 48.3608C64.7708 47.8022 64.6787 47.104 64.5405 46.4058C64.4483 45.7542 64.2641 45.056 64.1719 44.5906C64.0337 44.0786 63.8955 43.7062 63.7112 43.6597C63.527 43.6597 63.3427 43.9855 63.2506 44.5906C63.1584 45.1491 63.2045 45.8938 63.3427 46.6386C63.4809 47.3833 63.6652 48.0815 63.8494 48.5935Z" fill="white"/>
<path d="M81.9539 89.1343C81.8618 88.2499 81.6775 87.4121 81.4932 86.807C81.309 86.2019 81.0786 85.7365 80.8944 85.6899C80.7101 85.6899 80.618 86.1554 80.5719 86.8536C80.5719 87.5518 80.618 88.3896 80.7101 89.2739C80.7562 90.1118 80.8483 90.9496 80.8483 91.6012C80.8944 91.927 80.8483 92.1598 80.8944 92.3925C80.9404 92.5787 80.9865 92.7648 81.1247 92.8114C81.2168 92.8114 81.355 92.6718 81.4932 92.4856C81.6315 92.2994 81.7697 92.0201 81.8618 91.6478C81.9079 91.4616 81.9539 91.2754 82 91.0892C82.0461 90.903 82.0461 90.6703 82.0461 90.4841C82.0461 90.0652 82 89.5998 81.9539 89.1343Z" fill="white"/>
<path d="M56.0641 12.7534C56.6169 13.8239 57.2158 14.8945 57.6764 15.6857C58.1371 16.477 58.4135 16.989 58.6438 16.989C58.8281 16.8494 58.8281 16.1046 58.5056 15.2203C58.2292 14.3359 57.7225 13.2188 57.1697 12.1948C56.6169 11.1243 56.018 10.1468 55.5113 9.4021C55.2809 9.02974 55.0506 8.70392 54.9124 8.47119C54.8202 8.3781 54.7742 8.28501 54.7281 8.23846C54.682 8.19192 54.636 8.14537 54.5899 8.09883C54.5438 8.05228 54.4978 8.09883 54.4517 8.19192C54.4056 8.28501 54.4056 8.42464 54.4056 8.56428C54.4056 8.84355 54.4978 9.26246 54.682 9.68137C55.0045 10.5657 55.5113 11.6828 56.0641 12.7534Z" fill="white"/>
<path d="M25.2911 25.2739C25.2911 25.9721 23.8169 25.8325 23.8169 25.2739C23.909 24.6688 25.245 24.7154 25.2911 25.2739Z" fill="#251A85"/>
<path d="M28.009 25.2741C27.6865 25.2741 27.364 25.1345 27.364 24.8552C27.4101 24.5294 27.6404 24.3898 27.9168 24.3898C28.1932 24.3432 28.5157 24.4829 28.5618 24.7156C28.6078 25.0414 28.2854 25.2276 28.009 25.2741Z" fill="#251A85"/>
<path d="M31.9247 24.436C31.9247 25.1342 30.8191 24.9946 30.8191 24.436C30.8191 23.831 31.8326 23.8775 31.9247 24.436Z" fill="#251A85"/>
<path d="M35.0573 24.3429C34.827 24.6222 34.6888 24.7152 34.4124 24.6687C34.1821 24.6687 33.8135 24.5291 33.7675 24.2498C33.7675 23.9705 34.0899 23.7378 34.4585 23.7378C34.6427 23.7378 34.827 23.7843 34.9652 23.924C35.1034 24.0636 35.1495 24.2032 35.0573 24.3429Z" fill="#251A85"/>
<path d="M38.0517 23.9243C38.0517 24.6225 36.8079 24.4829 36.8079 23.9243C36.8079 23.3192 37.9595 23.3658 38.0517 23.9243Z" fill="#251A85"/>
<path d="M43.1651 23.7378C43.1651 24.436 41.7831 24.2964 41.7831 23.7378C41.8291 23.1327 43.119 23.1793 43.1651 23.7378Z" fill="#251A85"/>
<path d="M46.436 24.0171C46.3899 24.3429 46.0674 24.4825 45.6989 24.436C45.3303 24.3894 45.0079 24.1102 45.1 23.8309C45.2382 23.5516 45.5146 23.4585 45.791 23.5051C46.1135 23.5516 46.436 23.7378 46.436 24.0171Z" fill="#251A85"/>
<path d="M49.2461 24.2501C49.154 24.5759 48.9236 24.7155 48.7394 24.669C48.509 24.669 48.2787 24.4828 48.2787 24.2035C48.2787 23.8777 48.5551 23.7381 48.7854 23.7846C49.0618 23.7846 49.2922 23.9708 49.2461 24.2501Z" fill="#251A85"/>
<path d="M51.9641 24.6689C51.8259 24.9947 51.5495 25.0878 51.3652 24.9947C51.1349 24.9482 50.9045 24.762 50.9045 24.4827C50.9045 24.1569 51.227 24.0638 51.5034 24.1104C51.8259 24.1569 52.0562 24.3896 51.9641 24.6689Z" fill="#251A85"/>
<path d="M55.0045 24.948C54.8663 25.6462 53.8067 25.3204 53.8989 24.7618C54.0371 24.1568 55.0505 24.3895 55.0045 24.948Z" fill="#251A85"/>
</svg>
