<svg width="1920" height="550" viewBox="0 0 1920 550" fill="none" xmlns="http://www.w3.org/2000/svg">
<path d="M1747.2 311.4C1745.6 311.2 1744.2 310.1 1744.1 308.7C1744 307.5 1743.1 302.5 1743.1 302.5C1743.1 302.5 1742.3 307.6 1742.1 308.7C1741.7 310.4 1740.6 311.2 1739 311.4C1737.7 311.6 1731.9 312.3 1731.9 312.3C1731.9 312.3 1737.7 313 1739 313.2C1741.1 313.4 1741.9 314.6 1742.1 316C1742.3 317.1 1743.1 322.2 1743.1 322.2C1743.1 322.2 1744 317.1 1744.1 316C1744.3 314.5 1745.6 313.4 1747.2 313.2C1748.5 313.1 1754.3 312.3 1754.3 312.3C1754.3 312.3 1748.5 311.5 1747.2 311.4Z" fill="white"/>
<path d="M1861.3 270.4C1860.2 270.3 1859.2 269.5 1859.1 268.4C1859 267.6 1858.4 264 1858.4 264C1858.4 264 1857.9 267.6 1857.7 268.4C1857.5 269.6 1856.6 270.2 1855.5 270.4C1854.6 270.5 1850.4 271 1850.4 271C1850.4 271 1854.5 271.5 1855.5 271.6C1857 271.8 1857.6 272.6 1857.7 273.6C1857.8 274.4 1858.4 278 1858.4 278C1858.4 278 1859 274.4 1859.1 273.6C1859.2 272.5 1860.1 271.8 1861.3 271.6C1862.2 271.5 1866.4 271 1866.4 271C1866.4 271.1 1862.3 270.5 1861.3 270.4Z" fill="white"/>
<path d="M1845.3 41.2999C1844.2 41.1999 1843.2 40.3999 1843.1 39.2999C1843 38.4999 1842.4 34.8999 1842.4 34.8999C1842.4 34.8999 1841.9 38.4999 1841.7 39.2999C1841.5 40.4999 1840.6 41.0999 1839.5 41.2999C1838.6 41.3999 1834.4 41.8999 1834.4 41.8999C1834.4 41.8999 1838.5 42.3999 1839.5 42.4999C1841 42.6999 1841.6 43.4999 1841.7 44.4999C1841.8 45.2999 1842.4 48.8999 1842.4 48.8999C1842.4 48.8999 1843 45.2999 1843.1 44.4999C1843.2 43.3999 1844.1 42.6999 1845.3 42.4999C1846.2 42.3999 1850.4 41.8999 1850.4 41.8999C1850.4 41.9999 1846.3 41.3999 1845.3 41.2999Z" fill="white"/>
<path d="M1619 70.5001C1617.9 70.4001 1616.9 69.6001 1616.8 68.5001C1616.7 67.7001 1616.1 64.1001 1616.1 64.1001C1616.1 64.1001 1615.6 67.7001 1615.4 68.5001C1615.2 69.7001 1614.3 70.3001 1613.2 70.5001C1612.3 70.6001 1608.1 71.1001 1608.1 71.1001C1608.1 71.1001 1612.2 71.6001 1613.2 71.7001C1614.7 71.9001 1615.3 72.7001 1615.4 73.7001C1615.5 74.5001 1616.1 78.1001 1616.1 78.1001C1616.1 78.1001 1616.7 74.5001 1616.8 73.7001C1616.9 72.6001 1617.8 71.9001 1619 71.7001C1619.9 71.6001 1624.1 71.1001 1624.1 71.1001C1624.1 71.1001 1620 70.6001 1619 70.5001Z" fill="white"/>
<path d="M74.3 33.7C72 33.4 70 31.9 69.8 29.8C69.7 28.2 68.4 21 68.4 21C68.4 21 67.3 28.2 67 29.8C66.5 32.2 64.9 33.4 62.6 33.7C60.8 33.9 52.6 34.9 52.6 34.9C52.6 34.9 60.8 35.9 62.6 36.1C65.5 36.4 66.7 38.1 67 40C67.2 41.6 68.4 48.8 68.4 48.8C68.4 48.8 69.6 41.6 69.8 40C70.1 37.8 71.9 36.4 74.2 36.1C76.1 35.9 84.2 34.9 84.2 34.9C84.3 34.9 76.1 33.8 74.3 33.7Z" fill="white"/>
<path d="M235.7 451.4C234.8 451.3 234 450.7 233.9 449.9C233.8 449.3 233.4 446.4 233.4 446.4C233.4 446.4 233 449.2 232.8 449.9C232.6 450.8 232 451.3 231 451.4C230.3 451.5 227 451.9 227 451.9C227 451.9 230.2 452.3 231 452.4C232.2 452.5 232.6 453.2 232.7 453.9C232.8 454.5 233.3 457.4 233.3 457.4C233.3 457.4 233.8 454.6 233.9 453.9C234 453 234.7 452.5 235.6 452.4C236.3 452.3 239.6 451.9 239.6 451.9C239.7 451.8 236.5 451.4 235.7 451.4Z" fill="white"/>
<path d="M86.7 139.4C85.8 139.3 85 138.7 84.9 137.9C84.8 137.3 84.4 134.4 84.4 134.4C84.4 134.4 84 137.2 83.8 137.9C83.6 138.8 83 139.3 82 139.4C81.3 139.5 78 139.9 78 139.9C78 139.9 81.2 140.3 82 140.4C83.2 140.5 83.6 141.2 83.7 141.9C83.8 142.5 84.3 145.4 84.3 145.4C84.3 145.4 84.8 142.6 84.9 141.9C85 141 85.7 140.5 86.6 140.4C87.3 140.3 90.6 139.9 90.6 139.9C90.7 139.8 87.5 139.4 86.7 139.4Z" fill="white"/>
<path d="M54.6 241.4C53.7 241.3 52.9 240.7 52.8 239.9C52.7 239.3 52.3 236.4 52.3 236.4C52.3 236.4 51.9 239.2 51.8 239.9C51.6 240.8 51 241.3 50 241.4C49.3 241.5 46 241.9 46 241.9C46 241.9 49.2 242.3 50 242.4C51.2 242.5 51.6 243.2 51.7 243.9C51.8 244.5 52.3 247.4 52.3 247.4C52.3 247.4 52.8 244.6 52.9 243.9C53 243 53.7 242.5 54.6 242.4C55.3 242.3 58.6 241.9 58.6 241.9C58.6 241.9 55.4 241.4 54.6 241.4Z" fill="white"/>
<path d="M924.9 20.7998C924 20.6998 923.2 20.0998 923.1 19.2998C923 18.6998 922.6 15.7998 922.6 15.7998C922.6 15.7998 922.2 18.5998 922.1 19.2998C921.9 20.1998 921.3 20.6998 920.3 20.7998C919.6 20.8998 916.3 21.2998 916.3 21.2998C916.3 21.2998 919.5 21.6998 920.3 21.7998C921.5 21.8998 921.9 22.5998 922 23.2998C922.1 23.8998 922.6 26.7998 922.6 26.7998C922.6 26.7998 923.1 23.9998 923.2 23.2998C923.3 22.3998 924 21.8998 924.9 21.7998C925.6 21.6998 928.9 21.2998 928.9 21.2998C928.9 21.2998 925.7 20.8998 924.9 20.7998Z" fill="white"/>
<path d="M1672 407.5C1670.1 407.3 1668.3 405.9 1668.1 404.1C1668 402.7 1666.9 396.4 1666.9 396.4C1666.9 396.4 1666 402.7 1665.7 404.1C1665.3 406.2 1663.9 407.2 1661.8 407.5C1660.2 407.7 1653 408.6 1653 408.6C1653 408.6 1660.2 409.5 1661.8 409.7C1664.4 410 1665.4 411.4 1665.7 413.1C1665.9 414.5 1666.9 420.8 1666.9 420.8C1666.9 420.8 1668 414.5 1668.1 413.1C1668.3 411.2 1669.9 409.9 1672 409.7C1673.6 409.5 1680.8 408.6 1680.8 408.6C1680.8 408.5 1673.6 407.6 1672 407.5Z" fill="white"/>
<path d="M1789.7 158C1788.8 157.9 1788 157.3 1787.9 156.4C1787.8 155.7 1787.3 152.9 1787.3 152.9C1787.3 152.9 1786.9 155.8 1786.7 156.4C1786.5 157.4 1785.9 157.8 1784.9 158C1784.2 158.1 1780.9 158.5 1780.9 158.5C1780.9 158.5 1784.2 158.9 1784.9 159C1786.1 159.1 1786.6 159.8 1786.7 160.6C1786.8 161.2 1787.3 164.1 1787.3 164.1C1787.3 164.1 1787.8 161.2 1787.9 160.6C1788 159.7 1788.7 159.1 1789.7 159C1790.4 158.9 1793.7 158.5 1793.7 158.5C1793.7 158.5 1790.5 158 1789.7 158Z" fill="white"/>
<path d="M1281.5 48.5001C1280.6 48.4001 1279.8 47.8001 1279.8 47.0001C1279.7 46.4001 1279.3 43.6001 1279.3 43.6001C1279.3 43.6001 1278.9 46.4001 1278.8 47.0001C1278.6 47.9001 1278 48.4001 1277.1 48.5001C1276.4 48.6001 1273.2 49.0001 1273.2 49.0001C1273.2 49.0001 1276.4 49.4001 1277.1 49.5001C1278.3 49.6001 1278.7 50.3001 1278.8 51.0001C1278.9 51.6001 1279.3 54.4001 1279.3 54.4001C1279.3 54.4001 1279.8 51.6001 1279.8 51.0001C1279.9 50.1001 1280.6 49.6001 1281.5 49.5001C1282.2 49.4001 1285.4 49.0001 1285.4 49.0001C1285.4 49.0001 1282.2 48.6001 1281.5 48.5001Z" fill="white"/>
<path d="M363.9 31.2999C362.7 31.1999 361.6 30.2999 361.5 29.1999C361.4 28.2999 360.7 24.3999 360.7 24.3999C360.7 24.3999 360.1 28.2999 359.9 29.1999C359.6 30.4999 358.7 31.1999 357.5 31.2999C356.5 31.3999 352 31.9999 352 31.9999C352 31.9999 356.5 32.5999 357.5 32.6999C359.1 32.8999 359.8 33.7999 359.9 34.7999C360 35.6999 360.7 39.5999 360.7 39.5999C360.7 39.5999 361.4 35.6999 361.5 34.7999C361.6 33.5999 362.6 32.7999 363.9 32.6999C364.9 32.5999 369.4 31.9999 369.4 31.9999C369.4 31.9999 365 31.3999 363.9 31.2999Z" fill="white"/>
<path d="M1879.8 439.1C1878.6 439 1877.5 438.1 1877.4 437C1877.3 436.1 1876.6 432.2 1876.6 432.2C1876.6 432.2 1876 436.1 1875.8 437C1875.5 438.3 1874.6 439 1873.4 439.1C1872.4 439.2 1867.9 439.8 1867.9 439.8C1867.9 439.8 1872.4 440.4 1873.4 440.5C1875 440.7 1875.7 441.6 1875.8 442.6C1875.9 443.5 1876.6 447.4 1876.6 447.4C1876.6 447.4 1877.3 443.5 1877.4 442.6C1877.5 441.4 1878.5 440.6 1879.8 440.5C1880.8 440.4 1885.3 439.8 1885.3 439.8C1885.3 439.8 1880.8 439.2 1879.8 439.1Z" fill="white"/>
<path d="M567.3 72.5999C566 72.4999 564.9 71.5999 564.8 70.3999C564.7 69.4999 564 65.3999 564 65.3999C564 65.3999 563.4 69.4999 563.2 70.3999C562.9 71.7999 562 72.3999 560.7 72.5999C559.7 72.6999 555 73.2999 555 73.2999C555 73.2999 559.6 73.8999 560.7 73.9999C562.4 74.1999 563 75.0999 563.2 76.1999C563.3 77.0999 564 81.1999 564 81.1999C564 81.1999 564.7 77.0999 564.8 76.1999C564.9 74.9999 566 74.0999 567.3 73.9999C568.4 73.8999 573 73.2999 573 73.2999C573 73.2999 568.3 72.6999 567.3 72.5999Z" fill="white"/>
<path d="M202.8 149.9C201.5 149.8 200.4 148.9 200.3 147.7C200.2 146.8 199.5 142.7 199.5 142.7C199.5 142.7 198.9 146.8 198.7 147.7C198.4 149.1 197.5 149.7 196.2 149.9C195.2 150 190.5 150.6 190.5 150.6C190.5 150.6 195.1 151.2 196.2 151.3C197.9 151.5 198.5 152.4 198.7 153.5C198.8 154.4 199.5 158.5 199.5 158.5C199.5 158.5 200.2 154.4 200.3 153.5C200.4 152.3 201.5 151.4 202.8 151.3C203.8 151.2 208.5 150.6 208.5 150.6C208.5 150.6 203.8 150 202.8 149.9Z" fill="white"/>
<path d="M142.3 345C140.5 344.8 138.8 343.5 138.6 341.8C138.5 340.5 137.4 334.5 137.4 334.5C137.4 334.5 136.5 340.4 136.2 341.8C135.8 343.8 134.5 344.8 132.5 345C131 345.2 124.2 346 124.2 346C124.2 346 131 346.8 132.5 347C134.9 347.3 135.9 348.6 136.2 350.2C136.4 351.5 137.4 357.5 137.4 357.5C137.4 357.5 138.4 351.6 138.6 350.2C138.8 348.4 140.3 347.2 142.3 347C143.8 346.9 150.6 346 150.6 346C150.6 346 143.8 345.1 142.3 345Z" fill="white"/>
<path d="M39.3 389.6C38 389.5 36.9 388.6 36.8 387.4C36.7 386.5 36 382.4 36 382.4C36 382.4 35.4 386.5 35.2 387.4C34.9 388.8 34 389.4 32.7 389.6C31.7 389.7 27 390.3 27 390.3C27 390.3 31.6 390.9 32.7 391C34.4 391.2 35 392.1 35.2 393.2C35.3 394.1 36 398.2 36 398.2C36 398.2 36.7 394.1 36.8 393.2C36.9 392 38 391.1 39.3 391C40.3 390.9 45 390.3 45 390.3C45 390.3 40.4 389.7 39.3 389.6Z" fill="white"/>
<path d="M1795.6 418.7C1794.9 418.6 1794.3 418.1 1794.2 417.5C1794.2 417 1793.8 414.7 1793.8 414.7C1793.8 414.7 1793.5 417 1793.4 417.5C1793.2 418.2 1792.7 418.6 1792 418.7C1791.4 418.8 1788.9 419.1 1788.9 419.1C1788.9 419.1 1791.5 419.4 1792 419.5C1792.9 419.6 1793.3 420.1 1793.4 420.7C1793.5 421.2 1793.8 423.5 1793.8 423.5C1793.8 423.5 1794.2 421.3 1794.2 420.7C1794.3 420 1794.8 419.6 1795.6 419.5C1796.2 419.4 1798.8 419.1 1798.8 419.1C1798.7 419.1 1796.1 418.8 1795.6 418.7Z" fill="white"/>
<path d="M105.7 450.4C105.7 451.2 104.4 449.8 104.3 449.2C104.3 448.7 103.9 446.4 103.9 446.4C103.9 446.4 103.6 448.7 103.5 449.2C103.3 449.9 102.8 450.3 102.1 450.4C101.5 450.5 99 450.8 99 450.8C99 450.8 101.6 451.1 102.1 451.2C103 451.3 103.4 451.8 103.5 452.4C103.6 452.9 103.9 455.2 103.9 455.2C103.9 455.2 104.3 453 104.3 452.4C104.4 451.7 104.9 451.3 105.7 451.2C106.3 451.1 108.9 450.8 108.9 450.8C108.8 450.8 105.7 449.9 105.7 450.4Z" fill="white"/>
</svg>
