<svg width="140" height="140" fill="none" xmlns="http://www.w3.org/2000/svg"><g clip-path="url(#clip0_2799_7131)" fill="#fff"><path d="M72.957 11.019L71.281 0l1.676.197 1.085 8.46h.098L77.295.69l1.676.196 1.183 8.56h.1l3.055-8.068 1.677.197-4.141 10.33-1.578-.196-1.38-8.265h-.099l-3.155 7.674-1.676-.098zm11.93 1.869l-1.676-.492 6.901-9.05 1.775.59.493 11.412-1.676-.689-.296-9.248h-.099l-5.422 7.477zm1.479-3.935l5.324 1.673-.395 1.279-5.323-1.673.394-1.279zm9.662-2.263l.591-1.279 7.493 3.64-.591 1.28-3.057-1.476-4.042 8.362-1.479-.688 4.043-8.363-2.958-1.476zm15.873 11.806l-1.38-.984c.197-.295.197-.688.197-.983 0-.296 0-.59-.098-.886-.099-.295-.197-.59-.395-.787a2.297 2.297 0 00-.69-.689 2.68 2.68 0 00-1.676-.59c-.591 0-1.183.098-1.774.492-.592.295-1.085.885-1.578 1.574-.493.689-.789 1.377-.887 2.066-.099.689-.099 1.279.197 1.771a2.72 2.72 0 001.084 1.279c.296.197.592.295.888.393.296.099.591.099.887.099.296 0 .592-.099.887-.197.296-.098.592-.295.789-.492l1.38.984c-.394.394-.788.689-1.281.886-.493.196-.986.393-1.479.393-.493 0-.986 0-1.479-.197-.493-.098-.986-.393-1.479-.688-.789-.492-1.282-1.181-1.676-1.968-.296-.787-.493-1.673-.296-2.558.099-.886.493-1.87 1.183-2.755.69-.984 1.381-1.672 2.169-2.066a5.664 5.664 0 012.465-.59c.887.098 1.676.393 2.465.885a4.2 4.2 0 011.183 1.082c.296.394.493.886.69 1.378.197.492.197.984.099 1.476-.099.491-.197 1.082-.395 1.672zm-2.958 6.985l7.592-7.575 1.183 1.18-3.352 3.247 3.746 3.837 3.352-3.247 1.184 1.181-7.592 7.576-1.183-1.181 3.352-3.247-3.746-3.837-3.353 3.247-1.183-1.18zm19.424 6.1l-6.014 7.084.098.098 9.071-1.967.887 1.475-11.239 2.263-.986-1.574 7.197-8.855.986 1.476zm5.717 10.724l-9.859 4.427-.69-1.475 9.859-4.428.69 1.476zm-7.788 9.642l-.985-3.346 10.253-3.148 1.085 3.444c.295.983.394 1.967.197 2.754-.197.886-.592 1.575-1.282 2.165-.69.59-1.479 1.082-2.563 1.476-1.085.295-2.071.393-2.958.295-.887-.197-1.676-.492-2.268-1.18-.69-.591-1.183-1.378-1.479-2.46zm.789-2.165l.493 1.673c.197.787.592 1.377 1.085 1.77.493.394.986.69 1.676.788.69.098 1.38 0 2.169-.295.788-.296 1.479-.59 1.972-.984.493-.394.788-.984.887-1.575a4.513 4.513 0 00-.099-1.967l-.591-1.771-7.592 2.361zm1.085 8.855l10.648-1.476.887 6.69-1.38.197-.69-5.018-3.254.492.69 4.723-1.38.196-.69-4.722-3.254.492.691 5.116-1.381.197-.887-6.887zm6.21 18.003a6.558 6.558 0 01-2.958-.688c-.789-.393-1.479-.984-1.873-1.77a5.318 5.318 0 01-.592-2.46c0-.886.296-1.771.69-2.46.493-.689 1.085-1.279 1.972-1.672.789-.394 1.873-.59 2.958-.59 1.183 0 2.169.294 2.957.688.789.394 1.479.984 1.874 1.77.394.788.591 1.575.591 2.46 0 .886-.295 1.771-.69 2.46-.493.689-1.084 1.279-1.972 1.673-.788.492-1.873.688-2.957.59zm0-1.573c.887 0 1.577-.099 2.267-.394.592-.295 1.085-.59 1.38-1.082.296-.492.493-.984.493-1.672 0-.59-.098-1.181-.394-1.673-.296-.492-.789-.885-1.38-1.18-.592-.296-1.282-.493-2.169-.493-.888 0-1.578.099-2.268.394-.69.295-1.084.59-1.38 1.082-.296.492-.493.984-.493 1.673 0 .59.098 1.18.394 1.672.296.492.789.886 1.381 1.18.591.296 1.281.493 2.169.493zm-5.718 13.577l2.07.787-.591-2.165 1.084-.196.395 2.164 1.577-1.574.789.885-1.676 1.378 2.169.59-.395 1.082-2.07-.787.592 2.165-1.085.196-.394-2.164-1.578 1.574-.788-.885 1.676-1.378-2.169-.59.394-1.082zm-8.479 12.986l10.45 3.936-.986 1.377-7.985-3.247-.099.099 5.422 6.69-.985 1.377-7.986-3.148-.099.098 5.521 6.592-.986 1.377-6.901-8.756.986-1.279 7.887 2.952v-.099l-5.127-6.591.888-1.378zm-7.492 9.445l1.282-1.18 4.535 10.428-1.38 1.279-10.155-5.214 1.281-1.181 8.282 4.329.099-.098-3.944-8.363zm2.662 3.247l-4.042 3.837-.888-.984 4.043-3.837.887.984zm-2.762 9.445l.789 1.18-6.803 4.723-.789-1.181 2.761-1.968-5.324-7.674 1.281-.885 5.324 7.674 2.761-1.869zm-18.042 8.067l1.479-.689c.197.296.493.492.69.689.296.197.592.295.887.295.296.099.592.099.888 0 .296 0 .591-.098.986-.295a2.993 2.993 0 001.281-1.18 3.393 3.393 0 00.493-1.771c0-.689-.197-1.378-.591-2.165-.395-.787-.789-1.377-1.38-1.771-.592-.393-1.085-.688-1.677-.688a2.459 2.459 0 00-1.676.295 1.531 1.531 0 00-.788.59c-.198.197-.395.492-.592.689l-.296.885c0 .295 0 .591.099.984l-1.479.689c-.197-.492-.197-.984-.197-1.574 0-.492.197-.984.394-1.476s.493-.886.888-1.279a4.935 4.935 0 011.38-.984c.887-.394 1.676-.59 2.563-.492.888.098 1.676.394 2.366.984a7.645 7.645 0 011.874 2.361c.493.984.69 1.968.69 2.952 0 .885-.296 1.771-.69 2.459-.493.689-1.085 1.279-1.972 1.673-.493.295-.986.393-1.578.492-.591.098-.986 0-1.479-.099a3.457 3.457 0 01-1.38-.59c-.493-.098-.789-.492-1.183-.984zm-4.732-6.001l2.859 10.33-1.578.394-1.281-4.526-5.127 1.377 1.282 4.526-1.578.393-2.859-10.33 1.578-.393 1.281 4.525 5.127-1.377-1.282-4.526 1.578-.393zM74.93 139.705l-3.253-8.658h-.099l-2.76 8.855h-1.775l3.55-10.823 1.873-.098 4.14 10.626-1.676.098zm-12.028-.197l.986-10.724 1.578.099-.986 10.724-1.578-.099zm-4.732-11.511l3.45.689-2.267 10.527-3.55-.787c-.985-.197-1.873-.59-2.563-1.181-.69-.59-1.084-1.279-1.282-2.164-.197-.886-.197-1.869 0-2.952.198-1.082.592-1.967 1.184-2.656.591-.689 1.281-1.181 2.07-1.476a5.053 5.053 0 012.958 0zm1.577 1.771l-1.775-.393c-.788-.197-1.478-.197-2.07 0-.592.196-1.084.59-1.479 1.082-.394.492-.69 1.18-.887 2.066a5.485 5.485 0 00-.099 2.164c.099.591.395 1.181.888 1.574.493.394 1.084.689 1.873.886l1.873.393 1.676-7.772zm-8.282-3.542l-3.944 10.035-6.31-2.459.493-1.279 4.732 1.869 1.183-3.05-4.436-1.771.493-1.279 4.436 1.771 1.183-3.05-4.83-1.869.492-1.279 6.508 2.361zm-18.831-3.345c.592-.984 1.282-1.672 2.07-2.164.79-.492 1.578-.787 2.465-.787.888 0 1.676.196 2.465.688.789.492 1.38 1.083 1.775 1.87.394.787.591 1.574.493 2.558a7.06 7.06 0 01-.986 2.853c-.592.984-1.282 1.672-2.07 2.164-.79.492-1.578.689-2.465.787-.888 0-1.676-.196-2.465-.688-.789-.492-1.38-1.083-1.775-1.87-.394-.787-.591-1.574-.493-2.558.099-.984.394-1.869.986-2.853zm1.38.787a5.458 5.458 0 00-.788 2.066c-.099.689 0 1.279.295 1.771.296.492.69.886 1.184 1.279.492.295 1.084.492 1.676.492.591 0 1.183-.197 1.676-.59.493-.394 1.084-.886 1.478-1.673.494-.787.69-1.475.79-2.066.098-.688 0-1.279-.297-1.771-.295-.492-.69-.885-1.183-1.279-.493-.295-1.084-.492-1.676-.492a2.68 2.68 0 00-1.676.591c-.493.393-.986.984-1.479 1.672zm-8.971-11.609l-1.677 1.377 2.17.591-.395 1.082-2.07-.787.591 2.164-1.084.295-.395-2.164-1.577 1.574-.789-.885 1.676-1.378-2.169-.59.395-1.181 2.07.787-.591-2.164 1.084-.295.394 2.164 1.578-1.574.788.984zm-7.197-13.872l-8.578 7.182-.69-1.574 6.704-5.313v-.098l-8.479 1.475-.69-1.574 6.705-5.41v-.1l-8.48 1.575-.69-1.574 11.043-1.771.69 1.476-6.507 5.41v.1l8.281-1.28.69 1.476zm-4.634-11.019l.394 1.672-11.338-1.18-.493-1.771 9.564-6.297.394 1.673-7.789 4.92v.097l9.268.886zm-4.14.689l-1.283-5.412 1.282-.295 1.282 5.411-1.282.296zm-6.903-6.986l-1.38.099L0 72.706l1.38-.099.296 3.345 9.268-.885.197 1.574-9.268.885.296 3.345zm1.874-19.676l-.099 1.574c-.394 0-.69.098-.986.295a4.285 4.285 0 00-.69.59 2.141 2.141 0 00-.493.787c-.098.296-.197.59-.197.984 0 .59.099 1.18.395 1.673.295.492.69.885 1.281 1.279.592.295 1.282.492 2.17.59.887.098 1.577 0 2.267-.295.591-.197 1.084-.59 1.479-1.082.296-.492.493-.984.591-1.575 0-.295 0-.688-.098-.983-.099-.295-.197-.59-.395-.886a4.286 4.286 0 00-.591-.688c-.296-.197-.592-.296-.888-.394l.1-1.672c.492.098.985.295 1.38.59.394.295.788.59 1.084.984.296.393.493.885.69 1.377.099.492.197 1.082.197 1.672-.098.886-.296 1.771-.789 2.46-.492.689-1.183 1.18-1.971 1.574-.79.394-1.874.492-2.958.394-1.183-.099-2.07-.295-2.958-.787-.986-.394-1.577-.984-1.972-1.771-.394-.787-.591-1.574-.493-2.46 0-.59.198-1.082.395-1.574s.493-.885.788-1.279c.296-.394.79-.689 1.184-.885.394-.197.985-.492 1.577-.492zm7.492-1.181L1.084 57.456l.394-1.574 4.536 1.082 1.281-5.214-4.535-1.082.394-1.575 10.451 2.558-.394 1.575-4.535-1.083-1.282 5.215 4.535 1.082-.394 1.574zm-4.83-19.775l9.169 1.476.098-.099-6.31-6.69.79-1.574 7.69 8.461-.888 1.673-11.338-1.673.789-1.574zm6.21-10.429l8.873 6.1-.887 1.378-8.874-6.1.888-1.378zm12.324 1.673L22.97 34.04l-8.084-7.084 2.366-2.656a5.59 5.59 0 012.267-1.574c.79-.296 1.677-.296 2.564-.099.887.197 1.676.689 2.563 1.476.888.787 1.38 1.574 1.775 2.361.296.886.394 1.673.197 2.558-.197.787-.69 1.673-1.38 2.46zm-2.268.492l1.183-1.28c.592-.59.888-1.18.986-1.869.099-.688.099-1.18-.197-1.77a5.427 5.427 0 00-1.38-1.771c-.592-.59-1.282-.886-1.873-1.083a2.74 2.74 0 00-1.775 0c-.592.197-1.085.59-1.676 1.181l-1.282 1.377 6.014 5.215zm7.002-5.51l-6.803-8.264 5.225-4.23.888 1.082-3.944 3.246 2.07 2.558 3.648-3.05.888 1.083-3.648 3.05 2.07 2.557 4.042-3.246.888 1.082-5.324 4.132zm12.223-14.757c.592.983.888 1.967.888 2.853 0 .885-.099 1.77-.592 2.46-.394.786-.986 1.377-1.873 1.77a4.69 4.69 0 01-2.465.689c-.887 0-1.676-.295-2.465-.787-.788-.492-1.479-1.28-1.972-2.263-.591-.984-.887-1.968-.887-2.853 0-.886.099-1.771.592-2.46.394-.787.986-1.377 1.873-1.77a4.69 4.69 0 012.465-.69c.887 0 1.676.296 2.464.788.69.59 1.38 1.279 1.972 2.263zm-1.38.885a4.133 4.133 0 00-1.479-1.672c-.591-.394-1.084-.59-1.676-.59-.592 0-1.183.098-1.676.393-.493.295-.986.688-1.183 1.18-.296.492-.395 1.083-.296 1.771a6.85 6.85 0 00.69 2.165 4.132 4.132 0 001.48 1.672c.59.394 1.084.59 1.675.59.592 0 1.183-.098 1.676-.393.493-.295.986-.689 1.183-1.18.296-.492.395-1.083.296-1.771 0-.788-.296-1.476-.69-2.165zm14.593-2.164l-.395-2.165-1.577 1.574-.789-.885 1.676-1.476-2.07-.393L52.55 6l2.07.787-.591-2.164 1.084-.295.394 2.164 1.578-1.574.789.886-1.676 1.377 2.169.492-.296 1.082L56 7.97l.59 2.164-1.182.296z"/></g><defs><clipPath id="clip0_2799_7131"><path fill="#fff" d="M0 0h140v140H0z"/></clipPath></defs></svg>