<svg width="93" height="46" fill="none" xmlns="http://www.w3.org/2000/svg"><path d="M32.26 2.335C35.16.061 39.14-.337 42.78.232c10.177 1.478 9.04 9.723 9.665 11.485-.056-1.592 1.08-3.07 2.502-3.752 1.422-.683 3.127-.683 4.663-.399 1.648.285 3.24.91 4.434 2.047 1.194 1.138 1.877 2.9 1.479 4.492 3.013-2.16 7.164-1.99 10.689-.796 2.615.853 5.174 2.275 6.709 4.55 1.535 2.274 1.762 5.572 0 7.732 2.729-.625 5.8-.455 7.903 1.365 2.559 2.218 2.786 6.425 1.08 9.382-1.649 2.957-4.833 4.833-8.073 5.913-3.696 1.195-7.62 1.479-11.486 1.706-19.445 1.251-38.89 2.502-58.335 1.877-3.468-.114-7.22-.342-10.007-2.502-2.33-1.82-3.582-4.72-3.923-7.62-.34-3.013.398-6.311 2.616-8.415 2.217-2.104 6.027-2.559 8.244-.455-.796-3.582-.626-7.562 1.25-10.746 1.877-3.185 5.63-5.402 9.268-4.777 3.582.626 6.255 3.64 8.529 6.482-.625-.796-1.194-6.823-1.308-8.188 0-2.786 1.479-5.629 3.582-7.278z" fill="#fff"/></svg>