<svg width="41" height="39" viewBox="0 0 41 39" fill="none" xmlns="http://www.w3.org/2000/svg">
<path d="M32.3658 15.4996C31.6257 14.2363 30.6883 13.0702 29.7344 11.9526C27.8431 9.74999 25.5242 7.83886 22.7284 6.8833C22.3666 6.75373 21.9883 6.65655 21.6265 6.57557C21.5772 6.52698 21.5114 6.49459 21.4292 6.4784C21.166 6.42981 20.9029 6.41361 20.6398 6.39742H20.6233C20.5904 6.39742 20.5575 6.39742 20.5246 6.39742C19.2747 6.33263 18.0248 6.60796 16.8243 6.98047C15.5579 7.36918 14.3245 7.88745 13.1733 8.53529C10.8379 9.86336 8.91374 11.7907 7.87764 14.2525C6.77575 16.8276 6.67707 19.7105 7.08823 22.4639C7.30202 23.9053 7.64739 25.3953 8.37102 26.6748C9.04531 27.8571 10.0321 28.8937 11.1011 29.7359C15.1139 32.8941 20.8371 33.7039 25.5242 31.5822C30.0962 29.5091 33.4841 24.7313 33.5335 19.7267C33.5499 18.1881 33.1388 16.7953 32.3658 15.4996ZM26.8235 29.8978C22.7942 32.5216 17.4821 32.5216 13.3048 30.1732C11.0353 28.8937 9.09464 26.9502 8.37102 24.4236C7.66384 21.9456 7.45004 19.1923 7.99276 16.6495C8.53548 14.1553 9.86761 12.0012 11.874 10.3816C13.8476 8.81062 16.3967 7.70929 18.8965 7.2882C19.4063 7.20722 19.949 7.15863 20.4589 7.19102C23.1725 7.59592 25.59 9.02117 27.5471 10.8837C28.5503 11.8393 29.4549 12.892 30.2936 14.0095C31.0995 15.0785 31.9382 16.2122 32.3658 17.5079C33.1388 19.9049 32.4645 22.723 31.3297 24.9095C30.2936 26.9016 28.7312 28.6507 26.8235 29.8978Z" fill="white"/>
<path d="M30.9516 9.66901C30.9845 9.74999 31.0503 9.81477 31.1161 9.86336C31.5601 10.1711 32.0371 9.73379 32.3331 9.45846C32.6291 9.19932 32.9087 8.90779 33.1554 8.60007C33.4185 8.29235 33.6488 7.95223 33.8626 7.61211C34.0928 7.23961 34.2902 6.75372 34.027 6.34882C33.8955 6.15447 33.6488 6.07349 33.4514 6.20306C32.2508 6.91568 31.3463 7.98462 30.82 9.26411C30.7707 9.40987 30.8365 9.57183 30.9516 9.66901Z" fill="white"/>
<path d="M23.7481 4.76161C23.781 4.7778 23.8139 4.7778 23.8467 4.7778C24.0277 4.92357 24.3401 4.95596 24.5046 4.69682C25.2447 3.5631 25.5736 2.23503 25.9189 0.939347C26.0012 0.647819 26.0012 0.307703 25.7216 0.11335C25.3762 -0.12959 24.998 0.0809585 24.8006 0.388683C24.4552 0.923151 24.1921 1.5386 23.9619 2.13785C23.6987 2.81808 23.5343 3.53071 23.4356 4.25953C23.4191 4.47008 23.5178 4.69682 23.7481 4.76161ZM25.1295 0.664015C25.146 0.631623 25.1624 0.631623 25.1295 0.664015V0.664015Z" fill="white"/>
<path d="M13.9956 5.24746C14.3081 4.98833 14.341 4.59962 14.2094 4.22711C14.0614 3.78982 13.8969 3.35253 13.716 2.91524C13.5351 2.47794 13.3542 2.05685 13.1568 1.63575C13.0582 1.4414 12.9924 1.21465 12.8279 1.06889C12.6141 0.858342 12.3674 0.82595 12.1043 0.955518C11.9892 1.00411 11.874 1.18226 11.8905 1.31183C12.0878 2.72088 12.5319 4.06515 13.2555 5.29605C13.4529 5.60377 13.864 5.5066 13.9956 5.24746Z" fill="white"/>
<path d="M40.4738 17.524C40.0791 17.3783 39.5528 17.4431 39.1417 17.4593C38.0398 17.5078 36.9543 17.7346 35.9182 18.1395C35.7044 18.2205 35.5564 18.4148 35.6222 18.6578C35.6387 18.7387 35.688 18.8035 35.7538 18.8521C35.7373 18.9979 35.7867 19.1598 35.9018 19.257C36.0991 19.4352 36.4281 19.4514 36.6748 19.4838C37.1517 19.5485 37.6286 19.5161 38.122 19.4514C38.5989 19.3866 39.0759 19.257 39.5364 19.1274C39.964 18.9979 40.5067 18.9007 40.8356 18.5768C41.1974 18.1881 40.9178 17.686 40.4738 17.524ZM39.3061 18.2852C39.339 18.2852 39.3719 18.2852 39.4048 18.2852C39.2897 18.3176 39.191 18.35 39.0759 18.3824C39.0759 18.35 39.0759 18.3338 39.0759 18.3014C39.1581 18.2852 39.2239 18.2852 39.3061 18.2852Z" fill="white"/>
<path d="M3.94707 11.4992C4.47334 12.0174 5.13119 12.3576 5.87126 12.4709C6.00283 12.4871 6.18373 12.3737 6.23307 12.2604C6.26596 12.1956 6.28241 12.1308 6.29886 12.066C6.34819 12.0498 6.39753 12.0174 6.43042 11.985C6.61133 11.8069 6.57844 11.5639 6.43042 11.3858C6.03572 10.8999 5.64101 10.3978 5.19697 9.94435C4.98317 9.7176 4.73648 9.49086 4.48979 9.29651C4.2431 9.10216 3.97996 8.87541 3.70038 8.72965C3.35501 8.55149 2.89452 8.5353 2.66428 8.9078C2.46693 9.23172 2.61494 9.58804 2.7794 9.87956C3.10832 10.4626 3.47014 11.0295 3.94707 11.4992ZM3.23989 9.44227C3.17411 9.42608 3.22345 9.44227 3.23989 9.44227V9.44227Z" fill="white"/>
<path d="M4.75296 20.8928C4.68718 20.6499 4.45693 20.5689 4.22669 20.6013C3.30571 20.7632 2.38473 20.9252 1.51309 21.2491C1.08549 21.4111 0.575664 21.6054 0.246743 21.9132C0.0658362 22.0751 -0.0657322 22.3505 0.016498 22.5934C0.0987283 22.8687 0.345419 22.9821 0.59211 23.0631C1.51309 23.3708 2.61497 22.9821 3.47017 22.6258C3.68397 22.5448 3.88132 22.4476 4.09512 22.3343C4.30892 22.2209 4.55561 22.1075 4.72007 21.9456C4.99965 21.6702 4.99965 21.2329 4.76941 20.9738C4.76941 20.9414 4.76941 20.909 4.75296 20.8928ZM0.773016 22.2371C0.75657 22.2371 0.75657 22.2371 0.773016 22.2371V22.2371ZM1.16772 22.3343C1.23351 22.3019 1.28284 22.2695 1.34863 22.2533C1.34863 22.2857 1.34863 22.3181 1.36507 22.3505C1.29929 22.3343 1.23351 22.3343 1.16772 22.3343Z" fill="white"/>
<path d="M8.61776 30.2541C8.51909 30.2541 8.42041 30.2865 8.33818 30.3189C8.25595 30.2865 8.17372 30.2865 8.09149 30.3189C7.36786 30.6104 6.64424 30.9991 6.1673 31.5984C5.90416 31.9223 5.65747 32.311 5.64103 32.7321C5.62458 32.9913 5.75615 33.2666 5.98639 33.3962C6.21664 33.5257 6.49622 33.4933 6.72647 33.3962C7.48299 33.0884 8.17372 32.5864 8.68355 31.9547C8.81511 31.7928 8.94668 31.6146 9.06181 31.4364C9.20982 31.2097 9.34139 30.9668 9.25916 30.6914C9.17693 30.4161 8.89735 30.2379 8.61776 30.2541Z" fill="white"/>
<path d="M18.1729 34.6594C18.14 34.627 18.0906 34.6108 18.0413 34.5946C17.8111 34.5298 17.5973 34.6756 17.515 34.8862C17.219 35.7283 17.071 36.6353 17.1039 37.5423C17.1039 37.7367 17.1203 37.9472 17.1532 38.1416C17.1861 38.3683 17.2026 38.595 17.3506 38.7894C17.663 39.1943 18.1893 38.9676 18.4853 38.6598C19.0445 38.1092 19.0938 37.2346 19.1761 36.5058C19.209 36.1009 19.3076 35.6312 19.1596 35.2425C18.9952 34.8538 18.6005 34.5622 18.1729 34.6594Z" fill="white"/>
<path d="M27.9253 36.6677C27.8431 36.1818 27.6951 35.7122 27.4977 35.2587C27.3004 34.8052 27.0866 34.3193 26.6425 34.044C26.2149 33.7848 25.442 33.7524 25.3104 34.3679V34.3841C25.2117 34.4813 25.1624 34.6108 25.2117 34.7728C25.2775 35.0319 25.3433 35.3073 25.4091 35.5664C25.442 35.7122 25.4749 35.8417 25.5078 35.9875C25.5078 36.0037 25.5242 36.0199 25.5242 36.0361C25.5571 36.1333 25.5736 36.2304 25.6064 36.3438C25.738 36.8459 25.8531 37.348 26.0176 37.8338C26.1656 38.2711 26.4287 38.676 26.9057 38.8056C27.3662 38.919 27.876 38.6922 28.0076 38.2225C28.0734 37.9958 28.0405 37.7367 28.0405 37.5099C28.0076 37.2022 27.9747 36.9269 27.9253 36.6677ZM27.1524 37.9634C27.103 37.9634 27.103 37.9634 27.0701 37.9472C26.9879 37.9148 26.9386 37.8176 26.8892 37.7205C26.9879 37.7367 27.0866 37.7205 27.1853 37.6881C27.1853 37.7043 27.1853 37.7043 27.1853 37.7205C27.1853 37.7529 27.1524 37.9148 27.1853 37.9472C27.1853 37.9472 27.1853 37.9472 27.1853 37.9634C27.1524 37.9634 27.1524 37.9634 27.1524 37.9634ZM27.1853 37.9634C27.1853 37.9472 27.2182 37.9634 27.1853 37.9634V37.9634Z" fill="white"/>
<path d="M35.3592 29.8816C35.1125 29.6873 34.8493 29.4929 34.5862 29.3148C34.027 28.9423 33.4021 28.6183 32.7278 28.4726C32.4482 28.4078 32.0699 28.6669 32.2015 28.9909C32.3166 29.2824 32.4811 29.5577 32.662 29.8007C32.8922 30.2217 33.1883 30.6266 33.5336 30.983C33.9612 31.4203 34.5204 31.7928 35.1454 31.8252C35.4578 31.8413 35.7867 31.7442 36.0005 31.5012C36.2472 31.2097 36.2308 30.8048 36.0334 30.4971C35.8525 30.2541 35.6058 30.076 35.3592 29.8816ZM33.9283 29.9302C33.8955 29.8978 33.8461 29.8654 33.8132 29.833C33.7968 29.8168 33.7639 29.8007 33.7474 29.7683C33.8132 29.8007 33.879 29.8492 33.9448 29.8816C33.9448 29.914 33.9283 29.914 33.9283 29.9302Z" fill="white"/>
<path d="M13.93 18.0909C12.861 17.8156 11.7755 18.3501 11.3479 19.338C11.0683 19.9697 10.8381 20.6985 10.9697 21.3949C11.0026 21.6217 11.2821 21.735 11.4959 21.6864C11.7426 21.6217 11.8249 21.3949 11.792 21.1682C11.7426 20.8766 11.8413 20.5689 11.9235 20.2936C12.0058 20.0183 12.088 19.7267 12.236 19.4838C12.4498 19.1275 12.8281 18.9007 13.2063 18.8683C13.6504 18.8197 14.0286 18.9493 14.3411 19.2894C14.6865 19.6619 14.818 20.1964 14.9003 20.6823C14.9496 20.909 15.2127 21.0224 15.4265 20.9738C15.6568 20.909 15.7719 20.6823 15.7226 20.4555C15.5252 19.4514 15.0318 18.3825 13.93 18.0909Z" fill="white"/>
<path d="M29.0766 17.7994C28.6819 17.265 28.0899 16.8762 27.4156 16.8115C25.7874 16.6657 25.2611 18.5768 25.0144 19.7915C24.9651 20.0183 25.0802 20.245 25.3105 20.3098C25.5243 20.3746 25.7874 20.245 25.8367 20.0183C25.9683 19.4352 26.0834 18.8198 26.3959 18.3015C26.6262 17.9128 26.9551 17.5889 27.432 17.6537C28.5339 17.7994 28.8135 19.1275 29.0108 20.0021C29.0602 20.2288 29.3233 20.3584 29.5371 20.2936C29.7674 20.2288 29.8825 20.0021 29.8331 19.7753C29.6522 19.0951 29.4878 18.3825 29.0766 17.7994Z" fill="white"/>
<path d="M22.3668 20.5042C22.1201 20.5042 21.9556 20.6985 21.9392 20.9252C21.8898 21.5893 21.8569 22.2533 21.8076 22.9174C21.7583 23.4518 21.676 24.0349 21.232 24.4074C20.3275 25.1848 19.4558 23.6786 19.1927 22.9821C18.946 22.3667 18.8638 21.7189 18.9131 21.0548C18.9295 20.8281 18.6993 20.6337 18.4855 20.6337C18.2388 20.6337 18.0743 20.8281 18.0579 21.0548C17.9428 22.4153 18.4362 23.9863 19.4723 24.9257C20.015 25.4115 20.7222 25.6221 21.4129 25.282C22.0707 24.9581 22.4325 24.2778 22.5641 23.5976C22.7286 22.723 22.7286 21.816 22.7779 20.9252C22.7944 20.6985 22.5806 20.5042 22.3668 20.5042Z" fill="white"/>
</svg>
