<svg width="26" height="26" viewBox="0 0 26 26" fill="none" xmlns="http://www.w3.org/2000/svg">
<path d="M8.27845 5.54097C8.73605 5.24261 8.69445 4.43277 8.11205 4.3049C6.44805 4.00654 5.32485 2.42949 5.49125 0.724575C5.53285 0.298345 5.24165 0.0852306 4.90885 0.0852306C4.57605 -0.0852612 4.11845 -1.52974e-05 4.03525 0.468837C3.70245 2.51474 2.37125 4.3049 0.457655 5.02949C-0.124745 5.24261 -0.207945 6.13769 0.457655 6.30818C2.87045 6.99015 3.99365 9.37703 4.36805 11.7213C4.40965 12.0623 4.78405 12.2328 5.07525 12.1901C5.40805 12.1475 5.61605 11.8492 5.65765 11.5508C5.90725 9.41966 6.24005 6.77703 8.27845 5.54097Z" fill="white"/>
<path d="M25.5424 18.2C23.6704 17.4754 22.5472 15.3869 22.7968 13.3836C22.8384 12.8721 22.4224 12.7016 22.048 12.7442C21.7152 12.5737 21.2576 12.659 21.1328 13.1278C20.6336 15.3016 19.3856 17.177 17.5552 18.3705C17.0976 18.6688 17.1392 19.4787 17.7216 19.6065C20.2592 20.2032 21.1328 22.9311 20.9664 25.318C20.9248 26.0852 22.0896 26.2557 22.256 25.4885C22.7136 23.1442 23.3376 20.459 25.6672 19.3934C26.2496 19.1803 26 18.4131 25.5424 18.2Z" fill="white"/>
</svg>
