<svg width="35" height="19" viewBox="0 0 35 19" fill="none" xmlns="http://www.w3.org/2000/svg">
<path d="M34.0211 8.55962C33.0184 7.95683 31.8008 8.29439 30.7742 8.63196C29.6282 9.01774 28.5539 9.5482 27.5273 10.1751C27.5511 8.65607 27.4079 7.13703 27.0736 5.66622C26.8826 4.82231 26.62 3.9784 26.3335 3.15861C26.047 2.38703 25.7367 1.56723 25.2114 0.91622C24.1609 -0.385811 22.5136 -0.168806 21.296 0.747438C20.0784 1.66368 19.3144 3.06216 18.7176 4.43652C18.1685 5.69033 17.7148 6.99236 17.0464 8.19795C16.545 6.12434 15.0648 4.31597 13.1071 3.44795C11.9611 2.9416 10.6002 2.77282 9.40652 3.23094C8.14117 3.71317 7.44881 4.89465 7.09069 6.12434C6.6132 7.66749 6.27896 9.28297 5.92084 10.8502C4.98973 9.9581 3.79601 9.28297 2.48291 9.69287C1.02657 10.151 0.286461 11.6459 0.0954649 13.0926C-0.095531 14.6117 -0.047782 16.3959 1.26531 17.3845C2.62616 18.4213 4.48837 18.2525 6.11184 18.3007C7.99792 18.349 9.884 18.3731 11.7462 18.4213C12.6534 18.4454 13.5845 18.4213 14.5157 18.5177C15.3751 18.5901 16.2107 18.6865 17.0702 18.6383C17.9775 18.566 18.8608 18.6142 19.768 18.6624C20.6514 18.7106 21.5109 18.6865 22.3942 18.6383C23.5641 18.5901 24.7578 18.8553 25.9515 18.9276C27.2885 19 28.6255 19 29.9863 18.9276C30.5116 18.9035 31.0607 18.8553 31.5859 18.783C31.9202 18.7347 32.3021 18.6624 32.5886 18.4936C32.6603 18.4695 32.7319 18.4213 32.7796 18.349C34.1644 16.3718 34.6657 13.8642 34.9761 11.5012C35.0716 10.4403 35.0477 9.16241 34.0211 8.55962ZM34.0211 12.2246C33.9256 12.8756 33.8062 13.5266 33.6391 14.1776C33.3288 15.4556 32.8751 16.7094 32.135 17.7944C31.6098 18.0596 30.8697 18.0596 30.2967 18.1078C29.2462 18.1802 28.1957 18.2043 27.1453 18.1802C26.1664 18.1561 25.1637 18.1078 24.1848 17.9873C23.5402 17.9149 22.9433 17.8426 22.2987 17.8667C21.487 17.8908 20.6991 17.9149 19.9113 17.8908C19.0996 17.8426 18.2878 17.7944 17.4761 17.8426C16.6644 17.8667 15.9004 17.8908 15.0886 17.7944C13.4174 17.6256 11.7462 17.6497 10.075 17.6256C8.37991 17.6015 6.68482 17.5533 4.98973 17.5292C3.62889 17.505 1.7428 17.4568 1.07432 16.0101C0.716201 15.1903 0.787825 14.2259 0.859448 13.4061C0.954946 12.5622 1.19369 11.6941 1.81443 11.0672C2.33967 10.5127 3.07978 10.2474 3.81988 10.4644C4.63162 10.6814 5.3001 11.3084 5.82534 11.9353C5.99246 12.1523 6.44608 12.1281 6.5177 11.8147C6.87582 10.368 7.21006 8.89718 7.56818 7.45048C7.8308 6.31723 8.14117 5.0152 9.12002 4.29185C10.0511 3.61673 11.3403 3.66495 12.3908 4.02663C13.4413 4.3883 14.3724 5.08754 15.0648 5.95556C15.8526 6.94414 16.3301 8.12561 16.4256 9.40353C16.4495 9.7652 16.9509 9.83754 17.1418 9.57231C18.7176 7.32993 19.1473 4.46064 20.8663 2.33881C21.6303 1.37434 23.2298 0.120534 24.3997 1.22967C24.9249 1.7119 25.1875 2.45937 25.4502 3.11038C25.7605 3.88196 26.0232 4.65353 26.2142 5.47333C26.6439 7.25759 26.811 9.09008 26.6916 10.9226C26.6678 11.2842 27.0736 11.4771 27.3601 11.2601C28.53 10.4403 33.854 7.2817 34.1882 10.3198C34.2599 10.9467 34.1166 11.5977 34.0211 12.2246Z" fill="white"/>
</svg>
