<svg width="49" height="30" viewBox="0 0 49 30" fill="none" xmlns="http://www.w3.org/2000/svg">
<path d="M8.71311 4.94223C8.98258 4.46535 9.25206 3.90176 9.3868 3.33818C9.43171 3.03471 9.47663 2.73124 9.52154 2.42778C9.56645 2.0376 9.56645 1.64743 9.3868 1.34396C9.11732 0.867082 8.57837 0.693671 8.08433 0.780376C7.72502 0.606966 7.27589 0.606966 7.05133 0.910434C6.28781 1.82084 5.70394 2.8613 5.29972 3.94512C5.07516 4.59541 4.98533 5.3324 5.52429 5.89598C6.01833 6.45957 6.87168 6.50292 7.50046 6.19945C8.03941 5.98269 8.39872 5.4191 8.71311 4.94223Z" fill="white"/>
<path d="M18.5041 7.45687C18.3244 7.41352 18.0999 7.41352 17.9202 7.45687C17.4711 7.19676 16.9321 7.37017 16.6627 7.76034C15.8093 9.01757 15.0458 10.4049 14.8212 11.9222C14.6865 12.7025 14.5967 13.5696 15.0458 14.2632C15.5398 15.1303 16.6178 15.0869 17.3813 14.5667C18.6837 13.6563 19.3125 12.0956 19.582 10.6216C19.7167 9.84127 19.8515 8.84416 19.4473 8.10716C19.2227 7.8037 18.9083 7.54358 18.5041 7.45687Z" fill="white"/>
<path d="M33.0559 0.216776C33.011 0.216776 33.011 0.260128 32.9661 0.303481C32.7864 0.346834 32.6517 0.390186 32.472 0.520244C31.4839 1.3873 30.7653 2.64452 30.5857 3.9451C30.4958 4.63874 30.406 5.46244 30.6755 6.11273C31.0797 7.02313 32.0678 7.3266 32.9661 6.93643C33.6398 6.63296 34.0889 6.02602 34.4033 5.41909C34.7626 4.81215 35.0321 4.11851 35.1668 3.42487C35.3015 2.73123 35.3914 1.95088 35.2117 1.25724C35.0321 0.303481 33.9541 -0.346808 33.0559 0.216776Z" fill="white"/>
<path d="M47.8322 7.15338C47.7424 7.15338 47.6526 7.15338 47.5628 7.19673C47.2484 7.11003 46.934 7.15338 46.7094 7.4135C46.1255 8.15049 45.6315 8.97419 45.4069 9.88459C45.2722 10.3181 45.1824 10.795 45.1824 11.2285C45.1824 11.8788 45.5866 12.4858 46.2603 12.6158C47.5628 12.8326 48.2814 11.4886 48.6856 10.5349C48.8652 10.1014 48.9551 9.62448 49 9.19095C49.0449 8.71408 49.0898 8.2372 48.8203 7.80367C48.5958 7.4135 48.2365 7.19673 47.8322 7.15338Z" fill="white"/>
<path d="M39.0293 22.2401C38.7149 22.11 38.2658 22.1534 38.0412 22.4135C37.0082 23.584 36.2896 24.9713 35.9752 26.4886C35.8405 27.2256 35.6608 28.0927 35.8405 28.8297C36.065 29.8268 37.098 30.217 38.0412 29.8268C39.5233 29.1765 40.3318 27.5725 40.6911 26.1418C40.7809 25.7083 40.8707 25.2748 40.9156 24.7979C40.9606 24.3644 41.0504 23.9308 40.9156 23.4973C40.6911 22.7603 39.8826 22.0667 39.0293 22.2401Z" fill="white"/>
<path d="M24.0283 19.1621C23.9834 19.2054 23.9834 19.2054 23.9385 19.2488C23.8936 19.2921 23.8487 19.3355 23.8038 19.3788C23.6241 19.4222 23.4894 19.4655 23.3546 19.5956C23.1301 19.8123 22.9504 20.0291 22.8157 20.2892C21.8725 21.373 21.1539 22.6736 20.9293 24.1043C20.7497 24.9713 20.6599 25.9684 21.5581 26.4453C22.3665 26.8788 23.3546 26.4453 23.8936 25.8384C24.4325 25.2748 24.7918 24.5811 25.1062 23.8875C25.4206 23.1938 25.6003 22.5002 25.735 21.7632C25.7799 21.373 25.8248 20.9829 25.8697 20.5927C25.8697 20.1592 25.9147 19.6823 25.6901 19.3355C25.3308 18.7719 24.5224 18.7285 24.0283 19.1621Z" fill="white"/>
<path d="M3.36839 21.1996C3.00909 21.0262 2.60487 21.0696 2.29048 21.3297C0.853267 22.8037 -0.089904 24.8846 -7.81696e-05 26.9222C-7.81696e-05 27.4424 0.134661 27.9193 0.449051 28.3528C0.89818 28.873 1.57187 29.0464 2.20066 28.873C3.32348 28.5262 3.95226 27.3123 4.35648 26.3586C4.76069 25.4048 4.89543 24.4077 5.03017 23.4106C5.07508 22.9337 5.16491 22.4569 4.98526 21.98C4.71578 21.373 4.04209 21.0696 3.36839 21.1996Z" fill="white"/>
</svg>
