<svg width="103" height="70" fill="none" xmlns="http://www.w3.org/2000/svg"><g clip-path="url(#clip0_1106_4759)"><path d="M.055 13.86s5.353-.982 11.847-5.042C19.726 3.94 22.253 0 22.253 0l-4.067 17.866L.056 13.86z" fill="#06CBAD"/><path d="M0 15.388l18.009 3.973-7.237 31.791S9.919 41.046 6.971 32.85C5.408 28.495 0 15.388 0 15.388z" fill="#F6CD01"/><path d="M37.613 22.373s-4.421-3.143-8.533-9.539C24.126 5.13 23.54.502 23.54.502l-4.067 17.866 18.141 4.005z" fill="#FE466C"/><path d="M27.783 61.182c-5.818-1.288-3.07 11.907-11.658 8.152-7.58-3.306-4.334-17.058-4.112-17.985 0-.011 0-.011.011-.022v-.021l7.093-31.203 18.009 3.95S26.564 33.637 23.25 36.922c-2.339 2.325-4.533 5.031-6.35 7.487l.997-5.883-1.452 3.951a74.744 74.744 0 00-1.474 4.638c-5.951 21.27 5.142 23.716 7.447 17.746 2.195-5.719 5.364-3.678 5.364-3.678z" fill="#866AFB"/><path d="M57.506 27.557c0 .939-.344 1.746-1.03 2.423-.688.676-1.508 1.015-2.461 1.015-.931 0-1.74-.339-2.427-1.015-.687-.677-1.02-1.485-1.02-2.423 0-.917.344-1.714 1.02-2.38.687-.665 1.496-.992 2.427-.992.953 0 1.773.327 2.46.993.687.665 1.03 1.462 1.03 2.379z" fill="#FE466C"/><path d="M30.532 24.818c1.452 0 2.494.36 3.125 1.091.632.731.953 1.66.953 2.794v13.991a467.45 467.45 0 013.47-4.387 40.753 40.753 0 013.811-4.125c.71-.666 1.43-1.092 2.172-1.266.743-.175 1.596-.262 2.55-.262h3.402v.207c-.421.35-1.042.972-1.884 1.834-.843.873-1.73 1.822-2.671 2.87a160.966 160.966 0 00-2.804 3.176c-.93 1.08-1.695 2.008-2.316 2.783.953 1.157 1.895 2.324 2.86 3.481a54.369 54.369 0 003.002 3.35c.532.514 1.009.94 1.419 1.3.421.349.798.633 1.152.85.355.208.688.383 1.009.525.321.13.654.261.997.37-.321.94-.753 1.649-1.318 2.129-.566.49-1.463.731-2.693.731a5.358 5.358 0 01-2.073-.436 5.596 5.596 0 01-1.806-1.18 61.425 61.425 0 01-4.311-4.856 244.354 244.354 0 01-3.99-5.14v11.448l-1.895.044c-2.715.033-4.078-1.353-4.078-4.136V24.829h1.917v-.011zm31.219 28.004c0 1.276-.277 2.182-.82 2.717-.543.535-1.452.808-2.715.808-2.305 0-4.056-.622-5.286-1.867-1.22-1.244-1.829-3.055-1.829-5.434V33.188h1.685c1.318 0 2.36.35 3.103 1.059.742.709 1.119 1.8 1.119 3.274V48.5c0 1.19.277 1.997.82 2.434.543.436 1.485.643 2.804.643h1.12v1.245zm21.355-7.508c0 1.713-.21 3.263-.631 4.649-.421 1.386-1.097 2.586-2.006 3.59-.909 1.005-2.095 1.78-3.558 2.314-1.463.535-3.203.808-5.23.808-1.563 0-3.026-.317-4.378-.939a10.879 10.879 0 01-3.524-2.564 12.23 12.23 0 01-2.339-3.766c-.565-1.419-.842-2.935-.842-4.55 0-1.922.233-3.668.698-5.24.466-1.56 1.153-2.902 2.05-4.026a8.678 8.678 0 013.358-2.554c1.342-.59 2.882-.884 4.622-.884.587 0 1.186.087 1.784.273a7.424 7.424 0 011.696.775c.52.327.997.72 1.43 1.178.431.459.764.939.986 1.463V24.818h1.806c1.407 0 2.438.36 3.08 1.091.644.731.976 1.692.976 2.881v16.524h.022zm-5.95-.262c0-1.484-.156-2.74-.466-3.744-.31-1.015-.72-1.833-1.242-2.455-.52-.622-1.13-1.08-1.828-1.364a5.76 5.76 0 00-2.239-.437c-.775 0-1.463.164-2.072.502a4.626 4.626 0 00-1.54 1.386c-.422.59-.754 1.299-.987 2.117a9.582 9.582 0 00-.355 2.641c0 1.223.156 2.325.466 3.307.31.993.731 1.845 1.263 2.543a5.599 5.599 0 001.873 1.626 5.1 5.1 0 002.372.568c1.662 0 2.881-.579 3.635-1.746.742-1.157 1.12-2.805 1.12-4.944zm25.511 3.7c0 2.488-.853 4.43-2.56 5.828-1.707 1.396-4.167 2.095-7.37 2.095-1.097 0-2.106-.131-3.025-.393-.931-.262-1.74-.6-2.427-1.026-.688-.425-1.23-.917-1.607-1.462-.377-.557-.577-1.135-.577-1.746v-2.63h.21a6.35 6.35 0 001.253.84c.521.273 1.097.513 1.751.72.643.207 1.33.36 2.04.48.709.11 1.418.175 2.127.175 2.87 0 4.311-.851 4.311-2.565 0-.338-.066-.633-.2-.884-.132-.25-.365-.47-.72-.676-.354-.208-.853-.383-1.496-.546a29.843 29.843 0 00-2.526-.47c-2.527-.338-4.411-1.014-5.63-2.018-1.22-1.005-1.829-2.401-1.829-4.202 0-1.092.244-2.128.72-3.122a7.593 7.593 0 012.05-2.586c.887-.731 1.94-1.32 3.181-1.746 1.242-.437 2.627-.644 4.156-.644 1.352 0 2.505.153 3.458.458.953.306 1.74.699 2.36 1.19.621.49 1.064 1.026 1.352 1.626.277.59.422 1.168.422 1.724v2.205h-.211c-.621-.611-1.552-1.124-2.804-1.539-1.252-.415-2.582-.622-4.012-.622-1.806 0-3.058.25-3.745.742-.688.491-1.02 1.113-1.02 1.866 0 .284.066.535.188.753.122.219.355.415.688.59.332.174.82.338 1.43.48.62.142 1.44.294 2.46.47 2.515.414 4.41 1.156 5.696 2.226 1.263 1.047 1.906 2.52 1.906 4.409z" fill="#360872"/><path d="M34.134 61.968c-.1-.131-.222-.24-.366-.328a3.025 3.025 0 00-.465-.218 2.894 2.894 0 00-.942-.153 2.22 2.22 0 00-.81.153 1.83 1.83 0 00-.642.426 1.914 1.914 0 00-.421.655 2.27 2.27 0 00-.155.84c0 .371.055.698.155.982.1.284.244.524.42.71.178.185.4.327.655.425.255.099.532.142.842.142.155 0 .321-.01.488-.044a3.02 3.02 0 00.476-.13 2.47 2.47 0 00.421-.197c.133-.076.244-.164.333-.25h.044v.48a.913.913 0 01-.177.567 1.586 1.586 0 01-.455.393 2.19 2.19 0 01-.62.218 3.572 3.572 0 01-.687.065c-.433 0-.843-.076-1.23-.229a3.16 3.16 0 01-1.02-.644 3.152 3.152 0 01-.698-1.004 3.33 3.33 0 01-.255-1.31c0-.49.078-.938.244-1.353a3.048 3.048 0 011.729-1.757 3.6 3.6 0 011.352-.25c.266 0 .51.021.731.076.222.054.421.13.587.24.167.109.288.25.388.415.089.163.133.36.133.567v.502h-.055v.01zm5.918 4.682a.766.766 0 01-.52-.219c-.156-.142-.233-.36-.233-.633V63.91h-2.616v2.74h-.51a.812.812 0 01-.565-.219c-.155-.142-.221-.36-.221-.633v-5.533h.631c.189 0 .344.065.466.196a.683.683 0 01.188.47v1.899H39.3v-2.576h.587a.64.64 0 01.244.044.592.592 0 01.222.141.528.528 0 01.155.219.575.575 0 01.055.273v5.718h-.51zm3.037 0a.832.832 0 01-.277-.055.637.637 0 01-.255-.164.65.65 0 01-.178-.262.966.966 0 01-.066-.371v-5.544h.587c.089 0 .167.01.244.044a.695.695 0 01.222.141.819.819 0 01.166.219.584.584 0 01.067.273v5.707h-.51v.011zm6.505-.863c0 .142-.022.273-.066.382a.766.766 0 01-.21.295c-.1.087-.245.142-.422.185a2.836 2.836 0 01-.665.066h-.51c-.764 0-1.352-.208-1.75-.611-.41-.404-.61-.993-.61-1.768v-4.082h.532c.532 0 .809.316.809.939v3.066c0 .24.022.448.055.611a.96.96 0 00.189.415.7.7 0 00.365.23c.156.043.355.065.599.065h.332c.31 0 .577-.022.82-.077.233-.054.422-.098.532-.152v.436zm6.461-2.434c0 .492-.078.928-.222 1.343a3.377 3.377 0 01-.631 1.058 2.857 2.857 0 01-2.128.95h-.543c-.554 0-.987-.11-1.308-.338-.321-.219-.488-.59-.488-1.08v-4.803c.078-.032.178-.054.31-.087.134-.022.278-.055.422-.076.144-.022.299-.044.443-.055.155-.01.288-.022.421-.022h.676c.366 0 .743.066 1.097.186.366.12.688.316.987.567.288.251.52.579.698.971.177.393.266.852.266 1.386zm-1.319.186c0-.36-.044-.677-.144-.95a1.814 1.814 0 00-.399-.698 1.7 1.7 0 00-.61-.425 1.963 1.963 0 00-.775-.142h-.277c-.045 0-.089 0-.144.01-.056.011-.111.011-.156.033a1.237 1.237 0 01-.188.022v3.656c0 .186.044.328.144.415.1.087.266.13.51.13h.222a1.743 1.743 0 001.308-.6 2.22 2.22 0 00.376-.643c.089-.251.133-.524.133-.808zm7.68 2.958a.51.51 0 01-.233.164c-.077.032-.21.043-.388.043-.21 0-.398-.043-.565-.13a.849.849 0 01-.387-.437l-.477-1.157a3.45 3.45 0 00-.222-.415.89.89 0 00-.221-.229.745.745 0 00-.233-.109c-.078-.022-.155-.044-.244-.055-.144-.021-.266-.043-.377-.054-.11-.011-.2-.022-.266-.022v2.565h-.42c-.289 0-.51-.077-.666-.23-.144-.152-.221-.36-.221-.621v-5.36c.066-.021.177-.054.31-.076.133-.032.288-.054.443-.076a6.61 6.61 0 01.488-.055c.166-.01.31-.021.432-.021h.72c.322 0 .621.043.876.13.266.088.487.219.676.383a1.698 1.698 0 01.587 1.309c0 .219-.033.426-.1.622-.066.197-.166.36-.276.513a1.748 1.748 0 01-.422.382 1.347 1.347 0 01-.532.186c.178.065.333.185.477.36.144.175.244.35.332.535l.521 1.19c.089.185.166.327.233.425.066.109.122.185.155.24zm-3.036-5.195c-.034 0-.078 0-.122.011-.045 0-.1.011-.156.011-.055.01-.11.01-.166.022-.055.01-.1.022-.133.022v1.691c.144.033.289.044.444.055h.487c.266 0 .499-.077.687-.218.189-.142.288-.36.288-.655 0-.197-.022-.35-.066-.47a.7.7 0 00-.2-.294.624.624 0 00-.31-.142 2.096 2.096 0 00-.388-.044h-.365v.011zm8.777 4.605c0 .131-.022.24-.067.339a.591.591 0 01-.221.25c-.1.066-.244.12-.433.153a4.11 4.11 0 01-.698.055h-.687c-.798 0-1.396-.207-1.806-.633-.41-.415-.61-1.037-.61-1.866v-1.19c0-.306.011-.611.034-.928.022-.316.055-.61.088-.873.044-.382.166-.633.333-.764.177-.13.399-.196.653-.196h3.392v.425c0 .448-.288.677-.876.677h-2.205a3.75 3.75 0 00-.044.371l-.034.393c-.01.131-.01.262-.022.382v.328h2.494v.458c0 .207-.067.36-.2.447-.133.088-.332.142-.587.142h-1.707v.371c0 .284.022.502.067.677a.772.772 0 00.232.404.872.872 0 00.433.196c.177.033.387.055.642.055h.421c.233 0 .477-.011.71-.033.232-.022.476-.055.709-.11l-.011.47zm6.084.743a1.63 1.63 0 01-.388-.044 1.043 1.043 0 01-.421-.218 2.805 2.805 0 01-.488-.513 7.484 7.484 0 01-.554-.917l-1.186-2.27c-.177-.35-.321-.6-.432-.742v4.704h-.51a.898.898 0 01-.288-.055.724.724 0 01-.255-.164.734.734 0 01-.177-.262.927.927 0 01-.066-.37v-5.556h.642c.433 0 .787.11 1.075.328.288.218.543.545.765.971l1.13 2.237c.067.131.145.284.211.448.066.163.122.305.177.414v-4.409h.577c.088 0 .166.022.255.055a.533.533 0 01.221.164.779.779 0 01.166.24.629.629 0 01.067.283v5.654h-.521v.022zm9.519-4.453c0 .338-.055.644-.166.917-.11.273-.265.502-.454.687-.2.186-.432.338-.698.437a2.479 2.479 0 01-.864.153c-.455 0-.82-.077-1.087-.219v2.489h-.51a.862.862 0 01-.276-.044.877.877 0 01-.255-.153.912.912 0 01-.189-.284 1.23 1.23 0 01-.066-.425v-5.228a3 3 0 01.355-.098c.144-.033.299-.066.454-.098.155-.033.31-.055.476-.066.155-.022.3-.033.41-.033h.732c.321 0 .61.044.875.131.266.088.488.219.688.382.188.164.332.382.443.622.077.24.133.513.133.83zm-1.33.12c0-.371-.077-.633-.243-.786-.155-.153-.41-.24-.742-.24h-.422c-.077 0-.166.011-.277.033-.1.022-.188.043-.266.054v1.812c.111.033.255.055.421.076.167.022.333.033.5.033.332 0 .587-.087.764-.262.177-.174.266-.414.266-.72zm6.839 3.47c0 .142-.023.273-.067.382a.766.766 0 01-.21.295c-.1.087-.244.142-.422.185a2.836 2.836 0 01-.664.066h-.51c-.765 0-1.352-.208-1.751-.611-.41-.404-.61-.993-.61-1.768v-4.082h.532c.532 0 .81.316.81.939v3.066c0 .24.021.448.055.611a.96.96 0 00.188.415.7.7 0 00.366.23c.155.043.354.065.598.065h.333c.31 0 .576-.022.82-.077.232-.054.42-.098.532-.152v.436zm5.784.863c-.266 0-.476-.066-.62-.197-.144-.131-.233-.273-.255-.426A8.51 8.51 0 0094 65.012h-2.582c-.066.273-.133.546-.177.819-.055.273-.11.545-.155.818h-.51c-.21 0-.366-.054-.465-.163-.09-.11-.133-.262-.133-.459 0-.153.033-.382.1-.676.066-.295.143-.623.254-.994.111-.37.233-.753.377-1.156.144-.404.3-.797.465-1.168.167-.382.333-.72.51-1.037a4.13 4.13 0 01.51-.742h.532c.266 0 .488.055.654.175.177.12.299.25.388.414.144.262.31.611.487 1.059.189.447.366.938.543 1.473a23.8 23.8 0 01.477 1.66c.144.567.244 1.101.31 1.614h-.532zm-1.34-2.653a6.77 6.77 0 00-.211-.687c-.078-.24-.166-.47-.255-.699a7.086 7.086 0 00-.277-.644 11.63 11.63 0 00-.266-.523c-.1.163-.189.349-.288.556-.089.207-.189.426-.277.644a7.028 7.028 0 00-.244.677 9.11 9.11 0 00-.2.676h2.017zm7.713-3.241c0 .076-.034.196-.1.36a4.784 4.784 0 01-.266.535 10.41 10.41 0 01-.377.622c-.144.218-.277.436-.421.644-.144.207-.277.404-.41.578-.133.175-.244.328-.344.437v2.728h-.543a.832.832 0 01-.277-.054.636.636 0 01-.255-.164.736.736 0 01-.177-.262.929.929 0 01-.066-.371V63.92a11.51 11.51 0 01-.577-.819c-.188-.305-.376-.61-.554-.938a19.937 19.937 0 01-.487-.971 11.816 11.816 0 01-.377-.94h.61c.254 0 .454.056.598.154a.752.752 0 01.277.294c.077.186.166.382.277.59.1.207.21.404.31.6.111.196.222.382.333.568.11.185.221.338.321.48a11.902 11.902 0 00.754-1.19 9.08 9.08 0 00.365-.742c.111-.251.211-.502.277-.742h.566c.166 0 .299.044.388.142.11.076.155.196.155.349z" fill="#866AFB"/></g><defs><clipPath id="clip0_1106_4759"><path fill="#fff" d="M0 0h102.667v70H0z"/></clipPath></defs></svg>