<svg width="146" height="48" viewBox="0 0 146 48" fill="none" xmlns="http://www.w3.org/2000/svg">
<g clip-path="url(#clip0_1106_6399)">
<path d="M26.6698 1.15556C25.9859 0.355556 25.0457 0 23.9344 0H3.76112C2.73536 0 1.79508 0.355556 1.11124 1.15556C0.34192 1.95556 0 2.84444 0 4C0 5.15556 0.34192 6.04444 1.11124 6.75556C1.88056 7.46667 2.73536 7.82222 3.76112 7.82222H10.0867V33.2444C10.0867 34.4 10.4286 35.2889 11.1124 36.0889C11.7963 36.8 12.7365 37.2444 13.8478 37.2444C14.959 37.2444 15.8138 36.8889 16.5831 36.0889C17.267 35.2889 17.6089 34.4 17.6089 33.2444V7.91111H23.9344C25.0457 7.91111 25.9005 7.55556 26.6698 6.84444C27.3536 6.13333 27.781 5.15556 27.781 4.08889C27.781 2.84444 27.4391 1.95556 26.6698 1.15556ZM25.9005 2.93333C25.9005 3.02222 25.815 3.11111 25.7295 3.28889C25.644 3.37778 25.5585 3.46667 25.4731 3.46667H25.3876C25.0457 2.66667 24.4473 2.31111 23.7635 2.31111C23.507 2.31111 23.3361 2.31111 23.0796 2.31111C22.8232 2.31111 22.7377 2.22222 22.6522 2.04444V1.95556C22.6522 1.77778 22.7377 1.68889 22.8232 1.51111H23.9344C24.1909 1.51111 24.4473 1.51111 24.7037 1.68889C25.3021 1.86667 25.644 2.31111 25.9859 2.84444C25.9005 2.84444 25.9005 2.84444 25.9005 2.93333Z" fill="white"/>
<path d="M47.4413 17.6C46.672 15.9111 45.7317 14.4 44.4495 13.1556C43.1673 11.9111 41.7996 10.8444 40.09 10.1333C38.4659 9.42222 36.6708 9.06667 34.8758 9.06667C32.9952 9.15555 31.2001 9.6 29.4905 10.3111C27.7809 11.0222 26.4132 12.0889 25.131 13.3333C23.9343 14.5778 22.994 16.0889 22.3102 17.7778C21.6263 19.4667 21.2844 21.3333 21.2844 23.2C21.2844 25.2444 21.6263 27.1111 22.3102 28.8C22.994 30.4889 24.0198 32 25.2165 33.2444C26.4132 34.4889 27.8664 35.4667 29.576 36.1778C31.2001 36.8889 32.9952 37.2444 34.8758 37.2444C36.7563 37.2444 38.5514 36.8889 40.1755 36.1778C41.7996 35.4667 43.2528 34.4 44.4495 33.1556C45.6463 31.9111 46.672 30.4 47.3559 28.7111C48.0397 27.0222 48.3816 25.1556 48.3816 23.2889C48.5526 21.1556 48.1252 19.2889 47.4413 17.6ZM40.6884 25.6889C40.3465 26.4889 39.9191 27.2 39.3207 27.8222C38.7224 28.4444 38.124 28.8889 37.3547 29.2444C36.5854 29.6 35.816 29.7778 34.8758 29.7778C33.9355 29.7778 33.1662 29.6 32.4823 29.2444C31.713 28.8889 31.0292 28.4444 30.5163 27.8222C29.9179 27.2 29.4905 26.4889 29.1486 25.6889C28.8067 24.8889 28.6357 24 28.6357 23.1111C28.6357 22.2222 28.8067 21.3333 29.1486 20.5333C29.4905 19.7333 29.9179 19.0222 30.5163 18.4889C31.1146 17.8667 31.7985 17.4222 32.4823 17.1556C33.2516 16.8 34.021 16.6222 34.8758 16.6222C36.6708 16.7111 38.124 17.3333 39.3207 18.5778C40.5174 19.8222 41.1158 21.3333 41.2013 23.1111C41.2013 24 41.0303 24.8889 40.6884 25.6889ZM42.0561 14.8444L41.9706 14.9333C41.8851 14.9333 41.7996 14.8444 41.6287 14.7556C39.6626 13.1556 37.3547 12.1778 34.6193 11.9111C34.3629 11.9111 34.1919 11.7333 34.1919 11.6444C34.1919 11.4667 34.3629 11.3778 34.6193 11.3778C35.0467 11.2889 35.4741 11.2889 35.9015 11.2889C36.8418 11.2889 37.7821 11.4667 38.7224 11.8222C40.261 12.3556 41.3722 13.2444 42.0561 14.4889C42.1416 14.6667 42.227 14.7556 42.227 14.8444C42.1416 14.7556 42.1416 14.7556 42.0561 14.8444Z" fill="white"/>
<path d="M77.5304 9.95556C76.7611 9.24445 75.9063 8.88889 74.966 8.88889C73.9403 8.88889 73.0855 9.24445 72.3162 9.95556C71.6323 10.6667 71.2904 11.5556 71.2904 12.6222V23.2889C71.2904 24.1778 71.1194 24.9778 70.7775 25.7778C70.4356 26.4889 69.9227 27.2 69.4098 27.7333C68.8115 28.2667 68.1276 28.7111 67.3583 28.9778C66.589 29.3333 65.8197 29.4222 65.0504 29.4222C64.1101 29.4222 63.3407 29.2445 62.5714 28.8889C61.8021 28.5333 61.1183 28.0889 60.6054 27.4667C60.007 26.8444 59.5796 26.2222 59.3232 25.4222C58.9813 24.6222 58.8103 23.8222 58.8103 22.9333V12.5333C58.8103 11.4667 58.3829 10.6667 57.6136 9.95556C56.8443 9.33334 55.9895 8.97778 55.0492 8.97778C54.0234 8.97778 53.1686 9.33334 52.3993 10.0444C51.7155 10.7556 51.3735 11.6444 51.3735 12.7111V22.6667C51.3735 24.8 51.7155 26.6667 52.4848 28.4445C53.2541 30.2222 54.1944 31.7333 55.4766 32.9778C56.7588 34.3111 58.2119 35.2889 59.8361 36C61.4602 36.7111 63.2553 37.0667 65.0504 37.0667C66.1616 37.0667 67.2728 36.9778 68.3841 36.7111C69.4953 36.4445 70.5211 36.0889 71.3759 35.5556V44C71.3759 45.1556 71.7178 46.0445 72.4871 46.7556C73.2564 47.4667 74.1112 47.8222 75.0515 47.8222C75.9918 47.8222 76.8466 47.4667 77.6159 46.7556C78.3852 46.0445 78.7272 45.1556 78.7272 44.1778V12.5333C78.6417 11.5556 78.2998 10.6667 77.5304 9.95556ZM57.1007 11.8222C57.1007 11.9111 57.0152 12 56.9297 12.1778C56.8443 12.2667 56.7588 12.3556 56.6733 12.3556C56.6733 12.3556 56.5878 12.3556 56.5878 12.2667C56.2459 11.4667 55.6475 11.1111 54.9637 11.1111C54.7073 11.1111 54.4508 11.1111 54.1944 11.2H54.1089C53.9379 11.2 53.8525 11.2 53.8525 11.1111C53.8525 11.0222 53.8525 10.9333 53.9379 10.8444C54.1089 10.6667 54.2799 10.4889 54.4508 10.4C54.6218 10.3111 54.8782 10.3111 55.0492 10.3111C55.3056 10.3111 55.5621 10.3111 55.8185 10.4889C56.4169 10.6667 56.7588 11.1111 57.1007 11.6444C57.1007 11.7333 57.1007 11.7333 57.1007 11.8222ZM76.9321 11.8222C76.9321 11.9111 76.8466 12 76.7611 12.1778C76.6756 12.2667 76.5902 12.3556 76.5047 12.3556C76.5047 12.3556 76.4192 12.3556 76.4192 12.2667C76.0773 11.4667 75.4789 11.1111 74.7951 11.1111C74.5386 11.1111 74.2822 11.1111 74.0258 11.2H73.9403C73.7693 11.2 73.6838 11.2 73.6838 11.1111C73.6838 11.0222 73.6838 10.9333 73.7693 10.8444C73.9403 10.6667 74.1112 10.4889 74.2822 10.4C74.4532 10.3111 74.7096 10.3111 74.8806 10.3111C75.137 10.3111 75.3934 10.3111 75.6499 10.4889C76.1628 10.6667 76.5902 11.1111 76.9321 11.6444C76.9321 11.7333 76.9321 11.7333 76.9321 11.8222Z" fill="white"/>
<path d="M144.889 17.6889C144.119 16 143.179 14.4889 141.897 13.2444C140.615 12 139.247 10.9333 137.537 10.2222C135.913 9.51111 134.118 9.15556 132.323 9.15556C130.443 9.15556 128.733 9.51111 127.023 10.3111C125.399 11.0222 123.946 12.0889 122.664 13.4222C121.382 14.6667 120.441 16.1778 119.672 17.8667C118.903 19.5556 118.561 21.4222 118.561 23.2889V44.6222C118.561 45.6 118.988 46.4889 119.672 47.1111C120.441 47.8222 121.211 48.1778 122.151 48.1778C123.177 48.1778 124.032 47.8222 124.801 47.1111C125.485 46.4 125.827 45.5111 125.827 44.4444V36C127.707 36.9778 129.844 37.4222 132.152 37.4222C134.033 37.4222 135.828 37.0667 137.537 36.3556C139.161 35.6444 140.615 34.5778 141.897 33.3333C143.094 32.0889 144.034 30.5778 144.803 28.8889C145.487 27.2 145.829 25.3333 145.829 23.3778C146 21.1556 145.658 19.3778 144.889 17.6889ZM138.136 25.6889C137.794 26.4889 137.366 27.2 136.854 27.8222C136.255 28.4444 135.657 28.8889 134.887 29.2444C134.118 29.6 133.349 29.7778 132.409 29.7778C131.554 29.7778 130.784 29.6 130.015 29.2444C129.246 28.8889 128.562 28.4444 127.964 27.9111C127.365 27.3778 126.938 26.6667 126.596 25.8667C126.254 25.0667 126.083 24.1778 126.083 23.2C126.083 22.3111 126.254 21.5111 126.596 20.7111C126.938 19.9111 127.365 19.2889 127.878 18.6667C128.476 18.1333 129.075 17.6 129.844 17.2444C130.613 16.8889 131.468 16.7111 132.323 16.7111C133.178 16.7111 134.033 16.8889 134.717 17.2444C135.4 17.6 136.084 18.0444 136.683 18.5778C137.281 19.2 137.708 19.8222 138.05 20.6222C138.392 21.4222 138.563 22.2222 138.563 23.2C138.563 24.1778 138.478 24.8889 138.136 25.6889ZM139.931 16.1778L139.845 16.2667C139.76 16.2667 139.674 16.1778 139.503 16.0889C137.537 14.4889 135.229 13.5111 132.494 13.2444C132.238 13.2444 132.067 13.0667 132.067 12.9778C132.067 12.8 132.238 12.7111 132.494 12.7111C132.921 12.6222 133.349 12.6222 133.776 12.6222C134.717 12.6222 135.571 12.8 136.597 13.1556C138.136 13.6889 139.247 14.5778 139.931 15.8222C140.016 16 140.102 16.0889 140.102 16.1778C140.016 16 140.016 16.0889 139.931 16.1778Z" fill="white"/>
<path d="M113.86 24.2667V26.4889C113.86 28.6222 113.432 30.6667 112.663 32.5333C111.893 34.4 110.782 36.0889 109.415 37.4222C108.047 38.8444 106.423 39.9111 104.628 40.7111C102.833 41.5111 100.867 41.9556 98.7296 41.9556C96.7635 42.0444 94.7975 41.6889 93.0024 40.8889C91.2073 40.0889 89.5832 39.0222 88.2155 37.6C86.8478 36.1778 85.7366 34.5778 84.8818 32.7111C84.1125 30.9333 83.6851 29.0667 83.6851 27.1111C83.6851 27.0222 83.6851 26.9333 83.6851 26.8444V24.4444C83.6851 23.3778 84.027 22.4 84.7963 21.5111C85.5656 20.7111 86.5059 20.2667 87.7026 20.1778C87.8736 20.1778 87.9591 20.1778 88.13 20.1778C91.6347 20 93.0024 23.6444 95.2249 24.6222C97.7038 25.6 101.55 25.4222 104.542 22.3111C105.824 21.0667 107.278 20.3556 108.645 20.3556C108.987 20.2667 109.329 20.1778 109.671 20.1778C110.782 20.1778 111.723 20.6222 112.577 21.4222C113.347 22.3111 113.774 23.2889 113.86 24.2667Z" fill="#F88E0F"/>
<path d="M91.0362 8.97778C88.7282 8.97778 86.8477 10.9333 86.8477 13.2444C86.8477 15.6444 88.7282 17.5111 91.0362 17.5111C93.3441 17.5111 95.2247 15.5556 95.2247 13.2444C95.1392 10.8444 93.3441 8.97778 91.0362 8.97778ZM89.3266 12.3556C88.8137 12.3556 88.3863 11.9111 88.3863 11.3778C88.3863 10.8444 88.8137 10.4889 89.3266 10.4889C89.8395 10.4889 90.2669 10.9333 90.2669 11.3778C90.2669 11.8222 89.8395 12.3556 89.3266 12.3556Z" fill="white"/>
<path d="M106.423 8.97778C104.115 8.97778 102.234 10.9333 102.234 13.2444C102.234 15.6444 104.115 17.5111 106.423 17.5111C108.731 17.5111 110.611 15.5556 110.611 13.2444C110.611 10.8444 108.731 8.97778 106.423 8.97778ZM104.713 12.3556C104.2 12.3556 103.773 11.9111 103.773 11.3778C103.773 10.8444 104.2 10.4889 104.713 10.4889C105.226 10.4889 105.653 10.9333 105.653 11.3778C105.653 11.8222 105.226 12.3556 104.713 12.3556Z" fill="white"/>
<path d="M87.5315 28.5333C89.1556 29.6 90.7797 30.4889 92.4039 31.1111C94.028 31.7333 95.6521 32 97.2762 31.9111C98.9003 31.8222 100.439 31.2 101.892 30.4C103.431 29.5111 104.884 28.3556 106.423 27.2C105.739 29.0667 104.542 30.7556 103.089 32.0889C101.55 33.4222 99.5842 34.4 97.4472 34.5778C95.3102 34.7556 93.2587 34.1333 91.5491 32.9778C89.8395 31.8222 88.3863 30.3111 87.5315 28.5333Z" fill="white"/>
</g>
<defs>
<clipPath id="clip0_1106_6399">
<rect width="146" height="48" fill="white"/>
</clipPath>
</defs>
</svg>
