<svg width="94" height="70" viewBox="0 0 94 70" fill="none" xmlns="http://www.w3.org/2000/svg">
<g clip-path="url(#clip0_1106_4892)">
<path d="M27.3001 32.6668C26.4835 31.3835 25.5501 30.1001 24.7335 28.8168C24.0335 27.5335 23.6835 26.2501 23.8001 24.7335C23.9168 23.3335 24.3835 21.9335 24.9668 20.6501C26.2501 18.0835 28.3501 15.9835 30.2168 13.7668C31.1501 12.6001 32.0835 11.4335 32.7835 10.1501C33.4835 8.98348 33.9501 7.58348 33.4835 6.30014C33.1335 5.13348 32.2001 4.20014 31.0335 3.85014C29.7501 3.38348 28.2335 3.85014 26.9501 4.43348C24.5001 5.60014 22.5168 7.70014 21.3501 10.1501C20.6501 11.4335 20.1835 12.9501 19.9501 14.3501C19.6001 15.8668 19.4835 17.3835 19.1335 18.9001C19.0168 19.6001 18.7835 20.3001 18.4335 21.0001C18.2001 21.4668 17.6168 22.1668 17.0335 21.7001C16.4501 21.3501 16.2168 20.4168 16.1001 19.8335C15.9835 19.0168 15.8668 18.3168 15.8668 17.5001C15.7501 15.8668 15.9835 14.2335 16.1001 12.6001C16.2168 11.0835 16.3335 9.56681 15.7501 8.16681C15.2835 7.11681 14.4668 6.06681 13.3001 5.60014C12.1335 5.13348 10.9668 5.36681 9.91681 6.18348C7.58348 8.16681 7.93347 11.4335 8.16681 14.2335C8.51681 17.6168 8.86681 21.0001 9.10014 24.3835C9.21681 25.3168 9.33347 26.3668 9.33347 27.3001C9.10014 28.4668 8.86681 29.6335 8.63347 30.8001C8.28347 32.4335 8.05014 34.0668 7.81681 35.7001C7.70014 37.1001 7.46681 38.6168 7.93348 40.0168C8.75014 42.4668 11.9001 43.6335 14.1168 42.1168C15.2835 41.3001 15.7501 40.1335 15.9835 38.8501C16.1001 37.3335 15.9835 35.7001 15.8668 34.1835C15.8668 33.3668 15.7501 32.5501 15.8668 31.7335C15.9835 31.1501 16.4501 30.4501 17.1501 30.5668C17.8501 30.6835 18.4335 31.3835 18.6668 31.9668C19.0168 32.5501 19.2501 33.2501 19.3668 33.9501C20.1835 36.7501 20.7668 39.7835 22.5168 42.2335C23.9168 44.2168 26.8335 46.4335 29.1668 44.4501C30.1001 43.7501 30.5668 42.5835 30.6835 41.4168C30.8001 39.9001 30.2168 38.5001 29.5168 37.2168C28.9335 35.4668 28.2335 34.0668 27.3001 32.6668Z" fill="#41ACE6"/>
<path d="M38.6177 15.0507C39.6677 14.234 40.0177 12.9507 39.551 11.6673C39.0844 10.5007 37.801 9.684 36.5177 10.2673C35.8177 10.6173 35.2344 11.3173 35.1177 12.134C34.8844 12.834 34.8844 13.534 35.2344 14.234C35.9344 15.5173 37.451 15.8673 38.6177 15.0507Z" fill="#F8C013"/>
<path d="M40.251 33.6005C39.7843 32.4338 39.201 31.2672 38.851 30.1005C38.501 28.9338 38.2677 27.7672 38.151 26.6005C38.151 25.6672 38.3843 24.7338 38.501 23.6838C38.9677 21.7005 39.3177 19.3672 37.9177 17.6172C36.5177 15.8672 34.1843 17.0338 32.901 18.3172C31.3843 19.8338 30.6843 21.8172 30.2177 23.8005C29.9843 24.8505 29.8677 26.0172 29.8677 27.0672C29.9843 28.1172 30.101 29.2838 30.3343 30.3338C30.6843 32.3172 31.2677 34.3005 32.4343 35.9338C33.4843 37.5672 34.8843 39.0838 36.8677 39.3172C38.501 39.5505 40.4843 38.6172 40.7177 36.8672C41.0677 35.8172 40.7177 34.6505 40.251 33.6005Z" fill="#F8C013"/>
<path d="M70.7003 35.9337C71.1669 34.1837 70.5836 31.5004 68.4836 31.1504C67.9003 31.0337 67.4336 31.1504 66.8503 31.1504C66.2669 31.1504 65.8003 30.9171 65.4503 30.5671C64.7503 29.7504 64.2836 28.5837 64.0503 27.5337C63.5836 25.317 63.5836 22.8671 63.9336 20.5337C64.2836 18.317 64.9836 16.1004 66.0336 14.0004C67.2003 11.7837 68.7169 9.91705 70.1169 7.93371C71.2836 6.30038 72.5669 3.96705 71.1669 1.98371C70.1169 0.467048 68.1336 -0.116286 66.3836 0.117048C64.4003 0.350381 62.5336 1.51705 61.2503 3.03371C59.7336 4.66705 58.9169 6.76705 58.3336 8.98371C58.1003 10.0337 57.8669 11.2004 57.6336 12.367C57.4003 13.417 57.2836 14.5837 56.5836 15.517C56.5836 15.6337 56.4669 15.7504 56.3503 15.7504C56.2336 15.7504 56.1169 15.6337 56.0003 15.517C55.7669 15.4004 55.6503 15.167 55.4169 15.0504C54.9503 14.817 54.4836 14.5837 54.0169 14.467C53.0836 14.2337 52.0336 14.2337 51.1003 14.3504C46.7836 15.0504 44.2169 19.4837 43.4003 23.4504C42.9336 25.7837 42.9336 28.1171 43.1669 30.4504C43.4003 32.667 44.1003 34.8837 45.3836 36.6337C46.5503 38.267 48.4169 39.667 50.4003 40.017C52.6169 40.3671 54.4836 39.0837 56.0003 37.5671C56.2336 37.3337 56.8169 36.6337 57.1669 36.7504C57.7503 38.2671 58.9169 39.5504 60.3169 40.2504C62.1836 41.3004 64.4003 41.1837 66.3836 40.3671C68.4836 39.4337 70.2336 38.0337 70.7003 35.9337ZM52.7336 30.217C51.2169 30.6837 49.9336 29.6337 49.4669 28.2337C49.1169 27.1837 49.2336 26.1337 49.7003 25.3171C49.8169 25.0837 50.0503 24.8504 50.4003 24.7337C50.9836 24.3837 51.6836 24.267 52.2669 24.3837C53.0836 24.617 53.5503 25.317 53.9003 26.1337C54.4836 27.417 54.3669 29.6337 52.7336 30.217Z" fill="#3FDDC7"/>
<path d="M84.4669 28.5832C83.1836 26.8332 81.0836 26.1332 79.4502 24.8499C78.6336 24.1499 77.8169 23.3332 77.2336 22.3999C76.6502 21.4665 76.0669 20.4165 76.1836 19.2499C76.3003 18.3165 76.8836 17.2665 77.9336 17.1499C78.4003 17.1499 78.8669 17.2665 79.1003 17.6165C79.4503 17.9665 79.6836 18.5499 79.9169 19.0165C80.3836 19.7165 81.3169 20.1832 82.2503 20.0665C83.1836 19.9499 83.8836 19.2499 84.2336 18.4332C84.9336 16.6832 84.3503 14.4665 83.3003 12.8332C82.1336 11.0832 80.2669 10.0332 78.1669 9.68319C76.0669 9.33319 73.7336 9.68319 71.8669 10.8499C70.7003 11.5499 69.7669 12.5999 69.1836 13.8832C67.7836 15.9832 66.9669 18.4332 67.4336 21.1165C67.7836 23.2165 68.9503 24.9665 70.5836 26.3665C72.2169 27.7665 74.0836 29.0499 75.2503 30.9165C76.3003 32.6665 76.7669 34.6499 76.0669 36.5165C75.7169 37.3332 75.1336 38.1499 74.3169 38.6165C73.3836 39.1999 72.2169 39.4332 71.1669 39.7832C70.2336 40.1332 69.4169 40.5999 68.8336 41.4165C68.2503 42.2332 68.1336 43.1665 68.3669 44.0999C69.0669 46.1999 71.2836 46.8999 73.2669 46.6665C74.4336 46.5499 75.6002 46.0832 76.6502 45.6165C77.5836 45.2665 78.5169 44.7999 79.3336 44.3332C81.0836 43.3999 82.6003 42.1165 83.7669 40.3665C85.0503 38.4999 85.4003 36.2832 85.5169 34.0665C85.7503 32.4332 85.6336 30.3332 84.4669 28.5832Z" fill="#B17AFE"/>
<path d="M11.0839 7.5838C10.6173 7.35047 10.1506 7.81713 9.91725 8.16713C9.68392 8.40047 9.56725 8.75047 9.45059 9.10047C9.33392 9.6838 9.21725 10.3838 9.10059 10.9671C9.10059 11.4338 9.10059 11.9005 9.45059 12.2505C9.80059 12.6005 10.2673 12.4838 10.6173 12.1338C10.9673 11.7838 11.0839 11.0838 11.2006 10.6171C11.3173 10.0338 11.4339 9.45047 11.4339 8.86713C11.5506 8.40047 11.5506 7.81713 11.0839 7.5838Z" fill="#ADE2FF"/>
<path d="M28.234 6.65065C28.1174 6.18399 27.6507 6.18399 27.184 6.30065C26.3674 6.65065 25.5507 7.35065 25.3174 8.28399C25.3174 8.40065 25.3174 8.63399 25.3174 8.75065V8.86732C25.3174 9.10065 25.434 9.21732 25.5507 9.21732C26.0174 9.45065 26.484 9.10065 26.834 8.86732C27.184 8.51732 27.6507 8.28399 27.884 7.81732C28.234 7.46732 28.3507 7.11732 28.234 6.65065Z" fill="#ADE2FF"/>
<path d="M10.6173 37.3339C10.2673 36.9839 9.80066 37.1006 9.56732 37.4506C9.33399 37.8006 9.33399 38.3839 9.45066 38.8506C9.56732 39.6672 9.91732 40.6006 10.6173 40.2506C11.084 40.0172 11.084 39.3172 11.084 38.9672C10.9673 38.3839 10.9673 37.6839 10.6173 37.3339Z" fill="#ADE2FF"/>
<path d="M24.2675 39.9008C23.8008 40.2508 23.8008 40.9508 24.0341 41.4175C24.0341 41.5342 24.1508 41.6508 24.2675 41.7675C24.3841 42.1175 24.6175 42.3508 24.8508 42.4675C25.3175 42.8175 26.0175 42.5842 26.1341 42.0008C26.3675 41.4175 26.1341 40.6008 25.7841 40.1342C25.4341 39.9008 24.8508 39.6675 24.2675 39.9008Z" fill="#ADE2FF"/>
<path d="M48.6505 17.3843C48.3005 17.3843 48.0672 17.5009 47.9505 17.7343C47.8339 17.8509 47.7172 17.9676 47.6005 18.2009C47.3672 18.4343 47.1339 18.7843 47.0172 19.0176C46.9005 19.1343 46.9005 19.2509 46.7839 19.3676C46.5505 19.8343 46.3172 20.3009 46.4339 20.7676C46.6672 21.4676 47.3672 21.1176 47.7172 20.8843C48.1839 20.5343 48.5339 20.0676 48.8839 19.6009C49.1172 19.1343 49.4672 18.4343 49.2339 17.8509C49.1172 17.6176 48.8839 17.3843 48.6505 17.3843Z" fill="#A8FFF3"/>
<path d="M61.7173 36.6346C61.4839 36.4013 61.0173 36.168 60.6673 36.168C60.5506 36.168 60.4339 36.168 60.2006 36.2846C59.9673 36.4013 59.8506 36.7513 59.8506 36.9846C59.8506 37.1013 59.8506 37.1013 59.8506 37.218C60.0839 37.918 60.5506 38.5013 61.2506 38.8513C61.8339 39.2013 62.7673 39.2013 62.8839 38.3846C62.8839 38.0346 62.7673 37.8013 62.5339 37.568C62.3006 37.3346 61.9506 36.9846 61.7173 36.6346Z" fill="#A8FFF3"/>
<path d="M64.8674 2.21777C64.634 2.21777 64.5174 2.33444 64.284 2.33444C63.3507 2.56777 62.6507 3.73444 62.3007 4.55111C62.0674 5.01777 61.834 5.95111 62.534 6.06777C62.884 6.18444 63.1174 5.95111 63.2341 5.71777C63.4674 5.48444 63.7007 5.13444 63.934 4.90111C64.4007 4.31777 64.8674 3.85111 65.2174 3.26777C65.5674 2.80111 65.4507 2.21777 64.8674 2.21777Z" fill="#A8FFF3"/>
<path d="M2.45075 56.4675C1.98408 55.8841 1.05075 55.7675 0.584083 56.3508C0.117417 56.7008 -0.115917 57.4008 0.117417 57.9841C0.234083 58.2175 0.467417 58.4508 0.70075 58.5675C1.16742 58.9175 1.75075 58.9175 2.21742 58.5675C2.91742 57.9841 2.91742 57.0508 2.45075 56.4675Z" fill="#F8526B"/>
<path d="M1.28395 56.4673C1.16729 56.3506 1.16729 56.3506 1.05062 56.3506C0.933952 56.3506 0.817285 56.3506 0.817285 56.4673C0.700618 56.5839 0.700618 56.5839 0.583952 56.7006C0.467285 56.8173 0.467285 56.8173 0.467285 56.9339C0.467285 57.0506 0.467285 57.1673 0.583952 57.1673C0.700618 57.2839 0.700618 57.2839 0.817285 57.2839C0.933952 57.2839 1.05062 57.2839 1.05062 57.1673C1.16729 57.1673 1.16729 57.0506 1.28395 56.9339C1.40062 56.8173 1.40062 56.8173 1.40062 56.7006C1.40062 56.5839 1.28395 56.4673 1.28395 56.4673Z" fill="#FFA8B5"/>
<path d="M91.1176 45.9676C90.6509 44.5676 89.4842 43.5176 88.0842 43.1676C84.4676 42.2343 81.4342 45.0343 78.5176 46.7843C75.3676 48.651 71.7509 49.9343 68.0176 49.9343C61.2509 49.701 55.8842 43.8676 49.0009 44.3343C45.6176 44.5676 42.5842 46.201 39.4342 47.3676C37.9176 47.951 36.2842 48.5343 34.5342 48.651C32.5509 48.8843 30.6842 48.5343 28.8176 47.951C25.3176 47.0176 21.8176 45.501 18.0842 45.2676C14.7009 45.151 11.4342 46.201 9.56758 49.1176C9.10091 49.701 8.86758 50.401 8.63425 51.101C7.46758 53.551 7.35091 56.4676 8.51758 58.801C10.0342 61.8343 13.3009 63.351 16.4509 64.051C20.1842 64.8676 24.1509 64.751 27.7676 63.5843C31.1509 62.5343 34.3009 60.551 37.9176 59.9676C39.9009 59.6176 41.8842 59.9676 43.7509 60.551C45.6176 61.1343 47.4842 61.7176 49.3509 62.301C53.0842 63.5843 56.8176 65.101 60.4342 66.851C62.1842 67.6676 63.9342 68.601 65.8009 69.1843C67.4342 69.7676 69.3009 69.8843 71.0509 69.651C77.8176 68.951 83.7676 64.1676 87.5009 58.6843C88.4342 57.2843 89.1342 55.8843 89.8342 54.3676C90.4176 52.9676 91.0009 51.451 91.2342 49.9343C91.5842 48.7676 91.5842 47.251 91.1176 45.9676Z" fill="#F8526B"/>
<path d="M23.8009 56.5845C22.8676 56.8178 21.8176 57.4011 20.8842 57.1678C20.7676 57.1678 20.6509 57.1678 20.6509 57.0511C20.6509 57.0511 20.6509 57.0511 20.6509 56.9345C20.7676 56.7011 20.7676 56.4678 20.8842 56.3511C21.1176 55.8845 21.4676 55.5345 21.8176 55.1845C22.8676 54.0178 25.2009 52.6178 23.9176 50.7511C22.7509 49.0011 20.3009 49.8178 18.5509 50.0511C17.5009 50.1678 16.4509 50.0511 15.4009 50.1678C14.5842 50.2845 13.6509 50.5178 13.0676 51.2178C12.4842 51.9178 12.3676 52.9678 12.9509 53.6678C13.4176 54.4845 14.4676 54.8345 15.4009 54.8345C16.4509 54.7178 17.2676 54.0178 18.3176 54.1345C18.6676 54.1345 18.7842 54.2511 18.7842 54.6011C18.6676 54.8345 18.5509 55.0678 18.4342 55.4178C17.8509 56.1178 17.1509 56.8178 16.6842 57.5178C16.2176 58.2178 15.9842 59.0345 16.1009 59.8511C16.3342 60.6678 17.0342 61.1345 17.8509 61.2511C18.7842 61.3678 19.8342 61.0178 20.7676 60.9011C21.8176 60.7845 22.7509 60.6678 23.8009 60.5511C24.6176 60.4345 25.5509 60.0845 26.1342 59.2678C26.6009 58.6845 26.6009 57.8678 26.1342 57.1678C25.6676 56.2345 24.7342 56.4678 23.8009 56.5845Z" fill="white"/>
<path d="M37.4514 50.9842C37.2181 50.9842 37.1014 50.8676 36.8681 50.8676C35.9348 50.6342 34.7681 50.7509 34.0681 51.3342C33.7181 51.5676 33.3681 51.9176 33.1348 52.1509C32.6681 52.6176 32.2014 53.0842 31.9681 53.6676C31.5014 54.4842 31.3848 55.4176 31.7348 56.2342C32.4348 57.9842 34.1848 58.8009 36.0514 58.5676C36.8681 58.4509 37.6848 57.9842 38.3848 57.4009C39.0848 56.8176 39.7848 56.0009 40.0181 55.1842C40.2514 54.3676 40.1348 53.2009 39.6681 52.3842C39.2014 51.5676 38.3848 51.1009 37.4514 50.9842ZM34.4181 55.6509C34.3014 55.5342 34.3014 55.4176 34.3014 55.3009C34.3014 55.3009 34.3014 55.1842 34.4181 55.1842C34.5348 54.7176 34.8848 53.9009 35.4681 54.1342C35.9348 54.3676 36.0514 55.1842 35.8181 55.5342C35.5848 56.1176 34.7681 56.0009 34.4181 55.6509Z" fill="white"/>
<path d="M58.6841 51.451C57.8675 50.9843 56.8175 50.6343 55.8841 50.751C54.8341 50.8676 53.9008 51.2176 53.0841 51.801C52.1508 52.3843 51.3341 53.0843 50.4008 53.551C50.1675 53.6676 49.8175 53.901 49.5841 53.7843C49.3508 53.7843 49.5841 53.7843 49.4675 53.6676C49.4675 53.551 49.4675 53.201 49.5841 53.0843C49.9341 52.2676 50.0508 51.451 49.9341 50.6343C49.8175 49.8176 49.1175 48.8843 48.1841 49.2343C47.7175 49.351 47.4841 49.8176 47.2508 50.2843C47.0175 50.8676 46.6675 51.451 46.4341 52.0343C45.9675 53.0843 45.6175 54.251 45.2675 55.301C45.0341 56.2343 44.6841 57.401 45.2675 58.3343C45.8508 59.151 46.7841 59.501 47.7175 59.3843C48.7675 59.2676 49.5841 58.6843 50.2841 57.8676C50.9841 57.1676 51.9175 56.351 52.9675 56.1176C53.4341 56.001 54.0175 56.001 54.2508 56.351C54.6008 56.701 54.6008 57.2843 54.4841 57.751C54.3675 58.801 53.7841 59.851 54.0175 60.901C54.2508 61.8343 54.9508 62.5343 55.7675 62.7676C56.7008 63.001 57.6341 62.7676 58.4508 62.1843C60.2008 60.901 60.6675 58.3343 60.7841 56.351C61.0175 54.3676 60.3175 52.501 58.6841 51.451Z" fill="white"/>
<path d="M78.1677 54.6011C77.1177 52.8511 74.901 52.2678 73.0344 52.3844C70.8177 52.5011 68.7177 53.4344 66.9677 54.7178C65.451 55.8844 64.5177 57.6344 64.1677 59.3844C63.8177 61.1344 63.8177 63.4678 65.101 64.8678C65.801 65.5678 66.851 65.9178 67.7844 66.0344C68.7177 66.1511 69.7677 66.1511 70.701 66.0344C72.5677 65.8011 74.7844 64.8678 75.951 63.2344C76.5344 62.4178 76.8844 61.1344 75.951 60.4344C75.0177 59.7344 73.6177 60.3178 72.6844 60.6678C71.9844 60.9011 71.2844 61.1344 70.5844 61.2511C70.1177 61.3678 69.4177 61.4844 69.0677 61.0178C68.8344 60.6678 68.8344 60.0844 69.1844 59.7344C69.651 59.2678 70.8177 59.3844 71.051 59.3844C72.801 59.2678 74.6677 59.0344 76.4177 58.5678C77.351 58.3344 78.1677 57.8678 78.5177 56.9344C78.751 56.2344 78.6344 55.3011 78.1677 54.6011ZM71.9844 56.7011C71.9844 56.5844 71.9844 56.4678 71.9844 56.4678C72.101 56.2344 72.2177 56.0011 72.3344 55.8844C72.6844 55.5344 73.2677 55.1844 73.6177 55.6511C74.201 56.3511 72.801 56.7011 71.9844 56.7011Z" fill="white"/>
<path d="M13.301 47.9506C13.301 47.6006 12.951 47.3673 12.601 47.484C12.4843 47.484 12.4843 47.484 12.3677 47.484C11.6677 47.9506 11.0843 48.6506 10.851 49.3506C10.7343 49.7006 11.0843 49.934 11.4343 49.8173C11.901 49.584 12.251 49.234 12.7177 49.0006C12.951 48.7673 13.301 48.4173 13.301 47.9506Z" fill="#FFA8B5"/>
<path d="M72.9175 68.1342C72.5675 67.5509 71.7509 67.9009 71.2842 68.0175C70.9342 68.1342 70.5842 68.2509 70.3509 68.3675C70.1175 68.4842 69.7675 68.6009 69.6509 68.9509C69.6509 69.0675 69.6509 69.0675 69.6509 69.0675C69.6509 69.1842 69.7675 69.3009 69.7675 69.3009C70.0009 69.5342 70.4675 69.5342 70.8175 69.5342C71.0509 69.5342 71.2842 69.4175 71.5175 69.3009C71.5175 69.3009 71.6342 69.3009 71.7509 69.3009C72.2175 69.1842 72.5675 68.9509 72.9175 68.6009C72.9175 68.4842 73.0342 68.2509 72.9175 68.1342Z" fill="#FFA8B5"/>
<path d="M86.3341 43.9843C86.1008 43.1676 84.5841 43.9843 84.1174 44.2176C83.7674 44.4509 83.4174 44.6843 83.3008 45.0343C83.3008 45.5009 83.6508 45.6176 84.0008 45.6176C84.4674 45.5009 84.9341 45.3843 85.4008 45.1509C85.7508 45.0343 86.1008 44.8009 86.2174 44.4509C86.3341 44.4509 86.3341 44.2176 86.3341 43.9843Z" fill="#FFA8B5"/>
<path d="M45.7344 45.5011C45.5011 45.3844 45.2677 45.3844 45.1511 45.5011C44.9177 45.5011 44.8011 45.6177 44.5677 45.7344C44.1011 45.9677 43.7511 46.2011 43.2844 46.5511C43.0511 46.7844 43.1677 47.1344 43.4011 47.2511C43.5177 47.3677 43.7511 47.3677 43.8677 47.2511C44.5677 47.1344 45.3844 46.9011 45.8511 46.3177C46.2011 46.0844 46.0844 45.7344 45.7344 45.5011Z" fill="#FFA8B5"/>
<path d="M92.7508 36.6342C92.2841 36.2842 91.7008 36.4008 91.2341 36.7508C90.6508 37.1008 90.1841 37.5675 89.9508 38.2675C89.8341 38.6175 89.8341 39.0842 89.9508 39.4342C90.0674 39.7842 90.4175 39.9008 90.8841 40.0175C91.7008 40.1342 92.5174 39.6675 92.9841 38.9675C93.3341 38.2675 93.4508 37.1008 92.7508 36.6342Z" fill="#F8526B"/>
<path d="M91.8176 37.101C91.8176 36.9843 91.7009 36.9843 91.5842 36.8677C91.4676 36.8677 91.3509 36.8677 91.2342 36.8677C91.1176 36.8677 91.1176 36.9843 91.0009 36.9843C90.8842 36.9843 90.8842 37.101 90.7676 37.2177C90.7676 37.3343 90.7676 37.451 90.7676 37.5677C90.7676 37.6843 90.8842 37.6843 91.0009 37.801C91.1176 37.801 91.2342 37.801 91.3509 37.801C91.4676 37.801 91.4676 37.6843 91.5842 37.6843C91.7009 37.6843 91.7009 37.5677 91.8176 37.451C91.8176 37.3343 91.8176 37.2177 91.8176 37.101Z" fill="#FFA8B5"/>
<path d="M91.8172 60.4339C91.4672 59.7339 90.7672 59.7339 90.3005 60.0839C89.9505 60.3172 89.7172 60.5506 89.6005 60.9006C89.4839 61.3672 89.7172 61.8339 90.1839 61.9506C91.0005 62.1839 92.2839 61.3672 91.8172 60.4339Z" fill="#F8526B"/>
<path d="M91.0002 60.4336C91.0002 60.317 90.8835 60.2003 90.7669 60.2003C90.6502 60.2003 90.5335 60.0836 90.4169 60.2003C90.3002 60.2003 90.1835 60.317 90.0669 60.4336C89.9502 60.5503 89.9502 60.5503 89.9502 60.667C89.9502 60.7836 89.9502 60.9003 90.0669 60.9003C90.1835 61.017 90.1835 61.017 90.3002 61.017C90.4169 61.017 90.5335 61.017 90.5335 60.9003C90.6502 60.9003 90.6502 60.7836 90.7669 60.7836C91.0002 60.5503 91.1169 60.4336 91.0002 60.4336Z" fill="#FFA8B5"/>
<path d="M33.7169 19.7167C33.6002 19.7167 33.4835 19.8334 33.3669 19.8334C32.9002 20.1834 32.6669 20.7667 32.5502 21.2334C32.4335 21.5834 32.2002 22.4001 32.6669 22.6334C33.1335 22.8667 33.7169 22.2834 33.9502 21.8167C34.3002 21.3501 34.5335 20.7667 34.5335 20.3001C34.5335 19.9501 34.1835 19.6001 33.7169 19.7167Z" fill="#FFE594"/>
<path d="M36.4001 10.8501C36.4001 10.8501 36.2834 10.8501 36.2834 10.9667C35.9334 11.2001 35.7001 11.9001 36.0501 12.2501C36.5168 12.6001 37.1001 12.0167 37.2168 11.6667C37.3334 11.4334 37.3334 11.2001 37.2168 10.9667C36.9834 10.7334 36.6334 10.7334 36.4001 10.8501Z" fill="#FFE594"/>
<path d="M40.3669 35.6999C40.3669 35.5832 40.2502 35.5832 40.2502 35.4665C40.0169 35.2332 39.6669 35.3499 39.5502 35.5832C39.4335 35.8165 39.4335 36.1665 39.3169 36.5165C39.3169 36.7499 39.2002 37.0999 39.2002 37.3332C39.3169 37.5665 39.6669 37.6832 39.9002 37.5665C40.1335 37.4499 40.2502 37.0999 40.2502 36.8665C40.3669 36.5165 40.3669 36.2832 40.3669 35.9332C40.4835 35.8165 40.4835 35.6999 40.3669 35.6999Z" fill="#FFE594"/>
<path d="M74.2006 11.3167C73.6172 11.4334 73.0339 11.7834 72.5672 12.1334C72.1006 12.4834 71.6339 13.0667 71.7506 13.7667C71.7506 13.8834 71.7506 13.8834 71.7506 13.8834C71.9839 14.5834 72.6839 14.1167 73.0339 13.8834C73.5006 13.5334 73.8506 13.1834 74.0839 12.8334C74.2006 12.7167 74.3172 12.6 74.4339 12.4834C74.6672 12.25 74.9006 12.0167 74.7839 11.6667C74.7839 11.3167 74.5506 11.2 74.2006 11.3167Z" fill="#CFADFE"/>
<path d="M71.8673 41.4168C71.5173 41.3001 71.0506 41.5334 70.7006 41.7668C70.4673 42.0001 70.3506 42.2334 70.3506 42.4668C70.3506 43.2834 71.2839 43.0501 71.7506 42.7001C71.9839 42.5834 72.2173 42.3501 72.3339 42.0001C72.3339 41.8834 72.1006 41.5334 71.8673 41.4168Z" fill="#CFADFE"/>
<path d="M83.7672 28.4667C83.6505 28.2334 83.3005 28 83.0672 27.8834C82.7172 27.7667 82.3672 28 82.3672 28.35C82.3672 28.5834 82.3672 28.7 82.6005 28.8167C82.7172 28.9334 82.8339 29.05 82.9505 29.1667C83.0672 29.2834 83.1839 29.4 83.3005 29.5167C83.5339 29.6334 83.7672 29.5167 83.8839 29.2834C84.0005 29.05 83.8839 28.7 83.7672 28.4667Z" fill="#CFADFE"/>
<path d="M31.2673 64.6342V64.5176C30.9174 63.7009 29.7507 63.7009 29.284 64.4009C29.284 64.5176 29.1674 64.6342 29.1674 64.7509C28.8174 65.3342 28.7007 65.9176 29.0507 66.6176C29.5174 67.4342 30.5674 67.3176 31.1507 66.7342C31.6174 66.1509 31.734 65.2176 31.2673 64.6342Z" fill="#F8526B"/>
<path d="M30.3342 64.5175C30.3342 64.4008 30.2176 64.4008 30.2176 64.2841C30.1009 64.2841 30.1009 64.1675 29.9842 64.1675C29.8676 64.1675 29.7509 64.1675 29.7509 64.2841L29.6342 64.4008C29.5176 64.5175 29.5176 64.5175 29.5176 64.6341C29.5176 64.6341 29.5176 64.6341 29.5176 64.7508C29.5176 64.8675 29.6342 64.9841 29.7509 64.9841C29.8676 64.9841 29.9842 65.1008 30.1009 64.9841H30.2176C30.3342 64.9841 30.3342 64.8675 30.3342 64.8675C30.3342 64.7508 30.4509 64.7508 30.4509 64.6341V64.5175C30.3342 64.6341 30.3342 64.5175 30.3342 64.5175Z" fill="#FFA8B5"/>
</g>
<defs>
<clipPath id="clip0_1106_4892">
<rect width="93.2167" height="70" fill="white"/>
</clipPath>
</defs>
</svg>
