<svg width="123" height="70" viewBox="0 0 123 70" fill="none" xmlns="http://www.w3.org/2000/svg">
<g clip-path="url(#clip0_1106_5076)">
<path d="M6.97742 64.5996C6.87775 66.2996 5.08358 66.9996 3.68812 67.2996L3.58844 69.8996L1.2959 69.7996L1.39557 62.0996C3.28942 61.7996 7.27645 61.4996 6.97742 64.5996ZM3.78779 63.3996V65.2996C4.28617 65.1996 5.28293 64.9996 5.38261 64.2996C5.48228 63.4996 4.5852 63.3996 3.78779 63.3996Z" fill="url(#paint0_linear_1106_5076)"/>
<path d="M12.659 67.6998H14.9516L14.8519 69.9998H10.0674L9.96777 62.4998L12.5593 62.2998L12.659 67.6998Z" fill="#224190"/>
<path d="M22.6264 62.2997L24.3209 69.7997L21.829 69.9997L21.53 67.5997L20.3339 67.6997L20.0349 69.8997L17.543 69.5997L19.5365 62.1997L22.6264 62.2997ZM21.4303 66.2997L21.1313 63.7997L20.6329 66.2997H21.4303Z" fill="#E4C062"/>
<path d="M33.5909 62.8997L31.099 66.4997L30.9994 69.9997H28.8065L28.7068 66.1997L26.1152 62.8997L28.1088 62.1997L30.0026 64.5997L31.5974 62.1997L33.5909 62.8997Z" fill="#02B0E3"/>
<path d="M71.6671 62.1997L74.2587 62.3997L72.9629 69.6997H70.5707L69.7733 66.5997L68.8762 69.6997L66.484 69.5997L65.5869 62.3997L68.1785 62.1997L68.2782 66.2997L68.8762 63.5997L70.6704 63.3997L71.3681 66.4997L71.6671 62.1997Z" fill="#7FC142"/>
<path d="M83.429 65.6996C83.5287 67.6996 82.8309 69.4996 80.6381 69.7996C78.4452 70.0996 76.7507 68.8996 76.8504 66.1996C76.95 63.4996 78.9436 62.0996 80.6381 62.2996C81.8342 62.5996 83.2296 63.2996 83.429 65.6996ZM81.1364 65.4996C80.9371 64.5996 80.4387 64.2996 80.04 64.2996C79.4419 64.2996 78.9436 64.8996 79.0432 65.9996C79.0432 67.0996 79.741 67.4996 80.5384 67.2996C81.1364 67.0996 81.3358 66.2996 81.1364 65.4996Z" fill="url(#paint1_linear_1106_5076)"/>
<path d="M90.8047 66.6995L92.2001 68.9995L90.3063 69.9995L89.1102 67.3995C89.0105 67.3995 88.9108 67.3995 88.8112 67.4995L88.9108 70.0995L86.718 69.9995L86.4189 62.4995C88.1134 62.0995 92.2002 61.8995 92.0008 64.8995C91.9011 65.6995 91.4027 66.2995 90.8047 66.6995ZM88.5121 65.7995C89.0105 65.7995 90.2066 65.4995 90.3063 64.8995C90.406 64.2995 89.2099 64.2995 88.4125 64.2995L88.5121 65.7995Z" fill="#21428E"/>
<path d="M97.6824 67.6999H99.9749L99.8753 69.8999H95.1905L95.0908 62.5999L97.5827 62.3999L97.6824 67.6999Z" fill="#11ACE3"/>
<path d="M109.046 66.4995C108.547 70.6995 102.965 69.8995 102.965 69.8995L102.866 62.2995C105.657 61.9995 109.544 62.6995 109.046 66.4995ZM105.158 64.2995V67.4995C105.158 67.4995 107.152 67.1995 107.251 65.9995C107.152 64.7995 106.055 64.1995 105.158 64.2995Z" fill="#7FC142"/>
<path d="M38.0762 62L43.4587 62.1V64.5L41.7642 64.4L41.8639 69.9L39.5714 70L39.6711 64.3L37.9766 64.2L38.0762 62Z" fill="#7FC142"/>
<path d="M49.7383 62.0996H52.2302V69.6996H49.838V66.6996H48.6419V69.6996L46.15 69.7996L46.0503 62.1996L48.5422 62.0996V65.3996L49.838 65.4996V62.0996H49.7383Z" fill="url(#paint2_linear_1106_5076)"/>
<path d="M60.8022 67.3998L60.9019 69.7998H55.2203L55.021 61.9998L60.6028 61.7998L60.5032 64.2998H57.2139L57.3135 65.1998H59.3071V66.5998H57.3135L57.4132 67.4998L60.8022 67.3998Z" fill="#02B0E3"/>
<path d="M9.0705 0L0 30.8L1.39546 58.1L39.8703 53.9L43.06 13.8L9.0705 0Z" fill="#F58921"/>
<path d="M54.1242 15.7L88.8114 10.5L92.8981 53.2L51.6323 51.1L54.1242 15.7Z" fill="#EA3292"/>
<path d="M34.3882 17.5L55.7188 11L65.8857 52.2L38.1759 54.1L34.3882 17.5Z" fill="#00B3E4"/>
<path d="M25.0188 29.7L41.2659 46.6L30.0026 53.8L19.9353 39.9L19.736 53.2L7.07713 53L6.37939 12L20.334 12.6L20.2343 21.2L31.6971 11L38.475 18.7L25.0188 29.7Z" fill="white"/>
<path d="M52.3298 20.4999L52.8282 50.4999L42.4619 50.5999L42.8606 20.3999L52.3298 20.4999Z" fill="white"/>
<path d="M89.708 6.7002L123 24.5002L110.142 61.5002L77.9463 45.6002L89.708 6.7002Z" fill="#7FC142"/>
<path d="M85.5217 34.9002C83.6278 52.7002 59.5063 49.6002 59.5063 49.6002L58.9082 17.0002C71.0687 15.6002 87.3158 18.6002 85.5217 34.9002ZM68.4771 25.6002V39.1002C68.4771 39.1002 77.0492 37.8002 77.2486 32.5002C77.4479 27.5002 72.5638 25.1002 68.4771 25.6002Z" fill="white"/>
<path d="M110.74 45.9999L108.049 54.4999L84.625 46.5999L87.4159 39.1999L104.76 30.2999L92.2004 25.6999L95.091 16.8999L117.319 23.7999L114.926 33.2999L99.1777 42.6999L110.74 45.9999Z" fill="white"/>
</g>
<defs>
<linearGradient id="paint0_linear_1106_5076" x1="1.37066" y1="65.9292" x2="7.03832" y2="65.9292" gradientUnits="userSpaceOnUse">
<stop stop-color="#DB2A64"/>
<stop offset="1" stop-color="#ED4D7A"/>
</linearGradient>
<linearGradient id="paint1_linear_1106_5076" x1="76.7991" y1="66.0875" x2="83.4355" y2="66.0875" gradientUnits="userSpaceOnUse">
<stop stop-color="#DB2A64"/>
<stop offset="1" stop-color="#ED4D7A"/>
</linearGradient>
<linearGradient id="paint2_linear_1106_5076" x1="45.9253" y1="65.9242" x2="52.1805" y2="65.9242" gradientUnits="userSpaceOnUse">
<stop stop-color="#DB2A64"/>
<stop offset="1" stop-color="#ED4D7A"/>
</linearGradient>
<clipPath id="clip0_1106_5076">
<rect width="123" height="70" fill="white"/>
</clipPath>
</defs>
</svg>
