<svg width="88" height="70" viewBox="0 0 88 70" fill="none" xmlns="http://www.w3.org/2000/svg">
<g clip-path="url(#clip0_1106_4785)">
<path d="M33.955 55.1846C33.723 55.8991 33.4067 56.5926 33.1114 57.2861C32.5209 58.6941 31.9093 60.102 31.2767 61.489C31.0236 62.0354 30.8338 62.7289 30.1378 62.7499C29.9902 62.7499 29.8426 62.7499 29.716 62.7499C29.1255 62.7499 28.5139 62.6869 27.9234 62.6658C24.9287 62.5818 21.934 62.5187 18.9393 62.3716C18.7495 62.3716 18.5386 62.3506 18.3488 62.3506C17.0624 62.2876 15.7759 62.1615 14.5106 61.9093C14.2153 61.8463 13.9201 61.7832 13.6248 61.6992C13.4561 61.6571 13.2663 61.5941 13.0976 61.5521C12.8445 61.468 12.8234 61.531 12.8234 61.2789C12.8234 61.0267 13.1187 60.6484 13.2241 60.4173C13.3296 60.1861 13.4561 59.9339 13.5615 59.7028C13.6459 59.5346 13.7092 59.3875 13.7935 59.2194C13.8568 59.0933 13.9201 58.9462 13.9833 58.8201C13.9833 58.8201 13.9833 58.7991 14.0044 58.7991C14.4684 57.8535 14.9324 56.9078 15.3963 55.9621C15.797 55.1846 16.1766 54.4071 16.5984 53.6295C17.1889 52.5157 17.7794 51.402 18.391 50.2882C18.4543 50.1621 18.4754 50.036 18.4332 49.9309C18.391 49.7628 18.2434 49.6367 18.0747 49.5737C17.9692 49.4266 17.8005 49.3215 17.5685 49.4056C17.2944 49.4896 17.0202 49.5527 16.746 49.6367C15.797 49.8889 14.848 50.057 13.8779 50.1621C13.2452 50.2251 12.6336 50.2882 12.0009 50.2882C11.2628 50.3092 10.0818 50.4773 9.53347 49.8679C9.0695 49.3425 9.02732 48.4809 8.94296 47.8084C8.81643 46.8207 8.75316 45.8331 8.71098 44.8454C8.68989 44.4251 8.64771 43.9417 8.92187 43.5845C9.13277 43.3113 9.51238 43.1432 9.82872 43.0171C11.537 42.2816 13.2663 41.6091 15.0167 40.9576C15.5861 40.7475 16.1766 40.5373 16.746 40.3272C18.2645 39.8018 19.7829 39.3185 21.3435 38.8982C21.3646 38.8982 21.3857 38.8772 21.4068 38.8772C22.5035 38.583 23.6212 38.3308 24.76 38.1207C25.0764 38.0576 25.4138 37.9946 25.7301 37.9525C27.5649 37.6583 29.4208 37.5112 31.2767 37.5322C31.7195 37.5322 32.1624 37.5322 32.5842 37.5953C33.1114 37.6583 33.1747 37.9315 33.1747 38.4149C33.1958 39.3185 33.0482 40.2011 32.7951 41.0627C32.2257 43.1222 31.2767 45.0555 30.4331 46.9889C30.3909 47.0729 30.3698 47.136 30.3276 47.22C30.2011 47.5352 30.0535 47.8505 29.9269 48.1657C29.9269 48.1867 29.9058 48.2077 29.9058 48.2077C29.1888 49.8469 28.4929 51.465 27.7758 53.1041C27.7125 53.2512 27.7125 53.4404 27.7758 53.5875C27.818 53.7136 27.9234 53.7976 28.0711 53.8186L32.5631 54.6172C32.9005 54.6803 33.2591 54.7433 33.5965 54.8063C33.6809 54.8274 33.8496 54.8274 33.9339 54.8904C34.0815 54.9955 34.0394 54.9955 33.955 55.1846Z" fill="white"/>
<path d="M47.7893 41.8614C46.9457 40.4954 45.5327 39.5497 44.0143 39.0874C40.6611 38.0997 37.2446 39.7179 35.3044 42.4918C32.9845 45.8331 33.1111 50.2042 34.6506 53.8397C34.7139 53.9658 34.7139 54.0919 34.6717 54.218C34.9669 54.4702 35.0935 54.8485 34.9669 55.3108C34.9459 55.3738 34.9248 55.4369 34.9037 55.4999C36.5908 58.526 40.7876 59.6398 43.7401 57.7485C45.3851 56.6977 46.5872 54.9745 47.4308 53.2303C48.2533 51.5071 48.7383 49.5948 48.8438 47.6824C48.9492 45.7281 48.8438 43.5636 47.7893 41.8614ZM42.285 51.8854C41.0829 52.3687 39.2903 51.9064 39.0372 50.4774C38.8263 49.3216 39.5855 47.8716 40.8087 47.7034C41.7788 47.3462 43.002 47.7245 43.5293 48.6491C44.2041 49.8469 43.5082 51.381 42.285 51.8854Z" fill="#33B6B7"/>
<path d="M65.0614 41.5878C64.6186 41.2936 64.0281 41.2726 63.5219 41.2306C62.7838 41.1675 62.0457 41.1465 61.3075 41.1675C60.9912 41.1885 60.6748 41.1885 60.3796 41.2306C60.1054 41.2726 60.0422 41.3356 59.9578 41.6299C59.6204 42.9748 59.4517 44.3618 59.1986 45.7067C58.9455 47.0937 58.6714 48.4596 58.4183 49.8466C58.3339 50.3089 57.7434 50.2669 57.5325 49.9727C55.2127 46.9256 53.3146 43.5632 51.9017 40.0117C50.6996 40.2009 49.5607 40.6422 48.5273 41.2516C48.8226 41.6929 49.0757 42.1762 49.2655 42.6806C50.0458 44.761 49.9825 47.1567 49.6451 49.3212C49.4553 50.477 49.16 51.6329 48.7171 52.7256C48.8226 52.8097 48.907 52.9358 48.928 53.1039C49.0757 55.1843 49.4553 57.2228 50.0247 59.2192C50.9315 59.2402 51.8384 59.2402 52.7241 59.2612C52.9772 59.2612 53.2303 59.2612 53.4834 59.2612C53.631 59.2612 53.9262 59.2192 54.0528 59.2612C54.0739 59.2612 54.0739 59.2612 54.0949 59.2612C54.0949 59.1982 54.0739 59.1141 54.0739 59.051C54.0528 58.7989 54.0106 58.5257 53.9895 58.2735C53.7575 56.2771 53.5466 54.2807 53.3146 52.2843C53.2725 51.822 53.863 51.6959 54.1582 51.9481C55.3603 52.9988 56.5413 54.0706 57.7434 55.1213C58.3128 55.6256 58.8822 56.13 59.4517 56.6344C60.0211 57.1387 60.5272 57.8112 61.3708 57.6641C62.0878 57.538 62.8681 57.4329 63.543 57.2228C63.8804 57.1177 63.8383 56.9706 63.8804 56.6344C63.9226 56.3191 63.9648 56.0039 64.007 55.6887C64.1757 54.2807 64.3444 52.8937 64.5131 51.4858C64.8505 48.7328 65.2302 46.0009 65.4832 43.248C65.5465 42.6386 65.6098 41.9241 65.0614 41.5878Z" fill="#F9DE6A"/>
<path d="M76.4497 55.1217C75.4585 55.3319 74.4883 55.563 73.4971 55.7522C72.5903 55.9413 71.5991 56.0464 70.8399 55.4369C70.2283 54.9536 69.933 54.113 70.3548 53.3985C70.7133 52.7681 71.4726 52.579 72.1474 52.5579C73.4339 52.4739 74.889 52.8101 75.9224 51.8014C76.9136 50.8137 76.2177 49.0275 74.8258 48.9434C73.4128 48.8593 71.7045 49.847 70.5868 48.5021C69.7854 47.5564 69.9752 45.9803 71.0508 45.3289C72.4005 44.5093 73.9611 45.518 75.353 44.9926C76.7238 44.4673 76.7449 42.597 75.9435 41.6093C74.8469 40.2433 72.991 40.0332 71.3671 40.1803C69.6167 40.3274 67.7819 40.6636 66.2002 41.4412C66.4533 41.9245 66.5376 42.5339 66.4744 43.1854C66.158 46.4427 65.7152 49.6999 65.3145 52.9572C65.3145 52.9782 65.3145 52.9782 65.3145 52.9992C65.3988 53.0623 65.4621 53.1463 65.4832 53.2724C65.905 54.9116 66.3057 56.5717 66.7274 58.2109C66.8118 58.5471 66.8329 58.9464 67.1914 59.0725C67.4867 59.1776 67.9084 59.1355 68.2037 59.1355C69.0051 59.1355 69.8276 59.1145 70.629 59.0725C72.295 58.9674 73.9611 58.7783 75.6061 58.4631C75.8802 58.421 76.4075 58.421 76.5762 58.1689C76.7449 57.9167 76.7027 57.2442 76.7027 56.95C76.7027 56.3196 76.6184 55.7101 76.4497 55.1217Z" fill="#7CB413"/>
<path d="M82.7347 15.3613C82.7136 15.4244 82.7136 15.4874 82.6925 15.5715C82.566 16.286 82.334 17.0425 81.8278 17.5679L81.8067 17.5889C81.7224 17.673 81.638 17.736 81.5537 17.7991C80.8577 18.3244 80.2672 18.2404 79.6978 17.9462C79.044 17.5889 78.4324 16.9164 77.7998 16.5172C77.5467 16.349 77.2725 16.244 76.9984 16.1599C75.8595 15.8447 74.6785 16.244 73.7295 17.0005C73.624 17.0846 73.4975 17.1896 73.3921 17.2947C73.371 17.3157 73.3499 17.3367 73.3288 17.3577C72.907 17.778 72.5274 18.2824 72.4009 18.8498C72.2532 19.4172 72.3798 19.9846 72.6539 20.4889C72.7383 20.636 72.8437 20.7831 72.9492 20.9092C73.0757 21.0563 73.2023 21.2034 73.3499 21.3295C74.32 22.2121 75.7119 22.6114 76.9351 22.9897C77.3147 23.1158 77.7154 23.2208 78.095 23.3469C79.0229 23.6622 79.9509 24.0404 80.7101 24.6499C80.8577 24.7759 81.0053 24.902 81.1319 25.0491C82.1231 26.1209 82.4816 27.676 82.334 29.105C82.3129 29.3151 82.2918 29.5042 82.2496 29.6934C82.1653 30.1347 82.0176 30.555 81.8489 30.9543C81.7224 31.2485 81.5537 31.5427 81.385 31.8159C81.2373 32.068 81.0686 32.2992 80.8788 32.5304C79.6556 34.0855 77.8419 35.2413 76.0704 35.9347C75.5643 36.1449 75.0581 36.292 74.5309 36.4391C73.2023 36.7753 71.8314 36.9014 70.4395 36.9014C69.9967 36.9014 69.5538 36.9014 69.1109 36.8804C68.6048 36.8594 68.0986 36.8384 67.5714 36.7964C66.7278 36.7123 65.9897 36.4601 65.4414 35.7876C64.4923 34.6529 64.5978 33.0137 65.7366 32.047C66.0319 31.7949 66.3904 31.6057 66.77 31.5006C67.0863 31.3956 67.4448 31.3746 67.7823 31.3956C67.8877 31.4166 67.9721 31.4166 68.0775 31.4376C68.7524 31.5427 69.364 31.7528 70.0388 31.5006C70.3974 31.3746 70.7137 31.1854 70.9879 30.9543C71.1777 30.7861 71.3464 30.597 71.494 30.3869C71.9369 29.7354 72.0845 28.9158 71.8947 28.1173C71.7682 27.6339 71.5362 27.1926 71.2199 26.8144C71.0511 26.6252 70.8824 26.4571 70.6715 26.289C70.0178 25.7846 69.2375 25.6375 68.4571 25.4484C67.7612 25.2803 66.9387 25.0071 66.7489 24.2296C66.7067 24.0614 66.6013 23.9564 66.4958 23.9143C66.4747 23.9143 66.4536 23.8933 66.4326 23.8933C66.6013 22.8426 66.6645 21.7708 66.6645 20.7411C66.6645 20.1737 66.6224 19.6063 66.5591 19.0599C66.3693 17.5469 65.9475 16.0548 65.2726 14.6889C65.1461 14.4577 65.0196 14.2055 64.893 13.9744C64.9352 13.8483 64.9774 13.7222 65.0196 13.5961C65.3781 12.6084 65.9264 11.6838 66.6224 10.8852C67.2761 10.1287 68.0564 9.47723 68.9422 8.95186C69.4273 8.65765 69.9334 8.42649 70.4606 8.23736C70.5661 8.19533 70.6504 8.17432 70.7559 8.13229C70.777 8.13229 70.7981 8.11127 70.8192 8.11127C72.4852 7.5859 74.1935 7.69098 75.9017 8.02721C75.9861 8.04823 76.0704 8.06924 76.1548 8.06924C76.8296 8.19533 77.5256 8.34243 78.2004 8.55258C78.9175 8.76273 79.6134 9.0149 80.2672 9.37215C80.9421 9.7294 81.5326 10.1917 81.9755 10.7591C82.3972 11.3055 82.6925 11.9359 82.7979 12.6925C82.9034 13.5961 82.8612 14.4997 82.7347 15.3613Z" fill="white"/>
<path d="M65.6313 19.7117C65.5047 17.9044 64.9986 16.0972 64.0918 14.5211C63.9652 14.437 63.8598 14.3109 63.8598 14.1428C63.7121 13.9116 63.5645 13.7015 63.3958 13.4913C62.025 11.7051 60.1269 10.6544 57.9336 10.192C53.7579 9.30942 47.8529 9.39348 45.4698 13.5964C45.4276 13.6595 45.3854 13.7015 45.3433 13.7435C45.3644 14.8783 45.3854 16.0341 45.4065 17.1689C45.4276 17.1899 45.4698 17.232 45.4909 17.253C48.3169 21.4139 48.8441 26.5415 49.519 31.3749C49.6033 31.9633 49.6666 32.5517 49.772 33.1191C49.8986 33.7285 50.1095 33.8756 50.7211 33.9597C51.9442 34.1068 53.1885 34.1068 54.4117 33.9807C56.6894 33.7495 58.9038 32.972 60.7807 31.6481C62.489 30.4502 63.8809 28.769 64.619 26.8147C65.5047 24.6081 65.8 22.0864 65.6313 19.7117ZM59.0725 23.2212C57.8071 24.2509 56.141 23.9567 54.6226 24.0407C54.4117 24.0617 54.2008 23.8726 54.1586 23.6835C53.8423 22.5907 53.6525 21.4769 53.526 20.3632C53.2729 19.8168 53.4627 19.2284 53.9688 18.8921C54.4961 18.5349 55.2764 18.4928 55.888 18.4928C57.1744 18.4928 58.5241 18.9131 59.3888 19.9008C60.3167 20.9726 60.1691 22.3385 59.0725 23.2212Z" fill="#F8526B"/>
<path d="M44.4995 24.4821C44.4995 25.6379 44.4995 26.7937 44.4784 27.9705C44.4784 28.8741 44.4573 29.7568 44.4573 30.6604C43.3817 30.7655 42.3062 30.8285 41.2095 30.8495C40.5346 30.8705 39.8387 30.8705 39.1638 30.8705C38.3624 30.8495 37.5821 30.8285 36.7807 30.7865C36.7596 30.4713 36.7175 30.156 36.6964 29.8618C36.6542 29.3575 36.5909 28.8531 36.5488 28.3488C36.4222 27.235 36.3168 26.1422 36.1691 25.0285C36.1059 24.4611 36.0215 23.9147 35.9582 23.3473C35.8106 22.2335 35.663 21.1407 35.5154 20.027C35.4521 19.6277 35.4099 19.2284 35.3467 18.8291C35.2623 18.3037 35.199 17.7784 35.1147 17.274C34.967 16.3704 34.8405 15.4878 34.6718 14.5841C34.6085 14.1638 34.5242 13.7646 34.4609 13.3443C34.4398 13.1972 34.3555 13.0921 34.2711 13.0501C34.6085 12.3146 34.946 11.6001 35.2834 10.8435C35.4943 10.3602 35.7474 9.83482 35.7052 9.28844C35.663 8.67901 35.2201 8.27973 34.6507 8.11161C34.5663 8.0906 34.482 8.06958 34.3976 8.04857C34.4398 7.9435 34.4398 7.81741 34.3765 7.6703C33.6595 6.11522 34.6296 4.43404 35.9582 3.59345C36.0004 3.57244 36.0637 3.53041 36.1059 3.50939C36.612 3.21519 37.1603 2.96301 37.7508 2.79489C38.8475 2.47967 40.0285 2.45866 41.0619 2.81591C41.4626 2.96301 41.8211 3.15214 42.1164 3.40432C42.4327 3.6565 42.6858 3.97172 42.8967 4.30795C43.3185 5.02245 43.4872 5.88405 43.4661 6.78769C43.445 7.54422 43.2341 8.30075 42.8756 8.93119C42.5803 9.45655 42.1585 9.89786 41.6524 10.2341C41.6102 10.2551 41.5891 10.2761 41.5469 10.2971C41.4415 10.3182 41.336 10.3602 41.2728 10.4442C41.1462 10.5073 40.9986 10.5703 40.851 10.6124C40.2605 10.8015 40.5136 11.7472 41.1041 11.558C41.336 11.495 41.5469 11.3899 41.7578 11.2848C42.6014 11.3269 43.4661 11.3689 44.3097 11.4109C44.3307 11.9573 44.3307 12.5247 44.3518 13.0711C44.394 14.5211 44.4151 15.9711 44.4362 17.4211C44.4784 19.7538 44.4995 22.1074 44.4995 24.4821Z" fill="white"/>
<path d="M10.208 33.3712C10.3556 33.9386 10.4822 34.506 10.6298 35.0524C10.6931 35.3256 10.7774 35.6198 10.8407 35.893C10.904 36.1031 10.9251 36.5444 11.136 36.6915C11.3258 36.8176 11.7897 36.7756 12.0217 36.7966C12.2537 36.8176 12.5068 36.8176 12.7388 36.8176C13.2871 36.8176 13.8354 36.8176 14.3626 36.7546C15.3538 36.6705 16.324 36.4814 17.273 36.2082C17.5261 33.6234 17.5893 31.0386 17.505 28.4328C17.4839 28.0545 17.9268 27.8443 18.2431 28.0125C20.3099 29.1262 21.3854 31.2697 23.0726 32.8038C23.3046 33.014 23.5365 33.2031 23.7896 33.3712C24.1692 33.6234 24.359 33.6444 24.7808 33.4343C25.4768 33.077 26.1727 32.7408 26.8687 32.3835L30.8335 30.3661C29.9477 28.2226 28.9354 26.1632 27.7544 24.1668C27.3959 24.6921 27.0374 25.1965 26.6578 25.7008C26.2992 26.2052 25.4346 25.7219 25.8142 25.2175C27.5224 22.8639 29.1252 20.4262 30.5804 17.9254C31.8669 15.6978 33.0479 13.3862 34.1023 11.0326C34.25 10.6963 34.3976 10.3811 34.5452 10.0449C34.6296 9.83474 34.8194 9.45647 34.7139 9.24633C34.5241 8.82603 33.5329 8.88908 33.1744 8.84705C31.7825 8.67893 30.3906 8.55284 28.9776 8.4898C28.2817 8.44777 27.5646 8.42675 26.8687 8.42675C26.3203 8.42675 25.5611 8.30066 25.1604 8.76299C24.7175 9.26734 24.4012 9.98184 24.0638 10.5703C23.7263 11.1377 23.41 11.684 23.0726 12.2514C21.6174 14.7102 20.1622 17.1689 18.7281 19.6276C18.4118 20.153 17.6104 19.7117 17.8635 19.1653C17.99 17.316 17.9478 15.4457 17.7369 13.5964C17.5471 11.9572 17.2308 10.3601 16.7879 8.76299C16.6192 8.13255 16.4716 7.33399 15.9865 6.85065C15.4593 6.32528 14.6368 6.51441 13.983 6.66152C10.8196 7.39703 7.67729 8.23762 4.57715 9.14125C5.12547 11.5579 5.6738 13.9746 6.22212 16.4123C7.2555 20.9305 8.30997 25.4487 9.40662 29.9668C9.6597 31.1226 9.93386 32.2364 10.208 33.3712Z" fill="#F8C013"/>
<path d="M1.26589 4.83333C0.569936 6.05218 0.148148 7.35509 0.000521975 8.74206C-0.0627463 9.37251 0.907367 9.35149 0.970635 8.74206C1.09717 7.52321 1.49787 6.3674 2.10946 5.31667C2.4258 4.77028 1.58223 4.28695 1.26589 4.83333Z" fill="#572C54"/>
<path d="M86.5302 34.7163C86.1717 35.662 85.7499 36.5866 85.2649 37.4903C84.9696 38.0366 85.8132 38.541 86.1084 37.9736C86.6357 37.0069 87.0997 35.9982 87.4793 34.9685C87.6902 34.4011 86.7411 34.1489 86.5302 34.7163Z" fill="#572C54"/>
<path d="M73.1175 67.1206C71.6834 67.3938 70.2282 67.667 68.7941 67.9192C68.1825 68.0242 68.4356 68.9699 69.0472 68.8648C70.4813 68.5916 71.9365 68.3184 73.3705 68.0663C73.9821 67.9402 73.7291 67.0155 73.1175 67.1206Z" fill="#572C54"/>
<path d="M5.75809 52.3264C5.58938 51.717 4.64035 51.9902 4.80907 52.5786C5.12541 53.6924 5.46284 54.8062 5.77918 55.8989C5.9479 56.5084 6.89692 56.2352 6.72821 55.6468C6.41186 54.533 6.09552 53.4402 5.75809 52.3264Z" fill="#572C54"/>
<path d="M46.4818 0.441113C46.3131 0.230965 45.9546 0.272995 45.7859 0.441113C45.575 0.65126 45.6171 0.924451 45.7859 1.1346C46.2076 1.65997 46.6083 2.20635 46.988 2.77375C47.3254 3.29911 48.19 2.81577 47.8315 2.29041C47.4097 1.63895 46.9669 1.02952 46.4818 0.441113Z" fill="#572C54"/>
<path d="M69.1318 3.63558C68.0774 3.67761 67.0651 4.01385 66.2004 4.6653C65.6943 5.04357 66.2004 5.88416 66.6855 5.50589C67.4025 4.95951 68.2039 4.64429 69.1108 4.60226C69.7645 4.58124 69.7645 3.59355 69.1318 3.63558Z" fill="#572C54"/>
<path d="M9.17422 14.584C9.9546 14.584 10.5872 13.9537 10.5872 13.1761C10.5872 12.3984 9.9546 11.7681 9.17422 11.7681C8.39385 11.7681 7.76123 12.3984 7.76123 13.1761C7.76123 13.9537 8.39385 14.584 9.17422 14.584Z" fill="white"/>
<path d="M17.3569 21.0359C17.2936 20.8678 17.2092 20.6997 17.0616 20.5736C16.9351 20.4265 16.7874 20.3425 16.5976 20.2794C16.4289 20.1953 16.2391 20.1533 16.0493 20.1533C15.9228 20.1743 15.7962 20.1953 15.6697 20.1953C15.4377 20.2584 15.2268 20.3845 15.037 20.5526C14.9527 20.6577 14.8894 20.7417 14.805 20.8468C14.6785 21.057 14.6152 21.3091 14.6152 21.5613V21.6664C14.6152 21.8555 14.6574 22.0446 14.7418 22.2128C14.805 22.3809 14.8894 22.549 15.037 22.6751C15.1636 22.8222 15.3112 22.9062 15.501 22.9693C15.6697 23.0534 15.8595 23.0954 16.0493 23.0954C16.1759 23.0744 16.3024 23.0533 16.4289 23.0533C16.6609 22.9903 16.8718 22.8642 17.0616 22.6961C17.146 22.591 17.2092 22.507 17.2936 22.4019C17.4201 22.1917 17.4834 21.9396 17.4834 21.6874V21.5823C17.4834 21.3932 17.4412 21.2041 17.3569 21.0359Z" fill="white"/>
<path d="M13.1601 33.0562C13.9404 33.0562 14.5731 32.4258 14.5731 31.6482C14.5731 30.8706 13.9404 30.2402 13.1601 30.2402C12.3797 30.2402 11.7471 30.8706 11.7471 31.6482C11.7471 32.4258 12.3797 33.0562 13.1601 33.0562Z" fill="white"/>
<path d="M25.5744 31.3923C26.3535 31.349 26.9499 30.6845 26.9065 29.9081C26.863 29.1318 26.1962 28.5375 25.4171 28.5808C24.638 28.6241 24.0416 29.2885 24.085 30.0649C24.1285 30.8413 24.7953 31.4355 25.5744 31.3923Z" fill="white"/>
<path d="M27.8173 18.8917C28.5977 18.8917 29.2303 18.2613 29.2303 17.4837C29.2303 16.7061 28.5977 16.0757 27.8173 16.0757C27.0369 16.0757 26.4043 16.7061 26.4043 17.4837C26.4043 18.2613 27.0369 18.8917 27.8173 18.8917Z" fill="white"/>
<path d="M26.4887 13.2603C27.269 13.2603 27.9017 12.6299 27.9017 11.8523C27.9017 11.0747 27.269 10.4443 26.4887 10.4443C25.7083 10.4443 25.0757 11.0747 25.0757 11.8523C25.0757 12.6299 25.7083 13.2603 26.4887 13.2603Z" fill="white"/>
<path d="M52.4499 11.4739C52.4288 11.4108 52.3866 11.3688 52.3444 11.3268C52.3023 11.3058 52.2812 11.2848 52.239 11.2427C52.1546 11.2007 52.0703 11.1797 51.9859 11.1797C51.9437 11.1797 51.9016 11.2007 51.8594 11.2007C51.775 11.2217 51.7118 11.2637 51.6485 11.3268C51.6274 11.3478 51.6063 11.3688 51.5641 11.4108C51.522 11.4529 51.4798 11.5159 51.4587 11.558C51.4376 11.621 51.4165 11.684 51.4165 11.7471C51.4165 11.8101 51.4376 11.8732 51.4587 11.9362C51.4798 11.9993 51.522 12.0413 51.5641 12.0833C51.6063 12.1043 51.6274 12.1253 51.6696 12.1674C51.7539 12.2094 51.8383 12.2304 51.9226 12.2304C51.9648 12.2304 52.007 12.2094 52.0492 12.2094C52.1335 12.1884 52.1968 12.1464 52.2601 12.0833L52.3444 11.9993C52.3866 11.9572 52.4288 11.8942 52.4499 11.8522C52.471 11.7891 52.4921 11.7261 52.4921 11.663C52.4921 11.6 52.471 11.5369 52.4499 11.4739Z" fill="white"/>
<path d="M49.8559 14.0586C49.2232 14.0586 49.2232 15.0253 49.8559 15.0253C50.4885 15.0253 50.4885 14.0586 49.8559 14.0586Z" fill="white"/>
<path d="M49.413 18.4087C48.7803 18.4087 48.7803 19.3754 49.413 19.3754C50.0457 19.3754 50.0457 18.4087 49.413 18.4087Z" fill="white"/>
<path d="M55.7819 14.8567C55.7608 14.7937 55.7186 14.7516 55.6765 14.7096C55.6343 14.6886 55.6132 14.6676 55.571 14.6255C55.4867 14.5835 55.4023 14.5625 55.3179 14.5625C55.2758 14.5625 55.2336 14.5835 55.1914 14.5835C55.1071 14.6045 55.0438 14.6466 54.9805 14.7096L54.8962 14.7937C54.854 14.8357 54.8118 14.8987 54.7907 14.9408C54.7696 15.0038 54.7485 15.0669 54.7485 15.1299C54.7485 15.1929 54.7696 15.256 54.7907 15.319C54.8118 15.3821 54.854 15.4241 54.8962 15.4661C54.9383 15.4871 54.9594 15.5082 55.0016 15.5502C55.086 15.5922 55.1703 15.6132 55.2547 15.6132C55.2969 15.6132 55.339 15.5922 55.3812 15.5922C55.4656 15.5712 55.5288 15.5292 55.5921 15.4661C55.6132 15.4451 55.6343 15.4241 55.6765 15.3821C55.7186 15.34 55.7608 15.277 55.7819 15.235C55.803 15.1719 55.8241 15.1089 55.8241 15.0458C55.8241 14.9828 55.803 14.9197 55.7819 14.8567Z" fill="white"/>
<path d="M59.9999 14.647C59.3672 14.647 59.3672 15.6137 59.9999 15.6137C60.6326 15.6137 60.6326 14.647 59.9999 14.647Z" fill="white"/>
<path d="M59.6628 12.3139C59.6628 12.2508 59.6417 12.1878 59.5995 12.1247C59.5362 12.0197 59.4308 11.9356 59.3042 11.8936C59.2621 11.8936 59.2199 11.8726 59.1777 11.8726C59.0933 11.8726 59.009 11.8936 58.9246 11.9356C58.8824 11.9566 58.8192 11.9776 58.777 12.0197C58.7137 12.0407 58.6716 12.0827 58.6505 12.1457C58.6083 12.1878 58.5872 12.2508 58.5661 12.3139C58.545 12.3769 58.545 12.44 58.5661 12.503C58.5661 12.566 58.5872 12.6291 58.6294 12.6921C58.6926 12.7972 58.7981 12.8813 58.9246 12.9233C58.9668 12.9233 59.009 12.9443 59.0512 12.9443C59.1355 12.9443 59.2199 12.9233 59.3042 12.8813C59.3464 12.8602 59.4097 12.8392 59.4519 12.7972C59.5151 12.7762 59.5573 12.7342 59.5784 12.6711C59.6206 12.6291 59.6417 12.566 59.6628 12.503C59.6628 12.461 59.6628 12.3979 59.6628 12.3139Z" fill="white"/>
<path d="M61.0331 18.1772C60.4004 18.1772 60.4004 19.1439 61.0331 19.1439C61.6658 19.1439 61.6658 18.1772 61.0331 18.1772Z" fill="white"/>
<path d="M63.0365 16.6221C62.4038 16.6221 62.4038 17.5887 63.0365 17.5887C63.6692 17.6098 63.6692 16.6221 63.0365 16.6221Z" fill="white"/>
<path d="M64.07 21.4348C64.0489 21.3718 64.0067 21.3298 63.9646 21.2877C63.9224 21.2667 63.9013 21.2457 63.8591 21.2037C63.7747 21.1616 63.6904 21.1406 63.606 21.1406C63.5639 21.1406 63.5217 21.1616 63.4795 21.1616C63.3951 21.1827 63.3319 21.2247 63.2686 21.2877L63.1842 21.3718C63.1421 21.4138 63.0999 21.4769 63.0788 21.5189C63.0577 21.5819 63.0366 21.645 63.0366 21.708C63.0366 21.7711 63.0577 21.8341 63.0788 21.8972C63.0999 21.9602 63.1421 22.0022 63.1842 22.0443C63.2264 22.0653 63.2475 22.0863 63.2897 22.1283C63.3741 22.1703 63.4584 22.1914 63.5428 22.1914C63.5849 22.1914 63.6271 22.1703 63.6693 22.1703C63.7537 22.1493 63.8169 22.1073 63.8802 22.0443C63.9013 22.0232 63.9224 22.0022 63.9646 21.9602C64.0067 21.9182 64.0489 21.8551 64.07 21.8131C64.0911 21.7501 64.1122 21.687 64.1122 21.624C64.1122 21.5609 64.0911 21.4979 64.07 21.4348Z" fill="white"/>
<path d="M62.2353 23.5572C62.1931 23.4311 62.1298 23.326 62.0033 23.263C61.9611 23.2419 61.8979 23.2209 61.8557 23.1789C61.7924 23.1369 61.7291 23.1159 61.6659 23.1159C61.6026 23.0948 61.5393 23.0948 61.4761 23.1159C61.4128 23.1369 61.3495 23.1579 61.3074 23.1999C61.2441 23.2419 61.2019 23.284 61.1808 23.326C61.1176 23.4311 61.0965 23.5782 61.1386 23.7043C61.1808 23.8304 61.2441 23.9354 61.3706 23.9985C61.4128 24.0195 61.4761 24.0405 61.5183 24.0825C61.5815 24.1246 61.6448 24.1456 61.7081 24.1456C61.7713 24.1666 61.8346 24.1666 61.8979 24.1456C61.9611 24.1246 62.0244 24.1035 62.0666 24.0615C62.1298 24.0195 62.172 23.9775 62.1931 23.9354C62.2564 23.8304 62.2775 23.6833 62.2353 23.5572Z" fill="white"/>
<path d="M62.6571 25.7007C62.0244 25.7007 62.0244 26.6674 62.6571 26.6674C63.2898 26.6884 63.2898 25.7007 62.6571 25.7007Z" fill="white"/>
<path d="M59.2406 25.2594C59.1352 25.1753 59.0297 25.1123 58.9032 25.1123H58.7556C58.629 25.1123 58.5025 25.1753 58.4181 25.2594C58.376 25.3014 58.3338 25.3645 58.3127 25.4065C58.2916 25.4696 58.2705 25.5326 58.2705 25.5956C58.2705 25.7217 58.3127 25.8478 58.4181 25.9319C58.5236 26.0159 58.629 26.079 58.7556 26.079H58.9032C59.0297 26.079 59.1563 26.0159 59.2406 25.9319C59.2828 25.8898 59.325 25.8268 59.3461 25.7848C59.3672 25.7217 59.3883 25.6587 59.3883 25.5956C59.3672 25.4696 59.325 25.3435 59.2406 25.2594Z" fill="white"/>
<path d="M59.3251 29.1685C58.6924 29.1685 58.6924 30.1351 59.3251 30.1351C59.9578 30.1561 59.9578 29.1685 59.3251 29.1685Z" fill="white"/>
<path d="M55.3388 31.1646C54.7061 31.1646 54.7061 32.1312 55.3388 32.1312C55.9504 32.1312 55.9504 31.1646 55.3388 31.1646Z" fill="white"/>
<path d="M52.4921 31.3746C52.3866 31.2906 52.2812 31.2275 52.1547 31.2275H52.007C51.8805 31.2275 51.754 31.2906 51.6696 31.3746C51.6274 31.4167 51.5852 31.4797 51.5642 31.5217C51.5431 31.5848 51.522 31.6478 51.522 31.7109C51.522 31.837 51.5642 31.9631 51.6696 32.0471C51.775 32.1312 51.8805 32.1942 52.007 32.1942H52.1547C52.2812 32.1942 52.4077 32.1312 52.4921 32.0471C52.5343 32.0051 52.5764 31.942 52.5975 31.9C52.6186 31.837 52.6397 31.7739 52.6397 31.7109C52.6397 31.6058 52.5975 31.4797 52.4921 31.3746Z" fill="white"/>
<path d="M51.6486 29.1684C51.6275 29.0843 51.5853 29.0213 51.5221 28.9582L51.4377 28.8742C51.3955 28.8321 51.3323 28.7901 51.2901 28.7691C51.2268 28.7481 51.1636 28.7271 51.1003 28.7271C51.037 28.7271 50.9738 28.7481 50.9105 28.7691C50.8472 28.7901 50.805 28.8321 50.7629 28.8742C50.7418 28.9162 50.7207 28.9372 50.6785 28.9792C50.6363 29.0633 50.6152 29.1473 50.6152 29.2314C50.6152 29.2734 50.6363 29.3155 50.6363 29.3575C50.6574 29.4416 50.6996 29.5046 50.7629 29.5676C50.7839 29.5887 50.805 29.6097 50.8472 29.6517C50.8894 29.6937 50.9527 29.7358 50.9948 29.7568C51.0581 29.7778 51.1214 29.7988 51.1846 29.7988C51.2479 29.7988 51.3112 29.7778 51.3745 29.7568C51.4377 29.7358 51.4799 29.6937 51.5221 29.6517C51.5432 29.6097 51.5643 29.5887 51.6064 29.5466C51.6486 29.4626 51.6697 29.3785 51.6697 29.2944C51.6697 29.2524 51.6697 29.2104 51.6486 29.1684Z" fill="white"/>
<path d="M55.1068 27.6968C54.4742 27.6968 54.4742 28.6635 55.1068 28.6635C55.7395 28.6635 55.7395 27.6968 55.1068 27.6968Z" fill="white"/>
<path d="M57.1737 29.0205C56.541 29.0205 56.541 29.9872 57.1737 29.9872C57.8064 30.0082 57.8064 29.0205 57.1737 29.0205Z" fill="white"/>
<path d="M55.0437 25.638C55.0226 25.5749 54.9804 25.5329 54.9382 25.4909C54.896 25.4488 54.8328 25.4068 54.7906 25.3858C54.7273 25.3648 54.664 25.3438 54.6008 25.3438C54.5586 25.3438 54.5164 25.3648 54.4742 25.3648C54.3899 25.3858 54.3266 25.4278 54.2633 25.4909C54.2423 25.5329 54.2212 25.5539 54.179 25.5959C54.1368 25.68 54.1157 25.764 54.1157 25.8481V25.9322C54.1157 25.9952 54.1368 26.0583 54.1579 26.1213C54.179 26.1843 54.2212 26.2264 54.2633 26.2684C54.3055 26.3104 54.3688 26.3525 54.411 26.3735C54.4742 26.3945 54.5375 26.4155 54.6008 26.4155C54.643 26.4155 54.6851 26.3945 54.7273 26.3945C54.8117 26.3735 54.8749 26.3314 54.9382 26.2684C54.9593 26.2264 54.9804 26.2054 55.0226 26.1633C55.0647 26.0793 55.0858 25.9952 55.0858 25.9111V25.8271C55.0858 25.764 55.0647 25.701 55.0437 25.638Z" fill="white"/>
<path d="M51.2689 24.9023C50.6363 24.9023 50.6363 25.869 51.2689 25.869C51.8805 25.869 51.8805 24.9023 51.2689 24.9023Z" fill="white"/>
<path d="M52.4081 22.0861C52.387 22.0231 52.3659 21.96 52.3237 21.918C52.2815 21.855 52.2394 21.8129 52.1972 21.7919C52.0917 21.7289 51.9441 21.7079 51.8176 21.7499C51.691 21.7919 51.5856 21.855 51.5223 21.9811C51.5012 22.0231 51.4801 22.0861 51.438 22.1282C51.3958 22.1912 51.3747 22.2542 51.3747 22.3173C51.3536 22.3803 51.3536 22.4434 51.3747 22.5064C51.3958 22.5695 51.4169 22.6325 51.4591 22.6745C51.5012 22.7376 51.5434 22.7796 51.5856 22.8006C51.691 22.8637 51.8387 22.8847 51.9652 22.8427C52.0917 22.8006 52.1972 22.7376 52.2605 22.6115C52.2815 22.5695 52.3026 22.5064 52.3448 22.4644C52.387 22.4014 52.4081 22.3383 52.4081 22.2753C52.4292 22.2122 52.4292 22.1492 52.4081 22.0861Z" fill="white"/>
<path d="M47.8945 15.9502C47.8945 15.8661 47.8734 15.782 47.8313 15.698C47.8102 15.6559 47.7891 15.6349 47.7469 15.5929C47.6836 15.5299 47.6204 15.4878 47.536 15.4668C47.5149 15.4668 47.4306 15.4458 47.4095 15.4458L47.2829 15.4668C47.2829 15.4668 47.1775 15.5088 47.1564 15.5088C47.1353 15.5299 47.1142 15.5509 47.1142 15.5509C47.0931 15.5719 47.072 15.5719 47.0509 15.5929L46.9666 15.698C46.9666 15.698 46.9244 15.8031 46.9244 15.8241C46.9244 15.8451 46.9033 15.9291 46.9033 15.9502L46.9244 16.0762C46.9244 16.0973 46.9455 16.1183 46.9455 16.1393C46.9455 16.1603 46.9666 16.1813 46.9666 16.2023C46.9666 16.2023 47.0299 16.3074 47.0509 16.3074L47.1564 16.3915C47.1564 16.3915 47.2618 16.4335 47.2829 16.4335L47.4095 16.4545C47.4306 16.4545 47.536 16.4335 47.536 16.4335C47.5993 16.4125 47.6625 16.3915 47.7047 16.3494C47.768 16.3074 47.8102 16.2654 47.8313 16.2233C47.8734 16.1603 47.8945 16.0973 47.8945 16.0342C47.8945 16.0342 47.8945 15.9922 47.8945 15.9502Z" fill="white"/>
<path d="M52.6608 17.1477C52.6398 17.0847 52.5976 17.0426 52.5554 17.0006C52.5132 16.9586 52.4499 16.9166 52.4078 16.8955C52.3445 16.8745 52.2812 16.8535 52.218 16.8535C52.1758 16.8535 52.1336 16.8745 52.0914 16.8745C52.0071 16.8955 51.9438 16.9376 51.8805 17.0006C51.8594 17.0426 51.8384 17.0637 51.7962 17.1057C51.754 17.1898 51.7329 17.2738 51.7329 17.3579V17.4419C51.7329 17.505 51.754 17.568 51.7751 17.6311C51.7962 17.6941 51.8384 17.7361 51.8805 17.7782C51.9227 17.8202 51.986 17.8622 52.0282 17.8832C52.0914 17.9043 52.1547 17.9253 52.218 17.9253C52.2601 17.9253 52.3023 17.9043 52.3445 17.9043C52.4289 17.8832 52.4921 17.8412 52.5554 17.7782C52.5765 17.7361 52.5976 17.7151 52.6398 17.6731C52.6819 17.589 52.703 17.505 52.703 17.4209V17.3369C52.703 17.2738 52.703 17.2108 52.6608 17.1477Z" fill="white"/>
<path d="M55.2546 11.6209C55.2335 11.5578 55.1913 11.5158 55.1491 11.4738C55.1069 11.4527 55.0859 11.4317 55.0437 11.3897C54.9593 11.3477 54.875 11.3267 54.7906 11.3267C54.7484 11.3267 54.7062 11.3477 54.6641 11.3477C54.5797 11.3687 54.5164 11.4107 54.4532 11.4738L54.3688 11.5578C54.3266 11.5999 54.2845 11.6629 54.2634 11.7049C54.2423 11.768 54.2212 11.831 54.2212 11.8941C54.2212 11.9571 54.2423 12.0201 54.2634 12.0832C54.2845 12.1462 54.3266 12.1883 54.3688 12.2303C54.411 12.2513 54.4321 12.2723 54.4743 12.3144C54.5586 12.3564 54.643 12.3774 54.7273 12.3774C54.7695 12.3774 54.8117 12.3564 54.8539 12.3564C54.9382 12.3354 55.0015 12.2933 55.0648 12.2303C55.0859 12.2093 55.1069 12.1883 55.1491 12.1462C55.1913 12.1042 55.2335 12.0412 55.2546 11.9991C55.2757 11.9361 55.2968 11.873 55.2968 11.81C55.2968 11.747 55.2968 11.6839 55.2546 11.6209Z" fill="white"/>
<path d="M58.2497 16.8324C58.2497 16.7694 58.2286 16.7063 58.1864 16.6433C58.1231 16.5382 58.0177 16.4542 57.8912 16.4121C57.849 16.4121 57.8068 16.3911 57.7646 16.3911C57.6803 16.3911 57.5959 16.4121 57.5115 16.4542C57.4694 16.4752 57.4061 16.4962 57.3639 16.5382C57.3007 16.5592 57.2585 16.6013 57.2374 16.6643C57.1952 16.7063 57.1741 16.7694 57.153 16.8324C57.1319 16.8955 57.1319 16.9585 57.153 17.0216C57.153 17.0846 57.1741 17.1476 57.2163 17.2107C57.2796 17.3158 57.385 17.3998 57.5115 17.4418C57.5537 17.4418 57.5959 17.4629 57.6381 17.4629C57.7224 17.4629 57.8068 17.4418 57.8912 17.3998C57.9333 17.3788 57.9966 17.3578 58.0388 17.3158C58.1021 17.2947 58.1442 17.2527 58.1653 17.1897C58.2075 17.1476 58.2286 17.0846 58.2497 17.0216C58.2708 16.9585 58.2708 16.8955 58.2497 16.8324Z" fill="white"/>
<path d="M57.8488 13.8274C57.8277 13.7644 57.7855 13.7223 57.7434 13.6803C57.7012 13.6593 57.6801 13.6383 57.6379 13.5962C57.5536 13.5542 57.4692 13.5332 57.3848 13.5332C57.3427 13.5332 57.3005 13.5542 57.2583 13.5542C57.174 13.5752 57.1107 13.6173 57.0474 13.6803C57.0263 13.7013 57.0052 13.7223 56.9631 13.7644C56.9209 13.8064 56.8787 13.8694 56.8576 13.9115C56.8365 13.9745 56.8154 14.0376 56.8154 14.1006C56.8154 14.1636 56.8365 14.2267 56.8576 14.2897C56.8787 14.3528 56.9209 14.3948 56.9631 14.4368C57.0052 14.4578 57.0263 14.4789 57.0685 14.5209C57.1529 14.5629 57.2372 14.5839 57.3216 14.5839C57.3638 14.5839 57.4059 14.5629 57.4481 14.5629C57.5325 14.5419 57.5957 14.4999 57.659 14.4368L57.7434 14.3528C57.7855 14.3107 57.8277 14.2477 57.8488 14.2057C57.8699 14.1426 57.891 14.0796 57.891 14.0165C57.891 13.9535 57.891 13.8905 57.8488 13.8274Z" fill="white"/>
<path d="M62.0668 13.9116C61.4341 13.9116 61.4341 14.8783 62.0668 14.8783C62.6995 14.8783 62.6995 13.9116 62.0668 13.9116Z" fill="white"/>
<path d="M50.0246 22.0858C50.0035 22.0018 49.9613 21.9387 49.8981 21.8757C49.877 21.8547 49.8559 21.8337 49.8137 21.7916C49.7715 21.7496 49.7083 21.7076 49.6661 21.6866C49.6028 21.6655 49.5395 21.6445 49.4763 21.6445C49.413 21.6445 49.3497 21.6655 49.2865 21.6866C49.2232 21.7076 49.181 21.7496 49.1388 21.7916C49.1177 21.8337 49.0967 21.8547 49.0545 21.8967C49.0123 21.9808 48.9912 22.0648 48.9912 22.1489C48.9912 22.1909 49.0123 22.2329 49.0123 22.275C49.0334 22.359 49.0756 22.4221 49.1388 22.4851L49.2232 22.5692C49.2654 22.6112 49.3286 22.6532 49.3708 22.6743C49.4341 22.6953 49.4974 22.7163 49.5606 22.7163C49.6239 22.7163 49.6872 22.6953 49.7504 22.6743C49.8137 22.6532 49.8559 22.6112 49.8981 22.5692C49.9191 22.5271 49.9402 22.5061 49.9824 22.4641C50.0246 22.38 50.0457 22.296 50.0457 22.2119C50.0457 22.1699 50.0246 22.1279 50.0246 22.0858Z" fill="white"/>
<path d="M62.0666 28.8743C62.0455 28.8112 62.0033 28.7692 61.9612 28.7272C61.919 28.6852 61.8557 28.6431 61.8135 28.6221C61.7503 28.6011 61.687 28.5801 61.6237 28.5801C61.5816 28.5801 61.5394 28.6011 61.4972 28.6011C61.4128 28.6221 61.3496 28.6641 61.2863 28.7272C61.2652 28.7692 61.2441 28.7902 61.2019 28.8323C61.1598 28.9163 61.1387 29.0004 61.1387 29.0844V29.1685C61.1387 29.2315 61.1598 29.2946 61.1809 29.3576C61.2019 29.4207 61.2441 29.4627 61.2863 29.5047C61.3285 29.5468 61.3917 29.5888 61.4339 29.6098C61.4972 29.6308 61.5605 29.6518 61.6237 29.6518C61.6659 29.6518 61.7081 29.6308 61.7503 29.6308C61.8346 29.6098 61.8979 29.5678 61.9612 29.5047C61.9822 29.4627 62.0033 29.4417 62.0455 29.3997C62.0877 29.3156 62.1088 29.2315 62.1088 29.1475V29.0634C62.1088 29.0004 62.1088 28.9373 62.0666 28.8743Z" fill="white"/>
<path d="M58.7346 31.7532C58.7135 31.6901 58.6713 31.6481 58.6291 31.6061C58.5869 31.5641 58.5237 31.522 58.4815 31.501C58.4182 31.48 58.355 31.459 58.2917 31.459C58.2495 31.459 58.2073 31.48 58.1652 31.48C58.0808 31.501 58.0175 31.543 57.9543 31.6061C57.9332 31.6481 57.9121 31.6691 57.8699 31.7112C57.8277 31.7952 57.8066 31.8793 57.8066 31.9633V32.0474C57.8066 32.1104 57.8277 32.1735 57.8488 32.2365C57.8699 32.2996 57.9121 32.3416 57.9543 32.3836C57.9964 32.4257 58.0597 32.4677 58.1019 32.4887C58.1652 32.5097 58.2284 32.5307 58.2917 32.5307C58.3339 32.5307 58.3761 32.5097 58.4182 32.5097C58.5026 32.4887 58.5659 32.4467 58.6291 32.3836C58.6502 32.3416 58.6713 32.3206 58.7135 32.2786C58.7557 32.1945 58.7768 32.1104 58.7768 32.0264V31.9423C58.7768 31.8793 58.7768 31.8162 58.7346 31.7532Z" fill="white"/>
<path d="M58.3759 27.2559C57.7432 27.2559 57.7432 28.2225 58.3759 28.2225C58.9875 28.2225 58.9875 27.2559 58.3759 27.2559Z" fill="white"/>
<path d="M42.8753 4.30798C42.58 4.64422 42.2426 4.93842 41.7997 5.14857C41.1459 5.44278 40.45 5.54785 39.754 5.54785C39.1003 5.54785 38.1723 5.61089 37.5818 5.27466C37.0968 5.00147 36.7382 4.45508 36.4219 3.97175C36.2743 3.82464 36.1477 3.67754 36.0845 3.50942C36.5906 3.21522 37.1389 2.96304 37.7294 2.79492C38.3832 3.29927 39.0159 3.71957 39.9227 3.80363C40.682 3.88769 41.4412 3.74058 42.095 3.40435C42.4113 3.65653 42.6644 3.95073 42.8753 4.30798Z" fill="#F75A1B"/>
<path d="M44.352 13.0498C44.3309 13.0288 44.352 13.0288 44.352 13.0498C44.2043 12.8607 43.9513 12.7766 43.7404 12.9027C43.656 12.9448 43.5927 12.9868 43.5506 13.0708C42.243 14.4158 40.8933 15.7817 39.4381 16.9586C38.236 17.9252 36.8019 18.4296 35.3257 18.8289C35.389 19.2282 35.4522 19.6274 35.4944 20.0267C37.6033 19.9847 39.6701 19.3963 41.6103 18.5977C42.0954 18.4086 42.707 18.2194 43.2131 17.9252C43.2553 17.9252 43.2764 17.9252 43.3186 17.9252C43.6349 17.9042 43.9934 17.9883 44.2465 17.7361C44.3309 17.6521 44.3941 17.547 44.4152 17.4209C44.4152 15.9288 44.3941 14.4788 44.352 13.0498Z" fill="#F75A1B"/>
<path d="M40.0283 23.095C38.9738 22.99 37.9826 23.1581 36.9492 23.2842C36.6329 23.3262 36.2954 23.3052 35.958 23.3052C36.0213 23.8726 36.1056 24.419 36.1689 24.9864C37.0336 24.9654 37.9193 25.1755 38.784 25.3857C39.9861 25.6799 41.2093 25.9951 42.3903 26.4364C42.8964 26.6255 43.4026 26.8567 43.8033 27.2139C44.0563 27.4451 44.2251 27.7603 44.4992 27.9494C44.4992 26.7936 44.5203 25.6378 44.5203 24.461C43.0862 23.7885 41.5889 23.2632 40.0283 23.095Z" fill="#F75A1B"/>
<path d="M35.0933 17.2319C34.9456 16.3283 34.8191 15.4457 34.6504 14.542C34.9878 14.2268 35.3674 13.9326 35.7681 13.6594C36.443 13.2181 37.6662 12.3985 38.4676 13.0079C40.0915 14.2268 36.5695 16.4544 35.0933 17.2319Z" fill="#F75A1B"/>
<path d="M41.2091 30.8284C40.5342 30.8494 39.8383 30.8494 39.1634 30.8494C38.9525 30.6603 38.7627 30.4501 38.5097 30.303C38.3409 30.219 38.1722 30.1559 37.9824 30.0929C37.7504 30.0508 37.4974 30.0298 37.2654 29.9458C37.2021 29.9248 37.1388 29.9037 37.0756 29.8827C36.949 29.8617 36.8225 29.8407 36.696 29.8407L36.5483 28.3276C36.6116 28.3276 36.6538 28.3276 36.7171 28.3486C37.877 28.3066 39.0158 28.7059 39.9226 29.3994C39.9859 29.4204 40.0492 29.4624 40.1124 29.5255C40.1757 29.5885 40.2179 29.6305 40.2812 29.6936C40.6397 30.0088 40.956 30.3871 41.2091 30.8284Z" fill="#F75A1B"/>
<path d="M42.854 8.93129C42.5588 9.45666 42.137 9.89797 41.6308 10.2342C41.1669 10.1712 40.724 10.0661 40.3022 9.89797C39.6906 9.66681 38.4674 9.26753 38.5307 8.44796C38.615 7.41823 39.8382 7.83853 40.3866 8.15375C40.492 8.21679 40.5974 8.30085 40.7029 8.3639C41.3988 8.55303 42.1159 8.74216 42.854 8.93129Z" fill="#F75A1B"/>
<path d="M77.0188 16.1393C75.88 15.8241 74.699 16.2234 73.75 16.9799C73.6445 17.064 73.518 17.1691 73.4125 17.2741C73.2227 16.7488 73.3282 16.1814 73.1595 15.656C72.9064 14.8574 71.9996 14.3951 71.5567 13.7016C70.9662 12.735 71.388 11.8103 71.4512 10.7806C71.5567 9.37261 70.0382 9.09941 68.9416 8.99434C68.9205 8.99434 68.8994 8.99434 68.8994 8.99434C69.3845 8.70014 69.8906 8.46897 70.4178 8.27984C70.5233 8.30086 70.6077 8.34289 70.7131 8.3639C70.7131 8.30086 70.7342 8.2168 70.7764 8.15375C72.4424 7.62838 74.1507 7.73346 75.8589 8.06969C75.9433 8.09071 76.0276 8.11172 76.112 8.11172C76.1753 8.3639 76.1963 8.59506 76.1963 8.84724C76.4916 9.85594 76.0487 10.8857 75.6269 11.8103C75.8378 12.4408 76.1753 13.0292 76.3018 13.7227C76.344 13.9958 76.3862 14.248 76.4072 14.5002C76.4283 14.5422 76.4705 14.5843 76.4916 14.6263C76.8079 15.1306 76.9556 15.635 77.0188 16.1393Z" fill="#41ACE6"/>
<path d="M72.6531 20.4894C72.4422 20.4054 72.2524 20.2793 72.0626 20.1112C71.6197 19.6909 71.1557 19.838 70.5863 19.817C69.7006 19.7959 68.8359 19.3967 68.2032 18.7872C67.8869 18.472 67.6338 18.0938 67.4651 17.6735C67.2753 17.1901 67.212 16.6437 66.9589 16.1814C66.5793 15.4879 65.9677 15.0046 65.2507 14.7314C65.1242 14.5002 64.9976 14.2481 64.8711 14.0169C64.9133 13.8908 64.9555 13.7647 64.9976 13.6386C64.9976 13.6386 64.9976 13.6386 65.0187 13.6386C65.3772 12.6509 65.9256 11.7263 66.6215 10.9277C67.5073 11.0118 68.4774 11.1799 69.1522 11.7053C69.8482 12.2306 69.9747 13.1133 70.0169 13.9328C70.0591 14.9415 70.1224 16.1604 71.3245 16.4126C71.683 16.4756 71.9571 16.6017 72.1891 16.8119C72.2102 16.8119 72.2102 16.8119 72.2313 16.8119C72.6742 16.7908 73.0749 17.022 73.349 17.3582C72.9272 17.7785 72.5476 18.2829 72.4211 18.8503C72.2735 19.4387 72.3789 19.9851 72.6531 20.4894Z" fill="#41ACE6"/>
<path d="M82.6924 15.1728C82.5026 14.3322 81.8066 13.9539 81.427 13.2184C81.1528 12.6931 81.5114 12.3778 81.7012 11.9155C81.8488 11.5793 81.9332 11.222 81.9542 10.8438V10.8228C81.5114 10.2554 80.9209 9.79304 80.246 9.43578C79.5922 9.07853 78.8963 8.82636 78.1792 8.61621C78.2425 8.91042 78.2425 9.22564 78.1371 9.56187C77.7785 10.7177 76.7241 11.6633 77.1037 13.0083C77.4833 14.2902 78.9174 14.7525 79.529 15.8873C79.8875 16.5388 79.8242 17.2322 79.6977 17.9257C80.2671 18.2199 80.8576 18.304 81.5535 17.7786C81.6379 17.7156 81.7223 17.6315 81.8066 17.5685C81.8066 17.5475 81.8277 17.5264 81.8277 17.5054C81.8277 17.5264 81.8277 17.5264 81.8277 17.5475C82.3339 17.0221 82.5658 16.2656 82.6924 15.5511C82.7135 15.488 82.7135 15.425 82.7345 15.3409C82.7345 15.2989 82.7135 15.2358 82.6924 15.1728Z" fill="#41ACE6"/>
<path d="M78.0947 23.3686C78.0103 23.4526 77.8838 23.5157 77.7151 23.4947C77.1878 23.4316 76.6184 23.3686 76.1123 23.4316C75.9646 23.5577 75.7748 23.6628 75.5639 23.7048C75.4374 23.7258 75.3109 23.7678 75.1843 23.7889C75.1 23.8519 75.0156 23.9149 74.9313 23.999C74.2353 24.7135 73.4339 24.9867 72.4216 25.0918C71.3671 25.1968 70.2916 25.0708 69.3004 24.7135C68.8364 24.5454 68.3935 24.3563 67.9717 24.1041C67.6976 23.978 67.4445 23.8519 67.2125 23.7048C67.0016 23.6418 66.7907 23.6418 66.622 23.8099C66.5798 23.8729 66.5166 23.8939 66.4744 23.9149C66.4533 23.9149 66.4322 23.8939 66.4111 23.8939C66.5798 22.8432 66.6431 21.7714 66.6431 20.7417C66.6431 20.1743 66.6009 19.6069 66.5377 19.0605C67.0438 19.2287 67.4023 19.5859 67.7398 19.9642C67.9718 20.0272 68.2037 20.1743 68.3514 20.3214C68.4779 20.4265 68.5623 20.5736 68.6255 20.7207C68.8786 20.8468 69.0895 21.0569 69.216 21.2671C69.3426 21.2881 69.448 21.3091 69.5956 21.3301C70.4392 21.3512 71.2617 21.0149 72.1264 21.0359C72.5482 21.0569 72.9067 21.162 73.3074 21.2881C73.3285 21.2881 73.3285 21.2881 73.3495 21.3091C74.3197 22.1917 75.7116 22.591 76.9347 22.9693C77.3144 23.1164 77.7151 23.2425 78.0947 23.3686Z" fill="#41ACE6"/>
<path d="M82.3338 29.126C82.3128 29.3362 82.2917 29.5253 82.2495 29.7144C81.9121 29.4412 81.4903 29.2731 81.0474 29.2731C80.5202 29.2731 80.0984 29.4623 79.5711 29.3362C79.1704 29.2521 78.7908 29.147 78.3901 29.105C78.116 29.147 77.8629 29.168 77.5887 29.2101C77.42 29.2311 77.2724 29.2101 77.1248 29.147C76.8928 29.1891 76.6608 29.2311 76.4499 29.3151C75.4376 29.6304 74.6995 30.513 73.645 30.6811C72.9069 30.8072 72.1898 30.6601 71.4939 30.4079C71.9368 29.7565 72.0844 28.9369 71.8946 28.1383C71.768 27.655 71.5361 27.2137 71.2197 26.8354C71.8313 26.7514 72.4851 26.8564 73.1389 27.0035C73.4341 27.0666 73.8348 27.1506 74.109 26.9405C74.2988 26.7724 74.3199 26.4571 74.4675 26.247C74.7206 25.8477 75.2056 25.6166 75.6485 25.5325C75.8172 25.4905 76.007 25.4695 76.1757 25.4484C77.1248 25.0281 78.0105 25.2383 79.0017 25.3644C79.2126 25.3854 79.4235 25.4274 79.6344 25.4274C79.7609 25.3854 79.8875 25.3224 80.014 25.2383C80.1195 25.0492 80.2882 24.9021 80.4991 24.776C80.5834 24.7339 80.6678 24.6919 80.7521 24.6709C80.8998 24.797 81.0474 24.9231 81.1739 25.0702C82.123 26.1419 82.4815 27.697 82.3338 29.126Z" fill="#41ACE6"/>
<path d="M69.0894 36.9022C68.5833 36.8812 68.0771 36.8602 67.5499 36.8182C66.7063 36.7341 65.9682 36.4819 65.4199 35.8095C64.4708 34.6747 64.5763 33.0355 65.7151 32.0688C66.0104 31.8167 66.3689 31.6275 66.7485 31.5225C66.7274 31.5645 66.7274 31.6065 66.7063 31.6275C66.39 32.1739 67.0648 32.5312 67.339 32.9304C67.6343 33.3718 67.6132 33.8131 67.7397 34.2964C67.8873 34.8218 68.3935 35.2421 68.6465 35.7254C68.8364 36.1037 68.984 36.4819 69.0894 36.9022Z" fill="#41ACE6"/>
<path d="M80.8783 32.5517C79.6551 34.1068 77.8414 35.2626 76.0699 35.9561C75.5638 36.1662 75.0576 36.3133 74.5304 36.4604C74.1508 36.2292 73.7079 36.0611 73.4126 35.914C72.6745 35.5147 71.9575 35.1365 71.2194 34.7372C70.0383 34.0857 68.3301 33.1821 68.0348 31.7321C68.0138 31.648 68.0138 31.564 68.0559 31.4799C68.7308 31.585 69.3424 31.7951 70.0173 31.543C70.3758 31.4169 70.6921 31.2277 70.9663 30.9966C71.367 31.3328 71.7044 31.585 72.2106 31.8582C72.4004 31.9002 72.5902 31.9212 72.78 31.9212C73.3283 31.9422 73.8555 31.7951 74.3828 31.7951C74.91 31.7741 75.3529 31.9212 75.8379 32.1314C76.4495 32.4046 76.9135 32.2575 77.5251 32.1104C78.0734 31.9843 78.6217 31.9633 79.1911 32.0053C79.8238 32.0683 80.4565 32.1944 80.8783 32.5517Z" fill="#41ACE6"/>
<path d="M81.8277 30.9758C81.7012 31.27 81.5324 31.5642 81.3637 31.8374C81.3216 31.8164 81.2583 31.7954 81.2161 31.7744C80.8998 31.6273 80.6256 31.3751 80.2671 31.3541C79.4657 31.3331 78.6854 31.291 77.884 31.1229C77.2724 30.9968 77.5255 30.0722 78.1371 30.1772C78.9385 30.3244 79.7399 30.3033 80.5623 30.3664C80.8998 30.4084 81.1318 30.5975 81.427 30.7657C81.5746 30.8707 81.7012 30.9338 81.8277 30.9758Z" fill="#41ACE6"/>
<path d="M24.5066 38.709C20.3098 40.9366 18.3274 45.3917 16.7246 49.6366C15.7756 49.8888 14.8266 50.0569 13.8564 50.162C14.1517 46.7366 15.1218 43.3743 16.7246 40.3271C18.243 39.8018 19.7615 39.3184 21.3221 38.8981C21.301 38.9402 21.301 38.9612 21.2588 39.0032C21.301 38.9612 21.3432 38.9191 21.3854 38.8981C22.482 38.6039 23.5998 38.3517 24.7386 38.1416C24.8019 38.3307 24.7597 38.5829 24.5066 38.709Z" fill="#7CB413"/>
<path d="M30.3064 47.241C26.1728 46.7996 21.955 47.8084 18.4119 49.9729C18.433 50.0779 18.433 50.204 18.3697 50.3301C17.7582 51.4439 17.1677 52.5577 16.5771 53.6715C20.2467 52.8729 24.0639 52.8519 27.7545 53.6084C27.6913 53.4613 27.6913 53.2722 27.7545 53.1251C28.4505 51.4859 29.1675 49.8678 29.8846 48.2286C29.8635 48.2076 29.8635 48.1866 29.8424 48.1656C29.8635 48.1656 29.8846 48.1656 29.9057 48.1656C30.0322 47.8714 30.1587 47.5562 30.3064 47.241Z" fill="#7CB413"/>
<path d="M22.5241 57.9797C21.1744 57.3703 19.8036 56.8659 18.3695 56.4667C17.4205 56.2145 16.3871 55.9413 15.3748 55.9833C14.8898 56.929 14.4258 57.8746 13.9829 58.8203C13.9829 58.8413 13.9829 58.8413 13.9829 58.8623H13.9618C13.8986 58.9884 13.8353 59.1355 13.772 59.2616C13.6877 59.4297 13.6244 59.5768 13.54 59.7449C15.2694 60.3544 16.8933 61.258 18.3273 62.3928C18.5171 62.4138 18.728 62.4138 18.9178 62.4138C21.9125 62.5399 24.9072 62.6029 27.9019 62.708C28.4924 62.729 29.104 62.7711 29.6945 62.7921C27.5856 60.8167 25.1603 59.1775 22.5241 57.9797Z" fill="#7CB413"/>
<path d="M39.164 42.0718C38.4047 42.0718 37.751 42.7232 37.751 43.4798C37.751 44.2363 38.4047 44.8878 39.164 44.8878C39.9232 44.8878 40.577 44.2363 40.577 43.4798C40.577 42.7232 39.9232 42.0718 39.164 42.0718Z" fill="white"/>
<path d="M47.3044 51.0869C47.2411 50.8557 47.1146 50.6456 46.9459 50.4564C46.8404 50.3724 46.7561 50.3093 46.6506 50.2253C46.4397 50.0992 46.1866 50.0361 45.9336 50.0361H45.8281C45.6383 50.0361 45.4485 50.0782 45.2798 50.1622C45.1111 50.2253 44.9424 50.3093 44.8158 50.4564C44.6682 50.5825 44.5838 50.7296 44.5206 50.9188C44.4362 51.0869 44.394 51.276 44.394 51.4651C44.4151 51.5912 44.4362 51.7173 44.4362 51.8434C44.4995 52.0746 44.626 52.2847 44.7947 52.4738C44.9002 52.5579 44.9845 52.6209 45.09 52.705C45.3009 52.8311 45.554 52.8941 45.807 52.8941H45.9125C46.1023 52.8941 46.2921 52.8521 46.4608 52.768C46.6295 52.705 46.7982 52.6209 46.9248 52.4738C47.0724 52.3477 47.1568 52.2006 47.22 52.0115C47.3044 51.8434 47.3466 51.6543 47.3466 51.4651C47.3255 51.339 47.3044 51.213 47.3044 51.0869Z" fill="white"/>
<path d="M40.9562 55.3955C40.893 55.1643 40.7664 54.9542 40.5977 54.765C40.4923 54.681 40.4079 54.6179 40.3025 54.5339C40.0916 54.4078 39.8385 54.3447 39.5854 54.3447H39.48C39.2902 54.3447 39.1004 54.3868 38.9317 54.4708C38.7629 54.5339 38.5942 54.6179 38.4677 54.765C38.3201 54.8911 38.2357 55.0382 38.1724 55.2273C38.0881 55.3955 38.0459 55.5846 38.0459 55.7737C38.067 55.8998 38.0881 56.0259 38.0881 56.152C38.1513 56.3832 38.2779 56.5933 38.4466 56.7824C38.552 56.8665 38.6364 56.9295 38.7418 57.0136C38.9527 57.1397 39.2058 57.2027 39.4589 57.2027H39.5643C39.7541 57.2027 39.9439 57.1607 40.1127 57.0766C40.2814 57.0136 40.4501 56.9295 40.5766 56.7824C40.7243 56.6563 40.8086 56.5092 40.8719 56.3201C40.9562 56.152 40.9984 55.9629 40.9984 55.7737C40.9984 55.6476 40.9773 55.5216 40.9562 55.3955Z" fill="white"/>
<path d="M40.4081 40.4954C40.387 40.4114 40.3448 40.3483 40.2815 40.2853C40.2394 40.2643 40.2183 40.2433 40.1761 40.2012C40.0917 40.1592 40.0074 40.1382 39.923 40.1382H39.8176C39.7543 40.1382 39.691 40.1592 39.6278 40.1802C39.5645 40.2012 39.5223 40.2433 39.4801 40.2853C39.438 40.3273 39.3958 40.3904 39.3747 40.4324C39.3536 40.4954 39.3325 40.5585 39.3325 40.6215C39.3325 40.6636 39.3536 40.7056 39.3536 40.7476C39.3747 40.8317 39.4169 40.8947 39.4801 40.9578C39.5223 40.9788 39.5434 40.9998 39.5856 41.0418C39.6699 41.0838 39.7543 41.1049 39.8387 41.1049H39.9441C40.0074 41.1049 40.0706 41.0838 40.1339 41.0628C40.1972 41.0418 40.2394 40.9998 40.2815 40.9578C40.3237 40.9157 40.3659 40.8527 40.387 40.8107C40.4081 40.7476 40.4292 40.6846 40.4292 40.6215C40.4081 40.5795 40.4081 40.5375 40.4081 40.4954Z" fill="white"/>
<path d="M37.1605 44.3413C36.5279 44.3413 36.5279 45.308 37.1605 45.308C37.7932 45.308 37.7932 44.3413 37.1605 44.3413Z" fill="white"/>
<path d="M40.5976 45.3291C39.9649 45.3291 39.9649 46.2958 40.5976 46.2958C41.2302 46.2958 41.2302 45.3291 40.5976 45.3291Z" fill="white"/>
<path d="M46.3762 48.6915C46.2919 48.6075 46.1654 48.5444 46.0388 48.5444C45.9123 48.5444 45.7857 48.5865 45.7014 48.6915L45.4694 48.9227C45.385 49.0068 45.3218 49.1328 45.3218 49.2589C45.3218 49.385 45.385 49.5111 45.4694 49.5952C45.5538 49.6792 45.6803 49.7423 45.8068 49.7423C45.9334 49.7423 46.0599 49.7002 46.1443 49.5952C46.2286 49.5111 46.2919 49.4481 46.3762 49.364C46.4606 49.2799 46.5239 49.1539 46.5239 49.0278C46.5239 48.9017 46.4817 48.7546 46.3762 48.6915Z" fill="white"/>
<path d="M44.3939 52.9993C44.3728 52.9153 44.3307 52.8522 44.2674 52.7892C44.2252 52.7682 44.2041 52.7472 44.1619 52.7051C44.0776 52.6631 43.9932 52.6421 43.9089 52.6421H43.8034C43.7401 52.6421 43.6769 52.6631 43.6136 52.6841C43.5503 52.7051 43.5082 52.7472 43.466 52.7892C43.4238 52.8312 43.3816 52.8943 43.3605 52.9363C43.3395 52.9993 43.3184 53.0624 43.3184 53.1254C43.3184 53.1675 43.3395 53.2095 43.3395 53.2515C43.3605 53.3356 43.4027 53.3986 43.466 53.4617C43.5082 53.4827 43.5293 53.5037 43.5714 53.5457C43.6558 53.5878 43.7401 53.6088 43.8245 53.6088H43.93C43.9932 53.6088 44.0565 53.5878 44.1198 53.5667C44.183 53.5457 44.2252 53.5037 44.2674 53.4617C44.3096 53.4196 44.3517 53.3566 44.3728 53.3146C44.3939 53.2515 44.415 53.1885 44.415 53.1254C44.415 53.0834 44.415 53.0414 44.3939 52.9993Z" fill="white"/>
<path d="M45.5956 53.6299C44.9629 53.6299 44.9629 54.5966 45.5956 54.5966C46.2283 54.5966 46.2283 53.6299 45.5956 53.6299Z" fill="white"/>
<path d="M40.0497 53.083C39.417 53.083 39.417 54.0497 40.0497 54.0497C40.6613 54.0497 40.6824 53.083 40.0497 53.083Z" fill="white"/>
<path d="M37.4975 55.2905C36.8648 55.2905 36.8648 56.2572 37.4975 56.2572C38.1091 56.2572 38.1091 55.2905 37.4975 55.2905Z" fill="white"/>
<path d="M41.5888 56.5088C40.9561 56.5088 40.9561 57.4755 41.5888 57.4755C42.2215 57.4755 42.2215 56.5088 41.5888 56.5088Z" fill="white"/>
<path d="M46.5448 43.2905C45.9121 43.2905 45.9121 44.2572 46.5448 44.2572C47.1775 44.2572 47.1775 43.2905 46.5448 43.2905Z" fill="white"/>
<path d="M37.1814 51.0448C37.1603 50.9608 37.1182 50.8977 37.0549 50.8347L36.9494 50.7296C36.9073 50.6876 36.844 50.6456 36.8018 50.6245C36.7385 50.6035 36.6753 50.5825 36.612 50.5825C36.5487 50.5825 36.4855 50.6035 36.4222 50.6245C36.3589 50.6456 36.3168 50.6876 36.2746 50.7296C36.2535 50.7717 36.2324 50.7927 36.1902 50.8347C36.148 50.9188 36.127 51.0028 36.127 51.0869C36.127 51.1289 36.148 51.1709 36.148 51.213C36.1691 51.297 36.2113 51.3601 36.2746 51.4231L36.38 51.5282C36.4222 51.5702 36.4855 51.6122 36.5277 51.6333C36.5909 51.6543 36.6542 51.6753 36.7175 51.6753C36.7807 51.6753 36.844 51.6543 36.9073 51.6333C36.9705 51.6122 37.0127 51.5702 37.0549 51.5282C37.076 51.4862 37.0971 51.4651 37.1392 51.4231C37.1814 51.339 37.2025 51.255 37.2025 51.1709C37.2025 51.1499 37.1814 51.1079 37.1814 51.0448Z" fill="white"/>
<path d="M68.288 41.3569C67.6553 41.3569 67.6553 42.3236 68.288 42.3236C68.9207 42.3236 68.9207 41.3569 68.288 41.3569Z" fill="#A8FF05"/>
<path d="M74.7625 41.8612C74.7414 41.7771 74.6992 41.7141 74.6359 41.651C74.5938 41.63 74.5727 41.609 74.5305 41.567C74.4461 41.5249 74.3618 41.5039 74.2774 41.5039H74.1931C74.1298 41.5039 74.0665 41.5249 74.0033 41.5459C73.94 41.5669 73.8978 41.609 73.8556 41.651C73.8135 41.693 73.7713 41.7561 73.7502 41.7981C73.7291 41.8612 73.708 41.9242 73.708 41.9872C73.708 42.0293 73.7291 42.0713 73.7291 42.1133C73.7502 42.1974 73.7924 42.2604 73.8556 42.3235C73.8978 42.3445 73.9189 42.3655 73.9611 42.4075C74.0454 42.4496 74.1298 42.4706 74.2142 42.4706H74.2985C74.3618 42.4706 74.4251 42.4496 74.4883 42.4286C74.5516 42.4075 74.5938 42.3655 74.6359 42.3235C74.6781 42.2814 74.7203 42.2184 74.7414 42.1764C74.7625 42.1133 74.7836 42.0503 74.7836 41.9872C74.7625 41.9452 74.7625 41.9032 74.7625 41.8612Z" fill="#A8FF05"/>
<path d="M70.1439 43.4795C69.5113 43.4795 69.5113 44.4462 70.1439 44.4462C70.7766 44.4672 70.7766 43.4795 70.1439 43.4795Z" fill="#A8FF05"/>
<path d="M67.7606 47.6821C67.128 47.6821 67.128 48.6488 67.7606 48.6488C68.3933 48.6698 68.3933 47.6821 67.7606 47.6821Z" fill="#A8FF05"/>
<path d="M73.6874 49.6782C73.0547 49.6782 73.0547 50.6449 73.6874 50.6449C74.3201 50.6659 74.3201 49.6782 73.6874 49.6782Z" fill="#A8FF05"/>
<path d="M70.3547 51.1707C70.3336 51.1076 70.2914 51.0656 70.2492 51.0236C70.2071 50.9815 70.1438 50.9395 70.1016 50.9185C70.0383 50.8975 69.9751 50.8765 69.9118 50.8765C69.8696 50.8765 69.8275 50.8975 69.7853 50.8975C69.7009 50.9185 69.6376 50.9605 69.5744 51.0236C69.5533 51.0656 69.5322 51.0866 69.49 51.1286C69.4478 51.2127 69.4268 51.2968 69.4268 51.3808V51.4649C69.4268 51.5279 69.4478 51.591 69.4689 51.654C69.49 51.7171 69.5322 51.7591 69.5744 51.8011C69.6166 51.8431 69.6798 51.8852 69.722 51.9062C69.7853 51.9272 69.8485 51.9482 69.9118 51.9482C69.954 51.9482 69.9962 51.9272 70.0383 51.9272C70.1227 51.9062 70.186 51.8642 70.2492 51.8011C70.2703 51.7591 70.2914 51.7381 70.3336 51.696C70.3758 51.612 70.3969 51.5279 70.3969 51.4439V51.3598C70.418 51.2757 70.3969 51.2127 70.3547 51.1707Z" fill="#A8FF05"/>
<path d="M68.0983 55.5839C68.0772 55.4998 68.0351 55.4368 67.9718 55.3737C67.9507 55.3527 67.9296 55.3317 67.8874 55.2897C67.8452 55.2477 67.782 55.2056 67.7398 55.1846C67.6765 55.1636 67.6133 55.1426 67.55 55.1426C67.4867 55.1426 67.4235 55.1636 67.3602 55.1846C67.2969 55.2056 67.2547 55.2477 67.2126 55.2897C67.1915 55.3317 67.1704 55.3527 67.1282 55.3948C67.086 55.4788 67.0649 55.5629 67.0649 55.6469C67.0649 55.689 67.086 55.731 67.086 55.773C67.1071 55.8571 67.1493 55.9201 67.2126 55.9832L67.2969 56.0672C67.3391 56.1093 67.4024 56.1513 67.4445 56.1723C67.5078 56.1933 67.5711 56.2143 67.6344 56.2143C67.6976 56.2143 67.7609 56.1933 67.8242 56.1723C67.8874 56.1513 67.9296 56.1093 67.9718 56.0672C67.9929 56.0252 68.014 56.0042 68.0561 55.9622C68.0983 55.8781 68.1194 55.794 68.1194 55.71C68.0983 55.6679 68.0983 55.6259 68.0983 55.5839Z" fill="#A8FF05"/>
<path d="M70.882 57.4334C70.8609 57.3703 70.8187 57.3283 70.7766 57.2863C70.7344 57.2653 70.7133 57.2442 70.6711 57.2022C70.5868 57.1602 70.5024 57.1392 70.418 57.1392C70.3759 57.1392 70.3337 57.1602 70.2915 57.1602C70.2071 57.1812 70.1439 57.2232 70.0806 57.2863L69.9963 57.3703C69.9541 57.4124 69.9119 57.4754 69.8908 57.5174C69.8697 57.5805 69.8486 57.6435 69.8486 57.7066C69.8486 57.7696 69.8697 57.8326 69.8908 57.8957C69.9119 57.9587 69.9541 58.0008 69.9963 58.0428C70.0384 58.0638 70.0595 58.0848 70.1017 58.1269C70.1861 58.1689 70.2704 58.1899 70.3548 58.1899C70.397 58.1899 70.4391 58.1689 70.4813 58.1689C70.5657 58.1479 70.6289 58.1058 70.6922 58.0428C70.7133 58.0218 70.7344 58.0008 70.7766 57.9587C70.8187 57.9167 70.8609 57.8537 70.882 57.8116C70.9031 57.7486 70.9242 57.6855 70.9242 57.6225C70.9242 57.5595 70.9031 57.4964 70.882 57.4334Z" fill="#A8FF05"/>
<path d="M75.3319 56.6978C74.6993 56.6978 74.6993 57.6644 75.3319 57.6644C75.9435 57.6644 75.9435 56.6978 75.3319 56.6978Z" fill="#A8FF05"/>
<path d="M67.5502 52.1167C66.9175 52.1167 66.9175 53.0834 67.5502 53.0834C68.1829 53.0834 68.1829 52.1167 67.5502 52.1167Z" fill="#A8FF05"/>
<path d="M85.2017 12.7139C85.1806 10.5494 84.3581 8.76314 82.8397 7.54428C81.3213 6.34644 79.4654 5.82108 78.2 5.50586C76.7449 5.1486 75.1632 4.83338 73.5604 4.83338C73.5182 4.83338 73.476 4.83338 73.4549 4.83338C73.0331 4.83338 72.6324 4.8544 72.2528 4.91744C68.9418 5.33774 65.8627 7.31312 64.1334 10.1501C63.0157 9.09937 61.7081 8.32183 60.2319 7.83849C58.6501 7.31312 56.9841 7.145 55.7187 7.06094C55.1282 7.01891 54.5799 6.9979 54.0316 6.9979C53.9683 6.9979 53.8839 6.9979 53.8207 6.9979C52.7873 6.9979 51.8594 7.08196 50.9525 7.25008C49.1388 7.5653 47.5149 8.25878 46.2074 9.22546C46.0598 9.05734 45.891 8.93125 45.6802 8.82618L45.7434 6.26238C45.7856 4.72831 45.3638 3.25728 44.5413 2.20654C43.4025 0.798559 41.631 0 39.5642 0H39.4799C37.4342 0.0210147 35.3463 0.819574 33.9333 2.12249C32.8156 3.13119 32.1618 4.53918 32.1197 5.96818V6.15731C31.5713 6.11528 31.0441 6.07325 30.5169 6.03122C30.306 6.01021 30.074 6.01021 29.8631 5.98919C28.9984 5.92615 28.1127 5.8631 27.2269 5.8631C27.1636 5.8631 27.1004 5.8631 27.0371 5.8631C26.6153 5.8631 26.2146 5.88412 25.8561 5.92615C24.0002 6.09427 23.1988 7.54428 22.6294 8.61603C22.5451 8.78415 22.4396 8.95227 22.3553 9.09937L20.0776 13.0501C19.8667 11.3059 19.5082 9.58271 19.002 7.90153C18.6224 6.64065 17.9476 4.30802 15.3747 4.16091C15.2903 4.16091 15.227 4.16091 15.1427 4.16091H15.1005C14.3413 4.16091 13.6032 4.37106 12.9705 4.53918C12.8228 4.58121 12.6963 4.62324 12.5487 4.64425C11.6629 4.8544 10.7561 5.10658 9.84923 5.33774C7.80356 5.88412 5.71571 6.47253 3.67004 7.08196C2.97408 7.29211 2.51012 7.90153 2.48903 8.61603L2.32031 14.9204C2.32031 15.0675 2.3414 15.2147 2.36249 15.3618C3.48023 20.1111 4.66124 24.9024 5.84225 29.6518C6.47493 32.1735 7.06543 34.4851 7.61376 36.6917L7.67702 36.9018C7.97228 38.0366 8.24644 39.1504 8.54169 40.2852C8.58387 40.4533 8.62605 40.6214 8.66823 40.8106C7.48722 41.5461 7.14979 42.5548 7.08652 43.3323C7.06543 43.4794 7.06543 43.6476 7.06543 43.8367L6.87563 50.1201C6.85454 50.9607 6.95998 51.7803 7.04434 52.5788C7.06543 52.7049 7.06543 52.831 7.08652 52.9781C7.10761 53.0832 7.10761 53.1882 7.1287 53.3143C7.23415 54.239 7.33959 55.2897 7.88792 56.2354C8.83694 57.8955 10.5874 57.9376 11.1779 57.9586C11.3677 57.9586 11.5575 57.9586 11.7473 57.9586C11.8105 57.9586 11.8949 57.9586 11.9582 57.9586C12.0636 57.9586 12.1691 57.9586 12.2745 57.9586C12.148 58.2108 12.0425 58.4629 11.916 58.7361C11.8738 58.8202 11.8316 58.9042 11.7895 58.9883C11.6418 59.2825 11.452 59.6608 11.3677 60.1021C11.3466 60.2282 11.3255 60.3753 11.3255 60.5014L11.1357 66.7848C11.1146 67.7935 11.7895 68.613 12.9283 68.9493C14.3835 69.3906 15.9863 69.6217 18.1163 69.7478C20.5627 69.8949 23.0301 69.9159 25.4343 69.958C26.4255 69.979 27.4378 69.979 28.4501 70C28.661 70 28.893 70.021 29.146 70.021C29.4835 70.042 29.8209 70.063 30.1794 70.063H30.2849C30.6012 70.063 30.8965 70.042 31.1706 70C31.255 69.979 31.3394 69.979 31.4448 69.958C31.4659 69.958 31.487 69.937 31.5081 69.937C31.5713 69.9159 31.6346 69.8949 31.6979 69.8739C31.719 69.8739 31.74 69.8529 31.7611 69.8529C31.8455 69.8319 31.9299 69.7899 31.9931 69.7478C32.0142 69.7478 32.0353 69.7268 32.0564 69.7268C32.1197 69.7058 32.1829 69.6638 32.2251 69.6428C32.2462 69.6217 32.2673 69.6217 32.2884 69.6007C32.3727 69.5587 32.436 69.5167 32.4993 69.4536C32.4993 69.4536 32.5204 69.4326 32.5414 69.4326C32.5836 69.3906 32.6469 69.3485 32.7102 69.3065C32.7313 69.2855 32.7313 69.2855 32.7523 69.2645C32.7945 69.2225 32.8367 69.1804 32.8789 69.1384C32.9 69.1174 32.9 69.1174 32.9211 69.0964C32.9632 69.0543 33.0054 68.9913 33.0476 68.9493L33.0687 68.9283L33.0898 68.8862C33.1109 68.8652 33.1109 68.8652 33.132 68.8442C33.153 68.8232 33.1741 68.7812 33.1952 68.7601C33.2163 68.7391 33.2163 68.7181 33.2374 68.6971C33.2585 68.6551 33.2796 68.634 33.3007 68.592C33.3218 68.571 33.3218 68.55 33.3428 68.529C33.3639 68.487 33.385 68.4659 33.4061 68.4239C33.4061 68.4029 33.4272 68.3819 33.4272 68.3819C33.4483 68.3188 33.4905 68.2768 33.5116 68.2138C33.617 67.9826 33.7435 67.7304 33.849 67.4993L33.9333 67.2891C34.0177 67.1 34.1021 66.9108 34.1864 66.7217L34.2286 66.6166L34.2497 66.5536C34.3551 66.3224 34.4395 66.1123 34.5449 65.8811L34.5871 65.755C34.6715 65.5659 34.7558 65.3768 34.8402 65.1876L34.9246 64.9775C34.9878 64.8094 35.0722 64.6413 35.1354 64.4731L35.2198 64.263C35.262 64.1579 35.3042 64.0318 35.3674 63.9268C36.907 65.1876 38.9315 65.9442 40.9983 65.9442H41.0827C42.0106 65.9442 42.9174 65.7761 43.761 65.4608C43.8876 65.4188 44.0141 65.3558 44.1406 65.3137C44.1617 65.2927 44.2039 65.2927 44.225 65.2717L44.2461 65.2507C44.3304 65.2087 44.4148 65.1666 44.4991 65.1246C44.5413 65.1036 44.5835 65.0826 44.6257 65.0616C44.71 65.0195 44.7944 64.9775 44.8788 64.9355L44.8998 64.9144C44.942 64.8934 44.9631 64.8724 44.9842 64.8724C45.0896 64.8094 45.1951 64.7463 45.3005 64.6833C45.3216 64.6833 45.3216 64.6623 45.3427 64.6623C45.4482 64.5992 45.5536 64.5152 45.6802 64.4311C45.7012 64.4101 45.7223 64.3891 45.7434 64.3681L45.7645 64.3471C45.8489 64.284 45.9121 64.242 45.9965 64.1789C46.0387 64.1579 46.0809 64.1159 46.1019 64.0949C46.1652 64.0318 46.2496 63.9898 46.3128 63.9268L46.3339 63.9057C46.355 63.8847 46.3972 63.8637 46.4183 63.8427C46.5026 63.7797 46.587 63.6956 46.6503 63.6325L46.7135 63.5695C46.7979 63.4854 46.9033 63.4014 46.9877 63.2963C47.0088 63.2753 47.0299 63.2543 47.051 63.2333L47.0721 63.2123C47.1353 63.1492 47.1986 63.0862 47.2619 63.0021C47.304 62.9601 47.3251 62.9391 47.3462 62.897C47.4095 62.834 47.4728 62.7709 47.5149 62.7079C47.5149 62.7079 47.5782 62.6449 47.5993 62.6028C47.6626 62.5188 47.7258 62.4557 47.7891 62.3717L47.8102 62.3507C48.0211 63.2753 48.2531 64.1999 48.5483 65.1036C48.7592 65.7971 49.413 66.2594 50.13 66.2594H53.5887C53.673 66.2594 53.7363 66.2594 53.8207 66.2594C53.9261 66.2594 54.0316 66.2594 54.137 66.2594H54.2214C54.2635 66.2594 54.3057 66.2594 54.3479 66.2594H54.3901C54.4323 66.2594 54.4744 66.2594 54.5166 66.2594H54.5377C54.5799 66.2594 54.6432 66.2594 54.6853 66.2384H54.7064C54.7486 66.2384 54.7908 66.2384 54.833 66.2174H54.8751C54.9173 66.2174 54.9595 66.1963 55.0017 66.1963H55.0228H55.0439C55.1071 66.1753 55.1493 66.1753 55.1915 66.1543L55.2337 66.1333C55.2758 66.1123 55.318 66.1123 55.3813 66.0913L55.4235 66.0703C55.4867 66.0492 55.55 66.0282 55.5922 65.9862L55.6344 65.9652C55.6765 65.9442 55.7187 65.9232 55.782 65.8811C55.8031 65.8601 55.8242 65.8601 55.8452 65.8391C55.8874 65.8181 55.9296 65.776 55.9718 65.734L55.9929 65.713L56.014 65.692C56.0772 65.65 56.1194 65.5869 56.1827 65.5449C56.2038 65.5239 56.2038 65.5029 56.2249 65.5029C56.246 65.4818 56.267 65.4608 56.2881 65.4188C56.3092 65.3978 56.3303 65.3558 56.3514 65.3347C56.3725 65.3137 56.3725 65.2927 56.3936 65.2717C56.4147 65.2297 56.4568 65.1666 56.4779 65.1246L56.499 65.1036L56.5201 65.0405C56.5623 64.9775 56.5834 64.8934 56.6045 64.8094C56.6045 64.7884 56.6256 64.7673 56.6256 64.7463C56.6256 64.7043 56.6467 64.6623 56.6467 64.6413C56.6467 64.6202 56.6467 64.5992 56.6677 64.5572C56.6677 64.5362 56.6677 64.5152 56.6677 64.4942C56.6888 64.4101 56.6888 64.326 56.6888 64.263L56.7732 61.6362C56.7943 61.6572 56.8154 61.6572 56.8154 61.6782C57.427 62.2035 58.0175 62.7079 58.6291 63.2123C58.6923 63.2753 58.7767 63.3383 58.861 63.4014C59.3672 63.8427 60.0631 64.4731 61.0332 64.5782C61.1809 64.5992 61.3285 64.5992 61.4761 64.5992H61.5183C62.1088 64.5992 62.6782 64.4521 63.1844 64.326C63.3531 64.284 63.5218 64.242 63.6694 64.221C63.6905 64.221 63.7327 64.2 63.7538 64.2L64.1123 64.1369L64.2599 64.1159C64.2599 64.1159 64.3232 64.0949 64.3443 64.0949L64.4076 64.0739C64.4286 64.0739 64.4708 64.0528 64.4919 64.0528C64.513 64.0528 64.5341 64.0318 64.5552 64.0318C64.5763 64.0318 64.6185 64.0108 64.6395 64.0108C64.6606 64.0108 64.6817 63.9898 64.7028 63.9898C64.745 63.9688 64.7661 63.9688 64.8083 63.9478C64.8293 63.9478 64.8504 63.9268 64.8715 63.9268C64.9137 63.9057 64.9348 63.9057 64.977 63.8847C64.9981 63.8847 65.0191 63.8637 65.0402 63.8637C65.0613 63.8427 65.1035 63.8427 65.1246 63.8217C65.2933 64.4101 65.5675 65.1036 66.3267 65.5659C66.9594 65.9652 67.6553 66.0072 68.2458 66.0072C68.288 66.0072 68.3302 66.0072 68.3513 66.0072C68.4145 66.0072 68.4567 66.0072 68.52 66.0072C68.52 66.0072 68.7309 66.0072 68.8152 66.0072C70.418 65.9862 72.0419 65.8811 73.6447 65.671C74.4672 65.5659 75.2264 65.4398 75.9646 65.3137C76.07 65.2927 76.1754 65.2717 76.302 65.2507C76.9347 65.1666 77.7993 65.0195 78.432 64.4311C78.4953 64.3681 78.5585 64.305 78.6218 64.242L78.6851 64.1579L78.7062 64.1369C78.7484 64.0739 78.7905 64.0108 78.8327 63.9478L78.8538 63.9057C78.896 63.8427 78.9171 63.8007 78.9382 63.7376L78.9593 63.6746C78.9593 63.6536 78.9803 63.6326 78.9803 63.6115C79.0014 63.5905 79.0014 63.5485 79.0225 63.5275C79.0225 63.5065 79.0436 63.4854 79.0436 63.4644C79.0647 63.4224 79.0647 63.4014 79.0858 63.3594C79.0858 63.3383 79.1069 63.3173 79.1069 63.2963C79.1069 63.2753 79.128 63.2333 79.128 63.1912L79.1491 63.1282C79.1491 63.1072 79.1701 63.0652 79.1701 63.0441C79.1701 63.0231 79.1701 63.0021 79.1701 63.0021C79.1701 62.9811 79.1701 62.9811 79.1701 62.9601C79.1912 62.897 79.1912 62.834 79.1912 62.792V62.7499C79.1912 62.7079 79.2123 62.6449 79.2123 62.5818V62.5608C79.2123 62.4978 79.2123 62.4347 79.2334 62.3927V62.3507C79.2334 62.2876 79.2334 62.2456 79.2334 62.1825L79.4232 55.8991C79.4232 55.668 79.4232 55.4578 79.4232 55.2687V55.2267C79.4021 54.344 79.2334 53.4614 78.9382 52.5788L79.0225 49.3005C79.0436 48.9012 78.9803 48.4809 78.8538 48.0817L79.0225 41.9454C79.0858 41.9033 79.1491 41.8823 79.2123 41.8403C79.2545 41.8193 79.2967 41.7983 79.3178 41.7772C79.381 41.7352 79.4443 41.6932 79.5076 41.6722C79.5076 41.6722 79.5919 41.6301 79.613 41.6091C79.6763 41.5671 79.7396 41.5251 79.8028 41.483C79.8028 41.483 79.8872 41.441 79.9083 41.42C79.9926 41.378 80.0559 41.3149 80.1403 41.2729L80.2035 41.2309C80.2879 41.1678 80.3933 41.1048 80.4777 41.0207L80.562 40.9577C80.6253 40.9156 80.6886 40.8526 80.7519 40.8106L80.8573 40.7265C80.9206 40.6845 80.9628 40.6425 81.026 40.5794C81.0682 40.5584 81.0893 40.5164 81.1315 40.4953C81.1947 40.4533 81.2369 40.4113 81.3002 40.3482C81.3002 40.3482 81.3634 40.2852 81.4056 40.2642C81.4689 40.2222 81.5111 40.1591 81.5743 40.1171C81.5743 40.1171 81.6376 40.054 81.6587 40.033C81.722 39.97 81.7852 39.9069 81.8485 39.8439C81.8485 39.8439 81.8907 39.8019 81.9118 39.7809C81.9961 39.6968 82.0805 39.6127 82.1438 39.5287C82.1648 39.5077 82.207 39.4656 82.207 39.4656C82.2703 39.4026 82.3125 39.3395 82.3757 39.2765C82.3968 39.2555 82.4601 39.1924 82.4601 39.1924C82.5023 39.1294 82.5445 39.0874 82.6077 39.0243C82.6288 38.9823 82.671 38.9613 82.6921 38.9192C82.6921 38.9192 82.7343 38.8562 82.7553 38.8352C82.7764 38.8142 82.7764 38.7932 82.7975 38.7721C82.8397 38.7091 82.8819 38.6461 82.9452 38.583C82.9662 38.541 83.0084 38.499 83.0295 38.4569C83.0717 38.3939 83.1139 38.3308 83.156 38.2678L83.1771 38.2258C83.1982 38.2047 83.2193 38.1627 83.2404 38.1207C83.2826 38.0366 83.3248 37.9736 83.388 37.8895L83.4091 37.8685C83.4302 37.8475 83.4513 37.8055 83.4513 37.7845C83.5146 37.6584 83.5778 37.5533 83.6411 37.4482C83.6833 37.3642 83.7255 37.3011 83.7676 37.2171L83.8098 37.154C83.8309 37.091 83.852 37.0489 83.8731 37.0069C83.8731 36.9859 83.8942 36.9649 83.8942 36.9649C83.8942 36.9439 83.9153 36.9439 83.9153 36.9229C83.9785 36.7968 84.0207 36.6707 84.0629 36.5656L84.084 36.5026C84.1262 36.3765 84.1683 36.2504 84.2105 36.1243L84.2316 36.0823C84.2738 35.9562 84.316 35.8091 84.3371 35.683V35.641C84.3792 35.5149 84.4003 35.3888 84.4214 35.2627C84.4214 35.2627 84.4425 35.1996 84.4425 35.1786C84.4636 35.0946 84.4636 35.0105 84.4847 34.9265C84.4847 34.9054 84.4847 34.8634 84.5058 34.8424C84.5269 34.7373 84.5269 34.6533 84.548 34.5482V34.5062C84.548 34.4221 84.569 34.338 84.569 34.233C84.569 34.212 84.569 34.1699 84.569 34.1489C84.569 34.0438 84.5901 33.9388 84.5901 33.8547L84.7588 27.5923V27.5713V27.5503C84.801 26.1633 84.4636 24.8184 83.8098 23.7046C83.8309 23.6836 83.8731 23.6205 83.8731 23.6205V23.5995C83.9153 23.5365 83.9574 23.4524 83.9996 23.3894L84.0207 23.3473C84.0629 23.2633 84.1051 23.2002 84.1472 23.1162L84.1683 23.0952C84.2105 23.0321 84.2316 22.9691 84.2738 22.906C84.2738 22.885 84.2738 22.885 84.2949 22.885L84.316 22.843C84.3581 22.7379 84.4003 22.6328 84.4425 22.5488V22.5278C84.4847 22.4227 84.5269 22.2966 84.548 22.1915L84.569 22.1495V22.1285C84.5901 22.0234 84.6323 21.9394 84.6534 21.8343V21.8133C84.6745 21.7082 84.6956 21.6031 84.7167 21.5191V21.4981V21.456C84.7378 21.3299 84.7588 21.1828 84.7799 21.0357V21.0147C84.801 20.8886 84.8221 20.7415 84.8432 20.5944V20.5734C84.8643 20.4473 84.8643 20.3002 84.8854 20.1531C84.8854 20.1321 84.8854 20.1321 84.8854 20.1111C84.8854 19.985 84.9065 19.8379 84.9065 19.7118L85.0752 13.4494V13.4284V13.4074C85.2017 13.1552 85.2017 12.9451 85.2017 12.7139ZM45.4693 13.5965C47.8524 9.41459 53.7785 9.33053 57.9331 10.1921C60.1264 10.6545 62.0245 11.7052 63.3953 13.4914C63.564 13.7016 63.7116 13.9117 63.8592 14.1429C63.8592 14.311 63.9647 14.4371 64.0912 14.5212C65.0191 16.0973 65.5042 17.8835 65.6307 19.7118C65.7995 22.0865 65.5042 24.6082 64.6395 26.8358C63.8803 28.7902 62.4884 30.4713 60.8013 31.6692C58.9243 32.9931 56.7099 33.7706 54.4323 34.0018C53.2091 34.1279 51.9648 34.1279 50.7416 33.9808C50.13 33.8967 49.898 33.7496 49.7926 33.1402C49.6871 32.5518 49.6239 31.9634 49.5395 31.396C48.8647 26.5416 48.3374 21.435 45.5114 17.2741C45.4903 17.2321 45.4693 17.2111 45.4271 17.19C45.406 16.0552 45.3849 14.8994 45.3638 13.7646C45.3849 13.7016 45.4271 13.6596 45.4693 13.5965ZM35.9368 3.59352C37.392 2.66887 39.3955 2.22756 41.0405 2.81597C42.7698 3.4254 43.4869 5.04353 43.4447 6.78775C43.4025 8.19574 42.7276 9.58271 41.5255 10.2972C41.4201 10.3182 41.3146 10.3603 41.2514 10.4443C41.1248 10.5074 40.9772 10.5704 40.8296 10.6124C40.2391 10.8016 40.4922 11.7472 41.0827 11.5581C41.3146 11.495 41.5255 11.39 41.7364 11.2849C42.58 11.3269 43.4447 11.369 44.2882 11.411C44.4781 17.8205 44.5202 24.251 44.4359 30.6605C41.8841 30.8916 39.3322 30.9337 36.7804 30.7655C36.2321 24.9234 35.4518 19.1234 34.4395 13.3443C34.4184 13.1972 34.334 13.0922 34.2497 13.0501C34.5871 12.3146 34.9245 11.6001 35.262 10.8436C35.4729 10.3603 35.7259 9.83489 35.6838 9.2885C35.6416 8.67908 35.1987 8.2798 34.6293 8.11168C34.5449 8.09066 34.4606 8.06965 34.3762 8.04863C34.4184 7.94356 34.4184 7.81747 34.3551 7.67037C33.6381 6.11528 34.6082 4.4341 35.9368 3.59352ZM6.20077 16.4335C5.65244 14.0168 5.10412 11.6001 4.55579 9.16241C7.67702 8.25878 10.7983 7.39718 13.9617 6.68268C14.6154 6.53558 15.4379 6.34644 15.9652 6.87181C16.4502 7.35515 16.5768 8.15371 16.7666 8.78415C17.2094 10.3603 17.5258 11.9784 17.7156 13.6175C17.9265 15.4668 17.9687 17.3371 17.8421 19.1864C17.5891 19.7118 18.3904 20.1741 18.7068 19.6488C20.162 17.19 21.596 14.7313 23.0512 12.2516C23.3886 11.6842 23.705 11.1378 24.0424 10.5704C24.3798 9.98199 24.6962 9.26749 25.1391 8.76313C25.5398 8.30081 26.299 8.4269 26.8473 8.4269C27.5433 8.44791 28.2603 8.46893 28.9562 8.48994C30.3692 8.55299 31.7611 8.67908 33.153 8.84719C33.5326 8.88922 34.5239 8.84719 34.6926 9.24647C34.798 9.47764 34.6082 9.8559 34.5238 10.045C34.3762 10.3813 34.2286 10.6965 34.081 11.0327C33.0265 13.3864 31.8455 15.677 30.559 17.9256C29.1039 20.4473 27.5222 22.885 25.7928 25.2177C25.4132 25.722 26.2779 26.2053 26.6364 25.701C27.016 25.1966 27.3745 24.6713 27.7331 24.1669C28.893 26.1633 29.9264 28.2228 30.8121 30.3663L26.8473 32.3837C26.1514 32.7409 25.4554 33.0982 24.7595 33.4344C24.3377 33.6446 24.1689 33.6235 23.7682 33.3714C23.5152 33.2032 23.2832 33.0141 23.0512 32.804C21.3641 31.2699 20.2674 29.1264 18.2217 28.0126C17.9054 27.8445 17.4836 28.0546 17.4836 28.4329C17.568 31.0177 17.5047 33.6235 17.2516 36.2084C16.3026 36.4815 15.3325 36.6707 14.3413 36.7547C13.793 36.7968 13.2446 36.8178 12.7174 36.8178C12.4854 36.8178 12.2323 36.7968 12.0004 36.7968C11.7684 36.7757 11.3044 36.8388 11.1146 36.6917C10.9248 36.5656 10.8826 36.1033 10.8193 35.8931C10.7561 35.6199 10.6717 35.3257 10.6085 35.0525C10.4608 34.4851 10.3343 33.9177 10.1867 33.3714C9.9125 32.2366 9.63834 31.1228 9.36418 29.988C8.30971 25.4698 7.23415 20.9517 6.20077 16.4335ZM33.9544 55.1846C33.7225 55.8991 33.4061 56.5926 33.1109 57.2861C32.5204 58.6941 31.9088 60.1021 31.2761 61.4891C31.023 62.0354 30.8332 62.7289 30.1373 62.7499C29.3991 62.792 28.6399 62.7079 27.9229 62.6869C24.9282 62.6028 21.9335 62.5398 18.9388 62.3927C17.4625 62.3296 15.9652 62.2246 14.51 61.9093C14.2147 61.8463 13.9195 61.7833 13.6242 61.6992C13.4555 61.6572 13.2657 61.5941 13.097 61.5521C12.8439 61.468 12.8228 61.5311 12.8228 61.2789C12.8228 61.0267 13.1181 60.6485 13.2235 60.4173C13.4133 60.018 13.6032 59.6187 13.793 59.2195C15.227 56.1933 16.7666 53.2303 18.3694 50.2882C18.5381 49.973 18.3272 49.6578 18.053 49.5737C17.9476 49.4266 17.7789 49.3215 17.5469 49.4056C15.7332 49.931 13.8773 50.2462 11.9793 50.2882C11.2411 50.3092 10.0601 50.4773 9.5118 49.8679C9.04784 49.3425 9.00566 48.4809 8.9213 47.8085C8.79476 46.8208 8.7315 45.8331 8.68932 44.8454C8.66823 44.4251 8.62605 43.9418 8.90021 43.5845C9.1111 43.3113 9.49071 43.1432 9.80706 43.0171C11.5153 42.2816 13.2446 41.6091 14.9951 40.9577C18.4748 39.6548 22.0389 38.541 25.7085 37.9526C27.5433 37.6584 29.3991 37.5113 31.255 37.5323C31.6979 37.5323 32.1407 37.5323 32.5625 37.5953C33.0898 37.6584 33.153 37.9316 33.153 38.4149C33.1741 39.3185 33.0265 40.2011 32.7734 41.0627C32.204 43.1222 31.255 45.0555 30.4114 46.9889C29.5257 49.0273 28.6399 51.0447 27.7752 53.0832C27.6698 53.3353 27.7331 53.7346 28.0705 53.7977L32.5625 54.5962C32.9 54.6593 33.2585 54.7223 33.5959 54.7854C33.6803 54.8064 33.849 54.8064 33.9333 54.8694C34.081 54.9955 34.0388 54.9955 33.9544 55.1846ZM47.4095 53.2513C46.5659 54.9955 45.3638 56.6977 43.7188 57.7694C40.7874 59.6608 36.5695 58.547 34.8824 55.5209C34.9035 55.4578 34.9245 55.3948 34.9456 55.3317C35.0722 54.8694 34.9456 54.4911 34.6504 54.239C34.6926 54.1339 34.6926 54.0078 34.6293 53.8607C33.0898 50.2252 32.9632 45.8541 35.2831 42.5128C37.2233 39.7178 40.6398 38.0997 43.993 39.1084C45.5114 39.5497 46.9244 40.5164 47.768 41.8823C48.8225 43.6055 48.949 45.77 48.8225 47.7244C48.717 49.6157 48.232 51.5281 47.4095 53.2513ZM64.5341 51.444C64.3654 52.852 64.1967 54.239 64.0279 55.647C63.9858 55.9622 63.9436 56.2774 63.9014 56.5926C63.8592 56.9289 63.9014 57.076 63.564 57.181C62.868 57.3912 62.0877 57.4963 61.3918 57.6223C60.5482 57.7694 60.042 57.097 59.4726 56.5926C58.9032 56.0883 58.3338 55.5839 57.7644 55.0796C56.5623 54.0288 55.3813 52.9781 54.1792 51.9063C53.905 51.6542 53.2934 51.8013 53.3356 52.2426C53.5676 54.239 53.7785 56.2354 54.0105 58.2318C54.0316 58.4839 54.0737 58.7571 54.0948 59.0093C54.0948 59.0724 54.1159 59.1564 54.1159 59.2195C54.0948 59.2195 54.0948 59.2195 54.0737 59.2195C53.9261 59.1774 53.652 59.2195 53.5043 59.2195C53.2513 59.2195 52.9982 59.2195 52.7451 59.2195C51.8383 59.1984 50.9314 59.1984 50.0457 59.1774C49.4762 57.181 49.0966 55.1426 48.949 53.0621C48.9279 52.894 48.8647 52.7679 48.7381 52.6839C49.181 51.5911 49.4762 50.4353 49.6661 49.2795C50.0035 47.115 50.0457 44.7193 49.2864 42.6389C49.0966 42.1345 48.8436 41.6512 48.5483 41.2099C49.5817 40.6004 50.7205 40.1801 51.9226 39.97C53.3356 43.5215 55.2337 46.8838 57.5535 49.931C57.7855 50.2252 58.3549 50.2672 58.4393 49.8049C58.6923 48.4179 58.9665 47.0519 59.2196 45.665C59.4726 44.32 59.6624 42.912 59.9788 41.5881C60.042 41.3149 60.1264 41.2309 60.4006 41.1888C60.6958 41.1468 61.0122 41.1468 61.3285 41.1258C62.0666 41.1048 62.8048 41.1258 63.5429 41.1888C64.049 41.2309 64.6395 41.2519 65.0824 41.5461C65.6097 41.9033 65.5675 42.6178 65.5042 43.1642C65.23 45.9592 64.8504 48.6911 64.5341 51.444ZM76.5972 58.1687C76.4285 58.4209 75.9013 58.4209 75.6271 58.4629C73.9822 58.7782 72.3161 58.9883 70.65 59.0724C69.8486 59.1144 69.0261 59.1354 68.2247 59.1354C67.9084 59.1354 67.5077 59.1774 67.2124 59.0724C66.8539 58.9253 66.8328 58.547 66.7485 58.2108C66.3267 56.5716 65.926 54.9114 65.5042 53.2723C65.4831 53.1462 65.3988 53.0621 65.3355 52.9991C65.3355 52.9781 65.3355 52.9781 65.3355 52.9571C65.7362 49.6998 66.1791 46.4425 66.4954 43.1852C66.5587 42.5338 66.4743 41.9244 66.2212 41.441C67.8029 40.6845 69.6377 40.3272 71.3882 40.1801C73.012 40.033 74.8679 40.2432 75.9646 41.6091C76.766 42.5968 76.7449 44.4671 75.3741 44.9925C73.9821 45.5179 72.4215 44.5092 71.0718 45.3287C69.9963 45.9802 69.8064 47.5563 70.6078 48.502C71.7256 49.8259 73.4338 48.8592 74.8468 48.9433C76.2387 49.0273 76.9347 50.8136 75.9435 51.8013C74.9101 52.81 73.4549 52.4737 72.1685 52.5578C71.4936 52.5998 70.7344 52.789 70.3759 53.3984C69.9541 54.0919 70.2704 54.9535 70.8609 55.4368C71.6201 56.0462 72.6324 55.9412 73.5182 55.752C74.5094 55.5419 75.4795 55.3317 76.4707 55.1216C76.6394 55.71 76.7238 56.3194 76.7238 56.9499C76.7238 57.2441 76.766 57.9165 76.5972 58.1687ZM82.7132 15.5509C82.5655 16.3915 82.2914 17.2531 81.5743 17.7784C80.077 18.9132 78.9803 17.2321 77.8204 16.4965C76.4918 15.6349 74.9101 16.0342 73.7502 16.9799C73.1597 17.4422 72.5902 18.0937 72.4004 18.8502C72.2106 19.6067 72.4637 20.3212 72.9488 20.9096C73.9189 22.1075 75.5428 22.5698 76.9347 22.9901C78.4109 23.4524 80.0348 23.8727 81.1104 25.0495C82.1016 26.1213 82.4601 27.6764 82.3125 29.1054C81.975 32.4047 78.9382 34.7794 76.0489 35.9352C74.2352 36.6497 72.3583 36.9018 70.418 36.8808C69.469 36.8808 68.4989 36.8598 67.5499 36.7757C66.7063 36.6917 65.9682 36.4395 65.4198 35.767C64.4708 34.6322 64.5763 32.9931 65.7151 32.0264C66.2845 31.5641 67.0226 31.2909 67.7608 31.375C68.5411 31.459 69.237 31.7532 70.0384 31.48C71.4303 30.9967 72.2317 29.5047 71.8943 28.0757C71.7045 27.3612 71.2616 26.7097 70.6711 26.2474C70.0173 25.743 69.237 25.5959 68.4567 25.4068C67.7608 25.2387 66.9383 24.9655 66.7485 24.1879C66.7063 23.9988 66.5798 23.8727 66.411 23.8517C66.5798 22.801 66.643 21.7292 66.643 20.6995C66.6219 18.3248 66.0525 15.9502 64.8715 13.9328C65.7151 11.1798 67.9928 8.97328 70.7344 8.11168C72.4215 7.5653 74.1509 7.67037 75.8802 8.00661C77.3775 8.30081 78.896 8.63705 80.2457 9.35155C81.5743 10.066 82.5655 11.1378 82.7764 12.6719C82.9241 13.6596 82.8608 14.6473 82.7132 15.5509Z" fill="#572C54"/>
<path d="M54.1579 23.6838C54.2211 23.8729 54.4109 24.0621 54.6218 24.041C56.1403 23.957 57.8063 24.2512 59.0717 23.2215C60.1683 22.3389 60.316 20.9729 59.388 19.9011C58.5445 18.9135 57.1737 18.4932 55.8872 18.4932C55.2756 18.4932 54.4953 18.5562 53.9681 18.8924C53.4619 19.2287 53.2721 19.8171 53.5252 20.3635C53.6306 21.4983 53.8415 22.591 54.1579 23.6838Z" fill="#572C54"/>
<path d="M40.8085 47.7034C39.5853 47.8715 38.8261 49.3005 39.037 50.4773C39.2901 51.9063 41.0616 52.3897 42.2848 51.8853C43.508 51.381 44.2039 49.8679 43.5291 48.6491C43.0018 47.7034 41.7786 47.3461 40.8085 47.7034Z" fill="#572C54"/>
</g>
<defs>
<clipPath id="clip0_1106_4785">
<rect width="87.5" height="70" fill="white"/>
</clipPath>
</defs>
</svg>
