<svg width="145" height="70" viewBox="0 0 145 70" fill="none" xmlns="http://www.w3.org/2000/svg">
<g clip-path="url(#clip0_1106_5000)">
<path d="M23.5999 57.3003C-0.200066 62.9003 -10.2001 39.9003 13.5999 26.9003C37.3999 13.9003 80.2999 4.1003 116.5 16.2003C158.6 30.3003 140.3 76.6003 99.8999 62.7003C76.3999 54.7003 74.4999 45.3003 23.5999 57.3003Z" fill="url(#paint0_linear_1106_5000)"/>
<path opacity="0.25" d="M115.6 49.9002C132.9 47.8002 136.1 24.2002 120 17.6002C118.9 17.1002 117.7 16.7002 116.5 16.3002C80.2998 4.1002 37.3998 13.9002 13.6998 26.9002C9.59978 29.1002 6.49978 31.7002 4.29978 34.3002C-1.80022 41.6002 5.19978 52.5002 14.3998 49.9002C18.6998 48.7002 22.9998 46.9002 26.8998 44.8002C42.1998 36.9002 64.2998 36.1002 90.1998 46.4002C98.8998 49.8002 107.9 50.8002 115.6 49.9002Z" fill="url(#paint1_linear_1106_5000)"/>
<path opacity="0.18" d="M32.1 53.9001C31.1 54.2001 30 55.4001 30 55.4001C30 55.4001 29.4 54.6001 29.2 54.1001C29 53.6001 28.3 53.2001 27.5 53.3001L27.9 55.9001L28.5 56.1001C30.5 55.7001 32.5 55.2001 34.3 54.9001C33.6 53.6001 33 53.6001 32.1 53.9001Z" fill="#041A35"/>
<path opacity="0.18" d="M10.8 33.5001C14.5 35.2001 13.2 39.0001 8.59996 38.2001C4.09996 37.4001 5.89996 31.3001 10.8 33.5001Z" fill="#041A35"/>
<path opacity="0.18" d="M13.6002 39.6998C14.2002 40.4998 13.3002 41.2998 12.4002 40.5998C11.4002 39.8998 12.8002 38.5998 13.6002 39.6998Z" fill="#041A35"/>
<path opacity="0.18" d="M68.6999 17.2001C64.6999 16.5001 64.6999 13.1001 69.2999 12.5001C75.1999 11.7001 75.0999 18.4001 68.6999 17.2001Z" fill="#041A35"/>
<path opacity="0.18" d="M61.7001 12C53.7001 13.1 45.9001 14.7 38.7001 16.8L22.6001 24.8C39.5001 26.1 59.5001 24.5 61.7001 12Z" fill="#041A35"/>
<path d="M23.8998 24.9C12.7998 25.3 6.29979 15.2 22.2998 6.99999C48.2998 -6.20001 59.3998 1.99999 59.4998 9.09999C59.5998 18.4 50.7998 23.8 23.8998 24.9Z" fill="url(#paint2_linear_1106_5000)"/>
<path opacity="0.2" d="M22.2999 7.00007C14.9999 10.7001 12.2999 14.9001 12.6999 18.3001C14.9999 21.6001 25.0999 22.7001 35.5999 20.1001C52.3999 15.9001 57.2999 5.30007 51.5999 0.700072C45.6999 -0.999928 36.0999 7.20024e-05 22.2999 7.00007Z" fill="url(#paint3_linear_1106_5000)"/>
<path d="M52.4001 59C49.9001 58.3 47.4001 54.6 62.6001 55.1C77.8001 55.6 87.7001 68.4 76.2001 69.9C67.8001 71 69.9001 63.6 52.4001 59Z" fill="url(#paint4_linear_1106_5000)"/>
<path d="M65.2999 14.5001C60.3999 13.6001 60.3999 9.60013 66.0999 8.80013C73.2999 7.70013 73.1999 15.9001 65.2999 14.5001Z" fill="url(#paint5_linear_1106_5000)"/>
<path d="M8.39969 31.2003C12.9997 33.3003 11.3997 38.1002 5.69969 37.1002C-0.100306 36.1002 2.19969 28.4003 8.39969 31.2003Z" fill="url(#paint6_linear_1106_5000)"/>
<path d="M12.7 39.2999C13.3 40.0999 12.4 40.8999 11.5 40.1999C10.6 39.4999 11.9 38.1999 12.7 39.2999Z" fill="#FFDF43"/>
<path d="M15.5 6.89992C19.2 3.99992 16.8 -7.53403e-05 11.8 3.59992C6.79999 7.29992 10.4 10.9999 15.5 6.89992Z" fill="#FFAF43"/>
<path d="M62.2999 6.40001C60.5999 6.40001 59.7999 4.80001 61.5999 3.80001C66.7999 0.900005 67.5999 6.40001 62.2999 6.40001Z" fill="#FFAF43"/>
<path d="M128.6 68.2003C117.2 70.0003 115.4 61.5003 123.8 58.2003C138.7 52.2003 143.2 65.9003 128.6 68.2003Z" fill="url(#paint7_linear_1106_5000)"/>
<path d="M140.3 59.3001C138.7 58.8001 138.7 56.9001 140.8 56.6001C145.5 55.9001 145.9 61.0001 140.3 59.3001Z" fill="#FFAF43"/>
<path d="M77.4 6.69997C77.1 6.69997 76.8 6.59997 76.5 6.29997C76 5.89997 76 4.99997 76.5 4.49997L77.7 3.19997C78.1 2.69997 78.8 2.69997 79.3 2.99997L80.1 3.49997L80.6 2.79997C81 2.09997 81.8 1.99997 82.4 2.39997C83 2.79997 83.2 3.59997 82.8 4.19997L81.6 5.89997C81.2 6.49997 80.4 6.69997 79.8 6.29997L78.8 5.69997L78.3 6.19997C78.1 6.59997 77.8 6.69997 77.4 6.69997Z" fill="url(#paint8_linear_1106_5000)"/>
<path d="M91.2 66.5999C91.1 66.5999 91 66.5999 90.9 66.5999L87.9 65.8999C87.6 65.7999 87.3 65.5999 87.1 65.2999C86.9 64.9999 86.9 64.5999 87 64.2999L87.3 62.9999L86.2 62.6999C85.5 62.4999 85.1 61.7999 85.3 61.0999C85.5 60.3999 86.2 59.9999 86.9 60.1999L89.2 60.8999C89.9 61.0999 90.3 61.7999 90.1 62.4999L89.8 63.7999L91.5 64.1999C92.2 64.3999 92.6 65.0999 92.5 65.7999C92.3 66.1999 91.8 66.5999 91.2 66.5999Z" fill="url(#paint9_linear_1106_5000)"/>
<path d="M33.9998 59.6002C33.4998 59.6002 33.0998 59.3002 32.7998 58.9002L31.6998 56.8002L28.9998 57.9002C28.3998 58.1002 27.6998 57.9002 27.3998 57.4002L26.1998 55.4002C25.7998 54.8002 25.9998 54.0002 26.5998 53.6002C27.1998 53.2002 27.9998 53.4002 28.3998 54.0002L28.9998 55.0002L31.6998 53.9002C32.2998 53.6002 32.9998 53.9002 33.2998 54.5002L34.9998 57.7002C35.2998 58.3002 35.0998 59.1002 34.4998 59.5002C34.4998 59.6002 34.1998 59.6002 33.9998 59.6002Z" fill="url(#paint10_linear_1106_5000)"/>
<path d="M109.1 15.5002C112.7 16.2002 113.8 12.0002 110.4 11.6002C107.1 11.1002 104.9 14.7002 109.1 15.5002Z" fill="url(#paint11_linear_1106_5000)"/>
<path d="M116.2 12.7C114 12.3 113.8 14.2 116.1 14.6C118.5 15 118.1 13.1 116.2 12.7Z" fill="#FFAF43"/>
<path opacity="0.25" d="M24.5997 17.4999L25.3997 17.2999L25.1997 15.8999L22.6997 16.9999L22.1997 21.1999C22.1997 21.1999 22.3997 22.8999 24.0997 22.5999C25.7997 22.2999 25.4997 20.6999 25.2997 19.8999C24.9997 19.1999 24.5997 17.4999 24.5997 17.4999Z" fill="#CE5800"/>
<path opacity="0.25" d="M30.0998 18C29.4998 17.5 28.0998 15.9 27.3998 15.1C27.6998 14.1 28.2998 12.1 28.3998 11.7C28.5998 11.1 28.3998 10.4 27.4998 10C26.4998 11.8 26.2998 15.5 26.2998 15.5H26.4998L27.9998 20.3C28.8998 21.3 30.2998 21.1 30.8998 20.4C31.4998 19.6 30.8998 18.6 30.0998 18Z" fill="#CE5800"/>
<path opacity="0.25" d="M24.0999 15.2998C24.0999 15.2998 23.4999 12.4998 23.2999 11.7998C23.0999 11.0998 22.5999 10.7998 21.3999 10.9998L22.8999 15.4998C22.7999 15.5998 24.0999 15.2998 24.0999 15.2998Z" fill="#CE5800"/>
<path opacity="0.25" d="M30 10.0001C30.2 10.6001 30.3 11.4001 31.4 11.1001C32.6 10.8001 32.7 10.2001 32.6 9.6001C31.1 9.7001 30 10.0001 30 10.0001Z" fill="#CE5800"/>
<path opacity="0.25" d="M32.1997 19.0001C32.4997 19.8001 32.6997 20.5001 33.9997 20.2001C35.2997 19.9001 35.3997 19.5001 35.3997 19.0001C35.3997 18.5001 34.2997 13.9001 34.0997 13.0001C33.8997 12.1001 33.4997 11.6001 32.4997 11.6001C33.0997 13.7001 32.1997 19.0001 32.1997 19.0001Z" fill="#CE5800"/>
<path opacity="0.25" d="M36.2998 17.0001C36.9998 18.2001 38.1998 19.0001 39.6998 18.8001C41.1998 18.6001 41.9998 18.0001 42.2998 16.6001C41.4998 15.4001 40.9998 16.4001 40.9998 16.4001C40.9998 16.4001 41.7998 18.2001 43.3998 18.0001C44.9998 17.9001 45.2998 16.9001 44.8998 15.7001C44.4998 14.5001 43.2998 9.40009 42.9998 8.20009C42.6998 7.10009 42.2998 6.10009 40.9998 6.30009C41.8998 8.20009 41.7998 15.1001 41.7998 15.1001L40.2998 16.4001L36.2998 17.0001Z" fill="#CE5800"/>
<path opacity="0.25" d="M38.5001 15.5003C37.8001 14.3003 38.2001 13.1003 39.2001 12.7003C40.2001 12.2003 41.3001 13.1003 41.3001 13.1003L40.5001 11.7003C40.5001 11.7003 39.0001 11.1003 38.4001 11.5003C37.9001 11.9003 37.1001 11.8003 37.1001 12.8003C37.1001 13.8003 37.7001 15.0003 37.7001 15.0003L38.5001 15.5003Z" fill="#CE5800"/>
<path opacity="0.25" d="M46.1001 15.8003C46.3001 16.2003 47.1001 17.0003 49.0001 16.8003C50.9001 16.6003 52.0001 15.3003 52.2001 14.3003C52.5001 13.4003 51.9001 12.0003 50.3001 11.3003C51.0001 13.1003 49.1001 16.7003 46.1001 15.8003Z" fill="#CE5800"/>
<path opacity="0.25" d="M48.2997 11.1001C47.5997 10.8001 47.7997 10.3001 48.8997 10.4001C49.9997 10.5001 51.2997 9.8001 49.9997 8.1001C47.8997 8.5001 46.0997 9.3001 46.0997 9.3001C46.0997 9.3001 45.4997 10.9001 45.8997 11.1001C46.1997 11.4001 47.8997 11.7001 47.8997 11.7001L48.2997 11.1001Z" fill="#CE5800"/>
<path d="M21.2 11.1001C21.9 10.9001 22.7 11.4001 22.8 12.1001L23.5 15.0001L24.6 14.7001L25.7 10.7001C25.8 10.2001 26.2 9.90013 26.6 9.80013C27.5 9.60013 28.4 10.5001 28.1 11.4001L27 15.2001L29.9 18.4001C30.6 19.2001 30.2 20.4001 29.2 20.6001C28.7 20.7001 28.2 20.6001 27.9 20.2001L25.1 16.9001L24 17.2001L24.7 20.3001C24.9 21.0001 24.4 21.7001 23.7 21.9001H23.6C22.9 22.1001 22.2 21.6001 22 20.9001L20 12.6001C20 12.0001 20.4 11.2001 21.2 11.1001Z" fill="#FF4817"/>
<path d="M31.4998 11.8001L32.0998 11.7001C32.6998 11.6001 33.1998 11.9001 33.3998 12.5001L34.7998 18.3001C34.8998 18.9001 34.5998 19.4001 33.9998 19.6001L33.3998 19.7001C32.7998 19.8001 32.2998 19.5001 32.0998 18.9001L30.6998 13.1001C30.5998 12.5001 30.8998 11.9001 31.4998 11.8001ZM30.7998 8.8001L31.2998 8.7001C31.8998 8.6001 32.3998 8.9001 32.5998 9.5001C32.6998 10.1001 32.3998 10.6001 31.7998 10.8001L31.2998 10.9001C30.6998 11.0001 30.1998 10.7001 29.9998 10.1001C29.8998 9.5001 30.2998 8.9001 30.7998 8.8001Z" fill="#FF4817"/>
<path d="M38 10.0999C38.7 9.89991 39.6 9.79991 40.2 10.1999C40.2 10.1999 40.1 10.0999 40.1 9.89991L39.7 7.99991C39.5 7.29991 40 6.49991 40.7 6.39991C41.4 6.19991 42.2 6.69991 42.3 7.39991L44.4 15.9999C44.6 16.6999 44.1 17.3999 43.5 17.4999C42.8 17.6999 42.1 17.2999 42 16.5999C41.7 17.4999 40.9 18.0999 40 18.2999C37.9 18.7999 36.1 17.4999 35.5 14.9999C34.8 12.4999 35.9 10.5999 38 10.0999ZM40.1 15.8999C40.9 15.6999 41.5 14.9999 41.2 13.5999C41 12.6999 40.3 11.7999 39.2 12.0999C38.4 12.2999 37.8 13.0999 38.1 14.2999C38.3 15.5999 39.1 16.1999 40.1 15.8999Z" fill="#FF4817"/>
<path d="M45.9002 14.7C46.1002 14.2 46.6002 13.9 47.2002 14C47.7002 14.1 48.2002 14.1 48.6002 14C49.1002 13.9 49.3002 13.7 49.2002 13.4C49.0002 12.6 45.4002 13.6 44.8002 11C44.4002 9.40002 45.7002 8.20002 47.5002 7.70002C48.1002 7.60002 48.8002 7.50002 49.4002 7.60002C50.0002 7.70002 50.4002 8.30001 50.3002 8.90001C50.2002 9.40001 49.7002 9.80001 49.1002 9.70002C48.7002 9.70002 48.3002 9.70002 47.9002 9.80002C47.3002 9.90002 47.2002 10.1 47.3002 10.4C47.5002 11.2 51.1002 10.1 51.7002 12.7C52.0002 14.2 51.1002 15.6 49.1002 16C48.3002 16.2 47.5002 16.2 46.7002 16C46.1002 16 45.7002 15.3 45.9002 14.7Z" fill="#FF4817"/>
<path opacity="0.3" d="M26.9997 15.2001L28.0997 11.4001C28.3997 10.5001 27.4997 9.60013 26.5997 9.80013C26.0997 9.90013 25.7997 10.3001 25.6997 10.7001L24.5997 14.7001L23.4997 15.0001L22.7997 12.1001C22.5997 11.4001 21.8997 10.9001 21.1997 11.1001C20.4997 11.3001 19.9997 12.0001 20.1997 12.7001L21.7997 19.4001C22.7997 19.2001 23.6997 18.9001 24.3997 18.5001L23.9997 17.2001L25.0997 16.9001L25.6997 17.6001C26.3997 17.0001 26.9997 16.3001 27.3997 15.6001L26.9997 15.2001Z" fill="url(#paint12_linear_1106_5000)"/>
<path opacity="0.3" d="M33.7996 14.3001L33.3996 12.5001C33.2996 11.9001 32.6996 11.6001 32.0996 11.7001L31.4996 11.8001C30.8996 11.9001 30.5996 12.5001 30.6996 13.1001L31.4996 16.5001C32.6996 15.9001 33.3996 15.1001 33.7996 14.3001Z" fill="url(#paint13_linear_1106_5000)"/>
<path opacity="0.3" d="M31.2998 10.8L31.7998 10.7C32.3998 10.6 32.6998 10 32.5998 9.4C32.4998 8.8 31.8998 8.5 31.2998 8.6L30.7998 8.7C30.2998 8.9 29.8998 9.5 29.9998 10C30.1998 10.6 30.6998 10.9 31.2998 10.8Z" fill="url(#paint14_linear_1106_5000)"/>
<path opacity="0.3" d="M43.3997 11.7999L42.2997 7.39991C42.0997 6.69991 41.3997 6.19991 40.6997 6.39991C39.9997 6.59991 39.4997 7.29991 39.6997 7.99991L40.0997 9.79991C40.0997 9.99991 40.1997 10.0999 40.1997 10.0999C39.5997 9.69991 38.6997 9.79991 37.9997 9.99991C35.8997 10.4999 34.7997 12.4999 35.3997 14.8999C35.4997 15.2999 35.5997 15.6999 35.7997 15.9999C36.3997 15.9999 37.5997 15.8999 38.7997 15.5999C38.4997 15.2999 38.1997 14.8999 37.9997 14.2999C37.6997 13.0999 38.2997 12.2999 39.0997 12.0999C40.0997 11.8999 40.8997 12.6999 41.0997 13.5999C41.1997 13.9999 41.1997 14.3999 41.1997 14.6999C42.2997 14.0999 43.1997 13.1999 43.3997 11.7999Z" fill="url(#paint15_linear_1106_5000)"/>
<path opacity="0.3" d="M48.5997 13.1001C49.3997 12.8001 50.2997 12.4001 50.8997 11.5001C49.5997 10.6001 47.4997 11.1001 47.2997 10.5001C47.1997 10.3001 47.3997 10.1001 47.8997 9.90011C48.2997 9.80011 48.6997 9.80011 49.0997 9.80011C49.5997 9.90011 50.0997 9.50011 50.2997 9.00011C50.3997 8.40011 49.9997 7.80011 49.3997 7.70011C48.7997 7.60011 48.0997 7.70011 47.4997 7.80011C45.6997 8.20011 44.3997 9.40011 44.7997 11.1001C45.1997 13.0001 47.3997 12.9001 48.5997 13.1001Z" fill="url(#paint16_linear_1106_5000)"/>
<path opacity="0.3" d="M4.49986 30.9003C2.49986 31.5003 2.39986 35.7003 6.89986 35.0003C11.4999 34.3003 8.39986 29.8003 4.49986 30.9003Z" fill="url(#paint17_linear_1106_5000)"/>
<path opacity="0.3" d="M124.3 58.3003C118.4 60.3003 122 65.6003 127.7 64.0003C133.5 62.3003 135.4 54.5003 124.3 58.3003Z" fill="url(#paint18_linear_1106_5000)"/>
<path opacity="0.3" d="M65.5 9.00008C62.6 9.70008 61.8 12.4001 65.8 11.8001C69.8 11.1001 69.3 8.00008 65.5 9.00008Z" fill="url(#paint19_linear_1106_5000)"/>
<path opacity="0.3" d="M31.9 53.9002L29.2 55.0002L28.6 54.0002C28.2 53.4002 27.4 53.2002 26.8 53.6002C26.2 54.0002 26 54.8002 26.4 55.4002L27.6 57.4002C27.9 58.0002 28.6 58.2002 29.2 57.9002L31.9 56.8002C32.7 55.8002 33 54.7002 33.1 54.0002C32.6 53.8002 32.2 53.8002 31.9 53.9002Z" fill="url(#paint20_linear_1106_5000)"/>
<path opacity="0.3" d="M90.2 62.1003C90.2 61.5003 89.9 60.9003 89.2 60.8003L86.9 60.1003C86.2 59.9003 85.5 60.3003 85.3 61.0003C85.1 61.7003 85.5 62.4003 86.2 62.6003L87.3 62.9003L87 64.0003C88.9 63.9003 89.8 63.0003 90.2 62.1003Z" fill="url(#paint21_linear_1106_5000)"/>
<path opacity="0.3" d="M76.1001 5.30008C77.3001 5.50008 80.7001 5.80008 82.9001 2.90008C82.8001 2.70008 82.6001 2.50008 82.4001 2.30008C81.8001 2.00008 81.0001 2.10008 80.6001 2.80008L80.1001 3.50008L79.3001 3.00008C78.8001 2.70008 78.1001 2.80008 77.7001 3.20008L76.5001 4.50008C76.2001 4.80008 76.1001 5.00008 76.1001 5.30008Z" fill="url(#paint22_linear_1106_5000)"/>
<path d="M78.3998 65.9C76.1998 66.6 73.5998 64.3 70.9998 61.5C68.3998 58.7 64.3998 57 66.5998 56.3C70.0998 55.3 83.9998 64 78.3998 65.9Z" fill="url(#paint23_linear_1106_5000)"/>
<path opacity="0.18" d="M19.6001 48.7C20.4001 51 22.3001 52.7 24.7001 51.8C27.2001 51 27.5001 49.3 27.2001 47.7C26.8001 46 26.3001 44.2 26.3001 44.2C26.3001 44.2 32.4001 42.7 35.2001 40.5C37.9001 38.4 38.7001 35.3 37.0001 30.5C35.4001 33.7 31.2001 38.8 31.2001 38.8L26.8001 41.4L23.2001 42.2L21.8001 44.3V49.1L19.6001 48.7Z" fill="#041A35"/>
<path opacity="0.18" d="M25.1999 39.8L24.0999 35.1C24.0999 35.1 26.7999 33.5 28.1999 33.2C29.4999 32.9 29.8999 33.2 29.8999 33.2L30.0999 32H26.9999L21.6999 34.3L20.8999 35.6L23.1999 41.7L25.1999 39.8Z" fill="#041A35"/>
<path opacity="0.18" d="M39.9002 42.4002C39.9002 42.4002 39.4002 45.9002 44.1002 46.8002C48.8002 47.7002 53.5002 42.7002 53.5002 42.7002L52.9002 41.0002L51.1002 41.8002C51.1002 41.8002 51.3002 45.6002 53.1002 45.7002C54.8002 45.8002 56.8002 45.6002 57.9002 45.3002C59.0002 45.0002 59.3002 44.4002 59.2002 42.8002C59.1002 41.2002 58.9002 31.8002 58.7002 30.1002C58.5002 28.4002 56.2002 26.5002 53.3002 26.2002C55.5002 31.2002 54.8002 36.0002 54.8002 36.0002L49.9002 41.6002L43.8002 43.2002L39.9002 42.4002Z" fill="#041A35"/>
<path opacity="0.18" d="M46.2998 40.7999C46.2998 40.7999 48.0998 37.1999 51.9998 37.5999C52.2998 35.4999 51.6998 35.3999 51.6998 35.3999C51.6998 35.3999 47.5998 36.1999 46.6998 37.2999C45.7998 38.3999 45.2998 38.7999 45.2998 39.2999C45.2998 39.6999 46.2998 40.7999 46.2998 40.7999Z" fill="#041A35"/>
<path opacity="0.18" d="M41.3999 33.2002C42.6999 34.4002 43.5999 34.8002 44.6999 34.1002C45.7999 33.4002 49.4999 31.2002 51.8999 32.3002C51.6999 30.0002 48.7999 29.7002 48.7999 29.7002L44.4999 30.2002L41.3999 33.2002Z" fill="#041A35"/>
<path opacity="0.18" d="M62.6001 40.9999C62.6001 42.4999 62.8001 45.0999 65.6001 45.2999C68.3001 45.3999 69.8001 44.7999 70.4001 43.2999C71.0001 41.7999 71.1001 37.3999 71.2001 34.5999C71.3001 31.7999 74.5001 30.5999 76.5001 29.8999C78.5001 29.1999 80.3001 23.4999 77.0001 22.3999C75.4001 26.8999 70.7001 27.7999 70.7001 27.7999C70.7001 27.7999 71.8001 23.2999 67.9001 23.1999C66.6001 25.9999 62.6001 40.9999 62.6001 40.9999Z" fill="#041A35"/>
<path opacity="0.18" d="M80 25C80 25 79.2 27.4 80.4 28.2C81.5 29.1 83.9 28.9 83.9 28.9L81.7 38.9C81.7 38.9 81.7 44.7 86.3 46.5C90.2 48.1 93.3 47.5 93.6 45.3C93.8 43.4 94.7 39.7 91.4 39C88.3 41 87.7 41.7 87.7 41.7L85.8 25.1L80 25Z" fill="#041A35"/>
<path opacity="0.18" d="M123.9 24.8003C119.9 25.7003 118.5 27.2003 118.5 27.2003L102.1 55.0003H93.8999C94.1999 56.7003 94.6999 59.3003 99.7999 59.5003C104.9 59.7003 106.6 56.3003 109.6 51.5003C111.1 49.1003 114.7 43.2003 118 38.1003C118.3 38.3003 118.7 38.5003 119.2 38.6003C123 39.5003 123.2 35.0003 120.3 34.8003C120.2 34.8003 120.2 34.8003 120.1 34.8003C122.3 31.3003 123.9 28.8003 123.9 28.8003C123.9 28.8003 124.7 26.8003 123.9 24.8003Z" fill="#041A35"/>
<path opacity="0.18" d="M105.3 22C109.2 23.4 109.3 25.3 109.6 26.6C109.8 27.9 110.3 37.6 110.3 37.6L108.2 38.6L105.3 22Z" fill="#041A35"/>
<path opacity="0.18" d="M89.5 29.0001C89.5 29.0001 92.1 29.0001 93.5 29.1001C94.9 29.2001 95.9 28.0001 96.2 26.8001C96.5 25.6001 97.2 22.5001 94.3 21.6001C90.5 23.9001 89.5 27.8001 89.5 27.8001V29.0001Z" fill="#041A35"/>
<path d="M16.6998 37.6999C16.0998 35.4999 17.0998 33.2999 19.0998 32.1999C21.6998 30.7999 24.2998 29.4999 26.9998 28.1999C30.7998 26.3999 36.5998 26.1999 37.2998 31.8999C37.8998 37.1999 33.5998 40.9999 29.5998 42.2999C27.7998 42.8999 26.8998 43.1999 25.1998 43.7999C25.4998 44.9999 25.6998 46 25.8998 46.9C26.1998 48.5 25.2998 50.0999 23.6998 50.5999C23.6998 50.5999 23.6998 50.5999 23.5998 50.5999C21.8998 51.1999 19.9998 50.1 19.4998 48.4C18.4998 44.8 17.5998 41.2999 16.6998 37.6999ZM27.3998 38.4999C29.6998 37.5999 30.5998 36 30.2998 34.4C29.9998 32.6999 28.6998 32.0999 26.4998 32.9999C25.0998 33.5999 24.4998 33.8999 23.0998 34.4999C23.4998 36.5999 23.7998 37.5999 24.1998 39.6999C25.4998 39.2999 26.0998 38.9999 27.3998 38.4999ZM50.5998 33.4C50.7998 33.4 50.9998 33.2999 51.1998 33.2999C51.1998 33.1999 51.1998 33.0999 51.1998 32.9999C51.0998 31.4999 49.6998 31.2999 48.0998 31.5999C46.6998 31.8999 45.1998 32.6999 43.9998 33.5999C43.1998 34.1999 41.9998 33.9999 41.3998 33.1999C41.2998 33.0999 41.1998 32.9999 41.0998 32.7999C40.3998 31.9999 40.4998 30.6999 41.3998 29.9999C43.5998 28.3999 45.9998 27.2999 48.4998 26.4999C52.5998 25.1999 58.2998 26.1999 58.2998 32.0999C58.2998 35.4999 58.3998 38.8999 58.3998 42.2999C58.3998 43.2999 57.5998 44.1999 56.5998 44.2999C55.8998 44.3999 55.1998 44.3999 54.4998 44.4999C53.3998 44.5999 52.3998 43.6999 52.3998 42.4999C52.3998 42.3999 52.3998 42.4 52.3998 42.4C52.3998 42.4 52.3998 42.4 52.2998 42.4C51.0998 44.2999 48.7998 45.3999 46.6998 45.7999C43.9998 46.1999 40.3998 44.9999 39.8998 41.7999C38.9998 36.6999 47.0998 34.1 50.5998 33.4ZM48.1998 41.0999C50.0998 40.7999 51.4998 38.7999 51.3998 37.2999C51.3998 36.9999 51.0998 36.7999 50.8998 36.9H50.7998C48.6998 37.2999 46.0998 38.2999 46.1998 39.9C46.1998 40.6999 46.8998 41.2999 48.1998 41.0999ZM64.9998 23.3999C65.6998 23.2999 66.3998 23.1999 67.0998 23.0999C68.6998 22.8999 70.0998 24.0999 69.9998 25.6999C69.9998 25.8999 69.9998 26.0999 69.9998 26.1999C69.9998 26.8999 69.7998 27.4999 69.7998 27.4999H69.8998C71.0998 24.2999 73.0998 22.6999 74.8998 21.9999C76.5998 21.2999 78.3998 22.5999 78.1998 24.3999L78.0998 25.2999C77.8998 27.0999 76.6998 28.6999 74.9998 29.2999C72.7998 29.9999 70.0998 31.6999 69.7998 35.5999C69.6998 37.2999 69.5998 38.9999 69.4998 40.6999C69.4998 42.5999 67.9998 43.9999 66.2998 43.9999C66.1998 43.9999 66.0998 43.9999 65.9998 43.9999C64.0998 43.9999 62.5998 42.4999 62.6998 40.5999C62.7998 35.6999 62.8998 30.7999 62.8998 25.8999C62.8998 24.6999 63.7998 23.5999 64.9998 23.3999ZM82.5998 27.8999C82.4998 27.8999 82.2998 27.8999 82.1998 27.8999C80.8998 27.8999 79.7998 26.7999 79.8998 25.3999L80.0998 23.7999C80.1998 22.6999 81.0998 21.8999 82.1998 21.7999C82.5998 21.7999 82.9998 21.7999 83.5998 21.6999C83.7998 19.7999 83.9998 18.5999 84.0998 17.0999C84.1998 15.8999 85.1998 14.8999 86.4998 14.7999C87.3998 14.6999 88.2998 14.6999 89.1998 14.5999C90.8998 14.4999 92.1998 15.9999 91.9998 17.5999C91.7998 18.7999 91.6998 19.8999 91.3998 21.3999C92.1998 21.3999 92.8998 21.3999 93.5998 21.3999C95.1998 21.3999 96.2998 22.7999 96.0998 24.2999L95.7998 25.7999C95.5998 26.9999 94.4998 27.8999 93.1998 27.8999C92.3998 27.8999 91.5998 27.7999 90.3998 27.7999C89.8998 30.7999 89.6998 32.2999 89.2998 35.2999C88.9998 37.8999 89.9998 38.7999 91.1998 38.9999C92.5998 39.2999 93.4998 40.7999 93.1998 42.1999C93.0998 42.7999 92.9998 43.3999 92.8998 43.9999C92.6998 45.2999 91.5998 46.2999 90.1998 46.2999C86.7998 46.3999 80.9998 45.2999 81.6998 35.9999C81.8998 33.2999 82.2998 30.5999 82.5998 27.8999ZM121.6 22.9999C118.6 22.5999 115.6 24.0999 114.2 26.7999C112.8 29.3999 109.4 36.2999 109 37.0999C108.7 33.5999 108.4 29.3999 108.1 26.0999C107.9 23.3999 105.7 21.2999 103 21.1999H102.9C100.5 21.0999 98.6998 23.1999 99.1998 25.4999C100.6 32.2999 101.8 39.1999 102.7 46.0999C102.8 46.8999 102.6 47.7999 102.2 48.5C101.2 50.2 99.6998 50.2999 98.4998 50C96.9998 49.5999 95.2998 50.2999 94.4998 51.7C94.3998 51.7999 94.3998 51.9 94.2998 52C93.1998 53.7999 93.8998 56.0999 95.7998 57.0999C96.1998 57.2999 96.6998 57.5 97.0998 57.5999C101.3 58.6999 105.3 56.0999 107.6 52.0999C112.7 43.7999 118 35.3999 123.6 27.0999C124.7 25.5999 123.7 23.2999 121.6 22.9999Z" fill="url(#paint24_linear_1106_5000)"/>
<path d="M21.8 32.9002C20.5 33.5002 20.4 32.1002 21.8 31.3002C23.2 30.5002 26.1 29.1002 26.9 28.8002C27.7 28.5002 28.6 29.1002 26.6 30.0002C24.7 30.8002 23.4 32.2002 21.8 32.9002Z" fill="white"/>
<path d="M42.4 31.2003C41.4 31.8003 41.1 30.9003 42.1 30.1003C43 29.3003 45.2 28.2003 45.4 28.3003C45.7 28.3003 46.1 28.7003 44.8 29.3003C43.5 29.9003 43.2 30.7003 42.4 31.2003Z" fill="white"/>
<path d="M64.6 25.2002C64 25.3002 63.4 24.4002 64.6 23.9002C65.8 23.4002 67 23.6002 67.1 23.8002C67.2 24.0002 66.6 24.1002 65.9 24.4002C65.1 24.6002 65.1 25.1002 64.6 25.2002Z" fill="white"/>
<path d="M85.6999 17C84.8999 17.2 84.4999 16.2 85.4999 15.7C86.4999 15.2 88.7999 15.3 89.0999 15.4C89.4999 15.5 89.5999 16.1 87.9999 16.1C86.4999 16.1 86.7999 16.7 85.6999 17Z" fill="white"/>
<path d="M101.4 30.5002C100.5 30.8002 100.4 28.7002 100.1 27.6002C99.7999 26.5002 99.3999 24.4002 100.1 23.9002C100.8 23.4002 101.5 23.7002 101.6 26.1002C101.7 28.6002 102.2 30.2002 101.4 30.5002Z" fill="white"/>
<path d="M118.1 37.6001C122.7 38.7001 122.9 33.3001 119.4 33.0001C116 32.8001 114.2 36.7001 118.1 37.6001Z" fill="url(#paint25_linear_1106_5000)"/>
<path d="M118.2 33.4002C116.1 33.8002 115.5 36.1002 118.4 35.8002C121.3 35.5002 121.7 32.8002 118.2 33.4002Z" fill="url(#paint26_linear_1106_5000)"/>
<path d="M26.7001 54.8C26.1001 55.1 26.0001 54.3 26.8001 53.8C27.6001 53.2 27.5001 54.3 26.7001 54.8Z" fill="white"/>
<path d="M31.9 4.50007C30.7 4.90007 30.2 4.00007 31.5 3.40007C32.8 2.80007 34.6 2.20007 34.9 2.40007C35.3 2.60007 34.9 3.40007 31.9 4.50007Z" fill="white"/>
<path d="M36.0999 2.49985C35.3999 2.59985 35.0999 2.19985 36.0999 1.89985C37.0999 1.59985 36.8999 2.29985 36.0999 2.49985Z" fill="white"/>
</g>
<defs>
<linearGradient id="paint0_linear_1106_5000" x1="105.7" y1="82.5573" x2="37.9249" y2="4.5913" gradientUnits="userSpaceOnUse">
<stop offset="8.2e-07" stop-color="#5957FF"/>
<stop offset="1" stop-color="#27ADFF"/>
</linearGradient>
<linearGradient id="paint1_linear_1106_5000" x1="100.841" y1="69.9019" x2="34.6703" y2="3.73121" gradientUnits="userSpaceOnUse">
<stop stop-color="white"/>
<stop offset="1" stop-color="white"/>
</linearGradient>
<linearGradient id="paint2_linear_1106_5000" x1="48.1893" y1="25.1479" x2="25.1778" y2="2.13639" gradientUnits="userSpaceOnUse">
<stop stop-color="#FFAF43"/>
<stop offset="1" stop-color="#FFDF43"/>
</linearGradient>
<linearGradient id="paint3_linear_1106_5000" x1="42.8453" y1="20.1306" x2="25.0149" y2="2.30017" gradientUnits="userSpaceOnUse">
<stop stop-color="white"/>
<stop offset="1" stop-color="white"/>
</linearGradient>
<linearGradient id="paint4_linear_1106_5000" x1="62.9683" y1="52.3937" x2="69.4416" y2="72.3164" gradientUnits="userSpaceOnUse">
<stop offset="8.2e-07" stop-color="#5957FF"/>
<stop offset="1" stop-color="#27ADFF"/>
</linearGradient>
<linearGradient id="paint5_linear_1106_5000" x1="63.444" y1="8.98343" x2="69.9309" y2="14.2364" gradientUnits="userSpaceOnUse">
<stop stop-color="#FFDF43"/>
<stop offset="1" stop-color="#FFAF43"/>
</linearGradient>
<linearGradient id="paint6_linear_1106_5000" x1="9.49019" y1="36.986" x2="3.6613" y2="31.1571" gradientUnits="userSpaceOnUse">
<stop stop-color="#FFAF43"/>
<stop offset="1" stop-color="#FFDF43"/>
</linearGradient>
<linearGradient id="paint7_linear_1106_5000" x1="133.183" y1="67.7417" x2="123.023" y2="57.5815" gradientUnits="userSpaceOnUse">
<stop stop-color="#FFAF43"/>
<stop offset="1" stop-color="#FFDF43"/>
</linearGradient>
<linearGradient id="paint8_linear_1106_5000" x1="81.3678" y1="6.25477" x2="77.9966" y2="2.88357" gradientUnits="userSpaceOnUse">
<stop stop-color="#3EBF85"/>
<stop offset="1" stop-color="#3EE555"/>
</linearGradient>
<linearGradient id="paint9_linear_1106_5000" x1="85.233" y1="63.3653" x2="92.5218" y2="63.3653" gradientUnits="userSpaceOnUse">
<stop stop-color="#3EE555"/>
<stop offset="1" stop-color="#3EBF85"/>
</linearGradient>
<linearGradient id="paint10_linear_1106_5000" x1="26.1013" y1="56.4929" x2="35.3499" y2="56.4929" gradientUnits="userSpaceOnUse">
<stop stop-color="#3EE555"/>
<stop offset="1" stop-color="#3EBF85"/>
</linearGradient>
<linearGradient id="paint11_linear_1106_5000" x1="111.44" y1="15.2641" x2="108.015" y2="11.8391" gradientUnits="userSpaceOnUse">
<stop stop-color="#FFAF43"/>
<stop offset="1" stop-color="#FFDF43"/>
</linearGradient>
<linearGradient id="paint12_linear_1106_5000" x1="26.6938" y1="16.6758" x2="20.9732" y2="10.9551" gradientUnits="userSpaceOnUse">
<stop stop-color="white"/>
<stop offset="1" stop-color="white"/>
</linearGradient>
<linearGradient id="paint13_linear_1106_5000" x1="33.2551" y1="15.1429" x2="30.6062" y2="12.494" gradientUnits="userSpaceOnUse">
<stop stop-color="white"/>
<stop offset="1" stop-color="white"/>
</linearGradient>
<linearGradient id="paint14_linear_1106_5000" x1="32.1702" y1="10.5646" x2="30.4791" y2="8.87361" gradientUnits="userSpaceOnUse">
<stop stop-color="white"/>
<stop offset="1" stop-color="white"/>
</linearGradient>
<linearGradient id="paint15_linear_1106_5000" x1="41.8254" y1="14.3705" x2="37.1388" y2="9.68391" gradientUnits="userSpaceOnUse">
<stop stop-color="white"/>
<stop offset="1" stop-color="white"/>
</linearGradient>
<linearGradient id="paint16_linear_1106_5000" x1="50.0002" y1="12.4134" x2="45.9326" y2="8.34581" gradientUnits="userSpaceOnUse">
<stop stop-color="white"/>
<stop offset="1" stop-color="white"/>
</linearGradient>
<linearGradient id="paint17_linear_1106_5000" x1="8.02276" y1="34.998" x2="4.09286" y2="31.0681" gradientUnits="userSpaceOnUse">
<stop stop-color="white"/>
<stop offset="1" stop-color="white"/>
</linearGradient>
<linearGradient id="paint18_linear_1106_5000" x1="129.716" y1="63.3248" x2="124.019" y2="57.6274" gradientUnits="userSpaceOnUse">
<stop stop-color="white"/>
<stop offset="1" stop-color="white"/>
</linearGradient>
<linearGradient id="paint19_linear_1106_5000" x1="67.134" y1="11.7553" x2="64.4787" y2="9.10008" gradientUnits="userSpaceOnUse">
<stop stop-color="white"/>
<stop offset="1" stop-color="white"/>
</linearGradient>
<linearGradient id="paint20_linear_1106_5000" x1="31.5518" y1="57.021" x2="27.3882" y2="52.8575" gradientUnits="userSpaceOnUse">
<stop stop-color="white"/>
<stop offset="1" stop-color="white"/>
</linearGradient>
<linearGradient id="paint21_linear_1106_5000" x1="89.1936" y1="63.3758" x2="85.9566" y2="60.1388" gradientUnits="userSpaceOnUse">
<stop stop-color="white"/>
<stop offset="1" stop-color="white"/>
</linearGradient>
<linearGradient id="paint22_linear_1106_5000" x1="80.6915" y1="5.26788" x2="78.152" y2="2.72838" gradientUnits="userSpaceOnUse">
<stop stop-color="white"/>
<stop offset="1" stop-color="white"/>
</linearGradient>
<linearGradient id="paint23_linear_1106_5000" x1="78.6013" y1="66.0635" x2="67.5918" y2="55.054" gradientUnits="userSpaceOnUse">
<stop stop-color="white"/>
<stop offset="1" stop-color="white"/>
</linearGradient>
<linearGradient id="paint24_linear_1106_5000" x1="70.283" y1="58.0913" x2="70.283" y2="14.6682" gradientUnits="userSpaceOnUse">
<stop stop-color="#9DDAFF"/>
<stop offset="1" stop-color="white"/>
</linearGradient>
<linearGradient id="paint25_linear_1106_5000" x1="120.895" y1="37.4015" x2="117.043" y2="33.5495" gradientUnits="userSpaceOnUse">
<stop stop-color="#FFAF43"/>
<stop offset="1" stop-color="#FFDF43"/>
</linearGradient>
<linearGradient id="paint26_linear_1106_5000" x1="119.651" y1="35.6331" x2="117.462" y2="33.4438" gradientUnits="userSpaceOnUse">
<stop stop-color="white"/>
<stop offset="1" stop-color="white"/>
</linearGradient>
<clipPath id="clip0_1106_5000">
<rect width="144.4" height="70" fill="white"/>
</clipPath>
</defs>
</svg>
