<svg width="122" height="70" viewBox="0 0 122 70" fill="none" xmlns="http://www.w3.org/2000/svg">
<g clip-path="url(#clip0_1106_5107)">
<path d="M27.2998 53.7998C43.4998 51.3998 68.4998 49.3998 93.6998 54.0998C105.4 56.2998 116.8 49.3998 120.7 37.7998C120.7 37.6998 120.7 37.6998 120.8 37.5998C124.8 24.8998 117.8 11.2998 105.3 7.59977C84.3998 1.29977 50.1998 -5.00023 16.4998 5.89977C3.99985 9.89977 -2.90015 23.6998 1.19985 36.5998C1.29985 36.7998 1.29985 36.9998 1.39985 37.1998C4.99985 48.4998 15.8998 55.4998 27.2998 53.7998Z" fill="url(#paint0_linear_1106_5107)"/>
<path opacity="0.25" d="M97.4998 30.7996C97.4998 30.7996 97.9998 27.5996 101.2 27.6996C95.5998 24.9996 93.8998 27.3996 93.9998 27.9996C94.0998 28.5996 92.5998 29.4996 94.2998 30.3996C95.9998 31.2996 97.4998 30.7996 97.4998 30.7996Z" fill="#CE5800"/>
<path opacity="0.25" d="M95.6997 33.5999C95.6997 33.5999 104.1 36.5999 105.5 36.7999C106.9 36.9999 107.7 36.5999 108.1 35.3999C108.4 34.1999 108.6 25.9999 101.6 23.3999C105.1 27.6999 107.1 34.8999 95.6997 33.5999Z" fill="#CE5800"/>
<path opacity="0.3" d="M83.1 2.39972C87.4 3.09972 87.6 9.19972 83.4 10.1997C43 19.7997 40 53.2997 12.9 42.8997C2.09999 38.6997 -2.40001 25.7997 3.69999 15.9997C6.59999 11.3997 11 7.69972 16.5 5.89972C40 -1.70028 63.8 -0.900276 83.1 2.39972ZM98.6 5.69972C90.1 3.79972 87.5 9.49973 98.6 12.0997C109.7 14.5997 110.1 8.29972 98.6 5.69972Z" fill="url(#paint1_linear_1106_5107)"/>
<path opacity="0.2" d="M19.1288 12.8162C19.6773 9.43617 17.382 6.25146 14.002 5.70291C10.622 5.15436 7.4373 7.44969 6.88875 10.8297C6.3402 14.2097 8.63553 17.3944 12.0155 17.9429C15.3955 18.4915 18.5802 16.1962 19.1288 12.8162Z" fill="#49270D"/>
<path opacity="0.2" d="M113.8 23.5997C115.291 23.5997 116.5 22.3909 116.5 20.8997C116.5 19.4085 115.291 18.1997 113.8 18.1997C112.308 18.1997 111.1 19.4085 111.1 20.8997C111.1 22.3909 112.308 23.5997 113.8 23.5997Z" fill="#49270D"/>
<path opacity="0.2" d="M95.3 54.3997C95 52.0997 93.3 46.1997 85 46.1997L85.6 52.8997C88.3 53.2997 91 53.6997 93.6 54.1997C94.2 54.1997 94.8 54.2997 95.3 54.3997Z" fill="#49270D"/>
<path d="M84.9998 66.8997H35.4998C31.7998 66.8997 28.7998 63.8997 28.7998 60.1997V52.8997C28.7998 49.1997 31.7998 46.1997 35.4998 46.1997H84.9998C88.6998 46.1997 91.6998 49.1997 91.6998 52.8997V60.1997C91.6998 63.8997 88.6998 66.8997 84.9998 66.8997Z" fill="url(#paint2_linear_1106_5107)"/>
<path opacity="0.2" d="M33.9998 66.6997C33.9998 63.3997 32.5998 60.7997 28.7998 60.1997V60.6997C28.9998 63.6997 31.1998 66.0997 33.9998 66.6997Z" fill="#49270D"/>
<path d="M35.2998 50.6997C35.2998 49.8997 35.9998 49.1997 36.7998 49.1997H39.8998C41.1998 49.1997 41.8998 49.2997 42.4998 49.4997C43.9998 50.0997 44.8998 51.3997 44.8998 53.2997C44.8998 54.6997 44.1998 56.1997 42.8998 56.8997C42.8998 56.8997 43.0998 57.0997 43.3998 57.6997L45.0998 60.7997C45.4998 61.4997 44.9998 62.2997 44.1998 62.2997H42.9998C42.5998 62.2997 42.2998 62.0997 42.0998 61.7997L39.9998 57.8997H38.4998V61.3997C38.4998 61.8997 38.0998 62.3997 37.4998 62.3997H36.2998C35.7998 62.3997 35.2998 61.9997 35.2998 61.3997V50.6997ZM39.8998 55.1997C40.8998 55.1997 41.5998 54.5997 41.5998 53.5997C41.5998 52.8997 41.3998 52.3997 40.7998 52.1997C40.4998 52.0997 40.0998 51.9997 39.5998 51.9997H38.4998V55.1997H39.8998Z" fill="white"/>
<path d="M51.5997 52.5996C54.5997 52.5996 56.9997 54.5996 56.9997 57.5996C56.9997 60.5996 54.5997 62.5996 51.5997 62.5996C48.5997 62.5996 46.1997 60.5996 46.1997 57.5996C46.1997 54.6996 48.5997 52.5996 51.5997 52.5996ZM51.5997 59.8996C52.7997 59.8996 53.7997 58.9996 53.7997 57.5996C53.7997 56.1996 52.7997 55.2996 51.5997 55.2996C50.3997 55.2996 49.3997 56.1996 49.3997 57.5996C49.3997 59.0996 50.3997 59.8996 51.5997 59.8996Z" fill="white"/>
<path d="M63.4996 52.5996C66.4996 52.5996 68.8996 54.5996 68.8996 57.5996C68.8996 60.5996 66.4996 62.5996 63.4996 62.5996C60.4996 62.5996 58.0996 60.5996 58.0996 57.5996C58.0996 54.6996 60.4996 52.5996 63.4996 52.5996ZM63.4996 59.8996C64.6996 59.8996 65.6996 58.9996 65.6996 57.5996C65.6996 56.1996 64.6996 55.2996 63.4996 55.2996C62.2996 55.2996 61.2996 56.1996 61.2996 57.5996C61.2996 59.0996 62.2996 59.8996 63.4996 59.8996Z" fill="white"/>
<path d="M71.2997 52.8997H72.7997C73.1997 52.8997 73.5997 53.2997 73.5997 53.6997C73.5997 53.9997 73.5997 54.2997 73.5997 54.2997C73.9997 53.5997 74.8997 52.6997 76.3997 52.6997C77.5997 52.6997 78.5997 53.1997 79.0997 54.2997C79.5997 53.4997 80.6997 52.6997 82.1997 52.6997C83.8997 52.6997 85.2997 53.5997 85.2997 56.2997V61.4997C85.2997 61.9997 84.8997 62.3997 84.3997 62.3997H82.9997C82.4997 62.3997 82.0997 61.9997 82.0997 61.4997V56.7997C82.0997 56.0997 81.9997 55.5997 81.3997 55.5997C79.9997 55.5997 79.5997 56.9997 79.5997 58.3997V61.4997C79.5997 61.9997 79.1997 62.3997 78.6997 62.3997H77.3997C76.8997 62.3997 76.4997 61.9997 76.4997 61.4997V56.7997C76.4997 56.0997 76.3997 55.5997 75.7997 55.5997C74.2997 55.5997 73.9997 57.0997 73.9997 58.3997V61.4997C73.9997 61.9997 73.5997 62.3997 73.0997 62.3997H71.7997C71.2997 62.3997 70.8997 61.9997 70.8997 61.4997V53.6997C70.4997 53.1997 70.7997 52.8997 71.2997 52.8997Z" fill="white"/>
<path d="M117.6 54.2998C118.704 54.2998 119.6 53.4044 119.6 52.2998C119.6 51.1952 118.704 50.2998 117.6 50.2998C116.495 50.2998 115.6 51.1952 115.6 52.2998C115.6 53.4044 116.495 54.2998 117.6 54.2998Z" fill="#008DD3"/>
<path d="M19.2 3.4C20.1389 3.4 20.9 2.63888 20.9 1.7C20.9 0.761116 20.1389 0 19.2 0C18.2611 0 17.5 0.761116 17.5 1.7C17.5 2.63888 18.2611 3.4 19.2 3.4Z" fill="#008DD3"/>
<path d="M27.5 70C30.2614 70 32.5 67.7614 32.5 65C32.5 62.2386 30.2614 60 27.5 60C24.7386 60 22.5 62.2386 22.5 65C22.5 67.7614 24.7386 70 27.5 70Z" fill="url(#paint3_linear_1106_5107)"/>
<path opacity="0.3" d="M23 64.7C23 64.8 23 64.9 23 65C23 66.3 24.2 67.4 25.5 67.3C25.5 67.3 25.5 67.3 25.6 67.3C27.8 67.2 29.6 65.4 29.8 63.1C29.8 63.1 29.8 63.1 29.8 63C29.9 61.7 28.8 60.5 27.5 60.5C27.4 60.5 27.3 60.5 27.2 60.5C24.9 60.7 23.1 62.5 23 64.7Z" fill="url(#paint4_linear_1106_5107)"/>
<path opacity="0.3" d="M35.2996 47.6997C30.7996 47.6997 27.7996 55.9997 35.6996 55.9997C43.5996 55.9997 70.8996 55.9997 78.4996 55.9997C86.0996 55.9997 87.0996 47.6997 77.8996 47.6997C68.6996 47.6997 42.2996 47.6997 35.2996 47.6997Z" fill="url(#paint5_linear_1106_5107)"/>
<path d="M9.3998 16.9998C13.5972 16.9998 16.9998 13.5972 16.9998 9.3998C16.9998 5.20244 13.5972 1.7998 9.3998 1.7998C5.20244 1.7998 1.7998 5.20244 1.7998 9.3998C1.7998 13.5972 5.20244 16.9998 9.3998 16.9998Z" fill="url(#paint6_linear_1106_5107)"/>
<path opacity="0.3" d="M2.59961 8.89971C2.59961 8.99971 2.59961 9.19971 2.59961 9.29971C2.59961 11.2997 4.39961 12.9997 6.39961 12.8997H6.49961C9.89961 12.6997 12.5996 9.89971 12.7996 6.59971V6.49971C12.8996 4.49971 11.2996 2.69971 9.19961 2.69971C9.09961 2.69971 8.89961 2.69971 8.79961 2.69971C5.49961 2.79971 2.79961 5.49971 2.59961 8.89971Z" fill="url(#paint7_linear_1106_5107)"/>
<path d="M98.2 63.6998C100.243 63.6998 101.9 62.0433 101.9 59.9998C101.9 57.9564 100.243 56.2998 98.2 56.2998C96.1565 56.2998 94.5 57.9564 94.5 59.9998C94.5 62.0433 96.1565 63.6998 98.2 63.6998Z" fill="url(#paint8_linear_1106_5107)"/>
<path opacity="0.3" d="M94.8999 59.7998C94.8999 59.8998 94.8999 59.8998 94.8999 59.9998C94.8999 60.9998 95.7999 61.7998 96.6999 61.6998C98.2999 61.5998 99.6999 60.2998 99.7999 58.5998C99.8999 57.5998 99.0999 56.7998 98.0999 56.7998C97.9999 56.7998 97.9999 56.7998 97.8999 56.7998C96.2999 56.7998 94.9999 58.0998 94.8999 59.7998Z" fill="url(#paint9_linear_1106_5107)"/>
<path d="M110.9 22.9997C113.054 22.9997 114.8 21.2536 114.8 19.0997C114.8 16.9458 113.054 15.1997 110.9 15.1997C108.746 15.1997 107 16.9458 107 19.0997C107 21.2536 108.746 22.9997 110.9 22.9997Z" fill="url(#paint10_linear_1106_5107)"/>
<path opacity="0.3" d="M107.5 18.8998C107.5 18.9998 107.5 18.9998 107.5 19.0998C107.5 20.0998 108.4 20.9998 109.4 20.8998C111.1 20.7998 112.5 19.3998 112.6 17.6998C112.7 16.6998 111.8 15.7998 110.8 15.7998C110.7 15.7998 110.7 15.7998 110.6 15.7998C108.9 15.7998 107.5 17.1998 107.5 18.8998Z" fill="url(#paint11_linear_1106_5107)"/>
<path opacity="0.25" d="M44.5996 39.1998C44.5996 39.1998 47.8996 41.1998 51.3996 38.2998C51.3996 38.9998 51.7996 39.5998 52.8996 39.5998C53.9996 39.5998 55.4996 39.5998 56.1996 39.5998C56.9996 39.5998 57.7996 38.8998 57.6996 37.3998C57.6996 35.8998 57.5996 27.2998 57.4996 25.7998C57.3996 24.2998 56.1996 20.1998 51.7996 19.2998C52.6996 25.6998 54.4996 32.9998 54.4996 33.2998C54.4996 33.5998 49.7996 35.9998 49.7996 35.9998L44.5996 39.1998Z" fill="#CE5800"/>
<path d="M50.2997 26.5996C50.4997 26.5996 50.5997 26.5996 50.7997 26.5996C50.7997 26.4996 50.7997 26.3996 50.7997 26.2996C50.6997 24.6996 49.4997 24.1996 48.1997 24.2996C46.9997 24.3996 45.7997 24.8996 44.7997 25.5996C43.9997 26.0996 43.0997 25.7996 42.5997 24.9996C42.3997 24.5996 42.1997 24.1996 41.9997 23.7996C41.4997 22.8996 41.6997 21.5996 42.5997 20.9996C44.1997 19.9996 46.3997 19.0996 48.5997 18.8996C52.7997 18.5996 56.6997 21.0996 56.7997 26.3996C56.8997 29.8996 56.8997 33.3996 56.9997 36.8996C56.9997 37.6996 56.4997 38.3996 55.7997 38.3996C54.8997 38.3996 54.1997 38.4996 53.2997 38.4996C52.5997 38.4996 51.9997 37.8996 51.9997 36.9996C51.9997 36.4996 51.9997 36.1996 51.9997 36.1996C51.9997 36.1996 51.9997 36.1996 51.8997 36.1996C50.8997 38.0996 48.9997 39.1996 47.0997 39.3996C43.8997 39.6996 41.3997 37.2996 41.1997 34.0996C40.6997 28.8996 46.4997 26.6996 50.2997 26.5996ZM48.2997 34.4996C49.8997 34.3996 51.0997 32.3996 50.9997 30.8996C50.9997 30.6996 50.9997 30.5996 50.9997 30.3996C50.7997 30.3996 50.6997 30.3996 50.4997 30.3996C48.6997 30.4996 46.4997 31.1996 46.5997 32.9996C46.6997 33.8996 47.2997 34.5996 48.2997 34.4996Z" fill="url(#paint12_linear_1106_5107)"/>
<path opacity="0.25" d="M17.5996 37.8998C17.5996 37.8998 21.6996 44.2998 28.2996 43.2998C34.9996 42.2998 35.8996 37.9998 35.8996 37.9998H33.5996C33.5996 37.9998 33.9996 40.7998 34.0996 41.3998C34.1996 41.9998 35.0996 41.9998 36.8996 41.6998C38.6996 41.4998 39.9996 41.2998 40.1996 40.2998C40.3996 39.1998 39.9996 35.3998 39.6996 32.9998C39.3996 30.5998 38.8996 26.9998 38.7996 25.9998C38.6996 24.9998 37.6996 24.6998 35.9996 24.8998C36.0996 27.2998 35.6996 34.5998 35.6996 34.5998L31.4996 37.5998L17.5996 37.8998Z" fill="#CE5800"/>
<path d="M25.3001 14.4997C27.7001 13.9997 30.9001 14.0997 33.5001 15.1997C34.6001 15.6997 35.1001 17.1997 34.6001 18.3997C34.4001 18.8997 34.2001 19.2997 34.0001 19.7997C33.6001 20.7997 32.6001 21.1997 31.7001 20.8997C30.2001 20.2997 28.3001 20.0997 26.8001 20.2997C23.0001 20.9997 19.9001 24.6997 20.7001 29.3997C21.5001 33.7997 25.0001 36.6997 28.8001 35.8997C30.3001 35.5997 31.8001 34.6997 33.0001 33.4997C33.3001 33.1997 33.4001 32.6997 33.2001 32.1997L33.0001 31.8997C32.8001 31.4997 32.5001 31.2997 32.1001 31.2997C31.8001 31.3997 31.3001 31.3997 31.1001 31.4997C30.4001 31.5997 29.7001 30.9997 29.6001 30.0997C29.5001 29.2997 29.4001 28.5997 29.3001 27.7997C29.0001 26.9997 29.5001 26.0997 30.3001 25.9997C32.5001 25.5997 34.1001 25.2997 36.3001 24.9997C37.1001 24.8997 37.8001 25.5997 37.9001 26.4997C38.3001 30.4997 38.7001 34.4997 39.1001 38.4997C39.2001 39.2997 38.7001 39.9997 38.0001 40.0997C37.2001 40.1997 36.6001 40.2997 35.8001 40.3997C35.1001 40.4997 34.5001 39.8997 34.4001 39.0997C34.4001 38.8997 34.4001 38.6997 34.4001 38.6997C34.4001 38.6997 34.4001 38.6997 34.3001 38.6997C33.1001 40.3997 30.8001 41.6997 28.6001 42.1997C22.2001 43.4997 16.2001 38.6997 14.7001 31.2997C13.0001 22.8997 18.7001 15.9997 25.3001 14.4997Z" fill="url(#paint13_linear_1106_5107)"/>
<path opacity="0.25" d="M60.5 36.7996C60.5 38.4996 60.6 39.4996 62.4 39.5996C64.2 39.6996 65.9 39.7996 66.4 39.2996C66.9 38.6996 66.8 37.3996 66.8 35.6996C66.8 33.9996 66.2 25.9996 68.5 24.9996C65.7 24.2996 63.1 25.7996 63.1 25.7996L60.5 36.7996Z" fill="#CE5800"/>
<path opacity="0.25" d="M64.4997 19C65.7997 19 67.1997 19.5 66.9997 21.7C66.8997 23.9 64.1997 22.5 64.1997 22.5L64.4997 19Z" fill="#CE5800"/>
<path opacity="0.25" d="M70.6 36.8997C70.5 38.4997 70.4 39.4997 71.8 39.6997C73.2 39.8997 75.3 40.2997 76.3 39.7997C77.3 39.2997 77.3 38.1997 77.3 36.0997C77.3 33.9997 77.3 27.5997 78.4 26.0997C76.1 24.2997 75 24.8997 75 24.8997L70.6 36.8997Z" fill="#CE5800"/>
<path opacity="0.25" d="M80.7 38.1C80.6 39.1 80.7 40.6 81.7 40.7C82.7 40.7 83 40.5 84 40.9C85 41.4 86.1 41.1 86.7 40.3C87.3 39.5 87.7 35.3 88 31.7C88.3 28.1 88.2 22.2 84.5 20.5C85.7 25.9 80.7 38.1 80.7 38.1Z" fill="#CE5800"/>
<path d="M62.0997 18.8999C62.9997 18.8999 63.6997 18.8999 64.5997 18.8999C65.4997 18.8999 66.2997 19.8999 66.1997 20.9999V21.0999C66.1997 21.2999 66.3997 21.3999 66.4997 21.2999C67.4997 19.9999 69.1997 18.5999 71.5997 18.6999C73.6997 18.7999 75.2997 19.8999 76.1997 21.6999C76.2997 21.9999 76.6997 22.0999 76.8997 21.7999C78.0997 20.4999 80.1997 19.3999 82.4997 19.5999C89.1997 20.2999 86.9997 32.2999 86.2997 38.0999C86.0997 39.3999 85.2997 40.3999 84.2997 39.7999C83.7997 39.4999 83.0997 39.2999 82.4997 39.4999C81.4997 39.7999 80.5997 38.7999 80.6997 37.6999C80.9997 34.3999 81.2997 31.1999 81.5997 27.8999C81.6997 26.4999 81.5997 25.3999 80.3997 25.2999C77.7997 24.9999 76.7997 27.7999 76.5997 30.6999C76.3997 33.3999 76.2997 34.9999 76.1997 37.2999C76.0997 38.1999 75.4997 38.8999 74.6997 38.7999C73.6997 38.6999 72.8997 38.6999 71.8997 38.5999C71.0997 38.4999 70.4997 37.7999 70.5997 36.8999C70.6997 33.5999 70.8997 30.2999 70.9997 26.9999C71.0997 25.5999 70.8997 24.4999 69.6997 24.4999C66.9997 24.3999 66.1997 27.3999 66.1997 30.0999C66.0997 32.7999 66.0997 34.3999 66.0997 36.6999C66.0997 37.5999 65.3997 38.2999 64.6997 38.2999C63.6997 38.2999 62.8997 38.2999 61.8997 38.2999C61.0997 38.2999 60.4997 37.5999 60.4997 36.5999C60.4997 31.2999 60.4997 25.9999 60.4997 20.6999C60.3997 19.7999 61.1997 18.8999 62.0997 18.8999Z" fill="url(#paint14_linear_1106_5107)"/>
<path opacity="0.25" d="M90.4 35.6997C90.4 35.6997 90.3 42.3997 96.9 44.2997C103.5 46.0997 107.1 43.5997 106.6 42.1997C106.1 40.7997 105.5 36.9997 103.3 37.6997C101.9 40.0997 100 40.6997 100 40.6997L90.4 35.6997Z" fill="#CE5800"/>
<path d="M100.6 22.9996C104.8 24.1996 108.2 28.8996 107 34.2996C106.7 35.3996 105.8 35.9996 104.9 35.7996C101.9 34.9996 98.8999 34.1996 95.7999 33.5996C95.8999 35.9996 97.3999 37.4996 99.1999 37.8996C100.4 38.1996 101.6 37.9996 102.8 37.5996C103.6 37.3996 104.3 37.8996 104.5 38.7996C104.7 39.3996 104.8 39.9996 104.9 40.6996C105.1 41.5996 104.7 42.4996 103.9 42.7996C102 43.4996 99.6999 43.4996 97.6999 43.0996C92.9999 42.1996 89.2999 36.5996 89.9999 31.0996C90.6999 25.5996 95.6999 21.5996 100.6 22.9996ZM100.9 30.9996C101.3 31.0996 101.7 30.6996 101.6 30.1996C101.5 28.9996 100.8 27.9996 99.5999 27.6996C97.8999 27.2996 96.8999 28.4996 96.2999 29.8996C98.1999 30.2996 99.2999 30.5996 100.9 30.9996Z" fill="url(#paint15_linear_1106_5107)"/>
<path d="M5.59971 3.99971C6.49971 3.09971 7.79971 2.79971 8.19971 3.19971C8.59971 3.59971 7.19971 3.99971 6.49971 4.69971C5.89971 5.39971 4.59971 5.09971 5.59971 3.99971Z" fill="white"/>
<path d="M96.0999 57.5997C96.6999 56.9997 97.5999 56.7997 97.8999 57.0997C98.1999 57.3997 97.1999 57.6997 96.7999 58.0997C96.2999 58.5997 95.3999 58.2997 96.0999 57.5997Z" fill="white"/>
<path d="M55.4001 1.9C53.3001 1.9 52.8001 0.5 56.0001 0.5C58.3001 0.5 59.9001 0.6 60.2001 1C60.6001 1.4 60.3001 1.7 59.3001 1.6C58.1001 1.5 56.9001 1.9 55.4001 1.9Z" fill="white"/>
<path d="M109.4 15.9998C108.3 16.5998 108.4 17.6998 109.9 16.7998C111.4 16.0998 110.6 15.3998 109.4 15.9998Z" fill="white"/>
<path d="M18.0996 23.8996C16.6996 26.0996 14.9996 24.6996 16.1996 22.4996C17.3996 20.2996 19.9996 17.6996 22.0996 16.7996C24.1996 15.9996 24.7996 17.3996 22.3996 18.3996C20.0996 19.3996 18.9996 22.4996 18.0996 23.8996Z" fill="white"/>
<path d="M31.5998 28.0999C29.5998 28.4999 28.9998 26.6999 31.1998 26.2999C33.4998 25.8999 35.5998 25.6999 35.7998 26.0999C36.0998 26.4999 33.8998 27.6999 31.5998 28.0999Z" fill="white"/>
<path d="M43.4999 22.9998C42.2999 23.4998 41.4999 21.8998 43.3999 20.8998C45.3999 19.8998 47.5999 19.1998 48.3999 19.5998C48.9999 19.8998 46.6999 20.7998 45.4999 21.2998C44.3999 21.7998 44.1999 22.5998 43.4999 22.9998Z" fill="white"/>
<path d="M61.7998 24.4999C60.6998 23.7999 60.4998 19.9999 61.9998 19.5999C63.3998 19.1999 64.7998 19.4999 64.8998 19.9999C64.9998 20.4999 63.0998 20.3999 62.6998 20.7999C62.2998 21.0999 62.7998 25.0999 61.7998 24.4999Z" fill="white"/>
<path d="M93.4001 26.9999C92.3001 27.0999 92.9 25.1999 95.1 24.0999C97.4001 22.9999 99.7001 22.9999 100.3 23.8999C101 24.7999 98.9 24.8999 96.7 25.0999C94.8 25.3999 94.6001 26.8999 93.4001 26.9999Z" fill="white"/>
</g>
<defs>
<linearGradient id="paint0_linear_1106_5107" x1="91.8556" y1="66.8418" x2="29.615" y2="-7.33374" gradientUnits="userSpaceOnUse">
<stop stop-color="#FF7300"/>
<stop offset="1" stop-color="#FFDF43"/>
</linearGradient>
<linearGradient id="paint1_linear_1106_5107" x1="0.964191" y1="22.4219" x2="107.061" y2="22.4219" gradientUnits="userSpaceOnUse">
<stop stop-color="white"/>
<stop offset="1" stop-color="white"/>
</linearGradient>
<linearGradient id="paint2_linear_1106_5107" x1="79.19" y1="75.4974" x2="41.2982" y2="37.6056" gradientUnits="userSpaceOnUse">
<stop stop-color="#FF881D"/>
<stop offset="1" stop-color="#FF531D"/>
</linearGradient>
<linearGradient id="paint3_linear_1106_5107" x1="30.9945" y1="68.5419" x2="23.9539" y2="61.5013" gradientUnits="userSpaceOnUse">
<stop stop-color="#1367D7"/>
<stop offset="1" stop-color="#27ADFF"/>
</linearGradient>
<linearGradient id="paint4_linear_1106_5107" x1="28.4328" y1="65.9802" x2="24.2921" y2="61.8395" gradientUnits="userSpaceOnUse">
<stop stop-color="white"/>
<stop offset="1" stop-color="white"/>
</linearGradient>
<linearGradient id="paint5_linear_1106_5107" x1="30.8289" y1="51.8612" x2="84.533" y2="51.8612" gradientUnits="userSpaceOnUse">
<stop stop-color="white"/>
<stop offset="1" stop-color="white"/>
</linearGradient>
<linearGradient id="paint6_linear_1106_5107" x1="14.7564" y1="14.7703" x2="4.0279" y2="4.0418" gradientUnits="userSpaceOnUse">
<stop stop-color="#1367D7"/>
<stop offset="1" stop-color="#27ADFF"/>
</linearGradient>
<linearGradient id="paint7_linear_1106_5107" x1="10.8527" y1="10.8667" x2="4.54301" y2="4.55701" gradientUnits="userSpaceOnUse">
<stop stop-color="white"/>
<stop offset="1" stop-color="white"/>
</linearGradient>
<linearGradient id="paint8_linear_1106_5107" x1="100.756" y1="62.6032" x2="95.5628" y2="57.4099" gradientUnits="userSpaceOnUse">
<stop stop-color="#1367D7"/>
<stop offset="1" stop-color="#27ADFF"/>
</linearGradient>
<linearGradient id="paint9_linear_1106_5107" x1="98.8664" y1="60.7136" x2="95.8122" y2="57.6594" gradientUnits="userSpaceOnUse">
<stop stop-color="white"/>
<stop offset="1" stop-color="white"/>
</linearGradient>
<linearGradient id="paint10_linear_1106_5107" x1="113.633" y1="21.8592" x2="108.176" y2="16.4017" gradientUnits="userSpaceOnUse">
<stop stop-color="#1367D7"/>
<stop offset="1" stop-color="#27ADFF"/>
</linearGradient>
<linearGradient id="paint11_linear_1106_5107" x1="111.648" y1="19.8736" x2="108.438" y2="16.6639" gradientUnits="userSpaceOnUse">
<stop stop-color="white"/>
<stop offset="1" stop-color="white"/>
</linearGradient>
<linearGradient id="paint12_linear_1106_5107" x1="48.9628" y1="39.5275" x2="48.9628" y2="18.915" gradientUnits="userSpaceOnUse">
<stop stop-color="#FFEEC8"/>
<stop offset="1" stop-color="white"/>
</linearGradient>
<linearGradient id="paint13_linear_1106_5107" x1="26.7157" y1="42.4684" x2="26.7157" y2="14.2335" gradientUnits="userSpaceOnUse">
<stop stop-color="#FFEEC8"/>
<stop offset="1" stop-color="white"/>
</linearGradient>
<linearGradient id="paint14_linear_1106_5107" x1="73.8448" y1="40.1957" x2="73.8448" y2="18.7846" gradientUnits="userSpaceOnUse">
<stop stop-color="#FFEEC8"/>
<stop offset="1" stop-color="white"/>
</linearGradient>
<linearGradient id="paint15_linear_1106_5107" x1="98.5747" y1="43.402" x2="98.5747" y2="22.7533" gradientUnits="userSpaceOnUse">
<stop stop-color="#FFEEC8"/>
<stop offset="1" stop-color="white"/>
</linearGradient>
<clipPath id="clip0_1106_5107">
<rect width="121.9" height="70" fill="white"/>
</clipPath>
</defs>
</svg>
