<svg width="103" height="70" viewBox="0 0 103 70" fill="none" xmlns="http://www.w3.org/2000/svg">
<g clip-path="url(#clip0_1106_4759)">
<path d="M0.0551758 13.8603C0.0551758 13.8603 5.40794 12.8781 11.9022 8.81821C19.7263 3.93982 22.2531 0 22.2531 0L18.1859 17.8656L0.0551758 13.8603Z" fill="#06CBAD"/>
<path d="M0 15.3882L18.0088 19.3607L10.772 51.1521C10.772 51.1521 9.91868 41.0461 6.97078 32.85C5.40817 28.4954 0 15.3882 0 15.3882Z" fill="#F6CD01"/>
<path d="M37.6134 22.3729C37.6134 22.3729 33.1916 19.2297 29.0801 12.8343C24.1263 5.12933 23.5389 0.501953 23.5389 0.501953L19.4717 18.3676L37.6134 22.3729Z" fill="#FE466C"/>
<path d="M27.7832 61.1819C21.965 59.8941 24.7134 73.0887 16.1246 69.3344C8.54428 66.0276 11.7914 52.2764 12.013 51.3487C12.013 51.3378 12.013 51.3378 12.0241 51.3269V51.316V51.3051L19.1168 20.103L37.1256 24.0538C37.1256 24.0538 26.5641 33.6359 23.2505 36.9209C20.9122 39.2455 18.7179 41.9521 16.9004 44.4077L17.8978 38.5252L16.446 42.476C15.8697 44.113 15.3821 45.6518 14.972 47.1143C9.02082 68.3849 20.1142 70.8296 22.4194 64.8598C24.6137 59.1411 27.7832 61.1819 27.7832 61.1819Z" fill="#866AFB"/>
<path d="M57.5059 27.5569C57.5059 28.4955 57.1623 29.3031 56.4752 29.9797C55.7881 30.6564 54.968 30.9947 54.015 30.9947C53.084 30.9947 52.275 30.6564 51.5879 29.9797C50.9008 29.3031 50.5684 28.4955 50.5684 27.5569C50.5684 26.6401 50.9119 25.8434 51.5879 25.1777C52.275 24.512 53.084 24.1846 54.015 24.1846C54.968 24.1846 55.7881 24.512 56.4752 25.1777C57.1623 25.8434 57.5059 26.6401 57.5059 27.5569Z" fill="#FE466C"/>
<path d="M30.532 24.8179C31.9838 24.8179 33.0255 25.178 33.6572 25.9092C34.2889 26.6404 34.6103 27.5681 34.6103 28.7031V42.6944C35.7628 41.2211 36.9154 39.7586 38.0791 38.3071C39.2427 36.8556 40.5172 35.4805 41.8914 34.1818C42.6006 33.516 43.321 33.0904 44.0635 32.9158C44.806 32.7412 45.6594 32.6539 46.6124 32.6539H50.0147V32.8612C49.5936 33.2105 48.973 33.8325 48.1307 34.6947C47.2885 35.5678 46.4019 36.5173 45.4599 37.565C44.5179 38.6018 43.587 39.6604 42.656 40.7409C41.7251 41.8213 40.9605 42.749 40.3398 43.5238C41.2929 44.6807 42.2349 45.8484 43.1991 47.0053C44.1522 48.1621 45.1607 49.2862 46.2024 50.3558C46.7343 50.8687 47.2109 51.2943 47.6209 51.6545C48.0421 52.0037 48.4189 52.2875 48.7735 52.5057C49.1281 52.7131 49.4606 52.8877 49.782 53.0296C50.1034 53.1606 50.4358 53.2915 50.7794 53.4007C50.458 54.3392 50.0258 55.0486 49.4606 55.5288C48.8954 56.0199 47.9977 56.26 46.7676 56.26C46.0916 56.26 45.4045 56.1182 44.6952 55.8235C43.9859 55.5288 43.3875 55.1359 42.8888 54.6448C41.3483 53.0842 39.9187 51.4689 38.5778 49.7882C37.2368 48.1076 35.9069 46.3941 34.5881 44.6479V56.0963L32.693 56.14C29.9779 56.1727 28.6147 54.7867 28.6147 52.0037V24.8288H30.532V24.8179Z" fill="#360872"/>
<path d="M61.7512 52.8216C61.7512 54.0985 61.4741 55.0043 60.9311 55.5391C60.3881 56.0739 59.4793 56.3467 58.2159 56.3467C55.9108 56.3467 54.1598 55.7246 52.9297 54.4805C51.7106 53.2363 51.1011 51.4247 51.1011 49.0455V33.188H52.7856C54.1044 33.188 55.1461 33.5372 55.8886 34.2466C56.6312 34.956 57.008 36.0474 57.008 37.5207V48.4998C57.008 49.6894 57.285 50.497 57.828 50.9335C58.3711 51.3701 59.3131 51.5774 60.6319 51.5774H61.7512V52.8216Z" fill="#360872"/>
<path d="M83.1063 45.3137C83.1063 47.0271 82.8958 48.5768 82.4747 49.9629C82.0535 51.3489 81.3775 52.5494 80.4687 53.5534C79.56 54.5575 78.3742 55.3324 76.9113 55.8671C75.4485 56.4019 73.7085 56.6747 71.6805 56.6747C70.1179 56.6747 68.655 56.3582 67.3029 55.7362C65.9509 55.1141 64.7762 54.2628 63.7788 53.1715C62.7814 52.0801 62.0056 50.825 61.4404 49.4063C60.8752 47.9875 60.5981 46.4705 60.5981 44.8553C60.5981 42.9345 60.8309 41.1883 61.2963 39.6167C61.7618 38.0561 62.4489 36.7137 63.3466 35.5896C64.2442 34.4764 65.3635 33.6143 66.7045 33.0358C68.0455 32.4465 69.5859 32.1518 71.3258 32.1518C71.9132 32.1518 72.5116 32.2391 73.1101 32.4247C73.7085 32.6102 74.2737 32.8721 74.8057 33.1995C75.3266 33.5269 75.8031 33.9198 76.2353 34.3782C76.6675 34.8366 77 35.3168 77.2216 35.8406V24.8179H79.028C80.4355 24.8179 81.4662 25.178 82.1089 25.9092C82.7517 26.6404 83.0842 27.6008 83.0842 28.7904V45.3137H83.1063ZM77.1551 45.0517C77.1551 43.5675 77 42.3124 76.6897 41.3084C76.3794 40.2934 75.9693 39.4749 75.4485 38.8528C74.9276 38.2307 74.3181 37.7723 73.6199 37.4886C72.9106 37.1939 72.1681 37.052 71.3812 37.052C70.6055 37.052 69.9184 37.2158 69.3089 37.5541C68.7104 37.8815 68.1895 38.3508 67.7684 38.9401C67.3473 39.5294 67.0148 40.2388 66.7821 41.0573C66.5494 41.8759 66.4275 42.749 66.4275 43.6984C66.4275 44.9208 66.5826 46.023 66.8929 47.0053C67.2032 47.9984 67.6243 48.8497 68.1563 49.5481C68.6882 50.2575 69.3089 50.7923 70.0292 51.1743C70.7496 51.5453 71.5364 51.7418 72.4008 51.7418C74.0632 51.7418 75.2822 51.1634 76.0358 49.9956C76.7783 48.8388 77.1551 47.1908 77.1551 45.0517Z" fill="#360872"/>
<path d="M102.667 48.7516C102.667 51.2399 101.814 53.1826 100.107 54.5795C98.4001 55.9764 95.9399 56.6749 92.7371 56.6749C91.6399 56.6749 90.6314 56.544 89.7116 56.282C88.7807 56.0201 87.9717 55.6818 87.2846 55.2561C86.5975 54.8305 86.0544 54.3394 85.6776 53.7937C85.3008 53.2371 85.1014 52.6587 85.1014 52.0475V49.4174H85.3119C85.6333 49.7011 86.0434 49.9849 86.5642 50.2577C87.0851 50.5305 87.6614 50.7706 88.3152 50.978C88.958 51.1854 89.6451 51.3382 90.3544 51.4582C91.0636 51.5673 91.7729 51.6328 92.4822 51.6328C95.3525 51.6328 96.7932 50.7816 96.7932 49.0681C96.7932 48.7298 96.7267 48.4351 96.5937 48.1841C96.4607 47.9331 96.228 47.7148 95.8734 47.5075C95.5187 47.3001 95.02 47.1255 94.3773 46.9618C93.7345 46.809 92.8922 46.6453 91.8505 46.4925C89.3237 46.1542 87.4397 45.4775 86.2207 44.4735C85.0016 43.4694 84.3921 42.0725 84.3921 40.2717C84.3921 39.1804 84.6359 38.1436 85.1124 37.1504C85.589 36.1573 86.2761 35.2951 87.1627 34.5639C88.0493 33.8327 89.1021 33.2434 90.3433 32.8177C91.5845 32.3812 92.9698 32.1738 94.4992 32.1738C95.8512 32.1738 97.0038 32.3266 97.9569 32.6322C98.9099 32.9378 99.6968 33.3307 100.317 33.8218C100.938 34.3129 101.381 34.8477 101.669 35.4479C101.946 36.0373 102.091 36.6157 102.091 37.1723V39.3768H101.88C101.259 38.7657 100.328 38.2527 99.0762 37.838C97.8239 37.4233 96.494 37.2159 95.0644 37.2159C93.2579 37.2159 92.0056 37.4669 91.3185 37.958C90.6314 38.4492 90.299 39.0712 90.299 39.8243C90.299 40.108 90.3655 40.359 90.4874 40.5773C90.6093 40.7956 90.842 40.992 91.1745 41.1667C91.5069 41.3413 91.9946 41.505 92.6041 41.6469C93.2247 41.7887 94.0448 41.9415 95.0644 42.1161C97.5801 42.5309 99.4751 43.273 100.761 44.3425C102.024 45.3902 102.667 46.8636 102.667 48.7516Z" fill="#360872"/>
<path d="M34.1339 61.9679C34.0341 61.8369 33.9122 61.7278 33.7681 61.6405C33.6241 61.5532 33.4689 61.4877 33.3027 61.4222C33.1364 61.3677 32.9702 61.324 32.8151 61.3022C32.6488 61.2804 32.5048 61.2694 32.3607 61.2694C32.0725 61.2694 31.8066 61.324 31.5517 61.4222C31.3079 61.5205 31.0862 61.6623 30.9089 61.8479C30.7316 62.0334 30.5875 62.2408 30.4878 62.5027C30.388 62.7537 30.3326 63.0374 30.3326 63.343C30.3326 63.7141 30.388 64.0415 30.4878 64.3253C30.5875 64.609 30.7316 64.8491 30.9089 65.0346C31.0862 65.2202 31.3079 65.362 31.5628 65.4603C31.8176 65.5585 32.0947 65.6021 32.405 65.6021C32.5602 65.6021 32.7264 65.5912 32.8926 65.5585C33.0589 65.5258 33.2251 65.4821 33.3692 65.4275C33.5243 65.373 33.6573 65.3075 33.7903 65.2311C33.9233 65.1547 34.0341 65.0674 34.1228 64.9801H34.1671V65.4603C34.1671 65.6785 34.1117 65.8641 33.9898 66.0278C33.8679 66.1806 33.7238 66.3115 33.5354 66.4207C33.347 66.5189 33.1475 66.5953 32.9148 66.6389C32.6932 66.6826 32.4604 66.7044 32.2277 66.7044C31.7955 66.7044 31.3854 66.628 30.9976 66.4752C30.6097 66.3224 30.2661 66.1042 29.978 65.8313C29.6898 65.5585 29.4571 65.2202 29.2798 64.8273C29.1136 64.4344 29.0249 63.9978 29.0249 63.5176C29.0249 63.0265 29.1025 62.5791 29.2687 62.1644C29.4239 61.7496 29.6566 61.4004 29.9447 61.1057C30.2329 60.8111 30.5875 60.571 30.9976 60.4073C31.4076 60.2436 31.8509 60.1562 32.3496 60.1562C32.6156 60.1562 32.8594 60.1781 33.081 60.2326C33.3027 60.2872 33.5022 60.3636 33.6684 60.4727C33.8346 60.5819 33.9565 60.7238 34.0563 60.8875C34.1449 61.0512 34.1893 61.2476 34.1893 61.455V61.957H34.1339V61.9679Z" fill="#866AFB"/>
<path d="M40.0524 66.6493C39.864 66.6493 39.6867 66.5729 39.5315 66.431C39.3764 66.2891 39.2988 66.0709 39.2988 65.798V63.91H36.6834V66.6493H36.1736C35.9519 66.6493 35.7635 66.5729 35.6084 66.431C35.4532 66.2891 35.3867 66.0709 35.3867 65.798V60.2648H36.0184C36.2068 60.2648 36.362 60.3303 36.4839 60.4613C36.6058 60.5922 36.6723 60.7559 36.6723 60.9306V62.8295H39.2988V60.2539H39.8861C39.9637 60.2539 40.0524 60.2648 40.13 60.2976C40.2186 60.3303 40.2851 60.374 40.3516 60.4394C40.4181 60.494 40.4735 60.5704 40.5068 60.6577C40.5511 60.745 40.5622 60.8323 40.5622 60.9306V66.6493H40.0524Z" fill="#866AFB"/>
<path d="M43.0888 66.6493C43.0001 66.6493 42.9004 66.6275 42.8117 66.5947C42.712 66.562 42.6344 66.5074 42.5568 66.431C42.4792 66.3655 42.4238 66.2782 42.3795 66.1691C42.3352 66.06 42.313 65.9399 42.313 65.798V60.2539H42.9004C42.989 60.2539 43.0666 60.2648 43.1442 60.2976C43.2217 60.3303 43.2993 60.374 43.3658 60.4394C43.4323 60.5049 43.4877 60.5704 43.532 60.6577C43.5764 60.745 43.5985 60.8323 43.5985 60.9306V66.6384H43.0888V66.6493Z" fill="#866AFB"/>
<path d="M49.5943 65.7871C49.5943 65.929 49.5721 66.06 49.5278 66.1691C49.4835 66.2782 49.417 66.3765 49.3172 66.4638C49.2175 66.5511 49.0734 66.6056 48.8961 66.6493C48.7188 66.693 48.4971 66.7148 48.2312 66.7148H47.7214C46.9567 66.7148 46.3693 66.5074 45.9704 66.1036C45.5603 65.6998 45.3608 65.1105 45.3608 64.3356V60.2539H45.8928C46.4247 60.2539 46.7018 60.5704 46.7018 61.1925V64.2592C46.7018 64.4993 46.724 64.7067 46.7572 64.8704C46.7905 65.0341 46.857 65.176 46.9456 65.2851C47.0343 65.3942 47.1562 65.4706 47.3113 65.5143C47.4665 65.5579 47.666 65.5798 47.9098 65.5798H48.2422C48.5525 65.5798 48.8185 65.5579 49.0623 65.5034C49.2951 65.4488 49.4835 65.4051 49.5943 65.3506V65.7871Z" fill="#866AFB"/>
<path d="M56.0549 63.3535C56.0549 63.8447 55.9773 64.2812 55.8332 64.6959C55.6781 65.0997 55.4675 65.4599 55.2015 65.7545C54.9356 66.0492 54.6142 66.2893 54.2484 66.453C53.8827 66.6167 53.4949 66.704 53.0737 66.704H52.5307C51.9766 66.704 51.5444 66.5949 51.223 66.3657C50.9016 66.1474 50.7354 65.7764 50.7354 65.2853V60.4833C50.8129 60.4505 50.9127 60.4287 51.0457 60.396C51.1786 60.3741 51.3227 60.3414 51.4668 60.3196C51.6109 60.2977 51.766 60.2759 51.9101 60.265C52.0652 60.2541 52.1982 60.2432 52.3312 60.2432H53.0072C53.3729 60.2432 53.7497 60.3086 54.1044 60.4287C54.4701 60.5487 54.7915 60.7452 55.0907 60.9962C55.3788 61.2472 55.6116 61.5746 55.7889 61.9675C55.9662 62.3604 56.0549 62.8188 56.0549 63.3535ZM54.7361 63.5391C54.7361 63.1789 54.6917 62.8624 54.592 62.5896C54.5033 62.3168 54.3704 62.0767 54.193 61.8911C54.0268 61.7056 53.8162 61.5637 53.5835 61.4655C53.3508 61.3673 53.0959 61.3236 52.8077 61.3236H52.5307C52.4864 61.3236 52.442 61.3236 52.3866 61.3345C52.3312 61.3454 52.2758 61.3454 52.2315 61.3673C52.165 61.3782 52.0985 61.3891 52.0431 61.3891V65.0452C52.0431 65.2307 52.0874 65.3726 52.1871 65.4599C52.2869 65.5472 52.4531 65.5908 52.6969 65.5908H52.9186C53.1845 65.5908 53.4284 65.5363 53.65 65.4271C53.8717 65.318 54.0711 65.1761 54.2263 64.9906C54.3814 64.8051 54.5144 64.5868 54.6031 64.3467C54.6917 64.0957 54.7361 63.8228 54.7361 63.5391Z" fill="#866AFB"/>
<path d="M62.4162 66.497C62.3386 66.5843 62.261 66.6389 62.1834 66.6607C62.1059 66.6935 61.9729 66.7044 61.7955 66.7044C61.585 66.7044 61.3966 66.6607 61.2304 66.5734C61.0641 66.4861 60.9311 66.3442 60.8425 66.1369L60.3659 64.98C60.2884 64.8054 60.2108 64.6744 60.1443 64.5653C60.0778 64.4671 60.0002 64.3907 59.9226 64.3361C59.8451 64.2815 59.7675 64.2488 59.6899 64.227C59.6123 64.2052 59.5348 64.1833 59.4461 64.1724C59.302 64.1506 59.1801 64.1288 59.0693 64.1178C58.9585 64.1069 58.8698 64.096 58.8033 64.096V66.6607H58.3822C58.0941 66.6607 57.8724 66.5843 57.7173 66.4315C57.5732 66.2787 57.4956 66.0714 57.4956 65.8095V60.4509C57.5621 60.429 57.6729 60.3963 57.8059 60.3745C57.9389 60.3417 58.094 60.3199 58.2492 60.2981C58.4044 60.2762 58.5706 60.2544 58.7368 60.2435C58.9031 60.2326 59.0471 60.2217 59.169 60.2217H59.8894C60.2108 60.2217 60.51 60.2653 60.7649 60.3526C61.0309 60.44 61.2525 60.5709 61.4409 60.7346C61.6293 60.8983 61.7734 61.0948 61.8731 61.313C61.9729 61.5313 62.0283 61.7823 62.0283 62.0443C62.0283 62.2625 61.995 62.4699 61.9285 62.6663C61.862 62.8628 61.7623 63.0265 61.6515 63.1793C61.5296 63.3321 61.3966 63.4521 61.2304 63.5613C61.0641 63.6595 60.8868 63.725 60.6984 63.7468C60.8757 63.8123 61.0309 63.9323 61.1749 64.1069C61.319 64.2816 61.4187 64.4562 61.5074 64.6417L62.0283 65.8313C62.1169 66.0168 62.1945 66.1587 62.261 66.2569C62.3275 66.366 62.3829 66.4424 62.4162 66.497ZM59.3796 61.3021C59.3464 61.3021 59.302 61.3021 59.2577 61.313C59.2134 61.313 59.158 61.324 59.1025 61.324C59.0471 61.3349 58.9917 61.3349 58.9363 61.3458C58.8809 61.3567 58.8366 61.3676 58.8033 61.3676V63.0592C58.9474 63.092 59.0915 63.1029 59.2466 63.1138C59.3907 63.1138 59.5569 63.1138 59.7342 63.1138C60.0002 63.1138 60.2329 63.0374 60.4213 62.8955C60.6097 62.7536 60.7095 62.5354 60.7095 62.2407C60.7095 62.0443 60.6873 61.8915 60.643 61.7714C60.5987 61.6514 60.5322 61.5531 60.4435 61.4767C60.3548 61.4004 60.2551 61.3567 60.1332 61.3349C60.0113 61.313 59.8894 61.2912 59.7453 61.2912H59.3796V61.3021Z" fill="#866AFB"/>
<path d="M68.1568 65.9072C68.1568 66.0381 68.1347 66.1473 68.0903 66.2455C68.046 66.3437 67.9795 66.4201 67.8687 66.4965C67.769 66.562 67.6249 66.6166 67.4365 66.6493C67.2481 66.682 67.0154 66.7039 66.7383 66.7039H66.0512C65.2533 66.7039 64.6548 66.4965 64.2448 66.0709C63.8347 65.6562 63.6353 65.0341 63.6353 64.2046V63.0151C63.6353 62.7095 63.6463 62.4039 63.6685 62.0874C63.6907 61.7709 63.7239 61.4762 63.7572 61.2143C63.8015 60.8323 63.9234 60.5813 64.0896 60.4504C64.2669 60.3194 64.4886 60.2539 64.7435 60.2539H68.1347V60.6795C68.1347 61.127 67.8465 61.3562 67.2592 61.3562H65.0538C65.0316 61.4762 65.0205 61.5963 65.0095 61.7272C64.9984 61.8582 64.9873 61.9892 64.9762 62.1201C64.9651 62.2511 64.9651 62.3821 64.954 62.5021C64.954 62.6222 64.954 62.7422 64.954 62.8295H67.4476V63.2879C67.4476 63.4953 67.3811 63.648 67.2481 63.7354C67.1151 63.8227 66.9156 63.8772 66.6607 63.8772H64.954V64.2483C64.954 64.5321 64.9762 64.7503 65.0205 64.9249C65.0649 65.0996 65.1424 65.2305 65.2533 65.3287C65.3641 65.427 65.5082 65.4925 65.6855 65.5252C65.8628 65.5579 66.0734 65.5798 66.3283 65.5798H66.7494C66.9821 65.5798 67.2259 65.5688 67.4587 65.547C67.6914 65.5252 67.9352 65.4924 68.1679 65.4379L68.1568 65.9072Z" fill="#866AFB"/>
<path d="M74.241 66.6496C74.1191 66.6496 73.9861 66.6387 73.8531 66.606C73.7201 66.5732 73.576 66.5078 73.432 66.3877C73.2768 66.2677 73.1217 66.1039 72.9444 65.8748C72.7781 65.6456 72.5897 65.34 72.3902 64.958L71.2044 62.688C71.0271 62.3388 70.883 62.0877 70.7722 61.9459V66.6496H70.2624C70.1627 66.6496 70.074 66.6278 69.9743 66.5951C69.8856 66.5623 69.797 66.5078 69.7194 66.4314C69.6418 66.355 69.5864 66.2786 69.5421 66.1694C69.4977 66.0712 69.4756 65.9402 69.4756 65.7984V60.2433H70.1184C70.5506 60.2433 70.9052 60.3525 71.1933 60.5707C71.4815 60.789 71.7364 61.1164 71.958 61.5421L73.0884 63.7794C73.1549 63.9103 73.2325 64.0631 73.299 64.2268C73.3655 64.3905 73.4209 64.5324 73.4763 64.6415V60.2324H74.0526C74.1412 60.2324 74.2188 60.2542 74.3075 60.287C74.3961 60.3197 74.4626 60.3743 74.5291 60.4507C74.5956 60.5162 74.651 60.5926 74.6954 60.6908C74.7397 60.7781 74.7618 60.8763 74.7618 60.9745V66.6278H74.241V66.6496Z" fill="#866AFB"/>
<path d="M83.7607 62.1969C83.7607 62.5352 83.7053 62.8408 83.5945 63.1136C83.4837 63.3865 83.3285 63.6156 83.1401 63.8012C82.9407 63.9867 82.7079 64.1395 82.442 64.2377C82.176 64.3359 81.8878 64.3905 81.5775 64.3905C81.1231 64.3905 80.7574 64.3141 80.4915 64.1722V66.6605H79.9817C79.893 66.6605 79.8044 66.6496 79.7046 66.6169C79.616 66.5842 79.5273 66.5296 79.4497 66.4641C79.3721 66.3877 79.3167 66.3004 79.2613 66.1803C79.217 66.0603 79.1948 65.9184 79.1948 65.7547V60.5271C79.2835 60.4943 79.4054 60.4616 79.5495 60.4289C79.6935 60.3961 79.8487 60.3634 80.0038 60.3306C80.159 60.2979 80.3141 60.2761 80.4804 60.2652C80.6355 60.2433 80.7796 60.2324 80.8904 60.2324H81.6219C81.9432 60.2324 82.2314 60.2761 82.4974 60.3634C82.7633 60.4507 82.985 60.5817 83.1845 60.7454C83.3729 60.9091 83.5169 61.1273 83.6278 61.3674C83.7053 61.6075 83.7607 61.8804 83.7607 62.1969ZM82.4309 62.3169C82.4309 61.9459 82.3533 61.6839 82.1871 61.5311C82.0319 61.3783 81.777 61.291 81.4445 61.291H81.0234C80.9458 61.291 80.8572 61.302 80.7463 61.3238C80.6466 61.3456 80.558 61.3674 80.4804 61.3784V63.19C80.5912 63.2228 80.7353 63.2446 80.9015 63.2664C81.0677 63.2882 81.234 63.2991 81.4002 63.2991C81.7327 63.2991 81.9876 63.2118 82.1649 63.0372C82.3422 62.8626 82.4309 62.6225 82.4309 62.3169Z" fill="#866AFB"/>
<path d="M89.2686 65.7871C89.2686 65.929 89.2464 66.06 89.2021 66.1691C89.1578 66.2782 89.0913 66.3765 88.9915 66.4638C88.8918 66.5511 88.7477 66.6056 88.5704 66.6493C88.3931 66.693 88.1715 66.7148 87.9055 66.7148H87.3957C86.631 66.7148 86.0436 66.5074 85.6447 66.1036C85.2346 65.6998 85.0352 65.1105 85.0352 64.3356V60.2539H85.5671C86.0991 60.2539 86.3761 60.5704 86.3761 61.1925V64.2592C86.3761 64.4993 86.3983 64.7067 86.4315 64.8704C86.4648 65.0341 86.5313 65.176 86.6199 65.2851C86.7086 65.3942 86.8305 65.4706 86.9856 65.5143C87.1408 65.5579 87.3403 65.5798 87.5841 65.5798H87.9166C88.2269 65.5798 88.4928 65.5579 88.7367 65.5034C88.9694 65.4488 89.1578 65.4051 89.2686 65.3506V65.7871Z" fill="#866AFB"/>
<path d="M95.0532 66.6493C94.7873 66.6493 94.5767 66.5838 94.4326 66.4529C94.2886 66.3219 94.1999 66.18 94.1777 66.0272C94.1223 65.6016 94.0669 65.2633 94.0004 65.0123H91.4182C91.3517 65.2851 91.2852 65.5579 91.2409 65.8308C91.1855 66.1036 91.1301 66.3765 91.0858 66.6493H90.576C90.3654 66.6493 90.2103 66.5947 90.1105 66.4856C90.0219 66.3765 89.9775 66.2237 89.9775 66.0272C89.9775 65.8744 90.0108 65.6452 90.0773 65.3506C90.1438 65.0559 90.2213 64.7285 90.3322 64.3574C90.443 63.9864 90.5649 63.6044 90.709 63.2006C90.853 62.7968 91.0082 62.4039 91.1744 62.0328C91.3407 61.6509 91.5069 61.3125 91.6842 60.996C91.8615 60.6795 92.0278 60.4394 92.194 60.2539H92.726C92.9919 60.2539 93.2136 60.3085 93.3798 60.4285C93.5571 60.5486 93.679 60.6795 93.7677 60.8432C93.9118 61.1052 94.078 61.4544 94.2553 61.9019C94.4437 62.3493 94.621 62.8404 94.7983 63.3752C94.9757 63.91 95.1308 64.4666 95.2749 65.0341C95.419 65.6016 95.5187 66.1364 95.5852 66.6493H95.0532ZM93.7123 63.9973C93.6569 63.779 93.5904 63.5498 93.5017 63.3097C93.4241 63.0696 93.3355 62.8404 93.2468 62.6113C93.1582 62.3821 93.0695 62.1638 92.9698 61.9673C92.87 61.76 92.7814 61.5854 92.7038 61.4435C92.604 61.6072 92.5154 61.7927 92.4157 62.0001C92.327 62.2074 92.2273 62.4257 92.1386 62.644C92.0499 62.8623 91.9613 63.0915 91.8948 63.3206C91.8172 63.5498 91.7507 63.779 91.6953 63.9973H93.7123Z" fill="#866AFB"/>
<path d="M101.426 60.7559C101.426 60.8323 101.392 60.9524 101.326 61.1161C101.259 61.2798 101.171 61.4544 101.06 61.6509C100.949 61.8473 100.827 62.0547 100.683 62.2729C100.539 62.4912 100.406 62.7095 100.262 62.9168C100.118 63.1242 99.985 63.3206 99.852 63.4953C99.719 63.6699 99.6082 63.8227 99.5084 63.9318V66.6602H98.9654C98.8767 66.6602 98.777 66.6384 98.6883 66.6056C98.5886 66.5729 98.511 66.5183 98.4335 66.4419C98.3559 66.3655 98.3005 66.2891 98.2561 66.18C98.2118 66.0818 98.1896 65.9508 98.1896 65.8089V63.9209C98.0012 63.6808 97.8128 63.4079 97.6134 63.1024C97.425 62.7968 97.2366 62.4912 97.0592 62.1638C96.8819 61.8364 96.7268 61.5199 96.5716 61.1925C96.4276 60.8651 96.2946 60.5486 96.1948 60.2539H96.8044C97.0592 60.2539 97.2587 60.3085 97.4028 60.4067C97.5469 60.5049 97.6355 60.6031 97.6799 60.7014C97.7574 60.8869 97.8461 61.0833 97.9569 61.2907C98.0567 61.4981 98.1675 61.6945 98.2672 61.8909C98.378 62.0874 98.4889 62.2729 98.5997 62.4585C98.7105 62.644 98.8213 62.7968 98.9211 62.9387C99.0208 62.7968 99.1427 62.6222 99.2757 62.4148C99.4087 62.2075 99.5417 61.9892 99.6747 61.7491C99.8077 61.509 99.9296 61.258 100.04 61.0069C100.151 60.7559 100.251 60.5049 100.317 60.2648H100.883C101.049 60.2648 101.182 60.3085 101.271 60.4067C101.381 60.4831 101.426 60.6031 101.426 60.7559Z" fill="#866AFB"/>
</g>
<defs>
<clipPath id="clip0_1106_4759">
<rect width="102.667" height="70" fill="white"/>
</clipPath>
</defs>
</svg>
