<svg width="36" height="36" fill="none" xmlns="http://www.w3.org/2000/svg"><g clip-path="url(#clip0_1106_5624)" fill-rule="evenodd" clip-rule="evenodd"><path d="M18 35.297a16.683 16.683 0 01-10.396-3.654 16.653 16.653 0 01-5.737-8.974H.424a.422.422 0 01-.311-.706l3.034-3.325a.422.422 0 01.623 0l3.035 3.325a.423.423 0 01-.312.706H5.278c1.725 5.526 6.88 9.34 12.722 9.34 6.029 0 11.323-4.06 12.876-9.87a.421.421 0 01.407-.313H33.8a.422.422 0 01.412.514 16.642 16.642 0 01-5.815 9.302A16.68 16.68 0 0118 35.297zm14.541-17.798a.424.424 0 01-.311-.137l-3.034-3.325a.42.42 0 01.08-.638.422.422 0 01.231-.068h1.215C28.998 7.804 23.843 3.99 18 3.99c-6.029 0-11.323 4.06-12.876 9.87a.423.423 0 01-.407.313H2.2a.424.424 0 01-.412-.514 16.644 16.644 0 015.815-9.303A16.683 16.683 0 0118 .703c3.764 0 7.456 1.298 10.396 3.654a16.65 16.65 0 015.737 8.974h1.443a.421.421 0 01.312.706l-3.035 3.325a.42.42 0 01-.312.137z" fill="#FFD8AA"/><path d="M18 27.738h-.009c-1.721-.012-3.393-.04-3.864-.048-2.288-.04-3.174-1.211-3.515-2.187-.484-1.387-.223-3.348.737-5.519.87-1.971 2.197-3.814 3.55-4.929a.372.372 0 01.523.05c.103.127 3.686.22 5.081.319a.37.37 0 01.327-.451c.098-.01.196.02.272.082 1.352 1.116 2.68 2.958 3.55 4.93.959 2.171 1.22 4.13.736 5.518-.341.976-1.227 2.147-3.514 2.187-.973.017-2.5.038-3.871.048H18zm-2.626-14.474a.37.37 0 01-.358-.275l-1.142-4.26a.37.37 0 01.359-.468c.443 0 .813.293 1.172.574.247.195.527.415.711.415.186 0 .466-.22.713-.415.358-.281.729-.573 1.171-.573.443 0 .814.292 1.172.573.246.195.526.415.712.415.185 0 .465-.22.712-.415.359-.281.729-.573 1.171-.573a.37.37 0 01.36.467l-1.142 4.26a.371.371 0 01-.455.262c-.198-.053-.316.414-.262.216l.073-.276H15.66l.074.276c.053.198-.064-.269-.263-.216a.35.35 0 01-.096.013z" fill="#F88E0F"/><path d="M20.94 15.713h-5.88c-.88 0-1.596-.716-1.596-1.596 0-.88.716-1.596 1.596-1.596h5.88c.88 0 1.596.716 1.596 1.596 0 .88-.717 1.596-1.596 1.596z" fill="#001430"/><path d="M18 24.524c-1.208 0-2.19-.794-2.19-1.77a.372.372 0 01.742 0c0 .557.663 1.028 1.448 1.028.785 0 1.448-.47 1.448-1.028s-.663-1.028-1.448-1.028c-1.208 0-2.19-.795-2.19-1.771 0-.976.982-1.77 2.19-1.77s2.191.794 2.191 1.77a.371.371 0 01-.742 0c0-.557-.664-1.028-1.449-1.028s-1.448.47-1.448 1.028c0 .557.663 1.028 1.448 1.028 1.208 0 2.191.794 2.191 1.77 0 .977-.983 1.771-2.191 1.771z" fill="#fff"/><path d="M18 25.365a.371.371 0 01-.371-.372v-7.278a.37.37 0 11.742 0v7.278a.372.372 0 01-.371.372z" fill="#fff"/></g><defs><clipPath id="clip0_1106_5624"><path fill="#fff" d="M0 0h36v36H0z"/></clipPath></defs></svg>