<svg width="18" height="18" fill="none" xmlns="http://www.w3.org/2000/svg"><path d="M12.562 2.67V1.5A.567.567 0 0012 .937a.567.567 0 00-.563.563v1.125H6.562V1.5A.567.567 0 006 .937a.567.567 0 00-.563.563v1.17C3.412 2.858 2.43 4.065 2.28 5.858a.377.377 0 00.375.397h12.69c.217 0 .397-.188.375-.397-.15-1.793-1.133-3-3.158-3.188z" fill="#00BBAE"/><path opacity=".4" d="M15 7.38c.412 0 .75.337.75.75v4.62c0 2.25-1.125 3.75-3.75 3.75H6c-2.625 0-3.75-1.5-3.75-3.75V8.13c0-.413.337-.75.75-.75h12z" fill="#00BBAE"/><path d="M6.375 11.25a.789.789 0 01-.532-.218.789.789 0 01-.218-.532c0-.195.082-.39.218-.533a.75.75 0 01.817-.157.7.7 0 01.247.157.789.789 0 01.218.533c0 .195-.082.39-.218.532a.789.789 0 01-.532.218zm2.625 0a.789.789 0 01-.533-.218.789.789 0 01-.217-.532.79.79 0 01.217-.533.7.7 0 01.248-.157.75.75 0 01.818.157.789.789 0 01.217.533c0 .195-.082.39-.217.532l-.113.09a.568.568 0 01-.135.068.477.477 0 01-.135.045c-.053.007-.098.015-.15.015zm2.625 0a.789.789 0 01-.533-.217.789.789 0 01-.217-.533c0-.195.082-.39.217-.532a.774.774 0 01.248-.158.717.717 0 01.57 0 .57.57 0 01.135.068l.113.09a.789.789 0 01.217.532.79.79 0 01-.217.533l-.113.09a.568.568 0 01-.135.067.477.477 0 01-.135.045 1.057 1.057 0 01-.15.015zm-5.25 2.625a.747.747 0 01-.285-.06.774.774 0 01-.247-.157.789.789 0 01-.218-.533c0-.195.082-.39.218-.533a.774.774 0 01.247-.157.717.717 0 01.57 0c.045.015.09.037.135.067l.112.09a.789.789 0 01.218.533c0 .195-.082.39-.218.533-.037.03-.075.067-.112.09a.568.568 0 01-.135.067.477.477 0 01-.135.045c-.053.008-.098.015-.15.015zm2.625 0a.789.789 0 01-.533-.218.789.789 0 01-.217-.532.79.79 0 01.217-.533c.278-.277.788-.277 1.066 0a.789.789 0 01.217.533c0 .195-.082.39-.217.532a.789.789 0 01-.533.218zm2.625 0a.789.789 0 01-.533-.218.789.789 0 01-.217-.532.79.79 0 01.217-.533c.278-.277.788-.277 1.066 0a.789.789 0 01.217.533c0 .195-.082.39-.217.532a.789.789 0 01-.533.218z" fill="#00BBAE"/></svg>