<svg width="18" height="16" fill="none" xmlns="http://www.w3.org/2000/svg"><path d="M13.869 16c-1.097 0-2-.903-2-2s.903-2 2-2c1.096 0 2 .903 2 2s-.904 2-2 2zm0-2.71c-.387 0-.646.258-.646.646 0 .387.258.645.646.645.387 0 .645-.258.645-.646 0-.387-.258-.645-.645-.645zM7.223 16c-1.096 0-2-.903-2-2s.904-2 2-2c1.097 0 2 .903 2 2s-.903 2-2 2zm0-2.71c-.387 0-.645.258-.645.646 0 .387.258.645.645.645s.646-.258.646-.646c0-.387-.259-.645-.646-.645zm5.033-4.129a.59.59 0 01-.452-.193c-.129-.13-.258-.387-.129-.645l.323-2.775c0-.129.064-.322.193-.387a.586.586 0 01.452-.193c.193 0 .387.129.516.193.129.13.258.387.129.645l-.323 2.775c-.129.387-.322.58-.71.58zm-3.484 0a.647.647 0 01-.645-.645l-.323-2.839c0-.387.258-.645.58-.71.452 0 .775.259.775.646l.322 2.839c0 .193 0 .258-.064.451v.065l-.194.064c-.064.065-.193.13-.451.13z" fill="#fff"/><path d="M5.868 11.613c-.322 0-.516-.194-.645-.516L2.707 1.355H.578c-.323 0-.645-.323-.645-.71C-.067.323.255 0 .578 0h2.58c.388 0 .646.194.71.516l.581 2.065h12.774c.194 0 .387.129.516.193.13.194.258.452.13.645l-2 7.613c-.13.323-.323.516-.646.516l-9.097.065h-.258zm8.774-1.355l1.678-6.387H4.772l1.612 6.387h8.258z" fill="#fff"/></svg>