<svg width="22" height="18" fill="none" xmlns="http://www.w3.org/2000/svg"><path d="M14.667 17.333a.636.636 0 01-.417-.166l-4.083-4.084c-.25-.25-.25-.666 0-.833l4.083-4.083A.636.636 0 0114.667 8c.166 0 .333.083.416.167.25.25.25.666 0 .833l-3 3h8.667a.57.57 0 01.583.583.57.57 0 01-.583.584h-8.583l3 3c.25.25.25.583 0 .833-.167.333-.334.333-.5.333zm-7.25-7.25A.636.636 0 017 9.917a.637.637 0 01-.167-.417A.64.64 0 017 9.083l3-3H1.25C.917 6 .667 5.75.667 5.333c0-.416.25-.583.583-.583h8.667L7 1.75c-.333-.25-.333-.667-.083-.917.166-.083.333-.166.5-.166.166 0 .333.083.416.166l4.084 4.084c.25.25.25.666 0 .833L7.833 9.833c-.166.167-.25.25-.416.25z" fill="#69778A"/></svg>