<svg width="28" height="16" fill="none" xmlns="http://www.w3.org/2000/svg"><path d="M11.265 14.528c.872-.812 1.006-2.084.3-2.841-.706-.757-1.984-.713-2.856.1-.871.812-1.005 2.084-.3 2.841.706.757 1.985.713 2.856-.1zm11.53.002c.871-.813 1.006-2.085.3-2.842-.706-.758-1.985-.713-2.856.1-.871.812-1.005 2.084-.3 2.841.706.757 1.985.713 2.856-.1zM2.122 4.587a.91.91 0 10-1.82 0 .91.91 0 001.82 0z" fill="#fff"/><path d="M18.488 12.967c.324-1.6 1.835-2.87 3.46-2.87 1.563 0 2.69 1.178 2.66 2.694 1.69.044 2.162-2.183 2.162-2.183.142-.623.355-1.837.533-3.029a2.013 2.013 0 00-.13-1.089 18.68 18.68 0 00-1.596-2.958c-.587-.875-1.57-1.393-2.694-1.412-.67-.01-1.327-.017-1.823-.017l-.004-.004c-.064-1.07-.845-1.891-1.94-1.99C18.401.047 15.577 0 14.222 0c-.539 0-1.311.007-2.093.02V.017H2.725a.91.91 0 00-.911.91v.005a.906.906 0 00.907.907h1.894a.906.906 0 01.84.903v.005a.91.91 0 01-.91.913h-.971a.91.91 0 100 1.821h.971a.91.91 0 010 1.822H.911a.91.91 0 100 1.82h3.634a.91.91 0 010 1.821H3.421a.91.91 0 100 1.821l3.587-.003.298-.742c.61-1.127 1.825-1.924 3.111-1.924 1.625 0 2.779 1.272 2.652 2.873h5.419M9.455 4.084H8.233l-.004.001-.001.003-.113.8v.002a.004.004 0 00.004.003h.91a.3.3 0 01.304.354.42.42 0 01-.403.354h-.91a.005.005 0 00-.006.003l-.163 1.162a.42.42 0 01-.403.354.3.3 0 01-.303-.354l.423-3.014a.446.446 0 01.427-.373h1.558a.3.3 0 01.304.354.42.42 0 01-.402.351zm3.266-.465a.83.83 0 01.256.427c.044.187.052.38.021.57a1.558 1.558 0 01-.348.803 1.12 1.12 0 01-.431.316l.001.003.303.874c.082.234-.128.508-.389.508h-.017a.298.298 0 01-.29-.2l-.366-1.066-.002-.002h-.785l-.001.003-.128.91a.421.421 0 01-.403.354.3.3 0 01-.304-.353l.424-3.014a.445.445 0 01.426-.373h1.205s.53-.017.828.24zm3.317.089a.393.393 0 01-.377.33h-1.404l-.002.003-.112.792v.002l.001.001a.004.004 0 00.004.002h1.088a.28.28 0 01.284.33.393.393 0 01-.376.33h-1.09l-.003.001-.002.003-.133.952.001.004.004.002h1.4a.28.28 0 01.284.33.393.393 0 01-.377.33H13.49a.32.32 0 01-.32-.374l.421-2.992a.445.445 0 01.427-.373h1.737a.28.28 0 01.283.327zm2.912 0a.392.392 0 01-.377.33H17.17l-.002.003-.111.792v.003a.004.004 0 00.004.002h1.089a.28.28 0 01.284.33.393.393 0 01-.377.33h-1.09l-.003.001-.002.003-.133.952.001.004.003.002h1.401a.28.28 0 01.284.33.393.393 0 01-.377.33h-1.738a.32.32 0 01-.32-.374l.42-2.992a.446.446 0 01.428-.373h1.737a.28.28 0 01.283.327zm2.026-.342c.476 0 1.093.006 1.711.016.75.013 1.406.357 1.8.945.42.633.798 1.294 1.13 1.978.176.358-.147.825-.571.825H20.5l.476-3.764z" fill="#fff"/><path d="M11.608 5.192h-.842l.16-1.154h.842s.618-.04.516.577c.003 0-.068.577-.676.577z" fill="#fff"/></svg>