<svg width="28" height="30" fill="none" xmlns="http://www.w3.org/2000/svg"><path d="M24.842 12.401h-.074v-1.82C24.768 4.739 20.03 0 14.186 0S3.604 4.738 3.604 10.582V12.4H3.16c-1.634 0-2.896 1.448-2.896 3.119v4.64a2.933 2.933 0 002.896 3.008h2.747a.705.705 0 00.669-.78v-9.096c0-.445-.26-.891-.669-.891H5.09v-1.82a9.097 9.097 0 0118.193 0v1.82h-.817c-.409 0-.669.445-.669.891v9.097a.705.705 0 00.669.78h.854l-.075.11a5.866 5.866 0 01-4.715 2.34 3.676 3.676 0 00-7.277.705A3.713 3.713 0 0014.966 30a3.825 3.825 0 002.673-1.151 3.27 3.27 0 00.891-1.782 7.352 7.352 0 005.904-2.933l.705-1.04c1.597-.111 2.6-1.114 2.6-2.562v-4.641c0-1.596-1.189-3.49-2.897-3.49zM5.09 21.683H3.159a1.448 1.448 0 01-1.41-1.522V15.52c0-.854.593-1.634 1.41-1.634h1.93v7.797zm11.472 6.126a2.191 2.191 0 01-1.596.706 2.265 2.265 0 01-2.228-2.19 2.19 2.19 0 114.381-.003v.002a1.968 1.968 0 01-.557 1.485zm9.691-7.277c0 1.003-.965 1.151-1.41 1.151h-1.56v-7.797h1.56c.816 0 1.41 1.151 1.41 2.005v4.641z" fill="#fff"/></svg>