<svg width="187" height="124" fill="none" xmlns="http://www.w3.org/2000/svg"><path opacity=".04" d="M135.503 115.581c-19.111-2.284-36.654-14.583-50.525-27.281-8.627-7.92-15.463-17.117-22.057-26.734-9.204-13.364-18.576-26.195-30.553-37.31-10.25-9.487-22.07-17.711-35.456-22.01A65.936 65.936 0 00-10.836.223l-14.61 25.304C-16.272 37.123-6.17 47.715 5.308 57.142c13.74 11.223 28.82 20.978 43.801 30.538 24.66 15.778 51.9 31.224 81.3 35.389 13.039 1.858 26.547.837 37.858-6.352 10.489-6.614 17.767-17.882 18.07-30.446.517-18.041-17.907-35.258-36.034-34.384-10.484.527-18.886 9.606-19.092 20.056-.218 9.255 5.779 16.987 13.528 21.32-1.7-3.501-2.6-7.17-1.773-11.523.898-5.081 3.846-10.309 8.534-12.712 10.748-5.485 20.387 6.52 20.74 16.244.781 20.05-18.46 32.461-36.736 30.309z" fill="#fff"/></svg>