<svg width="13" height="16" fill="none" xmlns="http://www.w3.org/2000/svg"><g clip-path="url(#clip0_1106_6388)" stroke="#fff" stroke-width="1.25" stroke-miterlimit="10" stroke-linecap="round" stroke-linejoin="round"><path d="M.625 6.012c0 1.674.858 3.206 2.077 4.795.46.601.956 1.19 1.463 1.791l.488.582c.47.563.938 1.14 1.368 1.731.443-.591.919-1.168 1.393-1.733l.355-.422a49.588 49.588 0 001.588-1.946c1.204-1.586 2.042-3.12 2.042-4.798C11.4 3.06 8.964.625 6.012.625 3.06.625.625 3.06.625 6.012z"/><path d="M3.922 5.915c0 1.11.98 2.09 2.09 2.09 1.192 0 2.09-.966 2.09-2.09 0-1.11-.98-2.09-2.09-2.09-1.11 0-2.09.98-2.09 2.09z"/></g><defs><clipPath id="clip0_1106_6388"><path fill="#fff" d="M0 0h12.667v16H0z"/></clipPath></defs></svg>