<svg width="31" height="31" fill="none" xmlns="http://www.w3.org/2000/svg"><path d="M19.067 6.667a6.667 6.667 0 015.267 5.266m-5.267-10.6a12 12 0 0110.6 10.587m-1.333 10.64v4a2.668 2.668 0 01-2.907 2.667 26.385 26.385 0 01-11.506-4.094 26 26 0 01-8-8 26.387 26.387 0 01-4.094-11.56 2.667 2.667 0 012.654-2.906h4a2.667 2.667 0 012.666 2.293c.17 1.28.482 2.537.934 3.747a2.666 2.666 0 01-.6 2.813l-1.694 1.693a21.333 21.333 0 008 8l1.694-1.693a2.667 2.667 0 012.813-.6c1.21.451 2.466.764 3.747.933a2.667 2.667 0 012.293 2.707z" stroke="#F88E0F" stroke-width="2" stroke-linecap="round" stroke-linejoin="round"/></svg>