<svg width="14" height="14" fill="none" xmlns="http://www.w3.org/2000/svg"><path fill-rule="evenodd" clip-rule="evenodd" d="M4.448 9.553c2.563 2.563 4.939 2.844 5.636 2.87.843.03 1.703-.658 2.075-1.362-.594-.696-1.366-1.236-2.213-1.822-.499.5-1.113 1.426-1.933 1.094-.466-.188-1.617-.718-2.622-1.724-1.006-1.005-1.536-2.156-1.724-2.62-.332-.822.597-1.438 1.096-1.938-.585-.86-1.116-1.652-1.81-2.216-.715.374-1.407 1.227-1.376 2.081.026.697.307 3.073 2.871 5.637zm5.587 4.202c-.96-.036-3.681-.41-6.53-3.26C.656 7.646.28 4.926.245 3.965.19 2.501 1.313 1.08 2.608.525a.98.98 0 01.963.105c1.072.782 1.812 1.967 2.447 2.895A1.003 1.003 0 015.9 4.8l-.904.905a6.82 6.82 0 001.337 1.962c.7.7 1.499 1.127 1.963 1.337l.903-.904a1.002 1.002 0 011.279-.114c.947.656 2.059 1.385 2.87 2.423a.98.98 0 01.125.99c-.558 1.302-1.97 2.41-3.438 2.356z" fill="#fff"/></svg>