<svg width="38" height="32" fill="none" xmlns="http://www.w3.org/2000/svg"><path d="M25.284 14.794c1.923-.728 3.78-.861 5.687-.438 4.332.98 7.323 4.943 7.014 9.353-.302 4.401-3.824 8.031-8.236 8.254-4.222.215-7.825-1.915-9.438-6.465-1.039-2.932-1.112-5.961-.73-9.004.553-4.35 2.034-8.351 4.753-11.818 1.561-1.989 3.433-3.585 5.893-4.342.95-.29 1.938-.43 2.933-.29.84.112 1.178.572.972 1.403-.258 1.04-.575 2.057-.855 3.088-.125.46-.405.743-.854.824-1.879.334-3.205 1.478-4.288 2.97-1.378 1.922-2.188 4.097-2.851 6.465zm-19.412.015c5.113-1.871 10.38.37 12.134 5.136 1.186 3.222.685 6.265-1.532 8.885-2.21 2.613-5.084 3.623-8.45 2.97-4.281-.824-6.727-3.682-7.515-7.78C-1.016 16.1.885 9.011 6.425 3.066 7.942 1.44 9.85.379 12.097.074a6.912 6.912 0 011.04-.067c1.568.03 1.893.475 1.473 1.975-.229.816-.457 1.625-.678 2.442-.133.497-.398.854-.928.95-1.754.32-3.05 1.351-4.097 2.747-1.488 1.967-2.328 4.23-3.035 6.688z" fill="#00BBAE"/></svg>