<svg width="30" height="28" fill="none" xmlns="http://www.w3.org/2000/svg"><path d="M13.42 0h-.085a1.63 1.63 0 00-.69.172c-.43.216-.818.603-1.163 1.12-.344.517-.603 1.077-.861 1.81-.259.646-.43 1.335-.69 2.196-.172.604-.3 1.293-.516 2.24v.087c-.043.301-.13.56-.173.861-.56.13-1.12.259-1.723.43-.775.216-1.507.432-2.24.69-.818.302-1.507.56-2.154.862a10.03 10.03 0 00-1.723 1.034c-.517.387-.861.775-1.033 1.206-.216.473-.216.99 0 1.421.129.216.258.431.473.646.216.216.431.388.733.604.517.344 1.163.689 1.938 1.033.646.302 1.379.56 2.24.819.732.215 1.465.43 2.326.689l-.043.172v.173c-.086.603-.129 1.292-.172 1.938-.043.862-.086 1.55-.086 2.197 0 .819.043 1.508.129 2.11.043.388.13.733.215 1.035.087.258.173.603.345.947.302.603.69 1.034 1.163 1.25.345.172.69.258 1.12.258.259 0 .474-.043.732-.086.345-.086.647-.216.948-.388.345-.172.646-.387.905-.603.56-.43 1.12-.99 1.68-1.723.474-.603.947-1.25 1.421-2.025.345-.517.603-.99.819-1.378.732.69 1.507 1.335 2.326 1.938.775.56 1.421.948 2.024 1.25.388.172.69.301.991.43.388.13.69.216.991.216h.388c.215 0 .387 0 .517-.043.344-.087.603-.173.818-.345.517-.345.862-.948 1.034-1.723.086-.345.13-.732.086-1.163 0-.388-.043-.819-.13-1.25-.128-.818-.387-1.68-.774-2.67-.259-.732-.604-1.508-1.077-2.499l-.388-.775c.345-.215.732-.517 1.12-.775 1.292-.948 2.197-1.81 2.93-2.671.258-.345.473-.603.645-.905.216-.344.345-.646.431-.904a2.55 2.55 0 00.172-.905c0-.345-.086-.646-.215-.905-.215-.43-.603-.775-1.206-1.033a2.86 2.86 0 00-.862-.259c-.344-.086-.732-.13-1.077-.172-.56-.043-1.077-.086-1.68-.086h-.646c-.732 0-1.507.086-2.455.172-.431.043-.862.086-1.293.172a49.529 49.529 0 00-1.076-1.766 33.224 33.224 0 00-1.465-2.11 13.327 13.327 0 00-1.594-1.767c-.301-.258-.56-.474-.775-.603a3.023 3.023 0 00-.819-.43A1.33 1.33 0 0013.421 0z" fill="#00BBAE"/><path d="M13.938 3.791c0 .56.474.99.99.99.56 0 .991-.473.991-.99 0-.56-.474-.99-.99-.99-.517 0-.991.43-.991.99zm2.67 2.584c0 .173.13.302.302.302s.302-.13.302-.302a.295.295 0 00-.302-.301c-.172.043-.302.172-.302.301z" fill="#00BBAE"/></svg>