<svg width="57" height="56" fill="none" xmlns="http://www.w3.org/2000/svg"><path d="M54.243 22.365c5.056-3.66-.333-6.12-4.058-6.387-3.925-.266-8.249.799-11.974.2-.333-2.794 8.05-12.773 3.526-14.569-2.13-.865-6.387 2.86-7.717 4.125-1.863 1.862-2.661 5.322-4.923 6.585C26.835 9.925 24.307-2.183 18.786.345c-3.06 1.397-2.329 13.371-.799 13.97l.533.266c-2.595 0-5.389.266-7.983 0-1.996-.2-6.387-1.73-7.983.133-3.526 4.125 7.85 11.443 9.978 13.372-1.397 2.262-17.628 8.648-10.91 10.91 2.063.665 5.788-.067 7.85-.266 2.728-.266 6.12-2.661 8.715-2.196.532 5.389-3.46 10.71-4.058 16.232-.2 1.663 1.53 2.86 3.06 2.129 3.326-1.597 5.854-6.919 7.384-9.18 1.796-2.595 2.595-2.13 4.191.133 1.53 2.261 2.927 4.523 4.59 6.719 1.065 1.397 2.063 3.991 4.325 3.326 1.796-.532 2.328-3.659 2.461-5.255.2-2.529-1.996-8.715.4-10.245 2.527-1.597 8.647 1.463 11.242 1.596 5.787.266 2.594-4.523.798-7.184-1.397-2.063-2.594-3.26-4.723-4.657-1.663-1.13-4.258-1.663-2.927-3.725 1.53-2.395 7.051-2.462 9.313-4.058z" fill="#FFB2D5"/><path d="M35.018 23.23c-2.196-2.329-5.854-3.26-8.915-1.996-3.126 1.264-4.057 3.393-3.658 5.854a9.503 9.503 0 00-.2 1.93c.266 5.055 6.453 7.716 10.644 5.321 3.526-2.062 5.056-7.983 2.129-11.11z" fill="#001430" fill-opacity=".4"/></svg>