<svg width="31" height="30" fill="none" xmlns="http://www.w3.org/2000/svg"><path d="M21.667 3.894c-.012.016-.544.93-.544.93a.565.565 0 10.978.564s.525-.916.533-.934a10.114 10.114 0 00-.967-.56zm3.523 13.028a.566.566 0 00-.841.415.566.566 0 00.277.563s.918.523.937.531c.204-.31.39-.633.558-.965-.016-.013-.93-.544-.93-.544zm2.006-4.573a135.74 135.74 0 00-1.08-.007.565.565 0 000 1.129s1.059-.004 1.08-.007a9.96 9.96 0 000-1.115zM24.91 8.968a.563.563 0 00.282-.076s.913-.532.93-.544a10.094 10.094 0 00-.56-.967c-.018.008-.935.533-.935.533a.565.565 0 00.282 1.054zm-7.803-6.166a9.45 9.45 0 00-.558.017c-.002.021-.006 1.08-.006 1.08a.564.564 0 101.129 0s-.004-1.06-.007-1.08a10.332 10.332 0 00-.558-.017zm-4.56 1.091c-.332.169-.654.356-.966.56.008.018.533.935.533.935a.564.564 0 10.978-.564s-.532-.914-.545-.93z" fill="#F88E0F"/><path d="M18.934 30a5.077 5.077 0 01-2.45-.647 41.682 41.682 0 01-9.115-7.011A39.046 39.046 0 01.622 13.53c-1.036-1.905-.759-4.158.69-5.608L3.14 6.095a1.82 1.82 0 012.64.184l3.722 4.392a1.772 1.772 0 01-.041 2.414l-1.953 1.953a.461.461 0 00-.038.586c2.17 3.198 5.083 5.438 7.144 6.754a.46.46 0 00.568-.045l1.764-1.764a1.794 1.794 0 012.414-.04l4.392 3.721a1.82 1.82 0 01.185 2.64C22.48 28.346 21.174 30 18.934 30z" fill="#00BBAE"/><path d="M21.996 14.503a.528.528 0 01-.323-.198.608.608 0 01-.029-.473l.258-1.216h-1.264l-.305 1.456c-.065.31-.247.401-.558.406a1.18 1.18 0 01-.339-.028c-.282-.079-.316-.317-.263-.57l.734-3.5a.596.596 0 01.1-.262c.192-.234.868-.223 1.033.043.062.14.07.3.02.445l-.206.976h1.263l.243-1.165a.469.469 0 01.508-.441c.197-.036.4.003.57.108a.54.54 0 01.082.528l-.713 3.412a.637.637 0 01-.138.33.762.762 0 01-.673.149zm-8.375-1.574c.256-.238.444-.426.56-.56.288-.305.457-.704.477-1.123a1.222 1.222 0 00-.383-.922 1.44 1.44 0 00-1.029-.361 1.516 1.516 0 00-.896.272 1.557 1.557 0 00-.485.764.395.395 0 00.31.536c.126.027.253.044.381.053a.395.395 0 00.377-.276c.057-.17.118-.374.333-.374a.246.246 0 01.19.078.408.408 0 01.02.446 3.19 3.19 0 01-.767.854c-.374.356-.636.618-.778.78a2.57 2.57 0 00-.416.635.565.565 0 00-.01.586.398.398 0 00.317.155h2.043a.401.401 0 00.39-.318l.059-.282a.399.399 0 00-.391-.48h-.787c.085-.088.248-.243.485-.463zm4.367-2.802a.397.397 0 01.081.334l-.447 2.135h.014a.403.403 0 01.39.48l-.048.23a.4.4 0 01-.39.318h-.18l-.113.53a.402.402 0 01-.391.317h-.294a.404.404 0 01-.39-.48l.077-.366h-1.14a.399.399 0 01-.39-.485c.012-.188.069-.37.166-.532l2.129-2.488a.4.4 0 01.303-.14h.314a.398.398 0 01.31.147zm-1.233 1.678l-.734.867h.554l.18-.867z" fill="#001430"/><path d="M25.696 22.436a.283.283 0 01-.2-.08l-1.681-1.682a.287.287 0 01.009-.408A9.961 9.961 0 0016.88 2.943a9.963 9.963 0 00-7.132 3.249.285.285 0 01-.408.01L7.658 4.517a.282.282 0 01-.007-.391 12.904 12.904 0 1118.237 18.237.282.282 0 01-.192.072z" fill="#F88E0F"/></svg>