<svg width="17" height="16" fill="none" xmlns="http://www.w3.org/2000/svg"><g clip-path="url(#clip0_1106_6392)"><path d="M3.802 13.428l-.02.178.137.116C5.25 14.844 6.929 15.4 8.667 15.4a7.373 7.373 0 004.748-1.745l.14-.118-.025-.181a4.973 4.973 0 00-1.428-2.858c-.866-.867-2.086-1.365-3.435-1.365-2.502 0-4.578 1.86-4.865 4.295zM10.42 8.52l-.63.405.722.197c.657.179 1.275.603 1.852 1.18.688.688 1.127 1.5 1.38 2.45l.165.619.413-.49a7.552 7.552 0 001.745-4.814c0-4.049-3.28-7.4-7.4-7.4C4.547.667 1.333 3.95 1.333 8c0 1.745.628 3.492 1.819 4.822l.444.497.13-.654a4.797 4.797 0 011.433-2.553l.005-.005.005-.005c.485-.485 1.102-.798 1.755-1.06l.64-.256-.599-.342C6.142 7.974 5.6 7.02 5.6 6a3.081 3.081 0 013.067-3.067A3.081 3.081 0 0111.733 6c0 1.031-.485 1.987-1.313 2.52zm-1.753 7.213c-2.041 0-3.96-.829-5.437-2.24C1.77 12.095 1 10.12 1 8c0-2.106.828-3.959 2.24-5.436C4.639 1.103 6.616.334 8.668.334c2.04 0 3.957.827 5.433 2.238C15.568 4.04 16.333 5.954 16.333 8c0 2.041-.829 3.96-2.24 5.436-1.404 1.467-3.317 2.297-5.426 2.297zm0-12.466A2.723 2.723 0 005.933 6a2.723 2.723 0 002.734 2.733A2.723 2.723 0 0011.4 6a2.723 2.723 0 00-2.733-2.733z" fill="#fff" stroke="#fff" stroke-width=".667"/></g><defs><clipPath id="clip0_1106_6392"><path fill="#fff" transform="translate(.667)" d="M0 0h16v16H0z"/></clipPath></defs></svg>