<svg width="16" height="16" fill="none" xmlns="http://www.w3.org/2000/svg"><path d="M14.45 4.48a1.7 1.7 0 00-1.187-1.223C12.211 3 8.001 3 8.001 3s-4.21 0-5.263.281a1.701 1.701 0 00-1.187 1.224 17.745 17.745 0 00-.281 3.237 17.746 17.746 0 00.281 3.262 1.7 1.7 0 001.187 1.175c1.053.281 5.263.281 5.263.281s4.21 0 5.262-.282a1.7 1.7 0 001.187-1.223c.191-1.06.286-2.136.282-3.213a17.735 17.735 0 00-.282-3.261z" stroke="#A4B0BF" stroke-width="1.25" stroke-linecap="round" stroke-linejoin="round"/><path d="M6.624 9.743l3.519-2-3.52-2.003v4.002z" stroke="#A4B0BF" stroke-width="1.25" stroke-linecap="round" stroke-linejoin="round"/></svg>