<svg width="153" height="150" viewBox="0 0 153 150" fill="none" xmlns="http://www.w3.org/2000/svg">
<path d="M122.599 42.1969C114.229 41.8725 107.392 35.1248 107.009 26.6254C106.498 15.4659 102.983 2.23015 89.4374 0.218833C75.1247 -1.85736 65.9876 11.2486 60.9398 22.2135C57.2977 30.129 49.2468 34.9302 40.6848 34.4111C26.2443 33.5677 6.05318 34.9302 1.06929 48.0362C-3.46732 59.8445 7.2672 72.0422 17.5544 80.4118C25.6053 87.0297 28.3529 98.319 24.3274 107.986C19.0879 120.638 15.957 136.923 29.7586 143.606C43.5601 150.289 57.4255 140.881 66.6904 131.603C73.08 125.245 83.3672 125.374 89.5651 131.992C99.5968 142.633 114.101 154.506 125.027 148.277C135.954 142.049 133.078 125.05 128.925 112.333C125.986 103.25 128.669 93.2583 135.762 86.9648C144.963 78.7898 155.25 66.9166 152.567 56.2112C149.947 45.4409 134.931 42.651 122.599 42.1969Z" fill="white"/>
</svg>
