<svg width="145" height="142" viewBox="0 0 145 142" fill="none" xmlns="http://www.w3.org/2000/svg">
<path d="M114.6 141.2C108.3 141.2 99.3997 135.4 89.3997 124.8C85.3997 120.5 79.9997 118.2 74.0997 118.2C68.4997 118.2 63.2997 120.4 59.2997 124.3C53.4997 130.1 44.5997 137.1 35.5997 137.1C32.9997 137.1 30.4997 136.5 28.0997 135.3C19.7997 131.3 18.7997 121.4 25.0997 106.1C29.9997 94.5 26.6997 80.8 16.9997 72.8C9.79974 66.9 -1.70026 55.7 1.99974 46.1C5.49974 36.9 21.2997 35.5 30.2997 35.5C32.2997 35.5 34.3997 35.6001 36.5997 35.7001C37.0997 35.7001 37.5997 35.7001 38.1997 35.7001C48.2997 35.7001 57.4997 29.8 61.6997 20.6C65.7997 11.8 72.6997 1.30005 82.6997 1.30005C83.3997 1.30005 84.1997 1.40005 84.9997 1.50005C93.1997 2.70005 97.6997 10.0001 98.2997 23.2001C98.7997 34.2001 107.8 43.1 118.7 43.5C127.3 43.8 142 45.6 144 53.7001C145.6 60.2001 140.2 69.3 128.7 79.5C120.1 87.1 116.9 99.1 120.4 110.1C123.4 119.3 127.2 135.4 118.8 140.2C117.5 140.9 116.2 141.2 114.6 141.2Z" stroke="white" stroke-miterlimit="10" stroke-dasharray="3 3"/>
</svg>
