<svg width="69" height="96" viewBox="0 0 69 96" fill="none" xmlns="http://www.w3.org/2000/svg">
<ellipse opacity="0.6" cx="34.4996" cy="85.9702" rx="26.5075" ry="10.0299" fill="url(#paint0_radial_3052_5830)"/>
<path d="M68.1704 34.152C67.8773 45.062 64.011 53.8592 56.1841 60.6935C48.6329 67.2888 42.3519 74.9261 37.4317 83.7448C35.7812 86.7069 33.4328 86.7141 31.7857 83.7519C26.883 74.9261 20.5531 67.3423 13.0578 60.6864C2.65564 51.4466 -1.35376 39.7087 1.96822 26.0471C5.2553 12.5426 14.0278 4.07009 27.3018 0.861693C46.1763 -3.69573 65.5324 10.3727 67.8075 30.1263C67.9785 31.6002 68.0762 33.0813 68.1704 34.152Z" fill="#00BBAE"/>
<circle cx="33.3582" cy="34.3582" r="24.3582" fill="white"/>
<path d="M47.6573 33.3621V35.4496C47.6573 37.4536 47.2641 39.3741 46.5562 41.1276C45.8484 42.8811 44.826 44.4676 43.5676 45.7201C42.3092 47.0561 40.8149 48.0581 39.1633 48.8096C37.5117 49.5611 35.7028 49.9786 33.7366 49.9786C31.9277 50.0621 30.1188 49.7281 28.4672 48.9766C26.8156 48.2251 25.3212 47.2231 24.0629 45.8871C22.8045 44.5511 21.7821 43.0481 20.9956 41.2946C20.2878 39.6246 19.8945 37.8711 19.8945 36.0341C19.8945 35.9506 19.8945 35.8671 19.8945 35.7836V33.5291C19.8945 32.5271 20.2091 31.6085 20.917 30.7735C21.6248 30.022 22.4899 29.6045 23.591 29.521C23.7483 29.521 23.8269 29.521 23.9842 29.521C27.2088 29.354 28.4672 32.7776 30.512 33.6961C32.7928 34.6146 36.332 34.4476 39.0847 31.525C40.2644 30.356 41.6014 29.688 42.8598 29.688C43.1744 29.6045 43.489 29.521 43.8036 29.521C44.826 29.521 45.6911 29.9385 46.4776 30.69C47.1854 31.525 47.5787 32.4435 47.6573 33.3621Z" fill="#00BBAE"/>
<path d="M26.6584 19C24.5349 19 22.8047 20.837 22.8047 23.008C22.8047 25.2625 24.5349 27.016 26.6584 27.016C28.7819 27.016 30.5122 25.179 30.5122 23.008C30.4336 20.7535 28.7819 19 26.6584 19ZM25.0855 22.173C24.6136 22.173 24.2204 21.7555 24.2204 21.2545C24.2204 20.7535 24.6136 20.4195 25.0855 20.4195C25.5574 20.4195 25.9506 20.837 25.9506 21.2545C25.9506 21.672 25.5574 22.173 25.0855 22.173Z" fill="#F88E0F"/>
<path d="M40.8147 19C38.6912 19 36.9609 20.837 36.9609 23.008C36.9609 25.2625 38.6912 27.016 40.8147 27.016C42.9382 27.016 44.6685 25.179 44.6685 23.008C44.6685 20.7535 42.9382 19 40.8147 19ZM39.2417 22.173C38.7698 22.173 38.3766 21.7555 38.3766 21.2545C38.3766 20.7535 38.7698 20.4195 39.2417 20.4195C39.7136 20.4195 40.1069 20.837 40.1069 21.2545C40.1069 21.672 39.7136 22.173 39.2417 22.173Z" fill="#F88E0F"/>
<path d="M23.4336 37.3701C24.9279 38.3721 26.4222 39.2071 27.9165 39.7916C29.4109 40.3761 30.9052 40.6266 32.3995 40.5431C33.8938 40.4596 35.3095 39.8751 36.6465 39.1236C38.0621 38.2886 39.3992 37.2031 40.8148 36.1176C40.1856 37.8711 39.0846 39.4576 37.7476 40.7101C36.3319 41.9626 34.523 42.8811 32.5568 43.0481C30.5906 43.2151 28.703 42.6306 27.1301 41.5451C25.5571 40.4596 24.2201 39.0401 23.4336 37.3701Z" fill="white"/>
<defs>
<radialGradient id="paint0_radial_3052_5830" cx="0" cy="0" r="1" gradientUnits="userSpaceOnUse" gradientTransform="translate(34.4996 85.9702) rotate(90) scale(10.0299 26.5075)">
<stop/>
<stop offset="1" stop-color="white" stop-opacity="0"/>
</radialGradient>
</defs>
</svg>
