<svg width="191" height="160" viewBox="0 0 191 160" fill="none" xmlns="http://www.w3.org/2000/svg">
<g clip-path="url(#clip0_2782_4635)">
<path d="M95.4315 160C139.678 160 175.515 124.2 175.515 80C175.515 35.8 139.678 0 95.4315 0C51.1852 0 15.3477 35.8 15.3477 80C15.3477 124.2 51.1852 160 95.4315 160Z" fill="#DAF4F3"/>
<path d="M65.4044 23.0667H127.136C133.009 23.0667 137.814 27.8667 137.814 33.7333V115.733C137.814 121.6 133.009 126.4 127.136 126.4H65.4044C59.5316 126.4 54.7266 121.6 54.7266 115.733V33.7333C54.7266 27.8 59.5316 23.0667 65.4044 23.0667Z" fill="url(#paint0_linear_2782_4635)"/>
<path d="M65.3326 36.4H92.1607C93.9626 36.4 95.4308 37.8667 95.4308 39.6667C95.4308 41.4667 93.9626 42.9334 92.1607 42.9334H65.3326C63.5307 42.9334 62.0625 41.4667 62.0625 39.6667C62.0625 37.8 63.5307 36.4 65.3326 36.4Z" fill="#FF8F6B"/>
<path d="M65.3326 54.9333H125.529C127.331 54.9333 128.799 56.4 128.799 58.2C128.799 60 127.331 61.4667 125.529 61.4667H65.3326C63.5307 61.4667 62.0625 60 62.0625 58.2C62.0625 56.3334 63.5307 54.9333 65.3326 54.9333Z" fill="#D5D5D5"/>
<path d="M65.3326 73.4667H125.529C127.331 73.4667 128.799 74.9333 128.799 76.7333C128.799 78.5333 127.331 80 125.529 80H65.3326C63.5307 80 62.0625 78.5333 62.0625 76.7333C62.0625 74.8667 63.5307 73.4667 65.3326 73.4667Z" fill="#D5D5D5"/>
<path d="M65.3326 92H125.529C127.331 92 128.799 93.4667 128.799 95.2667C128.799 97.0667 127.331 98.5333 125.529 98.5333H65.3326C63.5307 98.5333 62.0625 97.0667 62.0625 95.2667C62.0625 93.4 63.5307 92 65.3326 92Z" fill="#D5D5D5"/>
<path d="M65.3326 110.533H125.529C127.331 110.533 128.799 112 128.799 113.8C128.799 115.6 127.331 117.067 125.529 117.067H65.3326C63.5307 117.067 62.0625 115.6 62.0625 113.8C62.0625 111.933 63.5307 110.533 65.3326 110.533Z" fill="#D5D5D5"/>
<path d="M187.598 11.6H147.49C145.621 11.6 144.086 13.2 144.086 15.1333V34.9333C144.086 36.8666 145.621 38.4666 147.49 38.4666H187.598C189.467 38.4666 191.002 36.8666 191.002 34.9333V15.2C191.002 13.2 189.534 11.6 187.598 11.6Z" fill="white"/>
<path d="M154.16 29.3334C156.363 29.3334 158.165 27.5334 158.165 25.3334C158.165 23.1334 156.363 21.3334 154.16 21.3334C151.958 21.3334 150.156 23.1334 150.156 25.3334C150.156 27.5334 151.958 29.3334 154.16 29.3334Z" fill="#FFDA45"/>
<path d="M167.508 21.3334H180.855C183.058 21.3334 184.86 23.1334 184.86 25.3334C184.86 27.5334 183.058 29.3334 180.855 29.3334H167.508C165.306 29.3334 163.504 27.5334 163.504 25.3334C163.504 23.1334 165.306 21.3334 167.508 21.3334Z" fill="#D5D5D5"/>
<path fill-rule="evenodd" clip-rule="evenodd" d="M118.859 131.067C127.468 131.067 135.476 128.467 142.083 124L169.245 149.933L179.122 138.533L152.894 113.533C157.766 106.733 160.569 98.3999 160.569 89.3999C160.569 66.3999 141.883 47.7333 118.859 47.7333C95.8347 47.7333 77.1484 66.3999 77.1484 89.3999C77.1484 112.4 95.8347 131.067 118.859 131.067ZM154.429 89.3999C154.429 108.867 138.613 124.667 119.126 124.667C99.6387 124.667 83.8221 108.867 83.8221 89.3999C83.8221 69.9333 99.6387 54.1333 119.126 54.1333C138.613 54.1333 154.429 69.8666 154.429 89.3999Z" fill="#17CB9E"/>
<path d="M119.125 125.333C139.213 125.333 155.497 109.2 155.497 89.3334C155.497 69.4667 139.213 53.3334 119.125 53.3334C99.0376 53.3334 82.7539 69.4667 82.7539 89.3334C82.7539 109.2 99.0376 125.333 119.125 125.333Z" fill="white" fill-opacity="0.3"/>
<path d="M125.396 89.3333L134.205 80.6C135.006 79.7333 135.473 78.6 135.473 77.4C135.473 76.2 134.94 75.0666 134.139 74.2C133.271 73.3333 132.137 72.8666 130.935 72.8666C129.734 72.8666 128.6 73.2666 127.732 74.1333L118.923 82.8666L110.114 74.1333C109.713 73.6666 109.179 73.3333 108.645 73.0666C108.111 72.8 107.444 72.6666 106.843 72.6666C106.243 72.6666 105.642 72.8 105.042 73C104.441 73.2 103.974 73.6 103.507 74C103.039 74.4 102.706 74.9333 102.506 75.5333C102.305 76.1333 102.172 76.7333 102.172 77.3333C102.172 77.9333 102.305 78.5333 102.572 79.1333C102.839 79.6666 103.173 80.2 103.64 80.6L112.449 89.3333L103.64 98.0666C103.173 98.4666 102.839 99 102.572 99.5333C102.305 100.067 102.172 100.667 102.172 101.333C102.172 101.933 102.305 102.533 102.506 103.133C102.706 103.733 103.106 104.2 103.507 104.667C103.974 105.067 104.441 105.467 105.042 105.667C105.642 105.867 106.243 106 106.843 106C107.444 106 108.045 105.867 108.645 105.6C109.179 105.333 109.713 105 110.114 104.533L118.923 95.8L127.732 104.533C128.6 105.333 129.734 105.733 130.935 105.667C132.137 105.6 133.204 105.133 134.072 104.333C134.873 103.533 135.407 102.4 135.407 101.267C135.473 100.133 135.006 99 134.272 98.0666L125.396 89.3333Z" fill="#F88E0F"/>
<path d="M169.242 149.867L179.119 138.467L180.587 139.867C182.056 141.267 182.856 143.133 182.99 145.2C183.057 147.267 182.389 149.267 181.121 150.733C179.787 152.267 177.985 153.133 176.049 153.267C174.114 153.333 172.179 152.667 170.777 151.267L169.242 149.867Z" fill="#FFDA45"/>
<path fill-rule="evenodd" clip-rule="evenodd" d="M32.8996 41.4666C32.8996 40.5333 32.7662 39.5333 32.4992 38.6C31.6316 35.2 27.8944 33.0666 23.9569 32.5333C19.9527 32 15.8818 33.2 14.2801 36.1333C13.3458 37.8 13.2123 39.2666 13.6128 40.4666C14.0132 41.6666 14.8808 42.6666 16.082 43.4666C19.4188 45.6666 25.2249 46.1333 27.8944 45.2C29.0956 44.8 30.2969 44.2666 31.4982 43.6666C30.8308 47.4666 28.3615 51.1333 25.0247 54.4C17.7504 61.5333 6.53869 66.9333 0.465665 68.8666C0.131982 69 -0.0682277 69.3333 0.0652454 69.6666C0.198719 70 0.532401 70.2 0.866084 70.0666C7.07258 68.0666 18.5513 62.5333 25.8923 55.2666C29.6963 51.5333 32.4325 47.3333 32.8996 42.8666C41.5086 38.0666 48.5827 29.3333 54.6557 22C54.856 21.7333 54.856 21.3333 54.589 21.0666C54.3221 20.8666 53.9216 20.8666 53.7214 21.1333C47.8486 28.3333 41.1082 36.6666 32.8996 41.4666ZM31.6316 42.1333C31.6984 41.0666 31.5649 40 31.298 38.8666C30.5639 35.9333 27.227 34.2 23.8235 33.7333C21.6879 33.4666 19.5523 33.6666 17.8172 34.4666C16.7494 34.9333 15.8818 35.6666 15.3479 36.6666C14.6805 37.9333 14.4803 39.0666 14.814 40C15.081 40.9333 15.8151 41.7333 16.7494 42.3333C19.7525 44.3333 25.0915 44.7333 27.494 43.9333C28.8954 43.4666 30.2969 42.8666 31.6316 42.1333Z" fill="black"/>
<path d="M185.528 107.333C187.739 107.333 189.532 105.543 189.532 103.333C189.532 101.124 187.739 99.3334 185.528 99.3334C183.316 99.3334 181.523 101.124 181.523 103.333C181.523 105.543 183.316 107.333 185.528 107.333Z" fill="#FF8F6B"/>
<path fill-rule="evenodd" clip-rule="evenodd" d="M34.3019 130.933C35.036 130.667 35.7701 130.333 36.3707 129.8C37.0381 129.2 37.3718 128.4 37.5052 127.6C37.7722 126.533 37.8389 125.4 38.1059 124.333C38.2393 123.933 38.4396 123.8 38.5063 123.733C38.7065 123.533 38.9734 123.533 39.1737 123.533C39.4406 123.533 39.7743 123.667 40.0412 124.133C40.108 124.2 40.108 124.267 40.1747 124.4C40.1747 124.467 40.2414 124.8 40.2414 124.933C40.3082 125.267 40.3749 125.533 40.3749 125.867C40.5084 126.933 40.5751 127.8 41.0423 128.733C41.6429 130.067 42.3103 130.867 43.1111 131.2C43.9119 131.533 44.913 131.467 46.181 131.2C46.3145 131.2 46.4479 131.133 46.5147 131.133C47.0486 131 47.5825 131.4 47.7159 132C47.8494 132.6 47.449 133.133 46.9151 133.267C46.7816 133.267 46.7149 133.333 46.5814 133.333C44.913 133.8 42.9776 135.333 41.8431 136.733C41.5094 137.133 40.9755 138.333 40.4416 139.067C40.0412 139.6 39.6408 140 39.2404 140.133C38.9734 140.2 38.7732 140.2 38.6398 140.133C38.3728 140.067 38.1726 139.933 38.0391 139.733C37.9724 139.6 37.9057 139.467 37.8389 139.267C37.8389 139.133 37.8389 138.933 37.8389 138.8C37.7055 138.4 37.572 138.067 37.5052 137.667C37.305 136.733 36.8379 136.133 36.304 135.4C35.8368 134.667 35.3029 134.2 34.5021 133.867C34.3686 133.867 33.5678 133.6 33.3008 133.533C32.9004 133.333 32.7002 133.067 32.6335 132.933C32.5 132.667 32.5 132.4 32.5 132.2C32.5667 131.933 32.6335 131.667 32.9004 131.467C33.0339 131.333 33.2341 131.2 33.501 131.133C33.6345 130.933 34.2352 130.933 34.3019 130.933ZM39.0402 129.4C39.1069 129.467 39.1069 129.6 39.1737 129.667C40.108 131.6 41.109 132.667 42.3103 133.133H42.377C41.5762 133.8 40.7753 134.533 40.2414 135.2C39.9745 135.467 39.7075 136.067 39.3739 136.667C39.0402 135.6 38.573 134.867 37.9057 133.933C37.4385 133.2 36.9046 132.667 36.304 132.267C36.7711 132 37.2383 131.733 37.6387 131.333C38.3061 130.867 38.7732 130.133 39.0402 129.4Z" fill="#FF8F6B"/>
</g>
<defs>
<linearGradient id="paint0_linear_2782_4635" x1="96.2824" y1="23.0373" x2="96.2824" y2="126.39" gradientUnits="userSpaceOnUse">
<stop stop-color="white"/>
<stop offset="0.7188" stop-color="#FAFAFA"/>
</linearGradient>
<clipPath id="clip0_2782_4635">
<rect width="191" height="160" fill="white"/>
</clipPath>
</defs>
</svg>
