<svg width="80" height="24" viewBox="0 0 80 24" fill="none" xmlns="http://www.w3.org/2000/svg">
<path d="M1.4966 0C0.698413 0 0 0.811594 0 1.73913V5.33333C0 5.91304 0.29932 6.49275 0.798186 6.84058C1.69615 7.42029 2.39456 8.23188 2.89342 9.27536C4.19048 12.058 3.29252 15.6522 0.798186 17.1594C0.29932 17.5072 0 18.087 0 18.6667V22.2609C0 23.1884 0.698413 24 1.4966 24H7.78231H9.57823H78.5034C79.3016 24 80 23.1884 80 22.2609V18.6667C80 18.087 79.7007 17.5072 79.2018 17.1594C78.3039 16.5797 77.6054 15.7681 77.1066 14.7246C75.8095 11.8261 76.7075 8.34783 79.2018 6.84058C79.7007 6.49275 80 5.91304 80 5.33333V1.73913C80 0.811594 79.3016 0 78.5034 0H1.4966Z" fill="#F88E0F"/>
</svg>
