<svg width="1306" height="180" viewBox="0 0 1306 180" fill="none" xmlns="http://www.w3.org/2000/svg">
<path opacity="0.12" d="M1296.21 16.3051C1291.8 11.1526 1285.91 7.32501 1278.99 5.85287C1264.34 2.68777 1249.55 8.57633 1239.54 19.4702C1238.21 20.8687 1237.03 22.4144 1235.86 23.9602C1235.86 23.9602 1222.61 8.35551 1211.79 26.0212C1211.79 26.0212 1198.98 9.01797 1182.78 28.0822C1166.59 47.0728 1173.44 47.0728 1173.44 47.0728L1305.12 45.0118C1305.34 41.8467 1305.27 37.6511 1304.31 32.9403C1303.06 26.6837 1300.26 20.9423 1296.21 16.3051Z" fill="white"/>
<path d="M857 7C857 8.06667 857.933 9 859 9C860.067 9 861 8.06667 861 7C861 5.93333 860.067 5 859 5C857.933 5 857 5.93333 857 7Z" fill="white"/>
<path d="M1116.33 165.86C1115.72 166.737 1115.98 168.052 1116.86 168.666C1117.74 169.279 1119.05 169.016 1119.67 168.14C1120.28 167.263 1120.02 165.948 1119.14 165.334C1118.26 164.721 1116.95 164.984 1116.33 165.86Z" fill="white"/>
<path d="M400.44 173.074C399.648 174.183 399.965 175.768 401.074 176.56C402.183 177.352 403.768 177.035 404.56 175.926C405.352 174.817 405.035 173.232 403.926 172.44C402.658 171.648 401.232 171.965 400.44 173.074Z" fill="white"/>
<path d="M440.316 176.956C439.835 177.87 439.835 179.242 440.797 179.7C441.759 180.157 443.203 180.157 443.684 179.242C444.165 178.328 444.165 176.956 443.203 176.499C442.241 175.584 440.797 176.041 440.316 176.956Z" fill="white"/>
<path opacity="0.12" d="M423.642 147.336C426.911 143.549 431.239 140.731 436.325 139.64C447.131 137.277 457.998 141.64 465.353 149.669C466.322 150.7 467.2 151.821 468.047 152.972C468.047 152.972 477.794 141.458 485.755 154.487C485.755 154.487 495.139 141.973 507.065 156.002C518.991 170 513.936 170 513.936 170L417.073 168.485C416.922 166.152 416.952 163.092 417.679 159.577C418.617 155.032 420.706 150.79 423.642 147.336Z" fill="white"/>
<g opacity="0.2">
<path d="M13.2138 0H13.1277C12.8692 0 12.6108 0.0861538 12.4385 0.172308C12.0077 0.387692 11.62 0.775385 11.2754 1.29231C10.9308 1.80923 10.6723 2.36923 10.4138 3.10154C10.1554 3.74769 9.98308 4.43692 9.72462 5.29846C9.55231 5.90154 9.42308 6.59077 9.20769 7.53846V7.62462C9.16462 7.92615 9.07846 8.18462 9.03539 8.48615C8.47539 8.61539 7.91539 8.74462 7.31231 8.91692C6.53692 9.13231 5.80462 9.34769 5.07231 9.60615C4.25385 9.90769 3.56462 10.1662 2.91846 10.4677C2.18615 10.8123 1.66923 11.1569 1.19538 11.5015C0.678461 11.8892 0.333846 12.2769 0.161538 12.7077C-0.0538462 13.1815 -0.0538462 13.6985 0.161538 14.1292C0.290769 14.3446 0.42 14.56 0.635385 14.7754C0.850769 14.9908 1.06615 15.1631 1.36769 15.3785C1.88462 15.7231 2.53077 16.0677 3.30615 16.4123C3.95231 16.7138 4.68462 16.9723 5.54615 17.2308C6.27846 17.4462 7.01077 17.6615 7.87231 17.92L7.82923 18.0923V18.2646C7.74308 18.8677 7.7 19.5569 7.65692 20.2031C7.61385 21.0646 7.57077 21.7538 7.57077 22.4C7.57077 23.2185 7.61385 23.9077 7.7 24.5108C7.74308 24.8985 7.82923 25.2431 7.91539 25.5446C8.00154 25.8031 8.08769 26.1477 8.26 26.4923C8.56154 27.0954 8.94923 27.5262 9.42308 27.7415C9.76769 27.9138 10.1123 28 10.5431 28C10.8015 28 11.0169 27.9569 11.2754 27.9138C11.62 27.8277 11.9215 27.6985 12.2231 27.5262C12.5677 27.3538 12.8692 27.1385 13.1277 26.9231C13.6877 26.4923 14.2477 25.9323 14.8077 25.2C15.2815 24.5969 15.7554 23.9508 16.2292 23.1754C16.5738 22.6585 16.8323 22.1846 17.0477 21.7969C17.78 22.4862 18.5554 23.1323 19.3738 23.7354C20.1492 24.2954 20.7954 24.6831 21.3985 24.9846C21.7862 25.1569 22.0877 25.2862 22.3892 25.4154C22.7769 25.5446 23.0785 25.6308 23.38 25.6308C23.5092 25.6308 23.6385 25.6308 23.7677 25.6308C23.9831 25.6308 24.1554 25.6308 24.2846 25.5877C24.6292 25.5015 24.8877 25.4154 25.1031 25.2431C25.62 24.8985 25.9646 24.2954 26.1369 23.52C26.2231 23.1754 26.2662 22.7877 26.2231 22.3569C26.2231 21.9692 26.18 21.5385 26.0938 21.1077C25.9646 20.2892 25.7062 19.4277 25.3185 18.4369C25.06 17.7046 24.7154 16.9292 24.2415 15.9385C24.1123 15.68 23.9831 15.4215 23.8538 15.1631C24.1985 14.9477 24.5862 14.6462 24.9738 14.3877C26.2662 13.44 27.1708 12.5785 27.9031 11.7169C28.1615 11.3723 28.3769 11.1138 28.5492 10.8123C28.7646 10.4677 28.8938 10.1662 28.98 9.90769C29.1092 9.56308 29.1523 9.26154 29.1523 9.00308C29.1523 8.65846 29.0662 8.35692 28.9369 8.09846C28.7215 7.66769 28.3338 7.32308 27.7308 7.06462C27.4723 6.93538 27.1708 6.84923 26.8692 6.80615C26.5246 6.72 26.1369 6.67692 25.7923 6.63385C25.2323 6.59077 24.7154 6.54769 24.1123 6.54769C23.8969 6.54769 23.6815 6.54769 23.4662 6.54769C22.7338 6.54769 21.9585 6.63385 21.0108 6.72C20.58 6.76308 20.1492 6.80615 19.7185 6.89231C19.4169 6.37538 19.0292 5.72923 18.6415 5.12615C18.0815 4.26462 17.6077 3.57538 17.1769 3.01538C16.6169 2.28308 16.1 1.72308 15.5831 1.24923C15.2815 0.990769 15.0231 0.775385 14.8077 0.646154C14.5062 0.430769 14.2477 0.301538 13.9892 0.215385C13.7308 0.0430769 13.4723 0 13.2138 0Z" fill="white"/>
<path d="M13.7308 3.79106C13.7308 4.35106 14.2047 4.78183 14.7216 4.78183C15.2816 4.78183 15.7124 4.30799 15.7124 3.79106C15.7124 3.23106 15.2385 2.80029 14.7216 2.80029C14.2047 2.80029 13.7308 3.23106 13.7308 3.79106Z" fill="white"/>
<path d="M16.4014 6.37527C16.4014 6.54758 16.5306 6.67681 16.7029 6.67681C16.8752 6.67681 17.0044 6.54758 17.0044 6.37527C17.0044 6.20296 16.8752 6.07373 16.7029 6.07373C16.5306 6.11681 16.4014 6.24604 16.4014 6.37527Z" fill="white"/>
</g>
<path opacity="0.3" d="M671.397 6H671.345C671.141 6 670.936 6.05057 670.783 6.15172C670.425 6.30345 670.118 6.6069 669.862 7.01149C669.606 7.41609 669.351 7.87126 669.146 8.42759C668.941 8.93333 668.788 9.48965 668.634 10.1471C668.532 10.6023 668.379 11.1586 668.225 11.9172V12.0184C668.174 12.2207 668.123 12.4736 668.072 12.6759C667.663 12.777 667.202 12.8782 666.742 13.0299C666.128 13.1816 665.565 13.3839 664.951 13.5862C664.287 13.8391 663.775 14.0414 663.263 14.2943C662.701 14.5471 662.292 14.8 661.934 15.1034C661.524 15.4069 661.269 15.7103 661.115 16.0644C660.962 16.4184 660.962 16.823 661.115 17.177C661.217 17.3287 661.32 17.531 661.473 17.6828C661.627 17.8345 661.831 17.9862 662.036 18.1379C662.445 18.4414 662.957 18.6943 663.57 18.9471C664.082 19.1494 664.645 19.3517 665.361 19.6046C665.923 19.8069 666.486 19.9586 667.202 20.1103V20.2115V20.3632C667.151 20.869 667.1 21.3747 667.049 21.8805C666.998 22.5379 666.998 23.0943 666.998 23.6C666.998 24.2575 667.049 24.7632 667.1 25.269C667.151 25.5724 667.202 25.8253 667.253 26.0782C667.304 26.2805 667.407 26.5333 667.509 26.7862C667.765 27.2414 668.072 27.5954 668.43 27.7977C668.686 27.8988 668.992 28 669.299 28C669.504 28 669.709 27.9494 669.862 27.8989C670.118 27.8483 670.374 27.7471 670.578 27.5954C670.834 27.4437 671.09 27.292 671.294 27.1402C671.755 26.7862 672.164 26.331 672.624 25.8253C672.982 25.3701 673.392 24.8138 673.75 24.2575C674.005 23.8529 674.21 23.4989 674.415 23.1954C674.977 23.7517 675.591 24.2575 676.256 24.7126C676.87 25.1172 677.381 25.4207 677.842 25.6736C678.149 25.8253 678.404 25.9264 678.609 25.977C678.916 26.0782 679.121 26.1287 679.376 26.1287C679.479 26.1287 679.581 26.1287 679.683 26.1287C679.837 26.1287 679.99 26.1287 680.092 26.0782C680.348 26.0276 680.553 25.9264 680.757 25.8253C681.167 25.5218 681.422 25.0667 681.576 24.5103C681.627 24.2575 681.678 23.954 681.678 23.6C681.678 23.2966 681.627 22.9931 681.576 22.6391C681.474 22.0322 681.269 21.3241 680.962 20.5655C680.757 20.0092 680.502 19.4023 680.144 18.5931C680.041 18.3908 679.939 18.1885 679.837 17.9862C680.144 17.7839 680.399 17.5816 680.706 17.3793C681.729 16.6207 682.445 15.9632 683.008 15.3057C683.213 15.0529 683.366 14.8506 683.52 14.5977C683.673 14.3448 683.775 14.092 683.878 13.8897C683.98 13.6368 684.031 13.3839 683.98 13.1816C683.98 12.9287 683.929 12.6759 683.827 12.4736C683.673 12.1195 683.366 11.8667 682.906 11.6644C682.701 11.5632 682.445 11.5126 682.241 11.4621C681.934 11.4115 681.678 11.3609 681.422 11.3103C681.013 11.2598 680.553 11.2598 680.092 11.2598C679.939 11.2598 679.734 11.2598 679.581 11.2598C679.018 11.2598 678.404 11.3103 677.688 11.4115C677.33 11.4621 677.023 11.4621 676.665 11.5126C676.409 11.108 676.103 10.6023 675.796 10.1471C675.335 9.48965 674.977 8.93333 674.619 8.47816C674.159 7.92184 673.75 7.46667 673.34 7.11264C673.136 6.91034 672.931 6.75862 672.727 6.6069C672.471 6.45517 672.266 6.35402 672.062 6.30345C671.806 6 671.601 6 671.397 6Z" fill="white"/>
</svg>
