<svg width="102" height="90" viewBox="0 0 102 90" fill="none" xmlns="http://www.w3.org/2000/svg">
<path d="M82.7168 46.0647L14.7026 35.3379L7.70401 79.3027L75.7182 90.0295L82.7168 46.0647Z" fill="#001430"/>
<path d="M14.7878 35.2019L52.2918 18.6206L82.7581 45.931L14.7878 35.2019Z" fill="#69778A"/>
<path d="M80.1482 30.9111L21.9006 21.7246L13.229 76.1989L71.4766 85.3854L80.1482 30.9111Z" fill="#F2F2F2"/>
<path d="M74.0036 36.327L26.0505 28.7642L25.8693 29.9027L73.8224 37.4656L74.0036 36.327Z" fill="#CFDBDA"/>
<path d="M73.4667 39.787L25.5137 32.2241L25.3324 33.3627L73.2855 40.9255L73.4667 39.787Z" fill="#CFDBDA"/>
<path d="M72.9297 43.2475L24.9767 35.6846L24.7954 36.8231L72.7485 44.386L72.9297 43.2475Z" fill="#CFDBDA"/>
<path d="M72.3929 46.7074L24.4398 39.1445L24.2586 40.2831L72.2116 47.8459L72.3929 46.7074Z" fill="#CFDBDA"/>
<path d="M71.768 50.1537L23.8149 42.5908L23.6337 43.7294L71.5868 51.2922L71.768 50.1537Z" fill="#CFDBDA"/>
<path d="M71.2452 53.5263L23.2921 45.9634L23.1109 47.1019L71.0639 54.6648L71.2452 53.5263Z" fill="#CFDBDA"/>
<path d="M70.7083 56.9867L22.7552 49.4238L22.574 50.5624L70.5271 58.1252L70.7083 56.9867Z" fill="#CFDBDA"/>
<path d="M70.1713 60.4472L22.2183 52.8843L22.037 54.0228L69.9901 61.5857L70.1713 60.4472Z" fill="#CFDBDA"/>
<path d="M14.7878 35.2905L45.2542 62.6895L7.75024 79.2708L14.7878 35.2905Z" fill="#69778A"/>
<path d="M82.7581 46.0195L45.2542 62.6895L75.7205 89.9998L82.7581 46.0195Z" fill="#69778A"/>
<path d="M7.75024 79.2711C7.75024 79.2711 38.662 61.6258 45.2542 62.6898C51.8463 63.7539 75.7206 90.0002 75.7206 90.0002L7.75024 79.2711Z" fill="#8B9BB0"/>
<path d="M74.5624 23.4091C74.5624 23.4091 74.9188 22.2564 75.8096 20.749C76.255 19.951 76.7895 19.0643 77.4131 18.1776C78.0367 17.2022 78.8384 16.3155 79.6402 15.4288C80.0856 14.9855 80.4419 14.4535 80.8873 14.0101C81.3327 13.5668 81.6891 13.1234 82.2236 12.7687C82.7581 12.414 83.2035 12.148 83.738 12.0594C84.2725 11.882 84.7179 11.7934 85.2524 11.7047C85.7869 11.616 86.2323 11.616 86.5886 11.7047C87.034 11.7047 87.3904 11.7934 87.6576 11.882C88.2812 12.0594 88.6375 12.2367 88.6375 12.2367C88.8157 12.3254 88.8157 12.5027 88.8157 12.6801C88.8157 12.6801 88.6375 13.0347 88.2812 13.4781C88.103 13.7441 87.9249 14.0101 87.6576 14.2761C87.3904 14.5421 87.2122 14.8968 86.8559 15.1628C86.5886 15.4288 86.3214 15.7835 85.965 16.0495C85.6087 16.3155 85.2524 16.6702 84.896 16.9362C84.4506 17.2022 84.0052 17.3796 83.5598 17.5569C83.0253 17.7342 82.5799 18.0003 82.1345 18.2663C81.6891 18.5323 81.2436 18.887 80.7982 19.153C80.3528 19.5076 79.9074 19.7737 79.462 20.0397C78.6602 20.6604 77.8585 21.281 77.1458 21.8131C75.8096 22.8771 75.0078 23.6751 75.0078 23.6751C74.9188 23.7638 74.7406 23.7638 74.6515 23.6751C74.4733 23.5865 74.4733 23.4978 74.5624 23.4091Z" fill="white"/>
<path d="M83.4707 28.6406C83.4707 28.6406 84.2725 27.5766 85.6087 26.0692C86.3214 25.3598 87.1231 24.4731 88.0139 23.5864C88.9048 22.6997 89.9738 21.9017 91.1318 21.015C91.6663 20.5716 92.2899 20.2169 92.8244 19.7736C93.3589 19.3302 93.9825 18.9756 94.6061 18.7096C95.2297 18.4435 95.8532 18.2662 96.4768 18.1775C97.1004 18.0889 97.724 18.0889 98.2585 18.0889C98.793 18.0889 99.3275 18.1775 99.7729 18.2662C100.218 18.3549 100.664 18.5322 100.931 18.6209C101.555 18.8869 101.911 19.1529 101.911 19.1529C102.089 19.2416 102.089 19.4189 102 19.5963C102 19.5963 101.644 19.8623 101.198 20.3056C101.109 20.3943 100.931 20.483 100.753 20.5716C100.575 20.6603 100.486 20.749 100.307 20.9263C99.9511 21.1923 99.5947 21.4583 99.2384 21.6357C98.8821 21.9017 98.4366 22.1677 97.9912 22.4337C97.5458 22.6997 97.1004 22.9657 96.5659 23.1431C96.0314 23.3204 95.4969 23.4977 94.8733 23.6751C94.2497 23.8524 93.7152 24.0298 93.0917 24.2958C92.5572 24.5618 91.9336 24.7391 91.3991 25.0938C90.8646 25.3598 90.241 25.6258 89.7065 25.8918C89.172 26.1578 88.6375 26.4238 88.1921 26.6899C87.6576 26.9559 87.2122 27.2219 86.7668 27.3992C85.0742 28.2859 83.9161 28.9953 83.9161 28.9953C83.827 29.0839 83.6489 28.9953 83.5598 28.9066C83.4707 28.8179 83.4707 28.7293 83.4707 28.6406Z" fill="white"/>
<path d="M83.5598 36.355C83.5598 36.355 84.5397 35.6456 86.1432 34.7589C86.9449 34.3156 87.9249 33.8722 88.9939 33.4289C90.0628 32.9855 91.2209 32.5422 92.379 32.1875C93.0026 32.0101 93.6262 31.8328 94.1607 31.6555C94.7842 31.4781 95.4078 31.3008 96.0314 31.3008C96.655 31.3008 97.2786 31.3895 97.8131 31.4781C98.3476 31.6555 98.8821 31.8328 99.4166 32.0101C99.862 32.1875 100.307 32.5422 100.664 32.8082C101.02 33.0742 101.287 33.3402 101.465 33.6062C101.911 34.1382 102.089 34.4929 102.089 34.4929C102.178 34.6702 102.089 34.8476 101.911 34.9363C101.911 34.9363 101.555 35.1136 100.931 35.2909C100.664 35.3796 100.396 35.4683 99.9511 35.5569C99.5947 35.6456 99.2384 35.7343 98.793 35.823C98.3476 35.9116 97.9912 36.0003 97.5458 36.089C97.1004 36.1776 96.655 36.2663 96.1205 36.2663C95.586 36.2663 95.1406 36.1776 94.6061 36.089C94.0716 36.0003 93.5371 35.9116 92.9135 36.0003C91.7554 36.0003 90.6864 36.089 89.6174 36.1776C89.0829 36.1776 88.5484 36.2663 88.103 36.2663C87.5685 36.355 87.1231 36.355 86.6777 36.4436C84.896 36.621 83.738 36.7983 83.738 36.7983C83.6489 36.7983 83.4707 36.7096 83.4707 36.621C83.4707 36.5323 83.4707 36.4436 83.5598 36.355Z" fill="white"/>
<path d="M29.2193 15.2513C29.2193 15.2513 28.6848 14.2759 27.7939 12.7685C27.3485 12.0592 26.814 11.2611 26.1904 10.3744C25.9232 9.93109 25.5669 9.57641 25.2996 9.13306C24.9433 8.68971 24.676 8.24636 24.3197 7.89168C23.9634 7.44833 23.607 7.09365 23.1616 6.73897C22.7162 6.38429 22.3599 6.02961 22.0926 5.67493C21.8254 5.32025 21.5581 4.8769 21.38 4.52222C21.1127 4.16754 21.0236 3.72419 20.8455 3.36951C20.4891 3.01483 20.4 2.66015 20.311 2.30547C20.2219 1.95079 20.0437 1.68478 19.9546 1.41877C19.7765 0.886755 19.6874 0.443405 19.6874 0.443405C19.6874 0.266065 19.7765 0.0887253 19.9546 0.0887253C19.9546 0.0887253 20.311 5.53243e-05 20.9345 0.0887253C21.2018 0.0887253 21.6472 0.177395 22.0035 0.266065C22.3599 0.354735 22.8053 0.532075 23.2507 0.709415C23.6961 0.886755 24.1415 1.24143 24.5869 1.50744C25.0324 1.86212 25.4778 2.2168 25.8341 2.66015C26.1904 3.1035 26.4577 3.72419 26.7249 4.25621C26.9922 4.78823 27.1703 5.40892 27.4376 5.94094C27.883 7.09365 28.3284 8.15769 28.5957 9.22173C28.952 10.2858 29.1302 11.3498 29.3083 12.1478C29.5756 13.9212 29.5756 15.0739 29.5756 15.0739C29.5756 15.2513 29.4865 15.34 29.3083 15.34C29.3083 15.4286 29.2193 15.34 29.2193 15.2513Z" fill="white"/>
<path d="M19.0638 17.3795C19.0638 17.3795 18.173 16.4041 16.8367 14.9854C16.4804 14.6307 16.1241 14.2761 15.7677 13.8327C15.4114 13.478 14.966 13.0347 14.5206 12.5913C14.0751 12.148 13.6297 11.7933 13.1843 11.35C12.7389 10.9066 12.2935 10.4633 11.759 10.1086C11.3136 9.66522 10.7791 9.31054 10.2446 8.95586C9.71008 8.60118 9.26467 8.33517 8.81925 7.98049C8.552 7.53714 8.19567 7.18246 7.83934 6.73911C7.48301 6.38443 7.21576 5.94108 6.94851 5.5864C6.59218 5.32039 6.32493 4.87704 6.14676 4.61103C6.05768 4.34502 5.87951 4.25635 5.79043 4.07901C5.70135 3.90167 5.61226 3.813 5.52318 3.63567C5.16685 3.10365 4.98868 2.74897 4.98868 2.74897C4.8996 2.57163 4.98868 2.39429 5.16685 2.30562C5.16685 2.30562 5.16685 2.30562 5.25593 2.30562C5.25593 2.30562 5.61226 2.21695 6.32493 2.12828C6.68126 2.12828 7.12667 2.03961 7.57209 2.12828C8.0175 2.21695 8.552 2.30562 9.0865 2.39429C9.621 2.57163 10.1555 2.83764 10.69 3.10365C11.2245 3.36966 11.759 3.813 12.2935 4.16768C12.7389 4.61103 13.1843 5.14305 13.6297 5.76374C13.9861 6.38443 14.4315 6.91645 14.7878 7.44847C15.5896 8.60118 16.3022 9.75389 16.9258 10.8179C17.5494 11.882 17.9948 13.0347 18.4402 13.9214C19.242 15.7834 19.5983 17.0248 19.5983 17.0248C19.5983 17.1135 19.5983 17.2908 19.4201 17.2908C19.242 17.4682 19.1529 17.4682 19.0638 17.3795Z" fill="white"/>
<path d="M16.5694 24.8276C16.5694 24.8276 15.5004 24.2956 13.8969 23.4975C13.5406 23.3202 13.0952 23.1429 12.6498 22.8768C12.2044 22.6995 11.7589 22.4335 11.2244 22.2562C10.2445 21.8128 9.17553 21.3695 8.10654 21.0148C7.57204 20.8374 7.03754 20.7488 6.50304 20.5714C5.96855 20.4828 5.43405 20.3941 4.98863 20.2167C4.54322 20.0394 4.0978 19.8621 3.74147 19.5961C3.38514 19.5074 3.02881 19.33 2.67248 19.064C2.31614 18.8867 2.0489 18.6207 1.69256 18.4433C1.42531 18.1773 1.15807 18.0887 0.890817 17.9113C0.445402 17.5566 0.0890702 17.2906 0.0890702 17.2906C-1.27591e-05 17.202 -0.0890957 16.936 0.0890702 16.8473C0.0890702 16.8473 0.356319 16.5813 0.890817 16.2266C1.15807 16.0493 1.5144 15.8719 1.95981 15.7832C2.40523 15.6946 2.85064 15.5172 3.38514 15.4286C3.91964 15.4286 4.45414 15.3399 5.07772 15.4286C5.61221 15.5172 6.2358 15.6059 6.77029 15.7832C7.30479 16.0493 7.83929 16.3153 8.37379 16.7586C8.90828 17.1133 9.3537 17.468 9.8882 17.8227C10.8681 18.532 11.848 19.2414 12.7389 20.0394C13.6297 20.8374 14.3423 21.5468 14.9659 22.1675C16.2131 23.4975 16.9258 24.4729 16.9258 24.4729C17.0148 24.5616 17.0148 24.7389 16.8367 24.8276C16.7476 24.9163 16.6585 24.9163 16.5694 24.8276Z" fill="white"/>
</svg>
