<svg width="145" height="142" fill="none" xmlns="http://www.w3.org/2000/svg"><path d="M114.6 141.2c-6.3 0-15.2-5.8-25.2-16.4-4-4.3-9.4-6.6-15.3-6.6-5.6 0-10.8 2.2-14.8 6.1-5.8 5.8-14.7 12.8-23.7 12.8-2.6 0-5.1-.6-7.5-1.8-8.3-4-9.3-13.9-3-29.2C30 94.5 26.7 80.8 17 72.8 9.8 66.9-1.7 55.7 2 46.1c3.5-9.2 19.3-10.6 28.3-10.6 2 0 4.1.1 6.3.2h1.6c10.1 0 19.3-5.9 23.5-15.1 4.1-8.8 11-19.3 21-19.3.7 0 1.5.1 2.3.2 8.2 1.2 12.7 8.5 13.3 21.7.5 11 9.5 19.9 20.4 20.3 8.6.3 23.3 2.1 25.3 10.2 1.6 6.5-3.8 15.6-15.3 25.8-8.6 7.6-11.8 19.6-8.3 30.6 3 9.2 6.8 25.3-1.6 30.1-1.3.7-2.6 1-4.2 1z" stroke="#fff" stroke-miterlimit="10" stroke-dasharray="3 3"/></svg>