<svg width="153" height="150" fill="none" xmlns="http://www.w3.org/2000/svg"><path d="M122.599 42.197c-8.37-.325-15.207-7.072-15.59-15.572-.511-11.16-4.026-24.395-17.572-26.406-14.312-2.076-23.45 11.03-28.497 21.994-3.642 7.916-11.693 12.717-20.255 12.198-14.44-.843-34.632.52-39.616 13.625-4.536 11.808 6.198 24.006 16.485 32.376 8.051 6.618 10.799 17.907 6.773 27.574-5.24 12.652-8.37 28.937 5.432 35.62 13.801 6.683 27.666-2.725 36.931-12.003 6.39-6.358 16.677-6.229 22.875.389 10.032 10.641 24.536 22.514 35.462 16.285 10.927-6.228 8.051-23.227 3.898-35.944-2.939-9.083-.256-19.075 6.837-25.368 9.201-8.175 19.488-20.048 16.805-30.754-2.62-10.77-17.636-13.56-29.968-14.014z" fill="#fff"/></svg>