<svg width="69" height="96" fill="none" xmlns="http://www.w3.org/2000/svg"><ellipse opacity=".6" cx="34.5" cy="85.97" rx="26.508" ry="10.03" fill="url(#paint0_radial_3052_5830)"/><path d="M68.17 34.152c-.293 10.91-4.159 19.707-11.986 26.541-7.551 6.596-13.832 14.233-18.752 23.052-1.65 2.962-4 2.97-5.646.007-4.903-8.826-11.233-16.41-18.728-23.066C2.656 51.446-1.354 39.71 1.968 26.047 5.255 12.543 14.028 4.07 27.302.862c18.874-4.558 38.23 9.51 40.506 29.264.17 1.474.268 2.955.362 4.026z" fill="#00BBAE"/><circle cx="33.358" cy="34.358" r="24.358" fill="#fff"/><path d="M47.657 33.362v2.088a15.17 15.17 0 01-1.1 5.678c-.709 1.753-1.731 3.34-2.99 4.592-1.258 1.336-2.752 2.338-4.404 3.09a12.97 12.97 0 01-5.426 1.169 11.446 11.446 0 01-5.27-1.002c-1.651-.752-3.146-1.754-4.404-3.09a16.4 16.4 0 01-3.067-4.592c-.708-1.67-1.101-3.424-1.101-5.26v-2.506c0-1.002.314-1.92 1.022-2.756.708-.751 1.573-1.168 2.674-1.252h.393c3.225-.167 4.483 3.257 6.528 4.175 2.28.919 5.82.752 8.573-2.171 1.18-1.169 2.516-1.837 3.775-1.837.314-.083.629-.167.944-.167 1.022 0 1.887.418 2.674 1.169.707.835 1.1 1.753 1.18 2.672z" fill="#00BBAE"/><path d="M26.658 19c-2.123 0-3.853 1.837-3.853 4.008 0 2.255 1.73 4.008 3.853 4.008 2.124 0 3.854-1.837 3.854-4.008-.078-2.255-1.73-4.008-3.854-4.008zm-1.573 3.173c-.471 0-.865-.417-.865-.918 0-.502.394-.835.866-.835.471 0 .865.417.865.834 0 .418-.394.919-.866.919zM40.815 19c-2.124 0-3.854 1.837-3.854 4.008 0 2.255 1.73 4.008 3.854 4.008 2.123 0 3.854-1.837 3.854-4.008 0-2.255-1.73-4.008-3.854-4.008zm-1.573 3.173c-.472 0-.865-.417-.865-.918 0-.502.393-.835.865-.835s.865.417.865.834c0 .418-.393.919-.865.919z" fill="#F88E0F"/><path d="M23.434 37.37c1.494 1.002 2.988 1.837 4.482 2.422 1.495.584 2.99.835 4.484.751 1.494-.083 2.91-.668 4.247-1.42 1.415-.834 2.752-1.92 4.168-3.005-.63 1.753-1.73 3.34-3.067 4.592-1.416 1.253-3.225 2.171-5.191 2.338-1.966.167-3.854-.417-5.427-1.503-1.573-1.085-2.91-2.505-3.696-4.175z" fill="#fff"/><defs><radialGradient id="paint0_radial_3052_5830" cx="0" cy="0" r="1" gradientUnits="userSpaceOnUse" gradientTransform="matrix(0 10.0299 -26.5075 0 34.5 85.97)"><stop/><stop offset="1" stop-color="#fff" stop-opacity="0"/></radialGradient></defs></svg>