<svg width="191" height="160" fill="none" xmlns="http://www.w3.org/2000/svg"><g clip-path="url(#clip0_2782_4635)"><path d="M95.431 160c44.247 0 80.084-35.8 80.084-80S139.678 0 95.432 0C51.184 0 15.347 35.8 15.347 80s35.837 80 80.084 80z" fill="#DAF4F3"/><path d="M65.404 23.067h61.732c5.873 0 10.678 4.8 10.678 10.666v82c0 5.867-4.805 10.667-10.678 10.667H65.404c-5.872 0-10.677-4.8-10.677-10.667v-82c0-5.933 4.805-10.666 10.677-10.666z" fill="url(#paint0_linear_2782_4635)"/><path d="M65.333 36.4H92.16a3.274 3.274 0 013.27 3.267c0 1.8-1.468 3.266-3.27 3.266H65.333a3.274 3.274 0 01-3.27-3.266c0-1.867 1.468-3.267 3.27-3.267z" fill="#FF8F6B"/><path d="M65.333 54.933h60.196a3.274 3.274 0 013.27 3.267c0 1.8-1.468 3.267-3.27 3.267H65.333a3.274 3.274 0 01-3.27-3.267c0-1.867 1.468-3.267 3.27-3.267zm0 18.534h60.196a3.273 3.273 0 013.27 3.266c0 1.8-1.468 3.267-3.27 3.267H65.333a3.274 3.274 0 01-3.27-3.267c0-1.866 1.468-3.266 3.27-3.266zm0 18.533h60.196a3.274 3.274 0 013.27 3.267c0 1.8-1.468 3.266-3.27 3.266H65.333a3.274 3.274 0 01-3.27-3.266c0-1.867 1.468-3.267 3.27-3.267zm0 18.533h60.196a3.274 3.274 0 013.27 3.267c0 1.8-1.468 3.267-3.27 3.267H65.333a3.274 3.274 0 01-3.27-3.267c0-1.867 1.468-3.267 3.27-3.267z" fill="#D5D5D5"/><path d="M187.598 11.6H147.49c-1.869 0-3.404 1.6-3.404 3.533v19.8c0 1.934 1.535 3.534 3.404 3.534h40.108c1.869 0 3.404-1.6 3.404-3.534V15.2c0-2-1.468-3.6-3.404-3.6z" fill="#fff"/><path d="M154.16 29.333c2.203 0 4.005-1.8 4.005-4s-1.802-4-4.005-4a4.014 4.014 0 00-4.004 4c0 2.2 1.802 4 4.004 4z" fill="#FFDA45"/><path d="M167.508 21.333h13.347c2.203 0 4.005 1.8 4.005 4s-1.802 4-4.005 4h-13.347a4.014 4.014 0 01-4.004-4c0-2.2 1.802-4 4.004-4z" fill="#D5D5D5"/><path fill-rule="evenodd" clip-rule="evenodd" d="M118.859 131.067c8.609 0 16.617-2.6 23.224-7.067l27.162 25.933 9.877-11.4-26.228-25c4.872-6.8 7.675-15.133 7.675-24.133 0-23-18.686-41.667-41.71-41.667S77.149 66.4 77.149 89.4s18.686 41.667 41.71 41.667zm35.57-41.667c0 19.467-15.816 35.267-35.303 35.267-19.487 0-35.304-15.8-35.304-35.267 0-19.467 15.817-35.267 35.304-35.267 19.487 0 35.303 15.734 35.303 35.267z" fill="#17CB9E"/><path d="M119.125 125.333c20.088 0 36.372-16.133 36.372-36 0-19.866-16.284-36-36.372-36-20.087 0-36.371 16.134-36.371 36 0 19.867 16.284 36 36.371 36z" fill="#fff" fill-opacity=".3"/><path d="M125.396 89.333l8.809-8.733c.801-.867 1.268-2 1.268-3.2 0-1.2-.533-2.333-1.334-3.2a4.498 4.498 0 00-3.204-1.333c-1.201 0-2.335.4-3.203 1.266l-8.809 8.734-8.809-8.734c-.401-.466-.935-.8-1.469-1.066-.534-.267-1.201-.4-1.802-.4-.6 0-1.201.133-1.801.333-.601.2-1.068.6-1.535 1-.468.4-.801.933-1.001 1.533-.201.6-.334 1.2-.334 1.8 0 .6.133 1.2.4 1.8.267.534.601 1.067 1.068 1.467l8.809 8.733-8.809 8.734c-.467.4-.801.933-1.068 1.466-.267.534-.4 1.134-.4 1.8 0 .6.133 1.2.334 1.8.2.6.6 1.067 1.001 1.534.467.4.934.8 1.535 1 .6.2 1.201.333 1.801.333a4.4 4.4 0 001.802-.4c.534-.267 1.068-.6 1.469-1.067l8.809-8.733 8.809 8.733c.868.8 2.002 1.2 3.203 1.134a4.961 4.961 0 003.137-1.334c.801-.8 1.335-1.933 1.335-3.066.066-1.134-.401-2.267-1.135-3.2l-8.876-8.734z" fill="#F88E0F"/><path d="M169.242 149.867l9.877-11.4 1.468 1.4c1.469 1.4 2.269 3.266 2.403 5.333.067 2.067-.601 4.067-1.869 5.533a7.327 7.327 0 01-5.072 2.534c-1.935.066-3.87-.6-5.272-2l-1.535-1.4z" fill="#FFDA45"/><path fill-rule="evenodd" clip-rule="evenodd" d="M32.9 41.467c0-.934-.134-1.934-.4-2.867-.868-3.4-4.606-5.533-8.543-6.067-4.004-.533-8.075.667-9.677 3.6-.934 1.667-1.068 3.134-.667 4.334.4 1.2 1.268 2.2 2.469 3 3.337 2.2 9.143 2.666 11.812 1.733 1.202-.4 2.403-.933 3.604-1.533-.667 3.8-3.137 7.466-6.473 10.733C17.75 61.533 6.539 66.933.465 68.867c-.333.133-.533.466-.4.8.134.333.467.533.801.4 6.207-2 17.685-7.534 25.026-14.8 3.804-3.734 6.54-7.934 7.008-12.4 8.609-4.8 15.683-13.534 21.756-20.867.2-.267.2-.667-.067-.933-.267-.2-.667-.2-.868.066-5.872 7.2-12.613 15.534-20.821 20.334zm-1.268.666c.066-1.066-.067-2.133-.334-3.266-.734-2.934-4.071-4.667-7.474-5.134-2.136-.266-4.272-.066-6.007.734-1.068.466-1.935 1.2-2.47 2.2-.666 1.266-.867 2.4-.533 3.333.267.933 1.001 1.733 1.935 2.333 3.004 2 8.343 2.4 10.745 1.6a25.085 25.085 0 004.138-1.8z" fill="#000"/><path d="M185.528 107.333a4.002 4.002 0 004.004-4c0-2.209-1.793-4-4.004-4a4.002 4.002 0 00-4.005 4c0 2.21 1.793 4 4.005 4z" fill="#FF8F6B"/><path fill-rule="evenodd" clip-rule="evenodd" d="M34.302 130.933c.734-.266 1.468-.6 2.069-1.133.667-.6 1-1.4 1.134-2.2.267-1.067.334-2.2.6-3.267.134-.4.335-.533.401-.6.2-.2.467-.2.668-.2.267 0 .6.134.867.6.067.067.067.134.134.267 0 .067.066.4.066.533.067.334.134.6.134.934.133 1.066.2 1.933.667 2.866.6 1.334 1.268 2.134 2.07 2.467.8.333 1.801.267 3.069 0 .134 0 .267-.067.334-.067.534-.133 1.068.267 1.2.867.134.6-.266 1.133-.8 1.267-.133 0-.2.066-.334.066-1.668.467-3.603 2-4.738 3.4-.334.4-.868 1.6-1.401 2.334-.4.533-.801.933-1.202 1.066-.267.067-.467.067-.6 0a.97.97 0 01-.6-.4 3.107 3.107 0 01-.201-.466v-.467c-.133-.4-.267-.733-.334-1.133-.2-.934-.667-1.534-1.201-2.267-.467-.733-1.001-1.2-1.802-1.533-.133 0-.934-.267-1.201-.334-.4-.2-.6-.466-.668-.6-.133-.266-.133-.533-.133-.733.067-.267.133-.533.4-.733.134-.134.334-.267.601-.334.134-.2.734-.2.8-.2zm4.738-1.533c.067.067.067.2.134.267.934 1.933 1.935 3 3.136 3.466h.067c-.8.667-1.602 1.4-2.136 2.067-.267.267-.533.867-.867 1.467-.334-1.067-.801-1.8-1.468-2.734-.468-.733-1.001-1.266-1.602-1.666.467-.267.934-.534 1.335-.934.667-.466 1.134-1.2 1.401-1.933z" fill="#FF8F6B"/></g><defs><linearGradient id="paint0_linear_2782_4635" x1="96.282" y1="23.037" x2="96.282" y2="126.39" gradientUnits="userSpaceOnUse"><stop stop-color="#fff"/><stop offset=".719" stop-color="#FAFAFA"/></linearGradient><clipPath id="clip0_2782_4635"><path fill="#fff" d="M0 0h191v160H0z"/></clipPath></defs></svg>