<svg width="102" height="90" fill="none" xmlns="http://www.w3.org/2000/svg"><g clip-path="url(#clip0_1573_6183)"><path d="M82.717 46.065L14.703 35.338 7.704 79.303 75.718 90.03l6.999-43.965z" fill="#00968B"/><path d="M14.788 35.202L52.292 18.62l30.466 27.31-67.97-10.73z" fill="#00BBAE"/><path d="M80.148 30.911l-58.247-9.186-8.672 54.474 58.248 9.186 8.671-54.474z" fill="#F2F2F2"/><path d="M74.004 36.327L26.05 28.764l-.18 1.139 47.952 7.563.182-1.139zm-.537 3.46l-47.953-7.563-.182 1.139 47.953 7.563.182-1.139zm-.537 3.461l-47.953-7.563-.182 1.138 47.954 7.563.18-1.139zm-.537 3.459L24.44 39.144l-.181 1.14 47.953 7.562.18-1.139zm-.625 3.447L23.815 42.59l-.181 1.138 47.953 7.563.181-1.138zm-.523 3.372l-47.953-7.563-.181 1.139 47.953 7.563.181-1.139zm-.537 3.461l-47.953-7.563-.181 1.138 47.953 7.563.181-1.138zm-.537 3.46l-47.953-7.563-.181 1.139 47.953 7.563.181-1.139z" fill="#CFDBDA"/><path d="M14.788 35.29l30.466 27.4L7.75 79.27l7.038-43.98z" fill="#00BBAE"/><path d="M82.758 46.02L45.254 62.69 75.721 90l7.037-43.98z" fill="#00BBAE"/><path d="M7.75 79.271S38.662 61.626 45.254 62.69C51.846 63.754 75.721 90 75.721 90L7.75 79.271z" fill="#38EEE1"/><path d="M74.562 23.41s.357-1.154 1.248-2.661c.445-.798.98-1.685 1.603-2.571.624-.976 1.425-1.863 2.227-2.75.446-.443.802-.975 1.247-1.418.446-.443.802-.887 1.337-1.241.534-.355.98-.621 1.514-.71.534-.177.98-.266 1.514-.354.535-.089.98-.089 1.337 0 .445 0 .801.088 1.069.177.623.177.98.355.98.355.178.088.178.266.178.443 0 0-.178.355-.535.798-.178.266-.356.532-.623.798-.268.266-.446.62-.802.887-.267.266-.535.62-.891.886-.356.267-.713.621-1.069.887-.445.266-.89.444-1.336.62-.535.178-.98.444-1.425.71-.446.266-.891.621-1.337.887-.445.355-.89.62-1.336.887-.802.62-1.603 1.241-2.316 1.773-1.336 1.064-2.138 1.862-2.138 1.862a.272.272 0 01-.356 0c-.179-.088-.179-.177-.09-.266zm8.908 5.23s.802-1.063 2.139-2.57c.712-.71 1.514-1.597 2.405-2.484.89-.886 1.96-1.684 3.118-2.571.534-.443 1.158-.798 1.692-1.241a7.287 7.287 0 011.782-1.064 7.419 7.419 0 011.87-.533c.624-.088 1.248-.088 1.782-.088.535 0 1.07.088 1.515.177.445.089.891.266 1.158.355.624.266.98.532.98.532.178.089.178.266.089.443 0 0-.356.266-.802.71-.089.088-.267.177-.445.266-.178.088-.267.177-.446.354-.356.266-.712.532-1.069.71-.356.266-.801.532-1.247.798-.445.266-.89.532-1.425.71a39.37 39.37 0 01-1.693.531c-.623.177-1.158.355-1.781.62-.535.267-1.158.444-1.693.799-.534.266-1.158.532-1.692.798-.535.266-1.07.532-1.515.798-.534.266-.98.532-1.425.71-1.693.886-2.85 1.595-2.85 1.595-.09.089-.268 0-.357-.088-.09-.09-.09-.178-.09-.266zm.09 7.715s.98-.71 2.583-1.596c.802-.443 1.782-.887 2.85-1.33a38.032 38.032 0 013.386-1.242 45.297 45.297 0 001.782-.531c.623-.178 1.247-.355 1.87-.355.624 0 1.248.089 1.782.177l1.604.532c.445.178.89.532 1.247.798.356.266.623.532.801.798.446.532.624.887.624.887.089.177 0 .355-.178.443 0 0-.356.178-.98.355a7.25 7.25 0 01-.98.266 23.55 23.55 0 01-1.158.266c-.445.089-.802.177-1.247.266-.446.089-.891.177-1.425.177-.535 0-.98-.088-1.515-.177-.534-.089-1.069-.177-1.692-.089-1.159 0-2.228.089-3.297.178-.534 0-1.069.088-1.514.088-.534.089-.98.089-1.425.178-1.782.177-2.94.354-2.94.354-.09 0-.267-.088-.267-.177s0-.177.089-.266zM29.22 15.251s-.535-.975-1.426-2.482c-.445-.71-.98-1.508-1.604-2.395-.267-.443-.623-.798-.89-1.24-.357-.444-.624-.888-.98-1.242a7.104 7.104 0 00-1.158-1.153 6.035 6.035 0 01-1.07-1.064 8.086 8.086 0 01-.712-1.153c-.267-.354-.356-.798-.534-1.152-.357-.355-.446-.71-.535-1.065-.09-.354-.267-.62-.356-.886a9.048 9.048 0 01-.268-.976c0-.177.09-.354.268-.354 0 0 .356-.089.98 0 .267 0 .712.088 1.069.177.356.089.801.266 1.247.443.445.178.89.532 1.336.798.445.355.89.71 1.247 1.153.356.443.624 1.064.89 1.596.268.532.446 1.153.714 1.685.445 1.153.89 2.217 1.158 3.28.356 1.065.534 2.129.712 2.927.268 1.773.268 2.926.268 2.926 0 .177-.09.266-.268.266 0 .089-.089 0-.089-.089zM19.064 17.38s-.891-.976-2.227-2.395a13.603 13.603 0 01-1.07-1.152l-1.246-1.242c-.446-.443-.891-.798-1.337-1.241-.445-.443-.89-.887-1.425-1.241-.445-.444-.98-.798-1.514-1.153-.535-.355-.98-.62-1.426-.976-.267-.443-.623-.798-.98-1.24-.356-.356-.623-.799-.89-1.154-.357-.266-.624-.709-.802-.975-.09-.266-.267-.355-.357-.532-.089-.177-.178-.266-.267-.443-.356-.532-.534-.887-.534-.887-.09-.177 0-.355.178-.443h.089s.356-.089 1.069-.178c.356 0 .802-.088 1.247 0 .446.089.98.178 1.514.266.535.178 1.07.444 1.604.71.535.266 1.069.709 1.604 1.064.445.443.89.975 1.336 1.596.356.62.801 1.152 1.158 1.684a51.53 51.53 0 012.138 3.37c.623 1.064 1.069 2.217 1.514 3.103.802 1.862 1.158 3.104 1.158 3.104 0 .088 0 .266-.178.266-.178.177-.267.177-.356.088zm-2.494 7.448l-2.673-1.33c-.356-.178-.802-.355-1.247-.621-.446-.177-.891-.444-1.426-.62a32.558 32.558 0 00-3.117-1.242c-.535-.178-1.07-.266-1.604-.444-.534-.088-1.069-.177-1.514-.354-.446-.178-.891-.355-1.248-.62a3.017 3.017 0 01-1.069-.533c-.356-.177-.623-.443-.98-.62-.267-.267-.534-.355-.801-.533-.446-.354-.802-.62-.802-.62-.089-.089-.178-.355 0-.444 0 0 .267-.266.802-.62a2.982 2.982 0 011.069-.444c.445-.088.89-.266 1.425-.354.535 0 1.07-.09 1.693 0 .534.088 1.158.177 1.692.354.535.266 1.07.532 1.604.976.534.354.98.709 1.514 1.064.98.709 1.96 1.418 2.85 2.216.892.798 1.604 1.508 2.228 2.128 1.247 1.33 1.96 2.306 1.96 2.306.089.089.089.266-.09.355-.088.088-.177.088-.267 0z" fill="#F88E0F"/></g><defs><clipPath id="clip0_1573_6183"><path fill="#fff" d="M0 0h102v90H0z"/></clipPath></defs></svg>