<svg width="1306" height="180" fill="none" xmlns="http://www.w3.org/2000/svg"><path opacity=".12" d="M1296.21 16.305c-4.41-5.152-10.3-8.98-17.22-10.452-14.65-3.165-29.44 2.723-39.45 13.617-1.33 1.399-2.51 2.944-3.68 4.49 0 0-13.25-15.604-24.07 2.061 0 0-12.81-17.003-29.01 2.061-16.19 18.99-9.34 18.99-9.34 18.99l131.68-2.06c.22-3.165.15-7.36-.81-12.072-1.25-6.256-4.05-11.998-8.1-16.635z" fill="#fff"/><path d="M857 7c0 1.067.933 2 2 2s2-.933 2-2-.933-2-2-2-2 .933-2 2zm259.33 158.86c-.61.877-.35 2.192.53 2.806.88.613 2.19.35 2.81-.526.61-.877.35-2.192-.53-2.806-.88-.613-2.19-.35-2.81.526zm-715.89 7.214c-.792 1.109-.475 2.694.634 3.486 1.109.792 2.694.475 3.486-.634.792-1.109.475-2.694-.634-3.486-1.268-.792-2.694-.475-3.486.634zm39.876 3.882c-.481.914-.481 2.286.481 2.744.962.457 2.406.457 2.887-.458.481-.914.481-2.286-.481-2.743-.962-.915-2.406-.458-2.887.457z" fill="#fff"/><path opacity=".12" d="M423.642 147.336c3.269-3.787 7.597-6.605 12.683-7.696 10.806-2.363 21.673 2 29.028 10.029.969 1.031 1.847 2.152 2.694 3.303 0 0 9.747-11.514 17.708 1.515 0 0 9.384-12.514 21.31 1.515C518.991 170 513.936 170 513.936 170l-96.863-1.515a33.185 33.185 0 01.606-8.908 27.602 27.602 0 015.963-12.241z" fill="#fff"/><g opacity=".2" fill="#fff"><path d="M13.214 0h-.086a1.63 1.63 0 00-.69.172c-.43.216-.818.603-1.163 1.12-.344.517-.603 1.077-.861 1.81-.259.646-.43 1.335-.69 2.196-.172.604-.3 1.293-.516 2.24v.087c-.043.301-.13.56-.173.861-.56.13-1.12.259-1.723.43-.775.216-1.507.432-2.24.69-.818.302-1.507.56-2.154.862a10.03 10.03 0 00-1.723 1.034c-.517.387-.861.775-1.033 1.206-.216.473-.216.99 0 1.421.129.216.258.431.473.646.216.216.431.388.733.604.517.344 1.163.689 1.938 1.033.646.302 1.379.56 2.24.819.732.215 1.465.43 2.326.689l-.043.172v.173c-.086.603-.129 1.292-.172 1.938-.043.862-.086 1.55-.086 2.197 0 .819.043 1.508.129 2.11.043.388.13.733.215 1.035.087.258.173.603.345.947.302.603.69 1.034 1.163 1.25.345.172.69.258 1.12.258.259 0 .474-.043.732-.086.345-.086.646-.216.948-.388.345-.172.646-.387.905-.603.56-.43 1.12-.99 1.68-1.723a20.8 20.8 0 001.421-2.025c.345-.517.603-.99.819-1.378a25.21 25.21 0 002.326 1.938c.775.56 1.421.948 2.024 1.25.388.172.69.301.991.43.388.13.69.216.991.216h.388c.215 0 .387 0 .517-.043.344-.087.603-.173.818-.345.517-.345.862-.948 1.034-1.723.086-.345.13-.732.086-1.163 0-.388-.043-.819-.13-1.25-.128-.818-.387-1.68-.774-2.67-.259-.732-.604-1.508-1.078-2.499l-.387-.775c.345-.215.732-.517 1.12-.775 1.292-.948 2.197-1.81 2.93-2.671.258-.345.473-.603.645-.905.216-.344.345-.646.431-.904.13-.345.172-.646.172-.905 0-.345-.086-.646-.215-.905-.216-.43-.603-.775-1.206-1.033a2.86 2.86 0 00-.862-.259c-.344-.086-.732-.13-1.077-.172-.56-.043-1.077-.086-1.68-.086h-.646c-.732 0-1.508.086-2.455.172-.431.043-.862.086-1.293.172a49.688 49.688 0 00-1.076-1.766 33.182 33.182 0 00-1.465-2.11 13.327 13.327 0 00-1.594-1.767c-.302-.258-.56-.474-.775-.603a3.022 3.022 0 00-.819-.43A1.329 1.329 0 0013.214 0z"/><path d="M13.73 3.791c0 .56.475.99.992.99a1 1 0 00.99-.99c0-.56-.473-.99-.99-.99s-.991.43-.991.99zm2.671 2.584c0 .173.13.302.302.302s.301-.13.301-.302a.294.294 0 00-.301-.301c-.172.043-.302.172-.302.301z"/></g><path opacity=".3" d="M671.397 6h-.052c-.204 0-.409.05-.562.152-.358.151-.665.455-.921.86-.256.404-.511.86-.716 1.416-.205.505-.358 1.062-.512 1.72-.102.454-.255 1.01-.409 1.77v.1c-.051.203-.102.456-.153.658-.409.101-.87.202-1.33.354-.614.152-1.177.354-1.791.556-.664.253-1.176.455-1.688.708-.562.253-.971.506-1.329.81-.41.303-.665.606-.819.96a1.406 1.406 0 000 1.113c.102.152.205.354.358.506.154.151.358.303.563.455.409.303.921.556 1.534.81a56.21 56.21 0 001.791.657c.562.202 1.125.354 1.841.505v.253l-.153 1.518c-.051.657-.051 1.213-.051 1.719 0 .657.051 1.163.102 1.669.051.303.102.556.153.81.051.201.154.454.256.707.256.455.563.81.921 1.012.256.1.562.202.869.202.205 0 .41-.05.563-.101a1.8 1.8 0 00.716-.304c.256-.151.512-.303.716-.455.461-.354.87-.809 1.33-1.315.358-.455.768-1.011 1.126-1.567.255-.405.46-.76.665-1.063a13.237 13.237 0 001.841 1.518c.614.404 1.125.708 1.586.96.307.152.562.253.767.304.307.101.512.152.767.152h.307c.154 0 .307 0 .409-.05.256-.051.461-.153.665-.254.41-.303.665-.758.819-1.315.051-.253.102-.556.102-.91 0-.303-.051-.607-.102-.96a10.135 10.135 0 00-.614-2.075 33.843 33.843 0 00-.818-1.972l-.307-.607c.307-.202.562-.404.869-.607 1.023-.758 1.739-1.416 2.302-2.073.205-.253.358-.455.512-.708.153-.253.255-.506.358-.708.102-.253.153-.506.102-.708 0-.253-.051-.506-.153-.708-.154-.354-.461-.607-.921-.81-.205-.1-.461-.151-.665-.202-.307-.05-.563-.101-.819-.152-.409-.05-.869-.05-1.33-.05h-.511c-.563 0-1.177.05-1.893.152-.358.05-.665.05-1.023.1-.256-.404-.562-.91-.869-1.365-.461-.657-.819-1.214-1.177-1.669-.46-.556-.869-1.011-1.279-1.365-.204-.203-.409-.354-.613-.506-.256-.152-.461-.253-.665-.304-.256-.303-.461-.303-.665-.303z" fill="#fff"/></svg>