<svg width="115" height="77" fill="none" xmlns="http://www.w3.org/2000/svg"><g clip-path="url(#clip0_2611_7474)"><path d="M56.698 77c-6.419 0-11.768-3.5-14.977-8.346l-.535-1.077-.535.27c-2.14.807-4.546 1.345-7.22 1.345-6.42 0-11.768-3.5-14.977-8.346L17.65 59.5l-3.21-.27C6.152 57.347 0 49.809 0 40.924c.267-10.23 8.558-18.308 18.453-18.038h.268l.802-2.693c2.942-6.461 9.36-11.038 17.116-11.038 1.338 0 2.407.27 3.745.538l2.674.808.268-.538C46.535 3.769 52.686 0 59.639 0c6.42 0 11.768 3.5 14.977 8.346l1.605 2.962 1.07-.27c.802 0 1.872-.269 2.674-.269 7.756 0 14.174 5.116 16.849 11.846l.535 1.347 3.477.269c8.29 1.884 14.441 9.423 14.441 18.307 0 8.885-6.418 16.154-14.976 17.77l-2.675.269v.27c-3.209 5.922-9.36 9.96-16.581 9.96-2.407 0-4.814-.538-7.221-1.615l-1.337-.807-.268.807C68.733 74.04 63.116 77.27 56.698 77z" fill="#fff" fill-opacity=".674"/></g><defs><clipPath id="clip0_2611_7474"><path fill="#fff" d="M0 0h115v77H0z"/></clipPath></defs></svg>