<svg width="399" height="163" fill="none" xmlns="http://www.w3.org/2000/svg"><path d="M18.081 161.107l-6.096-1.142c-6.477-3.048-11.05-9.906-11.05-17.906v-35.431l4.954 2.667c2.667 1.904 5.334 4.19 7.62 6.476l1.524 1.524.381-2.667c1.143-6.857 4.572-13.334 9.525-18.287 8.383-8.762 20.194-11.81 31.244-9.905l4.191 1.143v-2.286C61.517 75.006 65.708 65.1 73.329 57.48c12.954-13.334 32.386-16.763 48.389-9.905l1.143.381v-.762c0-11.81 4.572-23.62 13.335-32.764 17.908-18.287 46.484-18.287 64.392 0 11.049 11.43 15.24 27.05 12.573 41.908l-.381 2.285 6.097-1.904c11.049-2.286 22.86 1.142 31.243 9.905 3.429 3.429 6.096 7.62 7.62 11.81l.762 1.905 1.905-1.524c20.575-17.144 51.056-16 70.488 3.81 11.431 11.81 16.765 27.811 15.241 43.051l-.762 4.952 3.048-.762c11.049-2.286 22.861 1.143 31.243 9.906 1.524 1.905 3.048 3.429 4.572 5.714l.381 1.143 2.667-5.333c1.525-2.667 3.43-4.953 5.716-7.239l5.334-4.572v32.764H18.081v-1.143z" fill="#fff"/></svg>