<svg width="677" height="131" fill="none" xmlns="http://www.w3.org/2000/svg"><path d="M278.074 129.447v-21.965l1.071-1.072a46.095 46.095 0 0165.902 0l1.072 1.34.268-2.411c1.071-6.161 4.018-12.054 8.84-16.876 7.769-8.036 18.753-10.982 28.933-9.107l3.75 1.071v-2.143c.804-9.375 4.822-18.483 11.788-25.715 12.055-12.322 29.736-15.536 44.738-9.375l1.071.535v-.803c0-10.983 4.019-21.965 12.324-30.27 16.341-16.875 42.863-16.875 59.472 0a43.274 43.274 0 0111.519 38.574l-.535 2.143 5.625-1.608c10.18-2.143 20.896 1.072 28.933 9.108 3.215 3.214 5.358 6.964 6.965 10.982l.536 1.876 1.607-1.608c19.021-15.804 47.15-14.732 64.831 3.483 10.715 10.982 15.27 25.715 13.93 39.912l-.536 4.553 2.679-.803c7.501-1.607 15.538-.268 22.503 4.018l1.072.804v.267c-2.411 3.483-6.162 5.893-10.716 5.893H278.074v-.803z" fill="url(#paint0_linear_2883_491)"/><path d="M12.055 129.447l-4.286-.804C3.215 126.5 0 121.678 0 116.053V91.142l3.483 1.875A43.714 43.714 0 018.84 97.57l1.072 1.072.268-1.875c.804-4.822 3.215-9.376 6.697-12.858 5.894-6.16 14.199-8.304 21.968-6.964l2.947.803v-1.607c.803-7.232 3.75-14.197 9.108-19.554 9.108-9.376 22.77-11.786 34.022-6.965l.804.268v-.536c0-8.303 3.215-16.607 9.376-23.036 12.591-12.858 32.683-12.858 45.274 0 7.769 8.036 10.716 19.018 8.841 29.465l-.268 1.607 4.286-1.339c7.769-1.607 16.074.804 21.968 6.965 2.411 2.41 4.286 5.357 5.358 8.303l.535 1.34 1.34-1.072c14.466-12.054 35.898-11.25 49.56 2.679 8.037 8.304 11.787 19.554 10.716 30.269l-.536 3.482 2.143-.535c7.769-1.608 16.074.803 21.968 6.964 1.071 1.339 2.143 2.411 3.214 4.018l.268.804 1.875-3.75c1.072-1.876 2.411-3.483 4.019-5.09l3.75-3.214v23.036H12.055v-.803z" fill="url(#paint1_linear_2883_491)"/><defs><linearGradient id="paint0_linear_2883_491" x1="477.253" y1="0" x2="477.253" y2="130.25" gradientUnits="userSpaceOnUse"><stop stop-color="#fff"/><stop offset="1" stop-color="#fff" stop-opacity="0"/></linearGradient><linearGradient id="paint1_linear_2883_491" x1="139.707" y1="16.674" x2="139.707" y2="130.25" gradientUnits="userSpaceOnUse"><stop stop-color="#fff"/><stop offset="1" stop-color="#fff" stop-opacity="0"/></linearGradient></defs></svg>