<svg width="568" height="186" fill="none" xmlns="http://www.w3.org/2000/svg"><path d="M.494 184.108v-31.241l1.524-1.524a65.559 65.559 0 0193.73 0l1.524 1.905.381-3.428c1.524-8.763 5.716-17.144 12.574-24.002 11.049-11.429 26.671-15.62 41.15-12.953l5.334 1.524v-3.048c1.143-13.334 6.858-26.288 16.765-36.574 17.145-17.525 42.292-22.097 63.629-13.334l1.524.762v-1.143c0-15.62 5.715-31.24 17.527-43.05C279.398-6 317.118-6 340.741 18.001a61.548 61.548 0 0116.384 54.86l-.762 3.048 8.001-2.286c14.479-3.048 29.72 1.524 41.15 12.953 4.572 4.572 7.62 9.906 9.907 15.62l.762 2.667 2.286-2.286c27.052-22.477 67.058-20.954 92.205 4.953 15.241 15.62 21.718 36.574 19.813 56.766l-.762 6.476 3.81-1.143c10.669-2.286 22.099-.381 32.006 5.715l1.524 1.143v.381c-3.429 4.953-8.764 8.381-15.241 8.381H.494v-1.142z" fill="#fff"/></svg>