<svg width="567" height="186" fill="none" xmlns="http://www.w3.org/2000/svg"><path d="M.43 184.108v-31.241l1.524-1.524a65.559 65.559 0 0193.73 0l1.524 1.905.38-3.428c1.525-8.763 5.716-17.144 12.574-24.002 11.05-11.429 26.671-15.62 41.15-12.953l5.334 1.524v-3.048c1.143-13.334 6.858-26.288 16.765-36.574 17.146-17.525 42.293-22.097 63.629-13.334l1.525.762v-1.143c0-15.62 5.715-31.24 17.526-43.05C279.333-6 317.054-6 340.677 18.001a61.547 61.547 0 0116.383 54.86l-.762 3.048 8.002-2.286c14.478-3.048 29.719 1.524 41.149 12.953 4.573 4.572 7.621 9.906 9.907 15.62l.762 2.667 2.286-2.286c27.052-22.477 67.059-20.954 92.206 4.953 15.24 15.62 21.718 36.574 19.813 56.766l-.762 6.476 3.81-1.143c10.668-2.286 22.099-.381 32.005 5.715l1.524 1.143v.381c-3.429 4.953-8.763 8.381-15.241 8.381H.429v-1.142z" fill="#fff"/></svg>