<svg width="398" height="163" fill="none" xmlns="http://www.w3.org/2000/svg"><path d="M17.146 161.107l-6.097-1.142C4.572 156.917 0 150.059 0 142.059v-35.431l4.953 2.667c2.667 1.904 5.334 4.19 7.62 6.476l1.525 1.524.38-2.667c1.144-6.857 4.573-13.334 9.526-18.287 8.382-8.762 20.194-11.81 31.243-9.905l4.191 1.143v-2.286C60.581 75.006 64.773 65.1 72.394 57.48c12.954-13.334 32.386-16.763 48.389-9.905l1.143.381v-.762c0-11.81 4.572-23.62 13.336-32.764 17.907-18.287 46.484-18.287 64.391 0 11.05 11.43 15.241 27.05 12.574 41.908l-.381 2.285 6.096-1.904c11.049-2.286 22.861 1.142 31.243 9.905 3.429 3.429 6.097 7.62 7.621 11.81l.762 1.905 1.905-1.524c20.575-17.144 51.056-16 70.488 3.81 11.43 11.81 16.764 27.811 15.24 43.051l-.762 4.952 3.048-.762c11.05-2.286 22.861 1.143 31.244 9.906 1.524 1.905 3.048 3.429 4.572 5.714l.381 1.143 2.667-5.333c1.524-2.667 3.429-4.953 5.715-7.239l5.334-4.572v32.764H17.146v-1.143z" fill="#fff"/></svg>