<svg width="420" height="359" fill="none" xmlns="http://www.w3.org/2000/svg"><path d="M-36.148 325.677c9.037-31.139 31.156-58.236 59.902-73.29 28.746-15.054 63.603-17.806 94.414-7.57 15.836 5.334 31.242 14.538 39.59 29.076 7.66 13.247 8.607 29.333 7.058 44.559-3.443 33.376-18.591 65.376-42.259 89.118-5.766 5.763-12.479 14.021-8.176 20.989 2.582 4.215 8.004 5.42 12.91 6.022 27.885 3.527 56.631.516 83.139-8.688 9.381-3.269 19.709-8.603 21.861-18.237 1.377-6.022-.861-12.301-3.012-18.065-6.111-16.86-11.361-34.236-12.136-52.129-.774-17.892 3.271-36.473 14.287-50.58 11.017-14.108 29.693-22.796 47.25-19.183 10.07 2.065 19.193 7.914 29.435 8.86 7.746.688 15.492-1.548 22.979-3.957 3.443-1.118 7.23-2.58 8.607-5.849.947-2.237.43-4.817-.086-7.14-3.873-17.204-11.189-33.72-21.431-48.086-1.721-2.409-3.614-4.903-6.196-6.366-6.713-3.871-15.062-.086-21.603 3.957-16.352 10.065-31.5 22.28-48.713 30.882s-37.524 13.333-55.77 7.226c-16.181-5.333-28.574-18.323-42.861-27.699-16.094-10.667-55.082-35.355-96.824-30.968-41.742 4.387-83.397 27.871-97.684 46.022-9.21 11.527-11.963 27.269-9.812 41.978 2.152 14.624 8.865 28.301 17.127 40.602" fill="url(#paint0_linear_2902_445)"/><path d="M-10.242 140.301c2.582-15.828 12.05-30.365 25.476-39.14 13.34-8.774 30.467-11.699 46.045-7.828 10.07 2.495 19.278 7.656 28.487 12.56 22.55 11.956 48.714 22.623 72.898 14.451 22.377-7.57 36.836-30.193 41.656-53.247 2.668-13.075 2.84-26.925-1.98-39.398-4.733-12.56-14.803-23.312-27.627-26.839-4.045-1.118-8.692-1.462-12.307.86-4.906 3.097-5.939 9.807-5.594 15.656.688 11.527 4.905 23.312 1.463 34.409-1.636 5.247-4.82 9.806-8.521 13.85-13.082 14.193-33.307 21.935-52.328 18.58-19.192-3.44-34.77-16.86-50.004-29.075C32.19 42.925 14.717 31.054-4.82 31.828c-5.508.172-11.102 1.462-15.491 4.731-3.873 2.839-6.713 6.968-8.865 11.183-10.07 19.613-8.951 44.56 2.926 63.226" fill="url(#paint1_linear_2902_445)"/><path d="M271.193 158.624c-16.095 35.527-44.927 40.258-58.439 33.634-12.91-6.365-20.311-21.505-19.365-35.871.947-14.365 9.295-27.613 20.656-36.473 10.672-8.344 24.357-13.333 37.869-11.785 6.885.774 13.943 3.183 18.848 8.172 9.554 9.635 6.111 26.839 2.066 37.764" fill="url(#paint2_linear_2902_445)"/><path d="M365.779 438.28c-19.623.43-41.226-1.979-55.082-15.914-13.34-13.419-15.922-35.269-8.607-52.645 7.316-17.377 23.41-30.194 41.226-36.387 16.782-5.85 35.889-6.108 51.897 1.634 8.176 3.957 19.279 11.785 23.324 27.269 4.045 15.484-2.324 35.011-12.049 45.849" fill="url(#paint3_linear_2902_445)"/><path d="M7.316 421.592c-12.996-8.947-25.131-20.732-24.357-36.818.775-15.398 14.373-31.742 31.156-40.172 16.869-8.516 36.147-9.72 51.897-5.591 14.89 3.871 27.37 12.645 32.275 25.462 2.496 6.538 3.012 14.28.172 21.764-2.84 7.57-9.209 14.881-17.385 18.838" fill="url(#paint4_linear_2902_445)"/><defs><linearGradient id="paint0_linear_2902_445" x1="-74.339" y1="466.658" x2="254.335" y2="178.936" gradientUnits="userSpaceOnUse"><stop stop-color="#fff"/><stop offset="1" stop-color="#fff" stop-opacity="0"/></linearGradient><linearGradient id="paint1_linear_2902_445" x1="116.605" y1="-16.169" x2="65.59" y2="115.413" gradientUnits="userSpaceOnUse"><stop stop-color="#fff"/><stop offset="1" stop-color="#fff" stop-opacity="0"/></linearGradient><linearGradient id="paint2_linear_2902_445" x1="299.791" y1="116.294" x2="194.636" y2="172.923" gradientUnits="userSpaceOnUse"><stop stop-color="#fff"/><stop offset="1" stop-color="#fff" stop-opacity="0"/></linearGradient><linearGradient id="paint3_linear_2902_445" x1="453.087" y1="369.242" x2="297.218" y2="394.511" gradientUnits="userSpaceOnUse"><stop stop-color="#fff"/><stop offset="1" stop-color="#fff" stop-opacity="0"/></linearGradient><linearGradient id="paint4_linear_2902_445" x1="-13.927" y1="472.94" x2="85.43" y2="307.884" gradientUnits="userSpaceOnUse"><stop stop-color="#fff"/><stop offset="1" stop-color="#fff" stop-opacity="0"/></linearGradient></defs></svg>