<svg width="369" height="351" fill="none" xmlns="http://www.w3.org/2000/svg"><path d="M400.759 65.218c-7.94 27.326-27.373 51.103-52.628 64.313-25.256 13.209-55.88 15.625-82.95 6.642-13.913-4.68-27.448-12.756-34.782-25.513-6.73-11.625-7.562-25.74-6.201-39.1 3.025-29.289 16.333-57.369 37.127-78.202 5.066-5.058 10.964-12.304 7.183-18.418-2.268-3.699-7.032-4.756-11.342-5.284-24.499-3.095-49.754-.453-73.044 7.624-8.242 2.868-17.315 7.548-19.206 16.002-1.21 5.284.756 10.795 2.647 15.852 5.368 14.795 9.981 30.042 10.661 45.743.681 15.7-2.873 32.005-12.552 44.385-9.678 12.379-26.087 20.003-41.512 16.833-8.847-1.812-16.862-6.945-25.86-7.775-6.806-.604-13.611 1.358-20.19 3.472-3.024.981-6.351 2.265-7.561 5.133-.832 1.962-.378 4.227.076 6.265 3.402 15.097 9.83 29.59 18.828 42.196 1.512 2.113 3.175 4.302 5.444 5.585 5.898 3.397 13.233.076 18.979-3.472 14.367-8.832 27.675-19.55 42.798-27.099 15.123-7.548 32.968-11.7 48.999-6.34 14.215 4.68 25.104 16.078 37.656 24.306 14.14 9.36 48.393 31.023 85.066 27.174 36.673-3.85 73.271-24.457 85.823-40.384 8.091-10.115 10.51-23.929 8.62-36.836-1.89-12.832-7.788-24.834-15.047-35.629" fill="url(#paint0_linear_2905_446)"/><path d="M377.999 227.886c-2.269 13.889-10.587 26.646-22.382 34.345-11.721 7.7-26.768 10.266-40.454 6.869-8.847-2.189-16.938-6.718-25.029-11.02-19.811-10.493-42.798-19.853-64.045-12.682-19.66 6.643-32.364 26.495-36.598 46.725-2.344 11.474-2.495 23.626 1.739 34.572 4.159 11.02 13.006 20.456 24.272 23.551 3.554.981 7.638 1.283 10.813-.755 4.31-2.718 5.218-8.605 4.915-13.738-.605-10.115-4.31-20.456-1.285-30.194 1.437-4.604 4.234-8.605 7.486-12.153 11.493-12.455 29.263-19.248 45.973-16.304 16.863 3.019 30.549 14.795 43.933 25.513 13.383 10.719 28.733 21.136 45.898 20.456 4.839-.151 9.754-1.283 13.61-4.151 3.403-2.491 5.898-6.114 7.789-9.813 8.847-17.21 7.864-39.101-2.571-55.481" fill="url(#paint1_linear_2905_446)"/><path d="M130.738 211.808c14.14-31.175 39.471-35.326 51.343-29.514 11.342 5.586 17.845 18.871 17.013 31.477-.832 12.605-8.166 24.23-18.147 32.005-9.377 7.322-21.399 11.7-33.271 10.341-6.049-.679-12.25-2.793-16.56-7.171-8.393-8.454-5.368-23.551-1.814-33.137" fill="url(#paint2_linear_2905_446)"/><path d="M47.638-33.59c17.24-.377 36.22 1.736 48.393 13.965 11.72 11.775 13.989 30.948 7.562 46.196-6.428 15.247-20.568 26.494-36.22 31.93-14.745 5.132-31.531 5.359-45.596-1.435C14.594 53.594 4.84 46.725 1.286 33.138-2.268 19.55 3.327 2.416 11.872-7.095" fill="url(#paint3_linear_2905_446)"/><path d="M362.573-18.946c11.418 7.85 22.08 18.192 21.399 32.307-.681 13.512-12.628 27.854-27.373 35.251-14.82 7.473-31.758 8.53-45.595 4.907-13.082-3.397-24.046-11.096-28.356-22.344-2.193-5.736-2.646-12.53-.151-19.097 2.495-6.643 8.091-13.059 15.274-16.531" fill="url(#paint4_linear_2905_446)"/><defs><linearGradient id="paint0_linear_2905_446" x1="434.313" y1="-58.492" x2="145.855" y2="194.333" gradientUnits="userSpaceOnUse"><stop stop-color="#fff"/><stop offset="1" stop-color="#fff" stop-opacity="0"/></linearGradient><linearGradient id="paint1_linear_2905_446" x1="266.555" y1="365.189" x2="311.28" y2="249.689" gradientUnits="userSpaceOnUse"><stop stop-color="#fff"/><stop offset="1" stop-color="#fff" stop-opacity="0"/></linearGradient><linearGradient id="paint2_linear_2905_446" x1="105.612" y1="248.952" x2="197.948" y2="199.167" gradientUnits="userSpaceOnUse"><stop stop-color="#fff"/><stop offset="1" stop-color="#fff" stop-opacity="0"/></linearGradient><linearGradient id="paint3_linear_2905_446" x1="-29.069" y1="26.991" x2="107.864" y2="4.765" gradientUnits="userSpaceOnUse"><stop stop-color="#fff"/><stop offset="1" stop-color="#fff" stop-opacity="0"/></linearGradient><linearGradient id="paint4_linear_2905_446" x1="381.236" y1="-64.005" x2="294.1" y2="80.926" gradientUnits="userSpaceOnUse"><stop stop-color="#fff"/><stop offset="1" stop-color="#fff" stop-opacity="0"/></linearGradient></defs></svg>