<svg width="1915" height="550" fill="none" xmlns="http://www.w3.org/2000/svg"><path d="M1747.2 311.4c-1.6-.2-3-1.3-3.1-2.7-.1-1.2-1-6.2-1-6.2s-.8 5.1-1 6.2c-.4 1.7-1.5 2.5-3.1 2.7-1.3.2-7.1.9-7.1.9s5.8.7 7.1.9c2.1.2 2.9 1.4 3.1 2.8.2 1.1 1 6.2 1 6.2s.9-5.1 1-6.2c.2-1.5 1.5-2.6 3.1-2.8 1.3-.1 7.1-.9 7.1-.9s-5.8-.8-7.1-.9zm114.1-41c-1.1-.1-2.1-.9-2.2-2-.1-.8-.7-4.4-.7-4.4s-.5 3.6-.7 4.4c-.2 1.2-1.1 1.8-2.2 2-.9.1-5.1.6-5.1.6s4.1.5 5.1.6c1.5.2 2.1 1 2.2 2 .1.8.7 4.4.7 4.4s.6-3.6.7-4.4c.1-1.1 1-1.8 2.2-2 .9-.1 5.1-.6 5.1-.6 0 .1-4.1-.5-5.1-.6zm-16-229.1c-1.1-.1-2.1-.9-2.2-2-.1-.8-.7-4.4-.7-4.4s-.5 3.6-.7 4.4c-.2 1.2-1.1 1.8-2.2 2-.9.1-5.1.6-5.1.6s4.1.5 5.1.6c1.5.2 2.1 1 2.2 2 .1.8.7 4.4.7 4.4s.6-3.6.7-4.4c.1-1.1 1-1.8 2.2-2 .9-.1 5.1-.6 5.1-.6 0 .1-4.1-.5-5.1-.6zM1619 70.5c-1.1-.1-2.1-.9-2.2-2-.1-.8-.7-4.4-.7-4.4s-.5 3.6-.7 4.4c-.2 1.2-1.1 1.8-2.2 2-.9.1-5.1.6-5.1.6s4.1.5 5.1.6c1.5.2 2.1 1 2.2 2 .1.8.7 4.4.7 4.4s.6-3.6.7-4.4c.1-1.1 1-1.8 2.2-2 .9-.1 5.1-.6 5.1-.6s-4.1-.5-5.1-.6zM74.3 33.7c-2.3-.3-4.3-1.8-4.5-3.9-.1-1.6-1.4-8.8-1.4-8.8s-1.1 7.2-1.4 8.8c-.5 2.4-2.1 3.6-4.4 3.9-1.8.2-10 1.2-10 1.2s8.2 1 10 1.2c2.9.3 4.1 2 4.4 3.9.2 1.6 1.4 8.8 1.4 8.8s1.2-7.2 1.4-8.8c.3-2.2 2.1-3.6 4.4-3.9 1.9-.2 10-1.2 10-1.2.1 0-8.1-1.1-9.9-1.2zm161.4 417.7c-.9-.1-1.7-.7-1.8-1.5-.1-.6-.5-3.5-.5-3.5s-.4 2.8-.6 3.5c-.2.9-.8 1.4-1.8 1.5-.7.1-4 .5-4 .5l4 .5c1.2.1 1.6.8 1.7 1.5.1.6.6 3.5.6 3.5s.5-2.8.6-3.5c.1-.9.8-1.4 1.7-1.5.7-.1 4-.5 4-.5.1-.1-3.1-.5-3.9-.5zm-149-312c-.9-.1-1.7-.7-1.8-1.5-.1-.6-.5-3.5-.5-3.5s-.4 2.8-.6 3.5c-.2.9-.8 1.4-1.8 1.5-.7.1-4 .5-4 .5l4 .5c1.2.1 1.6.8 1.7 1.5.1.6.6 3.5.6 3.5s.5-2.8.6-3.5c.1-.9.8-1.4 1.7-1.5.7-.1 4-.5 4-.5.1-.1-3.1-.5-3.9-.5zm-32.1 102c-.9-.1-1.7-.7-1.8-1.5-.1-.6-.5-3.5-.5-3.5l-.5 3.5c-.2.9-.8 1.4-1.8 1.5-.7.1-4 .5-4 .5l4 .5c1.2.1 1.6.8 1.7 1.5.1.6.6 3.5.6 3.5s.5-2.8.6-3.5c.1-.9.8-1.4 1.7-1.5.7-.1 4-.5 4-.5s-3.2-.5-4-.5zM924.9 20.8c-.9-.1-1.7-.7-1.8-1.5-.1-.6-.5-3.5-.5-3.5l-.5 3.5c-.2.9-.8 1.4-1.8 1.5-.7.1-4 .5-4 .5l4 .5c1.2.1 1.6.8 1.7 1.5.1.6.6 3.5.6 3.5s.5-2.8.6-3.5c.1-.9.8-1.4 1.7-1.5.7-.1 4-.5 4-.5l-4-.5zM1672 407.5c-1.9-.2-3.7-1.6-3.9-3.4-.1-1.4-1.2-7.7-1.2-7.7s-.9 6.3-1.2 7.7c-.4 2.1-1.8 3.1-3.9 3.4l-8.8 1.1 8.8 1.1c2.6.3 3.6 1.7 3.9 3.4.2 1.4 1.2 7.7 1.2 7.7s1.1-6.3 1.2-7.7c.2-1.9 1.8-3.2 3.9-3.4l8.8-1.1c0-.1-7.2-1-8.8-1.1zM1789.7 158c-.9-.1-1.7-.7-1.8-1.6-.1-.7-.6-3.5-.6-3.5s-.4 2.9-.6 3.5c-.2 1-.8 1.4-1.8 1.6-.7.1-4 .5-4 .5s3.3.4 4 .5c1.2.1 1.7.8 1.8 1.6.1.6.6 3.5.6 3.5s.5-2.9.6-3.5c.1-.9.8-1.5 1.8-1.6.7-.1 4-.5 4-.5s-3.2-.5-4-.5zM1281.5 48.5c-.9-.1-1.7-.7-1.7-1.5-.1-.6-.5-3.4-.5-3.4s-.4 2.8-.5 3.4c-.2.9-.8 1.4-1.7 1.5-.7.1-3.9.5-3.9.5s3.2.4 3.9.5c1.2.1 1.6.8 1.7 1.5.1.6.5 3.4.5 3.4s.5-2.8.5-3.4c.1-.9.8-1.4 1.7-1.5.7-.1 3.9-.5 3.9-.5s-3.2-.4-3.9-.5zM363.9 31.3c-1.2-.1-2.3-1-2.4-2.1-.1-.9-.8-4.8-.8-4.8s-.6 3.9-.8 4.8c-.3 1.3-1.2 2-2.4 2.1-1 .1-5.5.7-5.5.7s4.5.6 5.5.7c1.6.2 2.3 1.1 2.4 2.1.1.9.8 4.8.8 4.8s.7-3.9.8-4.8c.1-1.2 1.1-2 2.4-2.1 1-.1 5.5-.7 5.5-.7s-4.4-.6-5.5-.7zm1515.9 407.8c-1.2-.1-2.3-1-2.4-2.1-.1-.9-.8-4.8-.8-4.8s-.6 3.9-.8 4.8c-.3 1.3-1.2 2-2.4 2.1-1 .1-5.5.7-5.5.7s4.5.6 5.5.7c1.6.2 2.3 1.1 2.4 2.1.1.9.8 4.8.8 4.8s.7-3.9.8-4.8c.1-1.2 1.1-2 2.4-2.1 1-.1 5.5-.7 5.5-.7s-4.5-.6-5.5-.7zM567.3 72.6c-1.3-.1-2.4-1-2.5-2.2-.1-.9-.8-5-.8-5s-.6 4.1-.8 5c-.3 1.4-1.2 2-2.5 2.2-1 .1-5.7.7-5.7.7s4.6.6 5.7.7c1.7.2 2.3 1.1 2.5 2.2.1.9.8 5 .8 5s.7-4.1.8-5c.1-1.2 1.2-2.1 2.5-2.2 1.1-.1 5.7-.7 5.7-.7s-4.7-.6-5.7-.7zm-364.5 77.3c-1.3-.1-2.4-1-2.5-2.2-.1-.9-.8-5-.8-5s-.6 4.1-.8 5c-.3 1.4-1.2 2-2.5 2.2-1 .1-5.7.7-5.7.7s4.6.6 5.7.7c1.7.2 2.3 1.1 2.5 2.2.1.9.8 5 .8 5s.7-4.1.8-5c.1-1.2 1.2-2.1 2.5-2.2 1-.1 5.7-.7 5.7-.7s-4.7-.6-5.7-.7zM142.3 345c-1.8-.2-3.5-1.5-3.7-3.2-.1-1.3-1.2-7.3-1.2-7.3s-.9 5.9-1.2 7.3c-.4 2-1.7 3-3.7 3.2-1.5.2-8.3 1-8.3 1s6.8.8 8.3 1c2.4.3 3.4 1.6 3.7 3.2.2 1.3 1.2 7.3 1.2 7.3s1-5.9 1.2-7.3c.2-1.8 1.7-3 3.7-3.2 1.5-.1 8.3-1 8.3-1s-6.8-.9-8.3-1zm-103 44.6c-1.3-.1-2.4-1-2.5-2.2-.1-.9-.8-5-.8-5s-.6 4.1-.8 5c-.3 1.4-1.2 2-2.5 2.2-1 .1-5.7.7-5.7.7s4.6.6 5.7.7c1.7.2 2.3 1.1 2.5 2.2.1.9.8 5 .8 5s.7-4.1.8-5c.1-1.2 1.2-2.1 2.5-2.2 1-.1 5.7-.7 5.7-.7s-4.6-.6-5.7-.7zm1756.3 29.1c-.7-.1-1.3-.6-1.4-1.2 0-.5-.4-2.8-.4-2.8s-.3 2.3-.4 2.8c-.2.7-.7 1.1-1.4 1.2-.6.1-3.1.4-3.1.4s2.6.3 3.1.4c.9.1 1.3.6 1.4 1.2.1.5.4 2.8.4 2.8s.4-2.2.4-2.8c.1-.7.6-1.1 1.4-1.2.6-.1 3.2-.4 3.2-.4-.1 0-2.7-.3-3.2-.4zM105.7 450.4c0 .8-1.3-.6-1.4-1.2 0-.5-.4-2.8-.4-2.8s-.3 2.3-.4 2.8c-.2.7-.7 1.1-1.4 1.2-.6.1-3.1.4-3.1.4s2.6.3 3.1.4c.9.1 1.3.6 1.4 1.2.1.5.4 2.8.4 2.8s.4-2.2.4-2.8c.1-.7.6-1.1 1.4-1.2.6-.1 3.2-.4 3.2-.4-.1 0-3.2-.9-3.2-.4zm86-176c-.7-.1-1.3-.6-1.4-1.2 0-.5-.4-2.8-.4-2.8s-.3 2.3-.4 2.8c-.2.7-.7 1.1-1.4 1.2-.6.1-3.1.4-3.1.4s2.6.3 3.1.4c.9.1 1.3.6 1.4 1.2.1.5.4 2.8.4 2.8s.4-2.2.4-2.8c.1-.7.6-1.1 1.4-1.2.6-.1 3.2-.4 3.2-.4s-2.6-.3-3.2-.4z" opacity=".2" fill="#00BBAE"/><path d="M1897.01 55.305c-4.42-5.152-10.31-8.98-17.23-10.452-14.65-3.165-29.44 2.723-39.45 13.617-1.33 1.399-2.5 2.944-3.68 4.49 0 0-13.25-15.605-24.07 2.061 0 0-12.81-17.003-29 2.061-16.2 18.99-9.35 18.99-9.35 18.99l131.68-2.06c.22-3.165.15-7.36-.81-12.072-1.25-6.256-4.05-11.998-8.09-16.635zM146.604 168.026c4.336-5.01 10.078-8.736 16.824-10.179 14.335-3.126 28.75 2.645 38.507 13.264 1.285 1.363 2.449 2.845 3.574 4.368 0 0 12.929-15.228 23.49 2.004 0 0 12.447-16.55 28.268 2.003C273.087 198 266.382 198 266.382 198l-128.492-2.004a43.78 43.78 0 01.803-11.781 36.465 36.465 0 017.911-16.189z" fill="#fff"/><path d="M929.684 456h-.037a.78.78 0 00-.416.11c-.265.111-.492.331-.681.626a5.29 5.29 0 00-.529 1.03 8.286 8.286 0 00-.378 1.25c-.076.331-.189.736-.303 1.287v.074c-.037.147-.075.331-.113.478-.303.074-.643.147-.983.258-.454.11-.87.257-1.323.404-.492.184-.87.331-1.248.515a4.003 4.003 0 00-.983.589c-.302.22-.492.441-.605.699a1.008 1.008 0 000 .809c.076.11.151.257.265.368.113.11.264.22.416.331.302.22.68.404 1.134.588.378.147.794.294 1.323.478.416.147.832.258 1.361.368v.184l-.113 1.103c-.038.479-.038.883-.038 1.251 0 .478.038.846.076 1.214.037.22.075.404.113.588.038.147.113.331.189.515.189.331.416.589.681.736.189.073.415.147.642.147.152 0 .303-.037.416-.074.189-.036.378-.11.53-.22.189-.111.378-.221.529-.331.34-.258.643-.589.983-.957.264-.331.567-.735.832-1.14.189-.294.34-.552.491-.772.416.404.87.772 1.361 1.103.454.294.832.515 1.172.699.227.11.416.184.567.221.227.073.378.11.567.11h.227c.114 0 .227 0 .303-.037.189-.036.34-.11.491-.184.303-.22.492-.551.605-.956.038-.184.076-.405.076-.662 0-.221-.038-.441-.076-.699a7.318 7.318 0 00-.453-1.508 25.235 25.235 0 00-.605-1.434l-.227-.442c.227-.147.416-.294.642-.441.757-.552 1.286-1.03 1.702-1.508.151-.184.265-.331.378-.515.113-.184.189-.368.265-.515.075-.184.113-.368.075-.515 0-.184-.038-.368-.113-.515-.114-.257-.341-.441-.681-.588-.151-.074-.34-.111-.491-.148-.227-.036-.416-.073-.605-.11-.303-.037-.643-.037-.983-.037h-.378c-.416 0-.87.037-1.399.111-.265.036-.492.036-.756.073-.189-.294-.416-.662-.643-.993-.34-.478-.605-.883-.87-1.214-.34-.404-.642-.735-.945-.993-.151-.147-.302-.257-.454-.368a1.85 1.85 0 00-.491-.22c-.189-.221-.34-.221-.492-.221z" fill="#F88E0F"/><path d="M1160.33 90.856c0 .589.52 1.104 1.11 1.104.59 0 1.1-.515 1.1-1.104 0-.589-.51-1.104-1.1-1.104-.59 0-1.11.515-1.11 1.104zm2.95 2.944c0 .148.14.295.29.295.15 0 .3-.147.3-.295 0-.147-.15-.294-.3-.294-.15-.074-.29.074-.29.294z" fill="#00BBAE"/><path d="M1510.19 152.465c-.52.736-.3 1.84.44 2.355.74.515 1.84.294 2.35-.442.52-.736.3-1.84-.44-2.355-.73-.515-1.84-.294-2.35.442zm1.25 6.256c-.15.221-.07.516.15.663.22.147.51.073.66-.147.15-.221.07-.516-.15-.663-.22-.147-.51-.073-.66.147z" fill="#FFC500"/><path d="M146.425 50h-.068c-.204 0-.408.068-.544.135-.339.17-.645.474-.917.88-.272.407-.476.846-.68 1.422-.204.508-.34 1.05-.544 1.726-.136.474-.238 1.016-.408 1.76v.068c-.033.237-.101.44-.135.677-.442.101-.884.203-1.36.338a27.43 27.43 0 00-1.767.542c-.646.237-1.19.44-1.699.677-.578.27-.986.541-1.36.812-.408.305-.68.61-.816.948a1.293 1.293 0 000 1.117c.102.169.204.338.374.507.17.17.34.305.578.474.408.27.918.542 1.529.812.51.237 1.088.44 1.768.643.577.17 1.155.339 1.835.542l-.034.135v.136c-.068.474-.102 1.015-.136 1.523-.034.677-.068 1.218-.068 1.726 0 .643.034 1.185.102 1.659.034.304.102.575.17.812.068.203.136.474.272.744.238.474.544.813.917.982.272.135.544.203.884.203.204 0 .374-.034.578-.068.272-.067.51-.169.748-.304.271-.136.509-.305.713-.474a7.217 7.217 0 001.326-1.354 16.16 16.16 0 001.121-1.59c.272-.407.476-.78.646-1.084.578.542 1.189 1.05 1.835 1.523.612.44 1.122.745 1.598.982.305.135.543.237.781.338.306.102.544.17.782.17h.306c.17 0 .306 0 .408-.034.271-.068.475-.136.645-.271.408-.27.68-.745.816-1.354.068-.27.102-.575.068-.914 0-.305-.034-.643-.102-.981-.102-.643-.306-1.32-.612-2.099-.204-.575-.476-1.185-.849-1.963l-.306-.61c.272-.168.577-.405.883-.608 1.02-.745 1.734-1.422 2.311-2.099.204-.27.374-.474.51-.71.17-.271.272-.508.34-.711a2 2 0 00.136-.711c0-.27-.068-.508-.17-.71-.17-.34-.476-.61-.952-.813a2.246 2.246 0 00-.679-.203c-.272-.068-.578-.102-.85-.136-.442-.034-.85-.067-1.325-.067h-.51c-.578 0-1.19.067-1.937.135-.34.034-.68.068-1.02.135a38.858 38.858 0 00-.85-1.387 25.716 25.716 0 00-1.155-1.659 10.485 10.485 0 00-1.258-1.388 5.034 5.034 0 00-.611-.473 2.39 2.39 0 00-.646-.339 1.052 1.052 0 00-.612-.169z" fill="#00BBAE"/><path d="M146.731 53.791c0 .56.474.99.991.99a1 1 0 00.99-.99c0-.56-.473-.99-.99-.99s-.991.43-.991.99zm2.67 2.584c0 .173.13.302.302.302s.301-.13.301-.302a.294.294 0 00-.301-.301c-.172.043-.302.172-.302.301z" fill="#00BBAE"/><path d="M748.723 189.71c-.369.515-.221 1.251.294 1.619.515.368 1.251.221 1.619-.294.368-.516.221-1.252-.294-1.62-.589-.368-1.251-.22-1.619.295zm.809 4.122c-.073.147-.073.368.074.442.147.073.368.073.441-.074.074-.147.074-.368-.073-.442-.147-.147-.368-.073-.442.074z" fill="#FFC500"/></svg>