<svg width="55" height="78" fill="none" xmlns="http://www.w3.org/2000/svg"><path d="M27.899 70.91c-.532-3.273-.266-6.819.265-10.092H27.9c-.266 3.273-.532 6.819 0 10.091zm-2.658 0c.532-3.273.266-6.819-.265-10.092h.265c.532 3.273.798 6.819 0 10.091zm4.783 0c-.531-3.273-.266-6.819.266-10.092h-.266c-.266 3.273-.531 6.819 0 10.091z" fill="#E5E5E5"/><path d="M23.913 56.727l-1.063.546C5.845 31.636.797 12 15.676 2.727c1.594-1.636 2.923-1.636 4.251-1.09-11.956 9.272-6.642 30.272 3.986 55.09z" fill="url(#paint0_linear_2611_7400)"/><path d="M22.85 57.273C5.845 31.636.797 12 15.676 2.727c.797-.545 1.594-1.09 2.392-1.09C4.517 9.272 7.174 31.09 22.85 57.272z" fill="url(#paint1_linear_2611_7400)" fill-opacity=".263"/><path d="M15.676 2.455C.266 14.182 8.768 34.636 22.584 57l-1.062.273C7.705 42.545-7.705 18.818 11.425 4.09c1.86-1.091 2.923-1.636 4.251-1.636z" fill="url(#paint2_linear_2611_7400)"/><path d="M21.787 57.545c-14.082-15-29.492-38.727-10.362-53.454.531-.273.797-.546 1.329-.818L13.55 3c-18.068 14.727-5.58 37.636 7.44 53.727l.796.818z" fill="#fff" fill-opacity=".18"/><path d="M10.894 4.364C-2.126 15.273.797 34.09 21.787 57.273l-1.328.545C-1.33 37.637-7.44 14.728 10.894 4.364z" fill="url(#paint3_linear_2611_7400)"/><path d="M23.116 1.09c-6.642 11.183-2.657 32.728 2.126 55.637h2.657L27.633.545C26.039 0 24.71 0 23.116 1.091z" fill="url(#paint4_linear_2611_7400)"/><path d="M25.242 56.727c-4.783-22.909-8.503-44.454-2.126-55.636.266-.273.266-.273.531-.273l.266-.273v.273C19.662 12 21.522 31.91 24.976 53.182l.266 3.545z" fill="#DF0" fill-opacity=".2"/><path d="M25.507 56.727h-1.594C12.223 30.273 8.237 9.547 19.927 1.364 20.99.546 22.053.546 23.383.818c-5.314 10.91-3.72 30.546 2.125 55.91z" fill="url(#paint5_linear_2611_7400)"/><path d="M31.884 1.09c6.642 11.183 2.657 32.728-2.126 55.637h-2.657c-.265-12-.531-24-.265-36 0-6.545.265-13.364.797-20.182C28.96 0 30.29 0 31.884 1.091z" fill="url(#paint6_linear_2611_7400)"/><path d="M29.493 56.727h1.594c11.69-26.454 15.41-47.181 3.985-55.363C34.01.546 32.947.546 31.618.818c5.314 10.91 3.72 30.546-2.125 55.91z" fill="url(#paint7_linear_2611_7400)"/><path d="M31.087 56.727l1.063.546C49.155 31.636 54.203 12 39.324 2.727c-1.595-1.363-2.923-1.363-4.252-.818 11.957 9 6.643 30-3.985 54.818z" fill="url(#paint8_linear_2611_7400)"/><path d="M39.058 2.455c15.41 11.727 6.908 32.181-6.908 54.818l1.063.272c14.082-15 28.96-38.727 10.096-53.454C41.981 3 40.652 2.455 39.058 2.455z" fill="url(#paint9_linear_2611_7400)"/><path d="M43.84 4.364C56.86 15.273 53.938 34.09 32.947 57.273l1.328.545c22.053-20.181 27.899-43.09 9.566-53.454z" fill="url(#paint10_linear_2611_7400)"/><path d="M22.319 62.182c-.266-1.637-1.063-3-1.86-4.364 2.126-1.636 4.251-2.182 6.377-2.182h1.063c2.125 0 4.25.546 6.376 2.182-.797 1.364-1.594 3-1.86 4.364-1.328-.546-2.656-1.091-3.985-1.091h-2.126c-1.328 0-2.657.273-3.985 1.09z" fill="url(#paint11_linear_2611_7400)"/><path d="M25.507 55.636c-1.594.273-3.454.818-5.048 2.182.797 1.364 1.594 3 1.86 4.364 1.328-.546 2.657-1.091 3.985-1.091l-.797-5.455z" fill="url(#paint12_linear_2611_7400)"/><path d="M27.367 60.818c2.657 0 5.049.546 5.049 1.091 0 .546-2.126 1.091-5.049 1.091-2.657 0-5.048-.545-5.048-1.09 0-.546 2.391-1.092 5.048-1.092z" fill="url(#paint13_linear_2611_7400)"/><path d="M34.275 57.818l-.265-.272v-.273c.265 0 .265.273.265.545zm-14.082-.272c0-.273 0-.273.266-.273v.273h-.266zm13.55-.273s-.265 0-.265-.273v-.273c.266.273.266.273.266.546zm-12.753 0c0-.273.266-.273.266-.273v.273c-.266-.273-.266 0-.266 0zM33.212 57s-.265 0-.265-.273v-.272c0 .272.265.272.265.545zm-11.69 0c0-.273.265-.273.265-.273V57c0-.273 0-.273-.265 0zm10.893-.273s-.265 0-.265-.272v-.273c.265.273.265.273.265.545zm-10.096 0c0-.272.265-.272.265-.272v.272c0-.272-.265-.272-.265 0zm9.565-.272h-.266v-.273s.266 0 .266.273zm-9.034 0c0-.273.266-.273.266-.273v.273c0-.273 0 0-.266 0zm8.237-.273h-.266v-.273s.266 0 .266.273zm-7.44 0c0-.273.266-.273.266-.273v.273h-.266zm6.908-.273h-.265v-.273l.265.273zm-6.11 0c0-.273.265-.273.265-.273v.273h-.266zm5.313 0h-.265v-.273l.265.273zm-4.782 0c0-.273.265-.273.265-.273v.273h-.265zm3.985-.273h-.265v-.272c0 .273.265.273.265.273zm-3.188 0c0-.272.265-.272.265-.272v.273h-.265zm2.391 0h-.266v-.272c.266 0 .266 0 .266.273zm-1.594 0c0-.272.266-.272.266-.272v.273h-.266zm1.063 0h-.266v-.272l.266.273z" fill="#fff"/><path d="M20.725 57.818C-1.328 37.637-7.44 14.728 10.894 4.364c-.266.545-.797.818-1.063 1.09l-.266.273L9.3 6C-4.517 16.91 1.063 37.91 19.928 57l.797.818z" fill="#DF0" fill-opacity=".235"/><path d="M23.647 56.727C12.222 30.273 8.237 9.546 19.662 1.364c.265-.273.531-.273.797-.546h.266c-9.831 7.637-7.44 28.364 2.657 54.546l.265 1.363z" fill="url(#paint14_linear_2611_7400)" fill-opacity=".263"/><path d="M54.469 21.545c-10.894-8.182-45.435-8.727-54.203 0L0 21.272c9.034-9 43.575-8.181 54.734 0l-.265.273z" fill="#fff" fill-opacity=".545"/><path d="M31.618 2.454c4.252 16.091 1.329 33.273-2.39 50.455 1.062-10.91 1.593-44.727.53-51 .798-.273 1.329-.545 1.86.545z" fill="url(#paint15_linear_2611_7400)" fill-opacity=".235"/><path d="M37.464 4.636c6.377 10.364 1.063 30-5.58 47.182 7.44-21 6.377-39.545 4.251-47.454.532-.546.797-.819 1.329.272z" fill="url(#paint16_linear_2611_7400)" fill-opacity=".235"/><path d="M43.575 7.636c6.111 10.091 1.594 26.182-7.44 41.728 11.16-20.455 7.971-35.182 5.846-42-1.329-2.455.265-1.364 1.594.272z" fill="url(#paint17_linear_2611_7400)" fill-opacity=".235"/><path d="M48.358 9.818c6.11 8.455 1.594 22.364-7.44 35.455 11.16-17.455 7.971-29.728 5.845-35.727-1.594-2.728-.531-2.455 1.595.272z" fill="url(#paint18_linear_2611_7400)" fill-opacity=".235"/><path d="M22.85 2.182c-3.985 16.09-1.328 33.272 2.391 50.727-1.062-10.91-1.594-44.727-.531-51-.797-.546-1.329-.546-1.86.273z" fill="url(#paint19_linear_2611_7400)" fill-opacity=".235"/><path d="M16.208 5.182c-6.111 11.454-.797 29.727 5.845 46.909-7.44-21-6.11-39.546-3.985-47.182-.532-.546-1.329-.818-1.86.273z" fill="url(#paint20_linear_2611_7400)" fill-opacity=".235"/><path d="M11.16 7.364c-6.112 10.09-1.595 26.454 7.705 41.727-11.16-20.454-7.971-35.182-5.846-42-.797-.273-1.328-.545-1.86.273z" fill="url(#paint21_linear_2611_7400)" fill-opacity=".235"/><path d="M6.642 10.091c-6.11 9-1.594 24.273 7.44 38.455-11.16-18.819-7.971-32.728-5.845-39-.532-.273-1.063-.546-1.595.545z" fill="url(#paint22_linear_2611_7400)" fill-opacity=".235"/><path d="M34.541 56.182c2.391-2.727 4.517-5.727 6.643-8.727 2.39-3.546 4.782-6.819 6.908-10.637-.797 1.364-1.594 3-2.392 4.364-1.328 2.454-2.657 4.636-4.517 6.818a31.235 31.235 0 01-3.72 4.636c-.796 1.364-1.86 2.455-2.922 3.546z" fill="url(#paint23_linear_2611_7400)" fill-opacity=".282"/><path d="M32.681 56.182c2.126-3 3.986-6.273 5.58-9.546 1.86-3.818 3.72-7.363 5.58-11.181-.532 1.636-1.063 3-1.86 4.636-1.063 2.454-2.126 4.909-3.454 7.364C37.464 49.09 36.4 51 35.338 52.636c-1.063 1.091-1.86 2.182-2.657 3.546z" fill="url(#paint24_linear_2611_7400)" fill-opacity=".282"/><path d="M27.101 56.727l-.265-1.636v-1.636l.265 1.636v1.636zM25.507 57l-.531-1.637-.266-1.636.532 1.636.265 1.637zm-1.328.545l-.797-1.363-.532-1.637.797 1.364.532 1.636zm-1.063.273l-.797-1.363-.532-1.364.797 1.364.532 1.363zm-1.063.546l-1.063-1.091-.797-1.364L21.256 57l.797 1.364zM29.227 57l.266-1.637.531-1.636-.265 1.636L29.227 57zm1.594.273l.532-1.636.797-1.364-.532 1.636-.797 1.364zm1.063.273l.531-1.364.797-1.364-.53 1.364-.798 1.364zm.797.544l.797-1.363 1.063-1.09L33.744 57l-1.063 1.09z" fill="#fff"/><path d="M40.386 28.91c.266-1.637.532-3 .798-4.637 0-.546 0-1.091.265-1.91v-4.091c0-1.908 0-3.545-.265-5.454-.266-2.181-1.063-4.363-2.126-6.272-.266-.819-.797-1.364-1.328-2.182.265.272.53.818.797 1.363.531.546.797 1.364 1.062 2.182.797 1.91 1.329 4.091 1.86 6.273.266 1.636.266 3.545.266 5.182v2.182c0 1.09-.266 2.454-.531 3.545-.266 1.091-.532 2.455-.797 3.818zm5.58 0c.266-1.364.532-3 .797-4.364 0-.546 0-1.091.266-1.637v-3.545c0-1.637 0-3.273-.266-4.91-.265-1.908-1.063-3.818-2.125-5.727-.266-.545-.797-1.363-1.329-1.909.266.273.532.819.797 1.091.532.546.797 1.364 1.063 1.91.797 1.636 1.329 3.545 1.86 5.727.266 1.636.266 3 .266 4.636v1.909c0 1.091-.266 2.182-.532 3.273-.265 1.09-.531 2.454-.797 3.545z" fill="#DF0" fill-opacity=".525"/><path d="M32.681 60.818c-1.328-.818-3.454-1.09-5.58-1.09-2.125 0-3.985.272-5.048 1.09v-.273c1.063-.545 3.189-1.09 5.314-1.09 1.86 0 3.986.272 5.314 1.363z" fill="url(#paint25_linear_2611_7400)"/><path d="M27.367 63.273c-1.328 0-2.657 0-3.454-.273-.797-.273-1.594-.545-1.594-.818 0-.546.797-.819 1.594-.819.797-.272 2.126-.272 3.454-.272 1.329 0 2.657.273 3.454.273.797.272 1.595.545 1.595.818 0 .545-.798.818-1.595.818-.797.273-2.125.273-3.454.273zm0 0c1.329 0 2.657 0 3.454-.273.532 0 .797-.273 1.063-.273l.266-.272s0-.273-.266-.273-.531-.273-1.063-.273c-.797-.273-2.125-.273-3.454-.273-1.328 0-2.657 0-3.454.273-.531 0-.797.273-1.063.273l-.266.273s0 .272.266.272c.266-.272.532 0 1.063 0 .797.273 2.126.546 3.454.546z" fill="url(#paint26_linear_2611_7400)"/><path d="M1.063 22.09c-.266 0-.797-.272-1.063-.544.797.272 1.063.272 1.594 0 .532-.273 1.063-1.091 1.594-2.455h.266c1.329 1.636 2.657.818 4.251-1.637h.266c2.126 1.91 3.72.819 5.314-1.09h.266c2.125 2.181 4.517 1.363 7.174-1.091 2.125 1.636 4.25 1.636 6.376-.273 2.658 1.636 5.315 2.182 7.706.546 2.391 1.909 4.782 1.909 6.908.818 1.86 1.636 3.454 2.454 5.314 1.363 1.594 2.182 2.923 3 4.517 1.91h.266c.797 1.909 1.594 2.727 2.922 1.636v.273c-1.328 1.09-2.391.272-3.188-1.364v-.273l-.266.273c-1.328 1.09-2.922 0-4.251-1.636l-.266-.273-.265.273c-1.595.818-2.923.272-4.517-.819l-.532-.545-.265.273c-2.126.818-3.986.545-6.111-.819l-.266-.272-.266-.273c-2.391 1.09-4.517.818-6.908-.546l-.532-.272-.531.273c-1.86 1.363-3.986 1.363-5.845 0h-.266l-.532.272c-2.39 1.91-4.516 2.728-6.642.818l-.266-.272-.265.272c-1.329 1.637-2.657 2.728-4.783 1.091h-.266L7.44 18c-1.329 1.91-2.657 2.727-3.986 1.636v-.272l-.266.272c-.531 1.091-1.062 1.637-1.328 2.182-.266 0-.532.273-.797.273z" fill="#fff" fill-opacity=".545"/><path d="M22.319 71.182C11.957 61.09 4.25 43.909 3.189 19.09h.265c.797 24.818 8.503 42 18.865 52.09z" fill="url(#paint27_linear_2611_7400)"/><path d="M32.416 70.636c10.362-9.818 18.333-26.454 19.396-51h-.266c-.797 24.273-8.768 41.182-19.13 51z" fill="url(#paint28_linear_2611_7400)"/><path d="M31.352 72.273c6.643-14.455 9.566-33.546 10.097-55.637h.266c-.797 22.091-3.72 41.455-10.363 55.637z" fill="url(#paint29_linear_2611_7400)"/><path d="M32.415 70.364H22.32L22.053 75c-.266.818.266 2.182 1.329 2.182 2.657.818 5.58.545 8.502 0 .797-.273 1.328-1.364 1.328-2.182l-.797-4.636z" fill="url(#paint30_linear_2611_7400)"/><path d="M27.898 78v-7.364h4.517l.532 4.637c.265.818-.532 1.909-1.329 2.181-1.063.273-2.125.273-3.188.546h-.532z" fill="url(#paint31_linear_2611_7400)"/><path d="M27.367 78h-.797l.266-.273-.266-.272-.266.272.266.273h-.797l-.266-.273h-.265l-.266-.272-.266.272h-.265l-.532-.545v.273h-.266l-.265-.273-.266.273h-.266v-1.091l-.265-.273v-1.364l.265.273v-.273l-.265-.272v-.273l.265-.273v.273-1.091l.266.273.266-.273-.266-.273v-.272l.266-.273-.266-.273v-.273l.266.273.265-.273-1.328-.818h.266l.265.546.266-.546-.266-.273h.266v.273l.266-.273h.265l-.531.273.266.273.265-.273.266-.273v-.272h.532l-.266.545.266.273.265-.273-.265-.273h.265v.273l.266-.545h.531l-.265.272.265.273h.532l-.266-.273h.266l.265.273.266-.273h.266l.266.273.265-.273h1.063l.266.273.265-.273h.532l.266.273.265-.273h.266l.266.273.265-.273h.266l.266.273.265-.273v-.272h.532v.545l.266-.273h.265l.266.273.266-.545v.272l-.266.546v.273l.266-.273v.545l.265.273v.546l-.265.272v.546l-.266-.273-.266.273.266.272v-.272.818l-.266-.273-.265.273.265.273V75l-.265.273.265.273c0 .545-.265.818-.797 1.09h-.266l.266-.272-.266-.273.266.818-.266.546h-.531l-.266-.273-.265.273h-.532l.266-.273-.266-.273-.265.273.265.273h-.265l-.266-.273-.266.273h-.531v-.273l-.266-.273-.266.273.266.273h-.531l-.532.545.266-.273-.266-.272-.265.272.265.273zm-.265-.273l.265-.272v-.273l-.265.545zm1.062 0l.266-.272v-.273l-.266.545zm-2.391 0v-.545l-.266.273.266.272zm-.531 0v-.545l-.266.273.266.272zm2.657-.272l.265-.273-.265-.273-.266.273.266.273zm-1.063 0l.266-.273-.532-.273v.273l.266.273zm2.125 0l.266-.546-.266-.273-.265.546.265.273zm-4.782 0v-.546l-.266.273.266.273zm6.908 0v-.546l-.266.273.266.273zm-5.048 0v-.546l-.266.273.266.273zm-.532 0v-.546l-.265.273.265.273zm4.783 0l.266-.273-.266-.273-.266.273.266.273zm-6.643-.273v-.546.546zm-.531 0v-.546l-.266.273.266.273zm8.237 0l.265-.546-.265-.272-.266.545.266.273zm-3.189-.273v-.545l-.265.272.265.273zm-1.063 0v-.545l-.265.272.266.273zm.532 0l.266-.273v-.272l-.266.545zm-1.329 0l.266-.273-.266-.272-.265.272.265.273zm2.392 0l.265-.545v-.273l-.265.818zm-4.783 0v-.545l-.266.272.266.273zm1.86 0v-.545l-.266.272.266.273zm3.72 0v-.545l-.266.272.266.273zm1.063 0v-.545h-.266l.266.545zm-5.846 0v-.545h-.265l.265.545zm-1.328 0l-.266-.545v.272l.266.273zm9.034 0l.265-.273-.265-.272h-.266l.266.545zm-5.049-.273l.266-.272-.266-.273-.265.273.265.272zm1.063 0l.266-.545-.266-.273-.266.546.266.272zm-2.391-.272l.265-.273-.265-.273-.266.273.266.273zm3.72 0l.265-.273-.265-.273-.266.273.266.273zm-3.189 0v-.546.546zm5.048 0v-.546l-.265.273.265.273zm-7.97 0v-.546l-.266.273.265.273zm1.328 0v-.546l-.266.273.266.273zm5.845 0l.266-.546-.266-.272-.265.545.265.273zm-8.236 0v-.546l-.266.273.266.273zm10.096 0v-.546l-.265.273.265.273zm-8.236-.273v-.545l-.266.272.266.273zm3.188 0v-.545l-.266.272.266.273zm-.531 0l.265-.273-.265-.272-.266.272.266.273zm1.062 0l.266-.545v-.273l-.266.818zm-1.86 0v-.545l-.265.272.265.273zm2.657 0v-.545l-.265.272.265.273zm2.923 0l.266-.273-.266-.545-.266.273.266.545zm-6.642-.273v-.545l-.266.273.266.272zm4.782 0v-.545l-.265.273.265.272zm-4.251 0l.266-.272-.266-.273v.545zm3.454 0l.266-.272v-.273l-.266.545zm-6.377 0l-.265-.545v.273l.265.272zm1.86 0v-.545l-.265.273.265.272zm-.797 0v-.545l-.266.273.266.272zm7.44 0v-.545l-.266.273.266.272zm-3.454 0l.265-.545L27.9 75l-.266.546.266.272zm-1.329-.272l.266-.273L26.57 75l-.266.273.266.273zm2.657 0l.266-.273-.266-.546-.266.273.266.546zm-1.86 0V75l-.265.273.265.273zm4.783 0V75h-.266l.266.546zm-9.034 0V75l-.266.273.266.273zm2.391 0l.266-.273-.266-.273-.265.273.265.273zm4.783 0l.266-.546-.266-.273-.266.546.266.273zm-5.314-.273v-.546L24.71 75l.266.273zm-.797 0v-.546l-.266.273.266.273zm7.44 0l.265-.273-.266-.273-.265.273.265.273zM27.632 75l.266-.545-.266-.273-.266.545.266.273zm-.531 0v-.545l-.266.272.266.273zm1.062 0v-.545l-.265.272.265.273zm4.252 0l.265-.273-.265-.272-.266.272.266.273zm-6.643 0v-.545l-.266.272.266.273zm3.72 0v-.545l-.266.272.266.273zm-3.189 0l.266-.273-.266-.272V75zm2.392 0l.265-.273v-.272l-.265.545zm-3.454 0l.265-.273-.265-.272-.266.272.266.273zm4.782 0l.266-.545v-.273l-.266.818zm-5.58 0v-.545l-.265.272.266.273zm6.112 0v-.545l-.266.272.266.273zm-7.174-.273v-.545l-.266.273.266.272zm8.502 0v-.545l-.266.273.266.272zm-4.517 0l.266-.545-.266-.273-.265.546.265.272zm1.063 0l.266-.272-.266-.273-.266.273.266.272zm-6.111 0v-.545l-.266.273.266.272zm3.72 0l.265-.272-.265-.273-.266.273.266.272zm3.72 0l.265-.545-.265-.273-.266.546.266.272zm-1.86-.272v-.546l-.266.273.266.273zm-2.392 0v-.546l-.265.273.265.273zm-.531 0l.266-.273-.266-.273-.266.273.266.273zm6.111 0l.266-.273-.532-.546-.265.273.531.546zm-7.44 0v-.546l-.265.273.265.273zm8.503 0l.266-.273-.266-.546-.266.273.266.546zm-5.846-.273v-.546h-.265l.265.546zm2.657 0v-.546h-.265l.265.546zm-2.125 0l.266-.546-.266-.272v.818zm1.328 0l.266-.273-.266-.273-.265.273.265.273zm-.531 0v-.546h-.266l.266.546zm-1.86 0v-.546l-.266-.272v.272l.266.546zm3.72 0l.266-.546v-.272l-.266.818zm.531-.273v-.545l-.265.272.265.273zm-4.782 0v-.545l-.266.272.266.273zm-1.329 0v-.545l-.266.272.266.273zm7.44 0v-.545l-.266.272.266.273zm-8.503 0v-.545l-.265.272.265.273zm9.566 0v-.545l-.266.272.266.273zm-7.971 0l.265-.273v-.272l-.265.545zm6.11 0l.266-.273v-.272l-.265.545zm-3.985-.273l.266-.545-.266-.273-.266.546.266.272zm2.657 0l.266-.545-.266-.273-.266.546.266.272zm-1.328 0l.265-.272-.265-.273-.266.273.266.272zm-2.392 0l.266-.272-.266-.273-.265.273.265.272zm4.783 0l.266-.272-.266-.273-.266.273.266.272zm-4.251 0v-.545l-.266.273.266.272zm2.391 0v-.545l-.266.273.266.272zm-4.251 0l.266-.272-.266-.273h-.266l.266.546zm7.44 0l.265-.272-.266-.273-.265.273.265.272zm-8.503 0v-.545l-.266.273.266.272zm3.188-.545l.266-.545-.266-.273-.265.545.265.273zm2.392 0l.265-.545-.265-.273-.266.545.266.273zm-.532 0v-.545l-.265.272.265.273zm-1.063 0v-.545l-.265.272.266.273zm-1.328 0v-.545l-.266.272.266.273zm3.72 0v-.545l-.266.272.266.273zm-1.86 0l.266-.273-.266-.272v.545zm-4.251 0v-.545l-.266.272.266.273zm8.502 0v-.545l-.266.272.266.273zm-7.44 0v-.545l-.265.272.266.273zm6.377 0v-.545l-.265.272.265.273zm-5.845 0l.266-.273v-.272l-.266.545zm5.048 0l.266-.273v-.272l-.266.545zm-6.11 0l.265-.273v-.272l-.266.545zm7.173 0l.266-.273v-.272l-.266.545zm-3.72-.273l.266-.272-.266-.273-.265.273.265.272zm1.063 0l.266-.545L28.43 72l-.266.546.266.272zm-2.391 0l.265-.545L26.04 72l-.266.546.266.272zm3.72 0l.265-.272-.265-.273-.266.273.266.272zm-7.174 0v-.545l-.266.273.266.272zm1.062-.272l.266-.273-.266-.273-.265.273.265.273zm8.503 0V72l-.266.273.266.273zm-7.44 0l.266-.273L24.71 72l-.265.273.265.273zm6.377 0l.266-.273-.266-.273-.266.273.266.273zm-4.517 0V72v.546zm2.657 0V72l-.266.273.266.273zm-6.377-.273v-.546l-.265.273.265.273zm9.566 0v-.546L32.15 72l.266.273zm-8.503 0v-.546l-.266.273.266.273zm7.44 0v-.546l-.266.273.266.273zm-6.111 0v-.546l-.266.273.266.273zm4.782 0v-.546L29.76 72l.265.273zm-2.391 0v-.546l-.266.273.266.273zM26.836 72l.266-.273-.266-.272-.266.272.266.273zm1.328 0l.266-.545-.266-.273V72zm-2.657 0l.266-.545v-.273l-.266.818zm3.986 0l.266-.273-.266-.272-.266.272.266.273zm-3.189 0v-.545l-.265.272.265.273zm2.657 0v-.545l-.265.272.265.273zm-4.516 0l.265-.273v-.272l-.265.545zm6.11 0l.266-.273v-.272l-.265.545zm-7.439-.273l.266-.272-.266-.273-.266.273.266.272zm1.063 0l.266-.272-.266-.273-.266.273.266.272zm7.44 0v-.545l-.266.273.265.272zm-6.112 0l.266-.545-.266-.273-.265.546.265.272zm4.783 0l.266-.272-.266-.273-.266.273.266.272zm-2.391 0l.265-.545-.265-.273-.266.546.266.272zm-1.329 0l.266-.272-.266-.546-.266.273.266.545zm2.657 0l.266-.272-.266-.546-.266.273.266.545zm.532 0v-.545l-.266.273.266.272zm-2.392 0v-.545l-.265.273.265.272zm4.517-.272v-.546h-.266l.266.546zm-1.063-.273v-.546l-.265.273.265.273zm-.797 0l.266-.273-.266-.273-.265.273.265.273zm-.531 0v-.546h-.266l.266.546zm-1.86 0l.266-.546-.266-.272-.266.545.266.273zm-.531 0v-.546l-.266.273.266.273zm1.062 0v-.546l-.265.273.265.273zm-1.86 0l.266-.273v-.273l-.266.546zm2.392 0l.265-.273-.265-.273v.546z" fill="#fff" fill-opacity=".263"/><path d="M27.367 71.727c2.657 0 5.049-.545 5.049-1.09 0-.546-2.126-1.092-5.049-1.092-2.657 0-5.048.546-5.048 1.091 0 .546 2.391 1.091 5.048 1.091z" fill="url(#paint32_linear_2611_7400)"/><path d="M27.367 69.273c-1.328 0-2.657 0-3.454.273-.797.272-1.594.545-1.594.818 0 .545.797.818 1.594.818.797.273 2.126.273 3.454.273 1.329 0 2.657 0 3.454-.273.797-.273 1.595-.545 1.595-.818 0-.546-.798-.818-1.595-.818-.797-.273-2.125-.273-3.454-.273zm0 0c1.329 0 2.657 0 3.454.273.532 0 .797.272 1.063.272l.266.273s0 .273-.266.273-.531.273-1.063.273c-.797.272-2.125.272-3.454.272-1.328 0-2.657 0-3.454-.272-.531 0-.797-.273-1.063-.273l-.266-.273s0-.273.266-.273.532-.272 1.063-.272c.797 0 2.126-.273 3.454-.273z" fill="url(#paint33_linear_2611_7400)"/><path d="M22.584 70.636c.532-3 .266-5.727-.265-8.454h.265c.532 2.727.798 5.454 0 8.454zm9.566 0c-.532-3-.266-5.727.266-8.727h-.266c-.532 3-.797 6 0 8.727zm-7.971.546c.531-3.273.266-6.546-.266-10.091h.266c.531 3.545.797 6.818 0 10.09zm6.377 0c-.532-3.273-.266-6.546.265-10.091h-.265c-.266 3.545-.532 6.818 0 10.09zm-1.595.272c-.531-3.545-.265-6.818.266-10.363h-.266c-.531 3.545-.797 6.818 0 10.363zm-2.922.001c.531-3.546.265-7.091-.266-10.637h.266c.531 3.546.797 7.091 0 10.637z" fill="#B2B2B2"/><path d="M22.584 70.91c-1.062 1.908-1.062 2.727 0 3 1.063-.273.798-1.91 0-3z" fill="url(#paint34_linear_2611_7400)"/><path d="M22.585 71.182l-.532-.273.532-.273h.265l-.265.546z" fill="url(#paint35_linear_2611_7400)"/><path d="M23.382 71.182c-1.063 1.909-1.063 2.727 0 3 .797-.273.531-1.91 0-3z" fill="url(#paint36_linear_2611_7400)"/><path d="M23.382 71.182l-.532-.273.532-.273h.265l-.265.546z" fill="url(#paint37_linear_2611_7400)"/><path d="M32.415 70.91c1.063 1.908 1.063 2.727 0 3-1.063-.273-.797-2.183 0-3z" fill="url(#paint38_linear_2611_7400)"/><path d="M32.415 70.91l.532-.273-.532-.273h-.265l.265.545z" fill="url(#paint39_linear_2611_7400)"/><path d="M31.619 70.91c1.062 1.908 1.062 2.727 0 3-1.063-.273-.798-1.91 0-3z" fill="url(#paint40_linear_2611_7400)"/><path d="M31.618 71.182l.532-.273-.532-.273h-.265l.265.546z" fill="url(#paint41_linear_2611_7400)"/><path d="M13.02 17.182v-.546c0-4.909 1.328-8.727 3.453-12h.266c-3.454 0-6.377 4.637-8.502 10.91l-.532 1.363v-1.09c.532-3.546 1.86-6.819 3.986-9.274L12.222 6l-1.328.273c-2.657.818-5.049 4.363-6.909 9l-.265 1.09c1.063-4.636 3.188-9 7.97-12.545 1.595-.818 2.658-1.363 3.986-1.636h.266C17.27 1.09 18.599.818 19.927 1.09h.266C21.256.545 22.32.545 23.647.818l.266-.273C24.976 0 25.773 0 26.836 0l.531.273h-.266c-2.657 1.363-5.048 5.454-6.376 11.181l-.266 1.364v-.272c.266-3 .797-5.455 1.594-7.91l.531-1.363-.797.272C18.333 4.91 14.613 9.818 13.02 16.91v.273z" fill="#fff" fill-opacity=".318"/><path d="M27.367 66c-1.328 0-2.391 0-3.188-.273-.797 0-1.329-.273-1.329-.273 0-.272.532-.272 1.329-.272.797 0 1.86-.273 3.188-.273 1.329 0 2.392 0 3.189.273.797 0 1.328.272 1.328.272 0 .273-.531.273-1.328.273-.797.273-1.86.273-3.189.273zm0 0c1.329 0 2.392 0 3.189-.273.531 0 .797 0 1.063-.273.265 0 .265 0 .265-.272l-.265-.273c-.266 0-.532 0-1.063-.273h-6.377c-.532 0-.797 0-1.063.273-.266 0-.266 0-.266.273l.266.272c.266 0 .531 0 1.063.273.797 0 1.86.273 3.188.273z" fill="#999"/><defs><linearGradient id="paint0_linear_2611_7400" x1="24.056" y1="28.922" x2="10.712" y2="30.152" gradientUnits="userSpaceOnUse"><stop stop-color="#118C00"/><stop offset="1" stop-color="#70D410"/></linearGradient><linearGradient id="paint1_linear_2611_7400" x1="6.97" y1="30.505" x2="10.686" y2="30.184" gradientUnits="userSpaceOnUse"><stop stop-color="#007301"/><stop offset="1" stop-color="#DF0"/></linearGradient><linearGradient id="paint2_linear_2611_7400" x1="19.787" y1="29.813" x2="5.176" y2="31.507" gradientUnits="userSpaceOnUse"><stop stop-color="#BABABA"/><stop offset="1" stop-color="#F7F7F7"/></linearGradient><linearGradient id="paint3_linear_2611_7400" x1="23.627" y1="30.9" x2="4.483" y2="31.522" gradientUnits="userSpaceOnUse"><stop stop-color="#118C00"/><stop offset="1" stop-color="#70D410"/></linearGradient><linearGradient id="paint4_linear_2611_7400" x1="34.58" y1="28.444" x2="21.261" y2="28.444" gradientUnits="userSpaceOnUse"><stop stop-color="#118C00"/><stop offset="1" stop-color="#70D410"/></linearGradient><linearGradient id="paint5_linear_2611_7400" x1="30.506" y1="28.323" x2="15.635" y2="29.247" gradientUnits="userSpaceOnUse"><stop stop-color="#BABABA"/><stop offset="1" stop-color="#F7F7F7"/></linearGradient><linearGradient id="paint6_linear_2611_7400" x1="41.493" y1="29.119" x2="26.367" y2="28.352" gradientUnits="userSpaceOnUse"><stop stop-color="#BABABA"/><stop offset="1" stop-color="#F7F7F7"/></linearGradient><linearGradient id="paint7_linear_2611_7400" x1="41.822" y1="30.645" x2="30.998" y2="28.778" gradientUnits="userSpaceOnUse"><stop stop-color="#118C00"/><stop offset="1" stop-color="#70D410"/></linearGradient><linearGradient id="paint8_linear_2611_7400" x1="48.105" y1="32.506" x2="33.061" y2="29.078" gradientUnits="userSpaceOnUse"><stop stop-color="#BABABA"/><stop offset="1" stop-color="#F7F7F7"/></linearGradient><linearGradient id="paint9_linear_2611_7400" x1="56.848" y1="34.804" x2="34.823" y2="29.805" gradientUnits="userSpaceOnUse"><stop stop-color="#118C00"/><stop offset="1" stop-color="#70D410"/></linearGradient><linearGradient id="paint10_linear_2611_7400" x1="64.253" y1="36.848" x2="36.01" y2="30.813" gradientUnits="userSpaceOnUse"><stop stop-color="#BABABA"/><stop offset="1" stop-color="#F7F7F7"/></linearGradient><linearGradient id="paint11_linear_2611_7400" x1="37.305" y1="60.15" x2="26.565" y2="59.45" gradientUnits="userSpaceOnUse"><stop stop-color="#960"/><stop offset="1" stop-color="#F5C748"/></linearGradient><linearGradient id="paint12_linear_2611_7400" x1="17.616" y1="61.088" x2="24.321" y2="59.755" gradientUnits="userSpaceOnUse"><stop stop-color="#960"/><stop offset="1" stop-color="#F5C748"/></linearGradient><linearGradient id="paint13_linear_2611_7400" x1="27.386" y1="64.342" x2="27.386" y2="60.028" gradientUnits="userSpaceOnUse"><stop stop-color="#F5C748"/><stop offset="1" stop-color="#960"/></linearGradient><linearGradient id="paint14_linear_2611_7400" x1="12.666" y1="28.615" x2="14.686" y2="28.67" gradientUnits="userSpaceOnUse"><stop stop-color="#C7C7C7"/><stop offset="1" stop-color="#fff"/></linearGradient><linearGradient id="paint15_linear_2611_7400" x1="26.542" y1="27.255" x2="32.584" y2="27.327" gradientUnits="userSpaceOnUse"><stop stop-color="#fff"/><stop offset="1" stop-color="#BABABA"/></linearGradient><linearGradient id="paint16_linear_2611_7400" x1="31.027" y1="27.613" x2="38.802" y2="28.144" gradientUnits="userSpaceOnUse"><stop stop-color="#DF0"/><stop offset="1" stop-color="#118C00"/></linearGradient><linearGradient id="paint17_linear_2611_7400" x1="34.926" y1="27.43" x2="44.407" y2="28.301" gradientUnits="userSpaceOnUse"><stop stop-color="#fff"/><stop offset="1" stop-color="#BABABA"/></linearGradient><linearGradient id="paint18_linear_2611_7400" x1="39.84" y1="26.288" x2="49.291" y2="27.285" gradientUnits="userSpaceOnUse"><stop stop-color="#DF0"/><stop offset="1" stop-color="#118C00"/></linearGradient><linearGradient id="paint19_linear_2611_7400" x1="23.636" y1="27.119" x2="21.288" y2="27.013" gradientUnits="userSpaceOnUse"><stop stop-color="#70D410"/><stop offset="1" stop-color="#DF0"/></linearGradient><linearGradient id="paint20_linear_2611_7400" x1="17.038" y1="28.487" x2="15.508" y2="28.59" gradientUnits="userSpaceOnUse"><stop stop-color="#F7F7F7"/><stop offset="1" stop-color="#fff"/></linearGradient><linearGradient id="paint21_linear_2611_7400" x1="11.995" y1="28.243" x2="10.539" y2="28.334" gradientUnits="userSpaceOnUse"><stop stop-color="#70D410"/><stop offset="1" stop-color="#DF0"/></linearGradient><linearGradient id="paint22_linear_2611_7400" x1="7.361" y1="29.191" x2="5.909" y2="29.295" gradientUnits="userSpaceOnUse"><stop stop-color="#F7F7F7"/><stop offset="1" stop-color="#fff"/></linearGradient><linearGradient id="paint23_linear_2611_7400" x1="43.155" y1="42.582" x2="40.143" y2="48.682" gradientUnits="userSpaceOnUse"><stop stop-color="#007301"/><stop offset="1" stop-color="#DF0"/></linearGradient><linearGradient id="paint24_linear_2611_7400" x1="41.917" y1="38.57" x2="37.593" y2="47.049" gradientUnits="userSpaceOnUse"><stop stop-color="#007301"/><stop offset="1" stop-color="#DF0"/></linearGradient><linearGradient id="paint25_linear_2611_7400" x1="14.964" y1="60.355" x2="31.863" y2="60.197" gradientUnits="userSpaceOnUse"><stop stop-color="#fff"/><stop offset="1" stop-color="#F5C748"/></linearGradient><linearGradient id="paint26_linear_2611_7400" x1="19.357" y1="61.979" x2="29.937" y2="62.059" gradientUnits="userSpaceOnUse"><stop stop-color="#fff"/><stop offset="1" stop-color="#F5C748"/></linearGradient><linearGradient id="paint27_linear_2611_7400" x1="12.979" y1="15.286" x2="12.772" y2="47.776" gradientUnits="userSpaceOnUse"><stop stop-color="#fff"/><stop offset="1" stop-color="#CCC"/></linearGradient><linearGradient id="paint28_linear_2611_7400" x1="42.213" y1="15.93" x2="42.412" y2="47.718" gradientUnits="userSpaceOnUse"><stop stop-color="#fff"/><stop offset="1" stop-color="#CCC"/></linearGradient><linearGradient id="paint29_linear_2611_7400" x1="36.405" y1="12.504" x2="36.862" y2="47.261" gradientUnits="userSpaceOnUse"><stop stop-color="#fff"/><stop offset="1" stop-color="#CCC"/></linearGradient><linearGradient id="paint30_linear_2611_7400" x1="22.029" y1="74.031" x2="24.593" y2="74.086" gradientUnits="userSpaceOnUse"><stop stop-color="#F5C748"/><stop offset="1" stop-color="#960"/></linearGradient><linearGradient id="paint31_linear_2611_7400" x1="33.908" y1="73.391" x2="30.196" y2="73.893" gradientUnits="userSpaceOnUse"><stop stop-color="#F5C748"/><stop offset="1" stop-color="#960"/></linearGradient><linearGradient id="paint32_linear_2611_7400" x1="27.386" y1="68.163" x2="27.386" y2="72.476" gradientUnits="userSpaceOnUse"><stop stop-color="#F5C748"/><stop offset="1" stop-color="#960"/></linearGradient><linearGradient id="paint33_linear_2611_7400" x1="19.356" y1="70.523" x2="29.935" y2="70.443" gradientUnits="userSpaceOnUse"><stop stop-color="#fff"/><stop offset="1" stop-color="#F5C748"/></linearGradient><linearGradient id="paint34_linear_2611_7400" x1="21.454" y1="72.342" x2="23.014" y2="72.583" gradientUnits="userSpaceOnUse"><stop stop-color="#fff"/><stop offset="1" stop-color="#7F7F7F"/></linearGradient><linearGradient id="paint35_linear_2611_7400" x1="22.217" y1="70.728" x2="22.777" y2="70.847" gradientUnits="userSpaceOnUse"><stop stop-color="#fff"/><stop offset="1" stop-color="#999"/></linearGradient><linearGradient id="paint36_linear_2611_7400" x1="22.202" y1="72.538" x2="23.756" y2="72.777" gradientUnits="userSpaceOnUse"><stop stop-color="#fff"/><stop offset="1" stop-color="#7F7F7F"/></linearGradient><linearGradient id="paint37_linear_2611_7400" x1="22.968" y1="70.921" x2="23.526" y2="71.043" gradientUnits="userSpaceOnUse"><stop stop-color="#fff"/><stop offset="1" stop-color="#999"/></linearGradient><linearGradient id="paint38_linear_2611_7400" x1="30.984" y1="70.609" x2="33.097" y2="73.272" gradientUnits="userSpaceOnUse"><stop stop-color="#fff"/><stop offset="1" stop-color="#7F7F7F"/></linearGradient><linearGradient id="paint39_linear_2611_7400" x1="32.695" y1="70.5" x2="32.132" y2="70.62" gradientUnits="userSpaceOnUse"><stop stop-color="#fff"/><stop offset="1" stop-color="#999"/></linearGradient><linearGradient id="paint40_linear_2611_7400" x1="29.176" y1="71.273" x2="32.479" y2="72.856" gradientUnits="userSpaceOnUse"><stop stop-color="#fff"/><stop offset="1" stop-color="#7F7F7F"/></linearGradient><linearGradient id="paint41_linear_2611_7400" x1="31.943" y1="70.701" x2="31.384" y2="70.82" gradientUnits="userSpaceOnUse"><stop stop-color="#fff"/><stop offset="1" stop-color="#999"/></linearGradient></defs></svg>