<svg width="85" height="116" fill="none" xmlns="http://www.w3.org/2000/svg"><path d="M43.244 105.455h.2c-1.003-4.975-.602-9.949.201-14.923h-.2c-.803 4.974-1.205 9.948-.201 14.923zm-4.216 0h-.2c1.204-4.975.602-9.949-.201-14.923h.2c1.004 4.974 1.406 9.948.201 14.923zm7.629 0h.2c-1.204-4.975-.602-9.949.201-14.923h-.2c-1.004 4.974-1.406 9.948-.201 14.923z" fill="#E5E5E5"/><path d="M37.02 84.364l-1.806.796C9.317 46.957 1.287 17.709 24.173 3.78c2.61-1.99 4.617-1.99 6.624-1.392C12.53 16.117 20.76 47.554 37.021 84.364z" fill="url(#paint0_linear_2611_7253)"/><path d="M35.214 85.16C9.317 46.956 1.287 17.707 24.173 3.78c1.204-.995 2.409-1.393 3.613-1.592-20.677 11.54-16.462 43.973 7.428 82.772v.2z" fill="url(#paint1_linear_2611_7253)" fill-opacity=".263"/><path d="M24.574 3.78C1.086 21.29 14.135 51.732 35.414 84.96l-1.806.597C11.927 63.272-11.561 27.856 17.748 5.97c2.811-1.592 4.417-2.189 6.826-2.189z" fill="url(#paint2_linear_2611_7253)"/><path d="M33.608 85.558C11.927 63.273-11.561 27.856 17.748 5.969c.803-.398 1.406-.796 2.008-.995l1.405-.597-.2.2c-27.503 21.687-8.432 56.11 11.844 79.787l.803 1.194z" fill="#FFA300" fill-opacity=".18"/><path d="M17.146 6.566C-3.129 22.88 1.69 50.936 33.81 85.358l-2.008.796C-1.925 55.911-11.159 21.887 17.146 6.566z" fill="url(#paint3_linear_2611_7253)"/><path d="M36.017 1.592C25.979 18.305 31.8 50.539 39.229 84.165h4.015L42.642.995c-2.209-.796-4.417-.995-6.625.597z" fill="url(#paint4_linear_2611_7253)"/><path d="M39.229 84.363C31.6 50.538 25.979 18.504 36.017 1.791c.2-.2.602-.398.803-.597l.602-.2-.2.399c-6.625 16.713-3.815 46.16 1.405 77.797l.803 5.372-.201-.199z" fill="#FFA300" fill-opacity=".2"/><path d="M39.43 84.364h-2.61C18.953 44.967 12.93 14.127 30.797 2.189c1.606-.995 3.413-1.194 5.22-.597-7.83 15.917-5.621 44.967 3.413 82.771z" fill="url(#paint5_linear_2611_7253)"/><path d="M49.266 1.592c10.038 16.713 4.216 48.947-3.212 82.573H42.04c-.401-17.709-.803-35.417-.602-53.324.2-9.949.402-19.898 1.205-30.045 2.208-.597 4.416-.796 6.624.796z" fill="url(#paint6_linear_2611_7253)"/><path d="M45.854 84.364h2.61C66.33 45.166 72.352 14.326 54.485 2.189c-1.606-.995-3.413-1.194-5.22-.597 7.83 15.917 5.42 44.967-3.412 82.771z" fill="url(#paint7_linear_2611_7253)"/><path d="M48.062 84.364l1.807.796c26.097-38.203 33.927-67.451 11.04-81.38-2.609-1.99-4.616-1.99-6.624-1.392 18.268 13.729 10.238 45.166-6.223 81.976z" fill="url(#paint8_linear_2611_7253)"/><path d="M60.508 3.582c23.488 17.509 10.64 47.952-10.64 81.379l1.607.597C73.356 63.273 96.242 27.856 67.133 5.969c-2.208-1.592-4.416-2.188-6.625-2.387z" fill="url(#paint9_linear_2611_7253)"/><path d="M67.735 6.566c20.276 16.315 15.458 44.37-16.662 78.792l2.008.796C86.807 55.911 96.04 21.887 67.735 6.566z" fill="url(#paint10_linear_2611_7253)"/><path d="M34.612 92.522c-.603-2.388-1.606-4.378-3.012-6.567 3.212-2.387 6.625-3.183 10.038-3.183h1.606c3.413 0 6.625.796 10.037 3.183-1.204 2.19-2.409 4.378-3.01 6.567-2.21-.995-4.217-1.393-6.425-1.592h-2.81c-2.209 0-4.216.597-6.424 1.591z" fill="url(#paint11_linear_2611_7253)"/><path d="M39.43 82.772c-2.61.398-5.22 1.194-7.83 3.183 1.205 2.19 2.41 4.378 3.012 6.567 2.208-.995 4.215-1.393 6.424-1.592l-1.606-8.158z" fill="url(#paint12_linear_2611_7253)"/><path d="M42.44 90.532c4.217 0 7.83.796 7.83 1.79 0 .995-3.413 1.791-7.83 1.791-4.215 0-7.828-.796-7.828-1.79 0-.995 3.412-1.791 7.829-1.791z" fill="url(#paint13_linear_2611_7253)"/><path d="M53.281 85.955l-.401-.398.2-.199c.201.2.402.2.402.398l-.2.2zM31.4 85.756l-.201-.199c.2 0 .401-.199.401-.199l.201.2s-.2 0-.401.198zm20.878-.398c-.201 0-.402-.199-.402-.199l.2-.199c.202 0 .402.2.402.2l-.2.198zm-19.875-.199l-.2-.199c.2 0 .401-.199.602-.199l.2.2c-.2 0-.4.198-.602.198zm18.87-.398c-.2 0-.4-.198-.601-.198l.2-.2c.201 0 .402.2.603.2l-.201.198zm-17.866 0l-.2-.198c.2 0 .4-.2.602-.2v.2s-.201 0-.402.198zm16.863-.397c-.2 0-.401-.2-.602-.2v-.198c.2 0 .401.199.602.199v.198zm-15.86 0v-.2c.202 0 .402-.198.603-.198v.199c-.2 0-.401 0-.602.198zm14.856-.398c-.2 0-.401-.2-.602-.2v-.198c.2 0 .402.199.602.199v.199zm-13.65 0v-.2c.2 0 .4-.198.602-.198v.199c-.402 0-.603 0-.603.199zm12.647-.398c-.201 0-.402 0-.603-.2v-.198c.201 0 .402 0 .603.199v.199zm-11.644 0v-.2c.2 0 .402 0 .602-.198v.199c-.2.199-.401.199-.602.199zm10.44-.2c-.202 0-.402 0-.603-.198v-.2c.2 0 .401 0 .602.2v.199zm-9.436 0v-.198c.2 0 .401 0 .602-.2v.2c-.2 0-.401.199-.602.199zm8.431-.198h-.602v-.2h.602v.2zm-7.227 0v-.2h.603v.2h-.603zm6.023-.2h-.602v-.198h.602v.199zm-5.019 0v-.198h.602v.199h-.602zm4.015 0h-.602v-.198h.602v.199zm-2.81 0v-.198h.602v.398c-.2-.2-.402-.2-.602-.2zm1.606-.198h-.603v-.2h.603v.2z" fill="#fff"/><path d="M32.002 86.154C-1.925 55.911-11.16 21.887 17.146 6.566c-.602.597-1.204.995-1.806 1.592l-.402.398-.602.398C-7.144 25.269 1.488 56.508 30.998 84.96l1.004 1.194z" fill="#FFA300" fill-opacity=".235"/><path d="M36.62 84.364C18.751 44.967 12.73 14.127 30.596 2.189c.401-.2.802-.398 1.204-.597h.402c-15.057 11.341-11.443 41.983 4.015 81.18l.401 1.592z" fill="url(#paint14_linear_2611_7253)" fill-opacity=".263"/><path d="M41.236 23.08c-17.264-.198-33.726 2.985-40.15 9.352l-1.003-.994c7.026-6.765 24.09-9.75 41.153-9.75 17.265.199 34.93 3.383 43.764 9.55l-.803.995c-8.432-5.77-25.897-9.152-42.96-9.152z" fill="#fff" fill-opacity=".545"/><path d="M49.066 3.581c6.424 23.877 2.007 49.544-3.614 75.211 1.405-16.116 2.61-66.655 1.004-75.807 1.004-.796 1.807-.995 2.61.596z" fill="url(#paint15_linear_2611_7253)" fill-opacity=".235"/><path d="M57.698 6.964c10.037 15.32 1.807 44.37-8.432 70.038 11.644-31.239 9.837-58.697 6.625-70.436.803-.796 1.004-1.194 1.807.398z" fill="url(#paint16_linear_2611_7253)" fill-opacity=".235"/><path d="M67.133 11.341c9.436 14.923 2.61 39.197-11.443 62.08 17.064-30.443 12.246-52.33 9.034-62.677-1.807-3.382.402-1.99 2.41.597z" fill="url(#paint17_linear_2611_7253)" fill-opacity=".235"/><path d="M74.762 14.724c9.435 12.535 2.61 33.228-11.443 52.727 17.064-25.866 12.246-44.37 9.034-53.125-2.41-4.179-1.004-3.78 2.409.398z" fill="url(#paint18_linear_2611_7253)" fill-opacity=".235"/><path d="M35.415 3.382c-6.424 23.877-2.008 49.544 3.613 75.211-1.405-16.116-2.61-66.655-1.004-75.808-.803-.796-1.606-.995-2.61.597z" fill="url(#paint19_linear_2611_7253)" fill-opacity=".235"/><path d="M25.377 7.76c-9.435 16.912-1.204 44.171 9.034 69.839-11.644-31.239-9.636-58.697-6.424-70.436-1.004-.796-1.807-.995-2.61.597z" fill="url(#paint20_linear_2611_7253)" fill-opacity=".235"/><path d="M17.548 11.143C8.113 26.065 14.938 50.34 28.99 73.222c-16.863-30.443-12.046-52.33-8.834-62.676-1.003-.597-1.806-.796-2.61.597z" fill="url(#paint21_linear_2611_7253)" fill-opacity=".235"/><path d="M10.32 14.923C.887 28.652 7.712 51.135 21.765 72.425 4.9 44.172 9.719 23.877 12.93 14.325c-.803-.596-1.807-.795-2.61.598z" fill="url(#paint22_linear_2611_7253)" fill-opacity=".235"/><path d="M53.482 83.369a164.772 164.772 0 0010.239-13.132c3.613-5.173 7.227-10.347 10.438-15.719l-3.613 6.566a83.752 83.752 0 01-6.826 10.347c-1.405 2.586-3.412 4.775-5.42 7.163l-4.818 4.775z" fill="url(#paint23_linear_2611_7253)" fill-opacity=".282"/><path d="M50.47 83.567c3.213-4.576 6.023-9.351 8.633-14.126a325.87 325.87 0 008.432-16.714c-.803 2.388-1.807 4.576-2.81 6.964-1.607 3.78-3.413 7.362-5.421 10.943-1.405 2.587-3.011 5.174-4.818 7.561-1.204 1.791-2.61 3.582-4.015 5.373z" fill="url(#paint24_linear_2611_7253)" fill-opacity=".282"/><path d="M42.04 84.562l-.201-2.387.2-2.388.201 2.388-.2 2.387zm-2.41.398l-.803-2.188-.401-2.388.803 2.189.401 2.388zm-2.208.597l-1.204-1.99-.803-2.188 1.204 1.99.803 2.188zm-1.606.597l-1.405-1.99-1.004-2.188 1.405 1.99 1.004 2.189zm-1.606.597l-1.606-1.79-1.405-1.99 1.606 1.79 1.405 1.99zm11.242-1.99l.402-2.387.803-2.189-.402 2.388-.803 2.188zm2.208.399l.803-2.19 1.205-1.989-.803 2.189-1.205 1.99zm1.606.597l1.004-2.19 1.405-1.989-1.003 2.189-1.406 1.99zm1.204.596l1.406-1.99 1.606-1.79-1.405 1.99-1.606 1.79z" fill="#fff"/><path d="M62.315 42.978c.402-2.388.803-4.577 1.205-7.163.2-.796.2-1.79.2-2.587v-3.382c0-.995.201-1.99.201-2.786 0-2.785-.2-5.372-.602-7.959-.402-3.183-1.405-6.367-2.81-9.152-.603-1.194-1.205-2.189-2.008-3.184.402.597 1.004 1.194 1.405 1.79.602.996 1.205 1.99 1.807 3.184 1.405 2.786 2.208 5.97 2.61 9.153.401 2.388.401 5.173.2 7.561 0 .796 0 1.592-.2 2.388v.994c-.201 1.791-.402 3.582-.602 5.174-.402 1.99-.803 3.98-1.406 5.969zm8.632 0l1.205-6.566c.2-.796.2-1.592.2-2.388v-3.383c0-.795 0-1.79.201-2.586 0-2.587-.2-4.974-.602-7.362a29.704 29.704 0 00-3.011-8.357c-.602-.995-1.205-1.99-2.008-2.984.402.596 1.004 1.193 1.406 1.591.602.995 1.204 1.791 1.806 2.786 1.406 2.587 2.209 5.372 2.61 8.357.402 2.188.402 4.576.2 6.964 0 .796-.2 1.392-.2 2.188v.996l-.602 4.774c-.402 2.388-.803 4.179-1.205 5.97z" fill="#FFA300" fill-opacity=".525"/><path d="M50.672 90.73l-.201-.198c-2.008-1.194-5.22-1.592-8.432-1.592-3.212 0-6.223.597-7.829 1.393v-.2c1.807-.994 4.818-1.591 8.03-1.591 3.212 0 6.625.597 8.632 1.79h.201l-.401.399z" fill="url(#paint25_linear_2611_7253)"/><path d="M42.44 94.312c-2.207 0-4.014-.199-5.42-.597-1.405-.398-2.408-.796-2.408-1.393s1.003-.995 2.409-1.393c1.405-.398 3.412-.597 5.42-.597 2.208 0 4.015.2 5.42.597 1.405.398 2.41.796 2.41 1.393s-1.005.995-2.41 1.393c-1.405.398-3.413.597-5.42.597zm0-.398c2.21 0 4.016-.199 5.421-.597.602-.199 1.205-.398 1.606-.597.402-.199.602-.398.602-.597 0-.199-.2-.398-.602-.597-.401-.199-1.004-.398-1.606-.597-1.405-.398-3.413-.597-5.42-.597-2.208 0-4.015.2-5.42.597-.603.2-1.205.398-1.606.597-.402.2-.603.398-.603.597 0 .2.201.398.603.597.401.2 1.003.398 1.606.597 1.405.398 3.212.597 5.42.597z" fill="url(#paint26_linear_2611_7253)"/><path d="M1.89 32.631c-.603 0-1.205-.199-1.607-.796l.201-.198c.803.795 1.606.795 2.208.398.803-.597 1.606-1.791 2.41-3.582h.2c2.208 2.388 4.216 1.194 6.424-2.587h.2c3.414 2.786 5.823 1.393 8.03-1.79h.202c3.212 3.382 7.026 1.99 11.04-1.393h.202c3.412 2.189 6.624 2.587 10.037-.2h.2c4.217 2.389 8.232 2.985 12.046.598h.2c3.614 2.586 7.027 2.984 10.44 1.393h.2c2.811 2.387 5.42 3.581 8.231 1.79h.201c2.409 3.184 4.617 4.577 7.026 2.587h.201c1.204 2.985 2.61 4.178 4.617 2.587l.201.199c-2.007 1.591-3.614.398-4.818-2.19l-.2-.397-.402.199c-2.209 1.393-4.417 0-6.424-2.388l-.402-.398-.401.2c-2.41 1.193-4.617.397-7.026-1.393l-1.004-.796-.602.199c-3.212 1.193-6.224.795-9.436-1.194l-.602-.398-.602.398c-3.614 1.79-7.227 1.194-10.84-.597l-.804-.398-.602.398c-3.011 2.188-6.023 1.99-9.034.199l-.602-.398-.602.597c-3.614 2.785-7.027 3.98-10.038 1.393l-.602-.398-.402.398c-2.007 2.586-4.215 3.979-7.427 1.79v-.199l-.402.597C9.72 29.846 7.711 31.04 5.704 29.25l-.201-.2-.2.399c-.804 1.393-1.406 2.587-2.21 2.984-.601.2-.802.2-1.204.2z" fill="#fff" fill-opacity=".545"/><path d="M34.612 105.852c-16.06-14.724-28.106-40.39-29.31-77.4h.2c1.205 37.01 13.25 62.478 29.11 77.201v.199z" fill="url(#paint27_linear_2611_7253)"/><path d="M50.07 105.056c16.06-14.524 28.304-39.595 29.91-75.808h-.2c-1.607 36.213-13.852 61.085-29.912 75.609l.2.199z" fill="url(#paint28_linear_2611_7253)"/><path d="M48.463 107.643l-.2-.199c10.439-21.09 14.855-49.742 15.658-82.772h.201c-.803 33.03-5.22 61.681-15.659 82.971z" fill="url(#paint29_linear_2611_7253)"/><path d="M50.07 104.858l-15.458-.199-.402 7.163c-.2 1.193.602 2.984 2.008 3.382 4.215 1.194 8.431.995 13.048 0 1.205-.199 2.209-1.99 2.008-3.183l-1.205-7.163z" fill="url(#paint30_linear_2611_7253)"/><path d="M43.445 116v-11.143h6.825l1.004 7.163c.2 1.194-.803 2.985-2.008 3.184-1.606.398-3.412.597-5.018.796h-.803z" fill="url(#paint31_linear_2611_7253)"/><path d="M42.44 116l-.2-.398-.2.398h-.804l.201-.398-.401-.597-.402.398.402.597h-.401l-.202-.199-.2.199h-.603l-.2-.199-.201.199h-.602v-.597.199l.2.199h-.602v-.199l-.2-.398-.201.398h-.402l-.401-.398-.201.199.2.199-.4-.199-.402-.597-.201.398-.402-.199-.2-.199-.201-.199v.199l-.2-.199v-.199l-.202-.199-.2.199-.201-.199.2-.199-.4-.597v-1.393l.2-.199-.2-.199v-.398l.2.398.2-.199-.4-.596v-.597l.2-.398v-.199l-.2.398v-.995l-.202-.199v-.398l.201.398.2-.398-.4-.597-.201.199v-.597l.401-.398-.2-.398v-.398l.4.597.202-.398v-.995l.2-.199.402.796.2-.398-.4-.398.2-.199.2.398.402-.597h.402l-.603.796.402.597.2-.398v-.398l.201-.199.201.398.2-.398-.2-.199.2-.199h.402l-.2.398v.199l.401-.398h.402l-.201.398.401.597.201-.398-.401-.597.2-.199.402.398.401-.597h.402l.2.199.201-.199h.402l-.402.597.402.597.2-.398-.4-.597.2-.199.2.398.201-.398h.402l.2.199.201-.199h.603l.2.398.201-.398h.602l.201.199.2-.199h.603l.2.398.202-.398h.401l.2.199.202-.199h.602l.2.398.201-.398h.402l.2.398.201-.398h.402l.401.597.201-.398-.2-.199h.802l-.2.199.2.199.201-.398v-.199h.402v.199l.401.597.402-.796v.398l-.402.597.2.199.402-.398v.398l-.2.398.2.398v.597l.201.796.2.199.202-.199v1.194l-.402-.597-.2.398.4.597.202-.199.2 1.194-.2-.398-.201.398.401.597.201-.199v.994l-.2-.199-.201.398.401.597v.199c-.2.597-.602 1.393-1.004 1.791l-.2.199.2-.398-.401-.597-.2.398.4.597-.2.199-.402-.398-.401.597-.602.199h-.603l-.401-.398-.402.597-.803.199.201-.398v-.597l-.2.398.4.597h-.4l-.201-.398-.201.398h-1.004l.2-.398-.4-.597-.402.597.401.597h-.401l-.2-.199-.202.398h-.803l.201-.398-.401-.597-.201.199.401.597h-.401zm-.601-.199l.2-.398-.2-.199-.201.398.2.199zm1.606 0l.2-.398-.2-.199-.201.398.2.199zm-3.413 0l.2-.398-.2-.398-.2.398.2.398zm5.22 0l.4-.597-.2-.199-.2.796zm-6.023 0l.2-.398-.4-.597-.202.398.402.597zm4.015-.398l.2-.398-.4-.597-.202.398.402.597zm-1.807 0l.2-.398-.4-.597-.201.398.401.597zm3.614 0l.401-.597-.401-.597-.402.597.402.597zm-7.428 0l.2-.398-.4-.597-.202.398.402.597zm10.439 0l.2-.398-.4-.597-.202.398.402.597zm-9.636-.199l-.2-.398v.199l.2.199zm3.814 0l.2-.398-.2-.199-.2.398.2.199zm-1.807 0l.201-.398-.2-.398-.201.398.2.398zm3.614 0l.2-.398-.2-.199-.2.398.2.199zm-4.417-.199l.201-.398-.401-.597-.201.398.401.597zm7.227 0l.402-.597-.402-.597-.401.597.401.597zm-10.238 0l.2-.199-.2-.398-.2.199.2.398zm-.803 0l.2-.398-.4-.597-.201.398.401.597zm2.81-.199l.201-.398-.2-.398-.201.398.2.398zm7.228 0l.2-.398-.2-.199v.597zm-7.83-.199l-.401-.796v.199l.401.597zm10.44 0l.4-.597-.4-.597-.402.597.401.597zm-4.819 0l.201-.398-.401-.597-.201.398.401.597zm-1.806 0l.2-.398-.401-.597-.2.398.4.597zm.803-.199l.2-.398-.2-.199-.201.398.2.199zm-1.807 0l.2-.398-.2-.398-.2.398.2.398zm3.613 0l.402-.597-.2-.199-.402.597.2.199zm-7.427 0l.2-.398-.2-.398-.201.398.2.398zm3.01 0l.202-.398-.402-.597-.2.398.4.597zm5.421 0l.2-.398-.2-.597-.2.398.2.597zm1.807-.199l.2-.398-.2-.398-.2.398.2.398zm-9.034 0l.2-.398-.4-.398-.201.398.401.398zm-2.007 0l.2-.199-.401-.597-.2.199.4.597zm13.851 0l.402-.398-.402-.597-.401.398.401.597zm-11.04 0l.2-.398-.2-.398-.202.398.201.398zm7.226 0l.402-.597-.201-.199-.2.796zm-11.041-.199l.2-.398v-.199l-.2.398v.199zm7.026 0l.2-.398-.2-.597-.401.398.401.597zm1.807 0l.401-.597-.401-.597-.402.597.402.597zm-6.625-.199l-.2-.597v.199l.2.398zm3.011 0l.201-.398-.401-.597-.201.398.401.597zm5.42 0l.402-.597-.401-.597-.402.597.402.597zm-4.617 0l.201-.398-.2-.398-.201.398.2.398zm1.807 0l.2-.398-.2-.199-.2.398.2.199zm6.023 0l.2-.398-.401-.597-.2.398.4.597zm-12.447 0l.2-.398-.4-.597-.201.398.401.597zm2.008-.199l.2-.398-.401-.597-.2.398.4.597zm9.033 0l.402-.597-.402-.597-.401.597.401.597zm-8.23 0l.2-.398-.2-.398-.201.398.2.398zm5.62 0l.201-.398-.2-.199-.201.398.2.199zm-10.238 0l.201-.398-.401-.597-.201.398.401.597zm15.86 0l.2-.398-.401-.597-.2.398.4.597zm-13.05-.199l.202-.398-.201-.398-.2.398.2.398zm9.035 0l.2-.398-.2-.199v.597zm-11.042 0l.201-.199-.2-.199-.201.199.2.199zm7.227 0l.201-.398-.401-.597-.201.398.401.597zm-1.003-.199l.2-.398-.2-.398-.201.398.2.398zm1.606 0l.401-.597-.2-.199-.402.597.2.199zm-2.61 0l.2-.398-.4-.597-.202.398.402.597zm3.814 0l.2-.398-.4-.597-.201.398.401.597zm-7.628 0l-.402-.796v.199l.402.597zm12.446 0l.402-.398-.402-.597-.401.398.401.597zm-10.439-.199l.2-.398-.4-.597-.201.398.401.597zm7.428 0l.2-.398-.4-.597-.202.398.402.597zm-6.625 0l.2-.398-.2-.398-.2.398.2.398zm5.621 0l.402-.597-.201-.199-.402.597.201.199zm-9.435 0l.2-.398-.2-.199-.2.398.2.199zm-.602-.199l.2-.199-.401-.597-.2.199.4.597zm2.61 0l.2-.398-.2-.398-.201.398.2.398zm9.234 0l.401-.597-.2-.199-.201.796zm-10.038 0l.201-.398-.401-.597-.201.398.401.597zm11.042 0l.2-.398-.2-.597-.201.398.2.597zm-5.02-.199l.402-.597-.401-.597-.402.597.402.597zm-8.832 0l.2-.398-.2-.199-.2.398.2.199zm6.825-.199l.201-.398-.2-.597-.201.398.2.597zm3.815 0l.401-.597-.401-.398-.402.597.402.398zm-2.81 0l.2-.398-.2-.398-.202.398.201.398zm7.628 0l.2-.398-.2-.597-.201.398.2.597zm-14.254 0l.201-.398-.401-.597-.201.398.401.597zm3.815 0l.2-.398-.2-.597-.201.398.2.597zm7.427 0l.402-.597-.402-.597-.401.597.401.597zm-6.424-.199l.201-.398-.2-.398-.201.398.2.398zm3.614 0l.2-.398v-.199l-.2.398v.199zm-7.629 0l-.2-.398v.199l.2.199zm2.008 0l.2-.398-.2-.398-.2.398.2.398zm7.428 0l.2-.398-.2-.199-.201.398.2.199zm-8.231 0l.2-.398-.4-.597-.202.199.402.796zm11.041 0l.402-.398-.402-.597-.401.199.401.796zm-13.852-.199l.201-.199-.2-.199-.201.199.2.199zm1.807-.199l.2-.398-.2-.199-.2.398.2.199zm6.023 0l.401-.597-.2-.397-.402.596.2.398zm-.803 0l.2-.398-.401-.596-.2.397.4.597zm2.007 0l.2-.398-.4-.596-.201.397.401.597zm-7.83 0l-.4-.795v.198l.4.597zm14.254 0l.2-.398-.2-.596-.2.397.2.597zm-10.238-.199l.2-.398-.4-.596-.202.398.402.596zm5.62 0l.202-.398-.402-.596-.2.398.4.596zm-4.817 0l.2-.398-.2-.397-.2.397.2.398zm3.613 0l.402-.596-.2-.199-.202.596v.199zm-9.435 0l.2-.398-.2-.198v.596zm4.015 0l.2-.398-.2-.397-.2.397.2.398zm7.227 0l.402-.596-.201-.199-.2.397v.398zm-8.23-.199l.2-.397-.401-.597-.201.398.401.596zm9.435 0l.2-.397-.401-.597-.2.398.4.596zm-11.242 0l.2-.397-.2-.597-.201.398.2.596zm13.048 0l.201-.397-.401-.597-.201.398.401.596zm-12.245-.199l.2-.397-.2-.199-.201.398.2.198zm11.242 0l.401-.397-.2-.199-.201.596zm-6.023 0l.402-.596-.402-.597-.401.597.401.596zm2.008 0l.401-.596-.401-.597-.402.597.402.596zm-9.436-.198l.201-.398-.401-.597-.201.398.401.597zm5.621 0l.201-.398-.401-.597-.201.398.401.597zm5.621 0l.402-.597-.402-.597-.401.597.401.597zm-4.818 0l.201-.398-.2-.398-.201.398.2.398zm2.008 0l.2-.398-.2-.398-.2.398.2.398zm-7.83-.199v-.398.398zm4.016 0l.2-.398-.2-.398-.201.398.2.398zm5.62 0l.201-.398-.2-.199-.201.398.2.199zm-6.624 0l.2-.398-.4-.597-.202.398.402.597zm9.435 0l.402-.398-.402-.597-.401.398.401.597zm-11.041 0l.2-.398-.4-.597-.202.398.402.597zm12.848 0l.2-.398-.4-.597-.202.398.402.597zm-12.246-.199l.2-.398-.2-.199-.2.398.2.199zm9.435 0l.201-.398-.2-.199-.201.398.2.199zm-11.04-.199l.2-.398-.2-.199-.202.398.201.199zm12.847 0l.2-.398-.2-.199v.597zm-13.45 0l-.402-.796v.199l.402.597zm5.62 0l.202-.398-.402-.597-.2.398.4.597zm3.815 0l.2-.398-.2-.597-.401.398.401.597zm-3.011-.199l.401-.597-.2-.199-.402.597.2.199zm2.007 0l.402-.597-.402-.199-.401.597.401.199zm-.803 0l.201-.398-.401-.597-.201.398.401.597zm-3.01 0l.2-.398-.2-.398-.202.398.201.398zm5.62 0l.402-.597-.201-.199-.402.597.201.199zm1.205 0l.2-.398-.401-.597-.2.398.4.597zm-7.629 0l.2-.398-.4-.597-.201.398.401.597zm-1.807-.199l.201-.398-.401-.597-.201.398.401.597zm11.242 0l.201-.398-.401-.597-.201.398.401.597zm-13.048 0l.2-.398-.401-.597-.2.398.4.597zm14.654 0l.201-.398-.401-.597-.201.398.401.597zm-12.045 0l.201-.398-.2-.199-.201.398.2.199zm9.235 0l.401-.398-.2-.199-.402.398.2.199zm-11.041-.199l.2-.398-.2-.199-.201.398.2.199zm12.848 0l.2-.398-.2-.199v.597zm-7.83-.199l.402-.597-.402-.597-.401.597.401.597zm3.815 0l.401-.597-.401-.597-.402.597.402.597zm-1.807 0l.401-.597-.401-.597-.402.597.402.597zm-3.814-.199l.2-.398-.401-.597-.2.398.4.597zm7.628 0l.402-.398-.402-.597-.401.398.401.597zm-6.825 0l.2-.398-.2-.398-.201.398.2.398zm4.015 0l.2-.398-.2-.398-.201.398.2.398zm-6.625 0l.2-.398-.4-.597-.202.398.402.597zm11.242 0l.2-.398-.4-.597-.202.398.402.597zm-6.625 0l.2-.398-.2-.398-.2.398.2.398zm-6.424 0l.2-.398-.4-.597-.201.398.401.597zm2.61-.199l.2-.398-.2-.199-.2.398.2.199zm7.628 0l.201-.398v-.199l-.2.398v.199zm-9.435 0l.2-.398-.2-.199-.2.398.2.199zm11.242 0l.2-.398-.2-.199-.2.398.2.199zm-13.049 0l.201-.398v-.199l-.2.597zm14.655 0l.2-.398-.2-.199v.597zm-8.833-.398l.402-.597-.201-.398-.402.597.201.398zm4.015 0l.402-.597-.201-.398-.602.597.401.398zm-1.004 0l.201-.398-.401-.597-.201.398.401.597zm-1.806 0l.2-.398-.401-.597-.2.398.4.597zm-2.008 0l.2-.398-.4-.597-.201.398.401.597zm5.822 0l.2-.398-.4-.597-.202.398.402.597zm-3.011 0l.401-.597-.2-.398-.402.597.2.398zm-6.424 0l.2-.398-.2-.597-.201.398.2.597zm13.048 0l.201-.398-.401-.597-.201.398.401.597zm-11.242 0l.201-.398-.401-.597-.201.398.401.597zm9.436 0l.2-.398-.401-.597-.2.398.4.597zm-8.633-.199l.201-.398-.2-.199-.201.398.2.199zm7.629 0l.401-.398-.2-.199-.402.398.2.199zm-9.435 0l.2-.398-.2-.199-.201.398.2.199zm11.242 0l.2-.398-.2-.199-.201.398.2.199zm-12.848 0l.2-.398v-.199l-.2.597zm14.654 0l.201-.398-.2-.199v.597zm-7.829-.398l.402-.597-.402-.597-.401.597.401.597zm1.807 0l.401-.597-.2-.597-.402.597.2.597zm-3.814 0l.401-.597-.401-.597-.402.597.402.597zm6.022 0l.402-.398-.402-.597-.401.398.401.597zm-11.242 0l.2-.398-.4-.597-.201.398.401.597zm1.606-.199l.2-.398-.4-.597v.398l.2.597zm13.049 0l.2-.398-.4-.597-.202.398.402.597zm-11.242 0l.2-.398-.4-.597-.202.398.402.597zm9.435 0l.2-.398-.4-.597v.398l.2.597zm-6.625 0l.201-.398-.2-.398-.201.398.2.398zm2.008 0l.2-.398-.2-.398-.2.398.2.398zm-4.015 0l.2-.398-.2-.199-.2.398.2.199zm6.022 0l.201-.398-.2-.398-.201.398.2.398zm-9.435-.199l.2-.398v-.199l-.2.597zm12.848 0l.2-.398-.2-.199-.2.398.2.199zm-11.242 0l.2-.398-.2-.199-.2.398.2.199zm9.636 0l.2-.398-.2-.199-.2.398.2.199zm-11.643-.199l.2-.398-.401-.597-.2.398.4.597zm14.654 0l.201-.398-.401-.597-.201.398.401.597zm-12.848-.199l.201-.398-.401-.597-.201.398.401.597zm11.242 0l.201-.398-.401-.597-.201.398.401.597zm-9.636 0l.201-.398-.401-.597-.201.398.401.597zm7.83 0l.2-.398-.401-.597-.2.398.4.597zm-3.815 0l.201-.398-.401-.597-.201.398.401.597zm-1.204 0l.401-.597-.2-.398-.402.597.2.398zm2.007 0l.402-.597-.2-.398-.402.597.2.398zm-4.015-.199l.402-.597-.2-.199-.402.597.2.199zm6.023 0l.401-.398-.2-.398-.402.398.2.398zm-4.818 0l.2-.398-.4-.597-.202.398.402.597zm3.814 0l.2-.398-.4-.597-.201.398.401.597zm-8.431 0l.2-.398v-.199l-.2.597zm12.848 0l.2-.398-.2-.199-.201.398.2.199zm-11.242 0l.2-.398-.2-.199-.201.398.2.199zm9.636 0l.2-.398-.2-.199-.201.398.2.199zm-11.644-.398l.2-.398-.4-.597-.201.398.401.597zm1.807 0l.2-.398-.4-.597-.202.398.402.597zm11.242 0l.2-.398-.4-.597-.202.398.402.597zm-9.636 0l.401-.597-.401-.597-.402.597.402.597zm7.83 0l.2-.398-.402-.597-.2.398.401.597zm-3.815 0l.401-.597-.401-.796-.402.597.402.796zm6.223-.199l.2-.398-.2-.199-.2.398.2.199zm-8.23 0l.4-.597-.4-.597-.402.597.401.597zm4.014 0l.402-.398-.402-.597-.401.398.401.597zm-8.632 0l.2-.398v-.199l-.2.597zm11.242 0l.2-.398-.2-.199-.2.398.2.199zm-9.435 0l.2-.398-.2-.199-.2.398.2.199zm7.628 0l.201-.398-.2-.398-.201.398.2.398zm-3.814 0l.2-.398-.2-.597-.2.398.2.597zm-2.007-.199l.2-.398-.2-.199-.201.398.2.199zm4.015 0l.2-.398-.2-.398-.201.398.2.398zm5.018-.199l.201-.398-.401-.597-.201.398.401.597zm-1.806-.199l.2-.398-.401-.597-.2.398.4.597zm-10.44 0l.201-.398v-.199l-.2.597zm11.243 0l.2-.398-.2-.199-.201.398.2.199zm-9.436-.199l.402-.597-.2-.199-.402.597.2.199zm7.629 0l.2-.398-.2-.398-.2.398.2.398zm-.803 0l.2-.398-.4-.597-.202.398.402.597zm-3.011 0l.401-.597-.2-.398-.402.597.2.398zm-.803 0l.2-.398-.401-.597-.2.398.4.597zm2.007 0l.2-.398-.4-.597-.201.398.401.597zm-3.212 0l.402-.597-.201-.199-.402.398.201.398zm4.015 0l.402-.398-.201-.398-.402.398.201.398z" fill="#fff" fill-opacity=".263"/><path d="M42.44 106.648c4.217 0 7.83-.796 7.83-1.79 0-.995-3.413-1.791-7.83-1.791-4.215 0-7.828.796-7.828 1.791 0 .994 3.412 1.79 7.829 1.79z" fill="url(#paint32_linear_2611_7253)"/><path d="M42.44 102.868c-2.207 0-4.014.199-5.42.597-1.405.398-2.408.795-2.408 1.392 0 .597 1.003.995 2.409 1.393 1.405.398 3.412.597 5.42.597 2.208 0 4.015-.199 5.42-.597 1.405-.398 2.41-.796 2.41-1.393s-1.005-.994-2.41-1.392c-1.405-.398-3.413-.597-5.42-.597zm0 .398c2.21 0 4.016.199 5.421.597.602.199 1.205.397 1.606.596.402.199.602.398.602.597 0 .199-.2.398-.602.597-.401.199-1.004.398-1.606.597-1.405.398-3.413.597-5.42.597-2.208 0-4.015-.199-5.42-.597-.603-.199-1.205-.398-1.606-.597-.402-.199-.603-.398-.603-.597 0-.199.201-.398.603-.597.401-.199 1.003-.397 1.606-.596 1.405-.398 3.212-.597 5.42-.597z" fill="url(#paint33_linear_2611_7253)"/><path d="M35.214 105.057h-.2c1.003-4.179.601-8.357-.202-12.535h.201c.803 3.979 1.205 8.157.2 12.535zm14.454.198h.2c-1.003-4.178-.602-8.555.201-12.933h-.2c-.803 4.179-1.205 8.556-.201 12.933zm-12.246.796h-.2c1.204-4.974.602-9.948-.201-14.923h.2c.803 4.975 1.205 9.949.201 14.923zm10.038 0h.2c-1.003-4.974-.602-9.75.201-14.723h-.2c-1.004 4.775-1.406 9.749-.201 14.723zm-2.81.398h.2c-1.004-5.173-.602-10.346.2-15.52h-.2c-.803 5.174-1.205 10.347-.2 15.52zm-4.217 0h-.2c1.003-5.173.602-10.346-.201-15.52h.2c.804 4.975 1.205 10.347.201 15.52z" fill="#B2B2B2"/><path d="M35.013 105.653c-1.606 2.587-1.807 3.98 0 4.378 1.405-.199 1.004-2.985 0-4.378z" fill="url(#paint34_linear_2611_7253)"/><path d="M35.013 105.852l-.803-.597.602-.398h.402l-.2.995z" fill="url(#paint35_linear_2611_7253)"/><path d="M36.218 106.051c-1.606 2.587-1.807 3.98 0 4.378 1.405-.398 1.003-2.985 0-4.378z" fill="url(#paint36_linear_2611_7253)"/><path d="M36.218 106.051l-.803-.398.602-.398h.401l-.2.796z" fill="url(#paint37_linear_2611_7253)"/><path d="M50.07 105.455c1.605 2.586 1.806 3.979 0 4.377-1.406-.398-1.205-3.184 0-4.377z" fill="url(#paint38_linear_2611_7253)"/><path d="M50.07 105.455l.802-.398-.602-.398h-.401l.2.796z" fill="url(#paint39_linear_2611_7253)"/><path d="M48.865 105.653c1.606 2.587 1.807 3.98 0 4.378-1.405-.199-1.004-2.985 0-4.378z" fill="url(#paint40_linear_2611_7253)"/><path d="M48.865 105.853l.803-.398-.602-.398h-.402l.2.796z" fill="url(#paint41_linear_2611_7253)"/><path d="M20.158 25.468v-.796c.2-7.163 2.007-13.132 5.42-17.708h.401c-5.018 0-9.636 6.765-13.048 15.918l-.603 1.99.201-1.791c.602-5.174 2.81-9.949 6.023-13.73l.602-.795-2.008.597c-4.015 1.194-7.628 6.367-10.64 13.33l-.602 1.791c1.606-6.765 5.02-13.33 12.447-18.703 2.61-1.393 4.015-2.189 6.022-2.387h.603c2.208-1.791 4.215-1.99 6.022-1.592l.402.199c1.606-.995 3.412-1.194 5.22-.597l.601-.398C38.627 0 40.233-.2 41.638 0l1.004.199-.603.199c-4.215 1.79-8.03 8.158-10.037 16.515L31.6 19.1v-.398c.402-4.178 1.004-8.158 2.209-11.739l.803-1.99-1.004.2c-5.22 1.989-10.84 9.35-13.45 19.697v.597z" fill="#F5C748" fill-opacity=".318"/><path d="M42.44 98.093c-2.007 0-3.613 0-4.817-.2-1.205-.198-2.208-.397-2.208-.596 0-.2 1.003-.398 2.208-.597 1.204-.199 3.011-.199 4.818-.199 2.007 0 3.613 0 4.818.199 1.204.199 2.208.398 2.208.597 0 .199-1.004.398-2.208.597-1.205.199-3.011.199-4.818.199zm0 0c1.808 0 3.614 0 4.819-.2.602 0 1.204-.198 1.405-.198.402 0 .402-.2.402-.2s-.201-.198-.402-.198c-.401 0-.803-.2-1.405-.2-1.205-.198-3.011-.198-4.818-.198-1.807 0-3.614 0-4.818.199-.602 0-1.205.199-1.405.199-.402 0-.402.199-.402.199s.2.199.402.199c.401 0 .803.199 1.405.199 1.204 0 2.81.199 4.818.199z" fill="#999"/><defs><linearGradient id="paint0_linear_2611_7253" x1="37.269" y1="43.046" x2="16.707" y2="45.008" gradientUnits="userSpaceOnUse"><stop stop-color="#8C1400"/><stop offset="1" stop-color="#FF5300"/></linearGradient><linearGradient id="paint1_linear_2611_7253" x1="10.935" y1="45.405" x2="16.666" y2="44.891" gradientUnits="userSpaceOnUse"><stop stop-color="#FF7F00"/><stop offset="1" stop-color="#FFA300"/></linearGradient><linearGradient id="paint2_linear_2611_7253" x1="30.854" y1="44.313" x2="11.454" y2="46.955" gradientUnits="userSpaceOnUse"><stop stop-color="#8C1400"/><stop offset="1" stop-color="#FF5300"/></linearGradient><linearGradient id="paint3_linear_2611_7253" x1="36.607" y1="45.996" x2="7.099" y2="46.98" gradientUnits="userSpaceOnUse"><stop stop-color="#8C1400"/><stop offset="1" stop-color="#FF5300"/></linearGradient><linearGradient id="paint4_linear_2611_7253" x1="53.494" y1="42.337" x2="32.961" y2="42.337" gradientUnits="userSpaceOnUse"><stop stop-color="#8C1400"/><stop offset="1" stop-color="#FF5300"/></linearGradient><linearGradient id="paint5_linear_2611_7253" x1="47.211" y1="42.158" x2="24.289" y2="43.626" gradientUnits="userSpaceOnUse"><stop stop-color="#8C1400"/><stop offset="1" stop-color="#FF5300"/></linearGradient><linearGradient id="paint6_linear_2611_7253" x1="59.059" y1="43.489" x2="40.568" y2="42.005" gradientUnits="userSpaceOnUse"><stop stop-color="#8C1400"/><stop offset="1" stop-color="#FF5300"/></linearGradient><linearGradient id="paint7_linear_2611_7253" x1="64.647" y1="45.618" x2="48.001" y2="42.634" gradientUnits="userSpaceOnUse"><stop stop-color="#8C1400"/><stop offset="1" stop-color="#FF5300"/></linearGradient><linearGradient id="paint8_linear_2611_7253" x1="74.343" y1="48.379" x2="51.231" y2="42.926" gradientUnits="userSpaceOnUse"><stop stop-color="#8C1400"/><stop offset="1" stop-color="#FF5300"/></linearGradient><linearGradient id="paint9_linear_2611_7253" x1="87.827" y1="51.8" x2="53.986" y2="43.849" gradientUnits="userSpaceOnUse"><stop stop-color="#8C1400"/><stop offset="1" stop-color="#FF5300"/></linearGradient><linearGradient id="paint10_linear_2611_7253" x1="99.225" y1="54.847" x2="55.829" y2="45.24" gradientUnits="userSpaceOnUse"><stop stop-color="#8C1400"/><stop offset="1" stop-color="#FF5300"/></linearGradient><linearGradient id="paint11_linear_2611_7253" x1="57.689" y1="89.518" x2="41.141" y2="88.403" gradientUnits="userSpaceOnUse"><stop stop-color="#960"/><stop offset="1" stop-color="#F5C748"/></linearGradient><linearGradient id="paint12_linear_2611_7253" x1="27.341" y1="90.921" x2="37.646" y2="88.802" gradientUnits="userSpaceOnUse"><stop stop-color="#960"/><stop offset="1" stop-color="#F5C748"/></linearGradient><linearGradient id="paint13_linear_2611_7253" x1="42.398" y1="95.763" x2="42.398" y2="89.346" gradientUnits="userSpaceOnUse"><stop stop-color="#F5C748"/><stop offset="1" stop-color="#960"/></linearGradient><linearGradient id="paint14_linear_2611_7253" x1="19.692" y1="42.558" x2="22.801" y2="42.651" gradientUnits="userSpaceOnUse"><stop stop-color="#FF7F00"/><stop offset="1" stop-color="#FFA300"/></linearGradient><linearGradient id="paint15_linear_2611_7253" x1="41.102" y1="40.566" x2="50.414" y2="40.675" gradientUnits="userSpaceOnUse"><stop stop-color="#FFA300"/><stop offset="1" stop-color="#8C1400"/></linearGradient><linearGradient id="paint16_linear_2611_7253" x1="48.023" y1="41.097" x2="59.998" y2="41.946" gradientUnits="userSpaceOnUse"><stop stop-color="#FFA300"/><stop offset="1" stop-color="#8C1400"/></linearGradient><linearGradient id="paint17_linear_2611_7253" x1="54.032" y1="40.826" x2="68.634" y2="42.213" gradientUnits="userSpaceOnUse"><stop stop-color="#FFA300"/><stop offset="1" stop-color="#8C1400"/></linearGradient><linearGradient id="paint18_linear_2611_7253" x1="61.592" y1="39.125" x2="76.154" y2="40.726" gradientUnits="userSpaceOnUse"><stop stop-color="#FFA300"/><stop offset="1" stop-color="#8C1400"/></linearGradient><linearGradient id="paint19_linear_2611_7253" x1="36.635" y1="40.364" x2="33.014" y2="40.198" gradientUnits="userSpaceOnUse"><stop stop-color="#FF5300"/><stop offset="1" stop-color="#FFA300"/></linearGradient><linearGradient id="paint20_linear_2611_7253" x1="26.464" y1="42.403" x2="24.109" y2="42.571" gradientUnits="userSpaceOnUse"><stop stop-color="#FF5300"/><stop offset="1" stop-color="#FFA300"/></linearGradient><linearGradient id="paint21_linear_2611_7253" x1="18.665" y1="42.033" x2="16.421" y2="42.175" gradientUnits="userSpaceOnUse"><stop stop-color="#FF5300"/><stop offset="1" stop-color="#FFA300"/></linearGradient><linearGradient id="paint22_linear_2611_7253" x1="11.518" y1="43.455" x2="9.273" y2="43.614" gradientUnits="userSpaceOnUse"><stop stop-color="#FF5300"/><stop offset="1" stop-color="#FFA300"/></linearGradient><linearGradient id="paint23_linear_2611_7253" x1="66.713" y1="63.378" x2="62.32" y2="72.575" gradientUnits="userSpaceOnUse"><stop stop-color="#FF7F00"/><stop offset="1" stop-color="#FFA300"/></linearGradient><linearGradient id="paint24_linear_2611_7253" x1="64.795" y1="57.406" x2="58.498" y2="70.199" gradientUnits="userSpaceOnUse"><stop stop-color="#FF7F00"/><stop offset="1" stop-color="#FFA300"/></linearGradient><linearGradient id="paint25_linear_2611_7253" x1="23.257" y1="89.833" x2="49.303" y2="89.578" gradientUnits="userSpaceOnUse"><stop stop-color="#fff"/><stop offset="1" stop-color="#F5C748"/></linearGradient><linearGradient id="paint26_linear_2611_7253" x1="30.026" y1="92.247" x2="46.334" y2="92.378" gradientUnits="userSpaceOnUse"><stop stop-color="#fff"/><stop offset="1" stop-color="#F5C748"/></linearGradient><linearGradient id="paint27_linear_2611_7253" x1="20.186" y1="22.753" x2="19.884" y2="71.111" gradientUnits="userSpaceOnUse"><stop stop-color="#fff"/><stop offset="1" stop-color="#CCC"/></linearGradient><linearGradient id="paint28_linear_2611_7253" x1="65.255" y1="23.707" x2="65.545" y2="71.021" gradientUnits="userSpaceOnUse"><stop stop-color="#fff"/><stop offset="1" stop-color="#CCC"/></linearGradient><linearGradient id="paint29_linear_2611_7253" x1="56.304" y1="18.608" x2="56.945" y2="70.336" gradientUnits="userSpaceOnUse"><stop stop-color="#fff"/><stop offset="1" stop-color="#CCC"/></linearGradient><linearGradient id="paint30_linear_2611_7253" x1="34.142" y1="110.186" x2="38.089" y2="110.273" gradientUnits="userSpaceOnUse"><stop stop-color="#F5C748"/><stop offset="1" stop-color="#960"/></linearGradient><linearGradient id="paint31_linear_2611_7253" x1="52.46" y1="109.229" x2="46.745" y2="110.034" gradientUnits="userSpaceOnUse"><stop stop-color="#F5C748"/><stop offset="1" stop-color="#960"/></linearGradient><linearGradient id="paint32_linear_2611_7253" x1="42.398" y1="101.455" x2="42.398" y2="107.872" gradientUnits="userSpaceOnUse"><stop stop-color="#F5C748"/><stop offset="1" stop-color="#960"/></linearGradient><linearGradient id="paint33_linear_2611_7253" x1="30.025" y1="104.965" x2="46.332" y2="104.837" gradientUnits="userSpaceOnUse"><stop stop-color="#fff"/><stop offset="1" stop-color="#F5C748"/></linearGradient><linearGradient id="paint34_linear_2611_7253" x1="33.26" y1="107.671" x2="35.656" y2="108.056" gradientUnits="userSpaceOnUse"><stop stop-color="#fff"/><stop offset="1" stop-color="#7F7F7F"/></linearGradient><linearGradient id="paint35_linear_2611_7253" x1="34.438" y1="105.275" x2="35.297" y2="105.461" gradientUnits="userSpaceOnUse"><stop stop-color="#fff"/><stop offset="1" stop-color="#999"/></linearGradient><linearGradient id="paint36_linear_2611_7253" x1="34.414" y1="107.962" x2="36.813" y2="108.347" gradientUnits="userSpaceOnUse"><stop stop-color="#fff"/><stop offset="1" stop-color="#7F7F7F"/></linearGradient><linearGradient id="paint37_linear_2611_7253" x1="35.592" y1="105.563" x2="36.457" y2="105.751" gradientUnits="userSpaceOnUse"><stop stop-color="#fff"/><stop offset="1" stop-color="#999"/></linearGradient><linearGradient id="paint38_linear_2611_7253" x1="47.949" y1="105.095" x2="51.068" y2="109.163" gradientUnits="userSpaceOnUse"><stop stop-color="#fff"/><stop offset="1" stop-color="#7F7F7F"/></linearGradient><linearGradient id="paint39_linear_2611_7253" x1="50.583" y1="104.939" x2="49.721" y2="105.128" gradientUnits="userSpaceOnUse"><stop stop-color="#fff"/><stop offset="1" stop-color="#999"/></linearGradient><linearGradient id="paint40_linear_2611_7253" x1="45.156" y1="106.083" x2="50.187" y2="108.577" gradientUnits="userSpaceOnUse"><stop stop-color="#fff"/><stop offset="1" stop-color="#7F7F7F"/></linearGradient><linearGradient id="paint41_linear_2611_7253" x1="49.431" y1="105.228" x2="48.568" y2="105.421" gradientUnits="userSpaceOnUse"><stop stop-color="#fff"/><stop offset="1" stop-color="#999"/></linearGradient></defs></svg>