<svg width="82" height="87" fill="none" xmlns="http://www.w3.org/2000/svg"><path d="M51.043 43.613c-.323-1.21-.783-2.42-1.52-3.444-.738-1.024-1.659-1.955-2.719-2.607-1.059-.652-2.257-1.024-3.362-1.21l-.83-.14c-.276 0-.506-.046-.783-.093l-1.52-.14c-.967-.046-1.889-.046-2.718.094a6.96 6.96 0 00-2.027.651c-.046 0-.046.047-.092.047-.138.046-.276.14-.415.186a8.432 8.432 0 00-2.257 1.815c-.83.885-1.566 2.141-2.027 3.538-.507 1.443-.783 3.072-.645 4.747l.046.605c0 .233.046.42.092.605.046.42.185.838.277 1.257.276.791.553 1.583 1.013 2.328.83 1.442 2.165 2.56 3.547 3.211 1.336.652 2.672.884 3.732 1.024s1.843.186 2.35.186h.644c.553 0 1.244 0 2.027-.093.783-.093 1.659-.233 2.58-.605a6.286 6.286 0 002.58-1.769c.783-.837 1.336-1.861 1.75-2.978.784-2.188.922-4.795.277-7.215zm-1.06 6.749c-.322 1.024-.783 1.955-1.382 2.746-.599.792-1.336 1.35-2.119 1.769-.783.419-1.612.652-2.35.791-.736.14-1.427.233-1.98.28-.415.046-.783.093-1.106.093a76.917 76.917 0 01-2.119-.42c-1.014-.232-2.211-.511-3.409-1.163-.599-.28-1.152-.698-1.705-1.164-.552-.465-.967-1.024-1.382-1.675a11.612 11.612 0 01-.92-2.048c-.14-.373-.185-.745-.277-1.117-.046-.373-.139-.745-.185-1.117-.138-1.536 0-3.026.369-4.376.369-1.35.967-2.56 1.612-3.444.093-.093.185-.233.23-.326.093-.093.185-.186.277-.326.184-.186.323-.419.507-.558l.46-.466c.139-.14.323-.279.461-.372l.046-.047c.277-.14.553-.279.875-.372a7.526 7.526 0 011.981-.372c.784-.047 1.613 0 2.534.093.921.093 1.981.233 2.948.419 1.014.232 1.981.605 2.903 1.21a9.168 9.168 0 012.303 2.327c.645.931 1.06 2.002 1.336 3.072.783 2.141.737 4.515.092 6.563z" fill="#251A85"/><path d="M78.13 85.83v-1.071c0-.372-.046-.745-.092-1.07-.092-.745-.092-1.443-.23-2.142-.138-.698-.277-1.443-.415-2.14-.138-.699-.368-1.35-.507-2.049-.092-.326-.184-.651-.276-1.024-.092-.326-.184-.698-.322-1.024-.507-1.303-1.198-2.467-1.935-3.537-.737-1.07-1.566-2.002-2.442-2.746-.414-.373-.875-.699-1.244-1.07-.414-.327-.783-.653-1.197-.932-.369-.28-.737-.512-1.106-.745-.092-.046-.184-.093-.23-.186l-.046-.046-.092-.047-.139-.046c-.184-.093-.322-.187-.46-.28-.6-.372-1.152-.558-1.52-.744-.139-.047-.23-.093-.323-.14 0-.047-.046-.047-.046-.093a3.175 3.175 0 00-.783-.791c-.553-.373-1.106-.559-1.567-.699-.598-.186-1.06-.279-1.382-.372.046-.558.092-1.164.139-1.722.46-5.865.46-12.055.138-18.246a169.664 169.664 0 00-.323-4.654 156.187 156.187 0 00-.46-4.608c-.415-3.026-1.014-6.005-1.843-8.844-.23-.698-.46-1.443-.691-2.095-.23-.651-.507-1.35-.737-2.001-.507-1.303-1.014-2.607-1.566-3.863a28.595 28.595 0 00-1.89-3.538 60.468 60.468 0 00-2.072-3.118c-2.764-3.91-5.39-7.168-7.97-8.89-.737-.326-1.382-.652-1.98-.838-.6-.187-1.199-.233-1.66-.187.185-.093.323-.186.37-.232 0-.047-.415.046-1.152.326-.691.279-1.75.744-2.949 1.489-.599.372-1.244.791-1.934 1.303-.369.233-.691.559-1.06.838a22.16 22.16 0 01-1.06.978c-1.382 1.35-2.948 2.932-4.468 4.794-.369.465-.737.977-1.106 1.49-.322.511-.737 1.023-1.06 1.628-.184.28-.322.559-.506.838-.138.28-.323.605-.46.884-.323.606-.6 1.21-.876 1.816a72.486 72.486 0 00-3.27 7.912c0 .047 0 .047-.047.094l-.092.325a61.594 61.594 0 00-2.211 8.472c-.138.79-.323 1.536-.415 2.327-.092.791-.23 1.582-.322 2.327a175.118 175.118 0 00-.369 4.701c-.368 6.33-.184 12.66.415 18.618.046.606.138 1.21.23 1.77-.23.046-.599.092-1.06.232-.46.093-1.013.28-1.566.698a2.095 2.095 0 00-.645.884c-.184.373-.23.745-.322 1.118-.046.186-.046.325-.092.512-.277.093-.876.325-1.613.884-.552.372-1.151.884-1.796 1.49a46.057 46.057 0 00-2.12 2.14c-1.52 1.63-2.948 3.817-4.053 6.377l-.415.978c-.092.325-.23.651-.322 1.024-.23.698-.369 1.396-.553 2.094a8.673 8.673 0 00-.184 1.07c-.047.373-.139.699-.185 1.071-.092.745-.184 1.443-.23 2.188a67.915 67.915 0 00-.138 4.329c0 1.442.138 2.839.322 4.235.323 2.7.875 5.26 1.659 7.354.414 1.071.875 2.002 1.428 2.793.553.791 1.244 1.35 1.935 1.676.69.279 1.336.279 1.704.186h.046c.092 0 .138.047.276 0 .139-.047.277-.14.415-.233.138-.139.23-.279.323-.465.368-.698.46-1.676.598-2.793.046-.512.185-1.07.277-1.722.092-.605.184-1.257.276-1.909.139-.651.23-1.35.369-2 .138-.7.23-1.397.414-2.049.323-1.35.784-2.653 1.382-3.77.139-.28.277-.559.461-.838.184-.28.323-.512.507-.791.184-.233.322-.512.507-.745.184-.233.322-.465.506-.652.645-.837 1.29-1.489 1.797-1.908.415-.326.783-.512 1.014-.652.276.652.644 1.21 1.059 1.676a4.258 4.258 0 001.98 1.21c.692.14 1.29.14 1.797 0 .323-.093.6-.14.83-.233 0 .047.046.094.046.14a21.71 21.71 0 001.935 3.258c0 .047.046.093.046.186.092.187.23.466.552.745.507.466 1.337.745 2.35.931 0 .14 0 .326.046.605.046.28.138.652.369 1.07.23.42.598.839 1.151 1.118.369.186.783.326 1.244.419-.368.186-.875.512-1.474.977-1.06.838-2.257 2.234-3.04 3.864a9.017 9.017 0 00-.277.651c-.092.233-.184.419-.23.652-.046.233-.092.465-.092.745 0 .139.046.279.092.465a.91.91 0 00.414.419c.092.046.185.093.277.093h.276c.138 0 .277-.047.415-.093.23-.047.46-.14.645-.233.368-.186.69-.372.967-.605.277-.186.553-.419.783-.558-.092.418-.23.93-.368 1.536-.092.418-.185.837-.277 1.349-.046.466-.138.978-.184 1.49-.092.512-.092 1.07-.138 1.629-.046.558-.046 1.117-.092 1.676-.046 1.117-.092 2.28.184 3.397.092.28.184.559.415.885.092.139.368.326.599.326.138 0 .23 0 .368-.047.092-.047.23-.093.276-.14a2.46 2.46 0 00.6-.605c.138-.186.276-.419.368-.605.276-.512.507-.977.69-1.35.139.792.462 1.769 1.107 2.607.23.233.414.465.69.698.277.186.6.419 1.06.419.23 0 .46-.047.645-.186.184-.093.276-.233.415-.373.046-.046.046-.093.092-.139 0 1.35.092 2.979.276 4.561.184 2.048.553 4.143 1.06 5.632.276.745.599 1.397.967 1.769.184.186.415.279.553.326.184 0 .23-.047.276-.093 0 0 .046 0 .046-.047.093-.093.23-.233.323-.419.23-.372.46-.931.69-1.629.508-1.35.968-3.211 1.429-5.073.322-1.443.645-2.84.875-4.096 0 .046.046.093.046.093.092.186.184.372.415.558.138.093.276.187.46.187.185 0 .323 0 .461-.047.277-.093.415-.233.6-.419.275-.279.506-.605.736-.931.415-.698.6-1.443.691-2.187.046-.699 0-1.35-.092-1.909-.092-.465-.184-.884-.276-1.163.23.325.553.744 1.06 1.07.322.186.736.372 1.243.326.23 0 .507-.093.737-.279.092-.093.23-.14.276-.28.093-.093.185-.186.23-.325.277-.419.323-.885.37-1.304 0-.419.045-.838.045-1.256-.046-1.723-.368-3.352-.645-4.562-.092-.465-.184-.838-.322-1.164.184.187.415.419.645.606.276.186.507.418.921.558.046.047.092.047.185.047.046 0 .138.046.184.046.184 0 .322-.046.46-.093.323-.14.461-.465.553-.698.139-.512.046-.884 0-1.303a43.514 43.514 0 00-.276-1.164c-.46-1.583-1.29-2.932-1.981-3.91a9.367 9.367 0 00-1.06-1.303c.369-.233.691-.559.83-.885.23-.418.276-.79.368-1.07.046-.28.092-.512.092-.698v-.14c.093 0 .139-.046.23-.046.231-.047.415-.14.6-.233-.047.046-.047.093-.047.14l.23-.233c.185-.093.37-.233.554-.326.322-.28.553-.512.645-.698.138-.186.184-.326.138-.373.599-.698 1.244-1.675 1.935-2.839.184-.326.368-.698.553-1.07.322.046.736.093 1.29.14.506.046 1.059.092 1.75.046.322 0 .69-.093 1.06-.233a2.5 2.5 0 001.013-.698l.645.326c.645.279 1.52.791 2.395 1.629.83.838 1.659 1.955 2.258 3.305.645 1.35 1.105 2.839 1.566 4.421.184.745.323 1.536.46 2.328.139.79.277 1.582.461 2.327.323 1.536.783 2.979 1.474 4.096.369.558.83 1.07 1.336 1.35a2.789 2.789 0 001.52.279c.093 0 .185.047.277 0 .092 0 .138-.047.23-.093a.893.893 0 00.415-.233c.184-.186.23-.279.184-.372h-.046c.23-.326.46-.698.645-1.21.599-1.304 1.106-3.165 1.567-5.353.46-2.188.829-4.701 1.151-7.4.138-1.35.276-2.747.276-4.19a16 16 0 01-.138-2.095zM59.934 33.372c.368 3.118.645 6.283.829 9.449.369 6.376.369 12.753-.092 18.71a36.51 36.51 0 01-.184 2.235c-.047.745-.139 1.443-.23 2.188-.093.698-.185 1.442-.277 2.14-.046.373-.092.699-.138 1.025-.047.325-.093.698-.185 1.024-.23 1.35-.46 2.7-.645 3.956a75.982 75.982 0 01-.737 3.724c-.46 2.374-1.013 4.561-1.612 6.423l-.276.838a5.043 5.043 0 01-1.106.233c-.921.14-2.211.232-3.732.279-1.474.046-3.086.14-4.837.233.507-1.304.737-2.886.83-4.469.092-1.815.138-3.724.046-5.632-.046-1.908-.23-3.817-.6-5.632-.368-1.769-.92-3.444-1.888-4.7A4.252 4.252 0 0043.442 64c-.6-.28-1.244-.373-1.705-.326-.23 0-.415.046-.599.046.138-.884.092-3.072-.092-4.096h.323c.322 0 .69-.046 1.013-.093a11.27 11.27 0 001.889-.419c2.35-.698 4.146-1.768 5.252-2.653.046-.046.138-.093.184-.186.23-.093.507-.233.737-.372 1.06-.605 2.211-1.909 2.902-3.677.691-1.769 1.06-3.864 1.014-6.144 0-.559-.047-1.164-.139-1.722-.092-.606-.23-1.164-.368-1.723-.277-1.163-.691-2.327-1.29-3.398-.599-1.07-1.382-2.094-2.35-2.885a13.316 13.316 0 00-3.086-1.862c-2.165-.885-4.33-1.303-6.22-1.35h-.92c.184-.698.322-3.165.368-5.678.046-2.049.046-4.096-.046-5.12h1.336c3.916 0 7.647.372 10.595.884 1.751.28 3.18.652 4.193.977.23.093.46.14.69.233.185.093.37.14.507.186.185.047.323.093.415.093.921 2.747 1.474 5.725 1.889 8.658zM45.192 76.195a588.667 588.667 0 00-.138-3.259c-.092-.977-.138-1.908-.323-2.746-.138-.838-.414-1.582-.783-2.187-.368-.559-.875-.931-1.29-1.024-.092-.047-.184-.047-.276-.094-.092 0-.138 0-.23-.046h-.185c0-.047-.184-.047-.506.046a4.34 4.34 0 00-.6.187c-.137.046-.23.14-.368.232a2.65 2.65 0 00-.322.373c-.369.558-.6 1.256-.783 2.094-.23.838-.323 1.77-.461 2.793-.046.512-.046 1.07-.092 1.63 0 .558-.046 1.116-.046 1.721-.046 1.164-.046 2.42-.092 3.677-.046 2.095-.093 4.33-.139 6.61v2.141c-.276-.233-.506-.559-.737-.93-.23-.373-.368-.746-.506-1.211-.046-.14-.093-.28-.093-.419a14.37 14.37 0 01-.276-2.095c-.046-.79-.046-1.582-.092-2.42-.046-.838-.046-1.676-.046-2.56v-1.303c0-.42 0-.885.046-1.303 0-1.77.138-3.538.23-5.167.185-1.583.645-3.072 1.244-4.236.323-.558.645-1.07 1.014-1.443a4.504 4.504 0 011.151-.837c.507-.233.968-.326 1.244-.326.415.046.875.046 1.336.28.507.232 1.014.65 1.428 1.21.875 1.116 1.382 2.745 1.705 4.514.322 1.769.506 3.724.552 5.679.046 1.955.046 3.91 0 5.771-.046 1.63-.276 3.165-.737 4.422-.046.14-.092.28-.138.373-.138.325-.276.605-.46.837a4.7 4.7 0 01-.6.745c0-.14 0-.28.047-.372 0-.093 0-.187.046-.28.046-.419.046-.79.092-1.21.184-2.094.276-4.189.276-6.19-.046-1.397-.092-2.56-.092-3.677zm-2.948 30.952c-.092.512-.23.885-.415 1.117h-.322c-.184-.046-.369-.093-.46-.279-.14-.186-.231-.419-.277-.745-.093-.279-.139-.651-.185-1.024-.046-.186-.046-.372-.092-.605 0-.186-.046-.419-.046-.605-.092-.838-.23-1.768-.276-2.792-.046-.512-.092-1.024-.138-1.583-.047-.559-.047-1.117-.093-1.676 0-.558-.046-1.163-.046-1.768V86.062c.047-4.747.047-9.448.047-13.079v-.745c0-.233.045-.465.045-.698.047-.465.047-.884.139-1.303a8.78 8.78 0 01.184-1.164c.046-.372.138-.698.23-.977.093-.28.23-.512.369-.652.138-.14.322-.28.507-.326.23-.14.46-.233.552-.279.047.046.185.093.415.233.276.14.645.419.967.884.323.465.553 1.117.645 1.862.139.791.139 1.675.185 2.7 0 .977 0 2.094.046 3.211 0 1.164-.046 2.374-.092 3.63-.047.606-.047 1.257-.093 1.91-.046.65-.046 1.302-.092 1.954-.092.884-.138 1.815-.23 2.7-.046.418-.046.79-.092 1.21v.093c-.046.465-.092.977-.138 1.443 0 .14 0 .28-.046.419-.093 1.07-.185 2.14-.277 3.165-.046.419-.046.791-.092 1.21-.046.559-.092 1.164-.138 1.722 0 .186 0 .326-.046.466-.046.419-.046.79-.092 1.21-.139 1.908-.23 3.677-.323 5.306.046 2.095 0 3.817-.23 4.98zm-2.165-48.593c-.645 0-1.29-.14-1.935-.233-.645-.14-1.336-.28-1.981-.512a15.658 15.658 0 01-3.778-1.815c-1.151-.791-2.165-1.815-2.902-2.979a10.658 10.658 0 01-1.474-3.863c-.23-1.35-.184-2.7.046-4.003.507-2.607 1.336-5.12 2.534-6.889.138-.233.322-.419.46-.652.139-.186.323-.418.507-.558.369-.372.737-.698 1.06-.978.737-.605 1.428-1.024 2.027-1.396.138-.047.23-.14.322-.186.138-.047.277-.047.46-.093.185-.047.416-.14.692-.14 1.06-.186 2.58-.326 4.376-.233 1.797.14 3.916.559 5.989 1.443 2.073.838 3.962 2.328 5.067 4.376.553.977.968 2.094 1.244 3.211.092.28.139.559.184.838.047.28.139.559.139.838.092.558.138 1.117.138 1.629.092 2.188-.23 4.236-.83 5.911a8.148 8.148 0 01-1.658 2.746c-.368.28-.921.792-1.796 1.257-.046.047-.093.047-.139.093l-.368.186a19.587 19.587 0 01-4.745 1.816c-.553.093-1.152.186-1.75.232-.6 0-1.244.047-1.89-.046zm-11.287-47.43c1.336-1.862 2.81-3.49 4.146-4.934.323-.372.645-.698.968-1.024.322-.326.599-.651.921-.93.322-.28.645-.56.921-.792.323-.233.6-.465.922-.698.967-.745 1.842-1.257 2.58-1.676.045 0 .138-.046.23-.093.092-.046.184-.093.322-.14.139-.046.277-.14.46-.14.692-.232 1.844-.046 3.041.7 1.198.697 2.442 1.907 3.732 3.35s2.58 3.212 3.962 5.213c.645.978 1.336 2.002 2.027 3.072-.6-.325-2.12-.93-4.193-1.303-2.533-.465-5.896-.651-9.213-.558-.83.046-1.658.046-2.488.093-.829.093-1.612.14-2.395.232-.369.047-.737.047-1.152.14a7.73 7.73 0 00-1.105.233c-.738.186-1.383.372-1.981.558-1.198.42-2.166.792-2.903 1.024a.66.66 0 01-.322.093c.507-.884.967-1.675 1.52-2.42zm-5.113 10.24c.23-.652.506-1.257.783-1.908.276-.605.506-1.257.783-1.816.553-1.21 1.106-2.373 1.658-3.49.046-.094.093-.14.139-.233.138 0 .276-.047.46-.047.737-.093 1.797-.326 2.995-.651.599-.14 1.29-.326 1.98-.466.185-.046.37-.046.507-.093.185-.046.369-.046.553-.093a8.874 8.874 0 011.152-.093c.783-.047 1.612-.093 2.441-.14.83-.046 1.659-.046 2.534-.093 3.363-.093 6.772 0 9.306.28 2.21.232 3.777.604 4.238.558a31.974 31.974 0 011.797 3.305 77.7 77.7 0 01.829 1.908c.276.652.506 1.303.783 1.955.23.698.507 1.35.737 2.048.138.326.276.698.368 1.024.093.372.23.698.323 1.024 0 .047 0 .047.046.093-.276-.233-.783-.605-1.566-.977-1.06-.466-2.488-.931-4.239-1.35-3.455-.838-8.153-1.257-12.76-1.117h-.875c-.277 0-.553.046-.876.046-.553.047-1.151.093-1.704.14a72.928 72.928 0 00-3.317.326 15.88 15.88 0 00-1.566.186c-.507.093-1.014.186-1.52.233-.507.093-.968.14-1.429.232-.46.093-.875.186-1.336.28-1.612.325-2.994.651-4.008 1.024.23-.559.507-1.35.784-2.095zM19.21 42.775c.138-1.49.23-3.026.369-4.515.184-1.49.368-2.979.645-4.422.23-1.443.599-2.886.921-4.329.415-1.396.737-2.792 1.198-4.142.092-.372.23-.698.322-1.07.968-.28 2.35-.513 4.008-.745.46-.047.875-.14 1.382-.186.46-.047.968-.094 1.428-.187 1.014-.093 2.027-.279 3.133-.325a71.748 71.748 0 013.409-.233 20.959 20.959 0 011.75-.093l.876-.047h1.52c-.138 1.024-.23 3.026-.277 5.074-.092 2.513-.046 5.026.093 5.678-1.383.047-2.58.186-3.502.512-.368 0-.92.093-1.612.373-.645.232-1.428.651-2.211 1.163-.415.28-.83.559-1.244.931-.23.186-.415.372-.645.559-.184.232-.415.419-.599.651-1.52 1.862-2.488 4.469-3.132 7.261-.185.699-.277 1.443-.323 2.234 0 .745 0 1.536.092 2.328.184 1.536.737 3.072 1.567 4.468.875 1.35 2.026 2.56 3.363 3.444a15.46 15.46 0 004.284 1.955c1.474.42 2.948.652 4.376.652h.323c-.139 1.024-.092 3.305.138 4.143a5.75 5.75 0 00-.46.14c-.83.232-1.89.93-2.627 2.14-.783 1.21-1.382 2.746-1.658 4.515-.092.466-.092.885-.138 1.303-.046.466-.046.885-.093 1.35-.092.885-.092 1.816-.092 2.746 0 .466 0 .931-.046 1.397 0 .465 0 .93.046 1.35.047.93 0 1.815.093 2.653.046.884.138 1.722.184 2.513.092.791.23 1.583.46 2.234h-1.658c-1.843 0-3.547-.046-5.067-.186a22.346 22.346 0 01-2.027-.233 37.712 37.712 0 01-1.613-.279c-.737-.186-1.428-.279-1.75-.279-.83-2.467-1.613-5.539-2.396-9.03-.276-1.163-.506-2.327-.783-3.584-.23-1.257-.46-2.513-.69-3.817-.047-.325-.14-.651-.185-.977l-.138-.978c-.093-.698-.185-1.35-.277-2.047l-.276-2.095c-.046-.698-.138-1.396-.184-2.141-.461-5.725-.6-11.776-.277-17.827zm-.967 42.961c-.645.28-1.428.885-2.211 1.723-.415.418-.784.884-1.198 1.396-.184.233-.415.512-.6.791-.183.28-.414.559-.552.885-.737 1.256-1.29 2.7-1.658 4.142-.185.745-.277 1.49-.415 2.188-.092.745-.23 1.443-.322 2.14-.093.7-.139 1.351-.23 2.002-.047.326-.047.652-.093.931 0 .14-.046.326-.046.466v.419c0 1.117-.046 2.001-.184 2.56-.092.279-.184.419-.277.465h-.368c-.415-.046-.968-.14-1.474-.558-1.06-.745-1.89-2.421-2.488-4.469-.599-2.048-1.013-4.468-1.29-7.028a37.973 37.973 0 01-.23-3.957c0-1.35.046-2.746.138-4.096.092-1.396.276-2.7.507-4.049.276-1.303.599-2.607 1.105-3.77.968-2.374 2.165-4.515 3.501-6.144.323-.42.691-.791 1.014-1.164a22 22 0 01.967-1.07c.6-.652 1.152-1.257 1.613-1.723.23-.232.46-.419.645-.605.23-.186.414-.326.552-.465.139-.093.277-.186.369-.28-.138 1.397 0 2.933.322 4.516.415 1.861.922 3.77 1.383 5.725.23.977.506 1.955.829 2.885l.829 2.793c.276.884.507 1.769.83 2.607.045.14.137.279.183.419-.322.093-.69.14-1.151.325zm5.62 2.42c-.46 0-1.014-.046-1.566-.232-.553-.233-1.06-.652-1.474-1.21-.415-.559-.738-1.303-1.014-2.048-.276-.791-.46-1.676-.737-2.514-.276-.884-.507-1.768-.783-2.7a63.32 63.32 0 01-.783-2.792c-.461-1.862-.968-3.724-1.428-5.492-.415-1.769-.6-3.398-.461-4.841 0-.372.092-.698.138-1.024.046-.28.184-.559.369-.745.322-.419.829-.651 1.243-.838.553-.186.968-.372 1.244-.465.645 5.166 1.613 9.96 2.672 14.103.599 2.328 1.198 4.469 1.843 6.33.322.931.645 1.816.967 2.607.184.419.323.791.46 1.164.093.232.231.465.323.651-.23-.046-.599 0-1.013.047zM28.1 92.3c-.368-.14-.599-.326-.737-.512a11.882 11.882 0 00-.553-.977 42.48 42.48 0 01-1.52-3.351c-.276-.652-.507-1.35-.783-2.095.276.14.737.326 1.29.512.829.326 2.073.652 3.593.931 1.52.233 3.317.419 5.252.465.783.047 1.612.047 2.441.047.138.233.277.419.415.605.322.372.69.652 1.013.884V92.3h-.829c-.875 0-1.658.093-2.441.186-1.567.14-2.995.28-4.239.233-1.197 0-2.257-.14-2.902-.419zm4.1 3.305c-.921-.233-1.336-.884-1.612-1.443a7.196 7.196 0 00-.277-.605c.139 0 .23.047.369.047 1.336.14 2.856.093 4.469 0 .783-.047 1.658-.093 2.441-.14h.921c0 .698 0 1.396.046 2.095v.186c-.322 0-.645 0-.967.046h-3.915c-.506 0-1.013-.046-1.474-.186zm18.335 1.908c.553 1.071 1.29 2.467 1.75 3.91.139.373.23.745.277 1.117.092.326.092.699.046.931-.046.093-.046.093-.092.14h-.138l-.093-.047c-.276-.093-.552-.279-.783-.419-.506-.325-.921-.651-1.243-.837-.323-.187-.553-.28-.645-.233 0 .093.138.279.368.558v.28c0 .372.046.838.092 1.396.139 1.257.415 2.932.415 4.608 0 .419 0 .838-.046 1.21-.046.373-.092.745-.23 1.024a.81.81 0 01-.6.419c-.276.047-.552-.093-.782-.233a4.188 4.188 0 01-1.152-.93c-.277-.28-.415-.466-.507-.419 0 .046 0 .186.046.325l-.046-.046c-.138.14-.138.931-.092 1.955 0 .512 0 1.117-.092 1.722s-.277 1.21-.6 1.722a3.116 3.116 0 01-.552.745 1.24 1.24 0 01-.276.233c-.092.046-.046 0-.046.046 0 0-.093-.093-.139-.186-.046-.093-.138-.233-.138-.326-.092-.233-.138-.512-.23-.745-.046-.232-.092-.465-.138-.651.138-.978.184-1.629.046-1.676-.092.047-.184.279-.323.605 0-.046-.046-.093-.092-.093-.092 0-.184.373-.23.978-.46 1.443-1.014 3.723-1.52 6.004-.784 3.351-1.475 6.703-1.705 7.261-.138-.093-.276-.233-.46-.512-.23-.419-.415-1.024-.6-1.722-.322-1.49-.598-3.444-.783-5.399-.414-3.91-.645-7.867-.921-8.146-.138 0-.23.698-.23 1.815-.139.28-.23.652-.461 1.071a1.662 1.662 0 01-.322.465c-.139.14-.23.14-.323.14-.138 0-.322-.14-.46-.279-.185-.14-.323-.326-.507-.512-.645-.791-1.014-1.769-1.198-2.56-.046-.233-.138-.466-.138-.652.046-.093.046-.139 0-.186h-.046c-.093-.326-.139-.559-.23-.652-.139 0-.277.419-.277 1.164-.046.047-.092.14-.138.186-.323.419-.691 1.071-1.198 1.722-.138.187-.23.326-.369.466-.046.093-.138.139-.23.186-.046.047-.092.047-.092.093-.046 0-.046.047-.046.047h-.046v-.047s-.046-.046-.046-.093c-.092-.14-.139-.326-.184-.559-.185-.93-.139-2.001-.093-3.072 0-.558.046-1.07.046-1.629 0-.512 0-1.024.093-1.536.046-.512.092-.977.138-1.443.046-.465.092-.884.138-1.303.092-.931.184-1.722.184-2.234.323-.279.46-.465.46-.512-.091 0-.23 0-.46.093l-.276.14c-.415.186-.922.465-1.474.791-.277.14-.6.326-.922.419-.138.046-.322.093-.46.14h-.23v-.233c0-.14.046-.326.092-.512.047-.186.093-.373.185-.512.092-.186.138-.373.23-.559.691-1.443 1.705-2.746 2.58-3.677.69-.745 1.244-1.21 1.474-1.49.046 0 .092 0 .184.047.645.093 1.29.093 1.935.14.691.046 1.382.046 2.073.093h1.29v.512c.046.605.092 1.257.138 1.815.046 1.21.23 2.328.369 3.352a35.05 35.05 0 00.507 2.839c.184.838.322 1.582.598 2.187.139.326.369.606.691.745a.84.84 0 00.323.093c.046.047.138.047.276.093a.793.793 0 00.553-.232c.369-.326.599-.838.783-1.49.184-.651.323-1.396.415-2.234.046-.419.092-.884.092-1.35.046-.465.046-.977.092-1.443.138-1.536.322-3.211.507-5.027.69 0 1.336-.046 1.98-.093.692-.046 1.337-.14 1.936-.232.598-.094 1.197-.187 1.75-.373.046 0 .092-.046.138-.046-.138.325.139.79.461 1.35zm.599-4.189c0-.046 0-.046 0 0-.184.233-.415.838-.83 1.443-.23.28-.506.512-.92.605-.415.14-.968.14-1.567.187-.599.046-1.198.093-1.843.093s-1.29.046-1.934.046c.046-.698.138-1.443.184-2.188 1.98 0 3.87-.046 5.482-.14a7.08 7.08 0 001.428-.139v.093zm3.64-4.328a30.389 30.389 0 01-1.797 2.885 1.695 1.695 0 01-.507.233c-.691.326-1.705.373-2.995.326a977.75 977.75 0 00-5.113-.14c.092-1.21.23-2.467.322-3.723.23-.14.415-.326.645-.512.277-.28.553-.652.83-1.07.184 0 .368-.047.552-.047 1.935-.187 3.686-.326 5.252-.466 1.566-.14 2.902-.372 3.778-.698.184-.093.368-.14.552-.233a31.323 31.323 0 01-1.52 3.445zm5.85-2.514c-.415.466-1.106.605-1.705.652-.322.046-.599.046-.875.046h-.783c-.369 0-.691 0-.968.047a34.613 34.613 0 001.475-3.63c.645-1.909 1.197-4.097 1.704-6.47.23-1.164.507-2.374.737-3.678.23-1.256.46-2.56.691-3.91.184-1.35.369-2.746.553-4.142.046-.372.092-.698.138-1.07.046-.373.046-.699.092-1.071v-.28c.23.094.553.28.968.466.414.186.921.372 1.382.698.506.326.921.745 1.013 1.443.138.652.138 1.443.046 2.281-.092.838-.23 1.676-.414 2.606-.415 1.816-.784 3.77-1.152 5.726a94.077 94.077 0 01-1.244 5.678c-.092.466-.23.884-.368 1.303l-.415 1.257c-.23.838-.415 1.583-.875 2.048zm16.077 5.772c-.276 2.746-.599 5.306-.967 7.54-.369 2.188-.737 4.05-1.198 5.26-.184.512-.369.931-.553 1.21-.184 0-.46 0-.737-.047a1.967 1.967 0 01-1.06-.465c-.322-.279-.644-.745-.875-1.257-.506-1.024-.829-2.374-1.06-3.816-.137-.699-.23-1.49-.368-2.235-.138-.79-.23-1.536-.46-2.373-.415-1.536-.922-3.072-1.613-4.422-.69-1.397-1.566-2.56-2.58-3.445a7.721 7.721 0 00-2.81-1.536 6.92 6.92 0 01-.506-.14c-.139 0-.23-.046-.323-.046.415-.605.599-1.35.875-2.001.139-.373.277-.792.415-1.21.138-.42.276-.838.415-1.304.506-1.768.921-3.677 1.29-5.539.368-1.862.737-3.77 1.06-5.539.322-1.768.598-3.49.322-5.073-.046-.186-.093-.372-.139-.605.277.186.6.419 1.014.698.276.186.553.419.875.652.323.232.645.512.968.791.737.558 1.474 1.257 2.257 2.001.829.745 1.612 1.63 2.303 2.653.737 1.025 1.336 2.188 1.843 3.398.138.326.23.605.322.931l.277.978c.184.698.322 1.396.507 2.094.138.698.276 1.397.368 2.095.092.372.092.698.138 1.07l.092 1.07c.047.373.093.7.093 1.071v1.071c0 .745.046 1.443.046 2.188 0 1.49-.139 2.932-.23 4.282z" fill="#251A85"/><path d="M50.997 9.868c-1.336-2.002-2.672-3.77-3.962-5.214-1.29-1.442-2.534-2.653-3.732-3.35-1.197-.747-2.303-.886-3.04-.7a5.607 5.607 0 00-.46.14.969.969 0 01-.277.186c-.092.046-.184.093-.23.093-.738.419-1.613.93-2.58 1.676-.277.232-.6.465-.922.698a7.542 7.542 0 00-.921.791c-.322.28-.599.605-.921.93-.323.327-.645.7-.968 1.025-1.336 1.443-2.81 3.025-4.146 4.934-.553.745-1.013 1.536-1.474 2.327.092-.046.184-.046.322-.093.738-.233 1.705-.605 2.903-1.024.599-.186 1.244-.419 1.98-.559.37-.093.738-.14 1.106-.232.369-.093.737-.093 1.152-.14.783-.046 1.566-.14 2.395-.233.83-.046 1.659-.046 2.488-.093 3.317-.093 6.634.093 9.214.559 2.073.372 3.547.93 4.192 1.303-.783-1.024-1.428-2.048-2.12-3.025zm-13.82-.931a.747.747 0 01-.876.419c-.46-.187-.46-.652-.23-.978.276-.372.69-.558 1.013-.326.277.233.277.605.092.885zm4.007-5.586c-.092.14-.184.233-.322.42-.277.325-.553.744-.876 1.163a9.257 9.257 0 01-1.013 1.21c-.322.326-.645.512-.83.465-.184-.14-.137-.465 0-.93.139-.42.462-.978.83-1.49.415-.512.921-.977 1.382-1.164.46-.232.83-.232.921-.046 0 .14-.046.233-.092.372z" fill="#02D8C8"/><path d="M58.045 24.483c-.092-.326-.23-.698-.323-1.024a9.108 9.108 0 01-.368-1.024c-.276-.698-.507-1.396-.737-2.048-.23-.698-.507-1.35-.783-1.955-.277-.652-.553-1.257-.83-1.908a31.974 31.974 0 00-1.796-3.305c-.46.046-2.027-.326-4.238-.559-2.534-.279-5.897-.372-9.306-.279-.83.047-1.705 0-2.534.093-.829.047-1.658.093-2.441.14-.415 0-.783.046-1.152.093-.184.046-.368.046-.553.093-.184.047-.368.047-.507.093-.69.14-1.335.28-1.98.466-1.244.325-2.258.558-2.995.651-.184 0-.322.047-.46.047-.047.093-.093.14-.139.232a124.604 124.604 0 00-1.658 3.491 30.88 30.88 0 00-.783 1.816 23.531 23.531 0 00-.783 1.908c-.277.745-.553 1.49-.83 2.28 1.014-.372 2.396-.744 4.008-1.023.415-.093.876-.186 1.336-.28.46-.093.968-.14 1.428-.232.507-.093 1.014-.14 1.52-.233.507-.093 1.06-.093 1.567-.186 1.06-.093 2.165-.233 3.317-.326.553-.047 1.151-.093 1.704-.14.276 0 .553-.046.875-.046h.876c4.606-.186 9.26.28 12.76 1.117 1.75.372 3.225.884 4.239 1.35.783.372 1.29.744 1.566.977v-.28zm-7.601-4.515c-.23 0-.46-.233-.645-.558a7.505 7.505 0 01-.507-1.35c-.138-.512-.184-1.07-.138-1.536.046-.42.23-.699.414-.699.23.047.369.28.507.652.138.326.277.791.415 1.257a5.53 5.53 0 01.23 1.443c0 .372-.092.698-.276.791z" fill="#251A85"/><path d="M53.3 46.313c0-.559-.092-1.118-.138-1.63l-.138-.837c-.047-.28-.139-.559-.185-.838a13.625 13.625 0 00-1.243-3.212c-1.106-2.048-2.995-3.49-5.068-4.375a18.958 18.958 0 00-5.989-1.443 17.366 17.366 0 00-4.376.233 9.003 9.003 0 00-.691.14c-.184.046-.323.092-.46.092-.093.047-.231.093-.323.187-.6.325-1.29.79-2.027 1.396a6.96 6.96 0 00-1.06.977c-.184.187-.322.373-.506.559-.139.186-.323.419-.461.652-1.198 1.815-2.027 4.328-2.534 6.935-.23 1.303-.23 2.653-.046 4.003.23 1.35.691 2.7 1.474 3.863.737 1.164 1.75 2.234 2.902 2.979 1.152.791 2.488 1.396 3.778 1.815.645.233 1.336.373 1.98.512.646.093 1.29.186 1.936.233.645.046 1.243 0 1.889 0 .598-.047 1.151-.14 1.75-.233 1.935-.419 3.547-1.163 4.745-1.815.046-.047.184-.093.368-.186.047-.047.093-.047.139-.093.875-.512 1.428-.978 1.796-1.257.645-.652 1.244-1.583 1.659-2.746.599-1.63.921-3.724.829-5.911zm-2.534 4.561c-.414 1.117-.967 2.141-1.75 2.979a6.286 6.286 0 01-2.58 1.769c-.921.372-1.797.512-2.58.605-.783.093-1.474.093-2.027.093h-.645c-.506 0-1.336 0-2.35-.186a13.74 13.74 0 01-3.73-1.024c-1.337-.605-2.719-1.723-3.548-3.212-.46-.698-.737-1.49-1.013-2.327-.092-.42-.23-.838-.277-1.257a2.75 2.75 0 01-.092-.605l-.046-.605c-.138-1.676.138-3.305.645-4.748s1.244-2.653 2.027-3.537c.783-.885 1.658-1.443 2.257-1.816a1.63 1.63 0 01.415-.186c.046 0 .046-.046.092-.046.507-.28 1.198-.512 2.027-.652.83-.14 1.75-.14 2.718-.093.507.046.967.093 1.52.14.277.046.507.046.783.093l.83.14c1.105.185 2.303.511 3.362 1.21a9.093 9.093 0 012.718 2.606c.738 1.024 1.198 2.234 1.52 3.444.646 2.374.507 4.98-.276 7.215z" fill="#fff"/><path d="M50.121 43.752c-.322-1.07-.737-2.187-1.336-3.072a9.169 9.169 0 00-2.303-2.327c-.921-.605-1.935-.93-2.902-1.21a37.343 37.343 0 00-2.949-.42c-.92-.092-1.796-.185-2.533-.092a7.526 7.526 0 00-1.981.372c-.369.14-.645.28-.875.373l-.046.046c-.139.093-.277.233-.461.373-.138.14-.323.279-.46.465-.185.14-.323.372-.508.559a2.016 2.016 0 00-.276.325c-.092.093-.138.233-.23.326a11.317 11.317 0 00-1.613 3.444 12.53 12.53 0 00-.368 4.376c0 .372.092.745.184 1.117s.138.745.276 1.117c.23.698.553 1.396.922 2.048.414.605.829 1.21 1.382 1.676.553.465 1.105.837 1.704 1.163 1.198.605 2.396.931 3.41 1.164.875.186 1.612.326 2.118.419.323-.047.691-.047 1.106-.093.553-.047 1.244-.14 1.98-.28.738-.14 1.567-.372 2.35-.79.783-.42 1.52-.978 2.12-1.77.598-.744 1.059-1.722 1.381-2.746.415-2.001.461-4.375-.092-6.563zm-11.378.698c-.461 1.071-1.06 2.095-1.382 2.048-.323-.186 0-1.303.506-2.42.507-1.117 1.336-2.094 1.567-1.955.23.233-.23 1.257-.691 2.328zm5.758-1.256c-.322.605-.875 1.303-1.382 2.001-.23.373-.553.698-.737 1.024-.138.186-.23.326-.369.466l-.276.419c-.184.279-.322.512-.46.698-.139.186-.231.279-.323.326-.092-.047-.092-.187-.092-.373 0-.233.046-.512.184-.838.23-.698.737-1.49 1.336-2.234a18.037 18.037 0 011.658-1.908c.461-.512.784-.791.922-.745.046.14-.092.605-.46 1.164z" fill="#02D8C8"/><path d="M40.77 59.625h-.323c-1.428 0-2.902-.233-4.376-.652a15.464 15.464 0 01-4.284-1.955c-1.383-.884-2.488-2.094-3.363-3.444-.83-1.397-1.383-2.933-1.567-4.469-.138-.79-.138-1.536-.092-2.327.046-.745.138-1.49.323-2.234.645-2.793 1.658-5.4 3.132-7.261.184-.233.415-.466.599-.652.23-.186.415-.372.645-.558.415-.326.83-.652 1.244-.931.783-.512 1.566-.931 2.211-1.164.691-.28 1.244-.372 1.612-.372.876-.28 2.073-.466 3.502-.512-.185-.652-.185-3.212-.093-5.679.047-2.048.185-4.05.277-5.073h-1.52l-.876.046c-.599.047-1.151.093-1.75.093-1.152.047-2.304.187-3.41.233-1.105.047-2.118.233-3.132.326-.507.047-.967.093-1.428.186-.46.093-.921.14-1.382.186-1.704.233-3.04.466-4.008.745-.138.372-.23.698-.322 1.07-.461 1.35-.783 2.747-1.198 4.143-.322 1.443-.691 2.84-.921 4.329-.277 1.443-.461 2.932-.645 4.422-.139 1.49-.23 3.025-.369 4.515-.322 6.05-.184 12.101.323 17.826.046.699.138 1.443.184 2.142l.276 2.094c.092.698.184 1.35.277 2.048l.138.978c.046.325.138.651.184.977.23 1.303.46 2.56.691 3.817.277 1.21.553 2.42.783 3.584.783 3.49 1.567 6.516 2.396 9.03.322 0 1.013.093 1.75.279.461.046 1.014.14 1.613.28.599.046 1.29.139 2.027.232 1.474.14 3.224.186 5.067.186h1.658c-.23-.698-.368-1.443-.46-2.234-.046-.791-.138-1.63-.184-2.514-.093-.884-.093-1.768-.093-2.653 0-.465 0-.93-.046-1.35 0-.465 0-.93.046-1.396 0-.93.046-1.862.093-2.746.046-.465.046-.884.092-1.35.046-.465.046-.884.138-1.303.276-1.769.875-3.305 1.658-4.515.737-1.164 1.797-1.908 2.626-2.141.138-.047.277-.093.46-.14-.276-.791-.322-3.072-.183-4.142zm-2.718-35.7c0 .697-1.244.558-1.244 0 0-.606 1.151-.56 1.244 0zm-3.594-.187c.185 0 .369.047.507.186.138.093.184.28.092.373-.23.279-.368.372-.645.325-.23 0-.599-.14-.645-.418 0-.233.323-.466.691-.466zm-2.533.698c0 .698-1.106.559-1.106 0 0-.605 1.014-.558 1.106 0zm-4.054-.093c.276-.046.599.093.645.326.046.372-.23.512-.553.559-.323 0-.645-.14-.645-.42.046-.279.322-.418.553-.465zm-4.008.931c.046-.605 1.382-.558 1.474 0-.046.698-1.474.559-1.474 0zm2.58 32.861c-.185.14-.507.093-.83-.14a3.217 3.217 0 01-.92-1.116c-.231-.466-.323-1.024-.231-1.443.092-.42.276-.652.46-.605.23.046.323.279.507.558.138.28.277.652.46.977.323.699.784 1.443.554 1.77z" fill="#F7C003"/><path d="M19.118 85.085c-.322-.838-.553-1.722-.83-2.607l-.828-2.793c-.277-.93-.6-1.908-.83-2.885-.46-1.955-1.013-3.91-1.382-5.725-.322-1.583-.46-3.12-.322-4.515a2.55 2.55 0 01-.369.279c-.138.14-.322.28-.553.465-.184.186-.414.373-.644.605a31.651 31.651 0 00-1.613 1.723c-.322.325-.599.698-.967 1.07-.323.373-.645.745-1.014 1.164-1.336 1.629-2.533 3.77-3.5 6.144-.461 1.163-.784 2.467-1.106 3.77a37.36 37.36 0 00-.507 4.05c-.092 1.35-.092 2.746-.138 4.095 0 1.35.092 2.7.23 3.957.276 2.606.691 5.027 1.29 7.028.599 2.002 1.428 3.677 2.488 4.468.506.373 1.06.512 1.474.559h.368c.138-.093.23-.233.277-.465.184-.559.23-1.49.184-2.56v-.512c0-.14 0-.326.046-.466.046-.279.046-.605.092-.931.046-.651.138-1.303.23-2.001.093-.698.23-1.397.323-2.141.138-.699.23-1.443.415-2.188.368-1.49.92-2.886 1.658-4.142.184-.326.369-.606.553-.885.184-.28.414-.558.599-.791.414-.512.783-.978 1.197-1.397.784-.837 1.567-1.442 2.212-1.722.414-.186.829-.279 1.013-.279.092-.093 0-.233-.046-.372zm-9.075.838c-.968-.047-.783-2.607 0-2.607.875.093.783 2.513 0 2.606zm1.474-8.286c-.415 1.63-.83 3.305-1.244 3.398-.46-.093-.415-1.955 0-3.677.46-1.769 1.244-3.398 1.612-3.258.369.233.046 1.908-.368 3.537z" fill="#02D8C8"/><path d="M24.922 88.017c-.276.047-.598.093-1.013.14a4.92 4.92 0 01-1.566-.233c-.553-.233-1.06-.652-1.474-1.21-.415-.559-.738-1.303-1.014-2.048-.276-.791-.46-1.676-.737-2.514-.276-.884-.507-1.768-.783-2.7a63.181 63.181 0 01-.783-2.792c-.461-1.862-.968-3.724-1.428-5.492-.415-1.77-.6-3.398-.461-4.841 0-.373.092-.698.138-1.024.046-.28.184-.559.369-.745.322-.419.829-.652 1.243-.838.553-.186.968-.372 1.244-.465.645 5.166 1.613 9.96 2.672 14.103.6 2.327 1.198 4.468 1.843 6.33.322.931.645 1.816.967 2.607.185.419.323.791.461 1.163.092.14.184.373.322.56zm13.636.791V92.3h-.829c-.875 0-1.658.093-2.441.186-1.567.14-2.995.28-4.238.233-1.244 0-2.258-.186-2.903-.465-.368-.14-.599-.326-.737-.512a12.13 12.13 0 00-.553-.978 42.48 42.48 0 01-1.52-3.351c-.276-.652-.507-1.35-.783-2.095.276.14.737.326 1.29.512.83.326 2.073.652 3.593.931 1.52.233 3.317.42 5.252.466.783.046 1.612.046 2.441.046.139.233.277.42.415.605.322.466.691.745 1.013.931zm8.154-7.353c-.046 1.629-.276 3.165-.737 4.421-.046.14-.092.28-.138.373-.138.326-.276.605-.46.838a4.73 4.73 0 01-.6.744c0-.14 0-.279.047-.372 0-.093 0-.186.046-.28.046-.418.046-.79.092-1.21.184-2.094.276-4.189.276-6.19v-3.537a597.75 597.75 0 00-.138-3.259c-.092-.977-.138-1.908-.322-2.746-.139-.838-.415-1.582-.784-2.188-.368-.558-.875-.93-1.29-1.024-.092-.046-.184-.046-.276-.093-.092 0-.138 0-.23-.046h-.185c0-.047-.184-.047-.506.046a4.24 4.24 0 00-.6.187c-.137.046-.23.14-.368.232-.092.093-.23.233-.322.373-.369.558-.6 1.256-.783 2.094-.23.838-.323 1.769-.461 2.793-.046.512-.046 1.07-.092 1.629 0 .559-.046 1.117-.046 1.722-.046 1.164-.046 2.42-.092 3.677-.046 2.095-.093 4.329-.139 6.61v2.141c-.276-.233-.506-.559-.737-.931-.23-.372-.368-.745-.506-1.21a1.38 1.38 0 01-.092-.42c-.139-.65-.23-1.349-.277-2.094-.046-.791-.046-1.582-.092-2.42-.046-.838-.046-1.676-.046-2.56v-1.303c0-.42 0-.885.046-1.304 0-1.768.138-3.537.23-5.166.185-1.583.645-3.072 1.244-4.236.323-.558.645-1.07 1.014-1.443a4.5 4.5 0 011.151-.837c.507-.233.968-.326 1.244-.326.415.046.875.046 1.336.279.507.233 1.014.652 1.428 1.21.875 1.117 1.382 2.746 1.705 4.515.322 1.769.506 3.724.552 5.679 0 1.815-.046 3.77-.092 5.632z" fill="#251A85"/><path d="M44.133 75.776c0 1.163-.047 2.373-.093 3.63-.046.605-.046 1.257-.092 1.908-.046.652-.046 1.304-.092 1.955-.092.885-.138 1.816-.23 2.7-.046.419-.046.791-.092 1.21v.093c-.046.466-.092.978-.139 1.443 0 .14 0 .28-.046.42-.092 1.07-.184 2.14-.276 3.164-.046.42-.046.791-.092 1.21-.046.559-.092 1.164-.138 1.723 0 .186 0 .325-.046.465-.046.419-.046.791-.092 1.21-.139 1.909-.23 3.677-.323 5.306 0 2.048 0 3.771-.23 4.934-.093.512-.23.885-.415 1.117h-.322c-.185-.046-.369-.093-.461-.279-.138-.186-.23-.419-.276-.745-.093-.279-.139-.651-.185-1.024-.046-.186-.046-.372-.092-.605 0-.186-.046-.419-.046-.605-.092-.838-.23-1.769-.276-2.793-.046-.512-.093-1.024-.139-1.582-.046-.559-.046-1.117-.092-1.676 0-.558-.046-1.163-.046-1.769V86.062c.046-4.748.046-9.449.046-13.08v-.744c0-.233.046-.465.046-.698.046-.466.046-.884.139-1.303a8.75 8.75 0 01.184-1.164c.046-.372.138-.698.23-.977.092-.28.23-.512.369-.652.138-.14.322-.28.506-.326.23-.14.461-.233.553-.28.046.047.185.094.415.234.276.14.645.418.967.884.323.465.553 1.117.645 1.862.138.791.138 1.675.184 2.7 0 1.023 0 2.094.047 3.258z" fill="#02D8C8"/><path d="M56.294 85.597a27.138 27.138 0 01-1.52 3.444 30.409 30.409 0 01-1.797 2.886 1.696 1.696 0 01-.506.233c-.691.325-1.705.372-2.995.325-1.52-.046-3.27-.093-5.113-.14.092-1.21.23-2.466.322-3.723.23-.14.415-.326.645-.512.277-.28.553-.651.83-1.07.184 0 .368-.047.552-.047 1.935-.186 3.686-.326 5.252-.465 1.566-.14 2.902-.373 3.778-.699.23-.093.414-.186.552-.232z" fill="#251A85"/><path d="M60.763 42.822c-.184-3.165-.46-6.33-.83-9.449-.414-2.979-.967-5.911-1.842-8.657-.092 0-.23-.047-.415-.094-.138-.046-.322-.093-.506-.186-.185-.046-.415-.14-.691-.232a28.633 28.633 0 00-4.193-.978c-2.948-.558-6.68-.884-10.595-.884h-1.336c.092 1.024.092 3.072.046 5.12-.046 2.467-.23 4.98-.368 5.678h.92c1.89.093 4.055.466 6.22 1.35 1.06.466 2.165 1.07 3.087 1.862a9.484 9.484 0 012.349 2.886c.599 1.07 1.014 2.234 1.29 3.398.138.558.276 1.163.368 1.722.093.605.139 1.163.139 1.722.046 2.28-.323 4.375-1.014 6.144-.69 1.769-1.843 3.072-2.902 3.677-.276.14-.507.28-.737.372-.046.047-.138.093-.184.187a16.217 16.217 0 01-5.252 2.653 11.27 11.27 0 01-1.889.419c-.322.046-.69.046-1.013.093h-.323c.184 1.024.23 3.211.092 4.096.184-.047.369-.047.6-.047.506-.046 1.105.047 1.704.326.599.28 1.197.791 1.658 1.396.921 1.257 1.52 2.933 1.889 4.701.368 1.77.553 3.678.599 5.632.046 1.909 0 3.817-.046 5.632-.093 1.63-.323 3.165-.83 4.469 1.751-.093 3.363-.186 4.837-.233 1.52-.046 2.81-.093 3.732-.28.46-.046.83-.139 1.106-.232l.276-.838c.599-1.862 1.106-4.05 1.612-6.423.23-1.21.461-2.42.737-3.724.23-1.303.415-2.606.645-3.956.046-.326.139-.698.185-1.024.046-.326.092-.698.138-1.024.092-.698.184-1.396.276-2.141a31.85 31.85 0 00.23-2.188c.047-.745.093-1.49.185-2.234.415-5.958.415-12.334.046-18.711zm-18.98-19.084c.046-.605 1.336-.558 1.382 0 0 .698-1.382.559-1.382 0zm3.916.652c-.369-.047-.691-.326-.599-.605.138-.28.415-.373.691-.326.323.046.645.233.599.512-.046.372-.369.465-.691.419zm3.547-.14c-.092.326-.322.466-.507.42a.464.464 0 01-.46-.466c0-.326.276-.466.506-.42.277 0 .507.187.461.466zm2.718.42c-.138.325-.415.418-.599.325-.23-.047-.46-.233-.46-.512 0-.326.322-.419.598-.373.323.047.553.28.461.56zm1.935.092c.138-.605 1.152-.372 1.105.186-.138.698-1.243.373-1.105-.186zm3.086 45.8c-.092.56-.322 1.025-.737 1.118-.46 0-.645-.698-.506-1.303.138-.605.46-1.117.829-1.07.46.046.553.697.414 1.256zm.83-8.33c-.185 1.628-.6 3.21-1.014 3.304-.46-.093-.46-1.769-.276-3.398.092-1.629.414-3.258.783-3.258.46.093.599 1.722.507 3.351z" fill="#F7C003"/><path d="M65.185 67.91c-.092.838-.23 1.675-.414 2.606-.415 1.816-.783 3.77-1.152 5.725a93.92 93.92 0 01-1.244 5.679c-.092.465-.23.884-.368 1.303l-.415 1.257c-.276.838-.46 1.582-.921 2.048-.415.465-1.106.605-1.705.652-.322.046-.599.046-.875.046h-.783c-.369 0-.691 0-.968.047a34.605 34.605 0 001.475-3.63c.645-1.91 1.197-4.097 1.704-6.47.23-1.164.507-2.374.737-3.678.23-1.257.46-2.56.691-3.91.184-1.35.369-2.746.553-4.142.046-.373.092-.698.138-1.07.046-.373.046-.699.092-1.071v-.28c.23.094.553.28.968.466.414.186.921.372 1.382.698.507.326.921.745 1.013 1.443.184.698.184 1.49.092 2.28z" fill="#251A85"/><path d="M76.886 85.876v-1.07a7.55 7.55 0 00-.092-1.07l-.092-1.071c-.046-.373-.046-.745-.138-1.07a33.273 33.273 0 01-.368-2.095 34.085 34.085 0 01-.507-2.095c-.092-.326-.184-.698-.277-.977-.092-.326-.184-.652-.322-.931-.46-1.257-1.106-2.374-1.843-3.398-.737-1.024-1.474-1.909-2.303-2.653-.83-.745-1.566-1.443-2.258-2.002-.368-.279-.69-.558-.967-.791-.322-.233-.599-.465-.875-.652-.415-.279-.737-.512-1.014-.698.046.186.139.373.139.605.276 1.536.046 3.258-.323 5.074-.322 1.769-.69 3.63-1.06 5.539-.368 1.861-.783 3.77-1.29 5.539-.138.418-.276.884-.414 1.303-.138.419-.276.838-.415 1.21-.23.652-.46 1.396-.875 2.002.092 0 .23.046.323.046.138.047.322.093.506.14.784.232 1.797.698 2.81 1.536.968.838 1.89 2.048 2.58 3.444.691 1.396 1.198 2.886 1.613 4.422.23.838.322 1.582.46 2.374.138.744.23 1.536.369 2.234.276 1.443.599 2.793 1.06 3.817.23.512.552.977.875 1.256.322.28.69.466 1.06.466.322.046.552.046.736.046.185-.279.369-.698.553-1.21.415-1.257.83-3.072 1.198-5.26.368-2.187.69-4.747.967-7.54.139-1.396.277-2.793.23-4.189 0-.838-.046-1.536-.046-2.28zm-6.449-9.914c-.23-.605-.507-1.163-.69-1.582l-.14-.28c-.045-.093-.091-.14-.091-.232-.046-.14-.092-.233-.046-.326s.23-.093.414-.047c.185.047.415.186.645.373.46.372.83 1.024 1.106 1.629.553 1.256.69 2.653.322 2.839-.506.093-1.013-1.164-1.52-2.374zm2.35 8.704c-.461.093-.784-.558-.876-1.257-.092-.605.046-1.256.415-1.35.415-.046.737.56.83 1.21.137.652 0 1.257-.37 1.397z" fill="#02D8C8"/><path d="M41.184 3.35c-.092.14-.184.234-.322.42-.277.326-.553.745-.876 1.163a9.265 9.265 0 01-1.013 1.21c-.322.326-.645.513-.83.466-.184-.14-.137-.465 0-.93.139-.42.461-.978.83-1.49.415-.512.921-.978 1.382-1.164.46-.233.83-.233.921-.046 0 .14-.046.232-.092.372zm-4.008 5.587a.747.747 0 01-.875.419c-.46-.187-.46-.652-.23-.978.276-.372.69-.558 1.013-.326.277.233.277.605.092.885zM50.72 19.13c0 .419-.138.745-.322.791-.23 0-.46-.232-.645-.558a7.504 7.504 0 01-.507-1.35c-.138-.512-.184-1.07-.138-1.536.046-.419.23-.698.415-.698.23.046.368.28.506.651.138.326.277.792.415 1.257.23.512.322 1.024.276 1.443zm7.095 43.101c-.185 1.63-.6 3.212-1.014 3.305-.46-.093-.46-1.769-.276-3.398.092-1.629.414-3.258.783-3.258.46.093.599 1.722.507 3.351zm-.83 8.332c-.092.558-.322 1.024-.737 1.117-.46 0-.645-.698-.506-1.303.138-.605.46-1.117.829-1.07.46.046.553.697.414 1.256zM26.443 58.135c-.184.14-.507.093-.83-.14a3.218 3.218 0 01-.92-1.116c-.231-.466-.323-1.024-.231-1.443.092-.42.276-.652.46-.605.23.046.323.279.507.558.138.28.277.652.46.978.323.698.784 1.443.554 1.768zm12.3-13.685c-.461 1.071-1.06 2.095-1.382 2.048-.323-.186 0-1.303.506-2.42.507-1.117 1.336-2.094 1.567-1.955.23.233-.23 1.257-.691 2.328zm5.758-1.256c-.322.605-.875 1.303-1.382 2.002-.23.372-.553.698-.737 1.023-.138.187-.23.326-.368.466l-.277.419c-.184.28-.322.512-.46.698-.139.186-.23.28-.323.326-.092-.047-.092-.186-.092-.373 0-.232.046-.512.184-.837.23-.699.737-1.49 1.336-2.234a18.037 18.037 0 011.659-1.909c.46-.512.783-.791.92-.745.047.14-.091.605-.46 1.164zM11.517 77.638c-.415 1.629-.83 3.304-1.244 3.397-.46-.093-.415-1.954 0-3.677.46-1.768 1.244-3.398 1.612-3.258.369.233.046 1.909-.368 3.538zm-1.474 8.285c-.967-.047-.783-2.607 0-2.607.875.093.783 2.514 0 2.607zm61.914-7.587c-.46.093-1.013-1.164-1.52-2.374-.23-.605-.507-1.164-.691-1.583l-.138-.279c-.046-.093-.092-.14-.092-.233-.046-.14-.092-.232-.046-.326.046-.093.23-.093.414-.046.184.046.415.186.645.372.46.373.83 1.024 1.106 1.63.507 1.256.645 2.653.322 2.839zm.83 6.33c-.461.093-.784-.558-.876-1.257-.092-.605.046-1.256.415-1.35.414-.046.737.56.829 1.21.138.652 0 1.258-.368 1.397zM15.433 39.377c.184-.093.414-.745.599-1.629.184-.93.368-2.095.506-3.258.184-1.164.323-2.328.46-3.212.14-.884.185-1.536 0-1.675-.183-.047-.552.465-.874 1.35-.369.884-.645 2.094-.83 3.35a23.8 23.8 0 00-.23 3.398c.046.931.138 1.583.369 1.676zm0 5.958c.783-.14.829-3.025 0-3.165-.784 0-.968 3.118 0 3.165zm48.417 3.258c.184.512.414.838.644.838.185-.093.277-.512.277-1.07 0-.559-.092-1.257-.23-1.955-.093-.652-.277-1.35-.37-1.815-.137-.512-.276-.885-.46-.931-.184 0-.368.326-.46.93-.093.56-.046 1.304.092 2.049.138.744.322 1.442.506 1.954zm18.104 40.541a12.91 12.91 0 00-.46-2.327c-.185-.605-.415-1.07-.6-1.117-.184 0-.276.465-.322 1.164 0 .698.046 1.536.138 2.42.046.838.138 1.676.138 2.327.046.326 0 .559.046.791.046.187.093.373.23.42.093 0 .231-.14.37-.326.138-.187.276-.466.368-.838l.138-.559c.046-.186.046-.419.046-.605 0-.419-.046-.884-.092-1.35zm-25.89-76.381a69.127 69.127 0 001.612 2.933c.461.791.737 1.303.968 1.303.184-.14.184-.884-.138-1.769-.277-.884-.784-2.001-1.336-3.025a27.64 27.64 0 00-1.659-2.793c-.23-.372-.46-.698-.599-.93-.092-.094-.138-.187-.184-.234l-.138-.14c-.046-.046-.092 0-.138.094-.046.093-.046.233-.046.372 0 .28.092.698.276 1.117.322.885.83 2.002 1.382 3.072z" fill="#fff"/><path d="M25.291 25.274c0 .698-1.474.558-1.474 0 .092-.605 1.428-.559 1.474 0zm2.718 0c-.323 0-.645-.14-.645-.419.046-.326.276-.465.553-.465.276-.047.599.093.645.326.046.325-.277.512-.553.558zm3.916-.838c0 .698-1.106.559-1.106 0 0-.605 1.014-.558 1.106 0zm3.132-.093c-.23.28-.368.372-.645.326-.23 0-.599-.14-.645-.42 0-.278.323-.511.691-.511.185 0 .369.046.507.186s.184.28.092.419zm2.995-.419c0 .698-1.244.559-1.244 0 0-.605 1.151-.558 1.244 0zm5.113-.186c0 .698-1.382.558-1.382 0 .046-.605 1.336-.559 1.382 0zm3.271.279c-.046.326-.369.466-.737.419-.369-.047-.691-.326-.599-.605.138-.28.415-.372.691-.326.323.047.645.233.645.512zm2.81.233c-.092.326-.322.465-.507.419a.464.464 0 01-.46-.466c0-.325.276-.465.506-.418.277 0 .507.186.461.465zm2.718.419c-.138.326-.414.419-.599.326-.23-.047-.46-.233-.46-.512 0-.326.322-.42.598-.373.323.047.553.28.461.559zm3.041.279c-.139.698-1.198.372-1.106-.186.138-.605 1.151-.372 1.105.186z" fill="#251A85"/></svg>