<svg width="1920" height="550" fill="none" xmlns="http://www.w3.org/2000/svg"><path d="M1747.2 311.4c-1.6-.2-3-1.3-3.1-2.7-.1-1.2-1-6.2-1-6.2s-.8 5.1-1 6.2c-.4 1.7-1.5 2.5-3.1 2.7-1.3.2-7.1.9-7.1.9s5.8.7 7.1.9c2.1.2 2.9 1.4 3.1 2.8.2 1.1 1 6.2 1 6.2s.9-5.1 1-6.2c.2-1.5 1.5-2.6 3.1-2.8 1.3-.1 7.1-.9 7.1-.9s-5.8-.8-7.1-.9zm114.1-41c-1.1-.1-2.1-.9-2.2-2-.1-.8-.7-4.4-.7-4.4s-.5 3.6-.7 4.4c-.2 1.2-1.1 1.8-2.2 2-.9.1-5.1.6-5.1.6s4.1.5 5.1.6c1.5.2 2.1 1 2.2 2 .1.8.7 4.4.7 4.4s.6-3.6.7-4.4c.1-1.1 1-1.8 2.2-2 .9-.1 5.1-.6 5.1-.6 0 .1-4.1-.5-5.1-.6zm-16-229.1c-1.1-.1-2.1-.9-2.2-2-.1-.8-.7-4.4-.7-4.4s-.5 3.6-.7 4.4c-.2 1.2-1.1 1.8-2.2 2-.9.1-5.1.6-5.1.6s4.1.5 5.1.6c1.5.2 2.1 1 2.2 2 .1.8.7 4.4.7 4.4s.6-3.6.7-4.4c.1-1.1 1-1.8 2.2-2 .9-.1 5.1-.6 5.1-.6 0 .1-4.1-.5-5.1-.6zM1619 70.5c-1.1-.1-2.1-.9-2.2-2-.1-.8-.7-4.4-.7-4.4s-.5 3.6-.7 4.4c-.2 1.2-1.1 1.8-2.2 2-.9.1-5.1.6-5.1.6s4.1.5 5.1.6c1.5.2 2.1 1 2.2 2 .1.8.7 4.4.7 4.4s.6-3.6.7-4.4c.1-1.1 1-1.8 2.2-2 .9-.1 5.1-.6 5.1-.6s-4.1-.5-5.1-.6zM74.3 33.7c-2.3-.3-4.3-1.8-4.5-3.9-.1-1.6-1.4-8.8-1.4-8.8s-1.1 7.2-1.4 8.8c-.5 2.4-2.1 3.6-4.4 3.9-1.8.2-10 1.2-10 1.2s8.2 1 10 1.2c2.9.3 4.1 2 4.4 3.9.2 1.6 1.4 8.8 1.4 8.8s1.2-7.2 1.4-8.8c.3-2.2 2.1-3.6 4.4-3.9 1.9-.2 10-1.2 10-1.2.1 0-8.1-1.1-9.9-1.2zm161.4 417.7c-.9-.1-1.7-.7-1.8-1.5-.1-.6-.5-3.5-.5-3.5s-.4 2.8-.6 3.5c-.2.9-.8 1.4-1.8 1.5-.7.1-4 .5-4 .5l4 .5c1.2.1 1.6.8 1.7 1.5.1.6.6 3.5.6 3.5s.5-2.8.6-3.5c.1-.9.8-1.4 1.7-1.5.7-.1 4-.5 4-.5.1-.1-3.1-.5-3.9-.5zm-149-312c-.9-.1-1.7-.7-1.8-1.5-.1-.6-.5-3.5-.5-3.5s-.4 2.8-.6 3.5c-.2.9-.8 1.4-1.8 1.5-.7.1-4 .5-4 .5l4 .5c1.2.1 1.6.8 1.7 1.5.1.6.6 3.5.6 3.5s.5-2.8.6-3.5c.1-.9.8-1.4 1.7-1.5.7-.1 4-.5 4-.5.1-.1-3.1-.5-3.9-.5zm-32.1 102c-.9-.1-1.7-.7-1.8-1.5-.1-.6-.5-3.5-.5-3.5l-.5 3.5c-.2.9-.8 1.4-1.8 1.5-.7.1-4 .5-4 .5l4 .5c1.2.1 1.6.8 1.7 1.5.1.6.6 3.5.6 3.5s.5-2.8.6-3.5c.1-.9.8-1.4 1.7-1.5.7-.1 4-.5 4-.5s-3.2-.5-4-.5zM924.9 20.8c-.9-.1-1.7-.7-1.8-1.5-.1-.6-.5-3.5-.5-3.5l-.5 3.5c-.2.9-.8 1.4-1.8 1.5-.7.1-4 .5-4 .5l4 .5c1.2.1 1.6.8 1.7 1.5.1.6.6 3.5.6 3.5s.5-2.8.6-3.5c.1-.9.8-1.4 1.7-1.5.7-.1 4-.5 4-.5l-4-.5zM1672 407.5c-1.9-.2-3.7-1.6-3.9-3.4-.1-1.4-1.2-7.7-1.2-7.7s-.9 6.3-1.2 7.7c-.4 2.1-1.8 3.1-3.9 3.4l-8.8 1.1 8.8 1.1c2.6.3 3.6 1.7 3.9 3.4.2 1.4 1.2 7.7 1.2 7.7s1.1-6.3 1.2-7.7c.2-1.9 1.8-3.2 3.9-3.4l8.8-1.1c0-.1-7.2-1-8.8-1.1zM1789.7 158c-.9-.1-1.7-.7-1.8-1.6-.1-.7-.6-3.5-.6-3.5s-.4 2.9-.6 3.5c-.2 1-.8 1.4-1.8 1.6-.7.1-4 .5-4 .5s3.3.4 4 .5c1.2.1 1.7.8 1.8 1.6.1.6.6 3.5.6 3.5s.5-2.9.6-3.5c.1-.9.8-1.5 1.8-1.6.7-.1 4-.5 4-.5s-3.2-.5-4-.5zM1281.5 48.5c-.9-.1-1.7-.7-1.7-1.5-.1-.6-.5-3.4-.5-3.4s-.4 2.8-.5 3.4c-.2.9-.8 1.4-1.7 1.5-.7.1-3.9.5-3.9.5s3.2.4 3.9.5c1.2.1 1.6.8 1.7 1.5.1.6.5 3.4.5 3.4s.5-2.8.5-3.4c.1-.9.8-1.4 1.7-1.5.7-.1 3.9-.5 3.9-.5s-3.2-.4-3.9-.5zM363.9 31.3c-1.2-.1-2.3-1-2.4-2.1-.1-.9-.8-4.8-.8-4.8s-.6 3.9-.8 4.8c-.3 1.3-1.2 2-2.4 2.1-1 .1-5.5.7-5.5.7s4.5.6 5.5.7c1.6.2 2.3 1.1 2.4 2.1.1.9.8 4.8.8 4.8s.7-3.9.8-4.8c.1-1.2 1.1-2 2.4-2.1 1-.1 5.5-.7 5.5-.7s-4.4-.6-5.5-.7zm1515.9 407.8c-1.2-.1-2.3-1-2.4-2.1-.1-.9-.8-4.8-.8-4.8s-.6 3.9-.8 4.8c-.3 1.3-1.2 2-2.4 2.1-1 .1-5.5.7-5.5.7s4.5.6 5.5.7c1.6.2 2.3 1.1 2.4 2.1.1.9.8 4.8.8 4.8s.7-3.9.8-4.8c.1-1.2 1.1-2 2.4-2.1 1-.1 5.5-.7 5.5-.7s-4.5-.6-5.5-.7zM567.3 72.6c-1.3-.1-2.4-1-2.5-2.2-.1-.9-.8-5-.8-5s-.6 4.1-.8 5c-.3 1.4-1.2 2-2.5 2.2-1 .1-5.7.7-5.7.7s4.6.6 5.7.7c1.7.2 2.3 1.1 2.5 2.2.1.9.8 5 .8 5s.7-4.1.8-5c.1-1.2 1.2-2.1 2.5-2.2 1.1-.1 5.7-.7 5.7-.7s-4.7-.6-5.7-.7zm-364.5 77.3c-1.3-.1-2.4-1-2.5-2.2-.1-.9-.8-5-.8-5s-.6 4.1-.8 5c-.3 1.4-1.2 2-2.5 2.2-1 .1-5.7.7-5.7.7s4.6.6 5.7.7c1.7.2 2.3 1.1 2.5 2.2.1.9.8 5 .8 5s.7-4.1.8-5c.1-1.2 1.2-2.1 2.5-2.2 1-.1 5.7-.7 5.7-.7s-4.7-.6-5.7-.7zM142.3 345c-1.8-.2-3.5-1.5-3.7-3.2-.1-1.3-1.2-7.3-1.2-7.3s-.9 5.9-1.2 7.3c-.4 2-1.7 3-3.7 3.2-1.5.2-8.3 1-8.3 1s6.8.8 8.3 1c2.4.3 3.4 1.6 3.7 3.2.2 1.3 1.2 7.3 1.2 7.3s1-5.9 1.2-7.3c.2-1.8 1.7-3 3.7-3.2 1.5-.1 8.3-1 8.3-1s-6.8-.9-8.3-1zm-103 44.6c-1.3-.1-2.4-1-2.5-2.2-.1-.9-.8-5-.8-5s-.6 4.1-.8 5c-.3 1.4-1.2 2-2.5 2.2-1 .1-5.7.7-5.7.7s4.6.6 5.7.7c1.7.2 2.3 1.1 2.5 2.2.1.9.8 5 .8 5s.7-4.1.8-5c.1-1.2 1.2-2.1 2.5-2.2 1-.1 5.7-.7 5.7-.7s-4.6-.6-5.7-.7zm1756.3 29.1c-.7-.1-1.3-.6-1.4-1.2 0-.5-.4-2.8-.4-2.8s-.3 2.3-.4 2.8c-.2.7-.7 1.1-1.4 1.2-.6.1-3.1.4-3.1.4s2.6.3 3.1.4c.9.1 1.3.6 1.4 1.2.1.5.4 2.8.4 2.8s.4-2.2.4-2.8c.1-.7.6-1.1 1.4-1.2.6-.1 3.2-.4 3.2-.4-.1 0-2.7-.3-3.2-.4zM105.7 450.4c0 .8-1.3-.6-1.4-1.2 0-.5-.4-2.8-.4-2.8s-.3 2.3-.4 2.8c-.2.7-.7 1.1-1.4 1.2-.6.1-3.1.4-3.1.4s2.6.3 3.1.4c.9.1 1.3.6 1.4 1.2.1.5.4 2.8.4 2.8s.4-2.2.4-2.8c.1-.7.6-1.1 1.4-1.2.6-.1 3.2-.4 3.2-.4-.1 0-3.2-.9-3.2-.4z" fill="#fff"/></svg>