<svg width="49" height="30" fill="none" xmlns="http://www.w3.org/2000/svg"><path d="M8.713 4.942c.27-.477.54-1.04.674-1.604l.135-.91c.044-.39.044-.78-.135-1.084-.27-.477-.809-.65-1.303-.564-.359-.173-.808-.173-1.033.13A10.36 10.36 0 005.3 3.945c-.225.65-.315 1.387.224 1.951.494.564 1.348.607 1.976.303.54-.216.899-.78 1.213-1.257zm9.791 2.515a1.327 1.327 0 00-.584 0c-.449-.26-.988-.087-1.257.303-.854 1.258-1.617 2.645-1.842 4.162-.134.78-.224 1.648.225 2.341.494.867 1.572.824 2.335.304 1.303-.91 1.931-2.471 2.201-3.945.135-.78.27-1.778-.135-2.515-.224-.303-.539-.563-.943-.65zM33.056.217c-.045 0-.045.043-.09.086-.18.044-.314.087-.494.217-.988.867-1.707 2.125-1.886 3.425-.09.694-.18 1.517.09 2.168.404.91 1.392 1.214 2.29.823.674-.303 1.123-.91 1.437-1.517.36-.607.63-1.3.764-1.994s.224-1.474.045-2.168c-.18-.954-1.258-1.604-2.156-1.04zm14.776 6.936c-.09 0-.18 0-.27.044-.314-.087-.628-.044-.853.216-.584.737-1.078 1.561-1.302 2.472-.135.433-.225.91-.225 1.344 0 .65.405 1.257 1.078 1.387 1.303.217 2.021-1.127 2.426-2.081.18-.434.27-.91.314-1.344.045-.477.09-.954-.18-1.387a1.273 1.273 0 00-.988-.65zM39.03 22.24c-.315-.13-.764-.087-.989.174-1.033 1.17-1.751 2.557-2.066 4.075-.135.737-.314 1.604-.135 2.34.225.998 1.258 1.388 2.201.998 1.482-.65 2.29-2.255 2.65-3.685.09-.434.18-.867.225-1.344.045-.434.134-.867 0-1.3-.225-.738-1.033-1.431-1.887-1.258zm-15.002-3.078l-.09.087-.134.13c-.18.043-.315.086-.45.217a2.654 2.654 0 00-.538.693c-.944 1.084-1.662 2.385-1.887 3.815-.18.867-.27 1.864.63 2.341.807.434 1.796 0 2.335-.607.539-.563.898-1.257 1.212-1.95.315-.694.494-1.388.629-2.125l.135-1.17c0-.434.045-.91-.18-1.258-.36-.563-1.168-.607-1.662-.173zM3.368 21.2a.983.983 0 00-1.078.13C.853 22.804-.09 24.885 0 26.922c0 .52.135.997.45 1.43a1.685 1.685 0 001.75.521c1.123-.347 1.752-1.56 2.156-2.514.405-.954.54-1.951.674-2.948.045-.477.135-.954-.045-1.431-.27-.607-.943-.91-1.617-.78z" fill="#fff"/></svg>