<svg width="35" height="19" fill="none" xmlns="http://www.w3.org/2000/svg"><path d="M34.021 8.56c-1.003-.603-2.22-.266-3.247.072a16.08 16.08 0 00-3.247 1.543 19.023 19.023 0 00-.453-4.509 23.17 23.17 0 00-.74-2.507c-.287-.772-.597-1.592-1.123-2.243-1.05-1.302-2.697-1.085-3.915-.169-1.218.917-1.982 2.315-2.578 3.69-.55 1.253-1.003 2.555-1.672 3.761-.501-2.074-1.981-3.882-3.939-4.75-1.146-.506-2.507-.675-3.7-.217-1.266.482-1.958 1.664-2.316 2.893-.478 1.543-.812 3.159-1.17 4.726-.931-.892-2.125-1.567-3.438-1.157-1.456.458-2.197 1.953-2.388 3.4-.19 1.519-.143 3.303 1.17 4.291 1.361 1.037 3.223.869 4.847.917 1.886.048 3.772.072 5.634.12.907.024 1.838 0 2.77.097.86.072 1.695.168 2.554.12.907-.072 1.79-.024 2.698.024a23.87 23.87 0 002.626-.024c1.17-.048 2.364.217 3.558.29 1.336.072 2.673.072 4.034 0a17.918 17.918 0 001.6-.145c.334-.048.716-.12 1.003-.29a.371.371 0 00.19-.144c1.385-1.977 1.887-4.485 2.197-6.848.096-1.06.072-2.339-.955-2.941zm0 3.665a18.798 18.798 0 01-.382 1.953c-.31 1.278-.764 2.531-1.504 3.616-.525.266-1.265.266-1.838.314-1.05.072-2.101.096-3.152.072a30.517 30.517 0 01-2.96-.193c-.645-.072-1.242-.144-1.886-.12-.812.024-1.6.048-2.388.024-.811-.048-1.623-.097-2.435-.048-.812.024-1.576.048-2.387-.049-1.672-.168-3.343-.144-5.014-.168-1.695-.024-3.39-.073-5.085-.097-1.361-.024-3.247-.072-3.916-1.519-.358-.82-.286-1.784-.215-2.604.096-.844.335-1.712.955-2.339.526-.554 1.266-.82 2.006-.603.812.217 1.48.844 2.005 1.471.167.217.621.193.693-.12.358-1.447.692-2.918 1.05-4.365.263-1.133.573-2.435 1.552-3.158.931-.675 2.22-.627 3.27-.265 1.051.361 1.982 1.06 2.675 1.929a6.246 6.246 0 011.36 3.448c.024.361.526.434.717.168 1.576-2.242 2.005-5.111 3.724-7.233.764-.965 2.364-2.218 3.534-1.11.525.483.788 1.23 1.05 1.881.31.772.573 1.544.764 2.363.43 1.785.597 3.617.478 5.45-.024.361.382.554.668.337 1.17-.82 6.494-3.978 6.828-.94.072.627-.071 1.278-.167 1.905z" fill="#fff"/></svg>