<svg width="41" height="39" fill="none" xmlns="http://www.w3.org/2000/svg"><path d="M32.366 15.5c-.74-1.264-1.678-2.43-2.632-3.547-1.89-2.203-4.21-4.114-7.006-5.07a9.33 9.33 0 00-1.102-.307.377.377 0 00-.197-.098 6.52 6.52 0 00-.79-.08h-.114c-1.25-.065-2.5.21-3.7.582-1.267.39-2.5.907-3.652 1.555-2.335 1.328-4.26 3.256-5.295 5.717-1.102 2.576-1.2 5.458-.79 8.212.214 1.441.56 2.931 1.283 4.21.674 1.183 1.661 2.22 2.73 3.062 4.013 3.158 9.736 3.968 14.423 1.846 4.572-2.073 7.96-6.85 8.01-11.855.016-1.539-.395-2.932-1.168-4.227zm-5.543 14.398c-4.029 2.624-9.34 2.624-13.518.275-2.27-1.28-4.21-3.223-4.934-5.75-.707-2.477-.921-5.23-.378-7.773.542-2.495 1.875-4.649 3.881-6.268 1.974-1.571 4.523-2.673 7.022-3.094a7.24 7.24 0 011.563-.097c2.713.405 5.131 1.83 7.088 3.693a25.088 25.088 0 012.747 3.125c.805 1.07 1.644 2.203 2.072 3.499.773 2.397.099 5.215-1.036 7.402a13.357 13.357 0 01-4.506 4.988zm4.129-20.229a.478.478 0 00.164.194c.444.308.921-.13 1.217-.405.296-.259.576-.55.822-.858.264-.308.494-.648.708-.988.23-.372.427-.858.164-1.263-.132-.195-.378-.276-.576-.146a6.331 6.331 0 00-2.631 3.061c-.05.146.017.308.132.405zm-7.204-4.907a.211.211 0 00.099.016c.18.146.493.178.658-.081.74-1.134 1.069-2.462 1.414-3.758C26 .648 26 .308 25.722.113c-.346-.243-.724-.032-.921.276-.346.534-.609 1.15-.84 1.749a9.327 9.327 0 00-.525 2.122c-.017.21.082.437.312.502zM25.13.664c.017-.032.033-.032 0 0zM13.996 5.247c.312-.259.345-.647.213-1.02a21.27 21.27 0 00-.493-1.312c-.18-.437-.362-.858-.56-1.28-.098-.194-.164-.42-.328-.566-.214-.21-.46-.243-.724-.113-.115.048-.23.226-.213.356a10.73 10.73 0 001.364 3.984c.198.308.609.21.74-.049zm26.478 12.277c-.395-.146-.921-.08-1.332-.065a10.054 10.054 0 00-3.224.68c-.214.082-.362.276-.296.519.017.08.066.145.132.194a.468.468 0 00.148.405c.197.178.526.194.773.227.477.064.954.032 1.447-.033.477-.064.954-.194 1.414-.324.428-.13.97-.226 1.3-.55.361-.389.082-.891-.362-1.053zm-1.168.761h.099c-.115.033-.214.065-.33.097v-.08c.083-.017.149-.017.231-.017zM3.947 11.5a3.47 3.47 0 001.924.97c.132.017.313-.096.362-.21a.872.872 0 00.066-.194.359.359 0 00.131-.081c.181-.178.148-.421 0-.6-.394-.485-.789-.987-1.233-1.44a6.658 6.658 0 00-.707-.648c-.247-.195-.51-.422-.79-.567-.345-.179-.805-.195-1.036.178-.197.324-.05.68.115.972.33.583.691 1.15 1.168 1.62zM3.24 9.441c-.066-.016-.017 0 0 0zm1.513 11.452c-.066-.243-.296-.324-.526-.292-.921.162-1.842.324-2.714.648-.428.162-.937.356-1.266.664-.181.162-.313.438-.23.68.082.276.328.39.575.47.921.308 2.023-.08 2.878-.437a5.42 5.42 0 00.625-.292c.214-.113.46-.226.625-.388a.716.716 0 00.05-.972c0-.033 0-.065-.017-.081zm-3.98 1.344c-.016 0-.016 0 0 0zm.395.097c.066-.032.115-.064.18-.08 0 .032 0 .064.017.096-.066-.016-.131-.016-.197-.016zm7.45 7.92a.785.785 0 00-.28.065.325.325 0 00-.247 0c-.723.291-1.447.68-1.924 1.28-.263.323-.51.712-.526 1.133a.722.722 0 00.345.664c.23.13.51.097.74 0a4.914 4.914 0 001.958-1.441c.131-.162.263-.34.378-.519.148-.226.28-.47.197-.745a.637.637 0 00-.641-.437zm9.555 4.406a.309.309 0 00-.132-.065c-.23-.065-.444.08-.526.291a7.252 7.252 0 00-.411 2.656c0 .195.016.405.05.6.032.226.049.453.197.647.312.405.838.179 1.134-.13.56-.55.609-1.424.691-2.153.033-.405.132-.875-.016-1.264-.165-.388-.56-.68-.987-.583zm9.752 2.008a6.063 6.063 0 00-.427-1.41c-.198-.453-.411-.939-.856-1.214-.427-.26-1.2-.292-1.332.324v.016a.366.366 0 00-.098.389c.066.259.131.534.197.793.033.146.066.276.099.421 0 .017.016.033.016.05.033.096.05.193.082.307.132.502.247 1.004.412 1.49.148.437.41.842.888.972.46.113.97-.114 1.102-.584.065-.226.033-.485.033-.712a10.495 10.495 0 00-.116-.842zm-.773 1.295c-.049 0-.049 0-.082-.016-.082-.032-.131-.13-.18-.227.098.017.197 0 .295-.032v.032c0 .033-.033.195 0 .227v.016h-.033zm.033 0c0-.016.033 0 0 0zm8.175-8.081a13.46 13.46 0 00-.774-.567c-.559-.373-1.184-.697-1.858-.842-.28-.065-.658.194-.526.518.115.291.28.567.46.81.23.42.526.826.872 1.182.427.437.986.81 1.611.842.313.016.642-.08.855-.324.247-.291.23-.696.033-1.004-.18-.243-.427-.421-.674-.615zm-1.432.048c-.032-.032-.082-.065-.115-.097-.016-.016-.05-.032-.066-.065.066.033.132.081.198.114 0 .032-.017.032-.017.048z" fill="#fff"/><path d="M13.93 18.09a2.2 2.2 0 00-2.582 1.248c-.28.632-.51 1.36-.378 2.057.033.227.312.34.526.291.247-.064.329-.291.296-.518-.05-.291.05-.6.132-.874.082-.276.164-.567.312-.81.214-.357.592-.583.97-.616.444-.048.823.081 1.135.421.346.373.477.907.56 1.393.049.227.312.34.526.292.23-.065.345-.292.296-.518-.198-1.005-.691-2.073-1.793-2.365zm15.147-.29c-.395-.535-.987-.924-1.661-.989-1.629-.145-2.155 1.766-2.402 2.98-.049.227.066.454.297.519.213.065.476-.065.526-.292.131-.583.246-1.198.559-1.716.23-.39.56-.713 1.036-.648 1.102.145 1.382 1.474 1.579 2.348.05.227.312.356.526.292.23-.065.346-.292.296-.519-.18-.68-.345-1.392-.756-1.976zm-6.71 2.704c-.247 0-.411.194-.428.421-.05.664-.082 1.328-.131 1.992-.05.535-.132 1.118-.576 1.49-.904.778-1.776-.728-2.04-1.425a4.271 4.271 0 01-.279-1.927c.017-.227-.214-.421-.428-.421-.246 0-.41.194-.427.42-.115 1.361.378 2.932 1.414 3.872.543.486 1.25.696 1.94.356.659-.324 1.02-1.004 1.152-1.684.165-.875.165-1.782.214-2.673.016-.227-.197-.42-.411-.42z" fill="#fff"/></svg>