<svg width="26" height="26" fill="none" xmlns="http://www.w3.org/2000/svg"><path d="M8.278 5.541c.458-.298.416-1.108-.166-1.236-1.664-.298-2.787-1.876-2.62-3.58.04-.427-.25-.64-.583-.64-.333-.17-.79-.085-.874.384-.333 2.046-1.664 3.836-3.577 4.56-.583.214-.666 1.109 0 1.28 2.412.681 3.536 3.068 3.91 5.412.042.341.416.512.707.47.333-.043.541-.342.583-.64.25-2.131.582-4.774 2.62-6.01zM25.542 18.2c-1.872-.725-2.995-2.813-2.745-4.816.041-.512-.375-.682-.749-.64-.333-.17-.79-.085-.915.384-.5 2.174-1.747 4.049-3.578 5.242-.457.299-.416 1.109.167 1.236 2.537.597 3.41 3.325 3.244 5.712-.041.767 1.124.938 1.29.17.458-2.344 1.082-5.029 3.411-6.095.583-.213.333-.98-.125-1.193z" fill="#fff"/></svg>