<svg width="94" height="70" viewBox="0 0 94 70" fill="none" xmlns="http://www.w3.org/2000/svg">
<path d="M92.8643 66.8407C92.3386 66.6056 91.8391 65.7794 91.4898 65.3227C91.0671 64.7702 90.5101 64.2964 90.023 63.8141C88.7892 62.5925 87.7137 61.336 86.7506 59.937C86.091 58.9788 86.1407 57.8368 85.9078 56.7794C85.7183 55.9189 86.0239 54.904 86.1112 54.0177C86.2597 52.5082 86.4731 51.0437 86.7276 49.5494C87.0353 47.7437 87.2589 45.8252 87.7562 44.0505C88.8337 40.2044 90.1909 36.6123 90.8658 32.6415C91.4475 29.2184 91.6218 25.3318 90.5758 21.9644C89.9555 19.9676 88.4552 18.3243 87.2123 16.6889C85.775 14.7977 84.1974 13.2678 82.1689 12.0197C79.8393 10.5863 77.1487 9.61024 74.6018 8.63554C70.9973 7.25606 67.382 5.90394 63.7722 4.53819C60.5806 3.33063 57.3034 1.73213 53.8581 1.4747C50.5704 1.22904 47.1805 1.2103 43.8836 1.20485C38.1324 1.19536 32.4978 1.93783 26.8796 3.15434C23.4621 3.89431 20.1815 4.71016 17.3137 6.80919C14.5607 8.82416 11.8853 11.5793 9.66052 14.1595C7.18642 17.0288 5.30355 20.1617 3.80896 23.655C3.13846 25.2222 2.40994 26.8734 1.95695 28.5208C1.29423 30.9308 1.5204 33.631 1.87801 36.0755C2.33606 39.2066 3.27126 42.2531 4.44406 45.1853C4.98563 46.5394 5.6056 47.8582 6.3876 49.092C7.04461 50.1285 7.94543 50.958 8.6183 51.9763C9.59727 53.4577 10.4242 54.4481 11.8371 55.556C13.3183 56.7174 14.9372 57.6627 16.4125 58.8283C18.8971 60.7914 21.5135 62.5748 24.4824 63.7223C27.6465 64.9452 30.9021 66.5035 34.1984 67.3096C36.0552 67.7636 38.0313 68.2953 39.9388 68.4391C42.2932 68.6167 44.7799 68.8688 47.1364 68.8781C49.8806 68.8889 52.6027 68.3709 55.3036 67.9541C57.1016 67.6766 59.1855 67.6901 60.8635 66.8974C62.0816 66.3219 63.3956 66.2896 64.6701 65.9092C65.6284 65.6232 66.5413 65.1978 67.5031 64.9186C70.707 63.9888 73.5723 64.081 76.8545 64.4648C79.1666 64.7352 81.7089 64.7587 83.9374 65.4703C84.9649 65.7983 86.1494 66.024 87.2156 66.2005C89.0914 66.511 91.234 66.8227 93.0148 67.4964" stroke="white" stroke-width="1.13844" stroke-linecap="round"/>
</svg>
