<svg width="43" height="46" viewBox="0 0 43 46" fill="none" xmlns="http://www.w3.org/2000/svg">
<path d="M42.0525 21.3071V24.4041C42.0525 27.3772 41.4569 30.2264 40.3847 32.8279C39.3126 35.4294 37.7639 37.7831 35.8578 39.6413C33.9518 41.6233 31.6883 43.1099 29.1866 44.2248C26.6849 45.3397 23.9449 45.9591 20.9667 45.9591C18.2267 46.083 15.4868 45.5875 12.9851 44.4726C10.4834 43.3577 8.2199 41.8711 6.31383 39.889C4.40777 37.907 2.8591 35.6771 1.66781 33.0756C0.595647 30.5981 0 27.9966 0 25.2712C0 25.1473 0 25.0235 0 24.8996V21.5548C0 20.0683 0.476511 18.7056 1.54867 17.4668C2.62083 16.3519 3.93125 15.7325 5.59906 15.6086C5.83732 15.6086 5.95645 15.6086 6.19471 15.6086C11.079 15.3609 12.9851 20.4399 16.0824 21.8026C19.5372 23.1653 24.898 22.9175 29.0675 18.5817C30.8544 16.8474 32.8796 15.8564 34.7857 15.8564C35.2622 15.7325 35.7387 15.6086 36.2152 15.6086C37.7639 15.6086 39.0743 16.228 40.2656 17.3429C41.3378 18.5817 41.9334 19.9444 42.0525 21.3071Z" fill="#FCCF39"/>
<path d="M10.2449 0C7.02837 0 4.40753 2.72535 4.40753 5.94622C4.40753 9.29098 7.02837 11.8925 10.2449 11.8925C13.4613 11.8925 16.0822 9.1671 16.0822 5.94622C15.963 2.60147 13.4613 0 10.2449 0ZM7.86227 4.70743C7.1475 4.70743 6.55186 4.08803 6.55186 3.34475C6.55186 2.60147 7.1475 2.10595 7.86227 2.10595C8.57705 2.10595 9.17269 2.72535 9.17269 3.34475C9.17269 3.96415 8.57705 4.70743 7.86227 4.70743Z" fill="white"/>
<path d="M31.6882 0C28.4717 0 25.8509 2.72535 25.8509 5.94622C25.8509 9.29098 28.4717 11.8925 31.6882 11.8925C34.9047 11.8925 37.5255 9.1671 37.5255 5.94622C37.5255 2.60147 34.9047 0 31.6882 0ZM29.3056 4.70743C28.5908 4.70743 27.9952 4.08803 27.9952 3.34475C27.9952 2.60147 28.5908 2.10595 29.3056 2.10595C30.0204 2.10595 30.616 2.72535 30.616 3.34475C30.616 3.96415 30.0204 4.70743 29.3056 4.70743Z" fill="white"/>
<path d="M5.36057 27.2535C7.62402 28.74 9.88747 29.9788 12.1509 30.846C14.4144 31.7131 16.6778 32.0848 18.9413 31.9609C21.2047 31.837 23.349 30.9698 25.3742 29.8549C27.5186 28.6161 29.5438 27.0057 31.6881 25.3953C30.735 27.9967 29.0672 30.3504 27.042 32.2086C24.8977 34.0668 22.1578 35.4295 19.1795 35.6773C16.2013 35.925 13.3422 35.0579 10.9596 33.4474C8.57705 31.837 6.55186 29.7311 5.36057 27.2535Z" fill="white"/>
</svg>
