<svg width="94" height="70" viewBox="0 0 94 70" fill="none" xmlns="http://www.w3.org/2000/svg">
<path d="M1.3457 66.8407C1.87136 66.6056 2.37089 65.7794 2.72024 65.3227C3.14288 64.7702 3.69991 64.2964 4.18696 63.8141C5.42076 62.5925 6.49627 61.336 7.45935 59.937C8.11898 58.9788 8.06933 57.8368 8.30217 56.7794C8.49166 55.9189 8.18605 54.904 8.09884 54.0177C7.9503 52.5082 7.73695 51.0437 7.48237 49.5494C7.17473 47.7437 6.95107 45.8252 6.45383 44.0505C5.37627 40.2044 4.01908 36.6123 3.34425 32.6415C2.76249 29.2184 2.58821 25.3318 3.63421 21.9644C4.25447 19.9676 5.75478 18.3243 6.99766 16.6889C8.43498 14.7977 10.0126 13.2678 12.0411 12.0197C14.3707 10.5863 17.0613 9.61024 19.6082 8.63554C23.2127 7.25606 26.828 5.90394 30.4378 4.53819C33.6294 3.33063 36.9066 1.73213 40.3519 1.4747C43.6396 1.22904 47.0295 1.2103 50.3264 1.20485C56.0776 1.19536 61.7122 1.93783 67.3305 3.15434C70.7479 3.89431 74.0285 4.71016 76.8963 6.80919C79.6493 8.82416 82.3247 11.5793 84.5495 14.1595C87.0236 17.0288 88.9065 20.1617 90.401 23.655C91.0715 25.2222 91.8001 26.8734 92.2531 28.5208C92.9158 30.9308 92.6896 33.631 92.332 36.0755C91.8739 39.2066 90.9387 42.2531 89.7659 45.1853C89.2244 46.5394 88.6044 47.8582 87.8224 49.092C87.1654 50.1285 86.2646 50.958 85.5917 51.9763C84.6127 53.4577 83.7858 54.4481 82.3729 55.556C80.8917 56.7174 79.2729 57.6627 77.7975 58.8283C75.3129 60.7914 72.6966 62.5748 69.7276 63.7223C66.5635 64.9452 63.3079 66.5035 60.0116 67.3096C58.1548 67.7636 56.1787 68.2953 54.2712 68.4391C51.9168 68.6167 49.4301 68.8688 47.0736 68.8781C44.3294 68.8889 41.6073 68.3709 38.9064 67.9541C37.1084 67.6766 35.0245 67.6901 33.3465 66.8974C32.1284 66.3219 30.8144 66.2896 29.5399 65.9092C28.5816 65.6232 27.6687 65.1978 26.7069 64.9186C23.503 63.9888 20.6377 64.081 17.3555 64.4648C15.0434 64.7352 12.5011 64.7587 10.2726 65.4703C9.24511 65.7983 8.06058 66.024 6.99441 66.2005C5.11865 66.511 2.97596 66.8227 1.19517 67.4964" stroke="white" stroke-width="1.13844" stroke-linecap="round"/>
</svg>
