<svg width="135" height="108" viewBox="0 0 135 108" fill="none" xmlns="http://www.w3.org/2000/svg">
<g opacity="0.2">
<path d="M123.1 46.2L125.8 42.7L123.7 38.8L127.9 40.3L131 37.1L130.9 41.5L134.9 43.4L130.6 44.6L130 49L127.5 45.3L123.1 46.2ZM126.1 40.9L127.2 42.9L125.8 44.7L128 44.3L129.3 46.1L129.6 43.9L131.7 43.3L129.7 42.3L129.8 40.1L128.3 41.7L126.1 40.9Z" fill="white"/>
<path d="M72.2 23.6L71.1 20.4L67.7 20L70.5 18L69.8 14.7L72.6 16.7L75.6 15L74.6 18.3L77.1 20.6H73.7L72.2 23.6ZM72 19.3L72.4 20.4L72.9 19.3H74.1L73.2 18.5L73.6 17.3L72.6 17.9L71.6 17.2L71.9 18.4L70.9 19.1L72 19.3Z" fill="white"/>
<path d="M18.2 0L21.2 8.2L29.9 8.9L23 14.3L25 22.8L17.8 17.8L10.3 22.4L12.8 14L6.09998 8.3L14.9 8.1L18.2 0Z" fill="white"/>
<path d="M70.8 90.1L71.9 81L64 76.2L73 74.4L75.1 65.5L79.6 73.5L88.7 72.7L82.5 79.4L86.1 87.8L77.7 84L70.8 90.1ZM73.1 80.4L72.3 87.3L77.6 82.7L83.9 85.6L81.2 79.2L85.9 74.1L79 74.7L75.6 68.6L74 75.4L67.2 76.7L73.1 80.4Z" fill="white"/>
<path d="M95.2 42.5L93.4 46.8L96.7 50.2L92 49.9L89.8 54.1L88.7 49.5L84 48.7L88 46.2L87.4 41.5L91 44.5L95.2 42.5Z" fill="white"/>
<path d="M31.5 76.4L36.9 76.5L39.2 71.6L40.8 76.8L46.2 77.5L41.7 80.5L42.7 85.9L38.4 82.6L33.6 85.2L35.4 80.1L31.5 76.4Z" fill="white"/>
<path d="M43.8 32.2001L41.9 37.1L45.6 40.7001L40.4 40.5L38.1 45.2001L36.7 40.1L31.5 39.3L35.9 36.5L35.1 31.3L39.1 34.6L43.8 32.2001Z" fill="white"/>
<path d="M108.8 15.8L112.1 16.1L113.7 13.2L114.5 16.4L117.7 17.1L114.9 18.8L115.3 22.1L112.8 19.9L109.8 21.3L111.1 18.3L108.8 15.8Z" fill="white"/>
<path d="M52.2999 51.7L51.7999 53.4L53.0999 54.6H51.2999L50.5999 56.3L50 54.6L48.2 54.4L49.7 53.3L49.2999 51.6L50.7999 52.6L52.2999 51.7Z" fill="white"/>
<path d="M115.1 63.3L116.7 63.1L117.1 61.5L117.8 63L119.4 62.9L118.3 64L118.9 65.5L117.4 64.8L116.2 65.8L116.4 64.2L115.1 63.3Z" fill="white"/>
<path d="M91.7 98.3L90.6 101.8L93.3 104.2H89.7L88.3 107.5L87.1 104.1L83.5 103.7L86.4 101.6L85.7 98.1L88.6 100.2L91.7 98.3Z" fill="white"/>
<path d="M0 50.2L2.7 46.4L0.2 42.3L4.7 43.7L7.8 40.1L7.9 44.8L12.3 46.6L7.8 48.2L7.4 52.9L4.6 49.2L0 50.2Z" fill="white"/>
</g>
</svg>
