<svg width="64" height="55" viewBox="0 0 64 55" fill="none" xmlns="http://www.w3.org/2000/svg">
<path d="M55.7543 28.2588C54.1461 26.3935 51.5185 25.9579 49.1964 26.2492C44.9939 26.7631 41.0909 28.814 38.0175 31.7415C38.2226 31.2936 38.4072 30.7911 38.6123 30.3431C39.5726 27.8478 40.7621 25.051 40.8247 22.3253C40.9448 18.6775 38.2842 15.9239 34.8238 15.0166C31.2503 14.0576 27.672 15.3992 25.0229 17.7985C22.8222 19.8162 21.4372 22.3428 20.4498 25.0966C20.3182 19.7081 18.7889 14.0859 13.4727 14.0447C9.93429 14.0048 7.09369 16.7228 5.70914 19.7463C3.89374 23.6112 3.93545 28.1006 4.1139 32.2914C4.15204 32.8056 5.4915 32.9674 5.47396 32.5078C5.25297 26.7171 5.30279 17.3477 12.1412 15.0605C20.0205 12.3921 19.3563 27.9825 18.5687 32.0922C18.4938 32.5546 19.8367 32.8084 19.9288 32.3086C20.8772 28.0468 21.8734 23.5811 24.5728 20.076C26.9028 17.079 30.8019 14.4392 34.7765 15.7174C38.8435 16.9928 39.9704 20.8052 39.0593 24.5874C37.9364 29.1305 35.9365 33.4979 33.628 37.5433C33.3681 38.0113 34.7146 38.3569 34.9026 37.9463C37.474 33.0279 41.8618 29.1219 47.2074 27.5058C49.0566 26.9528 51.2415 26.4632 53.1091 27.3636C54.8637 28.2122 55.6531 29.9735 55.391 31.8403C54.9142 34.8731 53.1768 37.8705 51.4766 40.3883C49.691 43.0927 47.5627 45.5499 45.3931 47.8979C44.8763 48.4289 44.3802 49.0145 43.8634 49.5455C43.6684 49.7722 42.6283 51.1473 42.2584 51.1586L42.9544 51.9288C43.9612 51.6222 44.7309 50.4394 45.4085 49.7563C46.7431 48.3354 48.0777 46.9146 49.2992 45.442C51.6739 42.6461 53.8189 39.6547 55.3573 36.2952C56.4272 33.7597 57.7705 30.627 55.7543 28.2588Z" fill="white"/>
<path d="M12.0431 20.2536C11.9677 20.2191 11.8923 20.1845 11.8169 20.15C11.8441 19.8915 11.241 19.6153 10.8539 19.6639C9.54911 19.9243 8.34072 20.7708 8.20837 22.1551C8.05543 23.4849 8.97106 24.6718 10.2421 24.983C11.3831 25.2796 12.7598 24.9618 13.3102 23.8592C13.9804 22.4954 13.0371 21.07 12.0431 20.2536ZM10.3237 24.2075C9.60396 23.7876 9.41459 22.7075 9.64688 22.0011C9.82439 21.3147 10.3411 20.7837 10.9609 20.5257L10.9986 20.5429C11.6293 21.0575 12.1575 21.7961 12.1891 22.6233C12.2035 23.4879 11.3278 24.8028 10.3237 24.2075Z" fill="white"/>
<path d="M32.6907 23.6579C32.7249 23.5832 32.6837 23.474 32.55 23.3677C31.4599 22.4621 29.5897 22.4636 28.5733 23.4883C27.5569 24.513 28.0206 25.9897 29.0866 26.7487C30.1149 27.4905 31.7659 27.5693 32.5974 26.5502C33.3434 25.7178 33.3526 24.5028 32.6907 23.6579ZM30.1481 26.4221C29.5038 26.0367 29.1948 25.2179 29.4271 24.5114C29.6629 23.8969 30.3988 23.2857 31.0909 23.4671C31.0637 23.7256 31.3105 23.8838 31.5367 23.9873L31.5743 24.0046C32.0618 25.1309 31.3443 27.1956 30.1481 26.4221Z" fill="white"/>
<path d="M50.8638 33.0635C50.8261 33.0462 50.7884 33.029 50.7507 33.0117C50.0954 31.8537 48.5228 31.4045 47.2626 31.866C45.893 32.3677 45.4972 34.1281 46.2826 35.3006C47.0681 36.473 48.8016 36.7701 50.0823 36.3632C51.5993 35.8387 52.3308 34.1417 50.8638 33.0635ZM47.495 35.0429C47.1759 34.4453 47.182 33.6353 47.548 33.0352C48.0029 32.3405 48.9378 32.0913 49.4147 32.9418C49.473 33.0137 49.5313 33.0855 49.6444 33.1373C49.665 33.1919 49.6685 33.2838 49.8193 33.3528C51.516 34.6265 48.5518 37.017 47.495 35.0429Z" fill="white"/>
<path d="M13.8088 10.7217C14.0315 10.7333 14.2165 10.7277 14.3808 10.6675C14.7301 10.6017 15.0177 10.3721 15.1373 10.1108C15.3188 10.0133 15.5173 9.87844 15.6199 9.65448C15.8763 9.09456 15.6291 8.43949 15.1149 8.06859C14.8853 7.87311 14.5289 7.75509 14.1932 7.69165C13.6961 7.28343 12.8739 7.08751 12.3159 7.50934C11.8846 7.8537 11.6865 8.48547 11.7076 9.03697C11.8045 10.1199 12.7744 10.7898 13.8088 10.7217Z" fill="white"/>
<path d="M37.5824 12.5772C37.6135 12.9075 37.7713 13.1604 37.9633 13.3386C38.0422 13.465 38.1211 13.5915 38.2171 13.6806C38.2377 13.7352 38.2377 13.7352 38.2583 13.7898C38.4709 14.0226 38.793 14.2153 39.1117 14.316C39.1494 14.3333 39.1871 14.3505 39.1871 14.3505C39.6771 14.5749 40.3999 14.5898 40.7934 14.2282C41.3479 13.7145 41.1967 13.1485 40.8263 12.6628C40.7505 12.1314 40.3665 11.7749 39.9313 11.5305C39.6845 11.3723 39.3658 11.2716 39.0849 11.1881C38.8793 11.1391 38.5094 11.1503 38.3862 11.3197C38.3691 11.357 38.2973 11.4144 38.2802 11.4517C37.8625 11.6668 37.5443 12.063 37.5824 12.5772Z" fill="white"/>
<path d="M61.4119 27.0565C61.3873 26.4131 60.9074 25.9675 60.3078 25.7833C59.763 25.5789 59.0231 25.6014 58.5541 25.9285C58.3898 25.9887 58.246 26.1035 58.1399 26.2355C57.7805 26.5225 57.5925 26.9331 57.7437 27.4991C58.118 28.5736 59.7968 28.8907 60.704 28.4031C61.1559 28.1133 61.4329 27.608 61.4119 27.0565Z" fill="white"/>
</svg>
