<svg width="124" height="43" viewBox="0 0 124 43" fill="none" xmlns="http://www.w3.org/2000/svg">
<path d="M1 2C1.55228 2 2 1.55228 2 1C2 0.447715 1.55228 0 1 0C0.447715 0 0 0.447715 0 1C0 1.55228 0.447715 2 1 2Z" fill="white"/>
<path d="M11.2 2C11.7523 2 12.2 1.55228 12.2 1C12.2 0.447715 11.7523 0 11.2 0C10.6477 0 10.2 0.447715 10.2 1C10.2 1.55228 10.6477 2 11.2 2Z" fill="white"/>
<path d="M21.3 2C21.8523 2 22.3 1.55228 22.3 1C22.3 0.447715 21.8523 0 21.3 0C20.7477 0 20.3 0.447715 20.3 1C20.3 1.55228 20.7477 2 21.3 2Z" fill="white"/>
<path d="M31.5 2C32.0523 2 32.5 1.55228 32.5 1C32.5 0.447715 32.0523 0 31.5 0C30.9477 0 30.5 0.447715 30.5 1C30.5 1.55228 30.9477 2 31.5 2Z" fill="white"/>
<path d="M41.6 2C42.1523 2 42.6 1.55228 42.6 1C42.6 0.447715 42.1523 0 41.6 0C41.0477 0 40.6 0.447715 40.6 1C40.6 1.55228 41.0477 2 41.6 2Z" fill="white"/>
<path d="M51.8 2C52.3523 2 52.8 1.55228 52.8 1C52.8 0.447715 52.3523 0 51.8 0C51.2477 0 50.8 0.447715 50.8 1C50.8 1.55228 51.2477 2 51.8 2Z" fill="white"/>
<path d="M61.9 2C62.4523 2 62.9 1.55228 62.9 1C62.9 0.447715 62.4523 0 61.9 0C61.3477 0 60.9 0.447715 60.9 1C60.9 1.55228 61.3477 2 61.9 2Z" fill="white"/>
<path d="M72.1 2C72.6523 2 73.1 1.55228 73.1 1C73.1 0.447715 72.6523 0 72.1 0C71.5477 0 71.1 0.447715 71.1 1C71.1 1.55228 71.5477 2 72.1 2Z" fill="white"/>
<path d="M82.2 2C82.7523 2 83.2 1.55228 83.2 1C83.2 0.447715 82.7523 0 82.2 0C81.6477 0 81.2 0.447715 81.2 1C81.2 1.55228 81.6477 2 82.2 2Z" fill="white"/>
<path d="M92.3 2C92.8523 2 93.3 1.55228 93.3 1C93.3 0.447715 92.8523 0 92.3 0C91.7477 0 91.3 0.447715 91.3 1C91.3 1.55228 91.7477 2 92.3 2Z" fill="white"/>
<path d="M102.5 2C103.052 2 103.5 1.55228 103.5 1C103.5 0.447715 103.052 0 102.5 0C101.948 0 101.5 0.447715 101.5 1C101.5 1.55228 101.948 2 102.5 2Z" fill="white"/>
<path d="M112.6 2C113.152 2 113.6 1.55228 113.6 1C113.6 0.447715 113.152 0 112.6 0C112.048 0 111.6 0.447715 111.6 1C111.6 1.55228 112.048 2 112.6 2Z" fill="white"/>
<path d="M122.8 2C123.352 2 123.8 1.55228 123.8 1C123.8 0.447715 123.352 0 122.8 0C122.248 0 121.8 0.447715 121.8 1C121.8 1.55228 122.248 2 122.8 2Z" fill="white"/>
<path d="M1 12.2C1.55228 12.2 2 11.7523 2 11.2C2 10.6477 1.55228 10.2 1 10.2C0.447715 10.2 0 10.6477 0 11.2C0 11.7523 0.447715 12.2 1 12.2Z" fill="white"/>
<path d="M11.2 12.2C11.7523 12.2 12.2 11.7523 12.2 11.2C12.2 10.6477 11.7523 10.2 11.2 10.2C10.6477 10.2 10.2 10.6477 10.2 11.2C10.2 11.7523 10.6477 12.2 11.2 12.2Z" fill="white"/>
<path d="M21.3 12.2C21.8523 12.2 22.3 11.7523 22.3 11.2C22.3 10.6477 21.8523 10.2 21.3 10.2C20.7477 10.2 20.3 10.6477 20.3 11.2C20.3 11.7523 20.7477 12.2 21.3 12.2Z" fill="white"/>
<path d="M31.5 12.2C32.0523 12.2 32.5 11.7523 32.5 11.2C32.5 10.6477 32.0523 10.2 31.5 10.2C30.9477 10.2 30.5 10.6477 30.5 11.2C30.5 11.7523 30.9477 12.2 31.5 12.2Z" fill="white"/>
<path d="M41.6 12.2C42.1523 12.2 42.6 11.7523 42.6 11.2C42.6 10.6477 42.1523 10.2 41.6 10.2C41.0477 10.2 40.6 10.6477 40.6 11.2C40.6 11.7523 41.0477 12.2 41.6 12.2Z" fill="white"/>
<path d="M51.8 12.2C52.3523 12.2 52.8 11.7523 52.8 11.2C52.8 10.6477 52.3523 10.2 51.8 10.2C51.2477 10.2 50.8 10.6477 50.8 11.2C50.8 11.7523 51.2477 12.2 51.8 12.2Z" fill="white"/>
<path d="M61.9 12.2C62.4523 12.2 62.9 11.7523 62.9 11.2C62.9 10.6477 62.4523 10.2 61.9 10.2C61.3477 10.2 60.9 10.6477 60.9 11.2C60.9 11.7523 61.3477 12.2 61.9 12.2Z" fill="white"/>
<path d="M72.1 12.2C72.6523 12.2 73.1 11.7523 73.1 11.2C73.1 10.6477 72.6523 10.2 72.1 10.2C71.5477 10.2 71.1 10.6477 71.1 11.2C71.1 11.7523 71.5477 12.2 72.1 12.2Z" fill="white"/>
<path d="M82.2 12.2C82.7523 12.2 83.2 11.7523 83.2 11.2C83.2 10.6477 82.7523 10.2 82.2 10.2C81.6477 10.2 81.2 10.6477 81.2 11.2C81.2 11.7523 81.6477 12.2 82.2 12.2Z" fill="white"/>
<path d="M92.3 12.2C92.8523 12.2 93.3 11.7523 93.3 11.2C93.3 10.6477 92.8523 10.2 92.3 10.2C91.7477 10.2 91.3 10.6477 91.3 11.2C91.3 11.7523 91.7477 12.2 92.3 12.2Z" fill="white"/>
<path d="M102.5 12.2C103.052 12.2 103.5 11.7523 103.5 11.2C103.5 10.6477 103.052 10.2 102.5 10.2C101.948 10.2 101.5 10.6477 101.5 11.2C101.5 11.7523 101.948 12.2 102.5 12.2Z" fill="white"/>
<path d="M112.6 12.2C113.152 12.2 113.6 11.7523 113.6 11.2C113.6 10.6477 113.152 10.2 112.6 10.2C112.048 10.2 111.6 10.6477 111.6 11.2C111.6 11.7523 112.048 12.2 112.6 12.2Z" fill="white"/>
<path d="M122.8 12.2C123.352 12.2 123.8 11.7523 123.8 11.2C123.8 10.6477 123.352 10.2 122.8 10.2C122.248 10.2 121.8 10.6477 121.8 11.2C121.8 11.7523 122.248 12.2 122.8 12.2Z" fill="white"/>
<path d="M1 22.3C1.55228 22.3 2 21.8523 2 21.3C2 20.7477 1.55228 20.3 1 20.3C0.447715 20.3 0 20.7477 0 21.3C0 21.8523 0.447715 22.3 1 22.3Z" fill="white"/>
<path d="M11.2 22.3C11.7523 22.3 12.2 21.8523 12.2 21.3C12.2 20.7477 11.7523 20.3 11.2 20.3C10.6477 20.3 10.2 20.7477 10.2 21.3C10.2 21.8523 10.6477 22.3 11.2 22.3Z" fill="white"/>
<path d="M21.3 22.3C21.8523 22.3 22.3 21.8523 22.3 21.3C22.3 20.7477 21.8523 20.3 21.3 20.3C20.7477 20.3 20.3 20.7477 20.3 21.3C20.3 21.8523 20.7477 22.3 21.3 22.3Z" fill="white"/>
<path d="M31.5 22.3C32.0523 22.3 32.5 21.8523 32.5 21.3C32.5 20.7477 32.0523 20.3 31.5 20.3C30.9477 20.3 30.5 20.7477 30.5 21.3C30.5 21.8523 30.9477 22.3 31.5 22.3Z" fill="white"/>
<path d="M41.6 22.3C42.1523 22.3 42.6 21.8523 42.6 21.3C42.6 20.7477 42.1523 20.3 41.6 20.3C41.0477 20.3 40.6 20.7477 40.6 21.3C40.6 21.8523 41.0477 22.3 41.6 22.3Z" fill="white"/>
<path d="M51.8 22.3C52.3523 22.3 52.8 21.8523 52.8 21.3C52.8 20.7477 52.3523 20.3 51.8 20.3C51.2477 20.3 50.8 20.7477 50.8 21.3C50.8 21.8523 51.2477 22.3 51.8 22.3Z" fill="white"/>
<path d="M61.9 22.3C62.4523 22.3 62.9 21.8523 62.9 21.3C62.9 20.7477 62.4523 20.3 61.9 20.3C61.3477 20.3 60.9 20.7477 60.9 21.3C60.9 21.8523 61.3477 22.3 61.9 22.3Z" fill="white"/>
<path d="M72.1 22.3C72.6523 22.3 73.1 21.8523 73.1 21.3C73.1 20.7477 72.6523 20.3 72.1 20.3C71.5477 20.3 71.1 20.7477 71.1 21.3C71.1 21.8523 71.5477 22.3 72.1 22.3Z" fill="white"/>
<path d="M82.2 22.3C82.7523 22.3 83.2 21.8523 83.2 21.3C83.2 20.7477 82.7523 20.3 82.2 20.3C81.6477 20.3 81.2 20.7477 81.2 21.3C81.2 21.8523 81.6477 22.3 82.2 22.3Z" fill="white"/>
<path d="M92.3 22.3C92.8523 22.3 93.3 21.8523 93.3 21.3C93.3 20.7477 92.8523 20.3 92.3 20.3C91.7477 20.3 91.3 20.7477 91.3 21.3C91.3 21.8523 91.7477 22.3 92.3 22.3Z" fill="white"/>
<path d="M102.5 22.3C103.052 22.3 103.5 21.8523 103.5 21.3C103.5 20.7477 103.052 20.3 102.5 20.3C101.948 20.3 101.5 20.7477 101.5 21.3C101.5 21.8523 101.948 22.3 102.5 22.3Z" fill="white"/>
<path d="M112.6 22.3C113.152 22.3 113.6 21.8523 113.6 21.3C113.6 20.7477 113.152 20.3 112.6 20.3C112.048 20.3 111.6 20.7477 111.6 21.3C111.6 21.8523 112.048 22.3 112.6 22.3Z" fill="white"/>
<path d="M122.8 22.3C123.352 22.3 123.8 21.8523 123.8 21.3C123.8 20.7477 123.352 20.3 122.8 20.3C122.248 20.3 121.8 20.7477 121.8 21.3C121.8 21.8523 122.248 22.3 122.8 22.3Z" fill="white"/>
<path d="M1 32.5C1.55228 32.5 2 32.0523 2 31.5C2 30.9477 1.55228 30.5 1 30.5C0.447715 30.5 0 30.9477 0 31.5C0 32.0523 0.447715 32.5 1 32.5Z" fill="white"/>
<path d="M11.2 32.5C11.7523 32.5 12.2 32.0523 12.2 31.5C12.2 30.9477 11.7523 30.5 11.2 30.5C10.6477 30.5 10.2 30.9477 10.2 31.5C10.2 32.0523 10.6477 32.5 11.2 32.5Z" fill="white"/>
<path d="M21.3 32.5C21.8523 32.5 22.3 32.0523 22.3 31.5C22.3 30.9477 21.8523 30.5 21.3 30.5C20.7477 30.5 20.3 30.9477 20.3 31.5C20.3 32.0523 20.7477 32.5 21.3 32.5Z" fill="white"/>
<path d="M31.5 32.5C32.0523 32.5 32.5 32.0523 32.5 31.5C32.5 30.9477 32.0523 30.5 31.5 30.5C30.9477 30.5 30.5 30.9477 30.5 31.5C30.5 32.0523 30.9477 32.5 31.5 32.5Z" fill="white"/>
<path d="M41.6 32.5C42.1523 32.5 42.6 32.0523 42.6 31.5C42.6 30.9477 42.1523 30.5 41.6 30.5C41.0477 30.5 40.6 30.9477 40.6 31.5C40.6 32.0523 41.0477 32.5 41.6 32.5Z" fill="white"/>
<path d="M51.8 32.5C52.3523 32.5 52.8 32.0523 52.8 31.5C52.8 30.9477 52.3523 30.5 51.8 30.5C51.2477 30.5 50.8 30.9477 50.8 31.5C50.8 32.0523 51.2477 32.5 51.8 32.5Z" fill="white"/>
<path d="M61.9 32.5C62.4523 32.5 62.9 32.0523 62.9 31.5C62.9 30.9477 62.4523 30.5 61.9 30.5C61.3477 30.5 60.9 30.9477 60.9 31.5C60.9 32.0523 61.3477 32.5 61.9 32.5Z" fill="white"/>
<path d="M72.1 32.5C72.6523 32.5 73.1 32.0523 73.1 31.5C73.1 30.9477 72.6523 30.5 72.1 30.5C71.5477 30.5 71.1 30.9477 71.1 31.5C71.1 32.0523 71.5477 32.5 72.1 32.5Z" fill="white"/>
<path d="M82.2 32.5C82.7523 32.5 83.2 32.0523 83.2 31.5C83.2 30.9477 82.7523 30.5 82.2 30.5C81.6477 30.5 81.2 30.9477 81.2 31.5C81.2 32.0523 81.6477 32.5 82.2 32.5Z" fill="white"/>
<path d="M92.3 32.5C92.8523 32.5 93.3 32.0523 93.3 31.5C93.3 30.9477 92.8523 30.5 92.3 30.5C91.7477 30.5 91.3 30.9477 91.3 31.5C91.3 32.0523 91.7477 32.5 92.3 32.5Z" fill="white"/>
<path d="M102.5 32.5C103.052 32.5 103.5 32.0523 103.5 31.5C103.5 30.9477 103.052 30.5 102.5 30.5C101.948 30.5 101.5 30.9477 101.5 31.5C101.5 32.0523 101.948 32.5 102.5 32.5Z" fill="white"/>
<path d="M112.6 32.5C113.152 32.5 113.6 32.0523 113.6 31.5C113.6 30.9477 113.152 30.5 112.6 30.5C112.048 30.5 111.6 30.9477 111.6 31.5C111.6 32.0523 112.048 32.5 112.6 32.5Z" fill="white"/>
<path d="M122.8 32.5C123.352 32.5 123.8 32.0523 123.8 31.5C123.8 30.9477 123.352 30.5 122.8 30.5C122.248 30.5 121.8 30.9477 121.8 31.5C121.8 32.0523 122.248 32.5 122.8 32.5Z" fill="white"/>
<path d="M1 42.6C1.55228 42.6 2 42.1523 2 41.6C2 41.0477 1.55228 40.6 1 40.6C0.447715 40.6 0 41.0477 0 41.6C0 42.1523 0.447715 42.6 1 42.6Z" fill="white"/>
<path d="M11.2 42.6C11.7523 42.6 12.2 42.1523 12.2 41.6C12.2 41.0477 11.7523 40.6 11.2 40.6C10.6477 40.6 10.2 41.0477 10.2 41.6C10.2 42.1523 10.6477 42.6 11.2 42.6Z" fill="white"/>
<path d="M21.3 42.6C21.8523 42.6 22.3 42.1523 22.3 41.6C22.3 41.0477 21.8523 40.6 21.3 40.6C20.7477 40.6 20.3 41.0477 20.3 41.6C20.3 42.1523 20.7477 42.6 21.3 42.6Z" fill="white"/>
<path d="M31.5 42.6C32.0523 42.6 32.5 42.1523 32.5 41.6C32.5 41.0477 32.0523 40.6 31.5 40.6C30.9477 40.6 30.5 41.0477 30.5 41.6C30.5 42.1523 30.9477 42.6 31.5 42.6Z" fill="white"/>
<path d="M41.6 42.6C42.1523 42.6 42.6 42.1523 42.6 41.6C42.6 41.0477 42.1523 40.6 41.6 40.6C41.0477 40.6 40.6 41.0477 40.6 41.6C40.6 42.1523 41.0477 42.6 41.6 42.6Z" fill="white"/>
<path d="M51.8 42.6C52.3523 42.6 52.8 42.1523 52.8 41.6C52.8 41.0477 52.3523 40.6 51.8 40.6C51.2477 40.6 50.8 41.0477 50.8 41.6C50.8 42.1523 51.2477 42.6 51.8 42.6Z" fill="white"/>
<path d="M61.9 42.6C62.4523 42.6 62.9 42.1523 62.9 41.6C62.9 41.0477 62.4523 40.6 61.9 40.6C61.3477 40.6 60.9 41.0477 60.9 41.6C60.9 42.1523 61.3477 42.6 61.9 42.6Z" fill="white"/>
<path d="M72.1 42.6C72.6523 42.6 73.1 42.1523 73.1 41.6C73.1 41.0477 72.6523 40.6 72.1 40.6C71.5477 40.6 71.1 41.0477 71.1 41.6C71.1 42.1523 71.5477 42.6 72.1 42.6Z" fill="white"/>
<path d="M82.2 42.6C82.7523 42.6 83.2 42.1523 83.2 41.6C83.2 41.0477 82.7523 40.6 82.2 40.6C81.6477 40.6 81.2 41.0477 81.2 41.6C81.2 42.1523 81.6477 42.6 82.2 42.6Z" fill="white"/>
<path d="M92.3 42.6C92.8523 42.6 93.3 42.1523 93.3 41.6C93.3 41.0477 92.8523 40.6 92.3 40.6C91.7477 40.6 91.3 41.0477 91.3 41.6C91.3 42.1523 91.7477 42.6 92.3 42.6Z" fill="white"/>
<path d="M102.5 42.6C103.052 42.6 103.5 42.1523 103.5 41.6C103.5 41.0477 103.052 40.6 102.5 40.6C101.948 40.6 101.5 41.0477 101.5 41.6C101.5 42.1523 101.948 42.6 102.5 42.6Z" fill="white"/>
<path d="M112.6 42.6C113.152 42.6 113.6 42.1523 113.6 41.6C113.6 41.0477 113.152 40.6 112.6 40.6C112.048 40.6 111.6 41.0477 111.6 41.6C111.6 42.1523 112.048 42.6 112.6 42.6Z" fill="white"/>
<path d="M122.8 42.6C123.352 42.6 123.8 42.1523 123.8 41.6C123.8 41.0477 123.352 40.6 122.8 40.6C122.248 40.6 121.8 41.0477 121.8 41.6C121.8 42.1523 122.248 42.6 122.8 42.6Z" fill="white"/>
</svg>
