<svg width="17" height="22" viewBox="0 0 17 22" fill="none" xmlns="http://www.w3.org/2000/svg">
<path fill-rule="evenodd" clip-rule="evenodd" d="M7.98425 22C5.70914 21.6508 3.76999 19.7031 4.70937 15.5695C5.66042 16.9489 6.00653 16.2201 6.00653 16.2201C6.06388 11.5359 9.60976 10.3641 9.60976 10.3641C8.54909 12.759 10.6481 12.8255 10.7917 15.5431C11.6565 15.1011 11.9732 14.6063 11.9732 14.6063C14.837 18.4567 12.7141 21.2113 10.0051 21.9183C14.3437 21.3616 18.0738 17.6878 16.2869 9.82464C14.4914 12.4281 13.8387 11.0528 13.8387 11.0528C13.7291 2.21066 7.03726 0 7.03726 0C9.03984 4.52028 5.0768 4.64512 4.8063 9.77541C3.17419 8.94058 2.57585 8.00729 2.57585 8.00729C-3.41617 16.0638 2.15818 21.5808 7.98425 22Z" fill="#CF102D"/>
</svg>
