<svg width="20" height="20" viewBox="0 0 20 20" fill="none" xmlns="http://www.w3.org/2000/svg">
<g clip-path="url(#clip0_2113_6136)">
<path d="M0.586118 13.7239C1.55213 13.7239 2.28366 13.4557 2.82534 13.0614L3.32815 10.5475C3.51002 9.63879 3.92506 8.82336 4.50291 8.15883H4.03112C2.25592 8.15883 0.719204 9.42289 0.377095 11.1644C0.185102 12.14 0.0111571 13.025 0.0111571 13.025C-0.0599367 13.3871 0.217798 13.7239 0.586118 13.7239V13.7239ZM3.47963 15.7657C4.09318 16.1784 4.74645 16.5288 5.42971 16.8115C5.8058 16.967 6.19008 17.1019 6.58084 17.2156L6.64674 16.9476C6.97635 15.605 8.24174 14.2328 10.1364 14.2789C10.138 14.279 10.1395 14.279 10.141 14.279C11.6361 14.317 12.9364 15.3554 13.3039 16.8053L13.4085 17.2186C13.8031 17.1044 14.191 16.9685 14.5705 16.8115C15.3487 16.4891 16.0798 16.084 16.7578 15.6012L15.2719 6.68637L15.5481 6.96242C16.2981 7.71254 17.5107 7.71117 18.2594 6.96242C19.007 6.21492 19.007 4.99863 18.2594 4.25094L16.8621 2.85355V0.585937C16.8621 0.262305 16.5998 0 16.2761 0H15.6063C12.5049 0 10.0002 2.51066 10.0002 5.60609V7.53125H8.4369C6.51889 7.53125 4.8537 8.89629 4.47725 10.7772L3.47963 15.7657Z" fill="#69778A"/>
<path d="M19.8284 15.2341C19.5995 15.0054 19.2286 15.0054 18.9997 15.2341C17.8544 16.3794 16.5151 17.2743 15.0188 17.8941C13.5227 18.5139 11.9427 18.8281 10.3232 18.8281H9.67669C8.05712 18.8281 6.47735 18.5139 4.9811 17.8941C3.48497 17.2743 2.14556 16.3794 1.00036 15.2341C0.771455 15.0054 0.400557 15.0054 0.17165 15.2341C-0.0572168 15.463 -0.0572168 15.8339 0.17165 16.0628C1.42626 17.3175 2.89353 18.2979 4.53263 18.9769C6.17177 19.6557 7.90263 20 9.67673 20H10.3232C12.0975 20 13.8282 19.6557 15.4673 18.9768C17.1063 18.2979 18.5736 17.3174 19.8284 16.0628C20.0571 15.8339 20.0572 15.463 19.8284 15.2341Z" fill="#69778A"/>
</g>
<defs>
<clipPath id="clip0_2113_6136">
<rect width="20" height="20" fill="white"/>
</clipPath>
</defs>
</svg>
