<svg width="17" height="20" viewBox="0 0 17 20" fill="none" xmlns="http://www.w3.org/2000/svg">
<path d="M13.8732 3.95341C14.1307 3.79032 14.3505 3.57415 14.5179 3.31933C14.6852 3.06452 14.7963 2.77693 14.8436 2.47578C14.891 2.17462 14.8735 1.86683 14.7925 1.57296C14.7114 1.27908 14.5685 1.00589 14.3734 0.77163C14.1783 0.537367 13.9355 0.347423 13.6612 0.214484C13.3868 0.081545 13.0873 0.00867057 12.7825 0.000727569C12.4778 -0.00721544 12.1749 0.0499557 11.894 0.168423C11.6131 0.286891 11.3607 0.463927 11.1537 0.68771C12.4441 1.38879 13.4172 2.55734 13.8732 3.95341ZM2.99798 3.95341C3.45389 2.55734 4.427 1.38879 5.71749 0.68771C5.51047 0.463927 5.25808 0.286891 4.97719 0.168423C4.69629 0.0499557 4.39335 -0.00721544 4.0886 0.000727569C3.78385 0.00867057 3.4843 0.081545 3.20996 0.214484C2.93561 0.347423 2.69279 0.537367 2.49771 0.77163C2.30263 1.00589 2.15977 1.27908 2.07869 1.57296C1.9976 1.86683 1.98015 2.17462 2.0275 2.47578C2.07485 2.77693 2.18591 3.06452 2.35327 3.31933C2.52062 3.57415 2.74042 3.79032 2.99798 3.95341ZM14.9605 9.81674C14.491 9.33619 13.9301 8.95433 13.3109 8.69361C13.1575 8.94615 12.9848 9.18648 12.7944 9.41245C13.6668 10.6542 14.2306 12.0861 14.439 13.5893C15.0681 13.7623 15.6276 13.699 15.9714 13.3552C16.6695 12.6571 16.217 11.0732 14.9605 9.81674ZM2.43213 13.5893C2.64051 12.0861 3.20432 10.6542 4.07677 9.41245C3.88637 9.18648 3.71369 8.94615 3.56025 8.69361C2.94106 8.95423 2.38019 9.33596 1.9106 9.81638C0.654148 11.0728 0.201611 12.6571 0.899362 13.3552C1.24359 13.699 1.80301 13.7627 2.43213 13.5893Z" fill="#69778A"/>
<path d="M3.4314 5.71853C3.4314 6.7083 3.7249 7.67584 4.27478 8.49881C4.82467 9.32177 5.60624 9.96319 6.52067 10.342C7.4351 10.7207 8.44131 10.8198 9.41206 10.6267C10.3828 10.4336 11.2745 9.95702 11.9744 9.25715C12.6742 8.55728 13.1509 7.66559 13.344 6.69483C13.5371 5.72408 13.438 4.71787 13.0592 3.80345C12.6804 2.88902 12.039 2.10745 11.216 1.55756C10.3931 1.00767 9.42553 0.714172 8.43576 0.714172C7.10852 0.714172 5.83564 1.24142 4.89714 2.17992C3.95864 3.11841 3.4314 4.39129 3.4314 5.71853ZM10.9379 4.64617C11.0086 4.64617 11.0777 4.66713 11.1365 4.70641C11.1953 4.74569 11.2411 4.80152 11.2682 4.86683C11.2952 4.93215 11.3023 5.00402 11.2885 5.07336C11.2747 5.1427 11.2407 5.20639 11.1907 5.25638C11.1407 5.30637 11.077 5.34042 11.0077 5.35421C10.9383 5.368 10.8665 5.36092 10.8011 5.33387C10.7358 5.30681 10.68 5.261 10.6407 5.20221C10.6014 5.14343 10.5805 5.07432 10.5805 5.00362C10.5805 4.90882 10.6181 4.8179 10.6852 4.75086C10.7522 4.68383 10.8431 4.64617 10.9379 4.64617ZM8.43576 6.07599C8.87757 6.07599 10.223 6.07599 10.223 7.14835C10.1884 7.61087 9.98896 8.04561 9.66099 8.37358C9.33302 8.70155 8.89828 8.90098 8.43576 8.93562C7.97324 8.90098 7.53849 8.70155 7.21052 8.37358C6.88256 8.04561 6.68313 7.61087 6.64848 7.14835C6.64848 6.07599 7.99394 6.07599 8.43576 6.07599ZM5.93358 4.64617C6.00427 4.64617 6.07338 4.66713 6.13217 4.70641C6.19095 4.74569 6.23677 4.80152 6.26382 4.86683C6.29088 4.93215 6.29795 5.00402 6.28416 5.07336C6.27037 5.1427 6.23633 5.20639 6.18634 5.25638C6.13634 5.30637 6.07265 5.34042 6.00331 5.35421C5.93397 5.368 5.8621 5.36092 5.79678 5.33387C5.73147 5.30681 5.67564 5.261 5.63636 5.20221C5.59709 5.14343 5.57612 5.07432 5.57612 5.00362C5.57612 4.90882 5.61378 4.8179 5.68082 4.75086C5.74785 4.68383 5.83877 4.64617 5.93358 4.64617Z" fill="#69778A"/>
<path d="M8.4354 8.22068C8.70902 8.18942 8.96399 8.06639 9.15873 7.87165C9.35347 7.67691 9.4765 7.42194 9.50776 7.14832C9.50776 7.04108 9.50776 6.79086 8.4354 6.79086C7.36304 6.79086 7.36304 7.04108 7.36304 7.14832C7.3943 7.42194 7.51733 7.67691 7.71207 7.87165C7.90681 8.06639 8.16178 8.18942 8.4354 8.22068Z" fill="#69778A"/>
<path d="M13.0825 20.0167C14.267 20.0167 15.2272 19.0565 15.2272 17.872C15.2272 16.6875 14.267 15.7272 13.0825 15.7272C11.898 15.7272 10.9377 16.6875 10.9377 17.872C10.9377 19.0565 11.898 20.0167 13.0825 20.0167Z" fill="#69778A"/>
<path d="M13.0825 15.0123C13.3167 15.0133 13.55 15.0432 13.777 15.1013C13.787 14.9548 13.7974 14.8086 13.7974 14.6549C13.7705 12.9655 13.2489 11.321 12.2971 9.92505C11.2464 10.8976 9.86731 11.4378 8.43554 11.4378C7.00378 11.4378 5.62473 10.8976 4.57397 9.92505C3.62215 11.321 3.10056 12.9655 3.07373 14.6549C3.07373 14.8086 3.08445 14.9548 3.09411 15.1013C3.63987 14.9629 4.2144 14.9891 4.74533 15.1765C5.27627 15.364 5.73986 15.7043 6.07772 16.1547C6.41558 16.6052 6.6126 17.1455 6.64397 17.7077C6.67534 18.2698 6.53966 18.8287 6.254 19.3139C7.67195 19.7742 9.19914 19.7742 10.6171 19.3139C10.3617 18.88 10.2256 18.3863 10.2227 17.8828C10.2198 17.3793 10.3501 16.884 10.6005 16.4471C10.8508 16.0103 11.2123 15.6475 11.6482 15.3955C12.0841 15.1435 12.579 15.0113 13.0825 15.0123Z" fill="#69778A"/>
<path d="M3.78877 20.0167C4.97327 20.0167 5.93349 19.0565 5.93349 17.872C5.93349 16.6875 4.97327 15.7272 3.78877 15.7272C2.60427 15.7272 1.64404 16.6875 1.64404 17.872C1.64404 19.0565 2.60427 20.0167 3.78877 20.0167Z" fill="#69778A"/>
</svg>
