<svg width="20" height="20" viewBox="0 0 20 20" fill="none" xmlns="http://www.w3.org/2000/svg">
<path d="M6.13749 9.54582H13.8667C14.3667 9.54582 14.775 9.13749 14.775 8.63749V0.908333C14.775 0.408333 14.3667 0 13.8667 0H6.13749C5.63749 0 5.22916 0.408333 5.22916 0.908333V8.63749C5.22916 9.13749 5.63749 9.54582 6.13749 9.54582ZM7.57083 4.0375C7.61666 3.89583 7.72916 3.7875 7.87499 3.74166L8.97499 3.42083L9.62082 2.47083C9.79166 2.225 10.2042 2.225 10.375 2.47083L11.0208 3.42083L12.1208 3.74166C12.2667 3.7875 12.3792 3.89583 12.425 4.0375C12.475 4.18333 12.4458 4.3375 12.3583 4.45416L11.6583 5.3625L11.6875 6.51249C11.6917 6.66249 11.625 6.80416 11.5 6.89166C11.4208 6.94999 11.3292 6.98333 11.2333 6.98333C11.1833 6.98333 11.1333 6.97499 11.0833 6.95416L9.99999 6.56666L8.91666 6.95416C8.77499 7.00416 8.61666 6.98333 8.49999 6.89166C8.37916 6.80416 8.30833 6.66249 8.31249 6.51249L8.34166 5.3625L7.64166 4.45416C7.54999 4.3375 7.52083 4.18333 7.57083 4.0375ZM0.908333 20H8.63749C9.13749 20 9.54582 19.5916 9.54582 19.0916V11.3625C9.54582 10.8625 9.13749 10.4542 8.63749 10.4542H0.908333C0.408333 10.4542 0 10.8625 0 11.3625V19.0916C0 19.5916 0.408333 20 0.908333 20ZM4.77083 12.5C5.4941 12.5 6.18774 12.7873 6.69917 13.2987C7.21059 13.8102 7.49791 14.5038 7.49791 15.2271C7.49791 15.9503 7.21059 16.644 6.69917 17.1554C6.18774 17.6668 5.4941 17.9541 4.77083 17.9541C3.26666 17.9541 2.04583 16.7333 2.04583 15.2292C2.04583 13.7208 3.26666 12.5 4.77083 12.5ZM19.0916 10.4542H11.3625C10.8625 10.4542 10.4542 10.8625 10.4542 11.3625V19.0916C10.4542 19.5916 10.8625 20 11.3625 20H19.0916C19.5916 20 20 19.5916 20 19.0916V11.3625C20 10.8625 19.5916 10.4542 19.0916 10.4542ZM17.4292 17.5167C17.3417 17.65 17.2 17.7291 17.0458 17.7291H13.4083C13.2542 17.7291 13.1125 17.65 13.0292 17.5167C12.9458 17.3917 12.9333 17.2291 12.9958 17.0875L14.8125 12.9958C14.8875 12.8333 15.0458 12.7292 15.2292 12.7292C15.4083 12.7292 15.5667 12.8333 15.6417 12.9958L17.4583 17.0875C17.5208 17.2291 17.5083 17.3917 17.4292 17.5167Z" fill="#69778A"/>
</svg>
