<svg width="20" height="18" viewBox="0 0 20 18" fill="none" xmlns="http://www.w3.org/2000/svg">
<path d="M12.4853 16.4458C12.4853 14.988 11.2993 13.8021 9.84159 13.8021C8.38384 13.8021 7.19789 14.9881 7.19789 16.4458L7.19785 17.9948H12.4853V16.4458ZM7.19785 13.7369C7.88083 13.0702 8.81397 12.6586 9.84159 12.6586C10.8692 12.6586 11.8024 13.0702 12.4853 13.7369V9.77784H7.19785V13.7369ZM6.05439 13.2544V6.27894L1.01267 6.27349V13.2544H6.05439V13.2544ZM1.01267 14.3978H6.05439V18H1.01267V14.3978ZM13.6288 14.3978H18.6705V18H13.6288V14.3978ZM13.6288 13.2544H18.6705V6.27349L13.6288 6.27894V13.2544ZM3.50235 0C2.71554 1.81066 1.50058 3.60002 0.0841064 5.10846H6.93775C5.53744 3.61092 4.28379 1.79328 3.50235 0ZM16.1808 0C16.9676 1.81062 18.1826 3.59998 19.5991 5.10846H12.7454C14.1458 3.61092 15.3994 1.79328 16.1808 0Z" fill="#69778A"/>
</svg>
