<svg width="20" height="20" viewBox="0 0 20 20" fill="none" xmlns="http://www.w3.org/2000/svg">
<path d="M0 0H9.16676V9.16676H0V0ZM18.3333 10.8335H12.5C11.5838 10.8335 10.8333 11.5838 10.8333 12.5V18.3335C10.8333 19.25 11.5838 20 12.5 20H18.3333C19.2498 20 20 19.25 20 18.3335V12.5C20 11.5838 19.2498 10.8335 18.3333 10.8335ZM20 4.58426C20 7.11426 17.9475 9.16676 15.4168 9.16676C12.8858 9.16676 10.8333 7.11426 10.8333 4.58426C10.8333 2.0525 12.8858 0 15.4168 0C17.9475 0 20 2.0525 20 4.58426ZM5.00001 10.8335L0 20H10L5.00001 10.8335Z" fill="#69778A"/>
</svg>
