<svg width="20" height="20" viewBox="0 0 20 20" fill="none" xmlns="http://www.w3.org/2000/svg">
<path d="M5.59549 14.4055L4.11522 12.9252C4.02366 12.8337 3.91496 12.761 3.79532 12.7115C3.67569 12.6619 3.54747 12.6364 3.41798 12.6364C3.28849 12.6364 3.16027 12.6619 3.04064 12.7115C2.92101 12.761 2.81231 12.8337 2.72074 12.9252C2.62918 13.0168 2.55655 13.1255 2.507 13.2451C2.45744 13.3647 2.43194 13.493 2.43194 13.6225C2.43194 13.7519 2.45744 13.8802 2.507 13.9998C2.55655 14.1194 2.62918 14.2281 2.72074 14.3197L3.50378 15.1027L0.289782 18.3167C0.104863 18.5016 0.000976563 18.7524 0.000976562 19.014C0.000976563 19.2755 0.104863 19.5263 0.289782 19.7112C0.474701 19.8961 0.725504 20 0.987019 20C1.24853 20 1.49934 19.8961 1.68426 19.7112L4.89825 16.4972L5.68228 17.2812C5.77365 17.3731 5.88229 17.446 6.00195 17.4958C6.1216 17.5456 6.24992 17.5712 6.37951 17.5712C6.50911 17.5712 6.63742 17.5456 6.75708 17.4958C6.87674 17.446 6.98538 17.3731 7.07675 17.2812C7.16841 17.1897 7.24113 17.081 7.29075 16.9614C7.34036 16.8418 7.3659 16.7135 7.3659 16.584C7.3659 16.4545 7.34036 16.3262 7.29075 16.2066C7.24113 16.0869 7.16841 15.9783 7.07675 15.8867L5.59648 14.4065L5.59549 14.4055ZM18.0797 1.92228C15.3154 -0.842017 10.5876 -0.595469 7.51955 2.47159C4.45151 5.53963 4.20496 10.2674 6.97024 13.0317C9.73454 15.796 14.4623 15.5495 17.5304 12.4824C20.5984 9.41437 20.845 4.68657 18.0797 1.92228ZM17.4791 16.1402C17.2402 16.1347 17.0026 16.1769 16.7802 16.2646C16.5579 16.3522 16.3553 16.4834 16.1844 16.6504C16.0135 16.8175 15.8777 17.017 15.785 17.2373C15.6923 17.4575 15.6446 17.6941 15.6447 17.9331C15.6447 18.1721 15.6926 18.4086 15.7854 18.6289C15.8782 18.8491 16.0141 19.0486 16.1851 19.2155C16.3561 19.3825 16.5587 19.5135 16.7811 19.601C17.0035 19.6885 17.2412 19.7307 17.4801 19.725C17.9482 19.7139 18.3934 19.5201 18.7204 19.1851C19.0475 18.85 19.2306 18.4003 19.2304 17.9321C19.2303 17.4639 19.047 17.0143 18.7197 16.6794C18.3925 16.3446 17.9472 16.151 17.4791 16.1402Z" fill="#69778A"/>
</svg>
