<svg width="20" height="20" viewBox="0 0 20 20" fill="none" xmlns="http://www.w3.org/2000/svg">
<path d="M17.9589 0H12.503C11.6242 0 10.9117 0.712445 10.9117 1.59129V7.04715C10.9117 7.92599 11.6242 8.63844 12.503 8.63844H17.9589C18.8377 8.63844 19.5502 7.92599 19.5502 7.04715V1.59129C19.5502 0.712445 18.8377 0 17.9589 0Z" fill="#69778A"/>
<path d="M19.535 14.1061L16.356 10.9271C16.0573 10.6296 15.6528 10.4626 15.2312 10.4626C14.8096 10.4626 14.4051 10.6296 14.1064 10.9271L10.9275 14.1061C10.6297 14.4047 10.4625 14.8092 10.4625 15.2309C10.4625 15.6526 10.6297 16.0571 10.9275 16.3557L14.1064 19.5347C14.405 19.8324 14.8095 19.9996 15.2312 19.9996C15.6529 19.9996 16.0574 19.8324 16.356 19.5347L19.535 16.3557C19.8329 16.0572 20.0003 15.6527 20.0003 15.2309C20.0003 14.8091 19.8329 14.4046 19.535 14.1061Z" fill="#69778A"/>
<path d="M7.04715 0H1.59129C0.712445 0 0 0.712445 0 1.59129V7.04715C0 7.92599 0.712445 8.63844 1.59129 8.63844H7.04715C7.92599 8.63844 8.63844 7.92599 8.63844 7.04715V1.59129C8.63844 0.712445 7.92599 0 7.04715 0Z" fill="#69778A"/>
<path d="M7.04715 10.9117H1.59129C0.712445 10.9117 0 11.6242 0 12.503V17.9589C0 18.8377 0.712445 19.5502 1.59129 19.5502H7.04715C7.92599 19.5502 8.63844 18.8377 8.63844 17.9589V12.503C8.63844 11.6242 7.92599 10.9117 7.04715 10.9117Z" fill="#69778A"/>
</svg>
