<svg width="237" height="50" viewBox="0 0 237 50" fill="none" xmlns="http://www.w3.org/2000/svg">
<path d="M11.15 40.35C9.35 40.35 7.65 40.0167 6.05 39.35C4.45 38.7167 3.15 37.7333 2.15 36.4C1.18333 35.0667 0.7 33.4 0.7 31.4C0.7 29.6667 1.03333 28.3167 1.7 27.35C2.4 26.3833 3.25 25.7 4.25 25.3C5.25 24.9 6.2 24.7 7.1 24.7C6.2 25.6667 5.51667 26.7333 5.05 27.9C4.58333 29.0667 4.35 30.2333 4.35 31.4C4.35 32.6333 4.61667 33.7833 5.15 34.85C5.71667 35.9167 6.56667 36.7667 7.7 37.4C8.83333 38.0667 10.2667 38.4 12 38.4C13.5 38.4 14.9667 38.1167 16.4 37.55C17.8333 37.0167 19 36.2167 19.9 35.15C20.8333 34.05 21.3 32.7 21.3 31.1C21.3 29.6667 20.9333 28.4333 20.2 27.4C19.4667 26.3667 18.5167 25.45 17.35 24.65C16.2167 23.85 15 23.0833 13.7 22.35C12.4 21.6167 11.1667 20.85 10 20.05C8.86667 19.2167 7.93333 18.2667 7.2 17.2C6.46667 16.1333 6.1 14.85 6.1 13.35C6.1 11.95 6.43333 10.4833 7.1 8.95C7.76667 7.41667 8.71667 5.96667 9.95 4.6C11.2167 3.23333 12.7167 2.13333 14.45 1.3C16.2167 0.433332 18.1833 -1.43051e-06 20.35 -1.43051e-06C22.3167 -1.43051e-06 23.6833 0.483332 24.45 1.45C25.2167 2.38333 25.6 3.56667 25.6 5C25.6 6.2 25.3833 7.5 24.95 8.9C24.55 10.2667 24.05 11.5833 23.45 12.85C22.85 14.0833 22.2833 15.1333 21.75 16C21.15 15.8667 20.7167 15.6167 20.45 15.25C20.2167 14.85 20.1 14.3833 20.1 13.85C20.1 13.15 20.25 12.35 20.55 11.45C20.85 10.55 21.1833 9.61667 21.55 8.65C21.95 7.68333 22.3 6.75 22.6 5.85C22.9 4.91666 23.05 4.08333 23.05 3.35C23.05 2.68333 22.85 2.16667 22.45 1.8C22.05 1.4 21.3167 1.2 20.25 1.2C18.6833 1.2 17.2333 1.56666 15.9 2.3C14.5667 3.03333 13.4 3.98333 12.4 5.15C11.4 6.28333 10.6167 7.48333 10.05 8.75C9.51667 10.0167 9.25 11.1667 9.25 12.2C9.25 13.4333 9.6 14.5 10.3 15.4C11.0333 16.2667 11.9667 17.0667 13.1 17.8C14.2333 18.5 15.4333 19.2167 16.7 19.95C18 20.65 19.2167 21.4333 20.35 22.3C21.4833 23.1667 22.4 24.2 23.1 25.4C23.8333 26.5667 24.2 28 24.2 29.7C24.2 31.4333 23.8167 32.9667 23.05 34.3C22.2833 35.6 21.25 36.7 19.95 37.6C18.6833 38.5 17.2833 39.1833 15.75 39.65C14.2167 40.1167 12.6833 40.35 11.15 40.35ZM24.6566 50C24.39 50 24.14 49.85 23.9066 49.55C23.64 49.2833 23.44 48.9833 23.3066 48.65C23.1733 48.35 23.1066 48.1667 23.1066 48.1C23.5733 46.4667 24.04 45 24.5066 43.7C24.94 42.4333 25.39 41.1167 25.8566 39.75C26.29 38.4167 26.7233 36.85 27.1566 35.05C27.59 33.2167 28.04 30.95 28.5066 28.25C28.9733 25.55 29.44 22.2 29.9066 18.2C29.94 17.9 30.0066 17.6833 30.1066 17.55C30.2066 17.4167 30.4566 17.35 30.8566 17.35C31.7233 17.35 32.34 17.6 32.7066 18.1C33.0733 18.5667 33.2566 19.0833 33.2566 19.65C33.2566 20.1167 33.1566 20.95 32.9566 22.15C32.7566 23.35 32.4733 24.7667 32.1066 26.4C32.6733 25.3 33.3733 24.1833 34.2066 23.05C35.0733 21.9167 36.0566 20.9667 37.1566 20.2C38.2566 19.4333 39.4566 19.05 40.7566 19.05C42.2233 19.05 43.4233 19.5833 44.3566 20.65C45.3233 21.6833 45.8066 23.05 45.8066 24.75C45.8066 26.05 45.5066 27.4333 44.9066 28.9C44.34 30.3333 43.5233 31.7 42.4566 33C41.4233 34.2667 40.19 35.3 38.7566 36.1C37.3233 36.9 35.74 37.3 34.0066 37.3C33.14 37.3 32.44 37.2 31.9066 37C31.3733 36.8 31.1066 36.6 31.1066 36.4C31.1066 36.2667 31.2233 36.1833 31.4566 36.15C31.7233 36.15 32.0233 36.15 32.3566 36.15C33.69 36.15 34.9566 35.8333 36.1566 35.2C37.39 34.5333 38.49 33.6667 39.4566 32.6C40.4233 31.5333 41.1733 30.35 41.7066 29.05C42.2733 27.75 42.5566 26.4667 42.5566 25.2C42.5566 24.1333 42.3233 23.2333 41.8566 22.5C41.4233 21.7333 40.7066 21.35 39.7066 21.35C38.84 21.35 37.9733 21.6333 37.1066 22.2C36.2733 22.7333 35.4733 23.4333 34.7066 24.3C33.9733 25.1333 33.3066 26.0167 32.7066 26.95C32.14 27.85 31.7066 28.6667 31.4066 29.4C30.8066 31.9 30.2066 34.3 29.6066 36.6C29.0066 38.9333 28.4233 41.0333 27.8566 42.9C27.3233 44.8 26.84 46.35 26.4066 47.55C25.94 48.75 25.5566 49.4833 25.2566 49.75C25.09 49.9167 24.89 50 24.6566 50ZM52.7379 38.2C50.7046 38.2 49.1712 37.6333 48.1379 36.5C47.1379 35.4 46.6379 34.0333 46.6379 32.4C46.6379 30.9 47.0046 29.3167 47.7379 27.65C48.5046 25.9833 49.5046 24.4167 50.7379 22.95C52.0046 21.4833 53.3879 20.3 54.8879 19.4C56.3879 18.4667 57.8712 18 59.3379 18C60.1046 18 60.8046 18.2 61.4379 18.6C62.1046 19 62.4379 19.8167 62.4379 21.05C62.4379 22.3167 62.0546 23.5167 61.2879 24.65C60.5546 25.75 59.5712 26.7333 58.3379 27.6C57.1379 28.4667 55.8046 29.1833 54.3379 29.75C52.9046 30.2833 51.4712 30.6167 50.0379 30.75C49.9712 31.0833 49.9212 31.4 49.8879 31.7C49.8546 32 49.8379 32.2833 49.8379 32.55C49.8379 33.05 49.8879 33.55 49.9879 34.05C50.1212 34.55 50.3379 35.0167 50.6379 35.45C50.9379 35.85 51.3379 36.1667 51.8379 36.4C52.3712 36.6333 53.0212 36.75 53.7879 36.75C55.2212 36.75 56.6379 36.35 58.0379 35.55C59.4379 34.7167 60.7379 33.6333 61.9379 32.3C63.1379 30.9667 64.1546 29.5 64.9879 27.9L65.5879 28.35C64.6879 30.35 63.5379 32.0833 62.1379 33.55C60.7712 35.0167 59.2712 36.15 57.6379 36.95C56.0379 37.7833 54.4046 38.2 52.7379 38.2ZM50.2879 29.8C51.1879 29.5 52.2046 29.0667 53.3379 28.5C54.4712 27.9 55.5546 27.2 56.5879 26.4C57.6546 25.6 58.5212 24.7167 59.1879 23.75C59.8879 22.7833 60.2379 21.7667 60.2379 20.7C60.2379 20.3333 60.1712 20.05 60.0379 19.85C59.9046 19.65 59.6212 19.55 59.1879 19.55C58.3879 19.55 57.5379 19.8667 56.6379 20.5C55.7379 21.1 54.8712 21.9 54.0379 22.9C53.2046 23.9 52.4546 25 51.7879 26.2C51.1212 27.4 50.6212 28.6 50.2879 29.8ZM69.3383 38.8C67.7383 38.8 66.4049 38.2667 65.3383 37.2C64.2716 36.1333 63.7383 34.5333 63.7383 32.4C63.7383 30.7333 64.0549 29.1167 64.6883 27.55C65.3549 25.95 66.2216 24.5167 67.2883 23.25C68.3549 21.9833 69.5383 20.9833 70.8383 20.25C72.1383 19.4833 73.4216 19.1 74.6883 19.1C76.0549 19.1 76.9883 19.5 77.4883 20.3C77.9883 21.1 78.2383 21.9333 78.2383 22.8C78.2383 23.7667 78.0049 24.6167 77.5383 25.35C77.1049 26.0833 76.5049 26.45 75.7383 26.45C75.1716 26.45 74.6883 26.2 74.2883 25.7C74.7883 25.4333 75.2216 24.9 75.5883 24.1C75.9549 23.2667 76.1383 22.4833 76.1383 21.75C76.1383 21.35 76.0549 21.05 75.8883 20.85C75.7549 20.6167 75.4716 20.5 75.0383 20.5C74.1383 20.5 73.2049 20.9 72.2383 21.7C71.3049 22.5 70.4216 23.5333 69.5883 24.8C68.7883 26.0667 68.1216 27.4 67.5883 28.8C67.0883 30.2 66.8383 31.5167 66.8383 32.75C66.8383 33.7833 67.0883 34.7333 67.5883 35.6C68.0883 36.4667 69.0549 36.9 70.4883 36.9C71.8216 36.9 73.1549 36.5333 74.4883 35.8C75.8549 35.0667 77.1216 34.0167 78.2883 32.65C79.4549 31.2833 80.3883 29.6833 81.0883 27.85L81.7383 28.35C80.9716 30.35 79.9216 32.15 78.5883 33.75C77.2549 35.3167 75.7883 36.55 74.1883 37.45C72.5883 38.35 70.9716 38.8 69.3383 38.8ZM83.7504 37.3C82.4504 37.3 81.4837 36.8833 80.8504 36.05C80.2171 35.25 79.9004 34.2667 79.9004 33.1C79.9004 32.3333 80.0337 31.3667 80.3004 30.2C80.6004 29.0333 80.9837 27.8167 81.4504 26.55C81.9171 25.25 82.4504 24.0333 83.0504 22.9C83.6837 21.7667 84.3504 20.85 85.0504 20.15C85.7504 19.4167 86.4337 19.05 87.1004 19.05C87.4004 19.05 87.6504 19.15 87.8504 19.35C88.0837 19.5167 88.2004 19.7833 88.2004 20.15C88.2004 20.55 87.9337 21.2 87.4004 22.1C86.9004 23 86.3004 24.0333 85.6004 25.2C84.9004 26.3667 84.2837 27.6 83.7504 28.9C83.2504 30.1667 83.0004 31.3833 83.0004 32.55C83.0004 33.75 83.2004 34.55 83.6004 34.95C84.0004 35.35 84.6171 35.55 85.4504 35.55C86.5837 35.55 87.7837 34.9833 89.0504 33.85C90.3504 32.7167 91.7171 30.7333 93.1504 27.9L93.6004 28.4C92.6337 31.2667 91.2337 33.4667 89.4004 35C87.6004 36.5333 85.7171 37.3 83.7504 37.3ZM89.7504 14.4C89.2171 14.4 88.7337 14.2667 88.3004 14C87.9004 13.7333 87.7004 13.3167 87.7004 12.75C87.7004 12.05 88.1004 11.45 88.9004 10.95C89.7337 10.4167 90.5504 10.15 91.3504 10.15C91.8504 10.15 92.2504 10.2667 92.5504 10.5C92.8504 10.7333 93.0004 11.1333 93.0004 11.7C93.0004 12.3333 92.6504 12.95 91.9504 13.55C91.2837 14.1167 90.5504 14.4 89.7504 14.4ZM94.6109 38.35C93.5776 38.35 92.7109 38 92.0109 37.3C91.2776 36.6333 90.9109 35.6 90.9109 34.2C90.9109 33 91.1776 31.7167 91.7109 30.35C92.2443 28.95 92.9776 27.5833 93.9109 26.25C94.8443 24.8833 95.8943 23.65 97.0609 22.55C98.2609 21.4167 99.5109 20.5167 100.811 19.85C102.144 19.1833 103.461 18.85 104.761 18.85C106.061 18.85 107.144 19.2 108.011 19.9C108.878 20.5667 109.311 21.4667 109.311 22.6C109.311 23.4333 109.078 24 108.611 24.3C108.178 24.6 107.594 24.75 106.861 24.75C106.928 24.4833 106.978 24.2 107.011 23.9C107.078 23.5667 107.111 23.2667 107.111 23C107.111 22.2333 106.928 21.5833 106.561 21.05C106.194 20.4833 105.561 20.2 104.661 20.2C103.728 20.2 102.778 20.5333 101.811 21.2C100.844 21.8333 99.9109 22.7 99.0109 23.8C98.1109 24.8667 97.3109 26.0333 96.6109 27.3C95.9109 28.5667 95.3609 29.8167 94.9609 31.05C94.5609 32.2833 94.3609 33.3833 94.3609 34.35C94.3609 35.65 94.8109 36.3 95.7109 36.3C96.4776 36.3 97.3109 35.95 98.2109 35.25C99.1109 34.5167 100.028 33.6 100.961 32.5C101.928 31.3667 102.844 30.2 103.711 29C104.578 27.8 105.344 26.7 106.011 25.7C106.144 25.5 106.228 25.4 106.261 25.4C106.461 25.4333 106.711 25.5 107.011 25.6C107.344 25.7 107.628 25.8333 107.861 26C108.094 26.1667 108.211 26.3833 108.211 26.65C108.211 26.95 108.061 27.3667 107.761 27.9C107.461 28.4 107.128 28.9833 106.761 29.65C106.394 30.3167 106.061 31 105.761 31.7C105.461 32.3667 105.311 33 105.311 33.6C105.311 34.1 105.444 34.6 105.711 35.1C105.978 35.5667 106.411 35.8 107.011 35.8C107.911 35.8 109.094 35.15 110.561 33.85C112.028 32.5167 113.511 30.5333 115.011 27.9L115.511 28.4C114.811 30.2 113.911 31.7833 112.811 33.15C111.711 34.5167 110.528 35.5833 109.261 36.35C108.028 37.1167 106.811 37.5 105.611 37.5C104.378 37.5 103.461 37.1333 102.861 36.4C102.294 35.6667 102.011 34.8667 102.011 34C102.011 33.8 102.028 33.5833 102.061 33.35C102.094 33.0833 102.128 32.8167 102.161 32.55C100.728 34.4833 99.4109 35.9333 98.2109 36.9C97.0443 37.8667 95.8443 38.35 94.6109 38.35ZM118.138 37.5C116.705 37.5 115.672 37 115.038 36C114.438 35.0333 114.138 33.8167 114.138 32.35C114.138 30.75 114.438 28.85 115.038 26.65C115.638 24.45 116.422 22.1333 117.388 19.7C118.388 17.2667 119.472 14.9 120.638 12.6C121.805 10.2667 122.972 8.15 124.138 6.25C125.305 4.35 126.372 2.83333 127.338 1.7C128.338 0.566665 129.122 -1.43051e-06 129.688 -1.43051e-06C130.055 -1.43051e-06 130.355 0.216665 130.588 0.649999C130.822 1.05 131.005 1.55 131.138 2.15C131.272 2.71667 131.338 3.23333 131.338 3.7C131.338 4.6 131.105 5.78333 130.638 7.25C130.205 8.68333 129.572 10.3 128.738 12.1C127.938 13.8667 126.972 15.6667 125.838 17.5C124.738 19.3 123.522 21.0333 122.188 22.7C120.888 24.3667 119.505 25.8 118.038 27C117.838 27.9 117.672 28.7833 117.538 29.65C117.438 30.4833 117.388 31.2833 117.388 32.05C117.388 33.35 117.572 34.3167 117.938 34.95C118.305 35.5833 118.855 35.9 119.588 35.9C120.488 35.9 121.372 35.5 122.238 34.7C123.138 33.9 123.972 32.9 124.738 31.7C125.538 30.4667 126.222 29.2 126.788 27.9L127.538 28.3C126.205 31.1333 124.755 33.3833 123.188 35.05C121.622 36.6833 119.938 37.5 118.138 37.5ZM118.488 25.3C119.655 24.1333 120.788 22.8 121.888 21.3C122.988 19.7667 124.005 18.1833 124.938 16.55C125.905 14.9167 126.755 13.3333 127.488 11.8C128.222 10.2667 128.788 8.9 129.188 7.7C129.588 6.46666 129.788 5.51666 129.788 4.85C129.788 4.51667 129.738 4.3 129.638 4.2C129.572 4.1 129.505 4.05 129.438 4.05C129.172 4.05 128.705 4.48333 128.038 5.35C127.405 6.18333 126.655 7.31667 125.788 8.75C124.922 10.1833 124.038 11.8167 123.138 13.65C122.238 15.4833 121.372 17.4 120.538 19.4C119.738 21.4 119.055 23.3667 118.488 25.3ZM149.443 40.35C147.543 40.35 145.876 39.8333 144.443 38.8C143.01 37.8 141.876 36.3667 141.043 34.5C140.243 32.6333 139.843 30.45 139.843 27.95C139.843 25.3833 140.243 22.7833 141.043 20.15C141.876 17.5167 142.993 15 144.393 12.6C145.793 10.2 147.376 8.06667 149.143 6.2C150.91 4.3 152.776 2.8 154.743 1.7C156.71 0.599998 158.643 0.0499979 160.543 0.0499979C161.176 0.0499979 161.743 0.0999983 162.243 0.199999C162.743 0.299998 163.176 0.449998 163.543 0.649999C163.276 0.649999 163.11 0.649999 163.043 0.649999C163.01 0.649999 162.976 0.649999 162.943 0.649999C161.21 0.649999 159.46 1.23333 157.693 2.4C155.926 3.53333 154.243 5.08333 152.643 7.05C151.043 8.98333 149.61 11.1667 148.343 13.6C147.076 16 146.076 18.5 145.343 21.1C144.61 23.7 144.243 26.2167 144.243 28.65C144.243 30.4167 144.46 32.0667 144.893 33.6C145.36 35.1333 146.093 36.35 147.093 37.25C148.093 38.1833 149.376 38.65 150.943 38.65C152.81 38.65 154.56 38.0667 156.193 36.9C157.826 35.7667 159.293 34.2167 160.593 32.25C161.926 30.2833 163.06 28.1 163.993 25.7C164.96 23.2667 165.693 20.7667 166.193 18.2C166.726 15.6 166.993 13.1167 166.993 10.75C166.993 9.81667 166.926 8.81666 166.793 7.75C166.66 6.68333 166.426 5.76667 166.093 5C165.76 4.23333 165.31 3.85 164.743 3.85C164.143 3.85 163.493 4.23333 162.793 5C162.093 5.73333 161.41 6.66666 160.743 7.8C160.11 8.93333 159.543 10.1167 159.043 11.35C158.543 12.55 158.193 13.6167 157.993 14.55C157.16 14.35 156.543 14.0333 156.143 13.6C155.776 13.1333 155.593 12.6333 155.593 12.1C155.593 11.2 155.893 10.2167 156.493 9.15C157.126 8.05 157.91 7 158.843 6C159.81 4.96666 160.81 4.13333 161.843 3.5C162.876 2.83333 163.81 2.5 164.643 2.5C165.51 2.5 166.21 2.81667 166.743 3.45C167.31 4.08333 167.743 4.9 168.043 5.9C168.376 6.86667 168.593 7.91667 168.693 9.05C168.826 10.15 168.893 11.1833 168.893 12.15C168.893 15.7833 168.476 19.1 167.643 22.1C166.843 25.0667 165.743 27.6833 164.343 29.95C162.976 32.2167 161.443 34.1333 159.743 35.7C158.043 37.2333 156.293 38.3833 154.493 39.15C152.726 39.95 151.043 40.35 149.443 40.35ZM169.295 50C168.962 50 168.579 49.8833 168.145 49.65C167.712 49.45 167.345 49.0333 167.045 48.4C166.712 47.7667 166.545 46.8333 166.545 45.6C166.545 44.1333 166.795 42.2167 167.295 39.85C167.795 37.5167 168.479 34.9333 169.345 32.1C170.212 29.2667 171.212 26.3667 172.345 23.4C173.479 20.4 174.695 17.5167 175.995 14.75C177.329 11.95 178.679 9.45 180.045 7.25C181.445 5.01667 182.812 3.25 184.145 1.95C185.479 0.649998 186.745 -1.43051e-06 187.945 -1.43051e-06C188.645 -1.43051e-06 189.095 0.216665 189.295 0.649999C189.529 1.08333 189.645 1.6 189.645 2.2C189.645 3.63333 189.245 5.2 188.445 6.9C187.679 8.6 186.645 10.3167 185.345 12.05C184.045 13.75 182.612 15.3833 181.045 16.95C179.479 18.4833 177.895 19.8 176.295 20.9C176.129 21.3 175.962 21.7167 175.795 22.15C175.662 22.55 175.512 22.9667 175.345 23.4C175.712 23.4667 175.995 23.6667 176.195 24C176.429 24.3 176.562 24.6333 176.595 25C176.829 26.5 177.079 27.85 177.345 29.05C177.612 30.2167 178.012 31.1333 178.545 31.8C179.112 32.4667 179.912 32.8 180.945 32.8C182.112 32.8 183.095 32.3833 183.895 31.55C184.695 30.6833 185.562 29.4667 186.495 27.9L187.245 28.4C186.412 30.4 185.345 31.85 184.045 32.75C182.779 33.65 181.662 34.1 180.695 34.1C180.095 34.1 179.462 33.95 178.795 33.65C178.162 33.35 177.562 32.95 176.995 32.45C176.995 34.55 176.762 36.6333 176.295 38.7C175.862 40.7667 175.279 42.65 174.545 44.35C173.812 46.05 172.995 47.4167 172.095 48.45C171.195 49.4833 170.262 50 169.295 50ZM170.595 47.6C170.962 47.6 171.379 47.2667 171.845 46.6C172.312 45.9333 172.762 45.05 173.195 43.95C173.662 42.8833 174.079 41.7 174.445 40.4C174.812 39.1 175.112 37.8 175.345 36.5C175.579 35.2 175.695 34.0333 175.695 33C175.695 31.9667 175.562 31.0333 175.295 30.2C175.029 29.3333 174.595 28.3167 173.995 27.15C173.162 29.65 172.412 32.0667 171.745 34.4C171.079 36.7333 170.562 38.8333 170.195 40.7C169.829 42.5667 169.645 44.0667 169.645 45.2C169.645 46.8 169.962 47.6 170.595 47.6ZM177.095 18.85C179.262 16.85 181.129 14.85 182.695 12.85C184.295 10.8167 185.529 9.01666 186.395 7.45C187.262 5.85 187.695 4.71667 187.695 4.05C187.695 3.58333 187.462 3.35 186.995 3.35C186.129 3.35 185.145 4.06666 184.045 5.5C182.945 6.9 181.795 8.76667 180.595 11.1C179.395 13.4333 178.229 16.0167 177.095 18.85ZM184.871 50C184.538 50 184.155 49.8833 183.721 49.65C183.288 49.45 182.921 49.0333 182.621 48.4C182.288 47.7667 182.121 46.8333 182.121 45.6C182.121 44.1333 182.371 42.2167 182.871 39.85C183.371 37.5167 184.055 34.9333 184.921 32.1C185.788 29.2667 186.788 26.3667 187.921 23.4C189.055 20.4 190.271 17.5167 191.571 14.75C192.905 11.95 194.255 9.45 195.621 7.25C197.021 5.01667 198.388 3.25 199.721 1.95C201.055 0.649998 202.321 -1.43051e-06 203.521 -1.43051e-06C204.221 -1.43051e-06 204.671 0.216665 204.871 0.649999C205.105 1.08333 205.221 1.6 205.221 2.2C205.221 3.63333 204.821 5.2 204.021 6.9C203.255 8.6 202.221 10.3167 200.921 12.05C199.621 13.75 198.188 15.3833 196.621 16.95C195.055 18.4833 193.471 19.8 191.871 20.9C191.705 21.3 191.538 21.7167 191.371 22.15C191.238 22.55 191.088 22.9667 190.921 23.4C191.288 23.4667 191.571 23.6667 191.771 24C192.005 24.3 192.138 24.6333 192.171 25C192.405 26.5 192.655 27.85 192.921 29.05C193.188 30.2167 193.588 31.1333 194.121 31.8C194.688 32.4667 195.488 32.8 196.521 32.8C197.688 32.8 198.671 32.3833 199.471 31.55C200.271 30.6833 201.138 29.4667 202.071 27.9L202.821 28.4C201.988 30.4 200.921 31.85 199.621 32.75C198.355 33.65 197.238 34.1 196.271 34.1C195.671 34.1 195.038 33.95 194.371 33.65C193.738 33.35 193.138 32.95 192.571 32.45C192.571 34.55 192.338 36.6333 191.871 38.7C191.438 40.7667 190.855 42.65 190.121 44.35C189.388 46.05 188.571 47.4167 187.671 48.45C186.771 49.4833 185.838 50 184.871 50ZM186.171 47.6C186.538 47.6 186.955 47.2667 187.421 46.6C187.888 45.9333 188.338 45.05 188.771 43.95C189.238 42.8833 189.655 41.7 190.021 40.4C190.388 39.1 190.688 37.8 190.921 36.5C191.155 35.2 191.271 34.0333 191.271 33C191.271 31.9667 191.138 31.0333 190.871 30.2C190.605 29.3333 190.171 28.3167 189.571 27.15C188.738 29.65 187.988 32.0667 187.321 34.4C186.655 36.7333 186.138 38.8333 185.771 40.7C185.405 42.5667 185.221 44.0667 185.221 45.2C185.221 46.8 185.538 47.6 186.171 47.6ZM192.671 18.85C194.838 16.85 196.705 14.85 198.271 12.85C199.871 10.8167 201.105 9.01666 201.971 7.45C202.838 5.85 203.271 4.71667 203.271 4.05C203.271 3.58333 203.038 3.35 202.571 3.35C201.705 3.35 200.721 4.06666 199.621 5.5C198.521 6.9 197.371 8.76667 196.171 11.1C194.971 13.4333 193.805 16.0167 192.671 18.85ZM206.498 38.2C204.464 38.2 202.931 37.6333 201.898 36.5C200.898 35.4 200.398 34.0333 200.398 32.4C200.398 30.9 200.764 29.3167 201.498 27.65C202.264 25.9833 203.264 24.4167 204.498 22.95C205.764 21.4833 207.148 20.3 208.648 19.4C210.148 18.4667 211.631 18 213.098 18C213.864 18 214.564 18.2 215.198 18.6C215.864 19 216.198 19.8167 216.198 21.05C216.198 22.3167 215.814 23.5167 215.048 24.65C214.314 25.75 213.331 26.7333 212.098 27.6C210.898 28.4667 209.564 29.1833 208.098 29.75C206.664 30.2833 205.231 30.6167 203.798 30.75C203.731 31.0833 203.681 31.4 203.648 31.7C203.614 32 203.598 32.2833 203.598 32.55C203.598 33.05 203.648 33.55 203.748 34.05C203.881 34.55 204.098 35.0167 204.398 35.45C204.698 35.85 205.098 36.1667 205.598 36.4C206.131 36.6333 206.781 36.75 207.548 36.75C208.981 36.75 210.398 36.35 211.798 35.55C213.198 34.7167 214.498 33.6333 215.698 32.3C216.898 30.9667 217.914 29.5 218.748 27.9L219.348 28.35C218.448 30.35 217.298 32.0833 215.898 33.55C214.531 35.0167 213.031 36.15 211.398 36.95C209.798 37.7833 208.164 38.2 206.498 38.2ZM204.048 29.8C204.948 29.5 205.964 29.0667 207.098 28.5C208.231 27.9 209.314 27.2 210.348 26.4C211.414 25.6 212.281 24.7167 212.948 23.75C213.648 22.7833 213.998 21.7667 213.998 20.7C213.998 20.3333 213.931 20.05 213.798 19.85C213.664 19.65 213.381 19.55 212.948 19.55C212.148 19.55 211.298 19.8667 210.398 20.5C209.498 21.1 208.631 21.9 207.798 22.9C206.964 23.9 206.214 25 205.548 26.2C204.881 27.4 204.381 28.6 204.048 29.8ZM226.398 37.3C225.265 37.3 224.365 37 223.698 36.4C223.065 35.8 222.748 35.0167 222.748 34.05C222.748 33.05 222.981 32 223.448 30.9C223.915 29.8 224.365 28.7167 224.798 27.65C225.265 26.55 225.498 25.5667 225.498 24.7C225.498 23.6333 225.181 22.85 224.548 22.35C223.948 21.8167 223.331 21.3333 222.698 20.9C221.931 22.8667 221.131 24.7333 220.298 26.5C219.465 28.2667 218.781 29.6 218.248 30.5L217.798 29.65C218.265 28.7833 218.865 27.5167 219.598 25.85C220.365 24.1833 221.115 22.2833 221.848 20.15C221.515 19.8167 221.348 19.4167 221.348 18.95C221.348 17.95 221.631 17.1333 222.198 16.5C222.765 15.8667 223.181 15.55 223.448 15.55C223.815 15.55 224.015 15.7167 224.048 16.05C224.115 16.35 224.148 16.5833 224.148 16.75C224.148 16.9167 224.048 17.25 223.848 17.75C223.681 18.2167 223.598 18.5 223.598 18.6C223.598 19.0667 223.848 19.5 224.348 19.9C224.881 20.2667 225.481 20.7 226.148 21.2C226.815 21.6667 227.398 22.25 227.898 22.95C228.431 23.6167 228.698 24.4833 228.698 25.55C228.698 26.55 228.481 27.5667 228.048 28.6C227.648 29.6333 227.231 30.6167 226.798 31.55C226.398 32.4833 226.198 33.3 226.198 34C226.198 34.6 226.348 35 226.648 35.2C226.948 35.4 227.298 35.5 227.698 35.5C228.498 35.5 229.315 35.25 230.148 34.75C231.015 34.25 231.848 33.6167 232.648 32.85C233.448 32.0833 234.165 31.2833 234.798 30.45C235.431 29.5833 235.898 28.7833 236.198 28.05L236.848 28.55C236.215 29.95 235.348 31.3333 234.248 32.7C233.148 34.0333 231.915 35.1333 230.548 36C229.215 36.8667 227.831 37.3 226.398 37.3Z" fill="white"/>
</svg>
