<svg width="58" height="64" viewBox="0 0 58 64" fill="none" xmlns="http://www.w3.org/2000/svg">
<path d="M25.5905 30.7751C25.5905 30.7751 34.7846 60.4784 37.1598 62.6985C39.535 64.9186 50.6446 65.378 48.8058 54.2775L45.5878 54.354C45.5878 54.354 45.358 61.1674 40.6076 59.5598C37.0066 58.3349 28.4253 29.933 28.4253 29.933L25.5905 30.7751Z" fill="#B0C9EB"/>
<path d="M18.0053 9.49282C18.0053 9.49282 12.4887 1.68421 16.5495 0.15311C21.2232 -1.5311 20.9934 8.03828 20.9934 8.03828L18.0053 9.49282Z" fill="#B0C9EB"/>
<path d="M56.0079 21.8182C56.0079 21.8182 57.5403 21.1292 57.1572 19.6746C56.7741 18.1435 41.9868 4.28709 19.6909 7.11962C19.6909 7.11962 11.7992 9.95216 5.13341 20.823C-1.45576 31.6938 -0.842813 47.6172 2.29853 47.8469C5.66974 48.0766 3.98414 40.4976 9.19418 39.0431C14.4042 37.5885 17.6222 43.7129 20.4571 42.8708C23.675 41.8756 20.2272 34.067 26.3567 31.6172C32.4861 29.1675 35.321 36.3636 39.0753 35.0622C42.4465 33.9139 39.7649 28.0957 44.745 25.1101C49.7252 22.1244 56.3144 25.9522 57.6169 23.6555C58.996 21.3589 56.0079 21.8182 56.0079 21.8182ZM41.6037 23.2727C38.6156 25.6459 38.539 31.3876 37.4663 31.9234C36.3937 32.4593 31.3368 27.2536 24.9775 29.5502C18.6182 31.8469 19.3078 39.0431 18.5416 39.4258C17.7754 39.8086 13.4848 34.8325 8.8877 35.9809C4.36723 37.2057 2.45177 41.4163 2.45177 41.4163C2.45177 41.4163 0.996024 35.8278 6.20606 24.1148C11.4161 12.4019 20.3038 9.79905 20.3038 9.79905C43.8256 7.73206 54.3989 22.1244 54.3989 22.1244C54.3989 22.1244 44.5918 20.9761 41.6037 23.2727Z" fill="#F0B5BE"/>
<path d="M18.3118 11.4067C19.3078 10.6412 13.2549 21.1292 17.852 36.8996C17.852 36.8996 15.4769 31.9235 10.1136 33.9139C4.75032 35.9043 9.34742 18.8326 18.3118 11.4067Z" fill="#F0B5BE"/>
<path d="M21.8362 11.4067C21.4531 13.4737 29.498 15.6938 35.8573 29.244C35.8573 29.244 36.7767 22.8134 42.9828 20.3636C47.7331 18.5263 22.2193 9.3397 21.8362 11.4067Z" fill="#F0B5BE"/>
<path d="M13.3315 18.067C13.3315 18.067 13.4848 18.6028 13.7146 18.5263C13.9445 18.4497 14.1743 18.067 13.9445 17.8373C13.7146 17.6842 13.3315 18.067 13.3315 18.067Z" fill="#F0B5BE"/>
<path d="M11.3395 20.976C11.3395 20.976 11.4927 21.5119 11.7226 21.4354C11.9524 21.3588 12.1823 20.976 11.9524 20.7464C11.7226 20.5167 11.3395 20.976 11.3395 20.976Z" fill="#F0B5BE"/>
<path d="M9.34741 23.8086C9.34741 23.8086 9.50065 24.3445 9.7305 24.268C9.96036 24.1914 10.1902 23.8086 9.96036 23.579C9.7305 23.3493 9.34741 23.8086 9.34741 23.8086Z" fill="#F0B5BE"/>
<path d="M8.04492 26.9474C8.04492 26.9474 8.19816 27.4832 8.42801 27.4067C8.65787 27.3301 8.88772 26.9474 8.65787 26.7177C8.42801 26.488 8.04492 26.9474 8.04492 26.9474Z" fill="#F0B5BE"/>
<path d="M6.89563 30.1627C6.89563 30.1627 7.04887 30.6986 7.27872 30.622C7.50858 30.5454 7.73843 30.1627 7.50858 29.933C7.27872 29.7799 6.89563 30.1627 6.89563 30.1627Z" fill="#F0B5BE"/>
<path d="M5.74634 33.4545C5.74634 33.4545 5.89957 33.9904 6.12943 33.9139C6.35928 33.8373 6.58914 33.4545 6.35928 33.2249C6.12943 33.0718 5.74634 33.4545 5.74634 33.4545Z" fill="#F0B5BE"/>
<path d="M14.5575 17.4545C14.5575 17.4545 14.7107 17.9904 14.9406 17.9139C15.1704 17.8373 15.4003 17.4545 15.1704 17.2249C14.9406 17.0718 14.5575 17.4545 14.5575 17.4545Z" fill="#F0B5BE"/>
<path d="M12.5654 20.2871C12.5654 20.2871 12.7187 20.823 12.9485 20.7464C13.1784 20.6698 13.4082 20.2871 13.1784 20.0574C12.9485 19.8277 12.5654 20.2871 12.5654 20.2871Z" fill="#F0B5BE"/>
<path d="M10.4967 23.043C10.4967 23.043 10.6499 23.5789 10.8798 23.5024C11.1096 23.4258 11.3395 23.043 11.1097 22.8134C10.9564 22.6603 10.4967 23.043 10.4967 23.043Z" fill="#F0B5BE"/>
<path d="M9.04089 26.1818C9.04089 26.1818 9.19413 26.7177 9.42398 26.6412C9.65384 26.5646 9.88369 26.1818 9.65384 25.9522C9.42398 25.7991 9.04089 26.1818 9.04089 26.1818Z" fill="#F0B5BE"/>
<path d="M7.58521 29.3206C7.58521 29.3206 7.73844 29.8565 7.9683 29.7799C8.19815 29.7034 8.42801 29.3206 8.19815 29.0909C7.9683 28.8613 7.58521 29.3206 7.58521 29.3206Z" fill="#F0B5BE"/>
<path d="M13.6381 18.3732C13.6381 18.3732 13.7913 18.9091 14.0212 18.8325C14.251 18.756 14.4809 18.3732 14.251 18.1435C14.0212 17.9139 13.6381 18.3732 13.6381 18.3732Z" fill="#F0B5BE"/>
<path d="M11.4161 21.0526C11.4161 21.0526 11.5694 21.5885 11.7992 21.512C12.0291 21.4354 12.2589 21.0526 12.0291 20.823C11.7992 20.5933 11.4161 21.0526 11.4161 21.0526Z" fill="#F0B5BE"/>
<path d="M9.73047 24.0383C9.73047 24.0383 9.88371 24.5742 10.1136 24.4976C10.3434 24.4211 10.5733 24.0383 10.3434 23.8086C10.1136 23.579 9.73047 24.0383 9.73047 24.0383Z" fill="#F0B5BE"/>
<path d="M8.27478 27.1005C8.27478 27.1005 8.42802 27.6364 8.65787 27.5598C8.88773 27.4832 9.11758 27.1005 8.88773 26.8708C8.65787 26.7177 8.27478 27.1005 8.27478 27.1005Z" fill="#F0B5BE"/>
<path d="M6.66577 29.0144C6.66577 29.0144 6.81901 29.5502 7.04886 29.4737C7.27872 29.3971 7.50857 29.0144 7.27872 28.7847C7.12548 28.6316 6.66577 29.0144 6.66577 29.0144Z" fill="#F0B5BE"/>
<path d="M7.7384 25.7225C7.7384 25.7225 7.89164 26.2584 8.12149 26.1818C8.35135 26.1053 8.5812 25.7225 8.35135 25.4928C8.12149 25.3397 7.7384 25.7225 7.7384 25.7225Z" fill="#F0B5BE"/>
<path d="M9.42407 22.7368C9.42407 22.7368 9.57731 23.2727 9.80716 23.1962C10.037 23.1196 10.2669 22.7368 10.037 22.5072C9.80716 22.2775 9.42407 22.7368 9.42407 22.7368Z" fill="#F0B5BE"/>
<path d="M11.1096 19.7512C11.1096 19.7512 11.2629 20.2871 11.4927 20.2105C11.7226 20.134 11.9524 19.7512 11.7226 19.5215C11.5693 19.2919 11.1096 19.7512 11.1096 19.7512Z" fill="#F0B5BE"/>
<path d="M5.823 31.0048C5.823 31.0048 5.97623 31.5407 6.20609 31.4641C6.43594 31.3875 6.6658 31.0048 6.43594 30.7751C6.20609 30.622 5.823 31.0048 5.823 31.0048Z" fill="#F0B5BE"/>
<path d="M41.144 18.7559C41.144 18.7559 41.2973 19.2918 41.5271 19.2153C41.757 19.1387 41.9868 18.7559 41.757 18.5263C41.5271 18.2966 41.144 18.7559 41.144 18.7559Z" fill="#F0B5BE"/>
<path d="M38.4624 16.5358C38.4624 16.5358 38.6156 17.0717 38.8455 16.9952C39.0753 16.9186 39.3052 16.5358 39.0753 16.3062C38.8455 16.1531 38.4624 16.5358 38.4624 16.5358Z" fill="#F0B5BE"/>
<path d="M35.2444 15.2344C35.2444 15.2344 35.3976 15.7703 35.6275 15.6938C35.8573 15.6172 36.0872 15.2344 35.8573 15.0048C35.6275 14.8517 35.2444 15.2344 35.2444 15.2344Z" fill="#F0B5BE"/>
<path d="M31.9498 14.4689C31.9498 14.4689 32.1031 15.0048 32.3329 14.9282C32.5628 14.8517 32.7926 14.4689 32.5628 14.2392C32.3329 14.0861 31.9498 14.4689 31.9498 14.4689Z" fill="#F0B5BE"/>
<path d="M28.5021 13.933C28.5021 13.933 28.6553 14.4689 28.8852 14.3923C29.115 14.3158 29.3449 13.933 29.115 13.7033C28.8852 13.5502 28.5021 13.933 28.5021 13.933Z" fill="#F0B5BE"/>
<path d="M25.0542 13.4737C25.0542 13.4737 25.2074 14.0095 25.4373 13.933C25.6671 13.8564 25.897 13.4737 25.6671 13.244C25.5139 13.0143 25.0542 13.4737 25.0542 13.4737Z" fill="#F0B5BE"/>
<path d="M43.0594 18.6029C43.0594 18.6029 43.2127 19.1387 43.4425 19.0622C43.6724 18.9856 43.9022 18.6029 43.6724 18.3732C43.4425 18.2201 43.0594 18.6029 43.0594 18.6029Z" fill="#F0B5BE"/>
<path d="M39.9948 16.9187C39.9948 16.9187 40.148 17.4546 40.3778 17.378C40.6077 17.3014 40.8376 16.9187 40.6077 16.689C40.4545 16.4593 39.9948 16.9187 39.9948 16.9187Z" fill="#F0B5BE"/>
<path d="M37.0066 15.1579C37.0066 15.1579 37.1598 15.6938 37.3897 15.6172C37.6195 15.5407 37.8494 15.1579 37.6195 14.9282C37.4663 14.7751 37.0066 15.1579 37.0066 15.1579Z" fill="#F0B5BE"/>
<path d="M33.7887 14.0096C33.7887 14.0096 33.9419 14.5455 34.1718 14.4689C34.4016 14.3924 34.6315 14.0096 34.4016 13.7799C34.2484 13.6268 33.7887 14.0096 33.7887 14.0096Z" fill="#F0B5BE"/>
<path d="M30.4175 13.244C30.4175 13.244 30.5707 13.7799 30.8006 13.7034C31.0304 13.6268 31.2603 13.244 31.0304 13.0144C30.8772 12.8613 30.4175 13.244 30.4175 13.244Z" fill="#F0B5BE"/>
<path d="M27.0463 12.4785C27.0463 12.4785 27.1995 13.0143 27.4294 12.9378C27.6592 12.8612 27.8891 12.4785 27.6592 12.2488C27.506 12.0957 27.0463 12.4785 27.0463 12.4785Z" fill="#F0B5BE"/>
<path d="M44.2853 18.6029C44.2853 18.6029 44.4385 19.1388 44.6684 19.0622C44.8982 18.9856 45.1281 18.6029 44.8982 18.3732C44.6684 18.1435 44.2853 18.6029 44.2853 18.6029Z" fill="#F0B5BE"/>
<path d="M41.527 16.5359C41.527 16.5359 41.6802 17.0718 41.9101 16.9952C42.1399 16.9187 42.3698 16.5359 42.1399 16.3062C41.9101 16.1531 41.527 16.5359 41.527 16.5359Z" fill="#F0B5BE"/>
<path d="M38.6155 14.7751C38.6155 14.7751 38.7687 15.311 38.9986 15.2344C39.2284 15.1579 39.4583 14.7751 39.2284 14.5454C38.9986 14.3158 38.6155 14.7751 38.6155 14.7751Z" fill="#F0B5BE"/>
<path d="M35.3209 13.7034C35.3209 13.7034 35.4742 14.2393 35.704 14.1627C35.9339 14.0862 36.1637 13.7034 35.9339 13.4737C35.704 13.3206 35.3209 13.7034 35.3209 13.7034Z" fill="#F0B5BE"/>
<path d="M32.0264 12.7082C32.0264 12.7082 32.1796 13.244 32.4095 13.1675C32.6393 13.0909 32.8692 12.7082 32.6393 12.4785C32.4095 12.2488 32.0264 12.7082 32.0264 12.7082Z" fill="#F0B5BE"/>
<path d="M39.2285 18.4497C39.2285 18.4497 39.3818 18.9856 39.6116 18.9091C39.8415 18.8325 40.0713 18.4497 39.8415 18.2201C39.6116 17.9904 39.2285 18.4497 39.2285 18.4497Z" fill="#F0B5BE"/>
<path d="M36.0872 16.9186C36.0872 16.9186 36.2404 17.4545 36.4702 17.378C36.7001 17.3014 36.93 16.9186 36.7001 16.689C36.5469 16.5359 36.0872 16.9186 36.0872 16.9186Z" fill="#F0B5BE"/>
<path d="M32.9458 15.5407C32.9458 15.5407 33.099 16.0766 33.3289 16C33.5587 15.9235 33.7886 15.5407 33.5587 15.311C33.4055 15.0813 32.9458 15.5407 32.9458 15.5407Z" fill="#F0B5BE"/>
<path d="M29.6512 14.5454C29.6512 14.5454 29.8045 15.0813 30.0343 15.0047C30.2642 14.9282 30.494 14.5454 30.2642 14.3158C30.0343 14.1626 29.6512 14.5454 29.6512 14.5454Z" fill="#F0B5BE"/>
<path d="M26.3567 13.6268C26.3567 13.6268 26.5099 14.1627 26.7398 14.0861C26.9696 14.0096 27.1995 13.6268 26.9696 13.3971C26.7398 13.244 26.3567 13.6268 26.3567 13.6268Z" fill="#F0B5BE"/>
<path d="M37.2365 17.3014C37.2365 17.3014 37.3897 17.8373 37.6195 17.7607C37.8494 17.6842 38.0793 17.3014 37.8494 17.0718C37.6195 16.8421 37.2365 17.3014 37.2365 17.3014Z" fill="#F0B5BE"/>
<path d="M34.4781 15.2344C34.4781 15.2344 34.6314 15.7703 34.8612 15.6938C35.0911 15.6172 35.3209 15.2344 35.0911 15.0048C34.8612 14.8517 34.4781 15.2344 34.4781 15.2344Z" fill="#F0B5BE"/>
<path d="M37.7727 17.8373C37.7727 17.8373 37.9259 18.3732 38.1558 18.2966C38.3857 18.2201 38.6155 17.8373 38.3857 17.6076C38.1558 17.378 37.7727 17.8373 37.7727 17.8373Z" fill="#F0B5BE"/>
<path d="M34.708 16.0765C34.708 16.0765 34.8612 16.6124 35.0911 16.5359C35.321 16.4593 35.5508 16.0765 35.321 15.8469C35.1677 15.6938 34.708 16.0765 34.708 16.0765Z" fill="#F0B5BE"/>
<path d="M39.7649 17.7608C39.7649 17.7608 39.9181 18.2967 40.148 18.2201C40.3778 18.1435 40.6077 17.7608 40.3778 17.5311C40.148 17.3014 39.7649 17.7608 39.7649 17.7608Z" fill="#F0B5BE"/>
<path d="M30.3408 26.7177C30.3408 26.7177 30.4941 27.2536 30.7239 27.1771C30.9538 27.1005 31.1836 26.7177 30.9538 26.4881C30.7239 26.3349 30.3408 26.7177 30.3408 26.7177Z" fill="#F0B5BE"/>
<path d="M26.8931 27.177C26.8931 27.177 27.0463 27.7129 27.2762 27.6364C27.506 27.5598 27.7359 27.177 27.506 26.9474C27.2762 26.7177 26.8931 27.177 26.8931 27.177Z" fill="#F0B5BE"/>
<path d="M23.675 28.0957C23.675 28.0957 23.8283 28.6316 24.0581 28.555C24.288 28.4785 24.5179 28.0957 24.288 27.866C24.0581 27.7129 23.675 28.0957 23.675 28.0957Z" fill="#F0B5BE"/>
<path d="M20.8402 30.0096C20.8402 30.0096 20.9934 30.5455 21.2233 30.4689C21.4532 30.3924 21.683 30.0096 21.4532 29.7799C21.2233 29.6268 20.8402 30.0096 20.8402 30.0096Z" fill="#F0B5BE"/>
<path d="M18.7715 32.6124C18.7715 32.6124 18.9247 33.1483 19.1546 33.0718C19.3844 32.9952 19.6143 32.6124 19.3844 32.3828C19.1546 32.2297 18.7715 32.6124 18.7715 32.6124Z" fill="#F0B5BE"/>
<path d="M30.111 26.3349C30.111 26.3349 30.2642 26.8708 30.4941 26.7943C30.7239 26.7177 30.9538 26.3349 30.7239 26.1053C30.4941 25.8756 30.111 26.3349 30.111 26.3349Z" fill="#F0B5BE"/>
<path d="M26.8929 25.8756C26.8929 25.8756 27.0462 26.4115 27.276 26.3349C27.5059 26.2584 27.7357 25.8756 27.5059 25.646C27.3527 25.4928 26.8929 25.8756 26.8929 25.8756Z" fill="#F0B5BE"/>
<path d="M23.5984 26.9474C23.5984 26.9474 23.7516 27.4833 23.9815 27.4067C24.2113 27.3302 24.4412 26.9474 24.2113 26.7177C24.0581 26.5646 23.5984 26.9474 23.5984 26.9474Z" fill="#F0B5BE"/>
<path d="M20.457 28.2489C20.457 28.2489 20.6103 28.7847 20.8401 28.7082C21.07 28.6316 21.2998 28.2488 21.07 28.0192C20.8401 27.8661 20.457 28.2489 20.457 28.2489Z" fill="#F0B5BE"/>
<path d="M18.0052 30.622C18.0052 30.622 18.1585 31.1579 18.3883 31.0813C18.6182 31.0048 18.848 30.622 18.6182 30.3924C18.3883 30.2392 18.0052 30.622 18.0052 30.622Z" fill="#F0B5BE"/>
<path d="M21.5297 29.0144C21.5297 29.0144 21.6829 29.5502 21.9128 29.4737C22.1426 29.3971 22.3725 29.0144 22.1426 28.7847C21.9128 28.6316 21.5297 29.0144 21.5297 29.0144Z" fill="#F0B5BE"/>
<path d="M19.6143 30.3923C19.6143 30.3923 19.7675 30.9282 19.9973 30.8517C20.2272 30.7751 20.4571 30.3923 20.2272 30.1627C20.074 30.0096 19.6143 30.3923 19.6143 30.3923Z" fill="#F0B5BE"/>
<path d="M25.0542 27.177C25.0542 27.177 25.2074 27.7129 25.4373 27.6363C25.6671 27.5598 25.897 27.177 25.6671 26.9473C25.4373 26.7942 25.0542 27.177 25.0542 27.177Z" fill="#F0B5BE"/>
<path d="M22.066 27.3302C22.066 27.3302 22.2193 27.866 22.4491 27.7895C22.679 27.7129 22.9088 27.3302 22.679 27.1005C22.5258 26.8708 22.066 27.3302 22.066 27.3302Z" fill="#F0B5BE"/>
<path d="M28.2721 25.7225C28.2721 25.7225 28.4253 26.2584 28.6552 26.1818C28.885 26.1053 29.1149 25.7225 28.885 25.4928C28.7318 25.3397 28.2721 25.7225 28.2721 25.7225Z" fill="#F0B5BE"/>
<path d="M31.5667 27.1005C31.5667 27.1005 31.7199 27.6364 31.9497 27.5598C32.1796 27.4832 32.4095 27.1005 32.1796 26.8708C31.9497 26.7177 31.5667 27.1005 31.5667 27.1005Z" fill="#F0B5BE"/>
<path d="M29.1915 27.0239C29.1915 27.0239 29.3448 27.5598 29.5746 27.4833C29.8045 27.4067 30.0343 27.0239 29.8045 26.7943C29.5746 26.6412 29.1915 27.0239 29.1915 27.0239Z" fill="#F0B5BE"/>
<path d="M33.1757 27.9426C33.1757 27.9426 33.3289 28.4785 33.5588 28.4019C33.7886 28.3254 34.0185 27.9426 33.7886 27.7129C33.5587 27.4833 33.1757 27.9426 33.1757 27.9426Z" fill="#F0B5BE"/>
<path d="M30.9537 25.0335C30.9537 25.0335 31.107 25.5694 31.3368 25.4928C31.5667 25.4162 31.7965 25.0335 31.5667 24.8038C31.3368 24.5741 30.9537 25.0335 30.9537 25.0335Z" fill="#F0B5BE"/>
<path d="M27.5059 25.1866C27.5059 25.1866 27.6591 25.7225 27.889 25.6459C28.1188 25.5694 28.3487 25.1866 28.1188 24.9569C27.8889 24.7273 27.5059 25.1866 27.5059 25.1866Z" fill="#F0B5BE"/>
<path d="M24.2113 26.1052C24.2113 26.1052 24.3645 26.6411 24.5944 26.5646C24.8242 26.488 25.0541 26.1052 24.8243 25.8756C24.5944 25.7225 24.2113 26.1052 24.2113 26.1052Z" fill="#F0B5BE"/>
<path d="M20.9167 27.3301C20.9167 27.3301 21.07 27.866 21.2998 27.7894C21.5297 27.7129 21.7595 27.3301 21.5297 27.1004C21.3765 26.8708 20.9167 27.3301 20.9167 27.3301Z" fill="#F0B5BE"/>
<path d="M18.6182 29.7799C18.6182 29.7799 18.7714 30.3157 19.0013 30.2392C19.2311 30.1626 19.461 29.7799 19.2311 29.5502C19.0013 29.3971 18.6182 29.7799 18.6182 29.7799Z" fill="#F0B5BE"/>
<path d="M25.5905 24.6507C25.5905 24.6507 25.7437 25.1866 25.9735 25.1101C26.2034 25.0335 26.4333 24.6507 26.2034 24.4211C26.0502 24.1914 25.5905 24.6507 25.5905 24.6507Z" fill="#F0B5BE"/>
<path d="M22.2959 25.4928C22.2959 25.4928 22.4491 26.0287 22.679 25.9521C22.9088 25.8756 23.1387 25.4928 22.9088 25.2631C22.679 25.11 22.2959 25.4928 22.2959 25.4928Z" fill="#F0B5BE"/>
<path d="M22.4491 23.6555C22.4491 23.6555 22.6023 24.1914 22.8322 24.1148C23.062 24.0383 23.2919 23.6555 23.062 23.4258C22.8322 23.1962 22.4491 23.6555 22.4491 23.6555Z" fill="#F0B5BE"/>
</svg>
