<svg width="135" height="108" fill="none" xmlns="http://www.w3.org/2000/svg"><path d="M123.1 46.2l2.7-3.5-2.1-3.9 4.2 1.5 3.1-3.2-.1 4.4 4 1.9-4.3 1.2-.6 4.4-2.5-3.7-4.4.9zm3-5.3l1.1 2-1.4 1.8 2.2-.4 1.3 1.8.3-2.2 2.1-.6-2-1 .1-2.2-1.5 1.6-2.2-.8zM72.2 23.6l-1.1-3.2-3.4-.4 2.8-2-.7-3.3 2.8 2 3-1.7-1 3.3 2.5 2.3h-3.4l-1.5 3zm-.2-4.3l.4 1.1.5-1.1h1.2l-.9-.8.4-1.2-1 .6-1-.7.3 1.2-1 .7 1.1.2zM18.2 0l3 8.2 8.7.7-6.9 5.4 2 8.5-7.2-5-7.5 4.6 2.5-8.4-6.7-5.7 8.8-.2L18.2 0zm52.6 90.1l1.1-9.1-7.9-4.8 9-1.8 2.1-8.9 4.5 8 9.1-.8-6.2 6.7 3.6 8.4-8.4-3.8-6.9 6.1zm2.3-9.7l-.8 6.9 5.3-4.6 6.3 2.9-2.7-6.4 4.7-5.1-6.9.6-3.4-6.1-1.6 6.8-6.8 1.3 5.9 3.7zm22.1-37.9l-1.8 4.3 3.3 3.4-4.7-.3-2.2 4.2-1.1-4.6-4.7-.8 4-2.5-.6-4.7 3.6 3 4.2-2zM31.5 76.4l5.4.1 2.3-4.9 1.6 5.2 5.4.7-4.5 3 1 5.4-4.3-3.3-4.8 2.6 1.8-5.1-3.9-3.7zm12.3-44.2l-1.9 4.9 3.7 3.6-5.2-.2-2.3 4.7-1.4-5.1-5.2-.8 4.4-2.8-.8-5.2 4 3.3 4.7-2.4zm65-16.4l3.3.3 1.6-2.9.8 3.2 3.2.7-2.8 1.7.4 3.3-2.5-2.2-3 1.4 1.3-3-2.3-2.5zM52.3 51.7l-.5 1.7 1.3 1.2h-1.8l-.7 1.7-.6-1.7-1.8-.2 1.5-1.1-.4-1.7 1.5 1 1.5-.9zm62.8 11.6l1.6-.2.4-1.6.7 1.5 1.6-.1-1.1 1.1.6 1.5-1.5-.7-1.2 1 .2-1.6-1.3-.9zm-23.4 35l-1.1 3.5 2.7 2.4h-3.6l-1.4 3.3-1.2-3.4-3.6-.4 2.9-2.1-.7-3.5 2.9 2.1 3.1-1.9zM0 50.2l2.7-3.8-2.5-4.1 4.5 1.4 3.1-3.6.1 4.7 4.4 1.8-4.5 1.6-.4 4.7-2.8-3.7-4.6 1z" opacity=".2" fill="#fff"/></svg>