<svg width="94" height="70" fill="none" xmlns="http://www.w3.org/2000/svg"><path d="M1.346 66.84c.525-.234 1.025-1.06 1.374-1.517.423-.553.98-1.027 1.467-1.509a26.764 26.764 0 003.272-3.877c.66-.958.61-2.1.843-3.158.19-.86-.116-1.875-.203-2.761a63.33 63.33 0 00-.617-4.469c-.307-1.805-.53-3.724-1.028-5.498-1.078-3.847-2.435-7.439-3.11-11.41-.582-3.423-.756-7.31.29-10.677.62-1.996 2.12-3.64 3.364-5.275 1.437-1.891 3.015-3.421 5.043-4.67 2.33-1.433 5.02-2.409 7.567-3.383 3.605-1.38 7.22-2.732 10.83-4.098 3.191-1.207 6.469-2.806 9.914-3.063 3.288-.246 6.678-.265 9.974-.27 5.752-.01 11.386.733 17.005 1.95 3.417.74 6.697 1.555 9.565 3.654 2.753 2.015 5.429 4.77 7.653 7.35 2.475 2.87 4.357 6.003 5.852 9.496.67 1.567 1.4 3.218 1.852 4.866.663 2.41.437 5.11.079 7.554-.458 3.132-1.393 6.178-2.566 9.11-.542 1.354-1.162 2.673-1.944 3.907-.657 1.037-1.557 1.866-2.23 2.884-.98 1.482-1.806 2.472-3.22 3.58-1.48 1.161-3.1 2.107-4.575 3.272-2.484 1.963-5.1 3.747-8.07 4.894-3.163 1.223-6.42 2.782-9.715 3.588-1.857.454-3.833.985-5.74 1.13-2.355.177-4.842.429-7.198.438-2.745.01-5.467-.507-8.168-.924-1.798-.277-3.881-.264-5.56-1.057-1.218-.575-2.532-.607-3.806-.988-.958-.286-1.871-.711-2.833-.99-3.204-.93-6.07-.838-9.352-.454-2.312.27-4.854.294-7.082 1.005-1.028.328-2.212.554-3.279.73-1.875.311-4.018.623-5.799 1.296" stroke="#fff" stroke-width="1.138" stroke-linecap="round"/></svg>