<svg width="43" height="46" fill="none" xmlns="http://www.w3.org/2000/svg"><path d="M42.053 21.307v3.097c0 2.973-.596 5.822-1.668 8.424-1.072 2.601-2.621 4.955-4.527 6.813-1.906 1.982-4.17 3.469-6.671 4.584a19.996 19.996 0 01-8.22 1.734c-2.74.124-5.48-.372-7.982-1.486-2.502-1.115-4.765-2.602-6.671-4.584a24.302 24.302 0 01-4.646-6.813C.596 30.598 0 27.996 0 25.27v-3.716c0-1.487.477-2.85 1.549-4.088 1.072-1.115 2.382-1.734 4.05-1.858h.596c4.884-.248 6.79 4.83 9.887 6.194 3.455 1.362 8.816 1.114 12.985-3.221 1.787-1.735 3.813-2.726 5.719-2.726.476-.123.953-.247 1.43-.247 1.548 0 2.858.619 4.05 1.734 1.072 1.239 1.667 2.601 1.787 3.964z" fill="#FCCF39"/><path d="M10.245 0C7.028 0 4.408 2.725 4.408 5.946c0 3.345 2.62 5.947 5.837 5.947 3.216 0 5.837-2.726 5.837-5.947C15.963 2.601 13.462 0 10.245 0zM7.862 4.707c-.715 0-1.31-.619-1.31-1.362 0-.744.596-1.24 1.31-1.24.715.001 1.31.62 1.31 1.24s-.595 1.362-1.31 1.362zM31.688 0c-3.216 0-5.837 2.725-5.837 5.946 0 3.345 2.62 5.947 5.837 5.947 3.217 0 5.838-2.726 5.838-5.947C37.526 2.601 34.904 0 31.688 0zm-2.382 4.707c-.715 0-1.31-.619-1.31-1.362 0-.744.595-1.24 1.31-1.24.714.001 1.31.62 1.31 1.24s-.596 1.362-1.31 1.362zM5.36 27.253c2.264 1.487 4.527 2.726 6.79 3.593 2.264.867 4.528 1.239 6.791 1.115 2.264-.124 4.408-.991 6.433-2.106 2.145-1.239 4.17-2.85 6.314-4.46-.953 2.602-2.62 4.955-4.646 6.814-2.144 1.858-4.884 3.22-7.863 3.468-2.978.248-5.837-.62-8.22-2.23-2.382-1.61-4.407-3.716-5.598-6.194z" fill="#fff"/></svg>