<svg width="64" height="55" fill="none" xmlns="http://www.w3.org/2000/svg"><path d="M55.754 28.259c-1.608-1.866-4.235-2.301-6.558-2.01-4.202.514-8.105 2.565-11.178 5.492.205-.447.39-.95.594-1.398.96-2.495 2.15-5.292 2.213-8.018.12-3.648-2.54-6.401-6.001-7.308-3.574-.96-7.152.382-9.801 2.782-2.2 2.017-3.586 4.544-4.573 7.298-.132-5.389-1.661-11.011-6.977-11.052-3.539-.04-6.38 2.678-7.764 5.701-1.815 3.865-1.774 8.355-1.595 12.545.038.515 1.378.676 1.36.217-.221-5.79-.171-15.16 6.667-17.448 7.88-2.668 7.215 12.923 6.428 17.032-.075.463 1.268.716 1.36.217.948-4.262 1.944-8.728 4.644-12.233 2.33-2.997 6.229-5.637 10.203-4.359 4.067 1.276 5.194 5.088 4.283 8.87-1.123 4.544-3.122 8.91-5.431 12.956-.26.468 1.087.814 1.275.403 2.571-4.918 6.959-8.824 12.304-10.44 1.85-.553 4.035-1.043 5.902-.142 1.755.848 2.544 2.61 2.282 4.476-.477 3.033-2.214 6.03-3.914 8.548-1.786 2.705-3.914 5.162-6.084 7.51-.517.53-1.013 1.116-1.53 1.647-.195.227-1.235 1.602-1.605 1.614l.696.77c1.007-.307 1.777-1.49 2.454-2.173 1.335-1.42 2.67-2.841 3.891-4.314 2.375-2.796 4.52-5.787 6.058-9.147 1.07-2.535 2.413-5.668.397-8.036z" fill="#fff"/><path d="M12.043 20.254l-.226-.104c.027-.258-.576-.535-.963-.486-1.305.26-2.513 1.107-2.646 2.491-.153 1.33.763 2.517 2.034 2.828 1.141.297 2.518-.021 3.068-1.124.67-1.364-.273-2.789-1.267-3.605zm-1.72 3.953c-.719-.42-.908-1.5-.676-2.206.177-.686.694-1.217 1.314-1.475l.038.017c.63.515 1.159 1.253 1.19 2.08.014.865-.861 2.18-1.865 1.584zm22.367-.549c.035-.075-.006-.184-.14-.29-1.09-.906-2.96-.904-3.977.12-1.016 1.025-.552 2.502.514 3.26 1.028.742 2.679.821 3.51-.198a2.247 2.247 0 00.094-2.892zm-2.542 2.764c-.644-.385-.953-1.204-.72-1.91.235-.615.97-1.226 1.663-1.045-.027.259.22.417.446.52l.037.018c.488 1.126-.23 3.19-1.426 2.417zm20.716 6.641l-.113-.051c-.656-1.158-2.228-1.608-3.488-1.146-1.37.502-1.766 2.262-.98 3.435.785 1.172 2.519 1.47 3.8 1.062 1.516-.524 2.248-2.221.78-3.3zm-3.369 1.98a2.09 2.09 0 01.053-2.008c.455-.694 1.39-.944 1.867-.093a.603.603 0 00.23.195c.02.055.023.147.174.216 1.697 1.273-1.267 3.664-2.324 1.69zM13.809 10.722c.223.011.408.006.572-.054.35-.066.637-.296.756-.557.182-.098.38-.233.483-.457.256-.56.01-1.215-.505-1.585-.23-.196-.586-.314-.922-.377-.497-.409-1.32-.604-1.877-.183-.431.345-.63.976-.608 1.528.097 1.083 1.066 1.753 2.1 1.685zm23.773 1.855c.032.33.19.583.381.762.08.126.158.252.254.342l.041.109c.213.233.535.425.854.526l.075.034c.49.225 1.213.24 1.606-.122.555-.514.404-1.08.033-1.565-.075-.532-.46-.888-.895-1.133-.246-.158-.565-.258-.846-.342-.206-.049-.576-.038-.699.132-.017.037-.089.094-.106.132-.418.215-.736.611-.698 1.125zm23.83 14.479c-.025-.643-.505-1.088-1.104-1.273-.545-.204-1.285-.182-1.754.145a.977.977 0 00-.414.307c-.36.288-.547.698-.396 1.264.374 1.075 2.053 1.392 2.96.904.452-.29.729-.795.708-1.346z" fill="#fff"/></svg>