<svg width="124" height="43" fill="none" xmlns="http://www.w3.org/2000/svg"><path d="M1 2a1 1 0 100-2 1 1 0 000 2zm10.2 0a1 1 0 100-2 1 1 0 000 2zm10.1 0a1 1 0 100-2 1 1 0 000 2zm10.2 0a1 1 0 100-2 1 1 0 000 2zm10.1 0a1 1 0 100-2 1 1 0 000 2zm10.2 0a1 1 0 100-2 1 1 0 000 2zm10.1 0a1 1 0 100-2 1 1 0 000 2zm10.2 0a1 1 0 100-2 1 1 0 000 2zm10.1 0a1 1 0 100-2 1 1 0 000 2zm10.1 0a1 1 0 100-2 1 1 0 000 2zm10.2 0a1 1 0 100-2 1 1 0 000 2zm10.1 0a1 1 0 100-2 1 1 0 000 2zm10.2 0a1 1 0 100-2 1 1 0 000 2zM1 12.2a1 1 0 100-2 1 1 0 000 2zm10.2 0a1 1 0 100-2 1 1 0 000 2zm10.1 0a1 1 0 100-2 1 1 0 000 2zm10.2 0a1 1 0 100-2 1 1 0 000 2zm10.1 0a1 1 0 100-2 1 1 0 000 2zm10.2 0a1 1 0 100-2 1 1 0 000 2zm10.1 0a1 1 0 100-2 1 1 0 000 2zm10.2 0a1 1 0 100-2 1 1 0 000 2zm10.1 0a1 1 0 100-2 1 1 0 000 2zm10.1 0a1 1 0 100-2 1 1 0 000 2zm10.2 0a1 1 0 100-2 1 1 0 000 2zm10.1 0a1 1 0 100-2 1 1 0 000 2zm10.2 0a1 1 0 100-2 1 1 0 000 2zM1 22.3a1 1 0 100-2 1 1 0 000 2zm10.2 0a1 1 0 100-2 1 1 0 000 2zm10.1 0a1 1 0 100-2 1 1 0 000 2zm10.2 0a1 1 0 100-2 1 1 0 000 2zm10.1 0a1 1 0 100-2 1 1 0 000 2zm10.2 0a1 1 0 100-2 1 1 0 000 2zm10.1 0a1 1 0 100-2 1 1 0 000 2zm10.2 0a1 1 0 100-2 1 1 0 000 2zm10.1 0a1 1 0 100-2 1 1 0 000 2zm10.1 0a1 1 0 100-2 1 1 0 000 2zm10.2 0a1 1 0 100-2 1 1 0 000 2zm10.1 0a1 1 0 100-2 1 1 0 000 2zm10.2 0a1 1 0 100-2 1 1 0 000 2zM1 32.5a1 1 0 100-2 1 1 0 000 2zm10.2 0a1 1 0 100-2 1 1 0 000 2zm10.1 0a1 1 0 100-2 1 1 0 000 2zm10.2 0a1 1 0 100-2 1 1 0 000 2zm10.1 0a1 1 0 100-2 1 1 0 000 2zm10.2 0a1 1 0 100-2 1 1 0 000 2zm10.1 0a1 1 0 100-2 1 1 0 000 2zm10.2 0a1 1 0 100-2 1 1 0 000 2zm10.1 0a1 1 0 100-2 1 1 0 000 2zm10.1 0a1 1 0 100-2 1 1 0 000 2zm10.2 0a1 1 0 100-2 1 1 0 000 2zm10.1 0a1 1 0 100-2 1 1 0 000 2zm10.2 0a1 1 0 100-2 1 1 0 000 2zM1 42.6a1 1 0 100-2 1 1 0 000 2zm10.2 0a1 1 0 100-2 1 1 0 000 2zm10.1 0a1 1 0 100-2 1 1 0 000 2zm10.2 0a1 1 0 100-2 1 1 0 000 2zm10.1 0a1 1 0 100-2 1 1 0 000 2zm10.2 0a1 1 0 100-2 1 1 0 000 2zm10.1 0a1 1 0 100-2 1 1 0 000 2zm10.2 0a1 1 0 100-2 1 1 0 000 2zm10.1 0a1 1 0 100-2 1 1 0 000 2zm10.1 0a1 1 0 100-2 1 1 0 000 2zm10.2 0a1 1 0 100-2 1 1 0 000 2zm10.1 0a1 1 0 100-2 1 1 0 000 2zm10.2 0a1 1 0 100-2 1 1 0 000 2z" fill="#fff"/></svg>