<svg width="17" height="22" fill="none" xmlns="http://www.w3.org/2000/svg"><path fill-rule="evenodd" clip-rule="evenodd" d="M7.984 22c-2.275-.35-4.214-2.297-3.275-6.43.951 1.379 1.298.65 1.298.65.057-4.684 3.603-5.856 3.603-5.856-1.06 2.395 1.038 2.461 1.182 5.18.864-.443 1.181-.938 1.181-.938 2.864 3.85.741 6.605-1.968 7.312 4.339-.556 8.069-4.23 6.282-12.093-1.796 2.603-2.448 1.228-2.448 1.228C13.729 2.21 7.037 0 7.037 0c2.003 4.52-1.96 4.645-2.23 9.775-1.633-.834-2.231-1.768-2.231-1.768C-3.416 16.064 2.158 21.581 7.984 22z" fill="#CF102D"/></svg>