<svg width="20" height="20" fill="none" xmlns="http://www.w3.org/2000/svg"><path d="M17.959 0h-5.456a1.59 1.59 0 00-1.591 1.591v5.456a1.59 1.59 0 001.591 1.591h5.456a1.59 1.59 0 001.591-1.59V1.59A1.59 1.59 0 0017.96 0zm1.576 14.106l-3.179-3.179a1.594 1.594 0 00-2.25 0l-3.178 3.18a1.593 1.593 0 000 2.249l3.178 3.179a1.593 1.593 0 002.25 0l3.179-3.18a1.592 1.592 0 000-2.249zM7.047 0H1.591A1.59 1.59 0 000 1.591v5.456a1.59 1.59 0 001.591 1.591h5.456a1.59 1.59 0 001.591-1.59V1.59A1.59 1.59 0 007.048 0zm0 10.912H1.591A1.59 1.59 0 000 12.503v5.456a1.59 1.59 0 001.591 1.591h5.456a1.59 1.59 0 001.591-1.591v-5.456a1.59 1.59 0 00-1.59-1.591z" fill="#69778A"/></svg>