<svg width="17" height="20" fill="none" xmlns="http://www.w3.org/2000/svg"><path d="M13.873 3.953a2.144 2.144 0 10-2.72-3.265 5.747 5.747 0 012.72 3.265zm-10.875 0A5.747 5.747 0 015.718.688a2.143 2.143 0 10-2.72 3.265zM14.96 9.817a5.041 5.041 0 00-1.65-1.123 5.742 5.742 0 01-.516.718 9.546 9.546 0 011.645 4.177c.63.173 1.189.11 1.532-.234.698-.698.246-2.282-1.01-3.538zM2.432 13.589a9.546 9.546 0 011.645-4.177 5.746 5.746 0 01-.517-.718c-.619.26-1.18.642-1.65 1.122C.655 11.073.203 12.657.9 13.356c.344.343.903.407 1.532.233z" fill="#69778A"/><path d="M3.431 5.719a5.004 5.004 0 1010.01 0 5.004 5.004 0 00-10.01 0zm7.507-1.073a.357.357 0 110 .715.357.357 0 010-.715zm-2.502 1.43c.442 0 1.787 0 1.787 1.072a1.937 1.937 0 01-1.787 1.788 1.937 1.937 0 01-1.788-1.788c0-1.072 1.346-1.072 1.788-1.072zm-2.502-1.43a.357.357 0 110 .715.357.357 0 010-.715z" fill="#69778A"/><path d="M8.435 8.22a1.219 1.219 0 001.073-1.072c0-.107 0-.357-1.073-.357-1.072 0-1.072.25-1.072.357a1.219 1.219 0 001.072 1.073zm4.647 11.797a2.145 2.145 0 100-4.29 2.145 2.145 0 000 4.29z" fill="#69778A"/><path d="M13.082 15.012c.235.001.468.031.695.09.01-.147.02-.293.02-.447a8.64 8.64 0 00-1.5-4.73 5.685 5.685 0 01-7.723 0 8.64 8.64 0 00-1.5 4.73c0 .154.01.3.02.446a2.854 2.854 0 013.16 4.213 7.07 7.07 0 004.363 0 2.854 2.854 0 012.465-4.302z" fill="#69778A"/><path d="M3.789 20.017a2.145 2.145 0 100-4.29 2.145 2.145 0 000 4.29z" fill="#69778A"/></svg>