<svg width="20" height="18" fill="none" xmlns="http://www.w3.org/2000/svg"><path d="M12.485 16.446a2.647 2.647 0 00-2.643-2.644 2.647 2.647 0 00-2.644 2.644v1.549h5.287v-1.55zm-5.287-2.71a3.774 3.774 0 012.644-1.077c1.027 0 1.96.411 2.643 1.078v-3.96H7.198v3.96zm-1.144-.482V6.28l-5.041-.006v6.981h5.041zm-5.041 1.144h5.041V18H1.013v-3.602zm12.616 0h5.042V18h-5.042v-3.602zm0-1.144h5.042v-6.98l-5.042.005v6.975zM3.502 0C2.716 1.81 1.501 3.6.084 5.108h6.854C5.538 3.611 4.284 1.793 3.502 0zm12.679 0c.787 1.81 2.002 3.6 3.418 5.108h-6.854C14.145 3.611 15.4 1.793 16.181 0z" fill="#69778A"/></svg>