<svg width="20" height="20" fill="none" xmlns="http://www.w3.org/2000/svg"><path d="M19.333 16h-.666v-1.333A2.67 2.67 0 0016 12h-.03a7.318 7.318 0 00-6.637-6.636V3.877c.21.075.432.123.667.123 1.103 0 2-.897 2-2s-.897-2-2-2c-.514 0-.979.2-1.333.52C8.312.2 7.847 0 7.333 0c-1.103 0-2 .897-2 2s.897 2 2 2c.235 0 .457-.048.667-.123v1.487c-3.732.338-6.667 3.484-6.667 7.303V16H.667a.666.666 0 100 1.333h2A2.67 2.67 0 005.333 20 2.67 2.67 0 008 17.333h4A2.67 2.67 0 0014.667 20a2.67 2.67 0 002.666-2.667h2a.666.666 0 100-1.333zM10 1.333a.668.668 0 010 1.333A.668.668 0 019.333 2c0-.367.3-.667.667-.667zM5.333 18.667a1.334 1.334 0 010-2.667c.751 0 1.334.62 1.334 1.333 0 .736-.598 1.334-1.334 1.334zM8 13.333H4.667A.666.666 0 014 12.667c0-2.345 1.744-4.273 4-4.6v5.266zM7.333 2.667A.668.668 0 118 2c0 .367-.3.667-.667.667zm5.334 10.666H9.333V8.067c2.256.327 4 2.255 4 4.6a.666.666 0 01-.666.666zm2 5.334a1.334 1.334 0 010-2.667c.75 0 1.333.62 1.333 1.333 0 .736-.598 1.334-1.333 1.334z" fill="#69778A"/></svg>