<svg width="20" height="20" fill="none" xmlns="http://www.w3.org/2000/svg"><path d="M5.595 14.405l-1.48-1.48a.986.986 0 00-1.394 1.395l.783.783L.29 18.317a.986.986 0 101.394 1.394l3.214-3.214.784.784a.984.984 0 001.684-.697.985.985 0 00-.29-.697l-1.48-1.48v-.002zM18.08 1.922c-2.765-2.764-7.492-2.517-10.56.55-3.068 3.068-3.315 7.795-.55 10.56 2.765 2.764 7.492 2.518 10.56-.55 3.068-3.068 3.315-7.795.55-10.56zm-.6 14.218a1.792 1.792 0 10-.084 3.584 1.792 1.792 0 00.083-3.584z" fill="#69778A"/></svg>