<svg width="20" height="20" fill="none" xmlns="http://www.w3.org/2000/svg"><g clip-path="url(#clip0_2113_6136)" fill="#69778A"><path d="M.586 13.724c.966 0 1.698-.268 2.24-.663l.502-2.514A5.186 5.186 0 014.503 8.16H4.03a3.731 3.731 0 00-3.654 3.005L.01 13.026a.586.586 0 00.575.699zm2.894 2.042a11.092 11.092 0 003.1 1.45l.067-.268c.33-1.343 1.595-2.715 3.49-2.67l.004.001a3.362 3.362 0 013.163 2.526l.104.414a11.143 11.143 0 003.35-1.618l-1.486-8.915.276.276c.75.75 1.963.75 2.711 0a1.92 1.92 0 000-2.711l-1.397-1.397V.586A.586.586 0 0016.276 0h-.67A5.603 5.603 0 0010 5.606v1.925H8.437a4.05 4.05 0 00-3.96 3.246l-.997 4.989z"/><path d="M19.828 15.234a.586.586 0 00-.828 0 12.21 12.21 0 01-3.981 2.66c-1.496.62-3.076.934-4.696.934h-.646c-1.62 0-3.2-.314-4.696-.934a12.21 12.21 0 01-3.98-2.66.586.586 0 00-.83.829 13.376 13.376 0 004.362 2.914A13.374 13.374 0 009.677 20h.646c1.774 0 3.505-.344 5.144-1.023a13.38 13.38 0 004.361-2.914.586.586 0 000-.829z"/></g><defs><clipPath id="clip0_2113_6136"><path fill="#fff" d="M0 0h20v20H0z"/></clipPath></defs></svg>