<svg width="20" height="20" fill="none" xmlns="http://www.w3.org/2000/svg"><path d="M6.137 9.546h7.73a.91.91 0 00.908-.909V.908A.91.91 0 0013.867 0h-7.73a.91.91 0 00-.908.908v7.73c0 .5.408.908.908.908zm1.434-5.508a.46.46 0 01.304-.296l1.1-.321.646-.95c.17-.246.583-.246.754 0l.646.95 1.1.32a.46.46 0 01.237.713l-.7.909.03 1.15a.442.442 0 01-.188.379.449.449 0 01-.267.091c-.05 0-.1-.008-.15-.029L10 6.567l-1.083.387c-.142.05-.3.03-.417-.062a.453.453 0 01-.188-.38l.03-1.15-.7-.908a.439.439 0 01-.071-.417zM.908 20h7.73a.91.91 0 00.908-.908v-7.73a.91.91 0 00-.909-.908H.908a.91.91 0 00-.908.909v7.729c0 .5.408.908.908.908zm3.863-7.5a2.727 2.727 0 110 5.454 2.727 2.727 0 010-5.454zm14.32-2.046h-7.729a.91.91 0 00-.908.909v7.729c0 .5.409.908.909.908h7.729a.91.91 0 00.908-.908v-7.73a.91.91 0 00-.908-.908zm-1.662 7.063a.458.458 0 01-.383.212h-3.638a.445.445 0 01-.379-.212.448.448 0 01-.033-.43l1.816-4.091a.454.454 0 01.83 0l1.816 4.091a.46.46 0 01-.029.43z" fill="#69778A"/></svg>