<svg width="51" height="51" fill="none" xmlns="http://www.w3.org/2000/svg"><path d="M11.046 27.165c.21 3.963 2.008 9.301 5.179 10.57 3.17 1.268 8.033 1.955 10.728 1.797 2.801-.159 7.558-1.48 9.619-5.92 2.061-4.439 4.334-11.944-.74-19.026-5.073-7.134-17.81-2.906-20.347-.74-2.484 2.115-4.65 9.355-4.44 13.319zm6.764-9.407c1.85-1.586 11.363-4.704 15.115.58 3.753 5.286 2.062 10.835.529 14.112-1.533 3.33-5.02 4.28-7.135 4.386-2.008.159-5.602-.317-7.98-1.268-2.378-.951-3.7-4.915-3.858-7.822-.106-3.012 1.48-8.403 3.33-9.988z" fill="#F0B5BE"/><path d="M34.3 26.16s.052-.475-.16-.475c-.21 0-.475.211-.422.423.106.264.581.053.581.053zm-.318 2.907s.053-.475-.158-.475c-.212 0-.476.211-.423.423.106.21.581.052.581.052zm-.792 2.696s.053-.476-.159-.476c-.211 0-.476.211-.423.423.053.211.582.053.582.053zm-1.269 2.589s.053-.475-.158-.475c-.212 0-.476.211-.423.422.105.212.581.053.581.053zm2.696-12.684s.052-.475-.159-.475-.476.211-.423.422c.159.212.582.053.582.053zm.105 2.854s.053-.475-.158-.475c-.212 0-.476.211-.423.422.106.265.581.053.581.053zm.053 2.907s.053-.476-.158-.476c-.212 0-.476.212-.423.423.158.212.581.053.581.053z" fill="#F0B5BE"/><path d="M33.56 31.446s.052-.476-.16-.476c-.21 0-.475.211-.422.423.106.211.581.053.581.053zm-.212-1.216s.053-.476-.158-.476c-.212 0-.476.212-.423.423.105.264.581.053.581.053zM21.034 16.542s.053-.476-.158-.476c-.212 0-.476.212-.423.423.105.212.581.053.581.053zm2.643-1.162s.052-.476-.159-.476-.476.211-.423.422c.106.265.582.053.582.053zm2.853-.054s.053-.475-.158-.475c-.212 0-.476.211-.423.423.106.264.581.052.581.052zm2.696.846s.053-.476-.159-.476c-.211 0-.475.212-.423.423.106.212.582.053.582.053zm2.378 1.48s.053-.476-.159-.476c-.21 0-.475.212-.422.423.105.264.581.053.581.053zm1.903 2.167s.053-.476-.159-.476c-.211 0-.476.211-.423.423.159.211.582.053.582.053zm-14.693-1.48s.053-.476-.158-.476c-.212 0-.476.212-.423.423.106.211.581.053.581.053zm2.696-1.004s.052-.476-.159-.476-.476.211-.423.423c.106.264.582.053.582.053zm2.748-.899s.053-.475-.159-.475c-.211 0-.475.211-.422.422.105.265.58.053.58.053zm2.748.476s.053-.476-.159-.476c-.21 0-.475.212-.422.423.105.211.581.053.581.053z" fill="#F0B5BE"/><path d="M21.034 17.123s.053-.475-.158-.475c-.212 0-.476.211-.423.422.158.212.581.053.581.053zm2.854-.317s.053-.475-.159-.475c-.211 0-.475.211-.422.422.105.212.581.053.581.053zm2.854.317s.053-.475-.159-.475c-.211 0-.475.211-.422.422.105.265.58.053.58.053z" fill="#F0B5BE"/><path d="M24.31 16.86s.054-.477-.158-.477c-.211 0-.475.212-.422.423.105.264.58.053.58.053zm2.855-.37s.053-.476-.159-.476c-.211 0-.476.21-.423.422.106.265.582.053.582.053zm3.805-1.85s.053-.476-.159-.476c-.211 0-.475.211-.422.422.105.212.58.053.58.053zm-1.427 2.483s.053-.475-.159-.475c-.211 0-.475.211-.422.422.105.212.58.053.58.053zm-2.061-3.276s.053-.476-.159-.476c-.211 0-.476.211-.423.423.106.264.582.053.582.053zm.687 2.483s.053-.475-.159-.475c-.211 0-.475.211-.423.423.159.264.582.053.582.053zm-2.589-.264s.052-.475-.16-.475c-.21 0-.475.211-.422.423.105.21.581.052.581.052zm-2.432.529s.053-.476-.158-.476c-.212 0-.476.212-.423.423.158.264.581.053.581.053zm-3.541 1.215s.053-.475-.158-.475c-.212 0-.476.211-.423.422.106.212.581.053.581.053zm-2.378 1.533s.053-.476-.159-.476c-.211 0-.475.212-.422.423.105.212.58.053.58.053zm6.395-.476s.053-.475-.159-.475c-.211 0-.476.211-.423.422.106.212.582.053.582.053zm1.956-1.109s.052-.476-.16-.476c-.21 0-.475.211-.422.423.158.211.581.053.581.053zm-.74 1.321s.052-.476-.16-.476c-.21 0-.475.211-.422.423.106.264.581.053.581.053zm-.054-1.427s.053-.476-.158-.476c-.212 0-.476.212-.423.423.159.264.581.053.581.053zm3.119-.264s.052-.476-.159-.476-.476.211-.423.423c.159.264.582.053.582.053zm2.854-.37s.052-.476-.16-.476c-.21 0-.475.211-.422.423.159.211.582.053.582.053zm1.902 1.532s.053-.475-.159-.475c-.21 0-.475.211-.422.422.105.212.581.053.581.053zm1.903 4.44s.053-.476-.159-.476c-.211 0-.476.211-.423.423.106.211.582.053.582.053zm.739 2.96s.053-.476-.158-.476-.476.211-.423.422c.106.265.581.053.581.053zM33.4 27.905s.054-.476-.158-.476c-.211 0-.475.211-.422.423.158.211.58.053.58.053zm1.322.845s.053-.475-.158-.475c-.212 0-.476.211-.423.422.106.212.581.053.581.053zm-2.272.687s.052-.475-.159-.475-.476.211-.423.422c.106.265.582.053.582.053zm1.69.635s.054-.476-.158-.476c-.211 0-.475.211-.422.423.105.264.58.053.58.053zm-2.483 1.955s.053-.476-.159-.476c-.211 0-.475.212-.422.423.052.211.58.053.58.053zm.793-1.797s.052-.476-.159-.476-.476.212-.423.423c.106.264.582.053.582.053zm.158 2.537s.053-.476-.158-.476c-.212 0-.476.212-.423.423.106.211.581.053.581.053zm-.264.74s.053-.476-.159-.476c-.211 0-.475.212-.422.423.158.211.58.053.58.053zm-1.057-2.59s.053-.476-.159-.476c-.21 0-.475.212-.422.423.158.264.581.053.581.053z" fill="#F0B5BE"/><path d="M32.185 30.072s.053-.476-.158-.476c-.212 0-.476.211-.423.423.159.211.581.053.581.053zm1.163 2.589s.053-.476-.158-.476c-.212 0-.476.212-.423.423.105.212.581.053.581.053zm-2.907 2.325s.053-.475-.158-.475c-.212 0-.476.211-.423.423.106.211.581.053.581.053zm-3.171-.158s.053-.476-.158-.476-.476.212-.423.423c.106.212.581.053.581.053zm-12.366-1.797s.053-.476-.159-.476c-.211 0-.476.212-.423.423.106.212.582.053.582.053zM17.44 34.3s.053-.476-.158-.476c-.212 0-.476.211-.423.423.159.264.581.053.581.053zm2.643 1.11s.053-.476-.159-.476c-.211 0-.475.211-.422.422.158.212.58.053.58.053zm2.854.422s.053-.476-.159-.476c-.211 0-.475.212-.422.423.105.212.58.053.58.053zm2.853.106s.053-.476-.158-.476-.476.212-.423.423c.106.211.582.053.582.053zm2.749-.634s.053-.476-.159-.476c-.211 0-.475.211-.422.423.105.211.58.053.58.053zm2.325-1.744s.053-.476-.158-.476c-.212 0-.476.211-.423.423.105.211.581.053.581.053zm-15.062-9.62s.053-.475-.159-.475c-.21 0-.475.212-.422.423.105.264.581.053.581.053zm1.374-2.483s.053-.476-.158-.476c-.212 0-.476.212-.423.423.106.212.581.053.581.053zm1.797-2.22s.053-.475-.159-.475c-.21 0-.475.211-.422.422.105.212.581.053.581.053zm6.659-2.695s.053-.476-.159-.476c-.21 0-.475.212-.422.423.158.212.581.053.581.053zm1.268-.212s.053-.475-.158-.475c-.212 0-.476.211-.423.423.106.211.581.053.581.053zm2.062.582s.052-.476-.159-.476-.476.212-.423.423c.106.211.582.053.582.053zm1.374-.476s.053-.475-.159-.475c-.211 0-.476.211-.423.422.106.212.582.053.582.053zm.423 1.11s.052-.476-.16-.476c-.21 0-.475.212-.422.423.106.212.582.053.582.053zm1.743.264s.053-.475-.158-.475c-.212 0-.476.211-.423.422.106.212.581.053.581.053zm1.005 1.797s.053-.475-.159-.475c-.211 0-.476.211-.423.422.159.212.582.053.582.053zm.528 1.533s.053-.476-.158-.476c-.212 0-.476.212-.423.423.158.264.581.053.581.053zm.635.898s.052-.475-.16-.475c-.21 0-.475.211-.422.422.106.212.581.053.581.053zm.633 2.167s.053-.475-.158-.475-.476.21-.423.422c.159.212.581.053.581.053zm-1.268-.423s.053-.475-.158-.475c-.212 0-.476.211-.423.423.106.264.581.052.581.052zm.899-.317s.053-.475-.159-.475c-.211 0-.476.211-.423.422.159.212.582.053.582.053z" fill="#F0B5BE"/><path d="M35.145 23.994s.053-.476-.159-.476c-.21 0-.475.212-.422.423.053.211.581.053.581.053zm.581 1.321s.053-.476-.158-.476c-.212 0-.476.212-.423.423.106.212.581.053.581.053zm-1.216-.211s.054-.476-.158-.476c-.211 0-.475.211-.423.423.106.211.582.053.582.053z" fill="#F0B5BE"/><path d="M34.564 25.368s.053-.476-.159-.476c-.211 0-.476.212-.423.423.106.211.582.053.582.053zm.316.475s.054-.475-.158-.475c-.211 0-.475.211-.423.423.106.211.582.052.582.052z" fill="#F0B5BE"/><path d="M34.986 25.58s.053-.476-.158-.476-.476.211-.423.422c.106.212.581.053.581.053zm.529.95s.053-.475-.159-.475c-.211 0-.475.211-.422.423.105.211.58.053.58.053zm-1.005.318s.054-.476-.158-.476c-.211 0-.475.211-.423.423.106.264.582.053.582.053zm-1.11-.265s.054-.475-.158-.475c-.211 0-.475.211-.422.423.105.211.58.052.58.052zm.477 1.005s.052-.476-.159-.476-.476.211-.423.423c.053.211.582.053.582.053z" fill="#F0B5BE"/><path d="M33.665 27.64s.053-.475-.158-.475c-.212 0-.476.211-.423.423.158.211.581.052.581.052zm-.475 1.533s.053-.476-.159-.476c-.211 0-.476.212-.423.423.106.264.582.053.582.053z" fill="#F0B5BE"/><path d="M33.4 28.75s.054-.475-.158-.475c-.211 0-.475.211-.422.422.105.265.58.053.58.053zm.424-.793s.053-.475-.159-.475c-.211 0-.475.211-.423.423.159.211.582.052.582.052zm1.268-2.167s.053-.475-.158-.475c-.212 0-.476.211-.423.423.158.211.581.053.581.053z" fill="#F0B5BE"/><path d="M34.088 28.01s.053-.475-.159-.475c-.21 0-.475.211-.422.422.105.212.581.053.581.053zm.37-3.382s.053-.476-.159-.476c-.211 0-.475.212-.422.423.158.264.58.053.58.053z" fill="#F0B5BE"/><path d="M34.458 24.628s.053-.476-.159-.476c-.211 0-.475.212-.422.423.105.264.58.053.58.053zm-.37-2.061s.053-.476-.159-.476c-.21 0-.475.212-.422.423.053.211.581.053.581.053zm-.793-2.643s.053-.475-.158-.475c-.212 0-.476.211-.423.422.158.212.581.053.581.053zm-3.118-3.064s.053-.477-.158-.477c-.212 0-.476.212-.423.423.105.212.581.053.581.053zm1.691 1.954s.053-.475-.158-.475c-.212 0-.476.211-.423.423.106.211.581.052.581.052zM24.787 3.805C24.892 1.163 25.631 0 26.477 0s2.485 1.321 1.586 3.805c-.845 2.378-.74 5.76-1.691 5.76-1.004 0-1.691-3.117-1.585-5.76zm1.533 43.548c-.265 2.643-1.11 3.7-1.956 3.647-.846-.053-2.379-1.533-1.322-3.91 1.057-2.273 1.163-5.709 2.114-5.656.952.053 1.427 3.277 1.163 5.92zm20.875-22.566c2.642.105 3.805.845 3.805 1.69 0 .846-1.321 2.485-3.805 1.586-2.378-.845-5.76-.74-5.76-1.691 0-1.004 3.117-1.691 5.76-1.585zM3.647 26.32c-2.643-.265-3.7-1.11-3.647-1.956.053-.846 1.533-2.379 3.91-1.322 2.273 1.057 5.709 1.163 5.656 2.114-.053.952-3.277 1.427-5.92 1.163zm36.73-16.701c1.956-1.797 3.277-2.114 3.858-1.48.582.581.793 2.695-1.585 3.805-2.273 1.057-4.598 3.541-5.285 2.854-.687-.634 1.057-3.33 3.012-5.18zM10.623 41.487c-2.061 1.691-3.383 1.85-3.964 1.216-.581-.635-.581-2.749 1.85-3.7 2.325-.898 4.862-3.224 5.496-2.484.634.74-1.321 3.33-3.382 4.968zm30.705-1.11c1.797 1.956 2.114 3.277 1.48 3.858-.581.582-2.695.793-3.805-1.585-1.057-2.273-3.54-4.598-2.854-5.285.687-.687 3.383 1.057 5.18 3.012zM9.513 10.623C7.822 8.562 7.663 7.24 8.297 6.659c.635-.581 2.749-.581 3.7 1.85.898 2.325 3.224 4.862 2.484 5.496-.74.634-3.33-1.321-4.968-3.382z" fill="#F0B5BE"/></svg>