<svg width="237" height="50" fill="none" xmlns="http://www.w3.org/2000/svg"><path d="M11.15 40.35c-1.8 0-3.5-.333-5.1-1-1.6-.633-2.9-1.617-3.9-2.95-.967-1.333-1.45-3-1.45-5 0-1.733.333-3.083 1-4.05.7-.967 1.55-1.65 2.55-2.05 1-.4 1.95-.6 2.85-.6a10.27 10.27 0 00-2.05 3.2c-.467 1.167-.7 2.333-.7 3.5 0 1.233.267 2.383.8 3.45.567 1.067 1.417 1.917 2.55 2.55 1.133.667 2.567 1 4.3 1 1.5 0 2.967-.283 4.4-.85 1.433-.533 2.6-1.333 3.5-2.4.933-1.1 1.4-2.45 1.4-4.05 0-1.433-.367-2.667-1.1-3.7-.733-1.033-1.683-1.95-2.85-2.75a42.711 42.711 0 00-3.65-2.3c-1.3-.733-2.533-1.5-3.7-2.3-1.133-.833-2.067-1.783-2.8-2.85-.733-1.067-1.1-2.35-1.1-3.85 0-1.4.333-2.867 1-4.4.667-1.533 1.617-2.983 2.85-4.35a14.834 14.834 0 014.5-3.3C16.217.433 18.183 0 20.35 0c1.967 0 3.333.483 4.1 1.45.767.933 1.15 2.117 1.15 3.55 0 1.2-.217 2.5-.65 3.9a26.79 26.79 0 01-1.5 3.95 36.823 36.823 0 01-1.7 3.15c-.6-.133-1.033-.383-1.3-.75-.233-.4-.35-.867-.35-1.4 0-.7.15-1.5.45-2.4.3-.9.633-1.833 1-2.8.4-.967.75-1.9 1.05-2.8.3-.933.45-1.767.45-2.5 0-.667-.2-1.183-.6-1.55-.4-.4-1.133-.6-2.2-.6-1.567 0-3.017.367-4.35 1.1a12.529 12.529 0 00-3.5 2.85c-1 1.133-1.783 2.333-2.35 3.6-.533 1.267-.8 2.417-.8 3.45 0 1.233.35 2.3 1.05 3.2.733.867 1.667 1.667 2.8 2.4 1.133.7 2.333 1.417 3.6 2.15 1.3.7 2.517 1.483 3.65 2.35s2.05 1.9 2.75 3.1c.733 1.167 1.1 2.6 1.1 4.3 0 1.733-.383 3.267-1.15 4.6-.767 1.3-1.8 2.4-3.1 3.3a14.474 14.474 0 01-4.2 2.05c-1.533.467-3.067.7-4.6.7zM24.657 50c-.267 0-.517-.15-.75-.45a2.666 2.666 0 01-.6-.9c-.134-.3-.2-.483-.2-.55a70.22 70.22 0 011.4-4.4l1.35-3.95a63.38 63.38 0 001.3-4.7c.433-1.833.883-4.1 1.35-6.8.466-2.7.933-6.05 1.4-10.05.033-.3.1-.517.2-.65s.35-.2.75-.2c.866 0 1.483.25 1.85.75.366.467.55.983.55 1.55 0 .467-.1 1.3-.3 2.5-.2 1.2-.484 2.617-.85 4.25a25.041 25.041 0 012.1-3.35 13.25 13.25 0 012.95-2.85c1.1-.767 2.3-1.15 3.6-1.15 1.466 0 2.666.533 3.6 1.6.966 1.033 1.45 2.4 1.45 4.1 0 1.3-.3 2.683-.9 4.15-.567 1.433-1.384 2.8-2.45 4.1a12.75 12.75 0 01-3.7 3.1c-1.434.8-3.017 1.2-4.75 1.2-.867 0-1.567-.1-2.1-.3-.534-.2-.8-.4-.8-.6 0-.133.116-.217.35-.25h.9c1.333 0 2.6-.317 3.8-.95a12.364 12.364 0 003.3-2.6 12.085 12.085 0 002.25-3.55c.566-1.3.85-2.583.85-3.85 0-1.067-.234-1.967-.7-2.7-.434-.767-1.15-1.15-2.15-1.15-.867 0-1.734.283-2.6.85-.834.533-1.634 1.233-2.4 2.1a22.08 22.08 0 00-2 2.65c-.567.9-1 1.717-1.3 2.45-.6 2.5-1.2 4.9-1.8 7.2-.6 2.333-1.184 4.433-1.75 6.3-.534 1.9-1.017 3.45-1.45 4.65-.467 1.2-.85 1.933-1.15 2.2a.818.818 0 01-.6.25zm28.08-11.8c-2.032 0-3.566-.567-4.6-1.7-1-1.1-1.5-2.467-1.5-4.1 0-1.5.368-3.083 1.1-4.75a20.78 20.78 0 013-4.7c1.268-1.467 2.65-2.65 4.15-3.55 1.5-.933 2.984-1.4 4.45-1.4.768 0 1.468.2 2.1.6.668.4 1 1.217 1 2.45 0 1.267-.382 2.467-1.15 3.6-.732 1.1-1.716 2.083-2.95 2.95a17.672 17.672 0 01-4 2.15 16.744 16.744 0 01-4.3 1c-.066.333-.116.65-.15.95-.032.3-.05.583-.05.85 0 .5.05 1 .15 1.5.134.5.35.967.65 1.4.3.4.7.717 1.2.95.534.233 1.184.35 1.95.35 1.434 0 2.85-.4 4.25-1.2 1.4-.833 2.7-1.917 3.9-3.25 1.2-1.333 2.218-2.8 3.05-4.4l.6.45c-.9 2-2.05 3.733-3.45 5.2-1.366 1.467-2.866 2.6-4.5 3.4-1.6.833-3.232 1.25-4.9 1.25zm-2.45-8.4c.9-.3 1.918-.733 3.05-1.3 1.134-.6 2.218-1.3 3.25-2.1 1.068-.8 1.934-1.683 2.6-2.65.7-.967 1.05-1.983 1.05-3.05 0-.367-.066-.65-.2-.85-.132-.2-.416-.3-.85-.3-.8 0-1.65.317-2.55.95-.9.6-1.766 1.4-2.6 2.4-.832 1-1.582 2.1-2.25 3.3-.666 1.2-1.166 2.4-1.5 3.6zm19.051 9c-1.6 0-2.933-.533-4-1.6-1.066-1.067-1.6-2.667-1.6-4.8 0-1.667.317-3.283.95-4.85a16.443 16.443 0 012.6-4.3c1.067-1.267 2.25-2.267 3.55-3 1.3-.767 2.584-1.15 3.85-1.15 1.367 0 2.3.4 2.8 1.2.5.8.75 1.633.75 2.5 0 .967-.233 1.817-.7 2.55-.433.733-1.033 1.1-1.8 1.1-.566 0-1.05-.25-1.45-.75.5-.267.934-.8 1.3-1.6.367-.833.55-1.617.55-2.35 0-.4-.083-.7-.25-.9-.133-.233-.416-.35-.85-.35-.9 0-1.833.4-2.8 1.2-.933.8-1.816 1.833-2.65 3.1-.8 1.267-1.466 2.6-2 4-.5 1.4-.75 2.717-.75 3.95 0 1.033.25 1.983.75 2.85s1.467 1.3 2.9 1.3c1.334 0 2.667-.367 4-1.1 1.367-.733 2.634-1.783 3.8-3.15 1.167-1.367 2.1-2.967 2.8-4.8l.65.5c-.766 2-1.816 3.8-3.15 5.4-1.333 1.567-2.8 2.8-4.4 3.7-1.6.9-3.216 1.35-4.85 1.35zm14.412-1.5c-1.3 0-2.266-.417-2.9-1.25-.633-.8-.95-1.783-.95-2.95 0-.767.134-1.733.4-2.9.3-1.167.684-2.383 1.15-3.65.467-1.3 1-2.517 1.6-3.65.634-1.133 1.3-2.05 2-2.75.7-.733 1.384-1.1 2.05-1.1.3 0 .55.1.75.3.234.167.35.433.35.8 0 .4-.266 1.05-.8 1.95-.5.9-1.1 1.933-1.8 3.1s-1.316 2.4-1.85 3.7c-.5 1.267-.75 2.483-.75 3.65 0 1.2.2 2 .6 2.4.4.4 1.017.6 1.85.6 1.134 0 2.334-.567 3.6-1.7 1.3-1.133 2.667-3.117 4.1-5.95l.45.5c-.966 2.867-2.366 5.067-4.2 6.6-1.8 1.533-3.683 2.3-5.65 2.3zm6-22.9a2.711 2.711 0 01-1.45-.4c-.4-.267-.6-.683-.6-1.25 0-.7.4-1.3 1.2-1.8.834-.533 1.65-.8 2.45-.8.5 0 .9.117 1.2.35.3.233.45.633.45 1.2 0 .633-.35 1.25-1.05 1.85-.666.567-1.4.85-2.2.85zm4.86 23.95c-1.032 0-1.9-.35-2.6-1.05-.732-.667-1.1-1.7-1.1-3.1 0-1.2.268-2.483.8-3.85a18.861 18.861 0 012.2-4.1 22.523 22.523 0 013.15-3.7c1.2-1.133 2.45-2.033 3.751-2.7 1.333-.667 2.65-1 3.95-1 1.3 0 2.383.35 3.25 1.05.867.667 1.3 1.567 1.3 2.7 0 .833-.233 1.4-.7 1.7-.433.3-1.017.45-1.75.45.067-.267.117-.55.15-.85.067-.333.1-.633.1-.9 0-.767-.183-1.417-.55-1.95-.367-.567-1-.85-1.9-.85-.933 0-1.883.333-2.85 1-.967.633-1.9 1.5-2.8 2.6-.9 1.067-1.7 2.233-2.4 3.5a21.458 21.458 0 00-1.65 3.75c-.4 1.233-.6 2.333-.6 3.3 0 1.3.45 1.95 1.35 1.95.767 0 1.6-.35 2.5-1.05.9-.733 1.817-1.65 2.75-2.75a55.13 55.13 0 002.75-3.5c.867-1.2 1.633-2.3 2.3-3.3.133-.2.217-.3.25-.3.2.033.45.1.75.2.333.1.617.233.85.4.233.167.35.383.35.65 0 .3-.15.717-.45 1.25-.3.5-.633 1.083-1 1.75s-.7 1.35-1 2.05c-.3.667-.45 1.3-.45 1.9 0 .5.133 1 .4 1.5.267.467.7.7 1.3.7.9 0 2.083-.65 3.55-1.95 1.467-1.333 2.95-3.317 4.45-5.95l.5.5c-.7 1.8-1.6 3.383-2.7 4.75s-2.283 2.433-3.55 3.2c-1.233.767-2.45 1.15-3.65 1.15-1.233 0-2.15-.367-2.75-1.1-.567-.733-.85-1.533-.85-2.4 0-.2.017-.417.05-.65l.1-.8c-1.433 1.933-2.75 3.383-3.95 4.35-1.167.967-2.367 1.45-3.6 1.45zm23.528-.85c-1.433 0-2.466-.5-3.1-1.5-.6-.967-.9-2.183-.9-3.65 0-1.6.3-3.5.9-5.7.6-2.2 1.384-4.517 2.35-6.95 1-2.433 2.084-4.8 3.25-7.1a84.045 84.045 0 013.5-6.35c1.167-1.9 2.234-3.417 3.2-4.55 1-1.133 1.784-1.7 2.35-1.7.367 0 .667.217.9.65.234.4.417.9.55 1.5.134.567.2 1.083.2 1.55 0 .9-.233 2.083-.7 3.55-.433 1.433-1.066 3.05-1.9 4.85a47.68 47.68 0 01-2.9 5.4 50.231 50.231 0 01-3.65 5.2c-1.3 1.667-2.683 3.1-4.15 4.3-.2.9-.366 1.783-.5 2.65-.1.833-.15 1.633-.15 2.4 0 1.3.184 2.267.55 2.9.367.633.917.95 1.65.95.9 0 1.784-.4 2.65-1.2.9-.8 1.734-1.8 2.5-3a26.18 26.18 0 002.05-3.8l.75.4c-1.333 2.833-2.783 5.083-4.35 6.75-1.566 1.633-3.25 2.45-5.05 2.45zm.35-12.2c1.167-1.167 2.3-2.5 3.4-4a54.63 54.63 0 003.05-4.75 60.966 60.966 0 002.55-4.75c.734-1.533 1.3-2.9 1.7-4.1.4-1.233.6-2.183.6-2.85 0-.333-.05-.55-.15-.65-.066-.1-.133-.15-.2-.15-.266 0-.733.433-1.4 1.3-.633.833-1.383 1.967-2.25 3.4a64.372 64.372 0 00-2.65 4.9c-.9 1.833-1.766 3.75-2.6 5.75-.8 2-1.483 3.967-2.05 5.9zm30.955 15.05c-1.9 0-3.567-.517-5-1.55-1.433-1-2.567-2.433-3.4-4.3-.8-1.867-1.2-4.05-1.2-6.55 0-2.567.4-5.167 1.2-7.8a37.22 37.22 0 013.35-7.55c1.4-2.4 2.983-4.533 4.75-6.4 1.767-1.9 3.633-3.4 5.6-4.5 1.967-1.1 3.9-1.65 5.8-1.65.633 0 1.2.05 1.7.15.5.1.933.25 1.3.45h-.6c-1.733 0-3.483.583-5.25 1.75-1.767 1.133-3.45 2.683-5.05 4.65-1.6 1.933-3.033 4.117-4.3 6.55a38.26 38.26 0 00-3 7.5c-.733 2.6-1.1 5.117-1.1 7.55 0 1.767.217 3.417.65 4.95.467 1.533 1.2 2.75 2.2 3.65 1 .933 2.283 1.4 3.85 1.4 1.867 0 3.617-.583 5.25-1.75 1.633-1.133 3.1-2.683 4.4-4.65 1.333-1.967 2.467-4.15 3.4-6.55a42.02 42.02 0 002.2-7.5c.533-2.6.8-5.083.8-7.45 0-.933-.067-1.933-.2-3s-.367-1.983-.7-2.75c-.333-.767-.783-1.15-1.35-1.15-.6 0-1.25.383-1.95 1.15-.7.733-1.383 1.667-2.05 2.8a31.686 31.686 0 00-1.7 3.55c-.5 1.2-.85 2.267-1.05 3.2-.833-.2-1.45-.517-1.85-.95-.367-.467-.55-.967-.55-1.5 0-.9.3-1.883.9-2.95.633-1.1 1.417-2.15 2.35-3.15.967-1.033 1.967-1.867 3-2.5 1.033-.667 1.967-1 2.8-1 .867 0 1.567.317 2.1.95.567.633 1 1.45 1.3 2.45.333.967.55 2.017.65 3.15.133 1.1.2 2.133.2 3.1 0 3.633-.417 6.95-1.25 9.95-.8 2.967-1.9 5.583-3.3 7.85-1.367 2.267-2.9 4.183-4.6 5.75-1.7 1.533-3.45 2.683-5.25 3.45-1.767.8-3.45 1.2-5.05 1.2zM169.295 50c-.333 0-.716-.117-1.15-.35-.433-.2-.8-.617-1.1-1.25-.333-.633-.5-1.567-.5-2.8 0-1.467.25-3.383.75-5.75.5-2.333 1.184-4.917 2.05-7.75a135.731 135.731 0 013-8.7c1.134-3 2.35-5.883 3.65-8.65 1.334-2.8 2.684-5.3 4.05-7.5 1.4-2.233 2.767-4 4.1-5.3 1.334-1.3 2.6-1.95 3.8-1.95.7 0 1.15.217 1.35.65.234.433.35.95.35 1.55 0 1.433-.4 3-1.2 4.7-.766 1.7-1.8 3.417-3.1 5.15a49.137 49.137 0 01-4.3 4.9c-1.566 1.533-3.15 2.85-4.75 3.95-.166.4-.333.817-.5 1.25-.133.4-.283.817-.45 1.25.367.067.65.267.85.6.234.3.367.633.4 1 .234 1.5.484 2.85.75 4.05.267 1.167.667 2.083 1.2 2.75.567.667 1.367 1 2.4 1 1.167 0 2.15-.417 2.95-1.25.8-.867 1.667-2.083 2.6-3.65l.75.5c-.833 2-1.9 3.45-3.2 4.35-1.266.9-2.383 1.35-3.35 1.35-.6 0-1.233-.15-1.9-.45a7.72 7.72 0 01-1.8-1.2c0 2.1-.233 4.183-.7 6.25-.433 2.067-1.016 3.95-1.75 5.65-.733 1.7-1.55 3.067-2.45 4.1-.9 1.033-1.833 1.55-2.8 1.55zm1.3-2.4c.367 0 .784-.333 1.25-1 .467-.667.917-1.55 1.35-2.65.467-1.067.884-2.25 1.25-3.55.367-1.3.667-2.6.9-3.9.234-1.3.35-2.467.35-3.5s-.133-1.967-.4-2.8c-.266-.867-.7-1.883-1.3-3.05-.833 2.5-1.583 4.917-2.25 7.25-.666 2.333-1.183 4.433-1.55 6.3-.366 1.867-.55 3.367-.55 4.5 0 1.6.317 2.4.95 2.4zm6.5-28.75c2.167-2 4.034-4 5.6-6 1.6-2.033 2.834-3.833 3.7-5.4.867-1.6 1.3-2.733 1.3-3.4 0-.467-.233-.7-.7-.7-.866 0-1.85.717-2.95 2.15-1.1 1.4-2.25 3.267-3.45 5.6-1.2 2.333-2.366 4.917-3.5 7.75zM184.871 50c-.333 0-.716-.117-1.15-.35-.433-.2-.8-.617-1.1-1.25-.333-.633-.5-1.567-.5-2.8 0-1.467.25-3.383.75-5.75.5-2.333 1.184-4.917 2.05-7.75a135.731 135.731 0 013-8.7c1.134-3 2.35-5.883 3.65-8.65 1.334-2.8 2.684-5.3 4.05-7.5 1.4-2.233 2.767-4 4.1-5.3 1.334-1.3 2.6-1.95 3.8-1.95.7 0 1.15.217 1.35.65.234.433.35.95.35 1.55 0 1.433-.4 3-1.2 4.7-.766 1.7-1.8 3.417-3.1 5.15a49.137 49.137 0 01-4.3 4.9c-1.566 1.533-3.15 2.85-4.75 3.95-.166.4-.333.817-.5 1.25-.133.4-.283.817-.45 1.25.367.067.65.267.85.6.234.3.367.633.4 1 .234 1.5.484 2.85.75 4.05.267 1.167.667 2.083 1.2 2.75.567.667 1.367 1 2.4 1 1.167 0 2.15-.417 2.95-1.25.8-.867 1.667-2.083 2.6-3.65l.75.5c-.833 2-1.9 3.45-3.2 4.35-1.266.9-2.383 1.35-3.35 1.35-.6 0-1.233-.15-1.9-.45a7.72 7.72 0 01-1.8-1.2c0 2.1-.233 4.183-.7 6.25-.433 2.067-1.016 3.95-1.75 5.65-.733 1.7-1.55 3.067-2.45 4.1-.9 1.033-1.833 1.55-2.8 1.55zm1.3-2.4c.367 0 .784-.333 1.25-1 .467-.667.917-1.55 1.35-2.65.467-1.067.884-2.25 1.25-3.55.367-1.3.667-2.6.9-3.9.234-1.3.35-2.467.35-3.5s-.133-1.967-.4-2.8c-.266-.867-.7-1.883-1.3-3.05-.833 2.5-1.583 4.917-2.25 7.25-.666 2.333-1.183 4.433-1.55 6.3-.366 1.867-.55 3.367-.55 4.5 0 1.6.317 2.4.95 2.4zm6.5-28.75c2.167-2 4.034-4 5.6-6 1.6-2.033 2.834-3.833 3.7-5.4.867-1.6 1.3-2.733 1.3-3.4 0-.467-.233-.7-.7-.7-.866 0-1.85.717-2.95 2.15-1.1 1.4-2.25 3.267-3.45 5.6-1.2 2.333-2.366 4.917-3.5 7.75zm13.827 19.35c-2.034 0-3.567-.567-4.6-1.7-1-1.1-1.5-2.467-1.5-4.1 0-1.5.366-3.083 1.1-4.75a20.732 20.732 0 013-4.7c1.266-1.467 2.65-2.65 4.15-3.55 1.5-.933 2.983-1.4 4.45-1.4.766 0 1.466.2 2.1.6.666.4 1 1.217 1 2.45 0 1.267-.384 2.467-1.15 3.6-.734 1.1-1.717 2.083-2.95 2.95a17.687 17.687 0 01-4 2.15 16.754 16.754 0 01-4.3 1c-.067.333-.117.65-.15.95-.034.3-.05.583-.05.85 0 .5.05 1 .15 1.5.133.5.35.967.65 1.4.3.4.7.717 1.2.95.533.233 1.183.35 1.95.35 1.433 0 2.85-.4 4.25-1.2 1.4-.833 2.7-1.917 3.9-3.25a21.18 21.18 0 003.05-4.4l.6.45c-.9 2-2.05 3.733-3.45 5.2-1.367 1.467-2.867 2.6-4.5 3.4-1.6.833-3.234 1.25-4.9 1.25zm-2.45-8.4c.9-.3 1.916-.733 3.05-1.3 1.133-.6 2.216-1.3 3.25-2.1 1.066-.8 1.933-1.683 2.6-2.65.7-.967 1.05-1.983 1.05-3.05 0-.367-.067-.65-.2-.85-.134-.2-.417-.3-.85-.3-.8 0-1.65.317-2.55.95-.9.6-1.767 1.4-2.6 2.4-.834 1-1.584 2.1-2.25 3.3-.667 1.2-1.167 2.4-1.5 3.6zm22.35 7.5c-1.133 0-2.033-.3-2.7-.9-.633-.6-.95-1.383-.95-2.35 0-1 .233-2.05.7-3.15.467-1.1.917-2.183 1.35-3.25.467-1.1.7-2.083.7-2.95 0-1.067-.317-1.85-.95-2.35a18.607 18.607 0 00-1.85-1.45 88.724 88.724 0 01-2.4 5.6c-.833 1.767-1.517 3.1-2.05 4l-.45-.85c.467-.867 1.067-2.133 1.8-3.8.767-1.667 1.517-3.567 2.25-5.7a1.638 1.638 0 01-.5-1.2c0-1 .283-1.817.85-2.45.567-.633.983-.95 1.25-.95.367 0 .567.167.6.5.067.3.1.533.1.7 0 .167-.1.5-.3 1-.167.467-.25.75-.25.85 0 .467.25.9.75 1.3.533.367 1.133.8 1.8 1.3a7.265 7.265 0 011.75 1.75c.533.667.8 1.533.8 2.6 0 1-.217 2.017-.65 3.05a49.3 49.3 0 01-1.25 2.95c-.4.933-.6 1.75-.6 2.45 0 .6.15 1 .45 1.2.3.2.65.3 1.05.3.8 0 1.617-.25 2.45-.75.867-.5 1.7-1.133 2.5-1.9.8-.767 1.517-1.567 2.15-2.4.633-.867 1.1-1.667 1.4-2.4l.65.5c-.633 1.4-1.5 2.783-2.6 4.15-1.1 1.333-2.333 2.433-3.7 3.3-1.333.867-2.717 1.3-4.15 1.3z" fill="#fff"/></svg>