<svg width="36" height="36" viewBox="0 0 36 36" fill="none" xmlns="http://www.w3.org/2000/svg">
<g clip-path="url(#clip0_1106_5624)">
<path fill-rule="evenodd" clip-rule="evenodd" d="M18 35.2969C14.2362 35.2969 10.5441 33.9989 7.60432 31.6427C4.76229 29.3639 2.73377 26.1879 1.86682 22.6695H0.424007C0.257366 22.6695 0.105491 22.571 0.0379911 22.4177C0.0050292 22.343 -0.00547487 22.2602 0.00775821 22.1795C0.0209913 22.0989 0.0573904 22.0238 0.112522 21.9635L3.14721 18.6384C3.18675 18.5952 3.23487 18.5607 3.2885 18.5371C3.34213 18.5134 3.4001 18.5013 3.45869 18.5013C3.57682 18.5013 3.69002 18.5512 3.77018 18.6384L6.80487 21.9635C6.85985 22.0239 6.89615 22.099 6.90938 22.1796C6.9226 22.2602 6.91219 22.3429 6.8794 22.4177C6.84638 22.4926 6.79232 22.5562 6.72378 22.6009C6.65525 22.6456 6.5752 22.6694 6.49338 22.6695H5.27768C7.00315 28.1953 12.1571 32.0084 18 32.0084C24.0286 32.0084 29.3231 27.9499 30.8764 22.1386C30.9256 21.9544 31.0922 21.8257 31.2835 21.8257H33.7992C33.8625 21.8256 33.925 21.8398 33.982 21.8671C34.0391 21.8944 34.0893 21.9343 34.1288 21.9836C34.1684 22.033 34.1964 22.0906 34.2106 22.1523C34.2249 22.2139 34.2251 22.278 34.2113 22.3397C33.3921 25.9896 31.3263 29.2929 28.3957 31.642C25.456 33.9989 21.7639 35.2969 18 35.2969ZM32.5414 17.4987C32.4232 17.4987 32.31 17.4487 32.2299 17.3616L29.1959 14.0365C29.1406 13.9762 29.1041 13.9012 29.0909 13.8205C29.0776 13.7398 29.0882 13.657 29.1214 13.5823C29.1543 13.5073 29.2083 13.4436 29.2769 13.3989C29.3454 13.3542 29.4255 13.3305 29.5074 13.3305H30.7224C28.9976 7.80398 23.843 3.99094 18 3.99094C11.9714 3.99094 6.6769 8.05008 5.1244 13.8614C5.10024 13.9511 5.0472 14.0304 4.97349 14.0869C4.89978 14.1435 4.80949 14.1742 4.71659 14.1743H2.2008C2.07283 14.1743 1.95119 14.1159 1.87104 14.0161C1.79088 13.9162 1.76065 13.7848 1.78877 13.6596C2.60791 10.0104 4.67369 6.70641 7.60432 4.35727C10.5441 2.00109 14.2362 0.703125 18 0.703125C21.7639 0.703125 25.456 2.00109 28.3957 4.35727C31.2378 6.63609 33.2663 9.81141 34.1332 13.3305H35.576C35.7434 13.3305 35.8946 13.429 35.9621 13.5823C36.0296 13.7348 36 13.9134 35.8875 14.0365L32.8528 17.3616C32.8133 17.4048 32.7652 17.4393 32.7115 17.4629C32.6579 17.4866 32.5999 17.4987 32.5414 17.4987Z" fill="#FFD8AA"/>
<path fill-rule="evenodd" clip-rule="evenodd" d="M18.0001 27.7383H17.991C16.2697 27.7263 14.5984 27.6982 14.1266 27.6898C11.8393 27.6504 10.9534 26.479 10.6124 25.503C10.1279 24.1158 10.3895 22.1555 11.3486 19.9842C12.2183 18.0127 13.5458 16.1705 14.8986 15.0553C14.9748 14.9928 15.0726 14.963 15.1707 14.9725C15.2687 14.982 15.359 15.03 15.4218 15.1059C15.5251 15.2318 19.1083 15.3246 20.5033 15.4237C20.4786 15.3155 20.5033 15.198 20.5792 15.1059C20.6418 15.03 20.732 14.982 20.8299 14.9725C20.9279 14.963 21.0256 14.9928 21.1016 15.0553C22.4544 16.1705 23.7819 18.0127 24.6517 19.9842C25.6108 22.1562 25.8723 24.1158 25.3879 25.503C25.0468 26.479 24.1609 27.6504 21.8736 27.6898C20.9012 27.7066 19.374 27.7284 18.0029 27.7383H18.0001ZM15.374 13.2638C15.2101 13.2638 15.0604 13.1548 15.0161 12.9888L13.8742 8.7293C13.8447 8.6175 13.8686 8.49867 13.9382 8.40727C14.0085 8.31516 14.1175 8.26172 14.2328 8.26172C14.6758 8.26172 15.0463 8.55352 15.4049 8.83547C15.6517 9.03023 15.9315 9.25031 16.1165 9.25031C16.3021 9.25031 16.5819 9.03023 16.8287 8.83547C17.1873 8.55352 17.5579 8.26172 18.0001 8.26172C18.4431 8.26172 18.8136 8.55352 19.1715 8.83547C19.4183 9.03023 19.6982 9.25031 19.8838 9.25031C20.0694 9.25031 20.3493 9.03023 20.5961 8.83547C20.9547 8.55352 21.3245 8.26172 21.7675 8.26172C21.8828 8.26172 21.9918 8.31516 22.0621 8.40727C22.1324 8.49867 22.1563 8.6175 22.1261 8.7293L20.9849 12.9888C20.9723 13.0359 20.9505 13.0801 20.9208 13.1188C20.8911 13.1575 20.8541 13.1899 20.8118 13.2143C20.7696 13.2387 20.7229 13.2544 20.6746 13.2608C20.6262 13.2671 20.5771 13.2638 20.53 13.2511C20.3324 13.1984 20.2143 13.6652 20.2677 13.467L20.3415 13.1913H15.6594L15.7333 13.467C15.786 13.6652 15.6686 13.1984 15.4703 13.2511C15.4386 13.2602 15.4056 13.2638 15.374 13.2638Z" fill="#F88E0F"/>
<path fill-rule="evenodd" clip-rule="evenodd" d="M20.9397 15.7134H15.0602C14.1799 15.7134 13.4641 14.9969 13.4641 14.1173C13.4641 13.237 14.1799 12.5212 15.0602 12.5212H20.9397C21.82 12.5212 22.5358 13.237 22.5358 14.1173C22.5358 14.9969 21.8193 15.7134 20.9397 15.7134Z" fill="#001430"/>
<path fill-rule="evenodd" clip-rule="evenodd" d="M18 24.5243C16.7921 24.5243 15.8091 23.7305 15.8091 22.7538C15.8091 22.5492 15.9757 22.3826 16.1803 22.3826C16.3856 22.3826 16.5516 22.5492 16.5516 22.7538C16.5516 23.3114 17.2146 23.7818 18 23.7818C18.7847 23.7818 19.4485 23.3114 19.4485 22.7538C19.4485 22.1962 18.7847 21.7258 18 21.7258C16.7921 21.7258 15.8091 20.9313 15.8091 19.9547C15.8091 18.9787 16.7921 18.1842 18 18.1842C19.208 18.1842 20.191 18.9787 20.191 19.9547C20.191 20.16 20.0243 20.3259 19.8197 20.3259C19.6144 20.3259 19.4485 20.16 19.4485 19.9547C19.4485 19.3978 18.7847 18.9267 18 18.9267C17.2153 18.9267 16.5516 19.3978 16.5516 19.9547C16.5516 20.5123 17.2146 20.9833 18 20.9833C19.208 20.9833 20.191 21.7772 20.191 22.7538C20.191 23.7305 19.208 24.5243 18 24.5243Z" fill="white"/>
<path fill-rule="evenodd" clip-rule="evenodd" d="M17.9999 25.3652C17.7946 25.3652 17.6287 25.1986 17.6287 24.9933V17.7152C17.6287 17.5099 17.7946 17.344 17.9999 17.344C18.2045 17.344 18.3712 17.5099 18.3712 17.7152V24.9933C18.3712 25.1986 18.2045 25.3652 17.9999 25.3652Z" fill="white"/>
</g>
<defs>
<clipPath id="clip0_1106_5624">
<rect width="36" height="36" fill="white"/>
</clipPath>
</defs>
</svg>
