<svg width="18" height="18" viewBox="0 0 18 18" fill="none" xmlns="http://www.w3.org/2000/svg">
<path d="M12.5624 2.67V1.5C12.5624 1.1925 12.3074 0.9375 11.9999 0.9375C11.6924 0.9375 11.4374 1.1925 11.4374 1.5V2.625H6.56243V1.5C6.56243 1.1925 6.30743 0.9375 5.99993 0.9375C5.69243 0.9375 5.43743 1.1925 5.43743 1.5V2.67C3.41243 2.8575 2.42993 4.065 2.27993 5.8575C2.26493 6.075 2.44493 6.255 2.65493 6.255H15.3449C15.5624 6.255 15.7424 6.0675 15.7199 5.8575C15.5699 4.065 14.5874 2.8575 12.5624 2.67Z" fill="#00BBAE"/>
<path opacity="0.4" d="M15 7.37988C15.4125 7.37988 15.75 7.71738 15.75 8.12988V12.7499C15.75 14.9999 14.625 16.4999 12 16.4999H6C3.375 16.4999 2.25 14.9999 2.25 12.7499V8.12988C2.25 7.71738 2.5875 7.37988 3 7.37988H15Z" fill="#00BBAE"/>
<path d="M6.375 11.2497C6.18 11.2497 5.985 11.1672 5.8425 11.0322C5.7075 10.8897 5.625 10.6947 5.625 10.4997C5.625 10.3047 5.7075 10.1097 5.8425 9.96717C6.0525 9.75717 6.3825 9.68965 6.66 9.80965C6.7575 9.84715 6.84 9.89967 6.9075 9.96717C7.0425 10.1097 7.125 10.3047 7.125 10.4997C7.125 10.6947 7.0425 10.8897 6.9075 11.0322C6.765 11.1672 6.57 11.2497 6.375 11.2497Z" fill="#00BBAE"/>
<path d="M9 11.2497C8.805 11.2497 8.61 11.1672 8.4675 11.0322C8.3325 10.8897 8.25 10.6947 8.25 10.4997C8.25 10.3047 8.3325 10.1097 8.4675 9.96717C8.535 9.89967 8.6175 9.84715 8.715 9.80965C8.9925 9.68965 9.3225 9.75717 9.5325 9.96717C9.6675 10.1097 9.75 10.3047 9.75 10.4997C9.75 10.6947 9.6675 10.8897 9.5325 11.0322C9.495 11.0622 9.4575 11.0922 9.42 11.1222C9.375 11.1522 9.33 11.1747 9.285 11.1897C9.24 11.2122 9.195 11.2272 9.15 11.2347C9.0975 11.2422 9.0525 11.2497 9 11.2497Z" fill="#00BBAE"/>
<path d="M11.625 11.25C11.43 11.25 11.235 11.1675 11.0925 11.0325C10.9575 10.89 10.875 10.695 10.875 10.5C10.875 10.305 10.9575 10.11 11.0925 9.96752C11.1675 9.90002 11.2425 9.8475 11.34 9.81C11.475 9.75 11.625 9.735 11.775 9.765C11.82 9.7725 11.865 9.7875 11.91 9.81C11.955 9.825 12 9.84752 12.045 9.87752C12.0825 9.90752 12.12 9.93752 12.1575 9.96752C12.2925 10.11 12.375 10.305 12.375 10.5C12.375 10.695 12.2925 10.89 12.1575 11.0325C12.12 11.0625 12.0825 11.0925 12.045 11.1225C12 11.1525 11.955 11.175 11.91 11.19C11.865 11.2125 11.82 11.2275 11.775 11.235C11.7225 11.2425 11.67 11.25 11.625 11.25Z" fill="#00BBAE"/>
<path d="M6.375 13.875C6.2775 13.875 6.18 13.8525 6.09 13.815C5.9925 13.7775 5.9175 13.725 5.8425 13.6575C5.7075 13.515 5.625 13.32 5.625 13.125C5.625 12.93 5.7075 12.735 5.8425 12.5925C5.9175 12.525 5.9925 12.4725 6.09 12.435C6.225 12.375 6.375 12.36 6.525 12.39C6.57 12.3975 6.615 12.4125 6.66 12.435C6.705 12.45 6.75 12.4725 6.795 12.5025C6.8325 12.5325 6.87 12.5625 6.9075 12.5925C7.0425 12.735 7.125 12.93 7.125 13.125C7.125 13.32 7.0425 13.515 6.9075 13.6575C6.87 13.6875 6.8325 13.725 6.795 13.7475C6.75 13.7775 6.705 13.8 6.66 13.815C6.615 13.8375 6.57 13.8525 6.525 13.86C6.4725 13.8675 6.4275 13.875 6.375 13.875Z" fill="#00BBAE"/>
<path d="M9 13.8749C8.805 13.8749 8.61 13.7924 8.4675 13.6574C8.3325 13.5149 8.25 13.3199 8.25 13.1249C8.25 12.9299 8.3325 12.7349 8.4675 12.5924C8.745 12.3149 9.255 12.3149 9.5325 12.5924C9.6675 12.7349 9.75 12.9299 9.75 13.1249C9.75 13.3199 9.6675 13.5149 9.5325 13.6574C9.39 13.7924 9.195 13.8749 9 13.8749Z" fill="#00BBAE"/>
<path d="M11.625 13.8749C11.43 13.8749 11.235 13.7924 11.0925 13.6574C10.9575 13.5149 10.875 13.3199 10.875 13.1249C10.875 12.9299 10.9575 12.7349 11.0925 12.5924C11.37 12.3149 11.88 12.3149 12.1575 12.5924C12.2925 12.7349 12.375 12.9299 12.375 13.1249C12.375 13.3199 12.2925 13.5149 12.1575 13.6574C12.015 13.7924 11.82 13.8749 11.625 13.8749Z" fill="#00BBAE"/>
</svg>
