<svg width="18" height="16" viewBox="0 0 18 16" fill="none" xmlns="http://www.w3.org/2000/svg">
<path d="M13.8686 16C12.7718 16 11.8685 15.0968 11.8685 14C11.8685 12.9033 12.7718 12 13.8686 12C14.9653 12 15.8685 12.9033 15.8685 14C15.8685 15.0968 14.9653 16 13.8686 16ZM13.8686 13.2904C13.4815 13.2904 13.2234 13.5484 13.2234 13.9355C13.2234 14.3226 13.4815 14.5807 13.8686 14.5807C14.2556 14.5807 14.5137 14.3226 14.5137 13.9355C14.5137 13.5484 14.2556 13.2904 13.8686 13.2904ZM7.22339 16C6.12661 16 5.22339 15.0968 5.22339 14C5.22339 12.9033 6.12661 12 7.22339 12C8.32016 12 9.22339 12.9033 9.22339 14C9.22339 15.0968 8.32016 16 7.22339 16ZM7.22339 13.2904C6.83629 13.2904 6.57823 13.5484 6.57823 13.9355C6.57823 14.3226 6.83629 14.5807 7.22339 14.5807C7.61049 14.5807 7.86855 14.3226 7.86855 13.9355C7.86855 13.5484 7.61049 13.2904 7.22339 13.2904ZM12.2556 9.16132C11.9976 9.16132 11.8685 9.03229 11.804 8.96777C11.675 8.83874 11.546 8.58068 11.675 8.32261L11.9976 5.54842C11.9976 5.41939 12.0621 5.22584 12.1911 5.16132C12.3202 5.03229 12.4492 4.96777 12.6427 4.96777C12.8363 4.96777 13.0298 5.09681 13.1589 5.16132C13.2879 5.29035 13.4169 5.54842 13.2879 5.80648L12.9653 8.58068C12.8363 8.96777 12.6427 9.16132 12.2556 9.16132ZM8.77178 9.16132C8.4492 9.16132 8.12661 8.90326 8.12661 8.51616L7.80403 5.67745C7.80403 5.29035 8.0621 5.03229 8.38468 4.96777C8.83629 4.96777 9.15887 5.22584 9.15887 5.61293L9.48145 8.45164C9.48145 8.64519 9.48145 8.70971 9.41694 8.90326V8.96777L9.22339 9.03229C9.15887 9.09681 9.02984 9.16132 8.77178 9.16132Z" fill="white"/>
<path d="M5.86834 11.6129C5.54576 11.6129 5.35222 11.4194 5.22318 11.0968L2.70705 1.35484H0.578023C0.255442 1.35484 -0.0671387 1.03226 -0.0671387 0.645161C-0.0671387 0.322581 0.255442 0 0.578023 0H3.15867C3.54576 0 3.80383 0.193548 3.86835 0.516129L4.44899 2.58065H17.2232C17.4167 2.58065 17.6103 2.70968 17.7393 2.77419C17.8683 2.96774 17.9974 3.22581 17.8683 3.41935L15.8683 11.0323C15.7393 11.3548 15.5458 11.5484 15.2232 11.5484L6.12641 11.6129H5.86834ZM14.6425 10.2581L16.32 3.87097H4.77157L6.38447 10.2581H14.6425Z" fill="white"/>
</svg>
