<svg width="22" height="18" viewBox="0 0 22 18" fill="none" xmlns="http://www.w3.org/2000/svg">
<path d="M14.6667 17.3334C14.5001 17.3334 14.3334 17.2501 14.2501 17.1667L10.1667 13.0834C9.91675 12.8334 9.91675 12.4167 10.1667 12.2501L14.2501 8.16675C14.3334 8.08341 14.5001 8.00008 14.6667 8.00008C14.8334 8.00008 15.0001 8.08341 15.0834 8.16675C15.3334 8.41675 15.3334 8.83341 15.0834 9.00008L12.0834 12.0001H20.7501C21.0834 12.0001 21.3334 12.2501 21.3334 12.5834C21.3334 12.9167 21.0834 13.1667 20.7501 13.1667H12.1667L15.1667 16.1667C15.4167 16.4167 15.4167 16.7501 15.1667 17.0001C15.0001 17.3334 14.8334 17.3334 14.6667 17.3334ZM7.41675 10.0834C7.25008 10.0834 7.08341 10.0001 7.00008 9.91675C6.91675 9.83342 6.83341 9.66675 6.83341 9.50008C6.83341 9.33342 6.91675 9.16675 7.00008 9.08342L10.0001 6.08341H1.25008C0.916748 6.00008 0.666748 5.75008 0.666748 5.33341C0.666748 4.91675 0.916748 4.75008 1.25008 4.75008H9.91675L7.00008 1.75008C6.66675 1.50008 6.66675 1.08341 6.91675 0.833415C7.08341 0.750081 7.25008 0.666748 7.41675 0.666748C7.58342 0.666748 7.75008 0.750081 7.83342 0.833415L11.9167 4.91675C12.1667 5.16675 12.1667 5.58341 11.9167 5.75008L7.83342 9.83341C7.66675 10.0001 7.58342 10.0834 7.41675 10.0834Z" fill="#69778A"/>
</svg>
