<svg width="28" height="16" viewBox="0 0 28 16" fill="none" xmlns="http://www.w3.org/2000/svg">
<path d="M11.2654 14.5284C12.1367 13.7162 12.2709 12.4439 11.5651 11.6867C10.8592 10.9295 9.58067 10.9742 8.70931 11.7864C7.83796 12.5987 7.70379 13.871 8.40962 14.6282C9.11546 15.3854 10.394 15.3407 11.2654 14.5284Z" fill="white"/>
<path d="M22.7952 14.5293C23.6665 13.717 23.8007 12.4447 23.0949 11.6875C22.389 10.9304 21.1105 10.975 20.2391 11.7873C19.3677 12.5995 19.2336 13.8718 19.9394 14.629C20.6452 15.3862 21.9238 15.3415 22.7952 14.5293Z" fill="white"/>
<path d="M2.12249 4.58711C2.12249 4.08426 1.71485 3.67662 1.212 3.67662C0.709154 3.67662 0.301514 4.08426 0.301514 4.58711C0.301514 5.08996 0.709154 5.4976 1.212 5.4976C1.71485 5.4976 2.12249 5.08996 2.12249 4.58711Z" fill="white"/>
<path d="M18.4881 12.9671C18.8118 11.3674 20.323 10.0962 21.9472 10.0962C23.5111 10.0962 24.6384 11.2751 24.6075 12.7911C26.2989 12.8354 26.7697 10.6081 26.7697 10.6081C26.9121 9.98525 27.1248 8.77109 27.3029 7.57932C27.3613 7.21137 27.3165 6.83444 27.1734 6.49047C26.7312 5.45835 26.1969 4.46822 25.5769 3.53211C24.9903 2.65708 24.0065 2.13878 22.8835 2.12012C22.2138 2.10946 21.5563 2.10306 21.0599 2.10306L21.0556 2.09879C20.9916 1.02807 20.211 0.207959 19.1152 0.109845C18.4023 0.0463908 15.5783 0 14.2228 0C13.6843 0 12.9116 0.00746506 12.1299 0.0202626V0.0170633H2.7248C2.60518 0.0169932 2.48672 0.0405025 2.37619 0.0862474C2.26566 0.131992 2.16523 0.199075 2.08064 0.283661C1.99606 0.368246 1.92898 0.468675 1.88323 0.579205C1.83749 0.689735 1.81398 0.808197 1.81405 0.927819V0.932085C1.81405 1.1725 1.90955 1.40307 2.07955 1.57307C2.24955 1.74307 2.48012 1.83858 2.72054 1.83858H4.6151C4.84323 1.85539 5.05657 1.95784 5.21233 2.12537C5.36808 2.2929 5.45475 2.51312 5.45494 2.74186V2.74666C5.45529 2.8664 5.43202 2.98503 5.38648 3.09577C5.34093 3.2065 5.274 3.30717 5.1895 3.39201C5.10501 3.47685 5.00462 3.5442 4.89407 3.5902C4.78352 3.6362 4.66498 3.65995 4.54525 3.66009H3.5737C3.3323 3.66009 3.10078 3.75598 2.93008 3.92668C2.75938 4.09738 2.66348 4.3289 2.66348 4.57031C2.66341 4.68989 2.6869 4.8083 2.73261 4.9188C2.77833 5.02929 2.84536 5.1297 2.92989 5.21428C3.01442 5.29886 3.11479 5.36595 3.22525 5.41173C3.33572 5.4575 3.45413 5.48106 3.5737 5.48106H4.54525C4.78679 5.48106 5.01845 5.57702 5.18925 5.74782C5.36005 5.91862 5.456 6.15027 5.456 6.39182C5.456 6.63337 5.36005 6.86502 5.18925 7.03582C5.01845 7.20662 4.78679 7.30258 4.54525 7.30258H0.910756C0.669301 7.30258 0.437727 7.39846 0.266943 7.56914C0.0961581 7.73983 0.000141367 7.97134 0 8.2128C0 8.45435 0.0959543 8.686 0.266754 8.8568C0.437554 9.0276 0.669208 9.12355 0.910756 9.12355H4.54525C4.78679 9.12355 5.01845 9.21951 5.18925 9.39031C5.36005 9.56111 5.456 9.79276 5.456 10.0343C5.45572 10.2757 5.35964 10.5071 5.18887 10.6776C5.0181 10.8482 4.78661 10.944 4.54525 10.944H3.4212C3.17979 10.944 2.94828 11.0399 2.77758 11.2106C2.60688 11.3813 2.51098 11.6128 2.51098 11.8542C2.51098 12.0957 2.60686 12.3273 2.77754 12.498C2.94823 12.6688 3.17974 12.7648 3.4212 12.765L7.0077 12.7623L7.30578 12.0195C7.91632 10.8933 9.13102 10.0956 10.4172 10.0956C12.0419 10.0956 13.1958 11.3679 13.0689 12.9687H18.4876M9.45469 4.084H8.23253C8.23137 4.0841 8.23028 4.08456 8.22941 4.08533C8.22855 4.0861 8.22796 4.08713 8.22773 4.08827L8.11522 4.88811C8.11505 4.88875 8.11504 4.88943 8.11518 4.89007C8.11532 4.89072 8.1156 4.89133 8.11602 4.89185C8.11643 4.89236 8.11696 4.89278 8.11756 4.89306C8.11816 4.89333 8.11882 4.89347 8.11948 4.89345H9.02917C9.07382 4.89218 9.1182 4.90089 9.15905 4.91895C9.19991 4.937 9.23622 4.96395 9.26535 4.99782C9.29447 5.03169 9.31566 5.07164 9.32738 5.11474C9.33911 5.15784 9.34107 5.20302 9.33311 5.24698C9.31753 5.34359 9.26875 5.43175 9.19517 5.49628C9.12159 5.56081 9.02782 5.59766 8.92999 5.60051H8.01924C8.01813 5.60048 8.01705 5.60084 8.01617 5.60152C8.0153 5.6022 8.01468 5.60316 8.01444 5.60424L7.85127 6.76615C7.83568 6.86276 7.7869 6.95092 7.71332 7.01545C7.63974 7.07998 7.54597 7.11683 7.44815 7.11968C7.40351 7.12096 7.35915 7.11226 7.31831 7.0942C7.27747 7.07614 7.24119 7.04918 7.2121 7.0153C7.18302 6.98141 7.16188 6.94145 7.15023 6.89834C7.13857 6.85524 7.1367 6.81007 7.14474 6.76615L7.56812 3.75234C7.5849 3.6503 7.63663 3.55727 7.71445 3.48917C7.79227 3.42108 7.89135 3.38216 7.99471 3.37907H9.55334C9.59797 3.37779 9.64233 3.38649 9.68317 3.40455C9.72401 3.42261 9.7603 3.44957 9.78938 3.48346C9.81846 3.51734 9.8396 3.5573 9.85126 3.60041C9.86292 3.64351 9.86479 3.68868 9.85675 3.73261C9.84094 3.82874 9.79218 3.91638 9.71882 3.9805C9.64546 4.04462 9.55208 4.08121 9.45469 4.084ZM12.7213 3.61903C12.8482 3.73167 12.9376 3.88057 12.9772 4.04561C13.0215 4.23257 13.0288 4.42641 12.9985 4.61617C12.9615 4.91142 12.8406 5.1899 12.6503 5.41868C12.5341 5.55607 12.3865 5.66344 12.22 5.73168C12.2193 5.73247 12.2189 5.73352 12.2189 5.73461C12.2189 5.73571 12.2193 5.73676 12.22 5.73755L12.5229 6.61151C12.6045 6.84613 12.3949 7.11968 12.1342 7.11968H12.1171C12.0538 7.12154 11.9916 7.10321 11.9395 7.06736C11.8873 7.0315 11.8479 6.97998 11.827 6.92025L11.4607 5.85379C11.4602 5.85299 11.4595 5.85233 11.4586 5.85186C11.4578 5.8514 11.4569 5.85115 11.4559 5.85113H10.6774C10.6763 5.85119 10.6753 5.85157 10.6744 5.85224C10.6735 5.85291 10.6729 5.85382 10.6726 5.85486L10.5446 6.76561C10.529 6.86223 10.4802 6.95039 10.4067 7.01492C10.3331 7.07944 10.2393 7.1163 10.1415 7.11915C10.0969 7.12043 10.0525 7.11173 10.0117 7.09367C9.97082 7.07561 9.93453 7.04865 9.90545 7.01476C9.87636 6.98088 9.85522 6.94092 9.84357 6.89781C9.83191 6.85471 9.83004 6.80954 9.83808 6.76561L10.2615 3.7518C10.2782 3.64976 10.33 3.55673 10.4078 3.48864C10.4856 3.42055 10.5847 3.38162 10.688 3.37854H11.8931C11.8931 3.37854 12.4221 3.36201 12.7213 3.61903ZM16.0379 3.70754C16.0234 3.79779 15.9779 3.88015 15.9092 3.94041C15.8405 4.00066 15.7528 4.03504 15.6615 4.03761H14.2596C14.2585 4.03767 14.2575 4.03806 14.2566 4.03873C14.2558 4.03939 14.2551 4.04031 14.2548 4.04135L14.1434 4.83266C14.1432 4.8333 14.1432 4.83397 14.1433 4.83462C14.1435 4.83527 14.1438 4.83587 14.1442 4.83639C14.1446 4.83691 14.1451 4.83732 14.1457 4.8376C14.1463 4.83788 14.147 4.83801 14.1476 4.83799H15.2365C15.2782 4.83676 15.3196 4.84486 15.3578 4.8617C15.396 4.87855 15.4299 4.90371 15.4571 4.93534C15.4843 4.96698 15.5041 5.0043 15.515 5.04456C15.5259 5.08483 15.5277 5.12702 15.5202 5.16806C15.5057 5.25831 15.4601 5.34066 15.3914 5.40092C15.3227 5.46118 15.2351 5.49556 15.1437 5.49813H14.0543C14.0532 5.49819 14.0522 5.49858 14.0513 5.49924C14.0505 5.49991 14.0499 5.50082 14.0495 5.50186L13.9157 6.45421C13.9157 6.45553 13.9162 6.45682 13.9171 6.4578C13.9179 6.45879 13.9192 6.45941 13.9205 6.45954H15.3213C15.363 6.45831 15.4044 6.46641 15.4426 6.48325C15.4808 6.5001 15.5147 6.52526 15.5419 6.5569C15.5691 6.58853 15.5888 6.62585 15.5997 6.66611C15.6107 6.70638 15.6124 6.74857 15.605 6.78961C15.5905 6.87986 15.5449 6.96221 15.4762 7.02247C15.4075 7.08273 15.3199 7.11711 15.2285 7.11968H13.4902C13.4433 7.12034 13.3968 7.11067 13.354 7.09137C13.3113 7.07207 13.2733 7.0436 13.2428 7.00798C13.2122 6.97237 13.1899 6.93048 13.1774 6.88528C13.1649 6.84007 13.1624 6.79267 13.1702 6.74642L13.591 3.75393C13.6077 3.6519 13.6595 3.55887 13.7373 3.49077C13.8151 3.42268 13.9142 3.38376 14.0175 3.38067H15.7553C15.7966 3.37969 15.8376 3.38786 15.8754 3.40459C15.9131 3.42132 15.9467 3.4462 15.9737 3.47745C16.0007 3.50869 16.0205 3.54552 16.0316 3.5853C16.0427 3.62508 16.0449 3.66683 16.0379 3.70754ZM18.9499 3.70754C18.9354 3.79779 18.8899 3.88015 18.8211 3.94041C18.7524 4.00066 18.6648 4.03504 18.5734 4.03761H17.1716C17.1705 4.03767 17.1695 4.03806 17.1686 4.03873C17.1677 4.03939 17.1671 4.04031 17.1668 4.04135L17.0559 4.83266C17.0557 4.8333 17.0557 4.83397 17.0558 4.83462C17.056 4.83527 17.0563 4.83587 17.0567 4.83639C17.0571 4.83691 17.0576 4.83732 17.0582 4.8376C17.0588 4.83788 17.0595 4.83801 17.0601 4.83799H18.149C18.1907 4.83676 18.2321 4.84486 18.2703 4.8617C18.3085 4.87855 18.3424 4.90371 18.3696 4.93534C18.3968 4.96698 18.4165 5.0043 18.4275 5.04456C18.4384 5.08483 18.4402 5.12702 18.4327 5.16806C18.4182 5.25831 18.3726 5.34066 18.3039 5.40092C18.2352 5.46118 18.1476 5.49556 18.0562 5.49813H16.9663C16.9652 5.49819 16.9642 5.49858 16.9633 5.49924C16.9625 5.49991 16.9618 5.50082 16.9615 5.50186L16.8277 6.45421C16.8276 6.45553 16.8281 6.45682 16.829 6.4578C16.8299 6.45879 16.8311 6.45941 16.8325 6.45954H18.2332C18.2749 6.45831 18.3164 6.46641 18.3546 6.48325C18.3927 6.5001 18.4266 6.52526 18.4538 6.5569C18.481 6.58853 18.5008 6.62585 18.5117 6.66611C18.5226 6.70638 18.5244 6.74857 18.5169 6.78961C18.5024 6.87986 18.4569 6.96221 18.3882 7.02247C18.3194 7.08273 18.2318 7.11711 18.1405 7.11968H16.4021C16.3552 7.12034 16.3088 7.11067 16.266 7.09137C16.2233 7.07207 16.1853 7.0436 16.1547 7.00798C16.1242 6.97237 16.1019 6.93048 16.0894 6.88528C16.0768 6.84007 16.0744 6.79267 16.0822 6.74642L16.5029 3.75393C16.5197 3.6519 16.5714 3.55887 16.6492 3.49077C16.7271 3.42268 16.8261 3.38376 16.9295 3.38067H18.6673C18.7086 3.37969 18.7496 3.38786 18.7873 3.40459C18.8251 3.42132 18.8587 3.4462 18.8857 3.47745C18.9127 3.50869 18.9325 3.54552 18.9436 3.5853C18.9547 3.62508 18.9568 3.66683 18.9499 3.70754ZM20.9762 3.36574C21.4524 3.36574 22.0688 3.37214 22.6873 3.38227C23.437 3.39454 24.0929 3.739 24.4864 4.32662C24.9068 4.96031 25.2846 5.62119 25.6174 6.3049C25.7934 6.66323 25.4697 7.12981 25.0458 7.12981H20.5L20.9762 3.36574Z" fill="white"/>
<path d="M11.6081 5.19151H10.7656L10.9256 4.03761H11.7676C11.7676 4.03761 12.3856 3.99761 12.2843 4.61456C12.2869 4.61456 12.216 5.19151 11.6081 5.19151Z" fill="white"/>
</svg>
