<svg width="28" height="30" viewBox="0 0 28 30" fill="none" xmlns="http://www.w3.org/2000/svg">
<path d="M24.8421 12.401H24.7678V10.5817C24.7678 4.73759 20.0303 0 14.1862 0C8.342 0 3.60448 4.73759 3.60448 10.5817V12.401H3.15896C1.52528 12.401 0.262928 13.849 0.262928 15.5198V20.1609C0.221781 21.7803 1.50126 23.1264 3.12066 23.1676C3.13345 23.1679 3.14617 23.1681 3.15896 23.1683H5.90647C6.29563 23.15 6.59632 22.8196 6.57798 22.4305C6.57734 22.4165 6.57628 22.4025 6.57478 22.3886V13.292C6.57478 12.8465 6.31489 12.4009 5.90647 12.4009H5.08963V10.5816C5.08963 5.55777 9.16232 1.48508 14.1862 1.48508C19.21 1.48508 23.2827 5.55777 23.2827 10.5816V12.4009H22.4659C22.0574 12.4009 21.7975 12.8464 21.7975 13.292V22.3886C21.7561 22.7759 22.0365 23.1236 22.4239 23.165C22.4379 23.1665 22.4519 23.1676 22.4659 23.1682H23.3198L23.2455 23.2796C22.6961 24.0098 21.9836 24.6016 21.1649 25.0077C20.3463 25.4138 19.444 25.623 18.5302 25.6187C18.1245 23.6296 16.1831 22.3459 14.194 22.7516C12.4931 23.0985 11.2667 24.5882 11.253 26.3242C11.2733 28.3602 12.9297 30 14.9658 29.9999C15.9738 29.9835 16.9345 29.5699 17.6391 28.8489C18.1144 28.3621 18.4259 27.739 18.5302 27.0667C19.6746 27.071 20.8042 26.8081 21.8291 26.2989C22.854 25.7897 23.7458 25.0482 24.4336 24.1335L25.1391 23.0939C26.7356 22.9825 27.7381 21.9801 27.7381 20.532V15.8909C27.7381 14.2946 26.5501 12.401 24.8421 12.401ZM5.08963 21.6831H3.15896C2.35947 21.6637 1.72711 20.9998 1.74659 20.2003C1.74694 20.1872 1.74744 20.174 1.74808 20.1608V15.5197C1.74808 14.6658 2.34212 13.8861 3.15896 13.8861H5.08963V21.6831ZM16.5624 27.8094C16.3589 28.0301 16.1121 28.2066 15.8375 28.328C15.5628 28.4493 15.2662 28.5129 14.9659 28.5148C13.7579 28.4957 12.7776 27.5317 12.7382 26.3242C12.7377 25.1144 13.718 24.1332 14.9279 24.1327C16.1377 24.1322 17.1189 25.1126 17.1194 26.3224V26.3242C17.1347 26.5969 17.093 26.8697 16.9971 27.1254C16.9013 27.3811 16.7532 27.614 16.5624 27.8094ZM26.253 20.5321C26.253 21.5346 25.2876 21.6831 24.8421 21.6831H23.2827V13.8861H24.8421C25.6589 13.8861 26.253 15.0371 26.253 15.8911V20.5321Z" fill="white"/>
</svg>
