<svg width="17" height="16" viewBox="0 0 17 16" fill="none" xmlns="http://www.w3.org/2000/svg">
<path d="M8.66667 14.6667C12.3486 14.6667 15.3333 11.6819 15.3333 8C15.3333 4.3181 12.3486 1.33333 8.66667 1.33333C4.98477 1.33333 2 4.3181 2 8C2 11.6819 4.98477 14.6667 8.66667 14.6667Z" stroke="white" stroke-width="1.25" stroke-linecap="round" stroke-linejoin="round"/>
<path d="M6.72656 6.00001C6.8833 5.55446 7.19266 5.17875 7.59987 4.93944C8.00707 4.70012 8.48583 4.61264 8.95135 4.69249C9.41687 4.77234 9.83911 5.01436 10.1433 5.3757C10.4475 5.73703 10.6139 6.19436 10.6132 6.66668C10.6132 8.00001 8.61323 8.66668 8.61323 8.66668" stroke="white" stroke-width="1.25" stroke-linecap="round" stroke-linejoin="round"/>
<path d="M8.66663 11.3333H8.67329" stroke="white" stroke-width="1.5" stroke-linecap="round" stroke-linejoin="round"/>
</svg>
