<svg width="16" height="16" viewBox="0 0 16 16" fill="none" xmlns="http://www.w3.org/2000/svg">
<g clip-path="url(#clip0_1106_5246)">
<path d="M11.4997 1H4.49989C2.56695 1 1 2.56695 1 4.49989V11.4997C1 13.4326 2.56695 14.9996 4.49989 14.9996H11.4997C13.4326 14.9996 14.9996 13.4326 14.9996 11.4997V4.49989C14.9996 2.56695 13.4326 1 11.4997 1Z" stroke="#A4B0BF" stroke-width="1.25" stroke-linecap="round" stroke-linejoin="round"/>
<path d="M10.7995 7.55865C10.8859 8.1412 10.7864 8.73616 10.5152 9.25891C10.2439 9.78165 9.81476 10.2056 9.28871 10.4703C8.76266 10.7351 8.16652 10.8273 7.58507 10.7337C7.00363 10.6401 6.46649 10.3656 6.05006 9.94919C5.63363 9.53275 5.35911 8.99562 5.26554 8.41417C5.17198 7.83273 5.26414 7.23658 5.52892 6.71054C5.79369 6.18449 6.2176 5.75532 6.74034 5.48408C7.26308 5.21284 7.85804 5.11334 8.4406 5.19972C9.03483 5.28784 9.58496 5.56473 10.0097 5.98951C10.4345 6.41429 10.7114 6.96442 10.7995 7.55865Z" stroke="#A4B0BF" stroke-width="1.25" stroke-linecap="round" stroke-linejoin="round"/>
<path d="M11.8496 4.1499H11.8576" stroke="#A4B0BF" stroke-width="1.25" stroke-linecap="round" stroke-linejoin="round"/>
</g>
<defs>
<clipPath id="clip0_1106_5246">
<rect width="16" height="16" fill="white"/>
</clipPath>
</defs>
</svg>
