<svg width="16" height="16" viewBox="0 0 16 16" fill="none" xmlns="http://www.w3.org/2000/svg">
<path d="M10.8248 5.21045C11.9415 5.21045 13.0124 5.65406 13.8021 6.44368C14.5917 7.23331 15.0353 8.30427 15.0353 9.42098V14.3333H12.2283V9.42098C12.2283 9.04874 12.0804 8.69175 11.8172 8.42854C11.554 8.16534 11.197 8.01747 10.8248 8.01747C10.4526 8.01747 10.0956 8.16534 9.83235 8.42854C9.56914 8.69175 9.42128 9.04874 9.42128 9.42098V14.3333H6.61426V9.42098C6.61426 8.30427 7.05787 7.23331 7.84749 6.44368C8.63712 5.65406 9.70808 5.21045 10.8248 5.21045Z" fill="#A4B0BF"/>
<path d="M3.80702 5.91211H1V14.3332H3.80702V5.91211Z" fill="#A4B0BF"/>
<path d="M2.40351 3.80702C3.17865 3.80702 3.80702 3.17865 3.80702 2.40351C3.80702 1.62837 3.17865 1 2.40351 1C1.62837 1 1 1.62837 1 2.40351C1 3.17865 1.62837 3.80702 2.40351 3.80702Z" fill="#A4B0BF"/>
</svg>
