<svg width="13" height="16" viewBox="0 0 13 16" fill="none" xmlns="http://www.w3.org/2000/svg">
<g clip-path="url(#clip0_1106_6388)">
<path d="M0.625 6.01213C0.625 7.68632 1.48306 9.21813 2.702 10.8075C3.16253 11.408 3.65827 11.9969 4.16456 12.5984C4.32644 12.7907 4.4894 12.9843 4.65264 13.1799C5.12259 13.7432 5.5911 14.3195 6.02126 14.9114C6.4638 14.3195 6.93979 13.7427 7.41386 13.1783C7.53276 13.0368 7.6514 12.8962 7.76945 12.7563C8.3223 12.101 8.86234 11.461 9.3568 10.8099C10.5609 9.22425 11.3992 7.69048 11.3992 6.01213C11.3992 3.06034 8.96391 0.625001 6.01212 0.625001C3.06033 0.625001 0.625 3.06034 0.625 6.01213Z" stroke="white" stroke-width="1.25" stroke-miterlimit="10" stroke-linecap="round" stroke-linejoin="round"/>
<path d="M3.92188 5.91517C3.92188 7.02453 4.90266 8.00531 6.01203 8.00531C7.20391 8.00531 8.10218 7.03917 8.10218 5.91517C8.10218 4.8058 7.12139 3.825 6.01203 3.825C4.90266 3.825 3.92188 4.8058 3.92188 5.91517Z" stroke="white" stroke-width="1.25" stroke-miterlimit="10" stroke-linecap="round" stroke-linejoin="round"/>
</g>
<defs>
<clipPath id="clip0_1106_6388">
<rect width="12.6667" height="16" fill="white"/>
</clipPath>
</defs>
</svg>
