<svg width="14" height="14" viewBox="0 0 14 14" fill="none" xmlns="http://www.w3.org/2000/svg">
<path fill-rule="evenodd" clip-rule="evenodd" d="M4.44796 9.55281C7.01129 12.1161 9.38663 12.3968 10.084 12.4228C10.9266 12.4535 11.7866 11.7655 12.1586 11.0608C11.5653 10.3648 10.7926 9.82481 9.94596 9.23948C9.44729 9.73814 8.83263 10.6648 8.01263 10.3328C7.54663 10.1455 6.39596 9.61548 5.39063 8.60948C4.38463 7.60414 3.85529 6.45348 3.66663 5.98814C3.33463 5.16748 4.26396 4.55081 4.76329 4.05148C4.17796 3.19148 3.64729 2.39881 2.95263 1.83548C2.23796 2.20881 1.54596 3.06214 1.57729 3.91614C1.60329 4.61348 1.88396 6.98881 4.44796 9.55281ZM10.0346 13.7548C9.07463 13.7195 6.35396 13.3441 3.50463 10.4948C0.655959 7.64614 0.280626 4.92614 0.244626 3.96548C0.191293 2.50148 1.31263 1.07948 2.60796 0.524144C2.76394 0.456788 2.93476 0.431144 3.10365 0.449727C3.27253 0.468311 3.43369 0.530483 3.57129 0.630144C4.64329 1.41214 5.38263 2.59681 6.01796 3.52481C6.15013 3.71778 6.21067 3.95088 6.18912 4.18377C6.16758 4.41667 6.06529 4.6347 5.89996 4.80014L4.99596 5.70481C5.20596 6.16814 5.63329 6.96681 6.33329 7.66681C7.03329 8.36681 7.83196 8.79414 8.29596 9.00414L9.19929 8.10014C9.36537 7.93447 9.58431 7.83231 9.81797 7.81148C10.0516 7.79065 10.2852 7.85246 10.478 7.98614C11.4246 8.64214 12.5366 9.37081 13.3473 10.4088C13.455 10.5474 13.5236 10.7124 13.5458 10.8866C13.5679 11.0607 13.5429 11.2376 13.4733 11.3988C12.9153 12.7008 11.5033 13.8088 10.0346 13.7548Z" fill="white"/>
</svg>
