<svg width="24" height="26" viewBox="0 0 24 26" fill="none" xmlns="http://www.w3.org/2000/svg">
<path d="M22.1654 9.96175L5.34506 0.472012C4.79574 0.158093 4.17309 -0.00473002 3.54042 0.000104609C2.90775 0.00493924 2.28766 0.17726 1.74321 0.499536C1.21278 0.802903 0.772092 1.24126 0.46592 1.77008C0.159749 2.29889 -0.00099926 2.89933 4.67375e-06 3.51038V22.4899C-0.00099926 23.1009 0.159749 23.7013 0.46592 24.2302C0.772092 24.759 1.21278 25.1973 1.74321 25.5007C2.28771 25.8228 2.90779 25.9951 3.54042 25.9999C4.17305 26.0047 4.79569 25.842 5.34506 25.5282L22.1654 16.0385C22.7079 15.738 23.16 15.2977 23.4749 14.7634C23.7897 14.2291 23.9557 13.6203 23.9557 13.0001C23.9557 12.38 23.7897 11.7711 23.4749 11.2368C23.16 10.7025 22.7079 10.2623 22.1654 9.96175Z" fill="#00BBAE"/>
</svg>
