<svg width="17" height="12" viewBox="0 0 17 12" fill="none" xmlns="http://www.w3.org/2000/svg">
<path d="M11.6002 0.2C11.4951 0.121207 11.3756 0.063878 11.2483 0.0312864C11.1211 -0.00130515 10.9887 -0.00852122 10.8587 0.0100505C10.7287 0.0286222 10.6037 0.072618 10.4907 0.139526C10.3777 0.206433 10.279 0.294943 10.2002 0.4C10.1214 0.505058 10.064 0.624606 10.0315 0.751819C9.99886 0.879033 9.99165 1.01142 10.0102 1.14142C10.0288 1.27142 10.0728 1.39649 10.1397 1.50949C10.2066 1.62249 10.2951 1.72121 10.4002 1.8C11.9642 2.973 12.8602 4.114 13.3732 5.11C12.6688 4.92868 11.9254 4.97131 11.2464 5.23195C10.5674 5.4926 9.98642 5.95831 9.58428 6.56436C9.18214 7.17041 8.9788 7.88669 9.00252 8.61364C9.02623 9.34058 9.27584 10.0421 9.71663 10.6206C10.1574 11.1992 10.7675 11.626 11.4621 11.8419C12.1566 12.0577 12.9012 12.0518 13.5923 11.8249C14.2833 11.5981 14.8865 11.1616 15.3181 10.5761C15.7496 9.99061 15.988 9.28523 16.0002 8.558C16.1283 7.32993 15.9539 6.08916 15.4922 4.944C14.8952 3.438 13.7282 1.796 11.6002 0.2ZM2.60017 0.2C2.49511 0.121207 2.37556 0.063878 2.24835 0.0312864C2.12113 -0.00130515 1.98875 -0.00852122 1.85874 0.0100505C1.72874 0.0286222 1.60367 0.072618 1.49067 0.139526C1.37768 0.206433 1.27896 0.294943 1.20017 0.4C1.12137 0.505058 1.06404 0.624606 1.03145 0.751819C0.998861 0.879033 0.991645 1.01142 1.01022 1.14142C1.02879 1.27142 1.07279 1.39649 1.13969 1.50949C1.2066 1.62249 1.29511 1.72121 1.40017 1.8C2.96417 2.973 3.86017 4.114 4.37317 5.11C3.6688 4.92868 2.92544 4.97131 2.24641 5.23195C1.56738 5.4926 0.986423 5.95831 0.584283 6.56436C0.182142 7.17041 -0.0212002 7.88669 0.0025177 8.61364C0.0262356 9.34058 0.275836 10.0421 0.716626 10.6206C1.15742 11.1992 1.7675 11.626 2.46207 11.8419C3.15664 12.0577 3.9012 12.0518 4.59225 11.8249C5.28331 11.5981 5.88652 11.1616 6.31806 10.5761C6.7496 9.99061 6.98801 9.28523 7.00017 8.558C7.1283 7.32993 6.9539 6.08916 6.49217 4.944C5.89417 3.438 4.72817 1.796 2.60017 0.2Z" fill="white"/>
</svg>
