<svg width="38" height="32" viewBox="0 0 38 32" fill="none" xmlns="http://www.w3.org/2000/svg">
<path d="M25.2839 14.7938C27.2068 14.0664 29.0633 13.9328 30.9714 14.3559C35.3033 15.3357 38.2944 19.2995 37.985 23.7087C37.6829 28.1104 34.1614 31.7402 29.7485 31.9629C25.5271 32.1782 21.9245 30.0478 20.3111 25.4976C19.2723 22.5656 19.1986 19.537 19.5817 16.4937C20.1343 12.1438 21.6151 8.14292 24.3336 4.67644C25.8954 2.68711 27.7667 1.09119 30.2273 0.334059C31.1777 0.0445665 32.1649 -0.0964681 33.1595 0.0445665C33.9993 0.15591 34.3382 0.616128 34.1319 1.44749C33.8741 2.48669 33.5573 3.50363 33.2773 4.5354C33.1521 4.99562 32.8722 5.27769 32.4228 5.35934C30.5441 5.69337 29.218 6.8365 28.135 8.32849C26.7574 10.251 25.947 12.4259 25.2839 14.7938Z" fill="#00BBAE"/>
<path d="M5.8721 14.8086C10.9849 12.938 16.2525 15.1797 18.0059 19.9452C19.192 23.1667 18.691 26.2101 16.4735 28.8304C14.2633 31.4432 11.3901 32.4527 8.02332 31.7995C3.74298 30.9756 1.29707 28.1178 0.508778 24.0203C-1.01623 16.1001 0.884505 9.0113 6.42464 3.06558C7.94228 1.43998 9.85038 0.378506 12.0974 0.0741682C12.4363 0.029631 12.7899 -6.05183e-05 13.1361 0.00736235C14.7054 0.0370538 15.0295 0.482426 14.6096 1.98185C14.3812 2.79836 14.1528 3.60745 13.9318 4.42397C13.7992 4.9213 13.534 5.2776 13.0035 5.3741C11.2501 5.69328 9.95352 6.72506 8.90738 8.12056C7.41921 10.0876 6.57935 12.3516 5.8721 14.8086Z" fill="#00BBAE"/>
</svg>
