<svg width="40" height="24" viewBox="0 0 40 24" fill="none" xmlns="http://www.w3.org/2000/svg">
<path d="M10.4998 4.62503C10.4998 3.94654 9.94911 3.39587 9.27062 3.39587H1.89566C1.21717 3.39587 0.666504 3.94654 0.666504 4.62503C0.666504 5.30353 1.21717 5.85419 1.89566 5.85419H9.27062C9.94911 5.85419 10.4998 5.30353 10.4998 4.62503ZM9.27062 8.31251H4.35398C3.67548 8.31251 3.12482 8.86317 3.12482 9.54167C3.12482 10.2202 3.67548 10.7708 4.35398 10.7708H9.27062C9.94911 10.7708 10.4998 10.2202 10.4998 9.54167C10.4998 8.86317 9.94911 8.31251 9.27062 8.31251ZM9.27062 13.2291H6.8123C6.1338 13.2291 5.58314 13.7798 5.58314 14.4583C5.58314 15.1368 6.1338 15.6875 6.8123 15.6875H9.27062C9.94911 15.6875 10.4998 15.1368 10.4998 14.4583C10.4998 13.7798 9.94911 13.2291 9.27062 13.2291Z" fill="#F88E0F"/>
<path d="M39.8254 12.5974L36.1379 6.45162C36.0289 6.26922 35.8744 6.11827 35.6895 6.01355C35.5047 5.90883 35.2957 5.85393 35.0833 5.85425H26.4792C25.8007 5.85425 25.25 6.40491 25.25 7.08341V19.375C25.25 20.0535 25.8007 20.6042 26.4792 20.6042H38.7707C39.4492 20.6042 39.9999 20.0535 39.9999 19.375V13.2292C39.9999 13.0055 39.9409 12.7867 39.8254 12.5974Z" fill="#00BBAE"/>
<path d="M30.1663 8.31256H34.3872L37.3372 13.2292H30.1663V8.31256Z" fill="#FAFAFA"/>
<path d="M26.4789 0.937561H9.27066C8.59217 0.937561 8.0415 1.48822 8.0415 2.16672V19.3749C8.0415 20.0534 8.59217 20.6041 9.27066 20.6041H27.708V2.16672C27.708 1.48822 27.1574 0.937561 26.4789 0.937561Z" fill="#F88E0F"/>
<path d="M33.8541 21.8333C35.2118 21.8333 36.3124 20.7327 36.3124 19.375C36.3124 18.0173 35.2118 16.9167 33.8541 16.9167C32.4964 16.9167 31.3958 18.0173 31.3958 19.375C31.3958 20.7327 32.4964 21.8333 33.8541 21.8333Z" fill="#FAFAFA"/>
<path d="M33.8537 23.0624C31.8207 23.0624 30.1663 21.4079 30.1663 19.3749C30.1663 17.3419 31.8207 15.6874 33.8537 15.6874C35.8868 15.6874 37.5412 17.3419 37.5412 19.3749C37.5412 21.4079 35.8868 23.0624 33.8537 23.0624ZM33.8537 18.1458C33.1777 18.1458 32.6246 18.6989 32.6246 19.3749C32.6246 20.051 33.1777 20.6041 33.8537 20.6041C34.5298 20.6041 35.0829 20.051 35.0829 19.3749C35.0829 18.6989 34.5298 18.1458 33.8537 18.1458Z" fill="#001430"/>
<path d="M27.708 20.6041H9.27066C8.59217 20.6041 8.0415 20.0534 8.0415 19.3749V15.6874H27.708V20.6041Z" fill="#00BBAE"/>
<path d="M16.6458 21.8333C18.0035 21.8333 19.1041 20.7327 19.1041 19.375C19.1041 18.0173 18.0035 16.9167 16.6458 16.9167C15.2881 16.9167 14.1875 18.0173 14.1875 19.375C14.1875 20.7327 15.2881 21.8333 16.6458 21.8333Z" fill="#FAFAFA"/>
<path d="M16.6457 23.0624C14.6127 23.0624 12.9583 21.4079 12.9583 19.3749C12.9583 17.3419 14.6127 15.6874 16.6457 15.6874C18.6788 15.6874 20.3332 17.3419 20.3332 19.3749C20.3332 21.4079 18.6788 23.0624 16.6457 23.0624ZM16.6457 18.1458C15.9672 18.1458 15.4166 18.6989 15.4166 19.3749C15.4166 20.051 15.9672 20.6041 16.6457 20.6041C17.3242 20.6041 17.8749 20.051 17.8749 19.3749C17.8749 18.6989 17.3242 18.1458 16.6457 18.1458Z" fill="#001430"/>
</svg>
