<svg width="16" height="14" viewBox="0 0 16 14" fill="none" xmlns="http://www.w3.org/2000/svg">
<path d="M15 1.00672C14.3906 1.45846 13.7159 1.80396 13.0018 2.02993C12.6186 1.56682 12.1092 1.23858 11.5427 1.0896C10.9761 0.940625 10.3797 0.978099 9.83405 1.19696C9.28842 1.41581 8.81992 1.80549 8.4919 2.31329C8.16388 2.82109 7.99217 3.42251 8 4.0362V4.70496C6.88168 4.73544 5.77354 4.47478 4.77428 3.94622C3.77502 3.41765 2.91566 2.63758 2.27273 1.67548C2.27273 1.67548 -0.272727 7.69432 5.45455 10.3694C4.14397 11.3043 2.58274 11.773 1 11.7069C6.72727 15.0507 13.7273 11.7069 13.7273 4.01614C13.7267 3.82986 13.7096 3.64404 13.6764 3.46107C14.3258 2.78796 14.7842 1.93811 15 1.00672Z" stroke="#A4B0BF" stroke-width="1.25" stroke-linecap="round" stroke-linejoin="round"/>
</svg>
