<svg width="17" height="16" viewBox="0 0 17 16" fill="none" xmlns="http://www.w3.org/2000/svg">
<g clip-path="url(#clip0_1106_6392)">
<path d="M3.80224 13.4277L3.78127 13.606L3.91858 13.7216C5.25074 14.8435 6.92874 15.4 8.66663 15.4C10.4138 15.4 12.0894 14.771 13.4147 13.655L13.5545 13.5372L13.5304 13.3559C13.3871 12.2812 12.8859 11.2812 12.1023 10.4976C11.2357 9.63103 10.0157 9.13333 8.66663 9.13333C6.16515 9.13333 4.08876 10.9923 3.80224 13.4277ZM10.4197 8.51961L9.78979 8.92455L10.5123 9.12159C11.1693 9.30079 11.7873 9.72539 12.3643 10.3024C13.0516 10.9897 13.4913 11.8027 13.7445 12.7526L13.9094 13.3708L14.3216 12.8814C15.4397 11.5536 16.0666 9.81053 16.0666 8.06667C16.0666 4.01796 12.7861 0.666667 8.66663 0.666667C4.54713 0.666667 1.33329 3.95132 1.33329 8C1.33329 9.74458 1.96086 11.4915 3.15155 12.8223L3.59608 13.3191L3.72682 12.6654C3.91364 11.7313 4.41326 10.7956 5.15853 10.1124L5.16387 10.1075L5.16899 10.1024C5.6544 9.61696 6.27105 9.30391 6.92376 9.04283L7.56474 8.78643L6.96534 8.44392C6.14215 7.97353 5.59996 7.02114 5.59996 6C5.59996 4.31743 6.98405 2.93333 8.66663 2.93333C10.3492 2.93333 11.7333 4.31743 11.7333 6C11.7333 7.03148 11.2483 7.98694 10.4197 8.51961ZM8.66663 15.7333C6.62564 15.7333 4.70653 14.9044 3.23037 13.4925C1.7702 12.0958 0.999959 10.1198 0.999959 8C0.999959 5.89378 1.82779 4.04102 3.24084 2.56374C4.63846 1.10259 6.61496 0.333333 8.66663 0.333333C10.7064 0.333333 12.6244 1.16123 14.1002 2.57165C15.5677 4.04053 16.3333 5.954 16.3333 8C16.3333 10.041 15.5044 11.9601 14.0924 13.4363C12.689 14.9035 10.7761 15.7333 8.66663 15.7333ZM8.66663 3.26667C7.1492 3.26667 5.93329 4.48257 5.93329 6C5.93329 7.51743 7.1492 8.73333 8.66663 8.73333C10.1841 8.73333 11.4 7.51743 11.4 6C11.4 4.48257 10.1841 3.26667 8.66663 3.26667Z" fill="white" stroke="white" stroke-width="0.666667"/>
</g>
<defs>
<clipPath id="clip0_1106_6392">
<rect width="16" height="16" fill="white" transform="translate(0.666626)"/>
</clipPath>
</defs>
</svg>
