<svg width="16" height="16" viewBox="0 0 16 16" fill="none" xmlns="http://www.w3.org/2000/svg">
<path d="M14.4502 4.4808C14.3776 4.1904 14.2295 3.92432 14.0211 3.70944C13.8127 3.49456 13.5512 3.33849 13.2632 3.257C12.2107 3 8.0008 3 8.0008 3C8.0008 3 3.79092 3 2.73845 3.28147C2.45039 3.36297 2.18894 3.51904 1.98051 3.73392C1.77208 3.9488 1.62404 4.21488 1.55136 4.50528C1.35874 5.57339 1.26452 6.65691 1.26988 7.74224C1.26302 8.83573 1.35724 9.92752 1.55136 11.0037C1.63149 11.2851 1.78284 11.541 1.99079 11.7468C2.19874 11.9526 2.45625 12.1013 2.73845 12.1785C3.79092 12.46 8.0008 12.46 8.0008 12.46C8.0008 12.46 12.2107 12.46 13.2632 12.1785C13.5512 12.097 13.8127 11.941 14.0211 11.7261C14.2295 11.5112 14.3776 11.2451 14.4502 10.9547C14.6414 9.89466 14.7356 8.81939 14.7317 7.74224C14.7386 6.64874 14.6444 5.55695 14.4502 4.4808Z" stroke="#A4B0BF" stroke-width="1.25" stroke-linecap="round" stroke-linejoin="round"/>
<path d="M6.62402 9.74305L10.1425 7.74213L6.62402 5.74121V9.74305Z" stroke="#A4B0BF" stroke-width="1.25" stroke-linecap="round" stroke-linejoin="round"/>
</svg>
