<svg width="140" height="140" viewBox="0 0 140 140" fill="none" xmlns="http://www.w3.org/2000/svg">
<g clip-path="url(#clip0_2799_7131)">
<path d="M72.9573 11.019L71.2812 0L72.9573 0.196767L74.0418 8.65777H74.1404L77.2953 0.688686L78.9714 0.885453L80.1545 9.44483H80.2531L83.3094 1.37737L84.9855 1.57414L80.8446 11.9044L79.2672 11.7077L77.8869 3.44343H77.7883L74.6334 11.1174L72.9573 11.019Z" fill="white"/>
<path d="M84.887 12.8883L83.2109 12.3964L90.1123 3.34509L91.887 3.93539L92.3799 15.3479L90.7039 14.6592L90.4081 5.41115H90.3095L84.887 12.8883ZM86.3659 8.95296L91.6898 10.6255L91.2954 11.9045L85.9715 10.232L86.3659 8.95296Z" fill="white"/>
<path d="M96.0279 6.69012L96.6194 5.41113L104.112 9.05133L103.521 10.3303L100.464 8.85456L96.4222 17.2172L94.9434 16.5285L98.9856 8.16588L96.0279 6.69012Z" fill="white"/>
<path d="M111.901 18.4961L110.521 17.5123C110.718 17.2171 110.718 16.8236 110.718 16.5285C110.718 16.2333 110.718 15.9382 110.62 15.643C110.521 15.3479 110.423 15.0527 110.225 14.8559C110.028 14.5608 109.831 14.364 109.535 14.1672C109.042 13.7737 108.451 13.5769 107.859 13.5769C107.268 13.5769 106.676 13.6753 106.085 14.0689C105.493 14.364 105 14.9543 104.507 15.643C104.014 16.3317 103.718 17.0204 103.62 17.7091C103.521 18.3977 103.521 18.988 103.817 19.48C104.014 19.9719 104.408 20.4638 104.901 20.759C105.197 20.9557 105.493 21.0541 105.789 21.1525C106.085 21.2509 106.38 21.2509 106.676 21.2509C106.972 21.2509 107.268 21.1525 107.563 21.0541C107.859 20.9557 108.155 20.759 108.352 20.5622L109.732 21.546C109.338 21.9396 108.944 22.2347 108.451 22.4315C107.958 22.6282 107.465 22.825 106.972 22.825C106.479 22.825 105.986 22.825 105.493 22.6282C105 22.5299 104.507 22.2347 104.014 21.9396C103.225 21.4476 102.732 20.759 102.338 19.9719C102.042 19.1848 101.845 18.2994 102.042 17.4139C102.141 16.5285 102.535 15.5446 103.225 14.6592C103.915 13.6753 104.606 12.9866 105.394 12.5931C106.183 12.1996 107.07 12.0028 107.859 12.0028C108.746 12.1012 109.535 12.3963 110.324 12.8883C110.817 13.1834 111.211 13.5769 111.507 13.9705C111.803 14.364 112 14.8559 112.197 15.3479C112.394 15.8398 112.394 16.3317 112.296 16.8236C112.197 17.3155 112.099 17.9058 111.901 18.4961Z" fill="white"/>
<path d="M108.943 25.4814L116.535 17.9059L117.718 19.0865L114.366 22.3331L118.112 26.1701L121.464 22.9235L122.648 24.1041L115.056 31.6796L113.873 30.499L117.225 27.2523L113.479 23.4154L110.126 26.662L108.943 25.4814Z" fill="white"/>
<path d="M128.367 31.5812L122.353 38.6648L122.451 38.7632L131.522 36.7956L132.409 38.2713L121.17 40.5341L120.184 38.96L127.381 30.1055L128.367 31.5812Z" fill="white"/>
<path d="M134.084 42.305L124.225 46.7322L123.535 45.2565L133.394 40.8292L134.084 42.305Z" fill="white"/>
<path d="M126.296 51.9466L125.311 48.6015L135.564 45.4532L136.649 48.8967C136.944 49.8805 137.043 50.8643 136.846 51.6514C136.649 52.5369 136.254 53.2256 135.564 53.8159C134.874 54.4062 134.085 54.8981 133.001 55.2916C131.916 55.5868 130.93 55.6852 130.043 55.5868C129.156 55.39 128.367 55.0948 127.775 54.4062C127.085 53.8159 126.592 53.0288 126.296 51.9466ZM127.085 49.7821L127.578 51.4547C127.775 52.2417 128.17 52.832 128.663 53.2256C129.156 53.6191 129.649 53.9142 130.339 54.0126C131.029 54.111 131.719 54.0126 132.508 53.7175C133.296 53.4223 133.987 53.1272 134.48 52.7336C134.973 52.3401 135.268 51.7498 135.367 51.1595C135.465 50.5692 135.465 49.8805 135.268 49.1918L134.677 47.4209L127.085 49.7821Z" fill="white"/>
<path d="M128.17 58.6366L138.818 57.1609L139.705 63.851L138.325 64.0477L137.635 59.0302L134.381 59.5221L135.071 64.2445L133.691 64.4413L133.001 59.7189L129.747 60.2108L130.438 65.3267L129.057 65.5235L128.17 58.6366Z" fill="white"/>
<path d="M134.38 76.6409C133.196 76.6409 132.211 76.3457 131.422 75.9522C130.633 75.5586 129.943 74.9683 129.549 74.1813C129.154 73.3942 128.957 72.6071 128.957 71.7217C128.957 70.8362 129.253 69.9508 129.647 69.2621C130.14 68.5734 130.732 67.9831 131.619 67.5896C132.408 67.196 133.492 66.9993 134.577 66.9993C135.76 66.9993 136.746 67.2944 137.534 67.688C138.323 68.0815 139.013 68.6718 139.408 69.4589C139.802 70.2459 139.999 71.033 139.999 71.9185C139.999 72.8039 139.704 73.6894 139.309 74.378C138.816 75.0667 138.225 75.657 137.337 76.0506C136.549 76.5425 135.464 76.7393 134.38 76.6409ZM134.38 75.0667C135.267 75.0667 135.957 74.9683 136.647 74.6732C137.239 74.378 137.732 74.0829 138.027 73.591C138.323 73.0991 138.52 72.6071 138.52 71.9185C138.52 71.3282 138.422 70.7379 138.126 70.2459C137.83 69.754 137.337 69.3605 136.746 69.0653C136.154 68.7702 135.464 68.5734 134.577 68.5734C133.689 68.5734 132.999 68.6718 132.309 68.9669C131.619 69.2621 131.225 69.5572 130.929 70.0492C130.633 70.5411 130.436 71.033 130.436 71.7217C130.436 72.312 130.534 72.9023 130.83 73.3942C131.126 73.8861 131.619 74.2797 132.211 74.5748C132.802 74.87 133.492 75.0667 134.38 75.0667Z" fill="white"/>
<path d="M128.662 88.6437L130.732 89.4308L130.141 87.2663L131.225 87.0696L131.62 89.234L133.197 87.6599L133.986 88.5453L132.31 89.9227L134.479 90.513L134.084 91.5952L132.014 90.8082L132.606 92.9726L131.521 93.1694L131.127 91.0049L129.549 92.5791L128.761 91.6936L130.437 90.3162L128.268 89.7259L128.662 88.6437Z" fill="white"/>
<path d="M120.183 101.63L130.633 105.566L129.647 106.943L121.662 103.696L121.563 103.795L126.985 110.485L126 111.862L118.014 108.714L117.915 108.812L123.436 115.404L122.45 116.781L115.549 108.025L116.535 106.746L124.422 109.698V109.599L119.295 103.008L120.183 101.63Z" fill="white"/>
<path d="M112.691 111.075L113.973 109.895L118.508 120.323L117.128 121.602L106.973 116.388L108.254 115.207L116.536 119.536L116.635 119.438L112.691 111.075ZM115.353 114.322L111.311 118.159L110.423 117.175L114.466 113.338L115.353 114.322Z" fill="white"/>
<path d="M112.591 123.767L113.38 124.947L106.577 129.67L105.788 128.489L108.549 126.521L103.225 118.847L104.506 117.962L109.83 125.636L112.591 123.767Z" fill="white"/>
<path d="M94.549 131.834L96.0279 131.145C96.2251 131.441 96.5209 131.637 96.718 131.834C97.0138 132.031 97.3096 132.129 97.6054 132.129C97.9011 132.228 98.1969 132.228 98.4927 132.129C98.7885 132.129 99.0842 132.031 99.4786 131.834C100.07 131.539 100.465 131.145 100.76 130.654C101.056 130.162 101.253 129.571 101.253 128.883C101.253 128.194 101.056 127.505 100.662 126.718C100.267 125.931 99.873 125.341 99.2814 124.947C98.6899 124.554 98.1969 124.259 97.6054 124.259C97.0138 124.16 96.4223 124.259 95.9293 124.554C95.6335 124.652 95.3378 124.849 95.1406 125.144C94.9434 125.341 94.7462 125.636 94.549 125.833C94.4504 126.128 94.3518 126.423 94.2532 126.718C94.2532 127.013 94.2532 127.309 94.3518 127.702L92.873 128.391C92.6758 127.899 92.6758 127.407 92.6758 126.817C92.6758 126.325 92.873 125.833 93.0701 125.341C93.2673 124.849 93.5631 124.455 93.9575 124.062C94.3518 123.668 94.7462 123.373 95.3378 123.078C96.2251 122.684 97.0138 122.488 97.9011 122.586C98.7885 122.684 99.5772 122.98 100.267 123.57C100.957 124.16 101.648 124.947 102.141 125.931C102.634 126.915 102.831 127.899 102.831 128.883C102.831 129.768 102.535 130.654 102.141 131.342C101.648 132.031 101.056 132.621 100.169 133.015C99.6758 133.31 99.1828 133.408 98.5913 133.507C97.9997 133.605 97.6054 133.507 97.1124 133.408C96.6194 133.31 96.1265 133.113 95.7321 132.818C95.2392 132.72 94.9434 132.326 94.549 131.834Z" fill="white"/>
<path d="M89.8168 125.833L92.676 136.163L91.0985 136.557L89.8168 132.031L84.6901 133.408L85.9718 137.934L84.3943 138.327L81.5352 127.997L83.1126 127.604L84.3943 132.129L89.5211 130.752L88.2394 126.226L89.8168 125.833Z" fill="white"/>
<path d="M74.9303 139.705L71.6768 131.047H71.5782L68.8176 139.902H67.043L70.5923 129.079L72.4655 128.981L76.6063 139.607L74.9303 139.705Z" fill="white"/>
<path d="M62.9023 139.508L63.8883 128.784L65.4657 128.883L64.4798 139.607L62.9023 139.508Z" fill="white"/>
<path d="M58.1697 127.997L61.6204 128.686L59.3528 139.213L55.8035 138.426C54.8176 138.229 53.9303 137.836 53.2401 137.245C52.55 136.655 52.1556 135.966 51.9584 135.081C51.7613 134.195 51.7613 133.212 51.9584 132.129C52.1556 131.047 52.55 130.162 53.1415 129.473C53.7331 128.784 54.4232 128.292 55.212 127.997C56.1979 127.702 57.1838 127.702 58.1697 127.997ZM59.7472 129.768L57.9725 129.375C57.1838 129.178 56.4936 129.178 55.9021 129.375C55.3105 129.571 54.8176 129.965 54.4232 130.457C54.0289 130.949 53.7331 131.637 53.5359 132.523C53.3387 133.31 53.3387 134.097 53.4373 134.687C53.5359 135.278 53.8317 135.868 54.3246 136.261C54.8176 136.655 55.4091 136.95 56.1979 137.147L58.0711 137.54L59.7472 129.768Z" fill="white"/>
<path d="M51.4645 126.226L47.5208 136.261L41.2109 133.802L41.7039 132.523L46.4363 134.392L47.6194 131.342L43.1828 129.571L43.6757 128.292L48.1123 130.063L49.2954 127.013L44.4645 125.144L44.9574 123.865L51.4645 126.226Z" fill="white"/>
<path d="M32.6341 122.881C33.2256 121.897 33.9158 121.209 34.7045 120.717C35.4932 120.225 36.282 119.93 37.1693 119.93C38.0566 119.93 38.8454 120.126 39.6341 120.618C40.4228 121.11 41.0144 121.701 41.4087 122.488C41.8031 123.275 42.0003 124.062 41.9017 125.046C41.8031 125.931 41.5073 126.915 40.9158 127.899C40.3242 128.883 39.6341 129.571 38.8454 130.063C38.0566 130.555 37.2679 130.752 36.3806 130.85C35.4932 130.85 34.7045 130.654 33.9158 130.162C33.127 129.67 32.5355 129.079 32.1411 128.292C31.7468 127.505 31.5496 126.718 31.6482 125.734C31.7468 124.75 32.0425 123.865 32.6341 122.881ZM34.0144 123.668C33.5214 124.455 33.3242 125.144 33.2256 125.734C33.127 126.423 33.2256 127.013 33.5214 127.505C33.8172 127.997 34.2116 128.391 34.7045 128.784C35.1975 129.079 35.789 129.276 36.3806 129.276C36.9721 129.276 37.5637 129.079 38.0566 128.686C38.5496 128.292 39.1411 127.8 39.5355 127.013C40.0285 126.226 40.2256 125.538 40.3242 124.947C40.4228 124.259 40.3242 123.668 40.0285 123.176C39.7327 122.684 39.3383 122.291 38.8454 121.897C38.3524 121.602 37.7608 121.405 37.1693 121.405C36.5778 121.405 35.9862 121.602 35.4932 121.996C35.0003 122.389 34.5073 122.98 34.0144 123.668Z" fill="white"/>
<path d="M25.0425 112.059L23.3665 113.436L25.5355 114.027L25.1411 115.109L23.0707 114.322L23.6622 116.486L22.5777 116.781L22.1834 114.617L20.6059 116.191L19.8172 115.306L21.4932 113.928L19.3242 113.338L19.7186 112.157L21.789 112.944L21.1975 110.78L22.282 110.485L22.6763 112.649L24.2538 111.075L25.0425 112.059Z" fill="white"/>
<path d="M17.8456 98.1869L9.26816 105.369L8.57801 103.795L15.2822 98.482V98.3837L6.80337 99.8594L6.11323 98.2853L12.8175 92.8742V92.7758L4.33858 94.3499L3.64844 92.7758L14.6907 91.0049L15.3808 92.4806L8.87379 97.8917V97.9901L17.1555 96.7111L17.8456 98.1869Z" fill="white"/>
<path d="M13.212 87.1679L13.6064 88.8405L2.26835 87.6599L1.77539 85.889L11.3388 79.5924L11.7331 81.2649L3.9444 86.1841V86.2825L13.212 87.1679ZM9.07116 87.8566L7.78948 82.4455L9.07116 82.1504L10.3529 87.5615L9.07116 87.8566Z" fill="white"/>
<path d="M2.16901 80.8714L0.788732 80.9698L0 72.7056L1.38028 72.6072L1.67606 75.9522L10.9437 75.0668L11.1408 76.6409L1.87324 77.5264L2.16901 80.8714Z" fill="white"/>
<path d="M4.04301 61.1947L3.94441 62.7688C3.55005 62.7688 3.25427 62.8672 2.9585 63.064C2.66272 63.2608 2.46554 63.4575 2.26836 63.6543C2.07117 63.8511 1.87399 64.1462 1.7754 64.4414C1.67681 64.7365 1.57822 65.0317 1.57822 65.4252C1.57822 66.0155 1.67681 66.6058 1.97258 67.0977C2.26836 67.5896 2.66272 67.9832 3.25427 68.3767C3.84582 68.6719 4.53596 68.8686 5.42329 68.967C6.31061 69.0654 7.00075 68.967 7.69089 68.6719C8.28244 68.4751 8.7754 68.0816 9.16977 67.5896C9.46554 67.0977 9.66272 66.6058 9.76132 66.0155C9.76132 65.7203 9.76132 65.3268 9.66272 65.0317C9.56413 64.7365 9.46554 64.4414 9.26836 64.1462C9.07117 63.8511 8.87399 63.6543 8.67681 63.4575C8.38103 63.2608 8.08526 63.1624 7.78948 63.064L7.88808 61.3915C8.38103 61.4899 8.87399 61.6866 9.26836 61.9818C9.66272 62.2769 10.0571 62.5721 10.3529 62.9656C10.6486 63.3591 10.8458 63.8511 11.043 64.343C11.1416 64.8349 11.2402 65.4252 11.2402 66.0155C11.1416 66.901 10.9444 67.7864 10.4515 68.4751C9.9585 69.1638 9.26836 69.6557 8.47963 70.0492C7.69089 70.4428 6.60639 70.5412 5.52188 70.4428C4.33878 70.3444 3.45146 70.1476 2.56413 69.6557C1.57822 69.2622 0.986667 68.6719 0.592301 67.8848C0.197935 67.0977 0.000751674 66.3107 0.0993432 65.4252C0.0993432 64.8349 0.296526 64.343 0.493709 63.8511C0.690893 63.3591 0.986667 62.9656 1.28244 62.5721C1.57822 62.1785 2.07117 61.8834 2.46554 61.6866C2.85991 61.4899 3.45146 61.1947 4.04301 61.1947Z" fill="white"/>
<path d="M11.5347 60.0141L1.08398 57.4561L1.47835 55.882L6.01356 56.9642L7.29525 51.7499L2.76004 50.6676L3.15441 49.0935L13.6051 51.6515L13.2107 53.2256L8.67553 52.1434L7.39384 57.3577L11.9291 58.44L11.5347 60.0141Z" fill="white"/>
<path d="M6.70475 40.2389L15.8738 41.7147L15.9724 41.6163L9.66249 34.9262L10.4512 33.3521L18.1414 41.813L17.254 43.4856L5.91602 41.813L6.70475 40.2389Z" fill="white"/>
<path d="M12.9147 29.8103L21.7879 35.9101L20.9006 37.2875L12.0273 31.1877L12.9147 29.8103Z" fill="white"/>
<path d="M25.2388 31.4828L22.9712 34.0407L14.8867 26.9571L17.2529 24.3007C17.9431 23.5137 18.7318 23.0218 19.5205 22.7266C20.3093 22.4315 21.1966 22.4315 22.0839 22.6282C22.9712 22.825 23.76 23.3169 24.6473 24.104C25.5346 24.891 26.0276 25.6781 26.4219 26.4652C26.7177 27.3506 26.8163 28.1377 26.6191 29.0232C26.4219 29.8102 25.929 30.6957 25.2388 31.4828ZM22.9712 31.9747L24.1543 30.6957C24.7459 30.1054 25.0416 29.5151 25.1402 28.8264C25.2388 28.1377 25.2388 27.6458 24.9431 27.0555C24.6473 26.4652 24.2529 25.8749 23.5628 25.2846C22.9712 24.6943 22.2811 24.3991 21.6895 24.2024C21.098 24.0056 20.5064 24.0056 19.9149 24.2024C19.3233 24.3991 18.8304 24.7927 18.2388 25.383L16.9571 26.7603L22.9712 31.9747Z" fill="white"/>
<path d="M29.9727 26.4652L23.1699 18.201L28.3953 13.9705L29.2826 15.0527L25.3389 18.2993L27.4094 20.8573L31.0572 17.8074L31.9446 18.8896L28.2967 21.9395L30.3671 24.4975L34.4094 21.2509L35.2967 22.3331L29.9727 26.4652Z" fill="white"/>
<path d="M42.1963 11.7076C42.7878 12.6914 43.0836 13.6753 43.0836 14.5607C43.0836 15.4462 42.985 16.3316 42.492 17.0203C42.0977 17.8074 41.5061 18.3977 40.6188 18.7912C39.8301 19.2832 38.9428 19.4799 38.154 19.4799C37.2667 19.4799 36.478 19.1848 35.6892 18.6929C34.9005 18.2009 34.2104 17.4139 33.7174 16.43C33.1259 15.4462 32.8301 14.4624 32.8301 13.5769C32.8301 12.6914 32.9287 11.806 33.4216 11.1173C33.816 10.3302 34.4075 9.73994 35.2949 9.3464C36.0836 8.85448 36.9709 8.65771 37.7597 8.65771C38.647 8.65771 39.4357 8.95287 40.2244 9.44478C40.9146 10.0351 41.6047 10.7238 42.1963 11.7076ZM40.816 12.5931C40.4216 11.806 39.9287 11.3141 39.3371 10.9205C38.7456 10.527 38.2526 10.3302 37.6611 10.3302C37.0695 10.3302 36.478 10.4286 35.985 10.7238C35.4921 11.0189 34.9991 11.4125 34.8019 11.9044C34.5061 12.3963 34.4075 12.9866 34.5061 13.6753C34.6047 14.364 34.8019 15.0527 35.1963 15.8397C35.5906 16.6268 36.0836 17.1187 36.6752 17.5122C37.2667 17.9058 37.7597 18.1025 38.3512 18.1025C38.9428 18.1025 39.5343 18.0042 40.0273 17.709C40.5202 17.4139 41.0132 17.0203 41.2104 16.5284C41.5061 16.0365 41.6047 15.4462 41.5061 14.7575C41.5061 13.9704 41.2104 13.2817 40.816 12.5931Z" fill="white"/>
<path d="M55.4088 10.4286L55.0145 8.2642L53.437 9.83834L52.6483 8.95289L54.3243 7.47714L52.2539 7.0836L52.5497 6.00138L54.6201 6.78845L54.0286 4.62401L55.1131 4.32886L55.5074 6.4933L57.0849 4.91916L57.8736 5.80461L56.1976 7.18198L58.3666 7.6739L58.0708 8.75612L56.0004 7.96905L56.5919 10.1335L55.4088 10.4286Z" fill="white"/>
</g>
<defs>
<clipPath id="clip0_2799_7131">
<rect width="140" height="140" fill="white"/>
</clipPath>
</defs>
</svg>
