<svg width="129" height="123" viewBox="0 0 129 123" fill="none" xmlns="http://www.w3.org/2000/svg">
<path d="M82.6729 5.85306C89.9038 23.6753 103.642 7.23412 107.849 5.39271C98.3179 31.2383 118.17 34.0004 120.865 34.0004C122.114 34.0004 111.531 44.3255 113.24 48.0083C115.08 51.8884 123.757 55.2424 128.03 55.637C122.508 56.4262 117.776 60.9639 116.658 66.4224C115.541 71.8809 118.236 77.8655 122.969 80.7591C118.696 80.4961 114.883 82.9951 111.465 85.56C92.2702 100.094 98.055 111.471 99.6983 120.941C90.4297 114.562 81.7526 115.22 70.5119 115.812C63.6097 116.206 56.5103 118.114 51.6459 122.98C51.5802 117.127 48.0305 111.603 43.1661 108.249C38.3017 104.895 32.8456 105.289 26.7323 108.972C29.3617 105.421 28.1784 94.504 25.2203 91.2815C22.2622 87.9933 13.6509 88.6509 9.24668 88.2563C13.7167 82.3375 17.5293 71.6836 14.4398 64.9098C11.3502 58.1361 5.95993 52.7433 0.503906 47.6795C7.80051 46.2326 15.2286 42.0237 17.7265 34.9869C19.8958 29.0023 18.121 22.36 18.1867 15.9808C33.8317 22.7546 47.6361 12.9557 58.6796 0C67.3566 20.9132 82.4757 5.7873 82.6729 5.85306Z" fill="#DD4525"/>
<path d="M104.86 63.2708C106.726 40.9393 90.1441 21.3221 67.8226 19.4547C45.5011 17.5873 25.8928 34.1768 24.0262 56.5083C22.1596 78.8399 38.7416 98.457 61.0632 100.324C83.3847 102.192 102.993 85.6024 104.86 63.2708Z" fill="#EFC12D"/>
<path d="M54.2749 50.4416C54.5379 51.9542 52.6316 55.637 48.1616 55.2424C45.1377 54.9794 43.2314 53.0064 44.0202 49.7839" stroke="#151D2C" stroke-width="2.1587" stroke-miterlimit="10" stroke-linecap="round" stroke-linejoin="round"/>
<path d="M82.4109 54.6505C82.6739 56.1631 80.7676 59.846 76.2976 59.4514C73.2737 59.1883 72.1562 57.2154 72.1562 53.9929" stroke="#151D2C" stroke-width="2.1587" stroke-miterlimit="10" stroke-linecap="round" stroke-linejoin="round"/>
<path d="M59.2042 60.2405C58.9412 61.4243 58.6783 62.6081 58.8755 63.7918C59.0727 64.9756 59.9273 66.1594 61.1105 66.3567C62.3595 66.6197 63.6085 65.699 64.2001 64.6468C64.7917 63.5288 64.9231 62.2135 64.9889 60.964" stroke="#151D2C" stroke-width="2.1587" stroke-miterlimit="10" stroke-linecap="round" stroke-linejoin="round"/>
<path d="M90.4953 66.0278C90.4953 67.935 87.9974 69.5134 84.9078 69.5134C81.8183 69.5134 79.3203 67.935 79.3203 66.0278C79.3203 64.1207 81.8183 62.5423 84.9078 62.5423C87.9316 62.4765 90.4953 64.0549 90.4953 66.0278Z" fill="#D47577"/>
<path d="M43.2313 61.5558C42.3768 63.2657 39.4187 63.5945 36.6578 62.2792C33.8969 60.8982 32.3193 58.3991 33.1739 56.6892C34.0284 54.9793 36.9865 54.6505 39.7474 55.9658C42.5083 57.2811 44.0859 59.8459 43.2313 61.5558Z" fill="#D47577"/>
</svg>
