<svg width="83" height="79" viewBox="0 0 83 79" fill="none" xmlns="http://www.w3.org/2000/svg">
<path d="M0 61.8582C0.105329 53.6389 2.6332 45.6303 5.31909 37.8851C10.3749 23.1852 17.6952 7.16804 32.2832 1.74118C43.7114 -2.47386 57.1935 1.47771 66.1464 9.74973C75.0993 18.0217 79.9971 29.982 81.8931 42.0475C83.789 54.1131 82.8937 66.3894 81.8404 78.5603" fill="#DD4525"/>
<path d="M6.63672 63.3335C6.74205 56.484 8.84862 49.7927 11.1132 43.312C15.3263 31.0357 21.4354 17.653 33.6009 13.1745C43.1331 9.64438 54.3506 12.9637 61.829 19.8659C69.3073 26.768 73.4151 36.7787 74.9424 46.8421C76.5223 56.9056 75.785 67.1797 74.8897 77.3485" fill="#EFC12D"/>
<path d="M14.0078 64.9141C14.1131 59.5399 15.7457 54.3765 17.4836 49.2658C20.8015 39.6765 25.5413 29.2443 35.0209 25.7142C42.4992 22.9745 51.2415 25.5562 57.0872 30.9303C62.933 36.3572 66.0928 44.1024 67.3568 52.0056C68.5681 59.8561 67.9888 67.8647 67.3041 75.8205" fill="#60A973"/>
<path d="M20.75 66.3894C20.8027 62.3851 22.014 58.5389 23.3306 54.7453C25.8058 47.6324 29.3343 39.8346 36.3913 37.2529C41.9211 35.1981 48.4514 37.1475 52.7699 41.1518C57.0884 45.1561 59.4583 50.9518 60.4062 56.8002C61.3015 62.6485 60.8802 68.6023 60.4062 74.5033" fill="#182A98"/>
<path d="M28.123 68.0227C28.1757 65.5464 28.913 63.1227 29.7557 60.8045C31.2829 56.3787 33.4948 51.5314 37.8659 49.898C41.3418 48.6335 45.3443 49.8454 48.0828 52.3217C50.7687 54.798 52.2433 58.4335 52.8226 62.069C53.4019 65.7045 53.1386 69.3926 52.8226 73.0808" fill="#DE56C1"/>
<path d="M33.125 71.342C33.1777 69.7087 33.6516 68.1281 34.1783 66.6001C35.1262 63.7023 36.4429 60.4883 38.9181 59.3292C40.8667 58.4335 43.0786 59.1184 44.5532 60.699C45.9751 62.2797 46.7651 64.598 46.9757 66.9162C47.1864 69.2872 46.9757 71.6582 46.7124 74.0818" fill="white"/>
</svg>
