<svg width="103" height="51" viewBox="0 0 103 51" fill="none" xmlns="http://www.w3.org/2000/svg">
<path d="M35.6153 2.59034C38.8733 0.0648922 43.2377 -0.366274 47.2947 0.249688C58.6052 1.91279 57.3144 11.029 57.9906 13.0001C57.9291 11.2138 59.22 9.61231 60.8182 8.87315C62.4164 8.134 64.2605 8.13399 65.9817 8.38037C67.7643 8.68835 69.6084 9.36592 70.8993 10.6594C72.2517 11.953 72.9893 13.8624 72.559 15.6487C75.8784 13.2465 80.4887 13.4929 84.3613 14.7248C87.2504 15.6487 90.1395 17.2502 91.7992 19.7757C93.4589 22.3011 93.7663 25.9969 91.7992 28.3376C94.8113 27.66 98.2536 27.8448 100.589 29.8775C103.417 32.3413 103.663 36.961 101.819 40.2872C99.9748 43.5518 96.471 45.6461 92.9057 46.8164C88.7872 48.1715 84.4228 48.4179 80.1813 48.7259C58.6667 50.1426 37.0906 51.4977 15.5146 50.8202C11.6419 50.697 7.52341 50.389 4.4499 48.0483C1.86815 46.0773 0.454329 42.8126 0.0855075 39.6096C-0.283314 36.2835 0.515798 32.5877 2.97461 30.3086C5.43342 27.968 9.67488 27.4752 12.1337 29.8159C11.2731 25.8121 11.4575 21.4388 13.486 17.8662C15.5146 14.2936 19.6945 11.8914 23.7516 12.5689C27.7472 13.2465 30.6363 16.6343 33.218 19.7757C32.4804 18.9133 31.8657 12.1993 31.8042 10.721C31.5583 7.51804 33.218 4.43822 35.6153 2.59034Z" fill="white"/>
</svg>
