<svg width="93" height="46" viewBox="0 0 93 46" fill="none" xmlns="http://www.w3.org/2000/svg">
<path d="M32.2603 2.33535C35.16 0.0609261 39.14 -0.337104 42.7789 0.231501C52.9562 1.70987 51.8191 9.95465 52.4445 11.7173C52.3877 10.1252 53.5248 8.64684 54.9463 7.96452C56.3677 7.28219 58.0734 7.28218 59.6085 7.56649C61.2573 7.85079 62.8494 8.47627 64.0434 9.61348C65.2374 10.7507 65.9196 12.5133 65.5216 14.1054C68.535 11.9447 72.6856 12.1153 76.2107 13.3094C78.8261 14.1623 81.3847 15.5838 82.9198 17.8583C84.455 20.1327 84.6824 23.4306 82.9198 25.5913C85.649 24.9658 88.7193 25.1364 90.823 26.9559C93.3815 29.1735 93.609 33.3812 91.9033 36.3379C90.2544 39.2947 87.0704 41.171 83.8296 42.2514C80.1339 43.4455 76.2107 43.7298 72.3445 43.9572C52.8994 45.2081 33.4543 46.4591 14.0092 45.8336C10.541 45.7199 6.78839 45.4925 4.0024 43.3318C1.67127 41.5122 0.420437 38.6123 0.0792955 35.7124C-0.261846 32.6988 0.47728 29.4009 2.6947 27.2971C4.91212 25.1932 8.72154 24.7384 10.939 26.8422C10.143 23.26 10.3135 19.2798 12.1898 16.0956C14.0661 12.9114 17.8186 10.6938 21.4575 11.3193C25.0395 11.9448 27.7118 14.9584 29.986 17.8014C29.3606 17.0053 28.792 10.9781 28.6783 9.61348C28.6783 6.82732 30.1566 3.9843 32.2603 2.33535Z" fill="white"/>
</svg>
